<?xml version="1.0" encoding="UTF-8" standalone="no"?><!DOCTYPE svg PUBLIC "-//W3C//DTD SVG 1.1//EN" "http://www.w3.org/Graphics/SVG/1.1/DTD/svg11.dtd"><svg width="100%" height="100%" viewBox="0 0 52 9" version="1.1" xmlns="http://www.w3.org/2000/svg" xmlns:xlink="http://www.w3.org/1999/xlink" xml:space="preserve" xmlns:serif="http://www.serif.com/" style="fill-rule:evenodd;clip-rule:evenodd;stroke-linejoin:round;stroke-miterlimit:2;"><g><path d="M0,0l0,0.064l0.129,-0c0.424,-0 0.482,0.106 0.482,0.238l-0,5.864c-0,0.123 -0.042,0.234 -0.482,0.234l-0.129,-0l0,0.063l2.282,-0c0.958,-0 1.671,-0.774 1.671,-1.871c-0,-0.672 -0.215,-1.578 -1.459,-1.756l-0.013,0l0,-0.017l0.013,0c0.643,-0.119 0.944,-0.697 0.944,-1.39c0,-0.808 -0.546,-1.429 -1.671,-1.429l-1.767,0Zm0.694,0.085l1.073,-0c1.113,-0 1.592,0.599 1.592,1.344c-0,0.659 -0.264,1.191 -0.872,1.305c-0.141,0.022 -0.295,0.051 -0.363,0.051c-0.765,0 -1.273,0.463 -1.273,1.157c0,0.501 0.196,0.833 0.492,0.833c0.219,0 0.367,-0.195 0.367,-0.485c-0,-0.263 -0.267,-0.399 -0.267,-0.744c-0,-0.404 0.267,-0.676 0.668,-0.676c0.077,-0 0.229,0.03 0.376,0.051c1.212,0.183 1.386,1.029 1.386,1.671c-0,1.038 -0.659,1.786 -1.591,1.786l-1.591,0l0.003,-6.293Z" style="fill-rule:nonzero;"/><path d="M6.53,2.041l0,0.064l0.322,-0c0.344,-0 0.482,0.017 0.482,0.153c-0,0.038 -0.013,0.081 -0.029,0.136l-1.205,3.775c-0.029,0.089 -0.039,0.127 -0.061,0.127c-0.023,0 -0.032,-0.034 -0.061,-0.123l-1.103,-3.52c-0.148,-0.476 -0.209,-0.633 -0.491,-0.633c-0.061,0 -0.219,0.008 -0.219,0.119c0,0.055 0.023,0.08 0.061,0.08c0.007,0 0.016,-0.004 0.023,-0.008c0.057,-0.026 0.106,-0.034 0.151,-0.034c0.209,-0 0.26,0.059 0.398,0.502l1.131,3.626c0.02,0.064 0.049,0.179 0.049,0.238c-0,0.013 -0,0.022 -0.004,0.03l-0.173,0.498c-0.145,0.417 -0.514,0.566 -0.845,0.566c-0.402,0 -0.392,-0.268 -0.717,-0.268c-0.219,-0 -0.399,0.217 -0.399,0.485c0,0.357 0.296,0.65 0.662,0.65c0.669,-0 1.087,-0.51 1.366,-1.378l1.495,-4.707c0.071,-0.225 0.186,-0.314 0.411,-0.314l0.036,-0l-0,-0.064l-1.28,0Z" style="fill-rule:nonzero;"/><path d="M10.863,0l-0,0.064c0.382,-0 0.52,0.042 0.52,0.387c0,0.029 -0.003,0.098 -0.003,0.098l-0.324,5.57c-0.007,0.132 -0.036,0.276 -0.444,0.276l-0.071,0l0,0.068l1.353,0l0,-0.068l-0.359,0c-0.373,0 -0.415,-0.102 -0.415,-0.225l-0,-0.043l0.347,-5.953l1.938,5.435c0.023,0.059 0.029,0.238 0.029,0.238l0.09,-0c-0,-0 0.01,-0.17 0.032,-0.238l1.896,-5.396l0.296,5.06c0.112,1.922 0.578,3.227 1.739,3.227c0.366,-0 0.662,-0.293 0.662,-0.651c-0,-0.268 -0.18,-0.484 -0.399,-0.484c-0.199,-0 -0.302,0.182 -0.562,0.182c-0.939,0 -1.289,-1.118 -1.373,-2.517l-0.266,-4.477c-0,-0 -0.004,-0.068 -0.004,-0.098c0,-0.344 0.139,-0.391 0.524,-0.391l0,-0.064l-0.594,-0c-0.01,-0 -0.023,0.009 -0.029,0.026l-1.896,5.4c-0.023,0.063 -0.045,0.093 -0.065,0.093c-0.019,0 -0.038,-0.03 -0.061,-0.093l-1.925,-5.4c-0.006,-0.017 -0.019,-0.026 -0.029,-0.026l-0.607,-0Z" style="fill-rule:nonzero;"/><path d="M18.207,2.02c-0.916,0 -1.575,0.939 -1.575,2.232c-0,1.293 0.662,2.232 1.575,2.232c0.912,0 1.574,-0.939 1.574,-2.232c0,-0.502 -0.099,-0.948 -0.273,-1.31l0.003,0.213c0.123,0.315 0.19,0.689 0.19,1.097c0,1.246 -0.627,2.148 -1.494,2.148c-0.868,-0 -1.495,-0.902 -1.495,-2.148c-0,-1.246 0.624,-2.147 1.495,-2.147c0.373,-0 0.617,0.272 0.62,0.676c0,0.272 -0.183,0.429 -0.183,0.659c-0,0.289 0.138,0.485 0.347,0.485c0.257,-0 0.427,-0.298 0.427,-0.749c-0.003,-0.693 -0.485,-1.156 -1.211,-1.156Z" style="fill-rule:nonzero;"/><path d="M20.344,2.041l0,0.064l0.08,-0c0.248,-0 0.338,0.055 0.338,0.212l-0,3.849c-0,0.123 -0.042,0.234 -0.482,0.234l-0.129,-0l0,0.063l1.35,-0l-0,-0.063l-0.177,-0c-0.44,-0 -0.482,-0.111 -0.482,-0.234l-0,-2.063c-0,-1.063 0.482,-1.998 1.128,-1.998c0.103,-0 0.174,0.136 0.174,0.335c-0,0.273 -0.183,0.43 -0.183,0.66c-0,0.289 0.138,0.484 0.347,0.484c0.257,0 0.427,-0.297 0.427,-0.748c-0,-0.489 -0.305,-0.816 -0.765,-0.816c-0.55,0 -0.974,0.62 -1.128,1.411l-0,-1.402l-0.418,0.012l-0.08,0Z" style="fill-rule:nonzero;"/><path d="M23.179,2.041l-0,0.064l0.08,-0c0.248,-0 0.338,0.055 0.338,0.212l-0,3.849c-0,0.123 -0.042,0.234 -0.483,0.234l-0.128,-0l-0,0.063l1.349,-0l0,-0.063l-0.176,-0c-0.441,-0 -0.483,-0.111 -0.483,-0.234l0,-1.667c0,-1.234 0.737,-2.382 1.495,-2.382c0.65,0 0.981,0.387 0.981,1.106l-0,3.261c-0,0.685 0.221,1.14 0.555,1.14c0.322,-0 0.537,-0.221 0.537,-0.553c-0,-0.238 -0.135,-0.395 -0.341,-0.395c-0.189,-0 -0.254,0.204 -0.45,0.204c-0.109,-0 -0.221,-0.29 -0.221,-0.74l-0,-2.93c-0,-0.774 -0.373,-1.19 -1.061,-1.19c-0.601,0 -1.167,0.671 -1.421,1.53c-0.022,0.077 -0.038,0.107 -0.051,0.107c-0.016,-0 -0.023,-0.06 -0.023,-0.132l0,-1.496l-0.417,0.012l-0.08,0Z" style="fill-rule:nonzero;"/><path d="M28.568,2.02c-0.35,0 -0.665,0.14 -0.919,0.382l0.122,0c0.228,-0.191 0.501,-0.297 0.797,-0.297c0.765,-0 1.276,0.655 1.402,1.603c0.006,0.038 0.009,0.081 0.009,0.128c0,0.14 -0.032,0.289 -0.144,0.289l-1.463,-0c-0.318,-0 -0.53,-0.204 -0.53,-0.506c-0,-0.345 0.234,-0.438 0.234,-0.702c0,-0.238 -0.135,-0.4 -0.334,-0.4c-0.295,0 -0.491,0.298 -0.491,0.749c-0,0.565 0.443,0.943 1.111,0.943l1.685,0c0.012,0 0.032,-0.012 0.032,-0.042c-0,-1.233 -0.591,-2.147 -1.511,-2.147Zm-1.455,1.331c-0.078,0.272 -0.119,0.561 -0.119,0.901c-0,1.28 0.639,2.232 1.542,2.232c0.746,0 1.218,-0.434 1.469,-1.025l-0.058,-0.042c-0.241,0.565 -0.684,0.982 -1.411,0.982c-0.861,0 -1.462,-0.906 -1.462,-2.147c-0,-0.28 0.029,-0.527 0.084,-0.757l-0.045,-0.144Z" style="fill-rule:nonzero;"/><path d="M30.423,2.041l-0,0.064l0.08,-0c0.248,-0 0.338,0.055 0.338,0.212l-0,5.89c-0,0.123 -0.042,0.234 -0.482,0.234l-0.129,-0l0,0.063l1.414,-0l-0,-0.063l-0.241,-0c-0.441,-0 -0.482,-0.111 -0.482,-0.234l-0,-5.452c0.398,-0.4 0.819,-0.65 1.227,-0.65c0.762,-0 1.312,0.901 1.312,2.147c0,1.246 -0.563,2.148 -1.344,2.148c-0.25,-0 -0.411,-0.341 -0.411,-0.847c-0,-0.272 0.183,-0.429 0.183,-0.659c0,-0.289 -0.138,-0.485 -0.347,-0.485c-0.257,0 -0.427,0.298 -0.427,0.749c-0,0.795 0.398,1.326 1.002,1.326c0.83,0 1.424,-0.939 1.424,-2.232c-0,-1.293 -0.585,-2.232 -1.392,-2.232c-0.414,0 -0.835,0.246 -1.227,0.629l-0,-0.62l-0.418,0.012l-0.08,0Z" style="fill-rule:nonzero;"/><path d="M35.591,2.02c-0.916,0 -1.575,0.939 -1.575,2.232c0,1.293 0.662,2.232 1.575,2.232c0.912,0 1.574,-0.939 1.574,-2.232c0,-0.502 -0.099,-0.948 -0.273,-1.31l0.003,0.213c0.123,0.315 0.19,0.689 0.19,1.097c0,1.246 -0.627,2.148 -1.494,2.148c-0.868,-0 -1.495,-0.902 -1.495,-2.148c-0,-1.246 0.624,-2.147 1.495,-2.147c0.373,-0 0.617,0.272 0.62,0.676c0,0.272 -0.183,0.429 -0.183,0.659c-0,0.289 0.138,0.485 0.347,0.485c0.257,-0 0.427,-0.298 0.427,-0.749c-0.003,-0.693 -0.485,-1.156 -1.211,-1.156Z" style="fill-rule:nonzero;"/><path d="M37.477,2.041l0,0.064l0.081,-0c0.247,-0 0.337,0.055 0.337,0.212l0,2.977c0,0.774 0.373,1.19 1.061,1.19c0.601,0 1.166,-0.671 1.42,-1.53c0.023,-0.077 0.039,-0.107 0.052,-0.107c0.016,0 0.022,0.06 0.022,0.132l0,0.43l0.029,0.429c0.022,0.315 0.125,0.646 0.292,0.646l0.007,0l0.311,-0.067l-0.012,-0.085l-0.309,0.068c-0.096,-0.005 -0.186,-0.255 -0.209,-0.57l-0.029,-0.425l0,-1.238c0,-1.191 0.444,-1.276 0.444,-1.922c-0,-0.302 -0.151,-0.501 -0.379,-0.501c-0.209,-0 -0.35,0.238 -0.35,0.594c-0,0.387 0.205,0.681 0.205,1.667c0,1.234 -0.736,2.382 -1.494,2.382c-0.65,-0 -0.981,-0.387 -0.981,-1.106l0,-3.252l-0.417,0.012l-0.081,0Z" style="fill-rule:nonzero;"/><path d="M42.796,2.02c-0.662,0 -1.141,0.433 -1.141,1.037c0,0.59 0.619,0.795 1.247,1.037c0.649,0.25 1.309,0.539 1.309,1.332c-0,0.565 -0.55,0.974 -1.318,0.974c-0.515,-0 -0.855,-0.272 -0.855,-0.676c-0,-0.345 0.234,-0.439 0.234,-0.702c0,-0.238 -0.135,-0.4 -0.334,-0.4c-0.296,0 -0.491,0.298 -0.491,0.749c-0,0.667 0.578,1.113 1.446,1.113c0.813,0 1.397,-0.446 1.397,-1.058c0,-0.862 -0.683,-1.183 -1.343,-1.438c-0.616,-0.238 -1.212,-0.42 -1.212,-0.931c0,-0.553 0.447,-0.952 1.061,-0.952c0.273,-0 0.65,0.063 0.971,0.412c0.151,0.162 0.203,0.442 0.235,0.766l0.003,0.034c-0,0.017 0.009,0.029 0.025,0.029c0.016,0 0.026,-0.012 0.026,-0.029l-0.035,-1.276l-0.051,0c0.006,0.238 0.009,0.319 0.009,0.34c0,0.132 -0.013,0.196 -0.048,0.196c-0.026,-0 -0.061,-0.06 -0.125,-0.128c-0.344,-0.366 -0.73,-0.429 -1.01,-0.429l0,0Z" style="fill-rule:nonzero;"/><path d="M46.042,2.02c-0.662,0 -1.14,0.433 -1.14,1.037c-0,0.59 0.618,0.795 1.246,1.037c0.649,0.25 1.309,0.539 1.309,1.332c-0,0.565 -0.55,0.974 -1.318,0.974c-0.515,-0 -0.855,-0.272 -0.855,-0.676c-0,-0.345 0.234,-0.439 0.234,-0.702c0,-0.238 -0.135,-0.4 -0.334,-0.4c-0.295,0 -0.491,0.298 -0.491,0.749c-0,0.667 0.578,1.113 1.446,1.113c0.813,0 1.398,-0.446 1.398,-1.058c-0,-0.862 -0.684,-1.183 -1.344,-1.438c-0.616,-0.238 -1.212,-0.42 -1.212,-0.931c0,-0.553 0.447,-0.952 1.061,-0.952c0.273,-0 0.65,0.063 0.971,0.412c0.151,0.162 0.203,0.442 0.235,0.766l0.003,0.034c-0,0.017 0.009,0.029 0.025,0.029c0.016,0 0.026,-0.012 0.026,-0.029l-0.035,-1.276l-0.051,0c0.006,0.238 0.009,0.319 0.009,0.34c0,0.132 -0.013,0.196 -0.048,0.196c-0.026,-0 -0.061,-0.06 -0.125,-0.128c-0.344,-0.366 -0.73,-0.429 -1.01,-0.429l0,0Z" style="fill-rule:nonzero;"/><path d="M49.513,2.02c-0.35,0 -0.665,0.14 -0.919,0.382l0.122,0c0.228,-0.191 0.501,-0.297 0.797,-0.297c0.765,-0 1.276,0.655 1.402,1.603c0.006,0.038 0.009,0.081 0.009,0.128c0,0.14 -0.032,0.289 -0.144,0.289l-1.463,-0c-0.318,-0 -0.53,-0.204 -0.53,-0.506c-0,-0.345 0.234,-0.438 0.234,-0.702c0,-0.238 -0.135,-0.4 -0.334,-0.4c-0.295,0 -0.491,0.298 -0.491,0.749c-0,0.565 0.443,0.943 1.111,0.943l1.685,0c0.012,0 0.032,-0.012 0.032,-0.042c-0,-1.233 -0.591,-2.147 -1.511,-2.147Zm-1.455,1.331c-0.078,0.272 -0.119,0.561 -0.119,0.901c-0,1.28 0.639,2.232 1.542,2.232c0.746,0 1.218,-0.434 1.469,-1.025l-0.058,-0.042c-0.241,0.565 -0.684,0.982 -1.411,0.982c-0.861,0 -1.462,-0.906 -1.462,-2.147c0,-0.28 0.029,-0.527 0.084,-0.757l-0.045,-0.144Z" style="fill-rule:nonzero;"/></g></svg>