<?xml version="1.0" encoding="UTF-8" standalone="no"?>
<!DOCTYPE svg PUBLIC "-//W3C//DTD SVG 1.1//EN" "http://www.w3.org/Graphics/SVG/1.1/DTD/svg11.dtd">
<svg width="100%" height="100%" viewBox="0 0 319 119" version="1.1" xmlns="http://www.w3.org/2000/svg" xmlns:xlink="http://www.w3.org/1999/xlink" xml:space="preserve" xmlns:serif="http://www.serif.com/" style="fill-rule:evenodd;clip-rule:evenodd;stroke-linejoin:round;stroke-miterlimit:2;">
    <g transform="matrix(0.612113,0,0,0.612113,-188.175,-268.757)">
        <g transform="matrix(0.465252,0,0,0.465252,419.977,261.657)">
            <path d="M-121.775,572.196C-123.576,571.715 -124.776,572.256 -125.377,573.816C-126.817,577.418 -128.468,580.9 -130.329,584.262C-132.19,587.623 -134.591,590.895 -137.533,594.077C-140.474,597.258 -143.266,598.849 -145.907,598.849L-146.087,598.849C-146.927,598.849 -147.648,598.279 -148.248,597.138C-148.848,595.998 -149.389,594.227 -149.869,591.825C-150.349,589.424 -150.709,587.413 -150.949,585.792C-151.189,584.172 -151.49,581.74 -151.85,578.499C-152.45,573.576 -152.96,569.704 -153.381,566.883C-153.801,564.062 -154.581,560.67 -155.722,556.708C-156.862,552.746 -158.333,549.564 -160.134,547.163C-150.049,540.68 -142.845,532.996 -138.523,524.112C-134.441,515.827 -134.261,508.564 -137.983,502.321C-143.025,494.037 -155.332,492.116 -174.901,496.558C-180.064,497.638 -184.806,498.899 -189.128,500.34L-190.389,500.7L-190.569,500.88C-193.571,501.961 -196.272,502.921 -198.673,503.761C-200.354,504.482 -200.954,505.622 -200.474,507.183C-200.234,507.903 -199.754,508.444 -199.033,508.804C-198.313,509.164 -197.593,509.224 -196.872,508.984C-196.512,508.744 -195.882,508.474 -194.981,508.174C-194.081,507.873 -193.391,507.603 -192.91,507.363C-195.312,514.327 -196.992,519.069 -197.953,521.59C-202.515,534.557 -206.597,546.983 -210.199,558.869C-219.564,589.964 -222.565,609.234 -219.203,616.678C-218.243,618.719 -216.922,620.1 -215.241,620.82C-214.521,621.06 -213.681,621.18 -212.72,621.18C-208.638,621.18 -203.536,617.698 -197.413,610.735C-198.613,609.894 -199.394,608.874 -199.754,607.673C-200.954,604.672 -197.112,587.263 -188.228,555.447C-187.988,555.567 -186.667,555.687 -184.266,555.807C-181.865,555.927 -180.304,555.927 -179.584,555.807C-179.103,564.692 -178.263,573.036 -177.062,580.84C-173.941,601.01 -169.018,613.436 -162.295,618.119C-160.134,619.559 -157.913,620.28 -155.632,620.28C-154.191,620.28 -152.75,619.979 -151.31,619.379C-146.507,617.698 -142.155,614.937 -138.253,611.095C-134.351,607.253 -131.169,602.901 -128.708,598.039C-126.247,593.176 -124.356,589.034 -123.035,585.612C-121.715,582.191 -120.634,578.919 -119.794,575.797C-119.674,574.957 -119.794,574.207 -120.154,573.546C-120.514,572.886 -121.054,572.436 -121.775,572.196ZM-172.38,501.6C-167.698,500.52 -163.676,499.92 -160.314,499.799C-157.192,500.04 -155.211,501.24 -154.371,503.401C-152.57,507.363 -154.311,512.946 -159.594,520.15C-164.156,526.273 -171.9,531.555 -182.825,535.998C-179.704,525.552 -177.423,517.928 -175.982,513.126L-172.38,501.6Z" style="fill-rule:nonzero;"/>
            <path d="M-61.445,573.456C-61.445,573.816 -61.835,574.927 -62.615,576.788C-63.396,578.649 -65.016,581.2 -67.478,584.442C-69.939,587.683 -72.91,590.385 -76.392,592.546C-79.754,594.827 -82.155,595.487 -83.596,594.527C-83.836,594.407 -84.016,594.227 -84.136,593.987C-83.656,593.026 -83.236,592.156 -82.875,591.375C-82.515,590.595 -82.245,589.934 -82.065,589.394C-81.885,588.854 -81.735,588.584 -81.615,588.584C-81.375,587.984 -81.074,587.143 -80.714,586.063L-80.534,586.063C-80.414,585.702 -80.354,585.462 -80.354,585.342C-74.591,570.455 -73.15,559.949 -76.032,553.826C-77.112,551.425 -78.913,549.864 -81.435,549.144C-89.239,546.863 -97.042,548.784 -104.846,554.907C-113.611,561.75 -120.154,572.436 -124.476,586.963C-126.877,595.247 -127.658,602.391 -126.817,608.394C-125.977,614.397 -123.636,618.539 -119.794,620.82C-117.993,621.9 -116.012,622.441 -113.851,622.441C-108.808,622.441 -103.646,619.799 -98.363,614.517C-94.041,609.954 -90.019,604.492 -86.297,598.129C-86.297,598.129 -86.267,598.159 -86.207,598.219C-86.147,598.279 -86.057,598.309 -85.937,598.309C-84.856,599.149 -83.596,599.569 -82.155,599.569C-79.754,599.569 -76.992,598.549 -73.871,596.508C-66.187,591.465 -60.544,584.202 -56.942,574.717L-61.445,573.456ZM-100.164,609.654C-101.845,610.975 -103.286,611.935 -104.486,612.536C-105.687,613.136 -106.467,613.376 -106.827,613.256L-107.368,613.076C-108.688,612.116 -108.598,608.334 -107.097,601.73C-105.597,595.127 -103.286,588.584 -100.164,582.101C-95.482,572.496 -90.979,566.553 -86.657,564.272C-87.137,565.592 -87.618,567.273 -88.098,569.314C-90.619,580.24 -90.979,588.344 -89.179,593.626C-92.42,599.749 -96.082,605.092 -100.164,609.654ZM-83.776,570.395C-83.176,567.753 -82.455,565.832 -81.615,564.632C-80.774,568.594 -81.795,574.957 -84.676,583.721C-85.156,585.162 -85.517,586.003 -85.757,586.243C-85.757,581.68 -85.096,576.398 -83.776,570.395Z" style="fill-rule:nonzero;"/>
            <path d="M10.411,573.456C10.291,573.696 9.571,574.867 8.25,576.968C6.93,579.069 4.919,582.101 2.217,586.063C-0.484,590.025 -3.095,593.746 -5.617,597.228C-10.179,603.111 -14.261,607.793 -17.863,611.275C-17.983,611.395 -18.103,611.425 -18.223,611.365C-18.343,611.305 -18.403,611.215 -18.403,611.095C-17.443,602.811 -12.16,585.522 -2.555,559.229L-2.555,558.689C-2.555,554.847 -3.336,551.966 -4.896,550.045C-6.697,548.004 -9.279,546.863 -12.64,546.623L-14.081,546.623L-14.801,548.064C-14.801,548.064 -15.402,549.534 -16.602,552.476C-17.803,555.417 -19.214,558.899 -20.834,562.921C-22.455,566.943 -23.686,570.095 -24.526,572.376C-27.168,578.619 -29.899,584.382 -32.72,589.664C-35.542,594.947 -38.783,600.02 -42.445,604.882C-46.107,609.744 -49.499,613.136 -52.62,615.057L-52.98,613.796L-53.521,613.796C-53.761,613.556 -53.971,613.076 -54.151,612.356C-54.331,611.635 -54.031,608.994 -53.251,604.432C-52.47,599.869 -50.819,593.987 -48.298,586.783C-46.977,583.061 -45.507,579.069 -43.886,574.807C-42.265,570.545 -40.974,567.303 -40.014,565.082C-39.053,562.861 -38.513,561.63 -38.393,561.39L-38.393,561.21L-38.213,561.03C-38.213,560.67 -38.183,560.01 -38.123,559.049C-38.063,558.089 -38.243,556.708 -38.663,554.907C-39.083,553.106 -39.834,551.605 -40.914,550.405C-43.075,548.004 -46.137,546.803 -50.099,546.803L-51.54,546.803L-52.08,548.064C-55.682,555.267 -59.404,564.452 -63.246,575.617C-70.089,595.667 -71.65,609.174 -67.928,616.138C-67.087,617.698 -66.037,618.929 -64.776,619.829C-63.516,620.73 -61.985,621.3 -60.184,621.54C-59.464,621.54 -58.923,621.54 -58.563,621.54C-50.519,621.54 -41.875,613.976 -32.63,598.849C-35.152,608.934 -35.572,615.717 -33.891,619.199C-33.411,620.04 -32.84,620.73 -32.18,621.27C-31.52,621.81 -30.829,622.141 -30.109,622.261C-29.269,622.501 -28.608,622.621 -28.128,622.621C-22.125,622.621 -13.421,615.117 -2.015,600.11C0.626,596.628 3.328,592.876 6.089,588.854C8.85,584.832 10.891,581.74 12.212,579.579C13.533,577.418 14.253,576.218 14.373,575.978L10.411,573.456Z" style="fill-rule:nonzero;"/>
            <path d="M90.371,573.816C90.371,573.816 89.471,574.417 87.67,575.617C85.869,576.818 83.138,578.649 79.476,581.11C75.814,583.571 72.122,586.123 68.4,588.764C70.801,580.48 73.023,572.136 75.064,563.731L75.064,563.551C75.064,563.071 75.124,562.201 75.244,560.94C75.364,559.679 75.124,557.908 74.523,555.627C73.923,553.346 72.902,551.485 71.462,550.045C68.7,547.163 64.798,546.023 59.756,546.623L58.135,546.803L57.775,548.424C57.775,548.424 57.715,548.634 57.595,549.054C57.475,549.474 57.325,550.105 57.145,550.945C56.965,551.785 56.784,552.716 56.604,553.736C56.424,554.757 56.154,555.988 55.794,557.428C55.434,558.869 55.074,560.37 54.713,561.93C54.353,559.889 53.753,557.969 52.912,556.168C52.312,555.087 51.652,554.127 50.932,553.286C47.57,548.964 42.467,546.923 35.624,547.163C29.621,547.283 23.738,550.855 17.975,557.878C12.212,564.902 7.68,573.006 4.378,582.191C1.077,591.375 -0.634,599.749 -0.754,607.313C-0.754,610.795 -0.364,613.766 0.416,616.228C1.197,618.689 2.247,620.46 3.568,621.54C4.889,622.621 6.059,623.371 7.08,623.791C8.1,624.212 9.151,624.422 10.231,624.422C10.471,624.422 10.771,624.452 11.132,624.512C11.492,624.572 11.732,624.602 11.852,624.602C16.414,624.602 20.736,623.581 24.818,621.54C-2.435,644.112 -15.222,660.74 -13.541,671.425C-12.82,676.588 -8.978,680.13 -2.015,682.051C0.386,682.771 2.787,683.131 5.189,683.131C9.991,683.131 14.733,681.75 19.416,678.989C36.464,669.024 52.072,641.29 66.239,595.787C70.801,592.546 75.274,589.454 79.656,586.513C84.038,583.571 87.31,581.38 89.471,579.939C91.632,578.499 92.772,577.778 92.892,577.778L90.371,573.816ZM43.908,555.807L44.088,555.807C44.808,555.807 45.499,556.048 46.159,556.528C46.819,557.008 47.3,557.488 47.6,557.969C47.9,558.449 48.05,558.689 48.05,558.689C49.251,560.97 49.881,563.881 49.941,567.423C50.001,570.965 49.851,573.636 49.491,575.437C49.131,577.238 48.89,578.439 48.77,579.039L48.41,581.02C47.93,582.461 47.24,584.292 46.339,586.513C45.439,588.734 43.758,592.096 41.297,596.598C38.835,601.1 36.164,604.912 33.283,608.034C27.04,612.596 23.138,614.097 21.577,612.536C20.977,611.935 20.586,610.825 20.406,609.204C20.226,607.583 20.406,605.092 20.947,601.73C21.487,598.369 22.477,594.527 23.918,590.205C27.52,578.559 31.362,569.614 35.444,563.371C38.685,558.329 41.507,555.807 43.908,555.807ZM-2.555,677.188C-6.517,675.747 -8.738,673.586 -9.219,670.705C-9.459,669.024 -9.068,666.923 -8.048,664.402C-7.027,661.88 -5.046,658.549 -2.105,654.407C0.836,650.265 5.759,644.922 12.662,638.379C19.566,631.835 28.12,624.542 38.325,616.498C25.479,651.195 11.852,671.365 -2.555,677.008L-2.555,677.188Z" style="fill-rule:nonzero;"/>
            <path d="M149.621,576.518L145.479,574.537C145.119,575.497 144.338,577.118 143.138,579.399C141.937,581.68 139.836,585.192 136.834,589.934C133.833,594.677 130.681,599.029 127.38,602.991C124.078,606.953 120.146,610.435 115.584,613.436C111.022,616.438 106.579,617.938 102.257,617.938C101.537,617.938 100.816,617.818 100.096,617.578C98.175,616.738 96.794,615.597 95.954,614.157C92.472,608.514 94.453,598.009 101.897,582.641C103.578,582.641 105.319,582.521 107.12,582.281C108.92,582.041 111.082,581.5 113.603,580.66C116.124,579.819 118.645,578.349 121.167,576.248C123.688,574.147 125.789,571.595 127.47,568.594C130.111,563.911 130.051,559.229 127.29,554.547C124.768,550.105 120.987,547.763 115.944,547.523L115.584,547.523C112.342,547.523 108.68,549.234 104.598,552.656C100.516,556.078 96.734,560.34 93.253,565.442C89.771,570.545 86.799,576.218 84.338,582.461C81.877,588.704 80.526,594.467 80.286,599.749C80.046,606.593 81.607,611.965 84.969,615.867C88.33,619.769 93.373,621.96 100.096,622.441C101.537,622.561 102.978,622.561 104.418,622.441C105.859,622.321 106.879,622.141 107.48,621.9L108.56,621.72C112.882,620.52 117.265,618.149 121.707,614.607C126.149,611.065 129.841,607.463 132.782,603.801C135.724,600.14 138.635,595.967 141.517,591.285C144.398,586.603 146.319,583.331 147.28,581.47C148.24,579.609 149.021,577.958 149.621,576.518ZM123.688,566.253C119.606,573.576 113.183,577.478 104.418,577.958C105.259,576.398 106.099,574.837 106.939,573.276C109.941,568.114 112.702,564.032 115.224,561.03C117.745,558.029 119.426,556.288 120.266,555.807C121.107,555.327 121.767,555.147 122.247,555.267C122.847,555.747 123.268,556.288 123.508,556.888C125.309,560.01 125.369,563.131 123.688,566.253Z" style="fill-rule:nonzero;"/>
            <path d="M253.173,557.969C250.891,555.687 247.59,554.427 243.268,554.187L224.538,554.187L223.638,555.087C222.677,556.528 222.497,557.969 223.098,559.409C223.938,561.09 225.799,561.93 228.68,561.93L231.742,561.93C234.503,561.69 236.484,561.69 237.685,561.93L223.638,608.754C217.515,611.275 212.952,611.455 209.951,609.294C206.349,606.653 204.758,600.62 205.179,591.195C205.599,581.77 207.91,570.935 212.112,558.689C214.873,550.645 218.055,543.411 221.657,536.988C225.259,530.565 228.77,525.522 232.192,521.86C235.614,518.199 238.525,515.407 240.926,513.486C243.328,511.565 245.609,510.005 247.77,508.804C248.85,516.008 247.59,526.693 243.988,540.86C243.748,541.58 243.838,542.241 244.258,542.841C244.678,543.441 245.189,543.861 245.789,544.102C246.629,544.342 247.38,544.252 248.04,543.831C248.7,543.411 249.091,542.841 249.211,542.121C254.373,521.11 254.853,507.483 250.651,501.24C247.53,496.798 243.027,494.517 237.145,494.397C226.579,494.157 215.834,501.18 204.908,515.467C201.067,520.39 197.255,527.113 193.473,535.637C189.691,544.162 186.659,552.866 184.378,561.75C178.255,584.562 178.255,601.07 184.378,611.275C188.34,617.878 194.643,621.18 203.288,621.18C205.329,621.18 207.31,621.06 209.231,620.82C214.393,619.979 219.556,618.299 224.718,615.777C224.838,615.897 225.018,616.078 225.259,616.318C227.78,619.079 232.042,620.46 238.045,620.46L240.026,620.46L240.566,618.659C241.527,615.177 242.547,611.545 243.628,607.763C244.708,603.981 245.729,600.47 246.689,597.228C247.65,593.987 248.61,590.835 249.571,587.773C250.531,584.712 251.402,581.95 252.182,579.489C252.962,577.028 253.623,574.897 254.163,573.096C254.703,571.295 255.154,569.854 255.514,568.774C255.874,567.693 256.054,567.153 256.054,567.153L256.054,566.613C256.414,563.011 255.454,560.13 253.173,557.969Z" style="fill-rule:nonzero;"/>
            <path d="M314.583,573.456C314.583,573.816 314.193,574.927 313.413,576.788C312.632,578.649 311.011,581.2 308.55,584.442C306.089,587.683 303.118,590.385 299.636,592.546C296.274,594.827 293.873,595.487 292.432,594.527C292.192,594.407 292.012,594.227 291.892,593.987C292.372,593.026 292.792,592.156 293.153,591.375C293.513,590.595 293.783,589.934 293.963,589.394C294.143,588.854 294.293,588.584 294.413,588.584C294.653,587.984 294.953,587.143 295.314,586.063L295.494,586.063C295.614,585.702 295.674,585.462 295.674,585.342C301.437,570.455 302.877,559.949 299.996,553.826C298.915,551.425 297.115,549.864 294.593,549.144C286.789,546.863 278.985,548.784 271.182,554.907C262.417,561.75 255.874,572.436 251.552,586.963C249.151,595.247 248.37,602.391 249.211,608.394C250.051,614.397 252.392,618.539 256.234,620.82C258.035,621.9 260.016,622.441 262.177,622.441C267.22,622.441 272.382,619.799 277.665,614.517C281.987,609.954 286.009,604.492 289.731,598.129C289.731,598.129 289.761,598.159 289.821,598.219C289.881,598.279 289.971,598.309 290.091,598.309C291.172,599.149 292.432,599.569 293.873,599.569C296.274,599.569 299.035,598.549 302.157,596.508C309.841,591.465 315.484,584.202 319.085,574.717L314.583,573.456ZM275.864,609.654C274.183,610.975 272.742,611.935 271.542,612.536C270.341,613.136 269.561,613.376 269.201,613.256L268.66,613.076C267.34,612.116 267.43,608.334 268.93,601.73C270.431,595.127 272.742,588.584 275.864,582.101C280.546,572.496 285.048,566.553 289.371,564.272C288.89,565.592 288.41,567.273 287.93,569.314C285.409,580.24 285.048,588.344 286.849,593.626C283.608,599.749 279.946,605.092 275.864,609.654ZM292.252,570.395C292.852,567.753 293.573,565.832 294.413,564.632C295.254,568.594 294.233,574.957 291.352,583.721C290.871,585.162 290.511,586.003 290.271,586.243C290.271,581.68 290.931,576.398 292.252,570.395Z" style="fill-rule:nonzero;"/>
            <path d="M377.074,573.096C372.632,583.901 367.53,590.565 361.767,593.086C366.929,572.196 367.23,558.989 362.667,553.466C360.986,551.425 358.765,550.585 356.004,550.945C349.761,551.425 342.317,560.07 333.673,576.878C334.993,572.316 335.894,569.134 336.374,567.333C337.695,562.651 337.155,558.629 334.753,555.267C331.992,551.425 328.15,549.324 323.228,548.964L321.607,548.964L320.886,550.405C320.166,552.326 319.085,555.357 317.645,559.499C316.204,563.641 314.313,570.005 311.972,578.589C309.631,587.173 308.04,594.587 307.2,600.83C305.999,609.954 307.26,616.258 310.981,619.739C312.782,621.54 315.003,622.441 317.645,622.441C318.005,622.441 318.425,622.381 318.905,622.261L320.166,622.081L320.526,620.64C320.526,620.52 321.187,618.479 322.507,614.517C322.747,613.796 323.378,612.086 324.398,609.384C325.419,606.683 326.949,602.901 328.99,598.039C331.031,593.176 333.012,588.644 334.933,584.442C339.015,575.797 342.857,569.014 346.459,564.092L347.72,564.092C348.44,565.892 347.96,572.136 346.279,582.821C345.319,588.344 346.219,592.486 348.98,595.247C349.821,596.088 350.901,596.748 352.222,597.228C353.543,597.948 355.284,598.309 357.445,598.309C359.246,598.309 360.926,598.069 362.487,597.588C369.811,594.947 376.114,587.323 381.397,574.717L377.074,573.096Z" style="fill-rule:nonzero;"/>
            <path d="M459.195,573.816C459.195,573.816 458.295,574.417 456.494,575.617C454.693,576.818 451.962,578.649 448.3,581.11C444.638,583.571 440.946,586.123 437.225,588.764C439.626,580.48 441.847,572.136 443.888,563.731L443.888,563.551C443.888,563.071 443.948,562.201 444.068,560.94C444.188,559.679 443.948,557.908 443.348,555.627C442.747,553.346 441.727,551.485 440.286,550.045C437.525,547.163 433.623,546.023 428.58,546.623L426.959,546.803L426.599,548.424C426.599,548.424 426.539,548.634 426.419,549.054C426.299,549.474 426.149,550.105 425.969,550.945C425.789,551.785 425.609,552.716 425.429,553.736C425.249,554.757 424.978,555.988 424.618,557.428C424.258,558.869 423.898,560.37 423.538,561.93C423.177,559.889 422.577,557.969 421.737,556.168C421.136,555.087 420.476,554.127 419.756,553.286C416.394,548.964 411.292,546.923 404.448,547.163C398.445,547.283 392.562,550.855 386.799,557.878C381.036,564.902 376.504,573.006 373.203,582.191C369.901,591.375 368.19,599.749 368.07,607.313C368.07,610.795 368.46,613.766 369.241,616.228C370.021,618.689 371.071,620.46 372.392,621.54C373.713,622.621 374.883,623.371 375.904,623.791C376.924,624.212 377.975,624.422 379.055,624.422C379.296,624.422 379.596,624.452 379.956,624.512C380.316,624.572 380.556,624.602 380.676,624.602C385.239,624.602 389.561,623.581 393.643,621.54C366.389,644.112 353.603,660.74 355.284,671.425C356.004,676.588 359.846,680.13 366.809,682.051C369.211,682.771 371.612,683.131 374.013,683.131C378.815,683.131 383.558,681.75 388.24,678.989C405.289,669.024 420.896,641.29 435.063,595.787C439.626,592.546 444.098,589.454 448.48,586.513C452.862,583.571 456.134,581.38 458.295,579.939C460.456,578.499 461.597,577.778 461.717,577.778L459.195,573.816ZM412.732,555.807L412.912,555.807C413.633,555.807 414.323,556.048 414.983,556.528C415.644,557.008 416.124,557.488 416.424,557.969C416.724,558.449 416.874,558.689 416.874,558.689C418.075,560.97 418.705,563.881 418.765,567.423C418.825,570.965 418.675,573.636 418.315,575.437C417.955,577.238 417.715,578.439 417.595,579.039L417.235,581.02C416.754,582.461 416.064,584.292 415.163,586.513C414.263,588.734 412.582,592.096 410.121,596.598C407.66,601.1 404.988,604.912 402.107,608.034C395.864,612.596 391.962,614.097 390.401,612.536C389.801,611.935 389.411,610.825 389.231,609.204C389.05,607.583 389.231,605.092 389.771,601.73C390.311,598.369 391.302,594.527 392.742,590.205C396.344,578.559 400.186,569.614 404.268,563.371C407.51,558.329 410.331,555.807 412.732,555.807ZM366.269,677.188C362.307,675.747 360.086,673.586 359.606,670.705C359.366,669.024 359.756,666.923 360.776,664.402C361.797,661.88 363.778,658.549 366.719,654.407C369.661,650.265 374.583,644.922 381.487,638.379C388.39,631.835 396.944,624.542 407.149,616.498C394.303,651.195 380.676,671.365 366.269,677.008L366.269,677.188Z" style="fill-rule:nonzero;"/>
            <path d="M518.445,576.518L514.303,574.537C513.943,575.497 513.162,577.118 511.962,579.399C510.761,581.68 508.66,585.192 505.659,589.934C502.657,594.677 499.506,599.029 496.204,602.991C492.902,606.953 488.97,610.435 484.408,613.436C479.846,616.438 475.404,617.938 471.081,617.938C470.361,617.938 469.641,617.818 468.92,617.578C466.999,616.738 465.619,615.597 464.778,614.157C461.297,608.514 463.278,598.009 470.721,582.641C472.402,582.641 474.143,582.521 475.944,582.281C477.745,582.041 479.906,581.5 482.427,580.66C484.948,579.819 487.47,578.349 489.991,576.248C492.512,574.147 494.613,571.595 496.294,568.594C498.935,563.911 498.875,559.229 496.114,554.547C493.593,550.105 489.811,547.763 484.768,547.523L484.408,547.523C481.166,547.523 477.505,549.234 473.423,552.656C469.341,556.078 465.559,560.34 462.077,565.442C458.595,570.545 455.624,576.218 453.162,582.461C450.701,588.704 449.351,594.467 449.11,599.749C448.87,606.593 450.431,611.965 453.793,615.867C457.154,619.769 462.197,621.96 468.92,622.441C470.361,622.561 471.802,622.561 473.243,622.441C474.683,622.321 475.704,622.141 476.304,621.9L477.385,621.72C481.707,620.52 486.089,618.149 490.531,614.607C494.973,611.065 498.665,607.463 501.607,603.801C504.548,600.14 507.46,595.967 510.341,591.285C513.222,586.603 515.143,583.331 516.104,581.47C517.064,579.609 517.845,577.958 518.445,576.518ZM492.512,566.253C488.43,573.576 482.007,577.478 473.243,577.958C474.083,576.398 474.923,574.837 475.764,573.276C478.765,568.114 481.527,564.032 484.048,561.03C486.569,558.029 488.25,556.288 489.09,555.807C489.931,555.327 490.591,555.147 491.071,555.267C491.672,555.747 492.092,556.288 492.332,556.888C494.133,560.01 494.193,563.131 492.512,566.253Z" style="fill-rule:nonzero;"/>
        </g>
        <g transform="matrix(0.446653,0,0,0.446653,502.199,389.871)">
            <path d="M506.207,288.33C505.437,287.23 498.694,340.533 540,376.454C545.56,381.289 562.17,388.845 578.253,392.45C599.813,397.282 621.191,397.44 621.191,397.44L623.007,362.113C623.007,362.113 603.287,344.058 595.18,334.665C587.597,325.88 574.365,305.757 574.365,305.757C574.365,305.757 554.501,298.906 536.621,294.323C520.412,290.168 506.012,288.232 506.207,288.33Z" style="fill:url(#_Linear1);"/>
            <g transform="matrix(1,0,0,1,-1,0)">
                <path d="M424.674,210.606L393.302,196.606L416.946,234.995L424.674,210.606Z" style="fill:url(#_Linear2);"/>
            </g>
            <g transform="matrix(1,0,0,1,-0.0474134,0)">
                <path d="M502.469,283.183C502.469,283.183 524.729,286.325 536.334,289.147C547.116,291.769 572.096,300.113 572.096,300.113C572.096,300.113 566.625,292.861 557.739,269.497C553.259,257.716 554.68,237.612 543.108,220.77C529.245,200.593 507.69,188.35 476.693,187.043C446.546,185.772 431.47,195.773 423.674,207.741C421.301,211.384 421.601,216.392 420.352,220.668C418.946,225.482 416.113,229.637 415.536,234.995C411.877,268.981 402.269,333.99 454.738,390.957C477.032,415.162 512.047,423.674 512.047,423.674L488.37,462.937C488.37,462.937 487.864,465.291 489.248,465.342C490.658,465.395 491.615,464.988 491.615,464.988L534.165,429.46C534.165,429.46 567.844,430.402 576.472,428.919C609.413,423.254 628.058,402.932 628.058,402.932C628.058,402.932 561.306,404.511 530.346,374.481C493.33,338.577 501.938,283.183 502.469,283.183Z" style="fill:url(#_Linear3);"/>
            </g>
            <g transform="matrix(1,0,0,1,-1,-1)">
                <path d="M623.007,362.316C624.034,363.035 621.26,398.44 621.26,398.44C621.26,398.44 644.892,412.994 662.041,428.333C676.058,440.87 684.451,451.258 689.327,454.806C696.588,460.089 704.817,455.367 707.455,443.675C712.27,422.34 704.989,418.425 700.072,413.585C691.185,404.835 668.741,396.402 655.896,387.857C643.6,379.677 623.007,362.316 623.007,362.316Z" style="fill:url(#_Linear4);"/>
            </g>
        </g>
    </g>
    <defs>
        <linearGradient id="_Linear1" x1="0" y1="0" x2="1" y2="0" gradientUnits="userSpaceOnUse" gradientTransform="matrix(117.667,0,0,109.126,505.34,342.877)"><stop offset="0" style="stop-color:rgb(247,120,52);stop-opacity:1"/><stop offset="0.47" style="stop-color:rgb(243,66,48);stop-opacity:1"/><stop offset="1" style="stop-color:rgb(83,1,14);stop-opacity:1"/></linearGradient>
        <linearGradient id="_Linear2" x1="0" y1="0" x2="1" y2="0" gradientUnits="userSpaceOnUse" gradientTransform="matrix(31.3725,0,0,38.3893,393.302,215.8)"><stop offset="0" style="stop-color:rgb(255,156,71);stop-opacity:1"/><stop offset="1" style="stop-color:rgb(252,131,40);stop-opacity:1"/></linearGradient>
        <linearGradient id="_Linear3" x1="0" y1="0" x2="1" y2="0" gradientUnits="userSpaceOnUse" gradientTransform="matrix(215.022,0,0,243.501,413.035,308.684)"><stop offset="0" style="stop-color:rgb(253,136,39);stop-opacity:1"/><stop offset="0.5" style="stop-color:rgb(243,66,47);stop-opacity:1"/><stop offset="1" style="stop-color:rgb(100,32,42);stop-opacity:1"/></linearGradient>
        <linearGradient id="_Linear4" x1="0" y1="0" x2="1" y2="0" gradientUnits="userSpaceOnUse" gradientTransform="matrix(87.5561,0,0,94.6415,621.26,409.637)"><stop offset="0" style="stop-color:rgb(0,38,38);stop-opacity:1"/><stop offset="0.47" style="stop-color:rgb(0,35,37);stop-opacity:1"/><stop offset="1" style="stop-color:rgb(0,37,40);stop-opacity:1"/></linearGradient>
    </defs>
</svg>
