  0
SECTION
  2
HEADER
  9
$ACADVER
  1
AC1014
  9
$HANDSEED
  5
FFFF
  9
$MEASUREMENT
 70
     1
  0
ENDSEC
  0
SECTION
  2
TABLES
  0
TABLE
  2
VPORT
  5
8
330
0
100
AcDbSymbolTable
 70
     4
  0
VPORT
  5
2E
330
8
100
AcDbSymbolTableRecord
100
AcDbViewportTableRecord
  2
*ACTIVE
 70
     0
 10
0.0
 20
0.0
 11
1.0
 21
1.0
 12
210.0
 22
148.5
 13
0.0
 23
0.0
 14
10.0
 24
10.0
 15
10.0
 25
10.0
 16
0.0
 26
0.0
 36
1.0
 17
0.0
 27
0.0
 37
0.0
 40
341.0
 41
1.24
 42
50.0
 43
0.0
 44
0.0
 50
0.0
 51
0.0
 71
     0
 72
   100
 73
     1
 74
     3
 75
     0
 76
     0
 77
     0
 78
     0
  0
ENDTAB
  0
TABLE
  2
LTYPE
  5
5
330
0
100
AcDbSymbolTable
 70
     1
  0
LTYPE
  5
14
330
5
100
AcDbSymbolTableRecord
100
AcDbLinetypeTableRecord
  2
BYBLOCK
 70
     0
  3

 72
    65
 73
     0
 40
0.0
  0
LTYPE
  5
15
330
5
100
AcDbSymbolTableRecord
100
AcDbLinetypeTableRecord
  2
BYLAYER
 70
     0
  3

 72
    65
 73
     0
 40
0.0
  0
LTYPE
  5
16
330
5
100
AcDbSymbolTableRecord
100
AcDbLinetypeTableRecord
  2
CONTINUOUS
 70
     0
  3
Solid line
 72
    65
 73
     0
 40
0.0
  0
ENDTAB
  0
TABLE
  2
LAYER
  5
2
100
AcDbSymbolTable
 70
1
  0
LAYER
  5
50
100
AcDbSymbolTableRecord
100
AcDbLayerTableRecord
  2
0
 70
0
  6
CONTINUOUS
  0
ENDTAB
  0
TABLE
  2
STYLE
  5
3
330
0
100
AcDbSymbolTable
 70
     1
  0
STYLE
  5
11
330
3
100
AcDbSymbolTableRecord
100
AcDbTextStyleTableRecord
  2
STANDARD
 70
     0
 40
0.0
 41
1.0
 50
0.0
 71
     0
 42
2.5
  3
txt
  4

  0
ENDTAB
  0
TABLE
  2
VIEW
  5
6
330
0
100
AcDbSymbolTable
 70
     0
  0
ENDTAB
  0
TABLE
  2
UCS
  5
7
330
0
100
AcDbSymbolTable
 70
     0
  0
ENDTAB
  0
TABLE
  2
APPID
  5
9
330
0
100
AcDbSymbolTable
 70
     2
  0
APPID
  5
12
330
9
100
AcDbSymbolTableRecord
100
AcDbRegAppTableRecord
  2
ACAD
 70
     0
  0
ENDTAB
  0
TABLE
  2
DIMSTYLE
  5
A
330
0
100
AcDbSymbolTable
 70
     1
  0
DIMSTYLE
105
27
330
A
100
AcDbSymbolTableRecord
100
AcDbDimStyleTableRecord
  2
ISO-25
 70
     0
  3

  4

  5

  6

  7

 40
1.0
 41
2.5
 42
0.625
 43
3.75
 44
1.25
 45
0.0
 46
0.0
 47
0.0
 48
0.0
140
2.5
141
2.5
142
0.0
143
0.03937007874016
144
1.0
145
0.0
146
1.0
147
0.625
 71
     0
 72
     0
 73
     0
 74
     0
 75
     0
 76
     0
 77
     1
 78
     8
170
     0
171
     3
172
     1
173
     0
174
     0
175
     0
176
     0
177
     0
178
     0
270
     2
271
     2
272
     2
273
     2
274
     3
340
11
275
     0
280
     0
281
     0
282
     0
283
     0
284
     8
285
     0
286
     0
287
     3
288
     0
  0
ENDTAB
  0
TABLE
  2
BLOCK_RECORD
  5
1
330
0
100
AcDbSymbolTable
 70
     1
  0
BLOCK_RECORD
  5
1F
330
1
100
AcDbSymbolTableRecord
100
AcDbBlockTableRecord
  2
*MODEL_SPACE
  0
BLOCK_RECORD
  5
1B
330
1
100
AcDbSymbolTableRecord
100
AcDbBlockTableRecord
  2
*PAPER_SPACE
  0
ENDTAB
  0
ENDSEC
  0
SECTION
  2
BLOCKS
  0
BLOCK
  5
20
330
1F
100
AcDbEntity
  8
0
100
AcDbBlockBegin
  2
*MODEL_SPACE
 70
     0
 10
0.0
 20
0.0
 30
0.0
  3
*MODEL_SPACE
  1

  0
ENDBLK
  5
21
330
1F
100
AcDbEntity
  8
0
100
AcDbBlockEnd
  0
BLOCK
  5
1C
330
1B
100
AcDbEntity
 67
     1
  8
0
100
AcDbBlockBegin
  2
*PAPER_SPACE
  1

  0
ENDBLK
  5
1D
330
1B
100
AcDbEntity
 67
     1
  8
0
100
AcDbBlockEnd
  0
ENDSEC
  0
SECTION
  2
ENTITIES
  0
SPLINE
  5
100
100
AcDbEntity
  8
0
 62
2
100
AcDbSpline
 70
0
 71
3
 72
19
 73
15
 74
13
 40
0.000000
 40
0.000000
 40
0.000000
 40
0.000000
 40
1.322906
 40
4.521787
 40
8.579109
 40
11.383067
 40
14.239841
 40
16.756523
 40
19.840878
 40
22.868167
 40
25.813280
 40
29.095625
 40
31.694189
 40
32.771010
 40
32.771010
 40
32.771010
 40
32.771010
 10
54.628455
 20
17.202637
 30
0.0
 10
54.897536
 20
17.552318
 30
0.0
 10
55.817274
 20
18.747556
 30
0.0
 10
57.845310
 20
20.772735
 30
0.0
 10
60.669056
 20
22.706364
 30
0.0
 10
63.868535
 20
23.457501
 30
0.0
 10
66.626162
 20
23.378259
 30
0.0
 10
69.334911
 20
22.226106
 30
0.0
 10
70.851397
 20
19.542769
 30
0.0
 10
70.948537
 20
16.452460
 30
0.0
 10
69.888003
 20
13.476218
 30
0.0
 10
67.923638
 20
11.226457
 30
0.0
 10
66.125263
 20
9.751233
 30
0.0
 10
65.081471
 20
9.108455
 30
0.0
 10
64.775659
 20
8.920132
 30
0.0
 11
54.628455
 21
17.202637
 31
0.0
 11
55.448467
 21
18.240741
 31
0.0
 11
57.704845
 21
20.508250
 31
0.0
 11
61.137328
 21
22.671563
 31
0.0
 11
63.862250
 21
23.332607
 31
0.0
 11
66.715093
 21
23.182786
 31
0.0
 11
68.989693
 21
22.105808
 31
0.0
 11
70.604543
 21
19.477976
 31
0.0
 11
70.757120
 21
16.454534
 31
0.0
 11
69.776264
 21
13.677555
 31
0.0
 11
67.705672
 21
11.130706
 31
0.0
 11
65.685043
 21
9.496817
 31
0.0
 11
64.775659
 21
8.920132
 31
0.0
  0
SPLINE
  5
101
100
AcDbEntity
  8
0
 62
7
100
AcDbSpline
 70
0
 71
3
 72
10
 73
6
 74
4
 40
0.000000
 40
0.000000
 40
0.000000
 40
0.000000
 40
0.535958
 40
1.531592
 40
2.067731
 40
2.067731
 40
2.067731
 40
2.067731
 10
79.551344
 20
23.620756
 30
0.0
 10
79.388706
 20
23.694686
 30
0.0
 10
78.923939
 20
23.905954
 30
0.0
 10
78.296551
 20
24.191331
 30
0.0
 10
77.831774
 20
24.402721
 30
0.0
 10
77.669097
 20
24.476710
 30
0.0
 11
79.551344
 21
23.620756
 31
0.0
 11
79.063436
 21
23.842560
 31
0.0
 11
78.157128
 21
24.254741
 31
0.0
 11
77.669097
 21
24.476710
 31
0.0
  0
SPLINE
  5
102
100
AcDbEntity
  8
0
 62
7
100
AcDbSpline
 70
0
 71
3
 72
25
 73
21
 74
19
 40
0.000000
 40
0.000000
 40
0.000000
 40
0.000000
 40
0.426158
 40
1.411589
 40
2.517122
 40
3.225844
 40
3.939522
 40
4.699837
 40
6.038267
 40
7.347380
 40
8.696167
 40
9.999012
 40
11.155960
 40
12.180460
 40
13.417310
 40
14.685259
 40
16.177937
 40
21.028426
 40
24.280308
 40
25.580541
 40
25.580541
 40
25.580541
 40
25.580541
 10
82.614034
 20
26.919831
 30
0.0
 10
82.517066
 20
26.816023
 30
0.0
 10
82.195873
 20
26.472175
 30
0.0
 10
81.616957
 20
25.864762
 30
0.0
 10
80.957251
 20
25.204602
 30
0.0
 10
80.350024
 20
24.620154
 30
0.0
 10
79.865635
 20
24.075678
 30
0.0
 10
79.321503
 20
23.309915
 30
0.0
 10
78.835478
 20
22.269939
 30
0.0
 10
78.573610
 20
20.952516
 30
0.0
 10
78.578463
 20
19.626270
 30
0.0
 10
78.744187
 20
18.365555
 30
0.0
 10
78.986046
 20
17.229244
 30
0.0
 10
79.238332
 20
16.118003
 30
0.0
 10
79.422655
 20
14.954735
 30
0.0
 10
79.527868
 20
13.625276
 30
0.0
 10
79.618070
 20
11.091941
 30
0.0
 10
79.063613
 20
7.847590
 30
0.0
 10
77.313990
 20
5.138291
 30
0.0
 10
76.135894
 20
4.177862
 30
0.0
 10
75.799392
 20
3.903532
 30
0.0
 11
82.614034
 21
26.919831
 31
0.0
 11
82.322814
 21
26.608701
 31
0.0
 11
81.641958
 21
25.896305
 31
0.0
 11
80.860668
 21
25.114134
 31
0.0
 11
80.357672
 21
24.614854
 31
0.0
 11
79.885814
 21
24.079423
 31
0.0
 11
79.447361
 21
23.458264
 31
0.0
 11
78.883459
 21
22.244423
 31
0.0
 11
78.619251
 21
20.962249
 31
0.0
 11
78.607532
 21
19.613513
 31
0.0
 11
78.768409
 21
18.320639
 31
0.0
 11
78.997934
 21
17.186686
 31
0.0
 11
79.212644
 21
16.184938
 31
0.0
 11
79.405209
 21
14.963170
 31
0.0
 11
79.513527
 21
13.699856
 31
0.0
 11
79.553815
 21
12.207722
 31
0.0
 11
78.598707
 21
7.452199
 31
0.0
 11
76.781891
 21
4.755177
 31
0.0
 11
75.799392
 21
3.903532
 31
0.0
  0
SPLINE
  5
103
100
AcDbEntity
  8
0
 62
7
100
AcDbSpline
 70
0
 71
3
 72
19
 73
15
 74
13
 40
0.000000
 40
0.000000
 40
0.000000
 40
0.000000
 40
0.245032
 40
0.846024
 40
1.561528
 40
2.483662
 40
3.719053
 40
5.238675
 40
6.637640
 40
7.919638
 40
8.964786
 40
9.678458
 40
10.335510
 40
10.627019
 40
10.627019
 40
10.627019
 40
10.627019
 10
70.630426
 20
20.244549
 30
0.0
 10
70.663739
 20
20.319211
 30
0.0
 10
70.778759
 20
20.576999
 30
0.0
 10
70.928269
 20
21.074600
 30
0.0
 10
71.190181
 20
21.785362
 30
0.0
 10
71.095002
 20
22.754389
 30
0.0
 10
71.072415
 20
23.988462
 30
0.0
 10
71.736959
 20
25.302855
 30
0.0
 10
72.999986
 20
26.045233
 30
0.0
 10
74.223012
 20
26.213100
 30
0.0
 10
75.262239
 20
26.382533
 30
0.0
 10
75.857522
 20
26.959376
 30
0.0
 10
76.203235
 20
27.389250
 30
0.0
 10
76.378221
 20
27.652954
 30
0.0
 10
76.431997
 20
27.733995
 30
0.0
 11
70.630426
 21
20.244549
 31
0.0
 11
70.727512
 21
20.469527
 31
0.0
 11
70.923135
 21
21.037790
 31
0.0
 11
71.119075
 21
21.725942
 31
0.0
 11
71.116016
 21
22.648071
 31
0.0
 11
71.166187
 21
23.882443
 31
0.0
 11
71.867587
 21
25.230511
 31
0.0
 11
73.055269
 21
25.969778
 31
0.0
 11
74.310308
 21
26.231305
 31
0.0
 11
75.316303
 21
26.514689
 31
0.0
 11
75.857196
 21
26.980268
 31
0.0
 11
76.268563
 21
27.492610
 31
0.0
 11
76.431997
 21
27.733995
 31
0.0
  0
SPLINE
  5
104
100
AcDbEntity
  8
0
 62
7
100
AcDbSpline
 70
0
 71
3
 72
16
 73
12
 74
10
 40
0.000000
 40
0.000000
 40
0.000000
 40
0.000000
 40
1.336113
 40
4.569417
 40
8.655094
 40
11.672205
 40
15.027788
 40
18.073955
 40
18.947451
 40
19.604738
 40
19.864216
 40
19.864216
 40
19.864216
 40
19.864216
 10
60.923185
 20
22.570719
 30
0.0
 10
61.208249
 20
22.913265
 30
0.0
 10
62.183149
 20
24.084748
 30
0.0
 10
64.284035
 20
26.065773
 30
0.0
 10
67.196289
 20
28.034001
 30
0.0
 10
70.653014
 20
28.781118
 30
0.0
 10
73.817489
 20
28.740179
 30
0.0
 10
76.186515
 20
27.955538
 30
0.0
 10
77.431464
 20
27.070223
 30
0.0
 10
77.935492
 20
26.750759
 30
0.0
 10
78.193709
 20
26.587333
 30
0.0
 10
78.266794
 20
26.541077
 30
0.0
 11
60.923185
 21
22.570719
 31
0.0
 11
61.789855
 21
23.587616
 31
0.0
 11
64.132873
 21
25.815739
 31
0.0
 11
67.611973
 21
27.957844
 31
0.0
 11
70.548926
 21
28.648687
 31
0.0
 11
73.903250
 21
28.556782
 31
0.0
 11
76.767051
 21
27.518622
 31
0.0
 11
77.495026
 21
27.035870
 31
0.0
 11
78.047548
 21
26.679858
 31
0.0
 11
78.266794
 21
26.541077
 31
0.0
  0
SPLINE
  5
105
100
AcDbEntity
  8
0
 62
7
100
AcDbSpline
 70
0
 71
3
 72
16
 73
12
 74
10
 40
0.000000
 40
0.000000
 40
0.000000
 40
0.000000
 40
0.288227
 40
1.209092
 40
3.012792
 40
6.133336
 40
9.170684
 40
12.112569
 40
15.097392
 40
17.179480
 40
17.998152
 40
17.998152
 40
17.998152
 40
17.998152
 10
70.477078
 20
19.790845
 30
0.0
 10
70.572582
 20
19.778125
 30
0.0
 10
70.973210
 20
19.724767
 30
0.0
 10
71.886636
 20
19.259267
 30
0.0
 10
73.447130
 20
18.090542
 30
0.0
 10
75.010999
 20
15.814028
 30
0.0
 10
75.428413
 20
12.732106
 30
0.0
 10
74.910763
 20
9.745331
 30
0.0
 10
73.612583
 20
7.359960
 30
0.0
 10
72.236474
 20
5.925470
 30
0.0
 10
71.426699
 20
5.395207
 30
0.0
 10
71.198159
 20
5.245553
 30
0.0
 11
70.477078
 21
19.790845
 31
0.0
 11
70.761653
 21
19.745102
 31
0.0
 11
71.607706
 21
19.381529
 31
0.0
 11
73.048957
 21
18.297033
 31
0.0
 11
74.789259
 21
15.706832
 31
0.0
 11
75.272917
 21
12.708239
 31
0.0
 11
74.760866
 21
9.811260
 31
0.0
 11
73.340156
 21
7.186236
 31
0.0
 11
71.873301
 21
5.708593
 31
0.0
 11
71.198159
 21
5.245553
 31
0.0
  0
SPLINE
  5
106
100
AcDbEntity
  8
0
 62
7
100
AcDbSpline
 70
0
 71
3
 72
13
 73
9
 74
7
 40
0.000000
 40
0.000000
 40
0.000000
 40
0.000000
 40
0.366159
 40
1.260012
 40
2.383610
 40
3.329984
 40
4.058184
 40
4.351532
 40
4.351532
 40
4.351532
 40
4.351532
 10
59.573781
 20
20.162982
 30
0.0
 10
59.676250
 20
20.229304
 30
0.0
 10
60.028862
 20
20.457531
 30
0.0
 10
60.707925
 20
20.869842
 30
0.0
 10
61.594312
 20
21.315493
 30
0.0
 10
62.492937
 20
21.579138
 30
0.0
 10
63.140214
 20
21.692531
 30
0.0
 10
63.479369
 20
21.723470
 30
0.0
 10
63.576761
 20
21.732355
 30
0.0
 11
59.573781
 21
20.162982
 31
0.0
 11
59.881724
 21
20.361082
 31
0.0
 11
60.648089
 21
20.821145
 31
0.0
 11
61.660780
 21
21.307899
 31
0.0
 11
62.567157
 21
21.580119
 31
0.0
 11
63.284846
 21
21.703399
 31
0.0
 11
63.576761
 21
21.732355
 31
0.0
  0
SPLINE
  5
107
100
AcDbEntity
  8
0
 62
7
100
AcDbSpline
 70
0
 71
3
 72
10
 73
6
 74
4
 40
0.000000
 40
0.000000
 40
0.000000
 40
0.000000
 40
0.134751
 40
0.376642
 40
0.506107
 40
0.506107
 40
0.506107
 40
0.506107
 10
64.997414
 20
21.817289
 30
0.0
 10
65.042324
 20
21.816014
 30
0.0
 10
65.167851
 20
21.812449
 30
0.0
 10
65.336489
 20
21.820467
 30
0.0
 10
65.460179
 20
21.825028
 30
0.0
 10
65.503301
 20
21.826619
 30
0.0
 11
64.997414
 21
21.817289
 31
0.0
 11
65.132139
 21
21.814683
 31
0.0
 11
65.373930
 21
21.821687
 31
0.0
 11
65.503301
 21
21.826619
 31
0.0
  0
LWPOLYLINE
  5
108
100
AcDbEntity
  8
0
 62
7
100
AcDbPolyline
 90
3
 70
0
 10
77.669097
 20
24.476710
 30
0.0
 10
78.509111
 20
26.243297
 30
0.0
 10
82.614034
 20
26.919831
 30
0.0
  0
SPLINE
  5
109
100
AcDbEntity
  8
0
 62
7
100
AcDbSpline
 70
0
 71
3
 72
22
 73
18
 74
16
 40
0.000000
 40
0.000000
 40
0.000000
 40
0.000000
 40
0.366339
 40
0.723250
 40
1.092546
 40
1.461842
 40
1.818754
 40
2.185093
 40
2.551431
 40
2.908343
 40
3.277639
 40
3.462618
 40
3.645847
 40
3.830223
 40
4.014153
 40
4.196181
 40
4.379504
 40
4.379504
 40
4.379504
 40
4.379504
 10
73.492516
 20
24.859684
 30
0.0
 10
73.368997
 20
24.840183
 30
0.0
 10
73.125138
 20
24.801684
 30
0.0
 10
72.857767
 20
24.519844
 30
0.0
 10
72.759037
 20
24.153597
 30
0.0
 10
72.857768
 20
23.783438
 30
0.0
 10
73.125136
 20
23.513039
 30
0.0
 10
73.492523
 20
23.412323
 30
0.0
 10
73.859870
 20
23.513075
 30
0.0
 10
74.127358
 20
23.783296
 30
0.0
 10
74.209103
 20
24.091754
 30
0.0
 10
74.176578
 20
24.337783
 30
0.0
 10
74.105966
 20
24.510157
 30
0.0
 10
73.993508
 20
24.658445
 30
0.0
 10
73.846790
 20
24.771336
 30
0.0
 10
73.675940
 20
24.845569
 30
0.0
 10
73.553802
 20
24.854968
 30
0.0
 10
73.492516
 20
24.859684
 30
0.0
 11
73.492516
 21
24.859684
 31
0.0
 11
73.139114
 21
24.763192
 31
0.0
 11
72.887917
 21
24.509646
 31
0.0
 11
72.792319
 21
24.152937
 31
0.0
 11
72.887917
 21
23.796229
 31
0.0
 11
73.139114
 21
23.542683
 31
0.0
 11
73.492516
 21
23.446191
 31
0.0
 11
73.845919
 21
23.542683
 31
0.0
 11
74.097116
 21
23.796229
 31
0.0
 11
74.192714
 21
24.152937
 31
0.0
 11
74.168724
 21
24.336354
 31
0.0
 11
74.099161
 21
24.505865
 31
0.0
 11
73.987631
 21
24.652682
 31
0.0
 11
73.842174
 21
24.765256
 31
0.0
 11
73.674234
 21
24.835470
 31
0.0
 11
73.492516
 21
24.859684
 31
0.0
  0
LWPOLYLINE
  5
10a
100
AcDbEntity
  8
0
 62
7
100
AcDbPolyline
 90
1
 70
1
 10
73.492516
 20
24.859684
 30
0.0
  0
ENDSEC
  0
SECTION
  2
OBJECTS
  0
DICTIONARY
  5
C
330
0
100
AcDbDictionary
  3
ACAD_GROUP
350
D
  3
ACAD_MLINESTYLE
350
17
  0
DICTIONARY
  5
D
330
C
100
AcDbDictionary
  0
DICTIONARY
  5
1A
330
C
100
AcDbDictionary
  0
DICTIONARY
  5
17
330
C
100
AcDbDictionary
  3
STANDARD
350
18
  0
DICTIONARY
  5
19
330
C
100
AcDbDictionary
  0
ENDSEC
  0
EOF
