999
"DXF R12 Output" (www.mydxf.blogspot.com)
 0 
SECTION
 2 
HEADER
 9 
$ACADVER
 1 
AC1009
 9 
$EXTMIN
 10 
 0 
 20 
 0 
 9 
$EXTMAX
 10 
 8.5 
 20 
 11 
 0 
ENDSEC
 0 
SECTION
 2 
ENTITIES
0
LINE
8
Layer 1
10
54.628300
20
17.202600
11
55.098495
21
17.813848
0
LINE
8
Layer 1
10
55.098495
20
17.813848
11
56.413238
21
19.304163
0
LINE
8
Layer 1
10
56.413238
20
19.304163
11
58.462736
21
21.110920
0
LINE
8
Layer 1
10
58.462736
20
21.110920
11
59.728709
21
21.957146
0
LINE
8
Layer 1
10
59.728709
20
21.957146
11
61.137200
21
22.671500
0
LINE
8
Layer 1
10
61.137200
20
22.671500
11
63.141272
21
23.238802
0
LINE
8
Layer 1
10
63.141272
20
23.238802
11
65.316625
21
23.366312
0
LINE
8
Layer 1
10
65.316625
20
23.366312
11
67.365341
21
23.004992
0
LINE
8
Layer 1
10
67.365341
20
23.004992
11
68.249110
21
22.625695
0
LINE
8
Layer 1
10
68.249110
20
22.625695
11
68.989500
21
22.105800
0
LINE
8
Layer 1
10
68.989500
20
22.105800
11
69.787305
21
21.207482
0
LINE
8
Layer 1
10
69.787305
20
21.207482
11
70.350581
21
20.197100
0
LINE
8
Layer 1
10
70.350581
20
20.197100
11
70.696666
21
19.108512
0
LINE
8
Layer 1
10
70.696666
20
19.108512
11
70.842900
21
17.975575
0
LINE
8
Layer 1
10
70.842900
20
17.975575
11
70.806621
21
16.832148
0
LINE
8
Layer 1
10
70.806621
20
16.832148
11
70.605169
21
15.712088
0
LINE
8
Layer 1
10
70.605169
20
15.712088
11
70.255882
21
14.649252
0
LINE
8
Layer 1
10
70.255882
20
14.649252
11
69.776100
21
13.677500
0
LINE
8
Layer 1
10
69.776100
20
13.677500
11
69.061143
21
12.624616
0
LINE
8
Layer 1
10
69.061143
20
12.624616
11
68.259934
21
11.687434
0
LINE
8
Layer 1
10
68.259934
20
11.687434
11
66.622625
21
10.190610
0
LINE
8
Layer 1
10
66.622625
20
10.190610
11
64.775500
21
8.920120
0
LINE
8
Layer 1
10
79.551400
20
23.620700
11
77.669100
21
24.476700
0
LINE
8
Layer 1
10
77.669100
20
24.476700
11
78.509100
21
26.243300
0
LINE
8
Layer 1
10
78.509100
20
26.243300
11
82.614000
21
26.919800
0
LINE
8
Layer 1
10
82.614000
20
26.919800
11
80.860700
21
25.114100
0
LINE
8
Layer 1
10
80.860700
20
25.114100
11
80.117750
21
24.354738
0
LINE
8
Layer 1
10
80.117750
20
24.354738
11
79.447400
21
23.458200
0
LINE
8
Layer 1
10
79.447400
20
23.458200
11
78.994528
21
22.554334
0
LINE
8
Layer 1
10
78.994528
20
22.554334
11
78.716875
21
21.611750
0
LINE
8
Layer 1
10
78.716875
20
21.611750
11
78.607500
21
19.613500
0
LINE
8
Layer 1
10
78.607500
20
19.613500
11
78.879838
21
17.735475
0
LINE
8
Layer 1
10
78.879838
20
17.735475
11
79.212700
21
16.184900
0
LINE
8
Layer 1
10
79.212700
20
16.184900
11
79.468863
21
14.348400
0
LINE
8
Layer 1
10
79.468863
20
14.348400
11
79.553800
21
12.207700
0
LINE
8
Layer 1
10
79.553800
20
12.207700
11
79.404278
21
10.169622
0
LINE
8
Layer 1
10
79.404278
20
10.169622
11
78.984514
21
8.439752
0
LINE
8
Layer 1
10
78.984514
20
8.439752
11
78.383946
21
7.006852
0
LINE
8
Layer 1
10
78.383946
20
7.006852
11
77.692013
21
5.859681
0
LINE
8
Layer 1
10
77.692013
20
5.859681
11
76.391805
21
4.377575
0
LINE
8
Layer 1
10
76.391805
20
4.377575
11
75.799400
21
3.903520
0
LINE
8
Layer 1
10
70.630300
20
20.244500
11
71.118900
21
21.725900
0
LINE
8
Layer 1
10
71.118900
20
21.725900
11
71.096937
21
23.238612
0
LINE
8
Layer 1
10
71.096937
20
23.238612
11
71.257008
21
24.216552
0
LINE
8
Layer 1
10
71.257008
20
24.216552
11
71.867500
21
25.230500
0
LINE
8
Layer 1
10
71.867500
20
25.230500
11
72.739570
21
25.849263
0
LINE
8
Layer 1
10
72.739570
20
25.849263
11
73.694037
21
26.129025
0
LINE
8
Layer 1
10
73.694037
20
26.129025
11
74.597411
21
26.280575
0
LINE
8
Layer 1
10
74.597411
20
26.280575
11
75.316200
21
26.514700
0
LINE
8
Layer 1
10
75.316200
20
26.514700
11
76.086375
21
27.250463
0
LINE
8
Layer 1
10
76.086375
20
27.250463
11
76.431900
21
27.734000
0
LINE
8
Layer 1
10
60.923300
20
22.570700
11
61.421619
21
23.169167
0
LINE
8
Layer 1
10
61.421619
20
23.169167
11
62.798225
21
24.631363
0
LINE
8
Layer 1
10
62.798225
20
24.631363
11
64.909569
21
26.410002
0
LINE
8
Layer 1
10
64.909569
20
26.410002
11
66.195908
21
27.246961
0
LINE
8
Layer 1
10
66.195908
20
27.246961
11
67.612100
21
27.957800
0
LINE
8
Layer 1
10
67.612100
20
27.957800
11
69.740211
21
28.542969
0
LINE
8
Layer 1
10
69.740211
20
28.542969
11
72.230787
21
28.710800
0
LINE
8
Layer 1
10
72.230787
20
28.710800
11
74.700795
21
28.392331
0
LINE
8
Layer 1
10
74.700795
20
28.392331
11
75.808388
21
28.029184
0
LINE
8
Layer 1
10
75.808388
20
28.029184
11
76.767200
21
27.518600
0
LINE
8
Layer 1
10
76.767200
20
27.518600
11
78.266900
21
26.541100
0
LINE
8
Layer 1
10
70.476900
20
19.790800
11
71.112225
21
19.628187
0
LINE
8
Layer 1
10
71.112225
20
19.628187
11
71.910741
21
19.193692
0
LINE
8
Layer 1
10
71.910741
20
19.193692
11
73.048800
21
18.297000
0
LINE
8
Layer 1
10
73.048800
20
18.297000
11
73.865237
21
17.405907
0
LINE
8
Layer 1
10
73.865237
20
17.405907
11
74.482023
21
16.412560
0
LINE
8
Layer 1
10
74.482023
20
16.412560
11
74.912920
21
15.343852
0
LINE
8
Layer 1
10
74.912920
20
15.343852
11
75.171687
21
14.226679
0
LINE
8
Layer 1
10
75.171687
20
14.226679
11
75.227883
21
11.954516
0
LINE
8
Layer 1
10
75.227883
20
11.954516
11
74.760700
21
9.811230
0
LINE
8
Layer 1
10
74.760700
20
9.811230
11
74.286541
21
8.683957
0
LINE
8
Layer 1
10
74.286541
20
8.683957
11
73.732245
21
7.729706
0
LINE
8
Layer 1
10
73.732245
20
7.729706
11
72.559988
21
6.312257
0
LINE
8
Layer 1
10
72.559988
20
6.312257
11
71.597411
21
5.502868
0
LINE
8
Layer 1
10
71.597411
20
5.502868
11
71.198000
21
5.245520
0
LINE
8
Layer 1
10
59.573800
20
20.163000
11
60.220850
21
20.573113
0
LINE
8
Layer 1
10
60.220850
20
20.573113
11
61.660800
21
21.307900
0
LINE
8
Layer 1
10
61.660800
20
21.307900
11
62.964438
21
21.656987
0
LINE
8
Layer 1
10
62.964438
20
21.656987
11
63.576800
21
21.732400
0
LINE
8
Layer 1
10
64.997400
20
21.817200
11
65.503300
21
21.826600
 0 
ENDSEC
 0 
EOF