<?xml version="1.0" encoding="UTF-8" standalone="no"?>
<!DOCTYPE svg PUBLIC "-//W3C//DTD SVG 1.1//EN" "http://www.w3.org/Graphics/SVG/1.1/DTD/svg11.dtd">
<svg width="100%" height="100%" viewBox="0 0 319 119" version="1.1" xmlns="http://www.w3.org/2000/svg" xmlns:xlink="http://www.w3.org/1999/xlink" xml:space="preserve" xmlns:serif="http://www.serif.com/" style="fill-rule:evenodd;clip-rule:evenodd;stroke-linecap:round;stroke-linejoin:round;stroke-miterlimit:1.5;">
    <g id="robin.svg" transform="matrix(0.233514,0,0,0.233514,258.623,58.0822)">
        <g transform="matrix(1,0,0,1,-256,-256)">
            <g>
                <path d="M32.659,238.442C32.903,238.784 74.338,176.901 138.008,149.925C177.267,133.291 236.776,133.52 265.102,159.082C304.847,194.949 301.107,256.009 277.833,295.497C249.641,343.329 196.896,372.498 196.896,372.498" style="fill:none;stroke:rgb(4,4,0);stroke-width:13.2px;"/>
                <g transform="matrix(1,0,0,1,178.424,81.1959)">
                    <path d="M257.623,53.366C257.626,53.37 227.158,39.512 227.158,39.512L240.754,10.919L307.194,-0.031C307.194,-0.031 290.713,17.759 278.815,29.195C270.434,37.251 262.754,44.981 255.94,55.996C244.133,75.08 240.748,95.866 242.347,118.225C243.945,140.581 249.236,158.43 252.141,173.718C256.027,194.167 257.474,211.078 257.663,238.091C258.328,332.87 196.896,372.498 196.896,372.498" style="fill:none;stroke:black;stroke-width:13.2px;"/>
                </g>
                <g transform="matrix(1,0,0,1,258.999,-49.2347)">
                    <path d="M32.659,238.442C32.903,238.784 37.924,225.368 40.568,214.465C43.314,203.138 32.834,179.41 52.683,157.742C69.654,139.215 95.942,144.416 108.502,136.957C117.666,131.514 126.56,117.222 126.56,117.222" style="fill:none;stroke:black;stroke-width:13.2px;"/>
                </g>
                <g transform="matrix(1,0,0,1,101.883,-86.8848)">
                    <path d="M32.659,238.442C32.903,238.784 77.251,178.225 140.92,151.249C180.18,134.615 251.615,133.015 289.099,158.358C301.45,166.709 313.373,174.18 313.373,174.18" style="fill:none;stroke:black;stroke-width:13.2px;"/>
                </g>
                <g transform="matrix(1,0,0,1,103.951,59.4747)">
                    <path d="M185.225,137.076C185.469,137.419 198.526,135.692 226.852,161.254C266.597,197.121 269.498,255.285 254.56,298.6C236.459,351.089 196.896,372.498 196.896,372.498" style="fill:none;stroke:black;stroke-width:13.2px;"/>
                </g>
                <g transform="matrix(1,0,0,1,-56.3717,34.6505)">
                    <path d="M169.073,155.877C169.203,156.06 185.612,144.171 202.852,137.346C217.77,131.44 233.863,130.476 233.863,130.476" style="fill:none;stroke:black;stroke-width:13.2px;"/>
                </g>
                <g transform="matrix(1,0,0,1,-4.8538,28.2108)">
                    <path d="M205.339,135.541C205.469,135.724 213.527,135.39 213.527,135.39" style="fill:none;stroke:black;stroke-width:13.2px;"/>
                </g>
                <g transform="matrix(1,0,0,1,-14.1928,-23.3017)">
                    <ellipse cx="352.175" cy="149.25" rx="11.333" ry="11.439" style="fill:none;stroke:black;stroke-width:13.2px;"/>
                </g>
            </g>
        </g>
    </g>
    <g transform="matrix(0.669159,0,0,0.669159,2.08577,33.6283)">
        <g transform="matrix(114.335,0,0,114.335,359.531,93.6067)">
        </g>
        <text x="6.579px" y="93.607px" style="font-family:'ZnikomitNo24';font-weight:500;font-size:114.335px;">Mor<tspan x="226.788px " y="93.607px ">n</tspan>e</text>
    </g>
</svg>
