  0
SECTION
  2
HEADER
  9
$ACADVER
  1
AC1014
  9
$HANDSEED
  5
FFFF
  9
$MEASUREMENT
 70
     1
  0
ENDSEC
  0
SECTION
  2
TABLES
  0
TABLE
  2
VPORT
  5
8
330
0
100
AcDbSymbolTable
 70
     4
  0
VPORT
  5
2E
330
8
100
AcDbSymbolTableRecord
100
AcDbViewportTableRecord
  2
*ACTIVE
 70
     0
 10
0.0
 20
0.0
 11
1.0
 21
1.0
 12
210.0
 22
148.5
 13
0.0
 23
0.0
 14
10.0
 24
10.0
 15
10.0
 25
10.0
 16
0.0
 26
0.0
 36
1.0
 17
0.0
 27
0.0
 37
0.0
 40
341.0
 41
1.24
 42
50.0
 43
0.0
 44
0.0
 50
0.0
 51
0.0
 71
     0
 72
   100
 73
     1
 74
     3
 75
     0
 76
     0
 77
     0
 78
     0
  0
ENDTAB
  0
TABLE
  2
LTYPE
  5
5
330
0
100
AcDbSymbolTable
 70
     1
  0
LTYPE
  5
14
330
5
100
AcDbSymbolTableRecord
100
AcDbLinetypeTableRecord
  2
BYBLOCK
 70
     0
  3

 72
    65
 73
     0
 40
0.0
  0
LTYPE
  5
15
330
5
100
AcDbSymbolTableRecord
100
AcDbLinetypeTableRecord
  2
BYLAYER
 70
     0
  3

 72
    65
 73
     0
 40
0.0
  0
LTYPE
  5
16
330
5
100
AcDbSymbolTableRecord
100
AcDbLinetypeTableRecord
  2
CONTINUOUS
 70
     0
  3
Solid line
 72
    65
 73
     0
 40
0.0
  0
ENDTAB
  0
TABLE
  2
LAYER
  5
2
100
AcDbSymbolTable
 70
1
  0
LAYER
  5
50
100
AcDbSymbolTableRecord
100
AcDbLayerTableRecord
  2
0
 70
0
  6
CONTINUOUS
  0
ENDTAB
  0
TABLE
  2
STYLE
  5
3
330
0
100
AcDbSymbolTable
 70
     1
  0
STYLE
  5
11
330
3
100
AcDbSymbolTableRecord
100
AcDbTextStyleTableRecord
  2
STANDARD
 70
     0
 40
0.0
 41
1.0
 50
0.0
 71
     0
 42
2.5
  3
txt
  4

  0
ENDTAB
  0
TABLE
  2
VIEW
  5
6
330
0
100
AcDbSymbolTable
 70
     0
  0
ENDTAB
  0
TABLE
  2
UCS
  5
7
330
0
100
AcDbSymbolTable
 70
     0
  0
ENDTAB
  0
TABLE
  2
APPID
  5
9
330
0
100
AcDbSymbolTable
 70
     2
  0
APPID
  5
12
330
9
100
AcDbSymbolTableRecord
100
AcDbRegAppTableRecord
  2
ACAD
 70
     0
  0
ENDTAB
  0
TABLE
  2
DIMSTYLE
  5
A
330
0
100
AcDbSymbolTable
 70
     1
  0
DIMSTYLE
105
27
330
A
100
AcDbSymbolTableRecord
100
AcDbDimStyleTableRecord
  2
ISO-25
 70
     0
  3

  4

  5

  6

  7

 40
1.0
 41
2.5
 42
0.625
 43
3.75
 44
1.25
 45
0.0
 46
0.0
 47
0.0
 48
0.0
140
2.5
141
2.5
142
0.0
143
0.03937007874016
144
1.0
145
0.0
146
1.0
147
0.625
 71
     0
 72
     0
 73
     0
 74
     0
 75
     0
 76
     0
 77
     1
 78
     8
170
     0
171
     3
172
     1
173
     0
174
     0
175
     0
176
     0
177
     0
178
     0
270
     2
271
     2
272
     2
273
     2
274
     3
340
11
275
     0
280
     0
281
     0
282
     0
283
     0
284
     8
285
     0
286
     0
287
     3
288
     0
  0
ENDTAB
  0
TABLE
  2
BLOCK_RECORD
  5
1
330
0
100
AcDbSymbolTable
 70
     1
  0
BLOCK_RECORD
  5
1F
330
1
100
AcDbSymbolTableRecord
100
AcDbBlockTableRecord
  2
*MODEL_SPACE
  0
BLOCK_RECORD
  5
1B
330
1
100
AcDbSymbolTableRecord
100
AcDbBlockTableRecord
  2
*PAPER_SPACE
  0
ENDTAB
  0
ENDSEC
  0
SECTION
  2
BLOCKS
  0
BLOCK
  5
20
330
1F
100
AcDbEntity
  8
0
100
AcDbBlockBegin
  2
*MODEL_SPACE
 70
     0
 10
0.0
 20
0.0
 30
0.0
  3
*MODEL_SPACE
  1

  0
ENDBLK
  5
21
330
1F
100
AcDbEntity
  8
0
100
AcDbBlockEnd
  0
BLOCK
  5
1C
330
1B
100
AcDbEntity
 67
     1
  8
0
100
AcDbBlockBegin
  2
*PAPER_SPACE
  1

  0
ENDBLK
  5
1D
330
1B
100
AcDbEntity
 67
     1
  8
0
100
AcDbBlockEnd
  0
ENDSEC
  0
SECTION
  2
ENTITIES
  0
SPLINE
  5
100
100
AcDbEntity
  8
0
 62
7
100
AcDbSpline
 70
0
 71
3
 72
19
 73
15
 74
13
 40
0.000000
 40
0.000000
 40
0.000000
 40
0.000000
 40
0.121079
 40
0.220274
 40
0.330247
 40
0.621773
 40
0.912131
 40
1.201823
 40
1.496203
 40
1.802000
 40
2.121182
 40
2.416751
 40
2.658844
 40
2.865529
 40
2.865529
 40
2.865529
 40
2.865529
 10
9.053637
 20
17.102530
 30
0.0
 10
9.013422
 20
17.110708
 30
0.0
 10
8.940262
 20
17.125585
 30
0.0
 10
8.830711
 20
17.078664
 30
0.0
 10
8.752705
 20
16.924631
 30
0.0
 10
8.673312
 20
16.711322
 30
0.0
 10
8.544935
 20
16.449195
 30
0.0
 10
8.411360
 20
16.190446
 30
0.0
 10
8.256958
 20
15.936576
 30
0.0
 10
8.074284
 20
15.690290
 30
0.0
 10
7.875528
 20
15.455653
 30
0.0
 10
7.669039
 20
15.258792
 30
0.0
 10
7.454232
 20
15.122338
 30
0.0
 10
7.304331
 20
15.103094
 30
0.0
 10
7.235294
 20
15.094230
 30
0.0
 11
9.053637
 21
17.102530
 31
0.0
 11
8.933021
 21
17.113112
 31
0.0
 11
8.842562
 21
17.072407
 31
0.0
 11
8.782227
 21
16.980463
 31
0.0
 11
8.668426
 21
16.712067
 31
0.0
 11
8.544043
 21
16.449699
 31
0.0
 11
8.409094
 21
16.193359
 31
0.0
 11
8.255302
 21
15.942346
 31
0.0
 11
8.074368
 21
15.695821
 31
0.0
 11
7.866274
 21
15.453800
 31
0.0
 11
7.648418
 21
15.254050
 31
0.0
 11
7.438080
 21
15.134188
 31
0.0
 11
7.235294
 21
15.094230
 31
0.0
  0
SPLINE
  5
101
100
AcDbEntity
  8
0
 62
7
100
AcDbSpline
 70
0
 71
3
 72
28
 73
24
 74
22
 40
0.000000
 40
0.000000
 40
0.000000
 40
0.000000
 40
0.061976
 40
0.131212
 40
0.217577
 40
0.328321
 40
0.467842
 40
0.637231
 40
0.811533
 40
0.965470
 40
1.099084
 40
1.242880
 40
1.427466
 40
1.652811
 40
2.000027
 40
2.294304
 40
2.535665
 40
2.766186
 40
3.028428
 40
3.322867
 40
3.617289
 40
3.881407
 40
4.118990
 40
4.118990
 40
4.118990
 40
4.118990
 10
7.221731
 20
15.094230
 30
0.0
 10
7.200886
 20
15.097210
 30
0.0
 10
7.156755
 20
15.103520
 30
0.0
 10
7.100191
 20
15.153962
 30
0.0
 10
7.052556
 20
15.228924
 30
0.0
 10
7.010004
 20
15.333373
 30
0.0
 10
6.970116
 20
15.467498
 30
0.0
 10
6.935670
 20
15.624961
 30
0.0
 10
6.904594
 20
15.787883
 30
0.0
 10
6.877158
 20
15.939378
 30
0.0
 10
6.854295
 20
16.081345
 30
0.0
 10
6.833725
 20
16.233973
 30
0.0
 10
6.811082
 20
16.417158
 30
0.0
 10
6.783584
 20
16.668044
 30
0.0
 10
6.747022
 20
16.954681
 30
0.0
 10
6.708606
 20
17.246440
 30
0.0
 10
6.674256
 20
17.499522
 30
0.0
 10
6.631588
 20
17.740600
 30
0.0
 10
6.571281
 20
17.996054
 30
0.0
 10
6.498484
 20
18.270353
 30
0.0
 10
6.409612
 20
18.540561
 30
0.0
 10
6.301383
 20
18.784187
 30
0.0
 10
6.207670
 20
18.923018
 30
0.0
 10
6.163292
 20
18.988762
 30
0.0
 11
7.221731
 21
15.094230
 31
0.0
 11
7.161432
 21
15.108550
 31
0.0
 11
7.107144
 21
15.151519
 31
0.0
 11
7.058900
 21
15.223154
 31
0.0
 11
7.015178
 21
15.324901
 31
0.0
 11
6.974453
 21
15.458346
 31
0.0
 11
6.936758
 21
15.623488
 31
0.0
 11
6.903604
 21
15.794607
 31
0.0
 11
6.876478
 21
15.946136
 31
0.0
 11
6.855380
 21
16.078073
 31
0.0
 11
6.835770
 21
16.220526
 31
0.0
 11
6.813129
 21
16.403719
 31
0.0
 11
6.787490
 21
16.627600
 31
0.0
 11
6.744538
 21
16.972149
 31
0.0
 11
6.706090
 21
17.263904
 31
0.0
 11
6.672130
 21
17.502863
 31
0.0
 11
6.631438
 21
17.729764
 31
0.0
 11
6.572645
 21
17.985331
 31
0.0
 11
6.495736
 21
18.269548
 31
0.0
 11
6.401526
 21
18.548490
 31
0.0
 11
6.290706
 21
18.788234
 31
0.0
 11
6.163292
 21
18.988762
 31
0.0
  0
SPLINE
  5
102
100
AcDbEntity
  8
0
 62
7
100
AcDbSpline
 70
0
 71
3
 72
10
 73
6
 74
4
 40
0.000000
 40
0.000000
 40
0.000000
 40
0.000000
 40
0.861228
 40
1.654851
 40
2.407911
 40
2.407911
 40
2.407911
 40
2.407911
 10
6.163292
 20
18.988762
 30
0.0
 10
6.398402
 20
19.153952
 30
0.0
 10
6.850167
 20
19.471365
 30
0.0
 10
7.411930
 20
20.057243
 30
0.0
 10
7.667328
 20
20.506778
 30
0.0
 10
7.791678
 20
20.725651
 30
0.0
 11
6.163292
 21
18.988762
 31
0.0
 11
6.850831
 21
19.507418
 31
0.0
 11
7.393632
 21
20.086386
 31
0.0
 11
7.791678
 21
20.725651
 31
0.0
  0
SPLINE
  5
103
100
AcDbEntity
  8
0
 62
7
100
AcDbSpline
 70
0
 71
3
 72
10
 73
6
 74
4
 40
0.000000
 40
0.000000
 40
0.000000
 40
0.000000
 40
0.634235
 40
1.181708
 40
1.710231
 40
1.710231
 40
1.710231
 40
1.710231
 10
7.791678
 20
20.725651
 30
0.0
 10
7.874288
 20
20.920882
 30
0.0
 10
8.028208
 20
21.284636
 30
0.0
 10
8.058753
 20
21.875981
 30
0.0
 10
7.906937
 20
22.205662
 30
0.0
 10
7.832366
 20
22.367600
 30
0.0
 11
7.791678
 21
20.725651
 31
0.0
 11
8.001251
 21
21.324261
 31
0.0
 11
8.014813
 21
21.871566
 31
0.0
 11
7.832366
 21
22.367600
 31
0.0
  0
SPLINE
  5
104
100
AcDbEntity
  8
0
 62
7
100
AcDbSpline
 70
0
 71
3
 72
10
 73
6
 74
4
 40
0.000000
 40
0.000000
 40
0.000000
 40
0.000000
 40
0.729327
 40
1.667829
 40
2.971726
 40
2.971726
 40
2.971726
 40
2.971726
 10
7.832366
 20
22.367600
 30
0.0
 10
7.657126
 20
22.546237
 30
0.0
 10
7.256384
 20
22.954744
 30
0.0
 10
6.200799
 20
23.016121
 30
0.0
 10
5.473504
 20
22.880627
 30
0.0
 10
5.050601
 20
22.801841
 30
0.0
 11
7.832366
 21
22.367600
 31
0.0
 11
7.269989
 21
22.831981
 31
0.0
 11
6.342717
 21
22.976728
 31
0.0
 11
5.050601
 21
22.801841
 31
0.0
  0
LWPOLYLINE
  5
105
100
AcDbEntity
  8
0
 62
7
100
AcDbPolyline
 90
2
 70
0
 10
7.235294
 20
15.094230
 30
0.0
 10
7.221731
 20
15.094230
 30
0.0
  0
SPLINE
  5
106
100
AcDbEntity
  8
0
 62
7
100
AcDbSpline
 70
0
 71
3
 72
10
 73
6
 74
4
 40
0.000000
 40
0.000000
 40
0.000000
 40
0.000000
 40
0.388091
 40
0.757831
 40
1.109779
 40
1.109779
 40
1.109779
 40
1.109779
 10
5.050601
 20
22.801841
 30
0.0
 10
4.924239
 20
22.774105
 30
0.0
 10
4.677490
 20
22.719946
 30
0.0
 10
4.319641
 20
22.625475
 30
0.0
 10
4.090395
 20
22.552470
 30
0.0
 10
3.978599
 20
22.516868
 30
0.0
 11
5.050601
 21
22.801841
 31
0.0
 11
4.672141
 21
22.715920
 31
0.0
 11
4.314813
 21
22.620923
 31
0.0
 11
3.978599
 21
22.516868
 31
0.0
  0
SPLINE
  5
107
100
AcDbEntity
  8
0
 62
7
100
AcDbSpline
 70
0
 71
3
 72
10
 73
6
 74
4
 40
0.000000
 40
0.000000
 40
0.000000
 40
0.000000
 40
0.232280
 40
0.448297
 40
0.648076
 40
0.648076
 40
0.648076
 40
0.648076
 10
3.870020
 20
22.476179
 30
0.0
 10
3.797153
 20
22.450000
 30
0.0
 10
3.656521
 20
22.399476
 30
0.0
 10
3.452988
 20
22.327077
 30
0.0
 10
3.322217
 20
22.281159
 30
0.0
 10
3.259385
 20
22.259096
 30
0.0
 11
3.870020
 21
22.476179
 31
0.0
 11
3.651377
 21
22.397762
 31
0.0
 11
3.447837
 21
22.325407
 31
0.0
 11
3.259385
 21
22.259096
 31
0.0
  0
SPLINE
  5
108
100
AcDbEntity
  8
0
 62
7
100
AcDbSpline
 70
0
 71
3
 72
22
 73
18
 74
16
 40
0.000000
 40
0.000000
 40
0.000000
 40
0.000000
 40
0.118784
 40
0.215897
 40
0.323331
 40
0.378618
 40
0.433098
 40
0.490833
 40
0.548517
 40
0.602976
 40
0.658296
 40
0.697087
 40
0.748752
 40
0.813629
 40
0.879897
 40
0.935752
 40
0.981324
 40
0.981324
 40
0.981324
 40
0.981324
 10
3.259385
 20
22.259096
 30
0.0
 10
3.223255
 20
22.240992
 30
0.0
 10
3.157586
 20
22.208088
 30
0.0
 10
3.103149
 20
22.106636
 30
0.0
 10
3.114370
 20
22.016245
 30
0.0
 10
3.145360
 20
21.950315
 30
0.0
 10
3.183207
 20
21.908063
 30
0.0
 10
3.231295
 20
21.877339
 30
0.0
 10
3.284957
 20
21.857072
 30
0.0
 10
3.340892
 20
21.853058
 30
0.0
 10
3.391507
 20
21.860034
 30
0.0
 10
3.431986
 20
21.888101
 30
0.0
 10
3.480613
 20
21.906421
 30
0.0
 10
3.537945
 20
21.926887
 30
0.0
 10
3.596986
 20
21.946924
 30
0.0
 10
3.649215
 20
21.966953
 30
0.0
 10
3.679858
 20
21.981258
 30
0.0
 10
3.693626
 20
21.987686
 30
0.0
 11
3.259385
 21
22.259096
 31
0.0
 11
3.159870
 21
22.194239
 31
0.0
 11
3.114640
 21
22.108301
 31
0.0
 11
3.123680
 21
22.001249
 31
0.0
 11
3.147794
 21
21.951498
 31
0.0
 11
3.183982
 21
21.910773
 31
0.0
 11
3.232259
 21
21.879107
 31
0.0
 11
3.286513
 21
21.859516
 31
0.0
 11
3.340785
 21
21.854995
 31
0.0
 11
3.395090
 21
21.865544
 31
0.0
 11
3.429000
 21
21.884381
 31
0.0
 11
3.476490
 21
21.904726
 31
0.0
 11
3.537576
 21
21.926577
 31
0.0
 11
3.600119
 21
21.948482
 31
0.0
 11
3.652130
 21
21.968846
 31
0.0
 11
3.693626
 21
21.987686
 31
0.0
  0
SPLINE
  5
109
100
AcDbEntity
  8
0
 62
7
100
AcDbSpline
 70
0
 71
3
 72
10
 73
6
 74
4
 40
0.000000
 40
0.000000
 40
0.000000
 40
0.000000
 40
0.496407
 40
0.875515
 40
1.137386
 40
1.137386
 40
1.137386
 40
1.137386
 10
3.693626
 20
21.987686
 30
0.0
 10
3.639468
 20
21.831332
 30
0.0
 10
3.543949
 20
21.555570
 30
0.0
 10
3.418284
 20
21.197858
 30
0.0
 10
3.343989
 20
20.997528
 30
0.0
 10
3.313637
 20
20.915684
 30
0.0
 11
3.693626
 21
21.987686
 31
0.0
 11
3.530761
 21
21.518756
 31
0.0
 11
3.404115
 21
21.161427
 31
0.0
 11
3.313637
 21
20.915684
 31
0.0
  0
SPLINE
  5
10a
100
AcDbEntity
  8
0
 62
7
100
AcDbSpline
 70
0
 71
3
 72
10
 73
6
 74
4
 40
0.000000
 40
0.000000
 40
0.000000
 40
0.000000
 40
1.018972
 40
2.004514
 40
2.956854
 40
2.956854
 40
2.956854
 40
2.956854
 10
3.313637
 20
20.915684
 30
0.0
 10
3.202175
 20
20.594833
 30
0.0
 10
2.982909
 20
19.963657
 30
0.0
 10
2.674850
 20
19.027344
 30
0.0
 10
2.484464
 20
18.410067
 30
0.0
 10
2.390902
 20
18.106717
 30
0.0
 11
3.313637
 21
20.915684
 31
0.0
 11
2.981947
 21
19.952208
 31
0.0
 11
2.674368
 21
19.015891
 31
0.0
 11
2.390902
 21
18.106717
 31
0.0
  0
SPLINE
  5
10b
100
AcDbEntity
  8
0
 62
7
100
AcDbSpline
 70
0
 71
3
 72
10
 73
6
 74
4
 40
0.000000
 40
0.000000
 40
0.000000
 40
0.000000
 40
2.117549
 40
3.587026
 40
4.450037
 40
4.450037
 40
4.450037
 40
4.450037
 10
2.390902
 20
18.106717
 30
0.0
 10
2.204231
 20
17.429168
 30
0.0
 10
1.888019
 20
16.281432
 30
0.0
 10
1.546284
 20
14.810039
 30
0.0
 10
1.667575
 20
14.036883
 30
0.0
 10
1.712452
 20
13.750818
 30
0.0
 11
2.390902
 21
18.106717
 31
0.0
 11
1.845090
 21
16.060720
 31
0.0
 11
1.618946
 21
14.608749
 31
0.0
 11
1.712452
 21
13.750818
 31
0.0
  0
SPLINE
  5
10c
100
AcDbEntity
  8
0
 62
7
100
AcDbSpline
 70
0
 71
3
 72
16
 73
12
 74
10
 40
0.000000
 40
0.000000
 40
0.000000
 40
0.000000
 40
0.159538
 40
0.303509
 40
0.440819
 40
0.500037
 40
0.563993
 40
0.633434
 40
0.977919
 40
1.443356
 40
2.060628
 40
2.060628
 40
2.060628
 40
2.060628
 10
1.712452
 20
13.750818
 30
0.0
 10
1.737410
 20
13.703530
 30
0.0
 10
1.784890
 20
13.613569
 30
0.0
 10
1.888163
 20
13.507371
 30
0.0
 10
1.984784
 20
13.442918
 30
0.0
 10
2.069682
 20
13.422346
 30
0.0
 10
2.133264
 20
13.413421
 30
0.0
 10
2.292837
 20
13.405808
 30
0.0
 10
2.582760
 20
13.497763
 30
0.0
 10
2.968193
 20
13.782703
 30
0.0
 10
3.214119
 20
14.047600
 30
0.0
 10
3.354325
 20
14.198622
 30
0.0
 11
1.712452
 21
13.750818
 31
0.0
 11
1.793853
 21
13.613609
 31
0.0
 11
1.893370
 21
13.509570
 31
0.0
 11
2.010988
 21
13.438719
 31
0.0
 11
2.068257
 21
13.423649
 31
0.0
 11
2.131571
 21
13.414607
 31
0.0
 11
2.200945
 21
13.411593
 31
0.0
 11
2.534145
 21
13.499046
 31
0.0
 11
2.918600
 21
13.761395
 31
0.0
 11
3.354325
 21
14.198622
 31
0.0
  0
SPLINE
  5
10d
100
AcDbEntity
  8
0
 62
7
100
AcDbSpline
 70
0
 71
3
 72
10
 73
6
 74
4
 40
0.000000
 40
0.000000
 40
0.000000
 40
0.000000
 40
0.104828
 40
0.201634
 40
0.295491
 40
0.295491
 40
0.295491
 40
0.295491
 10
3.354325
 20
14.198622
 30
0.0
 10
3.326705
 20
14.220123
 30
0.0
 10
3.273578
 20
14.261480
 30
0.0
 10
3.211826
 20
14.340345
 30
0.0
 10
3.189112
 20
14.399985
 30
0.0
 10
3.177931
 20
14.429343
 30
0.0
 11
3.354325
 21
14.198622
 31
0.0
 11
3.274435
 21
14.266493
 31
0.0
 11
3.215626
 21
14.343389
 31
0.0
 11
3.177931
 21
14.429343
 31
0.0
  0
SPLINE
  5
10e
100
AcDbEntity
  8
0
 62
7
100
AcDbSpline
 70
0
 71
3
 72
10
 73
6
 74
4
 40
0.000000
 40
0.000000
 40
0.000000
 40
0.000000
 40
0.589117
 40
1.932427
 40
4.039024
 40
4.039024
 40
4.039024
 40
4.039024
 10
3.177931
 20
14.429343
 30
0.0
 10
3.185322
 20
14.625974
 30
0.0
 10
3.209566
 20
15.270963
 30
0.0
 10
3.576107
 20
16.576601
 30
0.0
 10
3.868110
 20
17.686707
 30
0.0
 10
4.046414
 20
18.364564
 30
0.0
 11
3.177931
 21
14.429343
 31
0.0
 11
3.214150
 21
15.017346
 31
0.0
 11
3.503644
 21
16.329092
 31
0.0
 11
4.046414
 21
18.364564
 31
0.0
  0
SPLINE
  5
10f
100
AcDbEntity
  8
0
 62
7
100
AcDbSpline
 70
0
 71
3
 72
13
 73
9
 74
7
 40
0.000000
 40
0.000000
 40
0.000000
 40
0.000000
 40
0.046127
 40
0.146055
 40
0.300106
 40
0.460034
 40
0.577636
 40
0.653249
 40
0.653249
 40
0.653249
 40
0.653249
 10
4.046414
 20
18.364564
 30
0.0
 10
4.061452
 20
18.361289
 30
0.0
 10
4.109070
 20
18.350919
 30
0.0
 10
4.209311
 20
18.345751
 30
0.0
 10
4.346838
 20
18.336487
 30
0.0
 10
4.490603
 20
18.331509
 30
0.0
 10
4.608475
 20
18.328928
 30
0.0
 10
4.672631
 20
18.335045
 30
0.0
 10
4.697738
 20
18.337438
 30
0.0
 11
4.046414
 21
18.364564
 31
0.0
 11
4.091646
 21
18.355522
 31
0.0
 11
4.191164
 21
18.346480
 31
0.0
 11
4.344950
 21
18.337438
 31
0.0
 11
4.504764
 21
18.331410
 31
0.0
 11
4.622366
 21
18.331410
 31
0.0
 11
4.697738
 21
18.337438
 31
0.0
  0
SPLINE
  5
110
100
AcDbEntity
  8
0
 62
7
100
AcDbSpline
 70
0
 71
3
 72
13
 73
9
 74
7
 40
0.000000
 40
0.000000
 40
0.000000
 40
0.000000
 40
0.657458
 40
1.289378
 40
1.896461
 40
3.251109
 40
4.258215
 40
4.974064
 40
4.974064
 40
4.974064
 40
4.974064
 10
4.697738
 20
18.337438
 30
0.0
 10
4.711358
 20
18.118676
 30
0.0
 10
4.738070
 20
17.689648
 30
0.0
 10
4.802276
 20
17.060824
 30
0.0
 10
4.915997
 20
16.202545
 30
0.0
 10
5.118087
 20
15.240333
 30
0.0
 10
5.432335
 20
14.235767
 30
0.0
 10
5.833702
 20
13.816454
 30
0.0
 10
6.000461
 20
13.642239
 30
0.0
 11
4.697738
 21
18.337438
 31
0.0
 11
4.743003
 21
17.681540
 31
0.0
 11
4.806336
 21
17.052802
 31
0.0
 11
4.887770
 21
16.451206
 31
0.0
 11
5.168191
 21
15.125900
 31
0.0
 11
5.539100
 21
14.189583
 31
0.0
 11
6.000461
 21
13.642239
 31
0.0
  0
SPLINE
  5
111
100
AcDbEntity
  8
0
 62
7
100
AcDbSpline
 70
0
 71
3
 72
13
 73
9
 74
7
 40
0.000000
 40
0.000000
 40
0.000000
 40
0.000000
 40
0.187580
 40
0.363517
 40
0.534842
 40
0.643681
 40
0.754577
 40
0.869463
 40
0.869463
 40
0.869463
 40
0.869463
 10
6.000461
 20
13.642239
 30
0.0
 10
6.054139
 20
13.609832
 30
0.0
 10
6.158162
 20
13.547028
 30
0.0
 10
6.329474
 20
13.492106
 30
0.0
 10
6.481703
 20
13.475354
 30
0.0
 10
6.612069
 20
13.484690
 30
0.0
 10
6.721822
 20
13.507087
 30
0.0
 10
6.792311
 20
13.533738
 30
0.0
 10
6.828179
 20
13.547298
 30
0.0
 11
6.000461
 21
13.642239
 31
0.0
 11
6.164799
 21
13.551800
 31
0.0
 11
6.332151
 21
13.497511
 31
0.0
 11
6.502517
 21
13.479408
 31
0.0
 11
6.611093
 21
13.486963
 31
0.0
 11
6.719653
 21
13.509604
 31
0.0
 11
6.828179
 21
13.547298
 31
0.0
  0
SPLINE
  5
112
100
AcDbEntity
  8
0
 62
7
100
AcDbSpline
 70
0
 71
3
 72
19
 73
15
 74
13
 40
0.000000
 40
0.000000
 40
0.000000
 40
0.000000
 40
0.382830
 40
0.771205
 40
1.173754
 40
1.583051
 40
1.989265
 40
2.397212
 40
2.785296
 40
3.128400
 40
3.426900
 40
3.697571
 40
3.957192
 40
4.206054
 40
4.206054
 40
4.206054
 40
4.206054
 10
6.828179
 20
13.547298
 30
0.0
 10
6.946852
 20
13.594881
 30
0.0
 10
7.185918
 20
13.690737
 30
0.0
 10
7.516174
 20
13.904827
 30
0.0
 10
7.819361
 20
14.167223
 30
0.0
 10
8.092671
 20
14.468598
 30
0.0
 10
8.334959
 20
14.797748
 30
0.0
 10
8.531987
 20
15.147531
 30
0.0
 10
8.696842
 20
15.489598
 30
0.0
 10
8.840879
 20
15.801194
 30
0.0
 10
8.957173
 20
16.082285
 30
0.0
 10
9.052107
 20
16.341766
 30
0.0
 10
9.134456
 20
16.588170
 30
0.0
 10
9.180412
 20
16.751337
 30
0.0
 10
9.202905
 20
16.831195
 30
0.0
 11
6.828179
 21
13.547298
 31
0.0
 11
7.178760
 21
13.701090
 31
0.0
 11
7.506702
 21
13.909150
 31
0.0
 11
7.812022
 21
14.171496
 31
0.0
 11
8.087950
 21
14.473800
 31
0.0
 11
8.327694
 21
14.801722
 31
0.0
 11
8.531236
 21
15.155264
 31
0.0
 11
8.702356
 21
15.503584
 31
0.0
 11
8.844842
 21
15.815702
 31
0.0
 11
8.958696
 21
16.091636
 31
0.0
 11
9.052149
 21
16.345663
 31
0.0
 11
9.133563
 21
16.592188
 31
0.0
 11
9.202905
 21
16.831195
 31
0.0
  0
LWPOLYLINE
  5
113
100
AcDbEntity
  8
0
 62
7
100
AcDbPolyline
 90
3
 70
0
 10
3.978599
 20
22.516868
 30
0.0
 10
3.883583
 20
22.489742
 30
0.0
 10
3.870020
 20
22.476179
 30
0.0
  0
SPLINE
  5
114
100
AcDbEntity
  8
0
 62
7
100
AcDbSpline
 70
0
 71
3
 72
13
 73
9
 74
7
 40
0.000000
 40
0.000000
 40
0.000000
 40
0.000000
 40
0.061111
 40
0.118361
 40
0.174519
 40
0.229091
 40
0.282071
 40
0.337062
 40
0.337062
 40
0.337062
 40
0.337062
 10
9.202905
 20
16.831195
 30
0.0
 10
9.204811
 20
16.851544
 30
0.0
 10
9.208504
 20
16.890958
 30
0.0
 10
9.198983
 20
16.949004
 30
0.0
 10
9.177921
 20
17.001363
 30
0.0
 10
9.146223
 20
17.046354
 30
0.0
 10
9.104268
 20
17.082058
 30
0.0
 10
9.070722
 20
17.095621
 30
0.0
 10
9.053637
 20
17.102530
 30
0.0
 11
9.202905
 21
16.831195
 31
0.0
 11
9.205919
 21
16.892231
 31
0.0
 11
9.196877
 21
16.948763
 31
0.0
 11
9.175779
 21
17.000807
 31
0.0
 11
9.144129
 21
17.045264
 31
0.0
 11
9.103421
 21
17.079171
 31
0.0
 11
9.053637
 21
17.102530
 31
0.0
  0
SPLINE
  5
115
100
AcDbEntity
  8
0
 62
7
100
AcDbSpline
 70
0
 71
3
 72
10
 73
6
 74
4
 40
0.000000
 40
0.000000
 40
0.000000
 40
0.000000
 40
0.343284
 40
0.649697
 40
0.920428
 40
0.920428
 40
0.920428
 40
0.920428
 10
5.240558
 20
22.421927
 30
0.0
 10
5.352385
 20
22.446193
 30
0.0
 10
5.564028
 20
22.492118
 30
0.0
 10
5.867570
 20
22.539559
 30
0.0
 10
6.059634
 20
22.551861
 30
0.0
 10
6.149729
 20
22.557632
 30
0.0
 11
5.240558
 21
22.421927
 31
0.0
 11
5.576769
 21
22.491252
 31
0.0
 11
5.879826
 21
22.536481
 31
0.0
 11
6.149729
 21
22.557632
 31
0.0
  0
SPLINE
  5
116
100
AcDbEntity
  8
0
 62
7
100
AcDbSpline
 70
0
 71
3
 72
10
 73
6
 74
4
 40
0.000000
 40
0.000000
 40
0.000000
 40
0.000000
 40
0.210861
 40
0.385399
 40
0.551811
 40
0.551811
 40
0.551811
 40
0.551811
 10
6.149729
 20
22.557632
 30
0.0
 10
6.219551
 20
22.548390
 30
0.0
 10
6.347166
 20
22.531498
 30
0.0
 10
6.516109
 20
22.437835
 30
0.0
 10
6.570827
 20
22.335950
 30
0.0
 10
6.597533
 20
22.286222
 30
0.0
 11
6.149729
 21
22.557632
 31
0.0
 11
6.356313
 21
22.515380
 31
0.0
 11
6.505581
 21
22.424921
 31
0.0
 11
6.597533
 21
22.286222
 31
0.0
  0
SPLINE
  5
117
100
AcDbEntity
  8
0
 62
7
100
AcDbSpline
 70
0
 71
3
 72
10
 73
6
 74
4
 40
0.000000
 40
0.000000
 40
0.000000
 40
0.000000
 40
0.342455
 40
0.783113
 40
1.372740
 40
1.372740
 40
1.372740
 40
1.372740
 10
6.597533
 20
22.286222
 30
0.0
 10
6.623358
 20
22.172769
 30
0.0
 10
6.682414
 20
21.913328
 30
0.0
 10
6.504221
 20
21.468724
 30
0.0
 10
6.313264
 20
21.185993
 30
0.0
 10
6.203981
 20
21.024187
 30
0.0
 11
6.597533
 21
22.286222
 31
0.0
 11
6.644275
 21
21.946972
 31
0.0
 11
6.513091
 21
21.526294
 31
0.0
 11
6.203981
 21
21.024187
 31
0.0
  0
SPLINE
  5
118
100
AcDbEntity
  8
0
 62
7
100
AcDbSpline
 70
0
 71
3
 72
10
 73
6
 74
4
 40
0.000000
 40
0.000000
 40
0.000000
 40
0.000000
 40
0.610992
 40
1.317316
 40
2.141408
 40
2.141408
 40
2.141408
 40
2.141408
 10
6.203981
 20
21.024187
 30
0.0
 10
6.068559
 20
20.871063
 30
0.0
 10
5.776584
 20
20.540922
 30
0.0
 10
5.170496
 20
20.148763
 30
0.0
 10
4.704472
 20
19.941597
 30
0.0
 10
4.453529
 20
19.830043
 30
0.0
 11
6.203981
 21
21.024187
 31
0.0
 11
5.780317
 21
20.583938
 31
0.0
 11
5.196827
 21
20.185901
 31
0.0
 11
4.453529
 21
19.830043
 31
0.0
  0
LWPOLYLINE
  5
119
100
AcDbEntity
  8
0
 62
7
100
AcDbPolyline
 90
1
 70
1
 10
9.053637
 20
17.102530
 30
0.0
  0
SPLINE
  5
11a
100
AcDbEntity
  8
0
 62
7
100
AcDbSpline
 70
0
 71
3
 72
10
 73
6
 74
4
 40
0.000000
 40
0.000000
 40
0.000000
 40
0.000000
 40
0.747532
 40
1.347159
 40
1.798882
 40
1.798882
 40
1.798882
 40
1.798882
 10
4.453529
 20
19.830043
 30
0.0
 10
4.524875
 20
20.068788
 30
0.0
 10
4.653450
 20
20.499040
 30
0.0
 10
4.825274
 20
21.073522
 30
0.0
 10
4.925909
 20
21.409212
 30
0.0
 10
4.969148
 20
21.553445
 30
0.0
 11
4.453529
 21
19.830043
 31
0.0
 11
4.667598
 21
20.546269
 31
0.0
 11
4.839471
 21
21.120736
 31
0.0
 11
4.969148
 21
21.553445
 31
0.0
  0
SPLINE
  5
11b
100
AcDbEntity
  8
0
 62
7
100
AcDbSpline
 70
0
 71
3
 72
16
 73
12
 74
10
 40
0.000000
 40
0.000000
 40
0.000000
 40
0.000000
 40
0.047017
 40
0.135721
 40
0.266615
 40
0.443289
 40
0.671038
 40
0.951245
 40
1.255397
 40
1.557985
 40
1.863583
 40
1.863583
 40
1.863583
 40
1.863583
 10
13.599492
 20
17.007589
 30
0.0
 10
13.596568
 20
16.992166
 30
0.0
 10
13.588127
 20
16.947646
 30
0.0
 10
13.554807
 20
16.864823
 30
0.0
 10
13.507836
 20
16.741495
 30
0.0
 10
13.425844
 20
16.582392
 30
0.0
 10
13.300904
 20
16.391255
 30
0.0
 10
13.143164
 20
16.171104
 30
0.0
 10
12.951691
 20
15.945189
 30
0.0
 10
12.726646
 20
15.738777
 30
0.0
 10
12.557986
 20
15.625886
 30
0.0
 10
12.473238
 20
15.569160
 30
0.0
 11
13.599492
 21
17.007589
 31
0.0
 11
13.589697
 21
16.961603
 31
0.0
 11
13.560311
 21
16.877909
 31
0.0
 11
13.511333
 21
16.756523
 31
0.0
 11
13.431404
 21
16.598964
 31
0.0
 11
13.309278
 21
16.406727
 31
0.0
 11
13.144907
 21
16.179796
 31
0.0
 11
12.946659
 21
15.949130
 31
0.0
 11
12.722775
 21
15.745574
 31
0.0
 11
12.473238
 21
15.569160
 31
0.0
  0
SPLINE
  5
11c
100
AcDbEntity
  8
0
 62
7
100
AcDbSpline
 70
0
 71
3
 72
13
 73
9
 74
7
 40
0.000000
 40
0.000000
 40
0.000000
 40
0.000000
 40
0.264069
 40
0.451718
 40
0.588133
 40
0.607782
 40
0.626963
 40
0.646612
 40
0.646612
 40
0.646612
 40
0.646612
 10
12.473238
 20
15.569160
 30
0.0
 10
12.399014
 20
15.522385
 30
0.0
 10
12.272046
 20
15.442370
 30
0.0
 10
12.081896
 20
15.373110
 30
0.0
 10
11.963750
 20
15.399605
 30
0.0
 10
11.913513
 20
15.429701
 30
0.0
 10
11.899468
 20
15.443624
 30
0.0
 10
11.893002
 20
15.454884
 30
0.0
 10
11.889729
 20
15.460581
 30
0.0
 11
12.473238
 21
15.569160
 31
0.0
 11
12.244047
 21
15.437999
 31
0.0
 11
12.063112
 21
15.388248
 31
0.0
 11
11.930418
 21
15.419892
 31
0.0
 11
11.913841
 21
15.430441
 31
0.0
 11
11.900278
 21
15.444004
 31
0.0
 11
11.889729
 21
15.460581
 31
0.0
  0
LWPOLYLINE
  5
11d
100
AcDbEntity
  8
0
 62
7
100
AcDbPolyline
 90
3
 70
0
 10
4.969148
 20
21.553445
 30
0.0
 10
5.240558
 20
22.421927
 30
0.0
 10
5.240558
 20
22.421927
 30
0.0
  0
SPLINE
  5
11e
100
AcDbEntity
  8
0
 62
7
100
AcDbSpline
 70
0
 71
3
 72
19
 73
15
 74
13
 40
0.000000
 40
0.000000
 40
0.000000
 40
0.000000
 40
0.078230
 40
0.151067
 40
0.218556
 40
0.279626
 40
0.333391
 40
0.379889
 40
0.416135
 40
0.439408
 40
0.451322
 40
0.506203
 40
0.573459
 40
0.653069
 40
0.653069
 40
0.653069
 40
0.653069
 10
11.889729
 20
15.460581
 30
0.0
 10
11.901332
 20
15.483935
 30
0.0
 10
11.923738
 20
15.529031
 30
0.0
 10
11.955372
 20
15.594660
 30
0.0
 10
11.984059
 20
15.655348
 30
0.0
 10
12.008856
 20
15.710869
 30
0.0
 10
12.029613
 20
15.760396
 30
0.0
 10
12.044369
 20
15.803788
 30
0.0
 10
12.057052
 20
15.835931
 30
0.0
 10
12.065547
 20
15.859874
 30
0.0
 10
12.093772
 20
15.873877
 30
0.0
 10
12.096631
 20
15.926246
 30
0.0
 10
12.124901
 20
15.984956
 30
0.0
 10
12.139606
 20
16.032099
 30
0.0
 10
12.147576
 20
16.057653
 30
0.0
 11
11.889729
 21
15.460581
 31
0.0
 11
11.924393
 21
15.530713
 31
0.0
 11
11.956059
 21
15.596306
 31
0.0
 11
11.984745
 21
15.657395
 31
0.0
 11
12.009611
 21
15.713174
 31
0.0
 11
12.029955
 21
15.762941
 31
0.0
 11
12.045779
 21
15.806663
 31
0.0
 11
12.058588
 21
15.840571
 31
0.0
 11
12.069891
 21
15.860915
 31
0.0
 11
12.079686
 21
15.867697
 31
0.0
 11
12.099297
 21
15.918954
 31
0.0
 11
12.121938
 21
15.982284
 31
0.0
 11
12.147576
 21
16.057653
 31
0.0
  0
SPLINE
  5
11f
100
AcDbEntity
  8
0
 62
7
100
AcDbSpline
 70
0
 71
3
 72
10
 73
6
 74
4
 40
0.000000
 40
0.000000
 40
0.000000
 40
0.000000
 40
0.025312
 40
0.043972
 40
0.056125
 40
0.056125
 40
0.056125
 40
0.056125
 10
12.161139
 20
16.057653
 30
0.0
 10
12.163702
 20
16.065685
 30
0.0
 10
12.168153
 20
16.079638
 30
0.0
 10
12.173248
 20
16.097713
 30
0.0
 10
12.174291
 20
16.107945
 30
0.0
 10
12.174702
 20
16.111981
 30
0.0
 11
12.161139
 21
16.057653
 31
0.0
 11
12.168674
 21
16.081818
 31
0.0
 11
12.173195
 21
16.099922
 31
0.0
 11
12.174702
 21
16.111981
 31
0.0
  0
SPLINE
  5
120
100
AcDbEntity
  8
0
 62
7
100
AcDbSpline
 70
0
 71
3
 72
10
 73
6
 74
4
 40
0.000000
 40
0.000000
 40
0.000000
 40
0.000000
 40
1.062822
 40
1.861818
 40
2.443490
 40
2.443490
 40
2.443490
 40
2.443490
 10
12.174702
 20
16.111981
 30
0.0
 10
12.291591
 20
16.444765
 30
0.0
 10
12.496352
 20
17.027727
 30
0.0
 10
12.664477
 20
17.846535
 30
0.0
 10
12.549010
 20
18.296948
 30
0.0
 10
12.500364
 20
18.486706
 30
0.0
 11
12.174702
 21
16.111981
 31
0.0
 11
12.500387
 21
17.123672
 31
0.0
 11
12.608946
 21
17.915259
 31
0.0
 11
12.500364
 21
18.486706
 31
0.0
  0
SPLINE
  5
121
100
AcDbEntity
  8
0
 62
7
100
AcDbSpline
 70
0
 71
3
 72
13
 73
9
 74
7
 40
0.000000
 40
0.000000
 40
0.000000
 40
0.000000
 40
0.188250
 40
0.367822
 40
0.555541
 40
1.147282
 40
1.752830
 40
2.440121
 40
2.440121
 40
2.440121
 40
2.440121
 10
12.500364
 20
18.486706
 30
0.0
 10
12.470442
 20
18.542325
 30
0.0
 10
12.411977
 20
18.650999
 30
0.0
 10
12.267629
 20
18.774525
 30
0.0
 10
11.968482
 20
18.893917
 30
0.0
 10
11.497943
 20
18.939951
 30
0.0
 10
10.874466
 20
18.785653
 30
0.0
 10
10.518481
 20
18.537288
 30
0.0
 10
10.329234
 20
18.405253
 30
0.0
 11
12.500364
 21
18.486706
 31
0.0
 11
12.400877
 21
18.646520
 31
0.0
 11
12.265172
 21
18.764122
 31
0.0
 11
12.093249
 21
18.839494
 31
0.0
 11
11.505239
 21
18.905827
 31
0.0
 11
10.917245
 21
18.761080
 31
0.0
 11
10.329234
 21
18.405253
 31
0.0
  0
SPLINE
  5
122
100
AcDbEntity
  8
0
 62
7
100
AcDbSpline
 70
0
 71
3
 72
10
 73
6
 74
4
 40
0.000000
 40
0.000000
 40
0.000000
 40
0.000000
 40
0.860404
 40
1.804516
 40
2.873049
 40
2.873049
 40
2.873049
 40
2.873049
 10
10.329234
 20
18.405253
 30
0.0
 10
10.117363
 20
18.210116
 30
0.0
 10
9.673007
 20
17.800856
 30
0.0
 10
9.182482
 20
16.962099
 30
0.0
 10
8.965379
 20
16.327013
 30
0.0
 10
8.850117
 20
15.989839
 30
0.0
 11
10.329234
 21
18.405253
 31
0.0
 11
9.724599
 21
17.793117
 31
0.0
 11
9.231566
 21
16.987967
 31
0.0
 11
8.850117
 21
15.989839
 31
0.0
  0
SPLINE
  5
123
100
AcDbEntity
  8
0
 62
7
100
AcDbSpline
 70
0
 71
3
 72
19
 73
15
 74
13
 40
0.000000
 40
0.000000
 40
0.000000
 40
0.000000
 40
0.611847
 40
1.153329
 40
1.634842
 40
2.052810
 40
2.411308
 40
2.744764
 40
2.900536
 40
3.055259
 40
3.214151
 40
3.602840
 40
4.039798
 40
4.555619
 40
4.555619
 40
4.555619
 40
4.555619
 10
8.850117
 20
15.989839
 30
0.0
 10
8.798287
 20
15.792382
 30
0.0
 10
8.700588
 20
15.420177
 30
0.0
 10
8.639005
 20
14.876498
 30
0.0
 10
8.656825
 20
14.394491
 30
0.0
 10
8.751014
 20
13.982387
 30
0.0
 10
8.929081
 20
13.650991
 30
0.0
 10
9.147293
 20
13.460957
 30
0.0
 10
9.341028
 20
13.366449
 30
0.0
 10
9.492980
 20
13.325127
 30
0.0
 10
9.727397
 20
13.306227
 30
0.0
 10
10.056324
 20
13.368687
 30
0.0
 10
10.456810
 20
13.580651
 30
0.0
 10
10.690961
 20
13.796689
 30
0.0
 10
10.817727
 20
13.913649
 30
0.0
 11
8.850117
 21
15.989839
 31
0.0
 11
8.709896
 21
15.394276
 31
0.0
 11
8.651087
 21
14.855997
 31
0.0
 11
8.673723
 21
14.375016
 31
0.0
 11
8.774717
 21
13.969433
 31
0.0
 11
8.951111
 21
13.657334
 31
0.0
 11
9.202905
 21
13.438719
 31
0.0
 11
9.343131
 21
13.370885
 31
0.0
 11
9.492399
 21
13.330160
 31
0.0
 11
9.650709
 21
13.316577
 31
0.0
 11
10.033692
 21
13.382930
 31
0.0
 11
10.422687
 21
13.581965
 31
0.0
 11
10.817727
 21
13.913649
 31
0.0
  0
LWPOLYLINE
  5
124
100
AcDbEntity
  8
0
 62
7
100
AcDbPolyline
 90
2
 70
0
 10
12.147576
 20
16.057653
 30
0.0
 10
12.161139
 20
16.057653
 30
0.0
  0
SPLINE
  5
125
100
AcDbEntity
  8
0
 62
7
100
AcDbSpline
 70
0
 71
3
 72
10
 73
6
 74
4
 40
0.000000
 40
0.000000
 40
0.000000
 40
0.000000
 40
0.485241
 40
0.996375
 40
1.536400
 40
1.536400
 40
1.536400
 40
1.536400
 10
10.817727
 20
13.913649
 30
0.0
 10
10.925794
 20
14.034093
 30
0.0
 10
11.147695
 20
14.281407
 30
0.0
 10
11.450374
 20
14.695763
 30
0.0
 10
11.633050
 20
14.994836
 30
0.0
 10
11.726898
 20
15.148482
 30
0.0
 11
10.817727
 21
13.913649
 31
0.0
 11
11.135854
 21
14.280056
 31
0.0
 11
11.438911
 21
14.691656
 31
0.0
 11
11.726898
 21
15.148482
 31
0.0
  0
LWPOLYLINE
  5
126
100
AcDbEntity
  8
0
 62
7
100
AcDbPolyline
 90
2
 70
0
 10
11.726898
 20
15.148482
 30
0.0
 10
11.733680
 20
15.141701
 30
0.0
  0
SPLINE
  5
127
100
AcDbEntity
  8
0
 62
7
100
AcDbSpline
 70
0
 71
3
 72
19
 73
15
 74
13
 40
0.000000
 40
0.000000
 40
0.000000
 40
0.000000
 40
0.006482
 40
0.013630
 40
0.021953
 40
0.122800
 40
0.222914
 40
0.327486
 40
0.519182
 40
0.741007
 40
1.000936
 40
1.685315
 40
2.378379
 40
3.112036
 40
3.112036
 40
3.112036
 40
3.112036
 10
11.733680
 20
15.141701
 30
0.0
 10
11.735371
 20
15.140331
 30
0.0
 10
11.738927
 20
15.137452
 30
0.0
 10
11.746085
 20
15.135240
 30
0.0
 10
11.785202
 20
15.134607
 30
0.0
 10
11.835062
 20
15.070539
 30
0.0
 10
11.936480
 20
15.048608
 30
0.0
 10
12.067717
 20
15.033103
 30
0.0
 10
12.241017
 20
15.061506
 30
0.0
 10
12.451390
 20
15.141971
 30
0.0
 10
12.787862
 20
15.339057
 30
0.0
 10
13.210028
 20
15.691371
 30
0.0
 10
13.649609
 20
16.250388
 30
0.0
 10
13.840587
 20
16.687697
 30
0.0
 10
13.938793
 20
16.912573
 30
0.0
 11
11.733680
 21
15.141701
 31
0.0
 11
11.738954
 21
15.137933
 31
0.0
 11
11.745736
 21
15.135673
 31
0.0
 11
11.754024
 21
15.134919
 31
0.0
 11
11.839979
 21
15.082174
 31
0.0
 11
11.934959
 21
15.050528
 31
0.0
 11
12.038997
 21
15.039979
 31
0.0
 11
12.228974
 21
15.065600
 31
0.0
 11
12.437051
 21
15.142477
 31
0.0
 11
12.663195
 21
15.270624
 31
0.0
 11
13.190921
 21
15.706378
 31
0.0
 11
13.616120
 21
16.253683
 31
0.0
 11
13.938793
 21
16.912573
 31
0.0
  0
LWPOLYLINE
  5
128
100
AcDbEntity
  8
0
 62
7
100
AcDbPolyline
 90
3
 70
0
 10
13.938793
 20
16.912573
 30
0.0
 10
13.599492
 20
17.007589
 30
0.0
 10
13.599492
 20
17.007589
 30
0.0
  0
SPLINE
  5
129
100
AcDbEntity
  8
0
 62
7
100
AcDbSpline
 70
0
 71
3
 72
13
 73
9
 74
7
 40
0.000000
 40
0.000000
 40
0.000000
 40
0.000000
 40
0.150791
 40
0.281265
 40
0.391971
 40
0.479697
 40
0.541208
 40
0.578886
 40
0.578886
 40
0.578886
 40
0.578886
 10
10.682022
 20
14.280075
 30
0.0
 10
10.642147
 20
14.249444
 30
0.0
 10
10.567769
 20
14.192308
 30
0.0
 10
10.459237
 20
14.119563
 30
0.0
 10
10.363817
 20
14.064721
 30
0.0
 10
10.285077
 20
14.029912
 30
0.0
 10
10.225923
 20
14.006142
 30
0.0
 10
10.192617
 20
14.007971
 30
0.0
 10
10.179966
 20
14.008665
 30
0.0
 11
10.682022
 21
14.280075
 31
0.0
 11
10.561390
 21
14.189600
 31
0.0
 11
10.452830
 21
14.117225
 31
0.0
 11
10.356360
 21
14.062917
 31
0.0
 11
10.276436
 21
14.026749
 31
0.0
 11
10.217644
 21
14.008665
 31
0.0
 11
10.179966
 21
14.008665
 31
0.0
  0
SPLINE
  5
12a
100
AcDbEntity
  8
0
 62
7
100
AcDbSpline
 70
0
 71
3
 72
13
 73
9
 74
7
 40
0.000000
 40
0.000000
 40
0.000000
 40
0.000000
 40
0.156883
 40
0.441937
 40
0.875678
 40
1.389329
 40
1.912192
 40
2.447234
 40
2.447234
 40
2.447234
 40
2.447234
 10
10.139202
 20
14.022228
 30
0.0
 10
10.113842
 20
14.069074
 30
0.0
 10
10.042404
 20
14.201038
 30
0.0
 10
10.090077
 20
14.504616
 30
0.0
 10
10.156910
 20
14.902946
 30
0.0
 10
10.288798
 20
15.378347
 30
0.0
 10
10.460916
 20
15.872963
 30
0.0
 10
10.607757
 20
16.193882
 30
0.0
 10
10.682022
 20
16.356190
 30
0.0
 11
10.139202
 21
14.022228
 31
0.0
 11
10.075157
 21
14.165443
 31
0.0
 11
10.081958
 21
14.450416
 31
0.0
 11
10.159622
 21
14.877148
 31
0.0
 11
10.293016
 21
15.373176
 31
0.0
 11
10.467149
 21
15.866190
 31
0.0
 11
10.682022
 21
16.356190
 31
0.0
  0
SPLINE
  5
12b
100
AcDbEntity
  8
0
 62
7
100
AcDbSpline
 70
0
 71
3
 72
10
 73
6
 74
4
 40
0.000000
 40
0.000000
 40
0.000000
 40
0.000000
 40
0.721403
 40
1.283209
 40
1.705880
 40
1.705880
 40
1.705880
 40
1.705880
 10
10.682022
 20
16.356190
 30
0.0
 10
10.793036
 20
16.568891
 30
0.0
 10
10.990505
 20
16.947238
 30
0.0
 10
11.317137
 20
17.423513
 30
0.0
 10
11.584839
 20
17.616672
 30
0.0
 10
11.699772
 20
17.699602
 30
0.0
 11
10.682022
 21
16.356190
 31
0.0
 11
11.030309
 21
16.987948
 31
0.0
 11
11.369570
 21
17.435752
 31
0.0
 11
11.699772
 21
17.699602
 31
0.0
  0
SPLINE
  5
12c
100
AcDbEntity
  8
0
 62
7
100
AcDbSpline
 70
0
 71
3
 72
13
 73
9
 74
7
 40
0.000000
 40
0.000000
 40
0.000000
 40
0.000000
 40
0.114400
 40
0.246117
 40
0.395317
 40
1.159846
 40
1.771084
 40
2.246970
 40
2.246970
 40
2.246970
 40
2.246970
 10
11.699772
 20
17.699602
 30
0.0
 10
11.687381
 20
17.663530
 30
0.0
 10
11.660724
 20
17.585927
 30
0.0
 10
11.625230
 20
17.458968
 30
0.0
 10
11.541195
 20
17.120673
 30
0.0
 10
11.452204
 20
16.620999
 30
0.0
 10
11.397547
 20
15.999131
 30
0.0
 10
11.475581
 20
15.643472
 30
0.0
 10
11.509740
 20
15.487783
 30
0.0
 11
11.699772
 21
17.699602
 31
0.0
 11
11.663585
 21
17.591076
 31
0.0
 11
11.627381
 21
17.464432
 31
0.0
 11
11.591193
 21
17.319688
 31
0.0
 11
11.455510
 21
16.567295
 31
0.0
 11
11.428365
 21
15.956660
 31
0.0
 11
11.509740
 21
15.487783
 31
0.0
  0
LWPOLYLINE
  5
12d
100
AcDbEntity
  8
0
 62
7
100
AcDbPolyline
 90
2
 70
0
 10
10.179966
 20
14.008665
 30
0.0
 10
10.139202
 20
14.022228
 30
0.0
  0
SPLINE
  5
12e
100
AcDbEntity
  8
0
 62
7
100
AcDbSpline
 70
0
 71
3
 72
10
 73
6
 74
4
 40
0.000000
 40
0.000000
 40
0.000000
 40
0.000000
 40
0.509977
 40
0.998028
 40
1.467341
 40
1.467341
 40
1.467341
 40
1.467341
 10
11.509740
 20
15.487783
 30
0.0
 10
11.427061
 20
15.339205
 30
0.0
 10
11.265257
 20
15.048438
 30
0.0
 10
10.989402
 20
14.643236
 30
0.0
 10
10.783136
 20
14.399539
 30
0.0
 10
10.682022
 20
14.280075
 30
0.0
 11
11.509740
 21
15.487783
 31
0.0
 11
11.254960
 21
15.046009
 31
0.0
 11
10.979048
 21
14.643435
 31
0.0
 11
10.682022
 21
14.280075
 31
0.0
  0
SPLINE
  5
12f
100
AcDbEntity
  8
0
 62
7
100
AcDbSpline
 70
0
 71
3
 72
10
 73
6
 74
4
 40
0.000000
 40
0.000000
 40
0.000000
 40
0.000000
 40
0.187285
 40
0.341878
 40
0.466033
 40
0.466033
 40
0.466033
 40
0.466033
 10
11.916855
 20
17.238235
 30
0.0
 10
11.931910
 20
17.298788
 30
0.0
 10
11.959391
 20
17.409325
 30
0.0
 10
12.010842
 20
17.556846
 30
0.0
 10
12.058472
 20
17.636844
 30
0.0
 10
12.079686
 20
17.672476
 30
0.0
 11
11.916855
 21
17.238235
 31
0.0
 11
11.965099
 21
17.419200
 31
0.0
 11
12.019387
 21
17.563947
 31
0.0
 11
12.079686
 21
17.672476
 31
0.0
  0
SPLINE
  5
130
100
AcDbEntity
  8
0
 62
7
100
AcDbSpline
 70
0
 71
3
 72
13
 73
9
 74
7
 40
0.000000
 40
0.000000
 40
0.000000
 40
0.000000
 40
0.359225
 40
0.844803
 40
1.468579
 40
1.567795
 40
1.636722
 40
1.676049
 40
1.676049
 40
1.676049
 40
1.676049
 10
12.079686
 20
17.672476
 30
0.0
 10
12.090218
 20
17.552660
 30
0.0
 10
12.114988
 20
17.270884
 30
0.0
 10
12.013935
 20
16.786890
 30
0.0
 10
11.907782
 20
16.398527
 30
0.0
 10
11.819584
 20
16.150170
 30
0.0
 10
11.795258
 20
16.084913
 30
0.0
 10
11.774961
 20
16.054969
 30
0.0
 10
11.767587
 20
16.044091
 30
0.0
 11
12.079686
 21
17.672476
 31
0.0
 11
12.096294
 21
17.313635
 31
0.0
 11
12.019401
 21
16.834184
 31
0.0
 11
11.849040
 21
16.234123
 31
0.0
 11
11.815867
 21
16.140616
 31
0.0
 11
11.788705
 21
16.077267
 31
0.0
 11
11.767587
 21
16.044091
 31
0.0
  0
LWPOLYLINE
  5
131
100
AcDbEntity
  8
0
 62
7
100
AcDbPolyline
 90
1
 70
1
 10
10.682022
 20
14.280075
 30
0.0
  0
SPLINE
  5
132
100
AcDbEntity
  8
0
 62
7
100
AcDbSpline
 70
0
 71
3
 72
10
 73
6
 74
4
 40
0.000000
 40
0.000000
 40
0.000000
 40
0.000000
 40
0.362266
 40
0.763402
 40
1.205467
 40
1.205467
 40
1.205467
 40
1.205467
 10
11.767587
 20
16.044091
 30
0.0
 10
11.771189
 20
16.164850
 30
0.0
 10
11.778780
 20
16.419327
 30
0.0
 10
11.831369
 20
16.818404
 30
0.0
 10
11.887452
 20
17.093835
 30
0.0
 10
11.916855
 20
17.238235
 30
0.0
 11
11.767587
 21
16.044091
 31
0.0
 11
11.784184
 21
16.405976
 31
0.0
 11
11.833951
 21
16.804013
 31
0.0
 11
11.916855
 21
17.238235
 31
0.0
  0
SPLINE
  5
133
100
AcDbEntity
  8
0
 62
7
100
AcDbSpline
 70
0
 71
3
 72
16
 73
12
 74
10
 40
0.000000
 40
0.000000
 40
0.000000
 40
0.000000
 40
0.047967
 40
0.151540
 40
0.310732
 40
0.526736
 40
0.800864
 40
1.133139
 40
1.488183
 40
1.830742
 40
2.160884
 40
2.160884
 40
2.160884
 40
2.160884
 10
19.013831
 20
17.007589
 30
0.0
 10
19.005848
 20
16.993734
 30
0.0
 10
18.980628
 20
16.949964
 30
0.0
 10
18.925519
 20
16.862242
 30
0.0
 10
18.841328
 20
16.726675
 30
0.0
 10
18.724078
 20
16.544724
 30
0.0
 10
18.572193
 20
16.316506
 30
0.0
 10
18.392473
 20
16.051154
 30
0.0
 10
18.197940
 20
15.768297
 30
0.0
 10
18.001366
 20
15.487714
 30
0.0
 10
17.870398
 20
15.305700
 30
0.0
 10
17.806123
 20
15.216373
 30
0.0
 11
19.013831
 21
17.007589
 31
0.0
 11
18.989716
 21
16.966124
 31
0.0
 11
18.935444
 21
16.877909
 31
0.0
 11
18.851000
 21
16.742960
 31
0.0
 11
18.734182
 21
16.561269
 31
0.0
 11
18.582654
 21
16.332828
 31
0.0
 11
18.396414
 21
16.057653
 31
0.0
 11
18.195152
 21
15.765165
 31
0.0
 11
17.998394
 21
15.484749
 31
0.0
 11
17.806123
 21
15.216373
 31
0.0
  0
LWPOLYLINE
  5
134
100
AcDbEntity
  8
0
 62
7
100
AcDbPolyline
 90
1
 70
1
 10
11.916855
 20
17.238235
 30
0.0
  0
SPLINE
  5
135
100
AcDbEntity
  8
0
 62
7
100
AcDbSpline
 70
0
 71
3
 72
19
 73
15
 74
13
 40
0.000000
 40
0.000000
 40
0.000000
 40
0.000000
 40
0.529799
 40
0.997856
 40
1.405184
 40
1.416486
 40
1.425806
 40
1.435127
 40
1.444324
 40
1.452475
 40
1.460899
 40
2.330300
 40
3.692462
 40
5.552177
 40
5.552177
 40
5.552177
 40
5.552177
 10
17.806123
 20
15.216373
 30
0.0
 10
17.696958
 20
15.077554
 30
0.0
 10
17.491350
 20
14.816094
 30
0.0
 10
17.180857
 20
14.464568
 30
0.0
 10
16.982867
 20
14.246537
 30
0.0
 10
16.875379
 20
14.150783
 30
0.0
 10
16.865277
 20
14.148009
 30
0.0
 10
16.856053
 20
14.150701
 30
0.0
 10
16.848642
 20
14.155775
 30
0.0
 10
16.843475
 20
14.163068
 30
0.0
 10
16.815555
 20
14.461812
 30
0.0
 10
17.101213
 20
15.180486
 30
0.0
 10
17.444669
 20
16.486807
 30
0.0
 10
17.820126
 20
17.496678
 30
0.0
 10
18.036845
 20
18.079591
 30
0.0
 11
17.806123
 21
15.216373
 31
0.0
 11
17.474433
 21
14.803252
 31
0.0
 11
17.166855
 21
14.450444
 31
0.0
 11
16.883389
 21
14.157933
 31
0.0
 11
16.874347
 21
14.151152
 31
0.0
 11
16.865305
 21
14.148891
 31
0.0
 11
16.856263
 21
14.151152
 31
0.0
 11
16.848728
 21
14.156426
 31
0.0
 11
16.844207
 21
14.163208
 31
0.0
 11
16.842700
 21
14.171496
 31
0.0
 11
17.023612
 21
15.021867
 31
0.0
 11
17.421666
 21
16.324571
 31
0.0
 11
18.036845
 21
18.079591
 31
0.0
  0
SPLINE
  5
136
100
AcDbEntity
  8
0
 62
7
100
AcDbSpline
 70
0
 71
3
 72
10
 73
6
 74
4
 40
0.000000
 40
0.000000
 40
0.000000
 40
0.000000
 40
0.266083
 40
0.491010
 40
0.686236
 40
0.686236
 40
0.686236
 40
0.686236
 10
18.036845
 20
18.120280
 30
0.0
 10
18.033467
 20
18.208867
 30
0.0
 10
18.027235
 20
18.372339
 30
0.0
 10
17.973414
 20
18.598896
 30
0.0
 10
17.896288
 20
18.716813
 30
0.0
 10
17.860451
 20
18.771604
 30
0.0
 11
18.036845
 21
18.120280
 31
0.0
 11
18.017234
 21
18.385640
 31
0.0
 11
17.958425
 21
18.602742
 31
0.0
 11
17.860451
 21
18.771604
 31
0.0
  0
LWPOLYLINE
  5
137
100
AcDbEntity
  8
0
 62
7
100
AcDbPolyline
 90
2
 70
0
 10
18.036845
 20
18.079591
 30
0.0
 10
18.036845
 20
18.120280
 30
0.0
  0
SPLINE
  5
138
100
AcDbEntity
  8
0
 62
7
100
AcDbSpline
 70
0
 71
3
 72
10
 73
6
 74
4
 40
0.000000
 40
0.000000
 40
0.000000
 40
0.000000
 40
0.203301
 40
0.415961
 40
0.653160
 40
0.653160
 40
0.653160
 40
0.653160
 10
17.860451
 20
18.771604
 30
0.0
 10
17.811041
 20
18.818611
 30
0.0
 10
17.709949
 20
18.914789
 30
0.0
 10
17.504616
 20
19.001128
 30
0.0
 10
17.355544
 20
19.019673
 30
0.0
 10
17.276941
 20
19.029451
 30
0.0
 11
17.860451
 21
18.771604
 31
0.0
 11
17.705135
 21
18.902785
 31
0.0
 11
17.510621
 21
18.988740
 31
0.0
 11
17.276941
 21
19.029451
 31
0.0
  0
SPLINE
  5
139
100
AcDbEntity
  8
0
 62
7
100
AcDbSpline
 70
0
 71
3
 72
16
 73
12
 74
10
 40
0.000000
 40
0.000000
 40
0.000000
 40
0.000000
 40
0.039891
 40
0.159576
 40
0.359075
 40
0.613014
 40
0.896080
 40
1.208251
 40
1.511065
 40
1.766012
 40
1.973095
 40
1.973095
 40
1.973095
 40
1.973095
 10
17.114110
 20
18.920872
 30
0.0
 10
17.109080
 20
18.908563
 30
0.0
 10
17.088958
 20
18.859324
 30
0.0
 10
17.043716
 20
18.748512
 30
0.0
 10
16.971535
 20
18.571632
 30
0.0
 10
16.878890
 20
18.344283
 30
0.0
 10
16.772668
 20
18.081911
 30
0.0
 10
16.660537
 20
17.804354
 30
0.0
 10
16.552775
 20
17.535144
 30
0.0
 10
16.459590
 20
17.297827
 30
0.0
 10
16.405553
 20
17.153607
 30
0.0
 10
16.381333
 20
17.088967
 30
0.0
 11
17.114110
 21
18.920872
 31
0.0
 11
17.099021
 21
18.883945
 31
0.0
 11
17.053775
 21
18.773142
 31
0.0
 11
16.978405
 21
18.588429
 31
0.0
 11
16.882639
 21
18.353239
 31
0.0
 11
16.776339
 21
18.090891
 31
0.0
 11
16.659525
 21
17.801399
 31
0.0
 11
16.547181
 21
17.520197
 31
0.0
 11
16.454445
 21
17.282714
 31
0.0
 11
16.381333
 21
17.088967
 31
0.0
  0
LWPOLYLINE
  5
13a
100
AcDbEntity
  8
0
 62
7
100
AcDbPolyline
 90
3
 70
0
 10
17.276941
 20
19.029451
 30
0.0
 10
17.168362
 20
19.029451
 30
0.0
 10
17.114110
 20
18.920872
 30
0.0
  0
SPLINE
  5
13b
100
AcDbEntity
  8
0
 62
7
100
AcDbSpline
 70
0
 71
3
 72
16
 73
12
 74
10
 40
0.000000
 40
0.000000
 40
0.000000
 40
0.000000
 40
0.500611
 40
0.981134
 40
1.441992
 40
1.893758
 40
2.347362
 40
2.804023
 40
3.229419
 40
3.590846
 40
3.893437
 40
3.893437
 40
3.893437
 40
3.893437
 10
16.381333
 20
17.088967
 30
0.0
 10
16.315167
 20
16.935762
 30
0.0
 10
16.185490
 20
16.635500
 30
0.0
 10
15.979015
 20
16.201338
 30
0.0
 10
15.768298
 20
15.787436
 30
0.0
 10
15.544006
 20
15.390833
 30
0.0
 10
15.298907
 20
15.008476
 30
0.0
 10
15.041094
 20
14.645094
 30
0.0
 10
14.780458
 20
14.322866
 30
0.0
 10
14.528162
 20
14.059173
 30
0.0
 10
14.347007
 20
13.931253
 30
0.0
 10
14.264455
 20
13.872960
 30
0.0
 11
16.381333
 21
17.088967
 31
0.0
 11
16.180021
 21
16.630616
 31
0.0
 11
15.974221
 21
16.196395
 31
0.0
 11
15.763917
 21
15.786319
 31
0.0
 11
15.540750
 21
15.393523
 31
0.0
 11
15.296502
 21
15.011293
 31
0.0
 11
15.031139
 21
14.639645
 31
0.0
 11
14.761993
 21
14.310218
 31
0.0
 11
14.506425
 21
14.054651
 31
0.0
 11
14.264455
 21
13.872960
 31
0.0
  0
LWPOLYLINE
  5
13c
100
AcDbEntity
  8
0
 62
7
100
AcDbPolyline
 90
3
 70
0
 10
14.264455
 20
13.872960
 30
0.0
 10
14.237329
 20
13.967976
 30
0.0
 10
14.196565
 20
13.967976
 30
0.0
  0
SPLINE
  5
13d
100
AcDbEntity
  8
0
 62
7
100
AcDbSpline
 70
0
 71
3
 72
25
 73
21
 74
19
 40
0.000000
 40
0.000000
 40
0.000000
 40
0.000000
 40
0.029694
 40
0.069172
 40
0.119476
 40
0.222041
 40
0.422339
 40
0.721509
 40
1.107009
 40
1.567401
 40
2.104035
 40
2.409275
 40
2.729830
 40
3.065732
 40
3.382424
 40
3.645338
 40
3.854504
 40
4.009829
 40
4.111106
 40
4.158335
 40
4.158335
 40
4.158335
 40
4.158335
 10
14.196565
 20
13.967976
 30
0.0
 10
14.190410
 20
13.975795
 30
0.0
 10
14.176074
 20
13.994009
 30
0.0
 10
14.161928
 20
14.031611
 30
0.0
 10
14.141383
 20
14.092729
 30
0.0
 10
14.149083
 20
14.212569
 30
0.0
 10
14.173218
 20
14.410426
 30
0.0
 10
14.219028
 20
14.702599
 30
0.0
 10
14.298885
 20
15.075873
 30
0.0
 10
14.426362
 20
15.519094
 30
0.0
 10
14.562850
 20
15.931227
 30
0.0
 10
14.694926
 20
16.295516
 30
0.0
 10
14.805590
 20
16.596374
 30
0.0
 10
14.919942
 20
16.899937
 30
0.0
 10
15.029432
 20
17.184791
 30
0.0
 10
15.126263
 20
17.429243
 30
0.0
 10
15.206743
 20
17.622290
 30
0.0
 10
15.269071
 20
17.764485
 30
0.0
 10
15.309248
 20
17.857458
 30
0.0
 10
15.329892
 20
17.902451
 30
0.0
 10
15.336457
 20
17.916760
 30
0.0
 11
14.196565
 21
13.967976
 31
0.0
 11
14.179234
 21
13.992088
 31
0.0
 11
14.163411
 21
14.028256
 31
0.0
 11
14.149094
 21
14.076480
 31
0.0
 11
14.147587
 21
14.179034
 31
0.0
 11
14.170192
 21
14.378053
 31
0.0
 11
14.216909
 21
14.673552
 31
0.0
 11
14.297609
 21
15.050511
 31
0.0
 11
14.422011
 21
15.493777
 31
0.0
 11
14.590117
 21
16.003402
 31
0.0
 11
14.693402
 21
16.290635
 31
0.0
 11
14.804205
 21
16.591432
 31
0.0
 11
14.922560
 21
16.905791
 31
0.0
 11
15.036411
 21
17.201311
 31
0.0
 11
15.133668
 21
17.445575
 31
0.0
 11
15.214315
 21
17.638568
 31
0.0
 11
15.276155
 21
17.781052
 31
0.0
 11
15.316863
 21
17.873788
 31
0.0
 11
15.336457
 21
17.916760
 31
0.0
  0
LWPOLYLINE
  5
13e
100
AcDbEntity
  8
0
 62
7
100
AcDbPolyline
 90
3
 70
0
 10
15.336457
 20
17.916760
 30
0.0
 10
15.336457
 20
17.930323
 30
0.0
 10
15.350020
 20
17.943886
 30
0.0
  0
SPLINE
  5
13f
100
AcDbEntity
  8
0
 62
7
100
AcDbSpline
 70
0
 71
3
 72
19
 73
15
 74
13
 40
0.000000
 40
0.000000
 40
0.000000
 40
0.000000
 40
0.034672
 40
0.084474
 40
0.149437
 40
0.232358
 40
0.337277
 40
0.465025
 40
0.599276
 40
0.725708
 40
0.847955
 40
1.086968
 40
1.334776
 40
1.612348
 40
1.612348
 40
1.612348
 40
1.612348
 10
15.350020
 20
17.943886
 30
0.0
 10
15.350226
 20
17.955442
 30
0.0
 10
15.350727
 20
17.983596
 30
0.0
 10
15.353044
 20
18.033363
 30
0.0
 10
15.358167
 20
18.099072
 30
0.0
 10
15.356746
 20
18.183554
 30
0.0
 10
15.341390
 20
18.287799
 30
0.0
 10
15.317570
 20
18.407774
 30
0.0
 10
15.280634
 20
18.532320
 30
0.0
 10
15.223547
 20
18.647312
 30
0.0
 10
15.125698
 20
18.778079
 30
0.0
 10
14.964846
 20
18.907644
 30
0.0
 10
14.723061
 20
19.001708
 30
0.0
 10
14.547281
 20
19.010986
 30
0.0
 10
14.454412
 20
19.015888
 30
0.0
 11
15.350020
 21
17.943886
 31
0.0
 11
15.350773
 21
17.978550
 31
0.0
 11
15.353034
 21
18.028300
 31
0.0
 11
15.356801
 21
18.093154
 31
0.0
 11
15.355294
 21
18.176061
 31
0.0
 11
15.341731
 21
18.280100
 31
0.0
 11
15.316113
 21
18.405253
 31
0.0
 11
15.276158
 21
18.533420
 31
0.0
 11
15.219609
 21
18.646501
 31
0.0
 11
15.146500
 21
18.744478
 31
0.0
 11
14.961042
 21
18.895250
 31
0.0
 11
14.730340
 21
18.985726
 31
0.0
 11
14.454412
 21
19.015888
 31
0.0
  0
SPLINE
  5
140
100
AcDbEntity
  8
0
 62
7
100
AcDbSpline
 70
0
 71
3
 72
10
 73
6
 74
4
 40
0.000000
 40
0.000000
 40
0.000000
 40
0.000000
 40
0.652985
 40
1.399701
 40
2.241493
 40
2.241493
 40
2.241493
 40
2.241493
 10
14.305144
 20
18.920872
 30
0.0
 10
14.211698
 20
18.724243
 30
0.0
 10
14.011392
 20
18.302761
 30
0.0
 10
13.734137
 20
17.608414
 30
0.0
 10
13.557429
 20
17.109268
 30
0.0
 10
13.463787
 20
16.844758
 30
0.0
 11
14.305144
 21
18.920872
 31
0.0
 11
14.030720
 21
18.328352
 31
0.0
 11
13.750268
 21
17.636302
 31
0.0
 11
13.463787
 21
16.844758
 31
0.0
  0
LWPOLYLINE
  5
141
100
AcDbEntity
  8
0
 62
7
100
AcDbPolyline
 90
3
 70
0
 10
14.454412
 20
19.015888
 30
0.0
 10
14.345833
 20
19.015888
 30
0.0
 10
14.305144
 20
18.920872
 30
0.0
  0
SPLINE
  5
142
100
AcDbEntity
  8
0
 62
7
100
AcDbSpline
 70
0
 71
3
 72
16
 73
12
 74
10
 40
0.000000
 40
0.000000
 40
0.000000
 40
0.000000
 40
1.399827
 40
2.424349
 40
3.129088
 40
3.258126
 40
3.380036
 40
3.497700
 40
3.615605
 40
3.738690
 40
3.870281
 40
3.870281
 40
3.870281
 40
3.870281
 10
13.463787
 20
16.844758
 30
0.0
 10
13.322397
 20
16.398943
 30
0.0
 10
13.077524
 20
15.626839
 30
0.0
 10
12.921049
 20
14.595521
 30
0.0
 10
13.006233
 20
13.953829
 30
0.0
 10
13.175788
 20
13.682338
 30
0.0
 10
13.255471
 20
13.588271
 30
0.0
 10
13.346526
 20
13.510450
 30
0.0
 10
13.450316
 20
13.449997
 30
0.0
 10
13.567369
 20
13.406195
 30
0.0
 10
13.651195
 20
13.391869
 30
0.0
 10
13.694509
 20
13.384467
 30
0.0
 11
13.463787
 21
16.844758
 31
0.0
 11
13.080837
 21
15.498332
 31
0.0
 11
12.963236
 21
14.480581
 31
0.0
 11
13.110999
 21
13.791507
 31
0.0
 11
13.179624
 21
13.682230
 31
0.0
 11
13.258780
 21
13.589514
 31
0.0
 11
13.348502
 21
13.513391
 31
0.0
 11
13.450247
 21
13.453811
 31
0.0
 11
13.565588
 21
13.410842
 31
0.0
 11
13.694509
 21
13.384467
 31
0.0
  0
SPLINE
  5
143
100
AcDbEntity
  8
0
 62
7
100
AcDbSpline
 70
0
 71
3
 72
10
 73
6
 74
4
 40
0.000000
 40
0.000000
 40
0.000000
 40
0.000000
 40
0.649589
 40
1.515074
 40
2.684131
 40
2.684131
 40
2.684131
 40
2.684131
 10
13.816651
 20
13.384467
 30
0.0
 10
14.031997
 20
13.431322
 30
0.0
 10
14.534263
 20
13.540605
 30
0.0
 10
15.184570
 20
14.210440
 30
0.0
 10
15.556808
 20
14.771718
 30
0.0
 10
15.770698
 20
15.094230
 30
0.0
 11
13.816651
 21
13.384467
 31
0.0
 11
14.437838
 21
13.574446
 31
0.0
 11
15.089181
 21
14.144373
 31
0.0
 11
15.770698
 21
15.094230
 31
0.0
  0
SPLINE
  5
144
100
AcDbEntity
  8
0
 62
7
100
AcDbSpline
 70
0
 71
3
 72
10
 73
6
 74
4
 40
0.000000
 40
0.000000
 40
0.000000
 40
0.000000
 40
0.690742
 40
1.202839
 40
1.555938
 40
1.555938
 40
1.555938
 40
1.555938
 10
15.770698
 20
15.094230
 30
0.0
 10
15.720957
 20
14.870267
 30
0.0
 10
15.634338
 20
14.480264
 30
0.0
 10
15.569302
 20
13.955840
 30
0.0
 10
15.644850
 20
13.675338
 30
0.0
 10
15.675682
 20
13.560861
 30
0.0
 11
15.770698
 21
15.094230
 31
0.0
 11
15.633458
 21
14.417260
 31
0.0
 11
15.601792
 21
13.906142
 31
0.0
 11
15.675682
 21
13.560861
 31
0.0
  0
LWPOLYLINE
  5
145
100
AcDbEntity
  8
0
 62
7
100
AcDbPolyline
 90
2
 70
0
 10
13.694509
 20
13.384467
 30
0.0
 10
13.816651
 20
13.384467
 30
0.0
  0
SPLINE
  5
146
100
AcDbEntity
  8
0
 62
7
100
AcDbSpline
 70
0
 71
3
 72
28
 73
24
 74
22
 40
0.000000
 40
0.000000
 40
0.000000
 40
0.000000
 40
0.070908
 40
0.138383
 40
0.203436
 40
0.265131
 40
0.322811
 40
0.378216
 40
0.438909
 40
0.489491
 40
0.530311
 40
1.083570
 40
1.949504
 40
3.180182
 40
3.515819
 40
3.864188
 40
4.225358
 40
4.563461
 40
4.842607
 40
5.062855
 40
5.225237
 40
5.330710
 40
5.379313
 40
5.379313
 40
5.379313
 40
5.379313
 10
15.675682
 20
13.560861
 30
0.0
 10
15.688013
 20
13.540665
 30
0.0
 10
15.712078
 20
13.501252
 30
0.0
 10
15.755601
 20
13.448952
 30
0.0
 10
15.802785
 20
13.404343
 30
0.0
 10
15.853138
 20
13.368832
 30
0.0
 10
15.905656
 20
13.342408
 30
0.0
 10
15.962585
 20
13.330383
 30
0.0
 10
16.015943
 20
13.315012
 30
0.0
 10
16.065861
 20
13.305537
 30
0.0
 10
16.280886
 20
13.290687
 30
0.0
 10
16.746945
 20
13.529129
 30
0.0
 10
17.383424
 20
14.126788
 30
0.0
 10
17.900574
 20
14.759481
 30
0.0
 10
18.281251
 20
15.271222
 30
0.0
 10
18.484859
 20
15.554027
 30
0.0
 10
18.684352
 20
15.840642
 30
0.0
 10
18.867644
 20
16.110414
 30
0.0
 10
19.021990
 20
16.343042
 30
0.0
 10
19.140008
 20
16.529441
 30
0.0
 10
19.224005
 20
16.668778
 30
0.0
 10
19.279050
 20
16.758780
 30
0.0
 10
19.304377
 20
16.803462
 30
0.0
 10
19.312367
 20
16.817557
 30
0.0
 11
15.675682
 21
13.560861
 31
0.0
 11
15.714130
 21
13.501282
 31
0.0
 11
15.757116
 21
13.449271
 31
0.0
 11
15.804606
 21
13.404812
 31
0.0
 11
15.855109
 21
13.369378
 31
0.0
 11
15.907137
 21
13.344476
 31
0.0
 11
15.960655
 21
13.330140
 31
0.0
 11
16.019447
 21
13.315070
 31
0.0
 11
16.069215
 21
13.306028
 31
0.0
 11
16.109923
 21
13.303014
 31
0.0
 11
16.630091
 21
13.491486
 31
0.0
 11
17.285956
 21
14.056892
 31
0.0
 11
18.077533
 21
14.999214
 31
0.0
 11
18.278059
 21
15.268364
 31
0.0
 11
18.481615
 21
15.551077
 31
0.0
 11
18.688169
 21
15.847352
 31
0.0
 11
18.878126
 21
16.127048
 31
0.0
 11
19.031915
 21
16.360010
 31
0.0
 11
19.149536
 21
16.546222
 31
0.0
 11
19.233981
 21
16.684919
 31
0.0
 11
19.288252
 21
16.775358
 31
0.0
 11
19.312367
 21
16.817557
 31
0.0
  0
SPLINE
  5
147
100
AcDbEntity
  8
0
 62
7
100
AcDbSpline
 70
0
 71
3
 72
16
 73
12
 74
10
 40
0.000000
 40
0.000000
 40
0.000000
 40
0.000000
 40
0.027181
 40
0.108721
 40
0.244614
 40
0.435941
 40
0.683707
 40
0.987927
 40
1.322280
 40
1.660440
 40
2.002412
 40
2.002412
 40
2.002412
 40
2.002412
 10
25.038804
 20
16.980463
 30
0.0
 10
25.031268
 20
16.975433
 30
0.0
 10
25.001126
 20
16.955313
 30
0.0
 10
24.933293
 20
16.910067
 30
0.0
 10
24.819885
 20
16.834545
 30
0.0
 10
24.660553
 20
16.728020
 30
0.0
 10
24.454798
 20
16.589978
 30
0.0
 10
24.209392
 20
16.425465
 30
0.0
 10
23.939848
 20
16.242849
 30
0.0
 10
23.661617
 20
16.050638
 30
0.0
 10
23.476413
 20
15.919879
 30
0.0
 10
23.383292
 20
15.854134
 30
0.0
 11
25.038804
 21
16.980463
 31
0.0
 11
25.016196
 21
16.965373
 31
0.0
 11
24.948362
 21
16.920127
 31
0.0
 11
24.835284
 21
16.844758
 31
0.0
 11
24.676218
 21
16.738439
 31
0.0
 11
24.470418
 21
16.600474
 31
0.0
 11
24.217867
 21
16.430861
 31
0.0
 11
23.941183
 21
16.243145
 31
0.0
 11
23.662991
 21
16.050892
 31
0.0
 11
23.383292
 21
15.854134
 31
0.0
  0
LWPOLYLINE
  5
148
100
AcDbEntity
  8
0
 62
7
100
AcDbPolyline
 90
3
 70
0
 10
19.312367
 20
16.817557
 30
0.0
 10
19.013831
 20
17.007589
 30
0.0
 10
19.013831
 20
17.007589
 30
0.0
  0
SPLINE
  5
149
100
AcDbEntity
  8
0
 62
7
100
AcDbSpline
 70
0
 71
3
 72
10
 73
6
 74
4
 40
0.000000
 40
0.000000
 40
0.000000
 40
0.000000
 40
0.650102
 40
1.300741
 40
1.952064
 40
1.952064
 40
1.952064
 40
1.952064
 10
23.383292
 20
15.854134
 30
0.0
 10
23.442707
 20
16.062533
 30
0.0
 10
23.561584
 20
16.479503
 30
0.0
 10
23.729000
 20
17.108333
 30
0.0
 10
23.833264
 20
17.529614
 30
0.0
 10
23.885424
 20
17.740366
 30
0.0
 11
23.383292
 21
15.854134
 31
0.0
 11
23.559706
 21
16.479841
 31
0.0
 11
23.727094
 21
17.108580
 31
0.0
 11
23.885424
 21
17.740366
 31
0.0
  0
LWPOLYLINE
  5
14a
100
AcDbEntity
  8
0
 62
7
100
AcDbPolyline
 90
2
 70
0
 10
23.885424
 20
17.740366
 30
0.0
 10
23.885424
 20
17.753929
 30
0.0
  0
SPLINE
  5
14b
100
AcDbEntity
  8
0
 62
7
100
AcDbSpline
 70
0
 71
3
 72
19
 73
15
 74
13
 40
0.000000
 40
0.000000
 40
0.000000
 40
0.000000
 40
0.045991
 40
0.111720
 40
0.197251
 40
0.305077
 40
0.439744
 40
0.602879
 40
0.773571
 40
0.933479
 40
1.087680
 40
1.381144
 40
1.687461
 40
2.038745
 40
2.038745
 40
2.038745
 40
2.038745
 10
23.885424
 20
17.753929
 30
0.0
 10
23.885831
 20
17.769255
 30
0.0
 10
23.886819
 20
17.806485
 30
0.0
 10
23.891550
 20
17.872092
 30
0.0
 10
23.901184
 20
17.957930
 30
0.0
 10
23.901518
 20
18.067683
 30
0.0
 10
23.880724
 20
18.201632
 30
0.0
 10
23.846685
 20
18.354083
 30
0.0
 10
23.794868
 20
18.510891
 30
0.0
 10
23.717281
 20
18.653895
 30
0.0
 10
23.587356
 20
18.810353
 30
0.0
 10
23.381791
 20
18.963533
 30
0.0
 10
23.069301
 20
19.051390
 30
0.0
 10
22.849425
 20
19.037090
 30
0.0
 10
22.731968
 20
19.029451
 30
0.0
 11
23.885424
 21
17.753929
 31
0.0
 11
23.886931
 21
17.799895
 31
0.0
 11
23.891452
 21
17.865469
 31
0.0
 11
23.898987
 21
17.950668
 31
0.0
 11
23.898984
 21
18.058493
 31
0.0
 11
23.880880
 21
18.191938
 31
0.0
 11
23.844660
 21
18.351001
 31
0.0
 11
23.788881
 21
18.512322
 31
0.0
 11
23.711988
 21
18.652529
 31
0.0
 11
23.614014
 21
18.771604
 31
0.0
 11
23.377264
 21
18.945015
 31
0.0
 11
23.083249
 21
19.030953
 31
0.0
 11
22.731968
 21
19.029451
 31
0.0
  0
SPLINE
  5
14c
100
AcDbEntity
  8
0
 62
7
100
AcDbSpline
 70
0
 71
3
 72
19
 73
15
 74
13
 40
0.000000
 40
0.000000
 40
0.000000
 40
0.000000
 40
0.038218
 40
0.087050
 40
0.146486
 40
0.213452
 40
0.284870
 40
0.360712
 40
0.444425
 40
0.539367
 40
0.645570
 40
0.758947
 40
0.875240
 40
0.994441
 40
0.994441
 40
0.994441
 40
0.994441
 10
22.569137
 20
18.846276
 30
0.0
 10
22.565807
 20
18.833979
 30
0.0
 10
22.558222
 20
18.805969
 30
0.0
 10
22.547158
 20
18.758402
 30
0.0
 10
22.534564
 20
18.701365
 30
0.0
 10
22.521229
 20
18.636785
 30
0.0
 10
22.507569
 20
18.566693
 30
0.0
 10
22.494157
 20
18.490878
 30
0.0
 10
22.478333
 20
18.407527
 30
0.0
 10
22.457797
 20
18.314808
 30
0.0
 10
22.432939
 20
18.212955
 30
0.0
 10
22.405912
 20
18.104308
 30
0.0
 10
22.378818
 20
17.991216
 30
0.0
 10
22.360999
 20
17.914768
 30
0.0
 10
22.351979
 20
17.876071
 30
0.0
 11
22.569137
 21
18.846276
 31
0.0
 11
22.559342
 21
18.809335
 31
0.0
 11
22.548040
 21
18.761828
 31
0.0
 11
22.535230
 21
18.703789
 31
0.0
 11
22.521648
 21
18.638215
 31
0.0
 11
22.508048
 21
18.568104
 31
0.0
 11
22.494466
 21
18.493488
 31
0.0
 11
22.478642
 21
18.411284
 31
0.0
 11
22.458298
 21
18.318548
 31
0.0
 11
22.433432
 21
18.215296
 31
0.0
 11
22.406304
 21
18.105213
 31
0.0
 11
22.379158
 21
17.992132
 31
0.0
 11
22.351979
 21
17.876071
 31
0.0
  0
SPLINE
  5
14d
100
AcDbEntity
  8
0
 62
7
100
AcDbSpline
 70
0
 71
3
 72
13
 73
9
 74
7
 40
0.000000
 40
0.000000
 40
0.000000
 40
0.000000
 40
0.154359
 40
0.305973
 40
0.456050
 40
0.547330
 40
0.635144
 40
0.719915
 40
0.719915
 40
0.719915
 40
0.719915
 10
22.351979
 20
17.876071
 30
0.0
 10
22.341920
 20
17.926590
 30
0.0
 10
22.321979
 20
18.026728
 30
0.0
 10
22.274818
 20
18.171300
 30
0.0
 10
22.228683
 20
18.294586
 30
0.0
 10
22.170615
 20
18.387997
 30
0.0
 10
22.121536
 20
18.461036
 30
0.0
 10
22.085018
 20
18.505537
 30
0.0
 10
22.067081
 20
18.527395
 30
0.0
 11
22.351979
 21
17.876071
 31
0.0
 11
22.318822
 21
18.026827
 31
0.0
 11
22.273593
 21
18.171537
 31
0.0
 11
22.216274
 21
18.310237
 31
0.0
 11
22.169557
 21
18.388657
 31
0.0
 11
22.119826
 21
18.461032
 31
0.0
 11
22.067081
 21
18.527395
 31
0.0
  0
SPLINE
  5
14e
100
AcDbEntity
  8
0
 62
7
100
AcDbSpline
 70
0
 71
3
 72
10
 73
6
 74
4
 40
0.000000
 40
0.000000
 40
0.000000
 40
0.000000
 40
0.400328
 40
0.814434
 40
1.287974
 40
1.287974
 40
1.287974
 40
1.287974
 10
22.067081
 20
18.527395
 30
0.0
 10
21.974011
 20
18.624930
 30
0.0
 10
21.784668
 20
18.823356
 30
0.0
 10
21.368457
 20
18.978543
 30
0.0
 10
21.071856
 20
18.985207
 30
0.0
 10
20.913626
 20
18.988762
 30
0.0
 11
22.067081
 21
18.527395
 31
0.0
 11
21.770030
 21
18.795766
 31
0.0
 11
21.385539
 21
18.949555
 31
0.0
 11
20.913626
 21
18.988762
 31
0.0
  0
SPLINE
  5
14f
100
AcDbEntity
  8
0
 62
7
100
AcDbSpline
 70
0
 71
3
 72
16
 73
12
 74
10
 40
0.000000
 40
0.000000
 40
0.000000
 40
0.000000
 40
0.459398
 40
0.977984
 40
1.600077
 40
2.287272
 40
2.986932
 40
3.708305
 40
4.411677
 40
5.055689
 40
5.648010
 40
5.648010
 40
5.648010
 40
5.648010
 10
20.913626
 20
18.988762
 30
0.0
 10
20.760314
 20
18.967187
 30
0.0
 10
20.433939
 20
18.921258
 30
0.0
 10
19.978731
 20
18.616132
 30
0.0
 10
19.558375
 20
18.174686
 30
0.0
 10
19.167268
 20
17.628205
 30
0.0
 10
18.823431
 20
17.013896
 30
0.0
 10
18.550800
 20
16.358647
 30
0.0
 10
18.346229
 20
15.699678
 30
0.0
 10
18.207746
 20
15.065810
 30
0.0
 10
18.183950
 20
14.653841
 30
0.0
 10
18.172550
 20
14.456469
 30
0.0
 11
20.913626
 21
18.988762
 31
0.0
 11
20.464315
 21
18.893021
 31
0.0
 11
20.021032
 21
18.623890
 31
0.0
 11
19.583777
 21
18.181389
 31
0.0
 11
19.180451
 21
17.625003
 31
0.0
 11
18.838946
 21
17.014348
 31
0.0
 11
18.559245
 21
16.349408
 31
0.0
 11
18.350453
 21
15.677740
 31
0.0
 11
18.221549
 21
15.046760
 31
0.0
 11
18.172550
 21
14.456469
 31
0.0
  0
SPLINE
  5
150
100
AcDbEntity
  8
0
 62
7
100
AcDbSpline
 70
0
 71
3
 72
28
 73
24
 74
22
 40
0.000000
 40
0.000000
 40
0.000000
 40
0.000000
 40
0.249731
 40
0.475555
 40
0.679815
 40
0.860268
 40
1.015406
 40
1.150860
 40
1.271350
 40
1.376111
 40
1.466135
 40
1.548140
 40
1.628863
 40
1.709679
 40
1.729288
 40
1.752025
 40
1.777972
 40
1.802376
 40
1.820601
 40
1.832680
 40
2.171370
 40
2.505992
 40
2.844777
 40
2.844777
 40
2.844777
 40
2.844777
 10
18.172550
 20
14.456469
 30
0.0
 10
18.174233
 20
14.373194
 30
0.0
 10
18.177438
 20
14.214616
 30
0.0
 10
18.206621
 20
13.989410
 30
0.0
 10
18.254378
 20
13.791070
 30
0.0
 10
18.318850
 20
13.622610
 30
0.0
 10
18.396686
 20
13.484903
 30
0.0
 10
18.492093
 20
13.384826
 30
0.0
 10
18.589121
 20
13.313537
 30
0.0
 10
18.676912
 20
13.255612
 30
0.0
 10
18.759610
 20
13.214034
 30
0.0
 10
18.839601
 20
13.186935
 30
0.0
 10
18.919410
 20
13.170440
 30
0.0
 10
18.979869
 20
13.167780
 30
0.0
 10
19.020918
 20
13.166782
 30
0.0
 10
19.043575
 20
13.164337
 30
0.0
 10
19.067656
 20
13.160642
 30
0.0
 10
19.090216
 20
13.156987
 30
0.0
 10
19.108295
 20
13.154472
 30
0.0
 10
19.231176
 20
13.147956
 30
0.0
 10
19.459933
 20
13.173392
 30
0.0
 10
19.790822
 20
13.245672
 30
0.0
 10
19.996115
 20
13.338012
 30
0.0
 10
20.099396
 20
13.384467
 30
0.0
 11
18.172550
 21
14.456469
 31
0.0
 11
18.182345
 21
14.206930
 31
0.0
 11
18.211732
 21
13.983027
 31
0.0
 11
18.260709
 21
13.784726
 31
0.0
 11
18.326319
 21
13.616623
 31
0.0
 11
18.405476
 21
13.483198
 31
0.0
 11
18.498212
 21
13.384467
 31
0.0
 11
18.593962
 21
13.311325
 31
0.0
 11
18.682160
 21
13.254793
 31
0.0
 11
18.762840
 21
13.214855
 31
0.0
 11
18.840470
 21
13.188429
 31
0.0
 11
18.919624
 21
13.172586
 31
0.0
 11
19.000268
 21
13.167309
 31
0.0
 11
19.019861
 21
13.166555
 31
0.0
 11
19.042486
 21
13.164295
 31
0.0
 11
19.068158
 21
13.160527
 31
0.0
 11
19.092270
 21
13.156760
 31
0.0
 11
19.110354
 21
13.154499
 31
0.0
 11
19.122410
 21
13.153746
 31
0.0
 11
19.460128
 21
13.179387
 31
0.0
 11
19.785790
 21
13.256300
 31
0.0
 11
20.099396
 21
13.384467
 31
0.0
  0
SPLINE
  5
151
100
AcDbEntity
  8
0
 62
7
100
AcDbSpline
 70
0
 71
3
 72
10
 73
6
 74
4
 40
0.000000
 40
0.000000
 40
0.000000
 40
0.000000
 40
2.294305
 40
3.874844
 40
4.858147
 40
4.858147
 40
4.858147
 40
4.858147
 10
20.099396
 20
13.384467
 30
0.0
 10
19.532766
 20
12.882196
 30
0.0
 10
18.575787
 20
12.033911
 30
0.0
 10
17.410728
 20
10.810534
 30
0.0
 10
17.264958
 20
9.954104
 30
0.0
 10
17.209051
 20
9.625640
 30
0.0
 11
20.099396
 21
13.384467
 31
0.0
 11
18.409229
 21
11.832961
 31
0.0
 11
17.445770
 21
10.580024
 31
0.0
 11
17.209051
 21
9.625640
 31
0.0
  0
SPLINE
  5
152
100
AcDbEntity
  8
0
 62
7
100
AcDbSpline
 70
0
 71
3
 72
10
 73
6
 74
4
 40
0.000000
 40
0.000000
 40
0.000000
 40
0.000000
 40
0.372744
 40
0.766491
 40
1.249766
 40
1.249766
 40
1.249766
 40
1.249766
 10
17.209051
 20
9.625640
 30
0.0
 10
17.242488
 20
9.503423
 30
0.0
 10
17.311246
 20
9.252102
 30
0.0
 10
17.646780
 20
8.968736
 30
0.0
 10
17.924499
 20
8.876048
 30
0.0
 10
18.077533
 20
8.824973
 30
0.0
 11
17.209051
 21
9.625640
 31
0.0
 11
17.341767
 21
9.277323
 31
0.0
 11
17.631261
 21
9.010434
 31
0.0
 11
18.077533
 21
8.824973
 31
0.0
  0
SPLINE
  5
153
100
AcDbEntity
  8
0
 62
7
100
AcDbSpline
 70
0
 71
3
 72
13
 73
9
 74
7
 40
0.000000
 40
0.000000
 40
0.000000
 40
0.000000
 40
0.186481
 40
0.369438
 40
0.550631
 40
0.912622
 40
1.284789
 40
1.679278
 40
1.679278
 40
1.679278
 40
1.679278
 10
18.077533
 20
8.824973
 30
0.0
 10
18.137566
 20
8.808670
 30
0.0
 10
18.256496
 20
8.776373
 30
0.0
 10
18.438556
 20
8.749870
 30
0.0
 10
18.680597
 20
8.737448
 30
0.0
 10
18.986022
 20
8.768040
 30
0.0
 10
19.350304
 20
8.872652
 30
0.0
 10
19.576147
 20
8.993507
 30
0.0
 10
19.692356
 20
9.055694
 30
0.0
 11
18.077533
 21
8.824973
 31
0.0
 11
18.258451
 21
8.779763
 31
0.0
 11
18.439386
 21
8.752637
 31
0.0
 11
18.620354
 21
8.743595
 31
0.0
 11
18.980679
 21
8.778278
 31
0.0
 11
19.338008
 21
8.882317
 31
0.0
 11
19.692356
 21
9.055694
 31
0.0
  0
SPLINE
  5
154
100
AcDbEntity
  8
0
 62
7
100
AcDbSpline
 70
0
 71
3
 72
10
 73
6
 74
4
 40
0.000000
 40
0.000000
 40
0.000000
 40
0.000000
 40
1.729646
 40
4.127590
 40
7.307603
 40
7.307603
 40
7.307603
 40
7.307603
 10
19.692356
 20
9.055694
 30
0.0
 10
20.134321
 20
9.433478
 30
0.0
 10
21.189019
 20
10.335015
 30
0.0
 10
22.274879
 20
12.574423
 30
0.0
 10
22.877121
 20
14.326237
 30
0.0
 10
23.220461
 20
15.324952
 30
0.0
 11
19.692356
 21
9.055694
 31
0.0
 11
20.940749
 21
10.252852
 31
0.0
 11
22.116790
 21
12.342605
 31
0.0
 11
23.220461
 21
15.324952
 31
0.0
  0
LWPOLYLINE
  5
155
100
AcDbEntity
  8
0
 62
7
100
AcDbPolyline
 90
4
 70
0
 10
22.731968
 20
19.029451
 30
0.0
 10
22.609826
 20
19.015888
 30
0.0
 10
22.582700
 20
18.893746
 30
0.0
 10
22.569137
 20
18.846276
 30
0.0
  0
LWPOLYLINE
  5
156
100
AcDbEntity
  8
0
 62
7
100
AcDbPolyline
 90
3
 70
0
 10
25.228761
 20
16.681927
 30
0.0
 10
25.038804
 20
16.980463
 30
0.0
 10
25.038804
 20
16.980463
 30
0.0
  0
SPLINE
  5
157
100
AcDbEntity
  8
0
 62
7
100
AcDbSpline
 70
0
 71
3
 72
16
 73
12
 74
10
 40
0.000000
 40
0.000000
 40
0.000000
 40
0.000000
 40
0.417669
 40
0.827341
 40
1.229004
 40
1.593039
 40
1.889748
 40
2.119127
 40
2.283445
 40
2.385077
 40
2.424183
 40
2.424183
 40
2.424183
 40
2.424183
 10
23.220461
 20
15.324952
 30
0.0
 10
23.334155
 20
15.405308
 30
0.0
 10
23.559364
 20
15.564481
 30
0.0
 10
23.896392
 20
15.797393
 30
0.0
 10
24.220863
 20
16.016980
 30
0.0
 10
24.515055
 20
16.214132
 30
0.0
 10
24.761684
 20
16.379046
 30
0.0
 10
24.952633
 20
16.507603
 30
0.0
 10
25.090970
 20
16.597531
 30
0.0
 10
25.175272
 20
16.654788
 30
0.0
 10
25.217130
 20
16.676026
 30
0.0
 10
25.228761
 20
16.681927
 30
0.0
 11
23.220461
 21
15.324952
 31
0.0
 11
23.561966
 21
15.565413
 31
0.0
 11
23.898967
 21
15.798355
 31
0.0
 11
24.231430
 21
16.023746
 31
0.0
 11
24.533731
 21
16.226565
 31
0.0
 11
24.780256
 21
16.391677
 31
0.0
 11
24.970989
 21
16.519096
 31
0.0
 11
25.108179
 21
16.609535
 31
0.0
 11
25.194097
 21
16.663823
 31
0.0
 11
25.228761
 21
16.681927
 31
0.0
  0
LWPOLYLINE
  5
158
100
AcDbEntity
  8
0
 62
7
100
AcDbPolyline
 90
2
 70
0
 10
21.537824
 20
18.337438
 30
0.0
 10
21.551387
 20
18.337438
 30
0.0
  0
SPLINE
  5
159
100
AcDbEntity
  8
0
 62
7
100
AcDbSpline
 70
0
 71
3
 72
13
 73
9
 74
7
 40
0.000000
 40
0.000000
 40
0.000000
 40
0.000000
 40
0.053859
 40
0.108951
 40
0.167775
 40
0.225689
 40
0.276878
 40
0.322142
 40
0.322142
 40
0.322142
 40
0.322142
 10
21.551387
 20
18.337438
 30
0.0
 10
21.569376
 20
18.336256
 30
0.0
 10
21.605767
 20
18.333865
 30
0.0
 10
21.658971
 20
18.314420
 30
0.0
 10
21.707946
 20
18.284305
 30
0.0
 10
21.751453
 20
18.249015
 30
0.0
 10
21.788789
 20
18.213255
 30
0.0
 10
21.807319
 20
18.186900
 30
0.0
 10
21.816016
 20
18.174532
 30
0.0
 11
21.551387
 21
18.337438
 31
0.0
 11
21.604905
 21
18.331391
 31
0.0
 11
21.656933
 21
18.313270
 31
0.0
 11
21.707437
 21
18.283111
 31
0.0
 11
21.752666
 21
18.246940
 31
0.0
 11
21.788870
 21
18.210753
 31
0.0
 11
21.816016
 21
18.174532
 31
0.0
  0
LWPOLYLINE
  5
15a
100
AcDbEntity
  8
0
 62
7
100
AcDbPolyline
 90
2
 70
0
 10
21.816016
 20
18.174532
 30
0.0
 10
21.849923
 20
18.120280
 30
0.0
  0
SPLINE
  5
15b
100
AcDbEntity
  8
0
 62
7
100
AcDbSpline
 70
0
 71
3
 72
16
 73
12
 74
10
 40
0.000000
 40
0.000000
 40
0.000000
 40
0.000000
 40
0.202561
 40
0.427005
 40
0.678755
 40
0.923771
 40
1.125367
 40
1.284434
 40
1.407457
 40
1.499729
 40
1.561228
 40
1.561228
 40
1.561228
 40
1.561228
 10
21.849923
 20
18.120280
 30
0.0
 10
21.877614
 20
18.058501
 30
0.0
 10
21.935988
 20
17.928269
 30
0.0
 10
21.979918
 20
17.704569
 30
0.0
 10
21.995363
 20
17.464490
 30
0.0
 10
21.993365
 20
17.231611
 30
0.0
 10
21.984493
 20
17.029763
 30
0.0
 10
21.962315
 20
16.869818
 30
0.0
 10
21.936135
 20
16.747788
 30
0.0
 10
21.918298
 20
16.657264
 30
0.0
 10
21.908210
 20
16.607010
 30
0.0
 10
21.904175
 20
16.586911
 30
0.0
 11
21.849923
 21
18.120280
 31
0.0
 11
21.926080
 21
17.932581
 31
0.0
 11
21.973570
 21
17.713218
 31
0.0
 11
21.992410
 21
17.462175
 31
0.0
 11
21.991656
 21
17.217159
 31
0.0
 11
21.980354
 21
17.015880
 31
0.0
 11
21.958502
 21
16.858321
 31
0.0
 11
21.934371
 21
16.737689
 31
0.0
 11
21.916251
 21
16.647213
 31
0.0
 11
21.904175
 21
16.586911
 31
0.0
  0
SPLINE
  5
15c
100
AcDbEntity
  8
0
 62
7
100
AcDbSpline
 70
0
 71
3
 72
16
 73
12
 74
10
 40
0.000000
 40
0.000000
 40
0.000000
 40
0.000000
 40
0.125420
 40
0.272864
 40
0.442399
 40
0.657020
 40
0.940221
 40
1.292314
 40
1.666489
 40
2.017226
 40
2.346857
 40
2.346857
 40
2.346857
 40
2.346857
 10
21.877049
 20
16.437643
 30
0.0
 10
21.863440
 20
16.398110
 30
0.0
 10
21.833831
 20
16.312103
 30
0.0
 10
21.781092
 20
16.174374
 30
0.0
 10
21.716691
 20
16.009271
 30
0.0
 10
21.625552
 20
15.806215
 30
0.0
 10
21.497113
 20
15.553649
 30
0.0
 10
21.339797
 20
15.256156
 30
0.0
 10
21.158374
 20
14.946203
 30
0.0
 10
20.958328
 20
14.656315
 30
0.0
 10
20.809391
 20
14.485096
 30
0.0
 10
20.737232
 20
14.402142
 30
0.0
 11
21.877049
 21
16.437643
 31
0.0
 11
21.835604
 21
16.319268
 31
0.0
 11
21.783593
 21
16.181303
 31
0.0
 11
21.721000
 21
16.023746
 31
0.0
 11
21.633572
 21
15.827739
 31
0.0
 11
21.506928
 21
15.574432
 31
0.0
 11
21.341086
 21
15.263843
 31
0.0
 11
21.150322
 21
14.941948
 31
0.0
 11
20.949043
 21
14.654715
 31
0.0
 11
20.737232
 21
14.402142
 31
0.0
  0
SPLINE
  5
15d
100
AcDbEntity
  8
0
 62
7
100
AcDbSpline
 70
0
 71
3
 72
19
 73
15
 74
13
 40
0.000000
 40
0.000000
 40
0.000000
 40
0.000000
 40
0.490549
 40
0.805561
 40
0.986617
 40
1.057109
 40
1.145809
 40
1.256736
 40
1.400804
 40
1.589010
 40
1.822623
 40
2.092999
 40
2.391936
 40
2.720273
 40
2.720273
 40
2.720273
 40
2.720273
 10
20.737232
 20
14.402142
 30
0.0
 10
20.601880
 20
14.310053
 30
0.0
 10
20.379610
 20
14.158828
 30
0.0
 10
20.089038
 20
14.004679
 30
0.0
 10
19.871253
 20
14.025061
 30
0.0
 10
19.809481
 20
14.125754
 30
0.0
 10
19.781604
 20
14.211113
 30
0.0
 10
19.762802
 20
14.324786
 30
0.0
 10
19.760026
 20
14.472815
 30
0.0
 10
19.775792
 20
14.660977
 30
0.0
 10
19.807355
 20
14.889623
 30
0.0
 10
19.859078
 20
15.152385
 30
0.0
 10
19.934188
 20
15.442223
 30
0.0
 10
19.998118
 20
15.641333
 30
0.0
 10
20.031581
 20
15.745554
 30
0.0
 11
20.737232
 21
14.402142
 31
0.0
 11
20.325621
 21
14.135281
 31
0.0
 11
20.031606
 21
14.022200
 31
0.0
 11
19.855187
 21
14.062917
 31
0.0
 11
19.815232
 21
14.120992
 31
0.0
 11
19.785809
 21
14.204670
 31
0.0
 11
19.766952
 21
14.313983
 31
0.0
 11
19.762434
 21
14.457979
 31
0.0
 11
19.776017
 21
14.645695
 31
0.0
 11
19.807717
 21
14.877148
 31
0.0
 11
19.859711
 21
15.142477
 31
0.0
 11
19.934327
 21
15.431951
 31
0.0
 11
20.031581
 21
15.745554
 31
0.0
  0
SPLINE
  5
15e
100
AcDbEntity
  8
0
 62
7
100
AcDbSpline
 70
0
 71
3
 72
10
 73
6
 74
4
 40
0.000000
 40
0.000000
 40
0.000000
 40
0.000000
 40
0.855895
 40
1.589422
 40
2.206406
 40
2.206406
 40
2.206406
 40
2.206406
 10
20.031581
 20
15.745554
 30
0.0
 10
20.120376
 20
16.016643
 30
0.0
 10
20.285271
 20
16.520062
 30
0.0
 10
20.567089
 20
17.201743
 30
0.0
 10
20.795646
 20
17.590080
 30
0.0
 10
20.900063
 20
17.767492
 30
0.0
 11
20.031581
 21
15.745554
 31
0.0
 11
20.309019
 21
16.555236
 31
0.0
 11
20.598513
 21
17.229221
 31
0.0
 11
20.900063
 21
17.767492
 31
0.0
  0
LWPOLYLINE
  5
15f
100
AcDbEntity
  8
0
 62
7
100
AcDbPolyline
 90
2
 70
0
 10
21.904175
 20
16.586911
 30
0.0
 10
21.877049
 20
16.437643
 30
0.0
  0
SPLINE
  5
160
100
AcDbEntity
  8
0
 62
7
100
AcDbSpline
 70
0
 71
3
 72
10
 73
6
 74
4
 40
0.000000
 40
0.000000
 40
0.000000
 40
0.000000
 40
0.393511
 40
0.678634
 40
0.880321
 40
0.880321
 40
0.880321
 40
0.880321
 10
20.900063
 20
17.767492
 30
0.0
 10
20.974223
 20
17.874451
 30
0.0
 10
21.102116
 20
18.058908
 30
0.0
 10
21.311228
 20
18.281742
 30
0.0
 10
21.471446
 20
18.321123
 30
0.0
 10
21.537824
 20
18.337438
 30
0.0
 11
20.900063
 21
17.767492
 31
0.0
 11
21.133743
 21
18.084107
 31
0.0
 11
21.346341
 21
18.274100
 31
0.0
 11
21.537824
 21
18.337438
 31
0.0
  0
SPLINE
  5
161
100
AcDbEntity
  8
0
 62
7
100
AcDbSpline
 70
0
 71
3
 72
22
 73
18
 74
16
 40
0.000000
 40
0.000000
 40
0.000000
 40
0.000000
 40
0.284556
 40
0.518066
 40
0.732525
 40
0.869755
 40
1.030776
 40
1.220288
 40
1.453655
 40
1.745711
 40
2.098007
 40
2.534801
 40
3.082194
 40
3.742141
 40
4.502083
 40
5.349126
 40
6.284058
 40
6.284058
 40
6.284058
 40
6.284058
 10
18.036845
 20
9.191399
 30
0.0
 10
17.948846
 20
9.228228
 30
0.0
 10
17.788635
 20
9.295279
 30
0.0
 10
17.605147
 20
9.465902
 30
0.0
 10
17.527251
 20
9.652949
 30
0.0
 10
17.528562
 20
9.825682
 30
0.0
 10
17.560483
 20
9.985664
 30
0.0
 10
17.624558
 20
10.170035
 30
0.0
 10
17.729970
 20
10.384290
 30
0.0
 10
17.882038
 20
10.634437
 30
0.0
 10
18.082899
 20
10.933903
 30
0.0
 10
18.361376
 20
11.282396
 30
0.0
 10
18.736186
 20
11.682683
 30
0.0
 10
19.204575
 20
12.141824
 30
0.0
 10
19.764086
 20
12.649948
 30
0.0
 10
20.409263
 20
13.199440
 30
0.0
 10
20.873552
 20
13.569976
 30
0.0
 10
21.117146
 20
13.764381
 30
0.0
 11
18.036845
 21
9.191399
 31
0.0
 11
17.782034
 21
9.318062
 31
0.0
 11
17.614662
 21
9.480893
 31
0.0
 11
17.534713
 21
9.679892
 31
0.0
 11
17.532472
 21
9.817104
 31
0.0
 11
17.561895
 21
9.975414
 31
0.0
 11
17.622948
 21
10.154822
 31
0.0
 11
17.723992
 21
10.365180
 31
0.0
 11
17.873260
 21
10.616209
 31
0.0
 11
18.070752
 21
10.907944
 31
0.0
 11
18.342131
 21
11.250205
 31
0.0
 11
18.713040
 21
11.652780
 31
0.0
 11
19.183443
 21
12.115651
 31
0.0
 11
19.745104
 21
12.627559
 31
0.0
 11
20.389666
 21
13.177124
 31
0.0
 11
21.117146
 21
13.764381
 31
0.0
  0
LWPOLYLINE
  5
162
100
AcDbEntity
  8
0
 62
7
100
AcDbPolyline
 90
1
 70
1
 10
21.537824
 20
18.337438
 30
0.0
  0
LWPOLYLINE
  5
163
100
AcDbEntity
  8
0
 62
7
100
AcDbPolyline
 90
3
 70
0
 10
18.036845
 20
9.204962
 30
0.0
 10
18.036845
 20
9.191399
 30
0.0
 10
18.036845
 20
9.191399
 30
0.0
  0
SPLINE
  5
164
100
AcDbEntity
  8
0
 62
7
100
AcDbSpline
 70
0
 71
3
 72
10
 73
6
 74
4
 40
0.000000
 40
0.000000
 40
0.000000
 40
0.000000
 40
2.456770
 40
4.290911
 40
5.617751
 40
5.617751
 40
5.617751
 40
5.617751
 10
21.117146
 20
13.764381
 30
0.0
 10
20.809747
 20
13.009688
 30
0.0
 10
20.272854
 20
11.691568
 30
0.0
 10
19.308910
 20
10.023901
 30
0.0
 10
18.412935
 20
9.447084
 30
0.0
 10
18.036845
 20
9.204962
 30
0.0
 11
21.117146
 21
13.764381
 31
0.0
 11
20.129589
 21
11.514837
 31
0.0
 11
19.102816
 21
9.995030
 31
0.0
 11
18.036845
 21
9.204962
 31
0.0
  0
SPLINE
  5
165
100
AcDbEntity
  8
0
 62
7
100
AcDbSpline
 70
0
 71
3
 72
28
 73
24
 74
22
 40
0.000000
 40
0.000000
 40
0.000000
 40
0.000000
 40
0.096594
 40
0.232139
 40
0.406777
 40
0.638974
 40
0.947334
 40
1.332025
 40
1.748753
 40
2.153642
 40
2.547452
 40
2.937449
 40
3.333183
 40
3.738491
 40
4.127896
 40
4.481215
 40
4.812063
 40
4.866419
 40
4.921455
 40
4.977779
 40
5.126870
 40
5.261810
 40
5.388732
 40
5.388732
 40
5.388732
 40
5.388732
 10
29.191183
 20
16.926136
 30
0.0
 10
29.178901
 20
16.896364
 30
0.0
 10
29.149386
 20
16.824814
 30
0.0
 10
29.089061
 20
16.703296
 30
0.0
 10
29.006981
 20
16.542218
 30
0.0
 10
28.890133
 20
16.334327
 30
0.0
 10
28.730706
 20
16.070296
 30
0.0
 10
28.535422
 20
15.756109
 30
0.0
 10
28.314815
 20
15.419789
 30
0.0
 10
28.076564
 20
15.091963
 30
0.0
 10
27.832062
 20
14.779982
 30
0.0
 10
27.566483
 20
14.489182
 30
0.0
 10
27.267692
 20
14.226664
 30
0.0
 10
26.947304
 20
13.991871
 30
0.0
 10
26.613756
 20
13.800810
 30
0.0
 10
26.273320
 20
13.684281
 30
0.0
 10
26.026637
 20
13.651539
 30
0.0
 10
25.879788
 20
13.657733
 30
0.0
 10
25.825279
 20
13.667229
 30
0.0
 10
25.741043
 20
13.689601
 30
0.0
 10
25.642772
 20
13.749034
 30
0.0
 10
25.533116
 20
13.833119
 30
0.0
 10
25.483520
 20
13.905630
 30
0.0
 10
25.459482
 20
13.940775
 30
0.0
 11
29.191183
 21
16.926136
 31
0.0
 11
29.153488
 21
16.837201
 31
0.0
 11
29.094679
 21
16.715078
 31
0.0
 11
29.014789
 21
16.559785
 31
0.0
 11
28.901686
 21
16.356996
 31
0.0
 11
28.743356
 21
16.092387
 31
0.0
 11
28.539783
 21
15.765974
 31
0.0
 11
28.309872
 21
15.418408
 31
0.0
 11
28.072408
 21
15.090466
 31
0.0
 11
27.827426
 21
14.782131
 31
0.0
 11
27.562797
 21
14.495654
 31
0.0
 11
27.266522
 21
14.233305
 31
0.0
 11
26.938599
 21
13.995102
 31
0.0
 11
26.597848
 21
13.806622
 31
0.0
 11
26.263108
 21
13.693558
 31
0.0
 11
25.934412
 21
13.655877
 31
0.0
 11
25.880141
 21
13.658891
 31
0.0
 11
25.825852
 21
13.667933
 31
0.0
 11
25.771581
 21
13.683003
 31
0.0
 11
25.640400
 21
13.753852
 31
0.0
 11
25.536361
 21
13.839787
 31
0.0
 11
25.459482
 21
13.940775
 31
0.0
  0
SPLINE
  5
166
100
AcDbEntity
  8
0
 62
7
100
AcDbSpline
 70
0
 71
3
 72
10
 73
6
 74
4
 40
0.000000
 40
0.000000
 40
0.000000
 40
0.000000
 40
0.561446
 40
1.366967
 40
2.486107
 40
2.486107
 40
2.486107
 40
2.486107
 10
25.459482
 20
13.940775
 30
0.0
 10
25.402700
 20
14.122404
 30
0.0
 10
25.264450
 20
14.564620
 30
0.0
 10
25.500222
 20
15.395103
 30
0.0
 10
25.757617
 20
15.977090
 30
0.0
 10
25.907286
 20
16.315501
 30
0.0
 11
25.459482
 21
13.940775
 31
0.0
 11
25.334326
 21
14.488094
 31
0.0
 11
25.483594
 21
15.279664
 31
0.0
 11
25.907286
 21
16.315501
 31
0.0
  0
SPLINE
  5
167
100
AcDbEntity
  8
0
 62
7
100
AcDbSpline
 70
0
 71
3
 72
22
 73
18
 74
16
 40
0.000000
 40
0.000000
 40
0.000000
 40
0.000000
 40
0.128206
 40
0.259701
 40
0.394742
 40
0.541710
 40
0.709572
 40
0.898907
 40
1.104705
 40
1.324634
 40
1.562122
 40
1.809027
 40
2.058073
 40
2.312993
 40
2.689422
 40
3.042259
 40
3.421887
 40
3.421887
 40
3.421887
 40
3.421887
 10
25.907286
 20
16.315501
 30
0.0
 10
25.950026
 20
16.316085
 30
0.0
 10
26.036603
 20
16.317268
 30
0.0
 10
26.167887
 20
16.326935
 30
0.0
 10
26.304983
 20
16.341579
 30
0.0
 10
26.452811
 20
16.367738
 30
0.0
 10
26.615593
 20
16.409858
 30
0.0
 10
26.795507
 20
16.463504
 30
0.0
 10
26.985861
 20
16.541323
 30
0.0
 10
27.176474
 20
16.654611
 30
0.0
 10
27.364519
 20
16.795793
 30
0.0
 10
27.543161
 20
16.963643
 30
0.0
 10
27.701894
 20
17.158029
 30
0.0
 10
27.861851
 20
17.404473
 30
0.0
 10
27.987438
 20
17.713248
 30
0.0
 10
27.985794
 20
18.096137
 30
0.0
 10
27.877021
 20
18.317598
 30
0.0
 10
27.820645
 20
18.432379
 30
0.0
 11
25.907286
 21
16.315501
 31
0.0
 11
26.035456
 21
16.318515
 31
0.0
 11
26.166640
 21
16.327557
 31
0.0
 11
26.300838
 21
16.342627
 31
0.0
 11
26.445552
 21
16.368265
 31
0.0
 11
26.608400
 21
16.408990
 31
0.0
 11
26.789331
 21
16.464769
 31
0.0
 11
26.979291
 21
16.543942
 31
0.0
 11
27.169268
 21
16.654745
 31
0.0
 11
27.359277
 21
16.797212
 31
0.0
 11
27.538685
 21
16.966844
 31
0.0
 11
27.696995
 21
17.159098
 31
0.0
 11
27.834208
 21
17.373940
 31
0.0
 11
27.965366
 21
17.726781
 31
0.0
 11
27.960846
 21
18.079588
 31
0.0
 11
27.820645
 21
18.432379
 31
0.0
  0
LWPOLYLINE
  5
168
100
AcDbEntity
  8
0
 62
7
100
AcDbPolyline
 90
2
 70
0
 10
29.503282
 20
16.776868
 30
0.0
 10
29.191183
 20
16.926136
 30
0.0
  0
SPLINE
  5
169
100
AcDbEntity
  8
0
 62
7
100
AcDbSpline
 70
0
 71
3
 72
10
 73
6
 74
4
 40
0.000000
 40
0.000000
 40
0.000000
 40
0.000000
 40
0.358653
 40
0.693806
 40
1.049245
 40
1.049245
 40
1.049245
 40
1.049245
 10
27.820645
 20
18.432379
 30
0.0
 10
27.753345
 20
18.532284
 30
0.0
 10
27.623156
 20
18.725548
 30
0.0
 10
27.314416
 20
18.917302
 30
0.0
 10
27.084210
 20
18.946572
 30
0.0
 10
26.965725
 20
18.961636
 30
0.0
 11
27.820645
 21
18.432379
 31
0.0
 11
27.598982
 21
18.714333
 31
0.0
 11
27.314026
 21
18.890763
 31
0.0
 11
26.965725
 21
18.961636
 31
0.0
  0
SPLINE
  5
16a
100
AcDbEntity
  8
0
 62
7
100
AcDbSpline
 70
0
 71
3
 72
19
 73
15
 74
13
 40
0.000000
 40
0.000000
 40
0.000000
 40
0.000000
 40
0.258431
 40
0.562995
 40
0.929597
 40
1.339273
 40
1.768610
 40
2.221194
 40
2.691663
 40
3.174221
 40
3.671544
 40
4.156217
 40
4.602207
 40
5.014854
 40
5.014854
 40
5.014854
 40
5.014854
 10
26.938599
 20
18.961636
 30
0.0
 10
26.852371
 20
18.952017
 30
0.0
 10
26.664521
 20
18.931060
 30
0.0
 10
26.384542
 20
18.785844
 30
0.0
 10
26.095054
 20
18.571666
 30
0.0
 10
25.801502
 20
18.295603
 30
0.0
 10
25.515920
 20
17.972834
 30
0.0
 10
25.247645
 20
17.609869
 30
0.0
 10
24.999024
 20
17.212185
 30
0.0
 10
24.775238
 20
16.783175
 30
0.0
 10
24.579888
 20
16.335258
 30
0.0
 10
24.423532
 20
15.885341
 30
0.0
 10
24.315660
 20
15.449118
 30
0.0
 10
24.290832
 20
15.163621
 30
0.0
 10
24.278901
 20
15.026416
 30
0.0
 11
26.938599
 21
18.961636
 31
0.0
 11
26.683766
 21
18.918662
 31
0.0
 11
26.407835
 21
18.789738
 31
0.0
 11
26.110806
 21
18.574866
 31
0.0
 11
25.810766
 21
18.295920
 31
0.0
 11
25.525812
 21
17.974779
 31
0.0
 11
25.255962
 21
17.611443
 31
0.0
 11
25.006406
 21
17.212616
 31
0.0
 11
24.782486
 21
16.785156
 31
0.0
 11
24.584218
 21
16.329064
 31
0.0
 11
24.426665
 21
15.870713
 31
0.0
 11
24.324886
 21
15.436492
 31
0.0
 11
24.278901
 21
15.026416
 31
0.0
  0
LWPOLYLINE
  5
16b
100
AcDbEntity
  8
0
 62
7
100
AcDbPolyline
 90
2
 70
0
 10
26.965725
 20
18.961636
 30
0.0
 10
26.938599
 20
18.961636
 30
0.0
  0
SPLINE
  5
16c
100
AcDbEntity
  8
0
 62
7
100
AcDbSpline
 70
0
 71
3
 72
19
 73
15
 74
13
 40
0.000000
 40
0.000000
 40
0.000000
 40
0.000000
 40
0.479498
 40
0.901057
 40
1.291985
 40
1.679720
 40
2.093995
 40
2.565075
 40
2.673818
 40
2.782378
 40
2.891071
 40
2.989648
 40
3.067734
 40
3.125974
 40
3.125974
 40
3.125974
 40
3.125974
 10
24.278901
 20
15.026416
 30
0.0
 10
24.280375
 20
14.866042
 30
0.0
 10
24.283147
 20
14.564673
 30
0.0
 10
24.402194
 20
14.144668
 30
0.0
 10
24.615159
 20
13.799266
 30
0.0
 10
24.924315
 20
13.538501
 30
0.0
 10
25.320928
 20
13.372828
 30
0.0
 10
25.651009
 20
13.323218
 30
0.0
 10
25.880051
 20
13.309443
 30
0.0
 10
25.988789
 20
13.309567
 30
0.0
 10
26.093977
 20
13.315405
 30
0.0
 10
26.188498
 20
13.325611
 30
0.0
 10
26.266171
 20
13.337363
 30
0.0
 10
26.309468
 20
13.351361
 30
0.0
 10
26.327964
 20
13.357341
 30
0.0
 11
24.278901
 21
15.026416
 31
0.0
 11
24.306052
 21
14.547687
 31
0.0
 11
24.423673
 21
14.142869
 31
0.0
 11
24.631764
 21
13.811927
 31
0.0
 11
24.927255
 21
13.560884
 31
0.0
 11
25.307206
 21
13.395772
 31
0.0
 11
25.771581
 21
13.316577
 31
0.0
 11
25.880157
 21
13.310549
 31
0.0
 11
25.988717
 21
13.310549
 31
0.0
 11
26.097243
 21
13.316577
 31
0.0
 11
26.195254
 21
13.327129
 31
0.0
 11
26.272150
 21
13.340711
 31
0.0
 11
26.327964
 21
13.357341
 31
0.0
  0
LWPOLYLINE
  5
16d
100
AcDbEntity
  8
0
 62
7
100
AcDbPolyline
 90
2
 70
0
 10
26.327964
 20
13.357341
 30
0.0
 10
26.409342
 20
13.370904
 30
0.0
  0
SPLINE
  5
16e
100
AcDbEntity
  8
0
 62
7
100
AcDbSpline
 70
0
 71
3
 72
22
 73
18
 74
16
 40
0.000000
 40
0.000000
 40
0.000000
 40
0.000000
 40
0.348442
 40
0.723891
 40
1.133072
 40
1.547567
 40
1.936210
 40
2.301082
 40
2.664608
 40
3.047963
 40
3.451787
 40
3.823219
 40
4.109098
 40
4.309533
 40
4.460571
 40
4.598156
 40
4.722356
 40
4.722356
 40
4.722356
 40
4.722356
 10
26.409342
 20
13.370904
 30
0.0
 10
26.519772
 20
13.407585
 30
0.0
 10
26.749192
 20
13.483791
 30
0.0
 10
27.080577
 20
13.669194
 30
0.0
 10
27.404837
 20
13.903552
 30
0.0
 10
27.712187
 20
14.166456
 30
0.0
 10
27.992408
 20
14.437229
 30
0.0
 10
28.237504
 20
14.718110
 30
0.0
 10
28.461165
 20
15.013777
 30
0.0
 10
28.680930
 20
15.328266
 30
0.0
 10
28.888140
 20
15.654282
 30
0.0
 10
29.071427
 20
15.956804
 30
0.0
 10
29.217184
 20
16.202783
 30
0.0
 10
29.320413
 20
16.388543
 30
0.0
 10
29.393097
 20
16.534485
 30
0.0
 10
29.452495
 20
16.658640
 30
0.0
 10
29.486940
 20
16.738825
 30
0.0
 10
29.503282
 20
16.776868
 30
0.0
 11
26.409342
 21
13.370904
 31
0.0
 11
26.736531
 21
13.490736
 31
0.0
 11
27.066750
 21
13.669390
 31
0.0
 11
27.399966
 21
13.906868
 31
0.0
 11
27.715830
 21
14.175264
 31
0.0
 11
27.994002
 21
14.446674
 31
0.0
 11
28.234466
 21
14.721098
 31
0.0
 11
28.455372
 21
15.009805
 31
0.0
 11
28.674755
 21
15.324181
 31
0.0
 11
28.892647
 21
15.664177
 31
0.0
 11
29.085618
 21
15.981547
 31
0.0
 11
29.230365
 21
16.228072
 31
0.0
 11
29.326888
 21
16.403735
 31
0.0
 11
29.394722
 21
16.538684
 31
0.0
 11
29.453531
 21
16.663067
 31
0.0
 11
29.503282
 21
16.776868
 31
0.0
  0
SPLINE
  5
16f
100
AcDbEntity
  8
0
 62
7
100
AcDbSpline
 70
0
 71
3
 72
10
 73
6
 74
4
 40
0.000000
 40
0.000000
 40
0.000000
 40
0.000000
 40
0.592671
 40
1.158958
 40
1.772847
 40
1.772847
 40
1.772847
 40
1.772847
 10
27.549234
 20
17.550334
 30
0.0
 10
27.438184
 20
17.384850
 30
0.0
 10
27.221028
 20
17.061249
 30
0.0
 10
26.694477
 20
16.745183
 30
0.0
 10
26.301603
 20
16.694650
 30
0.0
 10
26.097243
 20
16.668364
 30
0.0
 11
27.549234
 21
17.550334
 31
0.0
 11
27.182856
 21
17.084474
 31
0.0
 11
26.698864
 21
16.790478
 31
0.0
 11
26.097243
 21
16.668364
 31
0.0
  0
SPLINE
  5
170
100
AcDbEntity
  8
0
 62
7
100
AcDbSpline
 70
0
 71
3
 72
10
 73
6
 74
4
 40
0.000000
 40
0.000000
 40
0.000000
 40
0.000000
 40
0.133548
 40
0.267110
 40
0.400678
 40
0.400678
 40
0.400678
 40
0.400678
 10
26.097243
 20
16.668364
 30
0.0
 10
26.118362
 20
16.707552
 30
0.0
 10
26.160601
 20
16.785931
 30
0.0
 10
26.223907
 20
16.903534
 30
0.0
 10
26.266102
 20
16.981945
 30
0.0
 10
26.287200
 20
17.021152
 30
0.0
 11
26.097243
 21
16.668364
 31
0.0
 11
26.160590
 21
16.785932
 31
0.0
 11
26.223903
 21
16.903534
 31
0.0
 11
26.287200
 21
17.021152
 31
0.0
  0
SPLINE
  5
171
100
AcDbEntity
  8
0
 62
7
100
AcDbSpline
 70
0
 71
3
 72
19
 73
15
 74
13
 40
0.000000
 40
0.000000
 40
0.000000
 40
0.000000
 40
0.423542
 40
0.794893
 40
1.115215
 40
1.372769
 40
1.555109
 40
1.663437
 40
1.728861
 40
1.780427
 40
1.821146
 40
1.876627
 40
1.928225
 40
1.977454
 40
1.977454
 40
1.977454
 40
1.977454
 10
26.287200
 20
17.021152
 30
0.0
 10
26.359424
 20
17.142477
 30
0.0
 10
26.494971
 20
17.370177
 30
0.0
 10
26.702347
 20
17.679031
 30
0.0
 10
26.895982
 20
17.929519
 30
0.0
 10
27.062566
 20
18.120725
 30
0.0
 10
27.187357
 20
18.253963
 30
0.0
 10
27.277033
 20
18.333026
 30
0.0
 10
27.345619
 20
18.365994
 30
0.0
 10
27.395246
 20
18.380662
 30
0.0
 10
27.448435
 20
18.383961
 30
0.0
 10
27.480486
 20
18.340060
 30
0.0
 10
27.514578
 20
18.301928
 30
0.0
 10
27.528751
 20
18.271058
 30
0.0
 10
27.535671
 20
18.255985
 30
0.0
 11
26.287200
 21
17.021152
 31
0.0
 11
26.507353
 21
17.382982
 31
0.0
 11
26.715433
 21
17.690560
 31
0.0
 11
26.911473
 21
17.943886
 31
0.0
 11
27.080330
 21
18.138364
 31
0.0
 11
27.206973
 21
18.269548
 31
0.0
 11
27.291387
 21
18.337438
 31
0.0
 11
27.350213
 21
18.366071
 31
0.0
 11
27.399964
 21
18.379634
 31
0.0
 11
27.440655
 21
18.378127
 31
0.0
 11
27.481364
 21
18.340433
 31
0.0
 11
27.513047
 21
18.299708
 31
0.0
 11
27.535671
 21
18.255985
 31
0.0
  0
LWPOLYLINE
  5
172
100
AcDbEntity
  8
0
 62
7
100
AcDbPolyline
 90
1
 70
1
 10
29.503282
 20
16.776868
 30
0.0
  0
SPLINE
  5
173
100
AcDbEntity
  8
0
 62
7
100
AcDbSpline
 70
0
 71
3
 72
10
 73
6
 74
4
 40
0.000000
 40
0.000000
 40
0.000000
 40
0.000000
 40
0.252566
 40
0.487815
 40
0.737230
 40
0.737230
 40
0.737230
 40
0.737230
 10
27.535671
 20
18.255985
 30
0.0
 10
27.572340
 20
18.179481
 30
0.0
 10
27.643162
 20
18.031720
 30
0.0
 10
27.648559
 20
17.776206
 30
0.0
 10
27.582982
 20
17.627077
 30
0.0
 10
27.549234
 20
17.550334
 30
0.0
 11
27.535671
 21
18.255985
 31
0.0
 11
27.627649
 21
18.020762
 31
0.0
 11
27.632170
 21
17.785556
 31
0.0
 11
27.549234
 21
17.550334
 31
0.0
  0
LWPOLYLINE
  5
174
100
AcDbEntity
  8
0
 62
7
100
AcDbPolyline
 90
1
 70
1
 10
27.549234
 20
17.550334
 30
0.0
  0
SPLINE
  5
175
100
AcDbEntity
  8
0
 62
7
100
AcDbSpline
 70
0
 71
3
 72
10
 73
6
 74
4
 40
0.000000
 40
0.000000
 40
0.000000
 40
0.000000
 40
0.245814
 40
0.512098
 40
0.815288
 40
0.815288
 40
0.815288
 40
0.815288
 10
37.305908
 20
18.174532
 30
0.0
 10
37.242522
 20
18.227245
 30
0.0
 10
37.110472
 20
18.337061
 30
0.0
 10
36.849181
 20
18.429981
 30
0.0
 10
36.660189
 20
18.449248
 30
0.0
 10
36.559568
 20
18.459505
 30
0.0
 11
37.305908
 21
18.174532
 31
0.0
 11
37.108361
 21
18.320817
 31
0.0
 11
36.859592
 21
18.415796
 31
0.0
 11
36.559568
 21
18.459505
 31
0.0
  0
SPLINE
  5
176
100
AcDbEntity
  8
0
 62
7
100
AcDbSpline
 70
0
 71
3
 72
10
 73
6
 74
4
 40
0.000000
 40
0.000000
 40
0.000000
 40
0.000000
 40
0.120732
 40
0.230135
 40
0.341656
 40
0.341656
 40
0.341656
 40
0.341656
 10
35.080451
 20
18.391690
 30
0.0
 10
35.060322
 20
18.356594
 30
0.0
 10
35.021952
 20
18.289695
 30
0.0
 10
35.005944
 20
18.172642
 30
0.0
 10
35.028418
 20
18.101792
 30
0.0
 10
35.039762
 20
18.066028
 30
0.0
 11
35.080451
 21
18.391690
 31
0.0
 11
35.027656
 21
18.283114
 31
0.0
 11
35.014093
 21
18.174554
 31
0.0
 11
35.039762
 21
18.066028
 31
0.0
  0
LWPOLYLINE
  5
177
100
AcDbEntity
  8
0
 62
7
100
AcDbPolyline
 90
3
 70
0
 10
36.559568
 20
18.459505
 30
0.0
 10
35.148266
 20
18.459505
 30
0.0
 10
35.080451
 20
18.391690
 30
0.0
  0
SPLINE
  5
178
100
AcDbEntity
  8
0
 62
7
100
AcDbSpline
 70
0
 71
3
 72
10
 73
6
 74
4
 40
0.000000
 40
0.000000
 40
0.000000
 40
0.000000
 40
0.138017
 40
0.291856
 40
0.484477
 40
0.484477
 40
0.484477
 40
0.484477
 10
35.039762
 20
18.066028
 30
0.0
 10
35.066534
 20
18.027542
 30
0.0
 10
35.123147
 20
17.946157
 30
0.0
 10
35.281104
 20
17.884670
 30
0.0
 10
35.396313
 20
17.879144
 30
0.0
 10
35.460365
 20
17.876071
 30
0.0
 11
35.039762
 21
18.066028
 31
0.0
 11
35.128697
 21
17.960485
 31
0.0
 11
35.268904
 21
17.897172
 31
0.0
 11
35.460365
 21
17.876071
 31
0.0
  0
LWPOLYLINE
  5
179
100
AcDbEntity
  8
0
 62
7
100
AcDbPolyline
 90
2
 70
0
 10
35.460365
 20
17.876071
 30
0.0
 10
35.691086
 20
17.876071
 30
0.0
  0
SPLINE
  5
17a
100
AcDbEntity
  8
0
 62
7
100
AcDbSpline
 70
0
 71
3
 72
10
 73
6
 74
4
 40
0.000000
 40
0.000000
 40
0.000000
 40
0.000000
 40
0.188835
 40
0.338103
 40
0.448848
 40
0.448848
 40
0.448848
 40
0.448848
 10
35.691086
 20
17.876071
 30
0.0
 10
35.753832
 20
17.880702
 30
0.0
 10
35.866178
 20
17.888992
 30
0.0
 10
36.016219
 20
17.892188
 30
0.0
 10
36.102248
 20
17.880885
 30
0.0
 10
36.138890
 20
17.876071
 30
0.0
 11
35.691086
 21
17.876071
 31
0.0
 11
35.879536
 21
17.888127
 31
0.0
 11
36.028804
 21
17.888127
 31
0.0
 11
36.138890
 21
17.876071
 31
0.0
  0
SPLINE
  5
17b
100
AcDbEntity
  8
0
 62
7
100
AcDbSpline
 70
0
 71
3
 72
28
 73
24
 74
22
 40
0.000000
 40
0.000000
 40
0.000000
 40
0.000000
 40
0.442084
 40
0.786134
 40
1.071150
 40
1.431098
 40
1.901220
 40
2.526480
 40
3.276258
 40
4.111056
 40
5.038270
 40
5.663501
 40
6.258958
 40
6.826765
 40
7.350510
 40
7.813528
 40
8.218654
 40
8.571586
 40
8.875497
 40
9.131020
 40
9.354801
 40
9.563064
 40
9.756478
 40
9.756478
 40
9.756478
 40
9.756478
 10
35.080451
 20
14.347890
 30
0.0
 10
34.941815
 20
14.296797
 30
0.0
 10
34.695285
 20
14.205941
 30
0.0
 10
34.332358
 20
14.177452
 30
0.0
 10
34.008472
 20
14.294564
 30
0.0
 10
33.786075
 20
14.617040
 30
0.0
 10
33.684079
 20
15.095884
 30
0.0
 10
33.677542
 20
15.713435
 30
0.0
 10
33.759756
 20
16.446803
 30
0.0
 10
33.938996
 20
17.265936
 30
0.0
 10
34.172379
 20
18.027459
 30
0.0
 10
34.421410
 20
18.699017
 30
0.0
 10
34.660711
 20
19.245474
 30
0.0
 10
34.919164
 20
19.745350
 30
0.0
 10
35.185056
 20
20.190411
 30
0.0
 10
35.447509
 20
20.573670
 30
0.0
 10
35.709796
 20
20.885737
 30
0.0
 10
35.957458
 20
21.138811
 30
0.0
 10
36.175613
 20
21.350798
 30
0.0
 10
36.373271
 20
21.521674
 30
0.0
 10
36.555965
 20
21.660172
 30
0.0
 10
36.727360
 20
21.779177
 30
0.0
 10
36.843075
 20
21.846628
 30
0.0
 10
36.898793
 20
21.879107
 30
0.0
 11
35.080451
 21
14.347890
 31
0.0
 11
34.658271
 21
14.216731
 31
0.0
 11
34.314489
 21
14.203168
 31
0.0
 11
34.049138
 21
14.307201
 31
0.0
 11
33.828240
 21
14.591396
 31
0.0
 11
33.708378
 21
15.045981
 31
0.0
 11
33.689568
 21
15.670958
 31
0.0
 11
33.768711
 21
16.416548
 31
0.0
 11
33.942844
 21
17.232983
 31
0.0
 11
34.211969
 21
18.120280
 31
0.0
 11
34.430581
 21
18.706047
 31
0.0
 11
34.670325
 21
19.251108
 31
0.0
 11
34.931183
 21
19.755447
 31
0.0
 11
35.200313
 21
20.204755
 31
0.0
 11
35.464905
 21
20.584725
 31
0.0
 11
35.724994
 21
20.895339
 31
0.0
 11
35.970009
 21
21.149363
 31
0.0
 11
36.189372
 21
21.359701
 31
0.0
 11
36.383099
 21
21.526319
 31
0.0
 11
36.561053
 21
21.662004
 31
0.0
 11
36.732946
 21
21.779589
 31
0.0
 11
36.898793
 21
21.879107
 31
0.0
  0
SPLINE
  5
17c
100
AcDbEntity
  8
0
 62
7
100
AcDbSpline
 70
0
 71
3
 72
10
 73
6
 74
4
 40
0.000000
 40
0.000000
 40
0.000000
 40
0.000000
 40
0.630659
 40
1.441375
 40
2.444196
 40
2.444196
 40
2.444196
 40
2.444196
 10
36.898793
 20
21.879107
 30
0.0
 10
36.912794
 20
21.668889
 30
0.0
 10
36.944793
 20
21.188437
 30
0.0
 10
36.827188
 20
20.377239
 30
0.0
 10
36.689794
 20
19.788979
 30
0.0
 10
36.613820
 20
19.463692
 30
0.0
 11
36.898793
 21
21.879107
 31
0.0
 11
36.921393
 21
21.248853
 31
0.0
 11
36.826413
 21
20.443720
 31
0.0
 11
36.613820
 21
19.463692
 31
0.0
  0
SPLINE
  5
17d
100
AcDbEntity
  8
0
 62
7
100
AcDbSpline
 70
0
 71
3
 72
19
 73
15
 74
13
 40
0.000000
 40
0.000000
 40
0.000000
 40
0.000000
 40
0.053666
 40
0.103893
 40
0.156142
 40
0.209121
 40
0.258944
 40
0.307521
 40
0.369354
 40
0.426310
 40
0.483347
 40
0.539030
 40
0.591091
 40
0.644003
 40
0.644003
 40
0.644003
 40
0.644003
 10
36.613820
 20
19.463692
 30
0.0
 10
36.609337
 20
19.446233
 30
0.0
 10
36.600657
 20
19.412433
 30
0.0
 10
36.608201
 20
19.359459
 30
0.0
 10
36.632780
 20
19.313133
 30
0.0
 10
36.666263
 20
19.273344
 30
0.0
 10
36.705311
 20
19.241145
 30
0.0
 10
36.752512
 20
19.214597
 30
0.0
 10
36.809006
 20
19.207341
 30
0.0
 10
36.867952
 20
19.213297
 30
0.0
 10
36.920076
 20
19.237659
 30
0.0
 10
36.962962
 20
19.272590
 30
0.0
 10
36.994739
 20
19.317169
 30
0.0
 10
37.003138
 20
19.351415
 30
0.0
 10
37.007372
 20
19.368676
 30
0.0
 11
36.613820
 21
19.463692
 31
0.0
 11
36.604025
 21
19.410928
 31
0.0
 11
36.610806
 21
19.361161
 31
0.0
 11
36.634165
 21
19.314424
 31
0.0
 11
36.668092
 21
19.273733
 31
0.0
 11
36.706556
 21
19.242066
 31
0.0
 11
36.749525
 21
19.219408
 31
0.0
 11
36.810578
 21
19.209615
 31
0.0
 11
36.867127
 21
19.216416
 31
0.0
 11
36.919138
 21
19.239828
 31
0.0
 11
36.962107
 21
19.275242
 31
0.0
 11
36.991529
 21
19.318192
 31
0.0
 11
37.007372
 21
19.368676
 31
0.0
  0
SPLINE
  5
17e
100
AcDbEntity
  8
0
 62
7
100
AcDbSpline
 70
0
 71
3
 72
10
 73
6
 74
4
 40
0.000000
 40
0.000000
 40
0.000000
 40
0.000000
 40
1.423812
 40
2.451241
 40
3.136644
 40
3.136644
 40
3.136644
 40
3.136644
 10
37.007372
 20
19.368676
 30
0.0
 10
37.106318
 20
19.830103
 30
0.0
 10
37.276663
 20
20.624497
 30
0.0
 10
37.398015
 20
21.691968
 30
0.0
 10
37.196510
 20
22.232682
 30
0.0
 10
37.115876
 20
22.449053
 30
0.0
 11
37.007372
 21
19.368676
 31
0.0
 11
37.278732
 21
20.766391
 31
0.0
 11
37.314900
 21
21.793183
 31
0.0
 11
37.115876
 21
22.449053
 31
0.0
  0
SPLINE
  5
17f
100
AcDbEntity
  8
0
 62
7
100
AcDbSpline
 70
0
 71
3
 72
13
 73
9
 74
7
 40
0.000000
 40
0.000000
 40
0.000000
 40
0.000000
 40
0.389190
 40
0.769486
 40
1.182927
 40
2.000268
 40
2.967545
 40
4.179856
 40
4.179856
 40
4.179856
 40
4.179856
 10
37.115876
 20
22.449053
 30
0.0
 10
37.032050
 20
22.549746
 30
0.0
 10
36.866313
 20
22.748831
 30
0.0
 10
36.501007
 20
22.924766
 30
0.0
 10
35.963889
 20
23.000949
 30
0.0
 10
35.225632
 20
22.833016
 30
0.0
 10
34.391686
 20
22.250663
 30
0.0
 10
33.927393
 20
21.689292
 30
0.0
 10
33.669148
 20
21.377051
 30
0.0
 11
37.115876
 21
22.449053
 31
0.0
 11
36.846007
 21
22.729480
 31
0.0
 11
36.506765
 21
22.901353
 31
0.0
 11
36.098201
 21
22.964672
 31
0.0
 11
35.297553
 21
22.800331
 31
0.0
 11
34.487880
 21
22.271130
 31
0.0
 11
33.669148
 21
21.377051
 31
0.0
  0
SPLINE
  5
180
100
AcDbEntity
  8
0
 62
7
100
AcDbSpline
 70
0
 71
3
 72
13
 73
9
 74
7
 40
0.000000
 40
0.000000
 40
0.000000
 40
0.000000
 40
0.506488
 40
1.088838
 40
1.750734
 40
2.450198
 40
3.144707
 40
3.836414
 40
3.836414
 40
3.836414
 40
3.836414
 10
33.669148
 20
21.377051
 30
0.0
 10
33.570225
 20
21.240074
 30
0.0
 10
33.357561
 20
20.945604
 30
0.0
 10
33.075683
 20
20.433267
 30
0.0
 10
32.796657
 20
19.848405
 30
0.0
 10
32.536496
 20
19.214052
 30
0.0
 10
32.305371
 20
18.557815
 30
0.0
 10
32.183185
 20
18.112061
 30
0.0
 10
32.122216
 20
17.889634
 30
0.0
 11
33.669148
 21
21.377051
 31
0.0
 11
33.380461
 21
20.960891
 31
0.0
 11
33.093247
 21
20.454294
 31
0.0
 11
32.807523
 21
19.857245
 31
0.0
 11
32.541390
 21
19.210388
 31
0.0
 11
32.312949
 21
18.554524
 31
0.0
 11
32.122216
 21
17.889634
 31
0.0
  0
SPLINE
  5
181
100
AcDbEntity
  8
0
 62
7
100
AcDbSpline
 70
0
 71
3
 72
16
 73
12
 74
10
 40
0.000000
 40
0.000000
 40
0.000000
 40
0.000000
 40
1.590571
 40
2.834465
 40
3.811405
 40
4.358764
 40
4.894927
 40
5.493281
 40
5.645593
 40
5.795135
 40
5.942163
 40
5.942163
 40
5.942163
 40
5.942163
 10
32.122216
 20
17.889634
 30
0.0
 10
31.999471
 20
17.372780
 30
0.0
 10
31.780733
 20
16.451724
 30
0.0
 10
31.745629
 20
15.170571
 30
0.0
 10
32.004093
 20
14.257378
 30
0.0
 10
32.453203
 20
13.716754
 30
0.0
 10
32.965230
 20
13.454864
 30
0.0
 10
33.398663
 20
13.406728
 30
0.0
 10
33.698441
 20
13.413728
 30
0.0
 10
33.847924
 20
13.422225
 30
0.0
 10
33.946176
 20
13.433252
 30
0.0
 10
33.994886
 20
13.438719
 30
0.0
 11
32.122216
 21
17.889634
 31
0.0
 11
31.814638
 21
16.329086
 31
0.0
 11
31.814638
 21
15.085191
 31
0.0
 11
32.122216
 21
14.157933
 31
0.0
 11
32.479553
 21
13.743311
 31
0.0
 11
32.954503
 21
13.494525
 31
0.0
 11
33.547082
 21
13.411593
 31
0.0
 11
33.699364
 21
13.414607
 31
0.0
 11
33.848632
 21
13.423649
 31
0.0
 11
33.994886
 21
13.438719
 31
0.0
  0
SPLINE
  5
182
100
AcDbEntity
  8
0
 62
7
100
AcDbSpline
 70
0
 71
3
 72
10
 73
6
 74
4
 40
0.000000
 40
0.000000
 40
0.000000
 40
0.000000
 40
0.398037
 40
0.807127
 40
1.231186
 40
1.231186
 40
1.231186
 40
1.231186
 10
33.994886
 20
13.438719
 30
0.0
 10
34.125176
 20
13.464230
 30
0.0
 10
34.389374
 20
13.515962
 30
0.0
 10
34.780493
 20
13.644524
 30
0.0
 10
35.033203
 20
13.759956
 30
0.0
 10
35.161829
 20
13.818708
 30
0.0
 11
33.994886
 21
13.438719
 31
0.0
 11
34.383861
 21
13.523170
 31
0.0
 11
34.772853
 21
13.649816
 31
0.0
 11
35.161829
 21
13.818708
 31
0.0
  0
LWPOLYLINE
  5
183
100
AcDbEntity
  8
0
 62
7
100
AcDbPolyline
 90
2
 70
0
 10
36.138890
 20
17.876071
 30
0.0
 10
35.080451
 20
14.347890
 30
0.0
  0
SPLINE
  5
184
100
AcDbEntity
  8
0
 62
7
100
AcDbSpline
 70
0
 71
3
 72
13
 73
9
 74
7
 40
0.000000
 40
0.000000
 40
0.000000
 40
0.000000
 40
0.014934
 40
0.034155
 40
0.057649
 40
0.348628
 40
0.686201
 40
1.096267
 40
1.096267
 40
1.096267
 40
1.096267
 10
35.161829
 20
13.818708
 30
0.0
 10
35.165346
 20
13.815185
 30
0.0
 10
35.173388
 20
13.807127
 30
0.0
 10
35.186977
 20
13.793538
 30
0.0
 10
35.265371
 20
13.714683
 30
0.0
 10
35.441260
 20
13.579894
 30
0.0
 10
35.779926
 20
13.481166
 30
0.0
 10
36.029261
 20
13.471272
 30
0.0
 10
36.166016
 20
13.465845
 30
0.0
 11
35.161829
 21
13.818708
 31
0.0
 11
35.172381
 21
13.808140
 31
0.0
 11
35.185963
 21
13.794541
 31
0.0
 11
35.202593
 21
13.777944
 31
0.0
 11
35.436278
 21
13.604567
 31
0.0
 11
35.757419
 21
13.500528
 31
0.0
 11
36.166016
 21
13.465845
 31
0.0
  0
LWPOLYLINE
  5
185
100
AcDbEntity
  8
0
 62
7
100
AcDbPolyline
 90
3
 70
0
 10
36.166016
 20
13.465845
 30
0.0
 10
36.315284
 20
13.465845
 30
0.0
 10
36.355973
 20
13.601550
 30
0.0
  0
SPLINE
  5
186
100
AcDbEntity
  8
0
 62
7
100
AcDbSpline
 70
0
 71
3
 72
28
 73
24
 74
22
 40
0.000000
 40
0.000000
 40
0.000000
 40
0.000000
 40
0.276205
 40
0.560473
 40
0.852817
 40
1.142234
 40
1.417773
 40
1.679460
 40
1.932027
 40
2.180294
 40
2.424260
 40
2.658142
 40
2.876312
 40
3.078729
 40
3.264451
 40
3.432557
 40
3.583042
 40
3.715409
 40
3.829152
 40
3.924254
 40
3.995788
 40
4.038696
 40
4.052995
 40
4.052995
 40
4.052995
 40
4.052995
 10
36.355973
 20
13.601550
 30
0.0
 10
36.380549
 20
13.690278
 30
0.0
 10
36.430419
 20
13.870323
 30
0.0
 10
36.507366
 20
14.143984
 30
0.0
 10
36.586308
 20
14.421658
 30
0.0
 10
36.665150
 20
14.696333
 30
0.0
 10
36.742057
 20
14.960931
 30
0.0
 10
36.816276
 20
15.213518
 30
0.0
 10
36.889121
 20
15.457030
 30
0.0
 10
36.961443
 20
15.694531
 30
0.0
 10
37.033377
 20
15.925634
 30
0.0
 10
37.103012
 20
16.146943
 30
0.0
 10
37.168541
 20
16.355025
 30
0.0
 10
37.229598
 20
16.547685
 30
0.0
 10
37.285388
 20
16.724507
 30
0.0
 10
37.335247
 20
16.885049
 30
0.0
 10
37.378779
 20
17.028927
 30
0.0
 10
37.416948
 20
17.155496
 30
0.0
 10
37.450803
 20
17.264081
 30
0.0
 10
37.479725
 20
17.352955
 30
0.0
 10
37.501904
 20
17.419188
 30
0.0
 10
37.515454
 20
17.459906
 30
0.0
 10
37.521484
 20
17.477997
 30
0.0
 10
37.522991
 20
17.482519
 30
0.0
 11
36.355973
 21
13.601550
 31
0.0
 11
36.429872
 21
13.867686
 31
0.0
 11
36.506768
 21
14.141356
 31
0.0
 11
36.586694
 21
14.422562
 31
0.0
 11
36.666585
 21
14.700734
 31
0.0
 11
36.743478
 21
14.965326
 31
0.0
 11
36.817340
 21
15.216373
 31
0.0
 11
36.889732
 21
15.458343
 31
0.0
 11
36.962107
 21
15.695826
 31
0.0
 11
37.034498
 21
15.928805
 31
0.0
 11
37.104593
 21
16.151936
 31
0.0
 11
37.170184
 21
16.360013
 31
0.0
 11
37.231237
 21
16.553003
 31
0.0
 11
37.287015
 21
16.730151
 31
0.0
 11
37.336782
 21
16.890721
 31
0.0
 11
37.380505
 21
17.034715
 31
0.0
 11
37.418953
 21
17.161375
 31
0.0
 11
37.452896
 21
17.269935
 31
0.0
 11
37.482302
 21
17.360377
 31
0.0
 11
37.504907
 21
17.428245
 31
0.0
 11
37.518470
 21
17.468953
 31
0.0
 11
37.522991
 21
17.482519
 31
0.0
  0
LWPOLYLINE
  5
187
100
AcDbEntity
  8
0
 62
7
100
AcDbPolyline
 90
2
 70
0
 10
37.522991
 20
17.482519
 30
0.0
 10
37.522991
 20
17.523208
 30
0.0
  0
SPLINE
  5
188
100
AcDbEntity
  8
0
 62
7
100
AcDbSpline
 70
0
 71
3
 72
10
 73
6
 74
4
 40
0.000000
 40
0.000000
 40
0.000000
 40
0.000000
 40
0.253376
 40
0.482218
 40
0.710183
 40
0.710183
 40
0.710183
 40
0.710183
 10
37.522991
 20
17.523208
 30
0.0
 10
37.526152
 20
17.607930
 30
0.0
 10
37.532167
 20
17.769170
 30
0.0
 10
37.458278
 20
18.002040
 30
0.0
 10
37.356633
 20
18.117108
 30
0.0
 10
37.305908
 20
18.174532
 30
0.0
 11
37.522991
 21
17.523208
 31
0.0
 11
37.516961
 21
17.776512
 31
0.0
 11
37.444605
 21
17.993614
 31
0.0
 11
37.305908
 21
18.174532
 31
0.0
  0
SPLINE
  5
189
100
AcDbEntity
  8
0
 62
7
100
AcDbSpline
 70
0
 71
3
 72
16
 73
12
 74
10
 40
0.000000
 40
0.000000
 40
0.000000
 40
0.000000
 40
0.047017
 40
0.135721
 40
0.266615
 40
0.443296
 40
0.671054
 40
0.951242
 40
1.255394
 40
1.557982
 40
1.863580
 40
1.863580
 40
1.863580
 40
1.863580
 10
41.933142
 20
17.007589
 30
0.0
 10
41.930218
 20
16.992166
 30
0.0
 10
41.921777
 20
16.947646
 30
0.0
 10
41.888456
 20
16.864823
 30
0.0
 10
41.841487
 20
16.741492
 30
0.0
 10
41.759475
 20
16.582392
 30
0.0
 10
41.634516
 20
16.391269
 30
0.0
 10
41.476819
 20
16.171092
 30
0.0
 10
41.285338
 20
15.945191
 30
0.0
 10
41.060297
 20
15.738777
 30
0.0
 10
40.891636
 20
15.625885
 30
0.0
 10
40.806888
 20
15.569160
 30
0.0
 11
41.933142
 21
17.007589
 31
0.0
 11
41.923347
 21
16.961603
 31
0.0
 11
41.893960
 21
16.877909
 31
0.0
 11
41.844983
 21
16.756523
 31
0.0
 11
41.765037
 21
16.598964
 31
0.0
 11
41.642895
 21
16.406727
 31
0.0
 11
41.478557
 21
16.179796
 31
0.0
 11
41.280308
 21
15.949130
 31
0.0
 11
41.056424
 21
15.745574
 31
0.0
 11
40.806888
 21
15.569160
 31
0.0
  0
SPLINE
  5
18a
100
AcDbEntity
  8
0
 62
7
100
AcDbSpline
 70
0
 71
3
 72
13
 73
9
 74
7
 40
0.000000
 40
0.000000
 40
0.000000
 40
0.000000
 40
0.264069
 40
0.451718
 40
0.588133
 40
0.607782
 40
0.626963
 40
0.646612
 40
0.646612
 40
0.646612
 40
0.646612
 10
40.806888
 20
15.569160
 30
0.0
 10
40.732664
 20
15.522385
 30
0.0
 10
40.605695
 20
15.442370
 30
0.0
 10
40.415546
 20
15.373110
 30
0.0
 10
40.297400
 20
15.399605
 30
0.0
 10
40.247163
 20
15.429701
 30
0.0
 10
40.233118
 20
15.443624
 30
0.0
 10
40.226651
 20
15.454884
 30
0.0
 10
40.223379
 20
15.460581
 30
0.0
 11
40.806888
 21
15.569160
 31
0.0
 11
40.577696
 21
15.437999
 31
0.0
 11
40.396762
 21
15.388248
 31
0.0
 11
40.264068
 21
15.419892
 31
0.0
 11
40.247491
 21
15.430441
 31
0.0
 11
40.233928
 21
15.444004
 31
0.0
 11
40.223379
 21
15.460581
 31
0.0
  0
LWPOLYLINE
  5
18b
100
AcDbEntity
  8
0
 62
7
100
AcDbPolyline
 90
1
 70
1
 10
37.305908
 20
18.174532
 30
0.0
  0
SPLINE
  5
18c
100
AcDbEntity
  8
0
 62
7
100
AcDbSpline
 70
0
 71
3
 72
19
 73
15
 74
13
 40
0.000000
 40
0.000000
 40
0.000000
 40
0.000000
 40
0.078230
 40
0.151067
 40
0.218556
 40
0.279626
 40
0.333391
 40
0.379889
 40
0.416135
 40
0.439408
 40
0.451322
 40
0.506197
 40
0.573447
 40
0.653069
 40
0.653069
 40
0.653069
 40
0.653069
 10
40.223379
 20
15.460581
 30
0.0
 10
40.234982
 20
15.483935
 30
0.0
 10
40.257388
 20
15.529031
 30
0.0
 10
40.289022
 20
15.594660
 30
0.0
 10
40.317709
 20
15.655348
 30
0.0
 10
40.342505
 20
15.710869
 30
0.0
 10
40.363263
 20
15.760396
 30
0.0
 10
40.378019
 20
15.803788
 30
0.0
 10
40.390702
 20
15.835931
 30
0.0
 10
40.399196
 20
15.859874
 30
0.0
 10
40.427420
 20
15.873876
 30
0.0
 10
40.430263
 20
15.926247
 30
0.0
 10
40.458509
 20
15.984965
 30
0.0
 10
40.473240
 20
16.032100
 30
0.0
 10
40.481226
 20
16.057653
 30
0.0
 11
40.223379
 21
15.460581
 31
0.0
 11
40.258043
 21
15.530713
 31
0.0
 11
40.289709
 21
15.596306
 31
0.0
 11
40.318395
 21
15.657395
 31
0.0
 11
40.343261
 21
15.713174
 31
0.0
 11
40.363605
 21
15.762941
 31
0.0
 11
40.379428
 21
15.806663
 31
0.0
 11
40.392238
 21
15.840571
 31
0.0
 11
40.403540
 21
15.860915
 31
0.0
 11
40.413336
 21
15.867697
 31
0.0
 11
40.432930
 21
15.918954
 31
0.0
 11
40.455554
 21
15.982284
 31
0.0
 11
40.481226
 21
16.057653
 31
0.0
  0
SPLINE
  5
18d
100
AcDbEntity
  8
0
 62
7
100
AcDbSpline
 70
0
 71
3
 72
10
 73
6
 74
4
 40
0.000000
 40
0.000000
 40
0.000000
 40
0.000000
 40
0.025312
 40
0.043972
 40
0.056125
 40
0.056125
 40
0.056125
 40
0.056125
 10
40.494789
 20
16.057653
 30
0.0
 10
40.497352
 20
16.065685
 30
0.0
 10
40.501803
 20
16.079638
 30
0.0
 10
40.506898
 20
16.097713
 30
0.0
 10
40.507941
 20
16.107945
 30
0.0
 10
40.508352
 20
16.111981
 30
0.0
 11
40.494789
 21
16.057653
 31
0.0
 11
40.502324
 21
16.081818
 31
0.0
 11
40.506845
 21
16.099922
 31
0.0
 11
40.508352
 21
16.111981
 31
0.0
  0
SPLINE
  5
18e
100
AcDbEntity
  8
0
 62
7
100
AcDbSpline
 70
0
 71
3
 72
10
 73
6
 74
4
 40
0.000000
 40
0.000000
 40
0.000000
 40
0.000000
 40
1.062817
 40
1.861810
 40
2.443476
 40
2.443476
 40
2.443476
 40
2.443476
 10
40.508352
 20
16.111981
 30
0.0
 10
40.625238
 20
16.444766
 30
0.0
 10
40.829995
 20
17.027729
 30
0.0
 10
40.998077
 20
17.846532
 30
0.0
 10
40.882645
 20
18.296948
 30
0.0
 10
40.834014
 20
18.486706
 30
0.0
 11
40.508352
 21
16.111981
 31
0.0
 11
40.834020
 21
17.123672
 31
0.0
 11
40.942562
 21
17.915259
 31
0.0
 11
40.834014
 21
18.486706
 31
0.0
  0
SPLINE
  5
18f
100
AcDbEntity
  8
0
 62
7
100
AcDbSpline
 70
0
 71
3
 72
13
 73
9
 74
7
 40
0.000000
 40
0.000000
 40
0.000000
 40
0.000000
 40
0.188268
 40
0.367827
 40
0.555531
 40
1.147288
 40
1.752852
 40
2.440115
 40
2.440115
 40
2.440115
 40
2.440115
 10
40.834014
 20
18.486706
 30
0.0
 10
40.804078
 20
18.542324
 30
0.0
 10
40.745591
 20
18.650985
 30
0.0
 10
40.601266
 20
18.774526
 30
0.0
 10
40.302120
 20
18.893924
 30
0.0
 10
39.831577
 20
18.939947
 30
0.0
 10
39.208093
 20
18.785665
 30
0.0
 10
38.852119
 20
18.537289
 30
0.0
 10
38.662884
 20
18.405253
 30
0.0
 11
40.834014
 21
18.486706
 31
0.0
 11
40.734494
 21
18.646520
 31
0.0
 11
40.598805
 21
18.764122
 31
0.0
 11
40.426899
 21
18.839494
 31
0.0
 11
39.838872
 21
18.905827
 31
0.0
 11
39.250861
 21
18.761080
 31
0.0
 11
38.662884
 21
18.405253
 31
0.0
  0
SPLINE
  5
190
100
AcDbEntity
  8
0
 62
7
100
AcDbSpline
 70
0
 71
3
 72
10
 73
6
 74
4
 40
0.000000
 40
0.000000
 40
0.000000
 40
0.000000
 40
0.860404
 40
1.804516
 40
2.873049
 40
2.873049
 40
2.873049
 40
2.873049
 10
38.662884
 20
18.405253
 30
0.0
 10
38.451012
 20
18.210116
 30
0.0
 10
38.006657
 20
17.800856
 30
0.0
 10
37.516131
 20
16.962099
 30
0.0
 10
37.299029
 20
16.327013
 30
0.0
 10
37.183766
 20
15.989839
 30
0.0
 11
38.662884
 21
18.405253
 31
0.0
 11
38.058249
 21
17.793117
 31
0.0
 11
37.565215
 21
16.987967
 31
0.0
 11
37.183766
 21
15.989839
 31
0.0
  0
SPLINE
  5
191
100
AcDbEntity
  8
0
 62
7
100
AcDbSpline
 70
0
 71
3
 72
19
 73
15
 74
13
 40
0.000000
 40
0.000000
 40
0.000000
 40
0.000000
 40
0.611847
 40
1.153329
 40
1.634842
 40
2.052810
 40
2.411308
 40
2.744764
 40
2.900536
 40
3.055259
 40
3.214151
 40
3.602840
 40
4.039798
 40
4.555619
 40
4.555619
 40
4.555619
 40
4.555619
 10
37.183766
 20
15.989839
 30
0.0
 10
37.131936
 20
15.792382
 30
0.0
 10
37.034237
 20
15.420177
 30
0.0
 10
36.972655
 20
14.876498
 30
0.0
 10
36.990474
 20
14.394491
 30
0.0
 10
37.084664
 20
13.982387
 30
0.0
 10
37.262731
 20
13.650991
 30
0.0
 10
37.480943
 20
13.460957
 30
0.0
 10
37.674678
 20
13.366449
 30
0.0
 10
37.826630
 20
13.325127
 30
0.0
 10
38.061046
 20
13.306227
 30
0.0
 10
38.389973
 20
13.368687
 30
0.0
 10
38.790459
 20
13.580651
 30
0.0
 10
39.024611
 20
13.796689
 30
0.0
 10
39.151377
 20
13.913649
 30
0.0
 11
37.183766
 21
15.989839
 31
0.0
 11
37.043546
 21
15.394276
 31
0.0
 11
36.984737
 21
14.855997
 31
0.0
 11
37.007372
 21
14.375016
 31
0.0
 11
37.108366
 21
13.969433
 31
0.0
 11
37.284760
 21
13.657334
 31
0.0
 11
37.536554
 21
13.438719
 31
0.0
 11
37.676780
 21
13.370885
 31
0.0
 11
37.826048
 21
13.330160
 31
0.0
 11
37.984358
 21
13.316577
 31
0.0
 11
38.367342
 21
13.382930
 31
0.0
 11
38.756337
 21
13.581965
 31
0.0
 11
39.151377
 21
13.913649
 31
0.0
  0
LWPOLYLINE
  5
192
100
AcDbEntity
  8
0
 62
7
100
AcDbPolyline
 90
2
 70
0
 10
40.481226
 20
16.057653
 30
0.0
 10
40.494789
 20
16.057653
 30
0.0
  0
SPLINE
  5
193
100
AcDbEntity
  8
0
 62
7
100
AcDbSpline
 70
0
 71
3
 72
10
 73
6
 74
4
 40
0.000000
 40
0.000000
 40
0.000000
 40
0.000000
 40
0.485241
 40
0.996375
 40
1.536400
 40
1.536400
 40
1.536400
 40
1.536400
 10
39.151377
 20
13.913649
 30
0.0
 10
39.259444
 20
14.034093
 30
0.0
 10
39.481344
 20
14.281407
 30
0.0
 10
39.784024
 20
14.695763
 30
0.0
 10
39.966700
 20
14.994836
 30
0.0
 10
40.060548
 20
15.148482
 30
0.0
 11
39.151377
 21
13.913649
 31
0.0
 11
39.469504
 21
14.280056
 31
0.0
 11
39.772561
 21
14.691656
 31
0.0
 11
40.060548
 21
15.148482
 31
0.0
  0
LWPOLYLINE
  5
194
100
AcDbEntity
  8
0
 62
7
100
AcDbPolyline
 90
2
 70
0
 10
40.060548
 20
15.148482
 30
0.0
 10
40.067329
 20
15.141701
 30
0.0
  0
SPLINE
  5
195
100
AcDbEntity
  8
0
 62
7
100
AcDbSpline
 70
0
 71
3
 72
19
 73
15
 74
13
 40
0.000000
 40
0.000000
 40
0.000000
 40
0.000000
 40
0.006482
 40
0.013630
 40
0.021953
 40
0.122800
 40
0.222914
 40
0.327486
 40
0.519166
 40
0.740974
 40
1.000933
 40
1.685310
 40
2.378361
 40
3.111996
 40
3.111996
 40
3.111996
 40
3.111996
 10
40.067329
 20
15.141701
 30
0.0
 10
40.069021
 20
15.140331
 30
0.0
 10
40.072577
 20
15.137452
 30
0.0
 10
40.079734
 20
15.135240
 30
0.0
 10
40.118852
 20
15.134607
 30
0.0
 10
40.168712
 20
15.070539
 30
0.0
 10
40.270130
 20
15.048608
 30
0.0
 10
40.401361
 20
15.033104
 30
0.0
 10
40.574651
 20
15.061505
 30
0.0
 10
40.785016
 20
15.141983
 30
0.0
 10
41.121512
 20
15.339035
 30
0.0
 10
41.543670
 20
15.691374
 30
0.0
 10
41.983241
 20
16.250382
 30
0.0
 10
42.174181
 20
16.687696
 30
0.0
 10
42.272367
 20
16.912573
 30
0.0
 11
40.067329
 21
15.141701
 31
0.0
 11
40.072604
 21
15.137933
 31
0.0
 11
40.079385
 21
15.135673
 31
0.0
 11
40.087674
 21
15.134919
 31
0.0
 11
40.173629
 21
15.082174
 31
0.0
 11
40.268608
 21
15.050528
 31
0.0
 11
40.372647
 21
15.039979
 31
0.0
 11
40.562607
 21
15.065600
 31
0.0
 11
40.770667
 21
15.142477
 31
0.0
 11
40.996845
 21
15.270624
 31
0.0
 11
41.524567
 21
15.706378
 31
0.0
 11
41.949747
 21
16.253683
 31
0.0
 11
42.272367
 21
16.912573
 31
0.0
  0
LWPOLYLINE
  5
196
100
AcDbEntity
  8
0
 62
7
100
AcDbPolyline
 90
3
 70
0
 10
42.272367
 20
16.912573
 30
0.0
 10
41.933142
 20
17.007589
 30
0.0
 10
41.933142
 20
17.007589
 30
0.0
  0
SPLINE
  5
197
100
AcDbEntity
  8
0
 62
7
100
AcDbSpline
 70
0
 71
3
 72
13
 73
9
 74
7
 40
0.000000
 40
0.000000
 40
0.000000
 40
0.000000
 40
0.150791
 40
0.281265
 40
0.391971
 40
0.479697
 40
0.541208
 40
0.578886
 40
0.578886
 40
0.578886
 40
0.578886
 10
39.015672
 20
14.280075
 30
0.0
 10
38.975796
 20
14.249444
 30
0.0
 10
38.901419
 20
14.192308
 30
0.0
 10
38.792887
 20
14.119563
 30
0.0
 10
38.697467
 20
14.064721
 30
0.0
 10
38.618726
 20
14.029912
 30
0.0
 10
38.559572
 20
14.006142
 30
0.0
 10
38.526267
 20
14.007971
 30
0.0
 10
38.513616
 20
14.008665
 30
0.0
 11
39.015672
 21
14.280075
 31
0.0
 11
38.895039
 21
14.189600
 31
0.0
 11
38.786480
 21
14.117225
 31
0.0
 11
38.690010
 21
14.062917
 31
0.0
 11
38.610086
 21
14.026749
 31
0.0
 11
38.551293
 21
14.008665
 31
0.0
 11
38.513616
 21
14.008665
 31
0.0
  0
SPLINE
  5
198
100
AcDbEntity
  8
0
 62
7
100
AcDbSpline
 70
0
 71
3
 72
13
 73
9
 74
7
 40
0.000000
 40
0.000000
 40
0.000000
 40
0.000000
 40
0.156884
 40
0.441938
 40
0.875669
 40
1.389334
 40
1.912203
 40
2.447247
 40
2.447247
 40
2.447247
 40
2.447247
 10
38.472851
 20
14.022228
 30
0.0
 10
38.447491
 20
14.069074
 30
0.0
 10
38.376052
 20
14.201038
 30
0.0
 10
38.423707
 20
14.504611
 30
0.0
 10
38.490453
 20
14.902962
 30
0.0
 10
38.622443
 20
15.378341
 30
0.0
 10
38.794562
 20
15.872961
 30
0.0
 10
38.941405
 20
16.193882
 30
0.0
 10
39.015672
 20
16.356190
 30
0.0
 11
38.472851
 21
14.022228
 31
0.0
 11
38.408804
 21
14.165443
 31
0.0
 11
38.415586
 21
14.450416
 31
0.0
 11
38.493196
 21
14.877148
 31
0.0
 11
38.626643
 21
15.373176
 31
0.0
 11
38.800796
 21
15.866190
 31
0.0
 11
39.015672
 21
16.356190
 31
0.0
  0
SPLINE
  5
199
100
AcDbEntity
  8
0
 62
7
100
AcDbSpline
 70
0
 71
3
 72
10
 73
6
 74
4
 40
0.000000
 40
0.000000
 40
0.000000
 40
0.000000
 40
0.721395
 40
1.283191
 40
1.705888
 40
1.705888
 40
1.705888
 40
1.705888
 10
39.015672
 20
16.356190
 30
0.0
 10
39.126681
 20
16.568890
 30
0.0
 10
39.324141
 20
16.947233
 30
0.0
 10
39.650754
 20
17.423529
 30
0.0
 10
39.918475
 20
17.616674
 30
0.0
 10
40.033422
 20
17.699602
 30
0.0
 11
39.015672
 21
16.356190
 31
0.0
 11
39.363941
 21
16.987948
 31
0.0
 11
39.703186
 21
17.435752
 31
0.0
 11
40.033422
 21
17.699602
 31
0.0
  0
SPLINE
  5
19a
100
AcDbEntity
  8
0
 62
7
100
AcDbSpline
 70
0
 71
3
 72
13
 73
9
 74
7
 40
0.000000
 40
0.000000
 40
0.000000
 40
0.000000
 40
0.114411
 40
0.246123
 40
0.395318
 40
1.159851
 40
1.771090
 40
2.246982
 40
2.246982
 40
2.246982
 40
2.246982
 10
40.033422
 20
17.699602
 30
0.0
 10
40.021016
 20
17.663531
 30
0.0
 10
39.994329
 20
17.585936
 30
0.0
 10
39.958868
 20
17.458966
 30
0.0
 10
39.874863
 20
17.120667
 30
0.0
 10
39.785838
 20
16.621002
 30
0.0
 10
39.731150
 20
15.999127
 30
0.0
 10
39.809216
 20
15.643471
 30
0.0
 10
39.843390
 20
15.487783
 30
0.0
 11
40.033422
 21
17.699602
 31
0.0
 11
39.997201
 21
17.591076
 31
0.0
 11
39.961014
 21
17.464432
 31
0.0
 11
39.924843
 21
17.319688
 31
0.0
 11
39.789143
 21
16.567295
 31
0.0
 11
39.761981
 21
15.956660
 31
0.0
 11
39.843390
 21
15.487783
 31
0.0
  0
LWPOLYLINE
  5
19b
100
AcDbEntity
  8
0
 62
7
100
AcDbPolyline
 90
2
 70
0
 10
38.513616
 20
14.008665
 30
0.0
 10
38.472851
 20
14.022228
 30
0.0
  0
SPLINE
  5
19c
100
AcDbEntity
  8
0
 62
7
100
AcDbSpline
 70
0
 71
3
 72
10
 73
6
 74
4
 40
0.000000
 40
0.000000
 40
0.000000
 40
0.000000
 40
0.509977
 40
0.998028
 40
1.467341
 40
1.467341
 40
1.467341
 40
1.467341
 10
39.843390
 20
15.487783
 30
0.0
 10
39.760710
 20
15.339205
 30
0.0
 10
39.598907
 20
15.048438
 30
0.0
 10
39.323052
 20
14.643236
 30
0.0
 10
39.116786
 20
14.399539
 30
0.0
 10
39.015672
 20
14.280075
 30
0.0
 11
39.843390
 21
15.487783
 31
0.0
 11
39.588610
 21
15.046009
 31
0.0
 11
39.312698
 21
14.643435
 31
0.0
 11
39.015672
 21
14.280075
 31
0.0
  0
SPLINE
  5
19d
100
AcDbEntity
  8
0
 62
7
100
AcDbSpline
 70
0
 71
3
 72
10
 73
6
 74
4
 40
0.000000
 40
0.000000
 40
0.000000
 40
0.000000
 40
0.187285
 40
0.341878
 40
0.466033
 40
0.466033
 40
0.466033
 40
0.466033
 10
40.250505
 20
17.238235
 30
0.0
 10
40.265559
 20
17.298788
 30
0.0
 10
40.293040
 20
17.409325
 30
0.0
 10
40.344492
 20
17.556846
 30
0.0
 10
40.392122
 20
17.636844
 30
0.0
 10
40.413336
 20
17.672476
 30
0.0
 11
40.250505
 21
17.238235
 31
0.0
 11
40.298748
 21
17.419200
 31
0.0
 11
40.353036
 21
17.563947
 31
0.0
 11
40.413336
 21
17.672476
 31
0.0
  0
SPLINE
  5
19e
100
AcDbEntity
  8
0
 62
7
100
AcDbSpline
 70
0
 71
3
 72
13
 73
9
 74
7
 40
0.000000
 40
0.000000
 40
0.000000
 40
0.000000
 40
0.359225
 40
0.844803
 40
1.468579
 40
1.567806
 40
1.636727
 40
1.676045
 40
1.676045
 40
1.676045
 40
1.676045
 10
40.413336
 20
17.672476
 30
0.0
 10
40.423870
 20
17.552659
 30
0.0
 10
40.448642
 20
17.270883
 30
0.0
 10
40.347555
 20
16.786901
 30
0.0
 10
40.241521
 20
16.398492
 30
0.0
 10
40.153192
 20
16.150179
 30
0.0
 10
40.128888
 20
16.084916
 30
0.0
 10
40.108605
 20
16.054969
 30
0.0
 10
40.101237
 20
16.044091
 30
0.0
 11
40.413336
 21
17.672476
 31
0.0
 11
40.429944
 21
17.313635
 31
0.0
 11
40.353050
 21
16.834184
 31
0.0
 11
40.182690
 21
16.234123
 31
0.0
 11
40.149483
 21
16.140616
 31
0.0
 11
40.122338
 21
16.077267
 31
0.0
 11
40.101237
 21
16.044091
 31
0.0
  0
LWPOLYLINE
  5
19f
100
AcDbEntity
  8
0
 62
7
100
AcDbPolyline
 90
1
 70
1
 10
39.015672
 20
14.280075
 30
0.0
  0
SPLINE
  5
1a0
100
AcDbEntity
  8
0
 62
7
100
AcDbSpline
 70
0
 71
3
 72
10
 73
6
 74
4
 40
0.000000
 40
0.000000
 40
0.000000
 40
0.000000
 40
0.362265
 40
0.763399
 40
1.205471
 40
1.205471
 40
1.205471
 40
1.205471
 10
40.101237
 20
16.044091
 30
0.0
 10
40.104834
 20
16.164850
 30
0.0
 10
40.112414
 20
16.419326
 30
0.0
 10
40.164973
 20
16.818409
 30
0.0
 10
40.221086
 20
17.093836
 30
0.0
 10
40.250505
 20
17.238235
 30
0.0
 11
40.101237
 21
16.044091
 31
0.0
 11
40.117817
 21
16.405976
 31
0.0
 11
40.167567
 21
16.804013
 31
0.0
 11
40.250505
 21
17.238235
 31
0.0
  0
SPLINE
  5
1a1
100
AcDbEntity
  8
0
 62
7
100
AcDbSpline
 70
0
 71
3
 72
10
 73
6
 74
4
 40
0.000000
 40
0.000000
 40
0.000000
 40
0.000000
 40
0.792276
 40
1.424654
 40
1.935405
 40
1.935405
 40
1.935405
 40
1.935405
 10
46.641829
 20
17.034715
 30
0.0
 10
46.533070
 20
16.794718
 30
0.0
 10
46.337503
 20
16.363160
 30
0.0
 10
45.961972
 20
15.820151
 30
0.0
 10
45.634682
 20
15.618548
 30
0.0
 10
45.488449
 20
15.528472
 30
0.0
 11
46.641829
 21
17.034715
 31
0.0
 11
46.290545
 21
16.324573
 31
0.0
 11
45.906091
 21
15.822481
 31
0.0
 11
45.488449
 21
15.528472
 31
0.0
  0
SPLINE
  5
1a2
100
AcDbEntity
  8
0
 62
7
100
AcDbSpline
 70
0
 71
3
 72
13
 73
9
 74
7
 40
0.000000
 40
0.000000
 40
0.000000
 40
0.000000
 40
1.406629
 40
2.402012
 40
3.050239
 40
3.237180
 40
3.416109
 40
3.610610
 40
3.610610
 40
3.610610
 40
3.610610
 10
45.488449
 20
15.528472
 30
0.0
 10
45.591359
 20
15.987494
 30
0.0
 10
45.767091
 20
16.771338
 30
0.0
 10
45.835193
 20
17.781590
 30
0.0
 10
45.678626
 20
18.412511
 30
0.0
 10
45.424783
 20
18.645800
 30
0.0
 10
45.244978
 20
18.714963
 30
0.0
 10
45.119542
 20
18.707616
 30
0.0
 10
45.054208
 20
18.703789
 30
0.0
 11
45.488449
 21
15.528472
 31
0.0
 11
45.755305
 21
16.909556
 31
0.0
 11
45.777926
 21
17.904682
 31
0.0
 11
45.556264
 21
18.513832
 31
0.0
 11
45.416038
 21
18.637459
 31
0.0
 11
45.248686
 21
18.700772
 31
0.0
 11
45.054208
 21
18.703789
 31
0.0
  0
SPLINE
  5
1a3
100
AcDbEntity
  8
0
 62
7
100
AcDbSpline
 70
0
 71
3
 72
10
 73
6
 74
4
 40
0.000000
 40
0.000000
 40
0.000000
 40
0.000000
 40
0.555669
 40
1.415240
 40
2.645092
 40
2.645092
 40
2.645092
 40
2.645092
 10
45.054208
 20
18.703789
 30
0.0
 10
44.878896
 20
18.635088
 30
0.0
 10
44.432391
 20
18.460112
 30
0.0
 10
43.905397
 20
17.707099
 30
0.0
 10
43.569363
 20
17.104460
 30
0.0
 10
43.371571
 20
16.749742
 30
0.0
 11
45.054208
 21
18.703789
 31
0.0
 11
44.553637
 21
18.462550
 31
0.0
 11
43.992752
 21
17.811189
 31
0.0
 11
43.371571
 21
16.749742
 31
0.0
  0
LWPOLYLINE
  5
1a4
100
AcDbEntity
  8
0
 62
7
100
AcDbPolyline
 90
1
 70
1
 10
40.250505
 20
17.238235
 30
0.0
  0
SPLINE
  5
1a5
100
AcDbEntity
  8
0
 62
7
100
AcDbSpline
 70
0
 71
3
 72
16
 73
12
 74
10
 40
0.000000
 40
0.000000
 40
0.000000
 40
0.000000
 40
0.321622
 40
0.570782
 40
0.747464
 40
1.087795
 40
1.393574
 40
1.695011
 40
2.035180
 40
2.365115
 40
2.716085
 40
2.716085
 40
2.716085
 40
2.716085
 10
43.371571
 20
16.749742
 30
0.0
 10
43.401363
 20
16.852719
 30
0.0
 10
43.454235
 20
17.035472
 30
0.0
 10
43.521642
 20
17.275418
 30
0.0
 10
43.591661
 20
17.520756
 30
0.0
 10
43.644846
 20
17.792436
 30
0.0
 10
43.604629
 20
18.112297
 30
0.0
 10
43.458164
 20
18.398024
 30
0.0
 10
43.231106
 20
18.634674
 30
0.0
 10
42.927695
 20
18.804902
 30
0.0
 10
42.701258
 20
18.836678
 30
0.0
 10
42.584542
 20
18.853057
 30
0.0
 11
43.371571
 21
16.749742
 31
0.0
 11
43.460503
 21
17.058824
 31
0.0
 11
43.528354
 21
17.298568
 31
0.0
 11
43.575091
 21
17.468956
 31
0.0
 11
43.627883
 21
17.805167
 31
0.0
 11
43.587174
 21
18.108224
 31
0.0
 11
43.452948
 21
18.378127
 31
0.0
 11
43.217759
 21
18.623893
 31
0.0
 11
42.928285
 21
18.782203
 31
0.0
 11
42.584542
 21
18.853057
 31
0.0
  0
SPLINE
  5
1a6
100
AcDbEntity
  8
0
 62
7
100
AcDbSpline
 70
0
 71
3
 72
19
 73
15
 74
13
 40
0.000000
 40
0.000000
 40
0.000000
 40
0.000000
 40
0.183873
 40
0.426355
 40
0.727460
 40
1.114402
 40
1.614612
 40
2.228275
 40
2.865474
 40
3.436813
 40
3.943337
 40
4.560658
 40
5.045008
 40
5.443498
 40
5.443498
 40
5.443498
 40
5.443498
 10
42.408072
 20
18.744478
 30
0.0
 10
42.386852
 20
18.686977
 30
0.0
 10
42.337648
 20
18.553646
 30
0.0
 10
42.256878
 20
18.325003
 30
0.0
 10
42.153197
 20
18.032661
 30
0.0
 10
42.030743
 20
17.655911
 30
0.0
 10
41.890007
 20
17.175796
 30
0.0
 10
41.732424
 20
16.613810
 30
0.0
 10
41.579706
 20
16.025694
 30
0.0
 10
41.459777
 20
15.466884
 30
0.0
 10
41.362193
 20
14.909034
 30
0.0
 10
41.327828
 20
14.376058
 30
0.0
 10
41.396316
 20
13.862915
 30
0.0
 10
41.579189
 20
13.626764
 30
0.0
 10
41.661732
 20
13.520172
 30
0.0
 11
42.408072
 21
18.744478
 31
0.0
 11
42.344759
 21
18.571849
 31
0.0
 11
42.263345
 21
18.343444
 31
0.0
 11
42.163863
 21
18.059247
 31
0.0
 11
42.043982
 21
17.691344
 31
0.0
 11
41.901495
 21
17.211857
 31
0.0
 11
41.736404
 21
16.620818
 31
0.0
 11
41.578850
 21
16.003404
 31
0.0
 11
41.458988
 21
15.444780
 31
0.0
 11
41.376834
 21
14.944962
 31
0.0
 11
41.348171
 21
14.328308
 31
0.0
 11
41.443148
 21
13.853361
 31
0.0
 11
41.661732
 21
13.520172
 31
0.0
  0
LWPOLYLINE
  5
1a7
100
AcDbEntity
  8
0
 62
7
100
AcDbPolyline
 90
3
 70
0
 10
42.584542
 20
18.853057
 30
0.0
 10
42.462399
 20
18.853057
 30
0.0
 10
42.408072
 20
18.744478
 30
0.0
  0
SPLINE
  5
1a8
100
AcDbEntity
  8
0
 62
7
100
AcDbSpline
 70
0
 71
3
 72
13
 73
9
 74
7
 40
0.000000
 40
0.000000
 40
0.000000
 40
0.000000
 40
0.184884
 40
0.365493
 40
0.555349
 40
0.584022
 40
0.615990
 40
0.651461
 40
0.651461
 40
0.651461
 40
0.651461
 10
41.661732
 20
13.520172
 30
0.0
 10
41.708506
 20
13.479395
 30
0.0
 10
41.800972
 20
13.398784
 30
0.0
 10
41.976716
 20
13.331128
 30
0.0
 10
42.110146
 20
13.314005
 30
0.0
 10
42.193635
 20
13.317666
 30
0.0
 10
42.225385
 20
13.322376
 30
0.0
 10
42.247285
 20
13.327464
 30
0.0
 10
42.258804
 20
13.330140
 30
0.0
 11
41.661732
 21
13.520172
 31
0.0
 11
41.807989
 21
13.407075
 31
0.0
 11
41.975360
 21
13.339204
 31
0.0
 11
42.163863
 21
13.316577
 31
0.0
 11
42.192496
 21
13.318084
 31
0.0
 11
42.224143
 21
13.322605
 31
0.0
 11
42.258804
 21
13.330140
 31
0.0
  0
SPLINE
  5
1a9
100
AcDbEntity
  8
0
 62
7
100
AcDbSpline
 70
0
 71
3
 72
19
 73
15
 74
13
 40
0.000000
 40
0.000000
 40
0.000000
 40
0.000000
 40
0.059646
 40
0.221288
 40
0.484948
 40
0.568895
 40
0.706277
 40
0.897142
 40
1.144645
 40
1.452051
 40
1.819395
 40
2.208543
 40
2.581245
 40
2.937556
 40
2.937556
 40
2.937556
 40
2.937556
 10
42.380946
 20
13.452282
 30
0.0
 10
42.386393
 20
13.471405
 30
0.0
 10
42.406598
 20
13.542353
 30
0.0
 10
42.458648
 20
13.695448
 30
0.0
 10
42.510088
 20
13.857218
 30
0.0
 10
42.563863
 20
14.009688
 30
0.0
 10
42.611836
 20
14.138441
 30
0.0
 10
42.678929
 20
14.318249
 30
0.0
 10
42.769175
 20
14.549893
 30
0.0
 10
42.884925
 20
14.834693
 30
0.0
 10
43.021071
 20
15.162154
 30
0.0
 10
43.168272
 20
15.508579
 30
0.0
 10
43.317258
 20
15.850240
 30
0.0
 10
43.417512
 20
16.071603
 30
0.0
 10
43.466511
 20
16.179796
 30
0.0
 11
42.380946
 21
13.452282
 31
0.0
 11
42.397543
 21
13.509573
 31
0.0
 11
42.447310
 21
13.663362
 31
0.0
 11
42.530214
 21
13.913649
 31
0.0
 11
42.558113
 21
13.992825
 31
0.0
 11
42.605620
 21
14.121732
 31
0.0
 11
42.672701
 21
14.300420
 31
0.0
 11
42.762423
 21
14.531088
 31
0.0
 11
42.877747
 21
14.816042
 31
0.0
 11
43.018707
 21
15.155264
 31
0.0
 11
43.170989
 21
15.513379
 31
0.0
 11
43.320257
 21
15.854884
 31
0.0
 11
43.466511
 21
16.179796
 31
0.0
  0
LWPOLYLINE
  5
1aa
100
AcDbEntity
  8
0
 62
7
100
AcDbPolyline
 90
3
 70
0
 10
42.258804
 20
13.330140
 30
0.0
 10
42.353820
 20
13.343703
 30
0.0
 10
42.380946
 20
13.452282
 30
0.0
  0
SPLINE
  5
1ab
100
AcDbEntity
  8
0
 62
7
100
AcDbSpline
 70
0
 71
3
 72
10
 73
6
 74
4
 40
0.000000
 40
0.000000
 40
0.000000
 40
0.000000
 40
0.675660
 40
1.263067
 40
1.764441
 40
1.764441
 40
1.764441
 40
1.764441
 10
43.466511
 20
16.179796
 30
0.0
 10
43.565087
 20
16.382287
 30
0.0
 10
43.749363
 20
16.760822
 30
0.0
 10
44.035215
 20
17.275752
 30
0.0
 10
44.240474
 20
17.575249
 30
0.0
 10
44.334994
 20
17.713165
 30
0.0
 11
43.466511
 21
16.179796
 31
0.0
 11
43.768061
 21
16.784431
 31
0.0
 11
44.057556
 21
17.295548
 31
0.0
 11
44.334994
 21
17.713165
 31
0.0
  0
SPLINE
  5
1ac
100
AcDbEntity
  8
0
 62
7
100
AcDbSpline
 70
0
 71
3
 72
10
 73
6
 74
4
 40
0.000000
 40
0.000000
 40
0.000000
 40
0.000000
 40
0.248412
 40
0.720228
 40
1.420471
 40
1.420471
 40
1.420471
 40
1.420471
 10
44.430010
 20
17.713165
 30
0.0
 10
44.440514
 20
17.630799
 30
0.0
 10
44.470971
 20
17.391994
 30
0.0
 10
44.408277
 20
16.918651
 30
0.0
 10
44.353911
 20
16.532589
 30
0.0
 10
44.321431
 20
16.301938
 30
0.0
 11
44.430010
 21
17.713165
 31
0.0
 11
44.454119
 21
17.465925
 31
0.0
 11
44.417932
 21
16.995499
 31
0.0
 11
44.321431
 21
16.301938
 31
0.0
  0
SPLINE
  5
1ad
100
AcDbEntity
  8
0
 62
7
100
AcDbSpline
 70
0
 71
3
 72
13
 73
9
 74
7
 40
0.000000
 40
0.000000
 40
0.000000
 40
0.000000
 40
0.382330
 40
0.701716
 40
0.993151
 40
1.084112
 40
1.179526
 40
1.281487
 40
1.281487
 40
1.281487
 40
1.281487
 10
44.321431
 20
16.301938
 30
0.0
 10
44.305367
 20
16.174884
 30
0.0
 10
44.275885
 20
15.941693
 30
0.0
 10
44.341784
 20
15.610179
 30
0.0
 10
44.472440
 20
15.407517
 30
0.0
 10
44.594068
 20
15.303990
 30
0.0
 10
44.676521
 20
15.253593
 30
0.0
 10
44.737654
 20
15.229051
 30
0.0
 10
44.769235
 20
15.216373
 30
0.0
 11
44.321431
 21
16.301938
 31
0.0
 11
44.295815
 21
15.920467
 31
0.0
 11
44.363649
 21
15.608368
 31
0.0
 11
44.524951
 21
15.365641
 31
0.0
 11
44.594328
 21
15.306815
 31
0.0
 11
44.675745
 21
15.257064
 31
0.0
 11
44.769235
 21
15.216373
 31
0.0
  0
SPLINE
  5
1ae
100
AcDbEntity
  8
0
 62
7
100
AcDbSpline
 70
0
 71
3
 72
13
 73
9
 74
7
 40
0.000000
 40
0.000000
 40
0.000000
 40
0.000000
 40
0.119015
 40
0.252982
 40
0.405533
 40
0.538342
 40
0.666256
 40
0.790593
 40
0.790593
 40
0.790593
 40
0.790593
 10
44.769235
 20
15.216373
 30
0.0
 10
44.805434
 20
15.199824
 30
0.0
 10
44.882381
 20
15.164648
 30
0.0
 10
45.016502
 20
15.140248
 30
0.0
 10
45.156187
 20
15.132521
 30
0.0
 10
45.293976
 20
15.138903
 30
0.0
 10
45.421510
 20
15.156072
 30
0.0
 10
45.502688
 20
15.178294
 30
0.0
 10
45.542701
 20
15.189247
 30
0.0
 11
44.769235
 21
15.216373
 31
0.0
 11
44.879321
 21
15.171143
 31
0.0
 11
45.010505
 21
15.143981
 31
0.0
 11
45.162787
 21
15.134919
 31
0.0
 11
45.295459
 21
15.140950
 31
0.0
 11
45.422085
 21
15.159054
 31
0.0
 11
45.542701
 21
15.189247
 31
0.0
  0
LWPOLYLINE
  5
1af
100
AcDbEntity
  8
0
 62
7
100
AcDbPolyline
 90
2
 70
0
 10
44.334994
 20
17.713165
 30
0.0
 10
44.430010
 20
17.713165
 30
0.0
  0
SPLINE
  5
1b0
100
AcDbEntity
  8
0
 62
7
100
AcDbSpline
 70
0
 71
3
 72
10
 73
6
 74
4
 40
0.000000
 40
0.000000
 40
0.000000
 40
0.000000
 40
0.618048
 40
1.363412
 40
2.290607
 40
2.290607
 40
2.290607
 40
2.290607
 10
45.542701
 20
15.189247
 30
0.0
 10
45.726763
 20
15.286371
 30
0.0
 10
46.132802
 20
15.500627
 30
0.0
 10
46.602693
 20
16.128589
 30
0.0
 10
46.837435
 20
16.632967
 30
0.0
 10
46.967566
 20
16.912573
 30
0.0
 11
45.542701
 21
15.189247
 31
0.0
 11
46.068922
 21
15.513399
 31
0.0
 11
46.543871
 21
16.087846
 31
0.0
 11
46.967566
 21
16.912573
 31
0.0
  0
SPLINE
  5
1b1
100
AcDbEntity
  8
0
 62
7
100
AcDbSpline
 70
0
 71
3
 72
16
 73
12
 74
10
 40
0.000000
 40
0.000000
 40
0.000000
 40
0.000000
 40
0.027181
 40
0.108721
 40
0.244614
 40
0.435941
 40
0.683707
 40
0.987927
 40
1.322278
 40
1.660421
 40
2.002350
 40
2.002350
 40
2.002350
 40
2.002350
 10
52.829633
 20
16.980463
 30
0.0
 10
52.822097
 20
16.975433
 30
0.0
 10
52.791955
 20
16.955313
 30
0.0
 10
52.724123
 20
16.910067
 30
0.0
 10
52.610715
 20
16.834545
 30
0.0
 10
52.451382
 20
16.728020
 30
0.0
 10
52.245628
 20
16.589978
 30
0.0
 10
52.000222
 20
16.425465
 30
0.0
 10
51.730684
 20
16.242853
 30
0.0
 10
51.452474
 20
16.050647
 30
0.0
 10
51.267300
 20
15.919881
 30
0.0
 10
51.174197
 20
15.854134
 30
0.0
 11
52.829633
 21
16.980463
 31
0.0
 11
52.807026
 21
16.965373
 31
0.0
 11
52.739191
 21
16.920127
 31
0.0
 11
52.626113
 21
16.844758
 31
0.0
 11
52.467047
 21
16.738439
 31
0.0
 11
52.261247
 21
16.600474
 31
0.0
 11
52.008697
 21
16.430861
 31
0.0
 11
51.732015
 21
16.243145
 31
0.0
 11
51.453843
 21
16.050892
 31
0.0
 11
51.174197
 21
15.854134
 31
0.0
  0
LWPOLYLINE
  5
1b2
100
AcDbEntity
  8
0
 62
7
100
AcDbPolyline
 90
3
 70
0
 10
46.967566
 20
16.912573
 30
0.0
 10
46.641829
 20
17.034715
 30
0.0
 10
46.641829
 20
17.034715
 30
0.0
  0
SPLINE
  5
1b3
100
AcDbEntity
  8
0
 62
7
100
AcDbSpline
 70
0
 71
3
 72
10
 73
6
 74
4
 40
0.000000
 40
0.000000
 40
0.000000
 40
0.000000
 40
0.650096
 40
1.300726
 40
1.952044
 40
1.952044
 40
1.952044
 40
1.952044
 10
51.174197
 20
15.854134
 30
0.0
 10
51.233607
 20
16.062532
 30
0.0
 10
51.352474
 20
16.479500
 30
0.0
 10
51.519844
 20
17.108336
 30
0.0
 10
51.624099
 20
17.529615
 30
0.0
 10
51.676253
 20
17.740366
 30
0.0
 11
51.174197
 21
15.854134
 31
0.0
 11
51.350591
 21
16.479841
 31
0.0
 11
51.517943
 21
17.108580
 31
0.0
 11
51.676253
 21
17.740366
 31
0.0
  0
SPLINE
  5
1b4
100
AcDbEntity
  8
0
 62
7
100
AcDbSpline
 70
0
 71
3
 72
16
 73
12
 74
10
 40
0.000000
 40
0.000000
 40
0.000000
 40
0.000000
 40
0.045991
 40
0.111720
 40
0.197251
 40
0.305077
 40
0.439741
 40
0.602865
 40
0.773569
 40
0.933478
 40
1.087701
 40
1.087701
 40
1.087701
 40
1.087701
 10
51.676253
 20
17.753929
 30
0.0
 10
51.676660
 20
17.769255
 30
0.0
 10
51.677648
 20
17.806485
 30
0.0
 10
51.682379
 20
17.872092
 30
0.0
 10
51.692013
 20
17.957929
 30
0.0
 10
51.692352
 20
18.067685
 30
0.0
 10
51.671553
 20
18.201613
 30
0.0
 10
51.637684
 20
18.354161
 30
0.0
 10
51.585467
 20
18.510646
 30
0.0
 10
51.509022
 20
18.654711
 30
0.0
 10
51.439148
 20
18.733113
 30
0.0
 10
51.404843
 20
18.771604
 30
0.0
 11
51.676253
 21
17.753929
 31
0.0
 11
51.677760
 21
17.799895
 31
0.0
 11
51.682281
 21
17.865469
 31
0.0
 11
51.689816
 21
17.950668
 31
0.0
 11
51.689816
 21
18.058493
 31
0.0
 11
51.671732
 21
18.191938
 31
0.0
 11
51.635564
 21
18.351001
 31
0.0
 11
51.579750
 21
18.512322
 31
0.0
 11
51.502854
 21
18.652529
 31
0.0
 11
51.404843
 21
18.771604
 31
0.0
  0
LWPOLYLINE
  5
1b5
100
AcDbEntity
  8
0
 62
7
100
AcDbPolyline
 90
2
 70
0
 10
51.676253
 20
17.740366
 30
0.0
 10
51.676253
 20
17.753929
 30
0.0
  0
SPLINE
  5
1b6
100
AcDbEntity
  8
0
 62
7
100
AcDbSpline
 70
0
 71
3
 72
10
 73
6
 74
4
 40
0.000000
 40
0.000000
 40
0.000000
 40
0.000000
 40
0.293424
 40
0.599741
 40
0.951076
 40
0.951076
 40
0.951076
 40
0.951076
 10
51.404843
 20
18.771604
 30
0.0
 10
51.329602
 20
18.835617
 30
0.0
 10
51.175813
 20
18.966457
 30
0.0
 10
50.859223
 20
19.050522
 30
0.0
 10
50.639943
 20
19.036788
 30
0.0
 10
50.522798
 20
19.029451
 30
0.0
 11
51.404843
 21
18.771604
 31
0.0
 11
51.168144
 21
18.945015
 31
0.0
 11
50.874129
 21
19.030953
 31
0.0
 11
50.522798
 21
19.029451
 31
0.0
  0
SPLINE
  5
1b7
100
AcDbEntity
  8
0
 62
7
100
AcDbSpline
 70
0
 71
3
 72
19
 73
15
 74
13
 40
0.000000
 40
0.000000
 40
0.000000
 40
0.000000
 40
0.038218
 40
0.087050
 40
0.146486
 40
0.213448
 40
0.284859
 40
0.360698
 40
0.444414
 40
0.539364
 40
0.645572
 40
0.758948
 40
0.875237
 40
0.994425
 40
0.994425
 40
0.994425
 40
0.994425
 10
50.359967
 20
18.846276
 30
0.0
 10
50.356637
 20
18.833979
 30
0.0
 10
50.349052
 20
18.805969
 30
0.0
 10
50.337988
 20
18.758402
 30
0.0
 10
50.325390
 20
18.701367
 30
0.0
 10
50.312076
 20
18.636787
 30
0.0
 10
50.298458
 20
18.566691
 30
0.0
 10
50.285069
 20
18.490874
 30
0.0
 10
50.269218
 20
18.407526
 30
0.0
 10
50.248641
 20
18.314810
 30
0.0
 10
50.223765
 20
18.212957
 30
0.0
 10
50.196744
 20
18.104310
 30
0.0
 10
50.169663
 20
17.991221
 30
0.0
 10
50.151883
 20
17.914768
 30
0.0
 10
50.142884
 20
17.876071
 30
0.0
 11
50.359967
 21
18.846276
 31
0.0
 11
50.350171
 21
18.809335
 31
0.0
 11
50.338869
 21
18.761828
 31
0.0
 11
50.326059
 21
18.703789
 31
0.0
 11
50.312497
 21
18.638215
 31
0.0
 11
50.298934
 21
18.568104
 31
0.0
 11
50.285371
 21
18.493488
 31
0.0
 11
50.269528
 21
18.411284
 31
0.0
 11
50.249147
 21
18.318548
 31
0.0
 11
50.224262
 21
18.215296
 31
0.0
 11
50.197136
 21
18.105213
 31
0.0
 11
50.170010
 21
17.992132
 31
0.0
 11
50.142884
 21
17.876071
 31
0.0
  0
SPLINE
  5
1b8
100
AcDbEntity
  8
0
 62
7
100
AcDbSpline
 70
0
 71
3
 72
13
 73
9
 74
7
 40
0.000000
 40
0.000000
 40
0.000000
 40
0.000000
 40
0.154369
 40
0.305984
 40
0.456041
 40
0.547349
 40
0.635174
 40
0.719947
 40
0.719947
 40
0.719947
 40
0.719947
 10
50.142884
 20
17.876071
 30
0.0
 10
50.132806
 20
17.926590
 30
0.0
 10
50.112829
 20
18.026725
 30
0.0
 10
50.065654
 20
18.171284
 30
0.0
 10
50.019612
 20
18.294616
 30
0.0
 10
49.961460
 20
18.387988
 30
0.0
 10
49.912369
 20
18.461033
 30
0.0
 10
49.875849
 20
18.505537
 30
0.0
 10
49.857911
 20
18.527395
 30
0.0
 11
50.142884
 21
17.876071
 31
0.0
 11
50.109677
 21
18.026827
 31
0.0
 11
50.064448
 21
18.171537
 31
0.0
 11
50.007179
 21
18.310237
 31
0.0
 11
49.960409
 21
18.388657
 31
0.0
 11
49.910659
 21
18.461032
 31
0.0
 11
49.857911
 21
18.527395
 31
0.0
  0
SPLINE
  5
1b9
100
AcDbEntity
  8
0
 62
7
100
AcDbSpline
 70
0
 71
3
 72
10
 73
6
 74
4
 40
0.000000
 40
0.000000
 40
0.000000
 40
0.000000
 40
0.400316
 40
0.814407
 40
1.287979
 40
1.287979
 40
1.287979
 40
1.287979
 10
49.857911
 20
18.527395
 30
0.0
 10
49.764847
 20
18.624930
 30
0.0
 10
49.575516
 20
18.823355
 30
0.0
 10
49.159304
 20
18.978549
 30
0.0
 10
48.862697
 20
18.985209
 30
0.0
 10
48.704456
 20
18.988762
 30
0.0
 11
49.857911
 21
18.527395
 31
0.0
 11
49.560876
 21
18.795766
 31
0.0
 11
49.176402
 21
18.949555
 31
0.0
 11
48.704456
 21
18.988762
 31
0.0
  0
SPLINE
  5
1ba
100
AcDbEntity
  8
0
 62
7
100
AcDbSpline
 70
0
 71
3
 72
16
 73
12
 74
10
 40
0.000000
 40
0.000000
 40
0.000000
 40
0.000000
 40
0.459398
 40
0.977984
 40
1.600077
 40
2.287270
 40
2.986921
 40
3.708273
 40
4.411661
 40
5.055677
 40
5.647998
 40
5.647998
 40
5.647998
 40
5.647998
 10
48.704456
 20
18.988762
 30
0.0
 10
48.551144
 20
18.967187
 30
0.0
 10
48.224768
 20
18.921258
 30
0.0
 10
47.769560
 20
18.616132
 30
0.0
 10
47.349204
 20
18.174686
 30
0.0
 10
46.958102
 20
17.628208
 30
0.0
 10
46.614270
 20
17.013904
 30
0.0
 10
46.341731
 20
16.358625
 30
0.0
 10
46.137069
 20
15.699686
 30
0.0
 10
45.998578
 20
15.065811
 30
0.0
 10
45.974780
 20
14.653841
 30
0.0
 10
45.963379
 20
14.456469
 30
0.0
 11
48.704456
 21
18.988762
 31
0.0
 11
48.255144
 21
18.893021
 31
0.0
 11
47.811861
 21
18.623890
 31
0.0
 11
47.374606
 21
18.181389
 31
0.0
 11
46.971284
 21
17.625003
 31
0.0
 11
46.629798
 21
17.014348
 31
0.0
 11
46.350150
 21
16.349408
 31
0.0
 11
46.141305
 21
15.677740
 31
0.0
 11
46.012382
 21
15.046760
 31
0.0
 11
45.963379
 21
14.456469
 31
0.0
  0
SPLINE
  5
1bb
100
AcDbEntity
  8
0
 62
7
100
AcDbSpline
 70
0
 71
3
 72
28
 73
24
 74
22
 40
0.000000
 40
0.000000
 40
0.000000
 40
0.000000
 40
0.249731
 40
0.475558
 40
0.679830
 40
0.860264
 40
1.015393
 40
1.150844
 40
1.271335
 40
1.376095
 40
1.466119
 40
1.548124
 40
1.628847
 40
1.709664
 40
1.729322
 40
1.752059
 40
1.777956
 40
1.802361
 40
1.820586
 40
1.832665
 40
2.171408
 40
2.506048
 40
2.844836
 40
2.844836
 40
2.844836
 40
2.844836
 10
45.963379
 20
14.456469
 30
0.0
 10
45.965064
 20
14.373195
 30
0.0
 10
45.968271
 20
14.214617
 30
0.0
 10
45.997453
 20
13.989400
 30
0.0
 10
46.045312
 20
13.791090
 30
0.0
 10
46.109693
 20
13.622605
 30
0.0
 10
46.187520
 20
13.484900
 30
0.0
 10
46.282923
 20
13.384826
 30
0.0
 10
46.379950
 20
13.313537
 30
0.0
 10
46.467741
 20
13.255612
 30
0.0
 10
46.550439
 20
13.214034
 30
0.0
 10
46.630431
 20
13.186934
 30
0.0
 10
46.710239
 20
13.170442
 30
0.0
 10
46.770715
 20
13.167776
 30
0.0
 10
46.811781
 20
13.166783
 30
0.0
 10
46.834439
 20
13.164341
 30
0.0
 10
46.858502
 20
13.160637
 30
0.0
 10
46.881046
 20
13.156988
 30
0.0
 10
46.899124
 20
13.154472
 30
0.0
 10
47.022023
 20
13.147955
 30
0.0
 10
47.250804
 20
13.173389
 30
0.0
 10
47.581719
 20
13.245669
 30
0.0
 10
47.787019
 20
13.338011
 30
0.0
 10
47.890301
 20
13.384467
 30
0.0
 11
45.963379
 21
14.456469
 31
0.0
 11
45.973177
 21
14.206930
 31
0.0
 11
46.002583
 21
13.983027
 31
0.0
 11
46.051614
 21
13.784726
 31
0.0
 11
46.117171
 21
13.616623
 31
0.0
 11
46.196308
 21
13.483198
 31
0.0
 11
46.289041
 21
13.384467
 31
0.0
 11
46.384791
 21
13.311325
 31
0.0
 11
46.472990
 21
13.254793
 31
0.0
 11
46.553670
 21
13.214855
 31
0.0
 11
46.631300
 21
13.188429
 31
0.0
 11
46.710453
 21
13.172586
 31
0.0
 11
46.791097
 21
13.167309
 31
0.0
 11
46.810741
 21
13.166555
 31
0.0
 11
46.833366
 21
13.164295
 31
0.0
 11
46.858987
 21
13.160527
 31
0.0
 11
46.883099
 21
13.156760
 31
0.0
 11
46.901183
 21
13.154499
 31
0.0
 11
46.913239
 21
13.153746
 31
0.0
 11
47.251010
 21
13.179387
 31
0.0
 11
47.576692
 21
13.256300
 31
0.0
 11
47.890301
 21
13.384467
 31
0.0
  0
SPLINE
  5
1bc
100
AcDbEntity
  8
0
 62
7
100
AcDbSpline
 70
0
 71
3
 72
10
 73
6
 74
4
 40
0.000000
 40
0.000000
 40
0.000000
 40
0.000000
 40
2.294330
 40
3.874859
 40
4.858157
 40
4.858157
 40
4.858157
 40
4.858157
 10
47.890301
 20
13.384467
 30
0.0
 10
47.323657
 20
12.882199
 30
0.0
 10
46.366662
 20
12.033926
 30
0.0
 10
45.201611
 20
10.810532
 30
0.0
 10
45.055857
 20
9.954104
 30
0.0
 10
44.999956
 20
9.625640
 30
0.0
 11
47.890301
 21
13.384467
 31
0.0
 11
46.200100
 21
11.832961
 31
0.0
 11
45.236658
 21
10.580024
 31
0.0
 11
44.999956
 21
9.625640
 31
0.0
  0
SPLINE
  5
1bd
100
AcDbEntity
  8
0
 62
7
100
AcDbSpline
 70
0
 71
3
 72
10
 73
6
 74
4
 40
0.000000
 40
0.000000
 40
0.000000
 40
0.000000
 40
0.372726
 40
0.766458
 40
1.249730
 40
1.249730
 40
1.249730
 40
1.249730
 10
44.999956
 20
9.625640
 30
0.0
 10
45.033373
 20
9.503423
 30
0.0
 10
45.102090
 20
9.252099
 30
0.0
 10
45.437616
 20
8.968733
 30
0.0
 10
45.715329
 20
8.876047
 30
0.0
 10
45.868363
 20
8.824973
 30
0.0
 11
44.999956
 21
9.625640
 31
0.0
 11
45.132619
 21
9.277323
 31
0.0
 11
45.422094
 21
9.010434
 31
0.0
 11
45.868363
 21
8.824973
 31
0.0
  0
SPLINE
  5
1be
100
AcDbEntity
  8
0
 62
7
100
AcDbSpline
 70
0
 71
3
 72
13
 73
9
 74
7
 40
0.000000
 40
0.000000
 40
0.000000
 40
0.000000
 40
0.186530
 40
0.369486
 40
0.550630
 40
0.912638
 40
1.284820
 40
1.679280
 40
1.679280
 40
1.679280
 40
1.679280
 10
45.868363
 20
8.824973
 30
0.0
 10
45.928412
 20
8.808671
 30
0.0
 10
46.047361
 20
8.776378
 30
0.0
 10
46.229419
 20
8.749872
 30
0.0
 10
46.471449
 20
8.737447
 30
0.0
 10
46.776867
 20
8.768043
 30
0.0
 10
47.141155
 20
8.872641
 30
0.0
 10
47.366988
 20
8.993506
 30
0.0
 10
47.483185
 20
9.055694
 30
0.0
 11
45.868363
 21
8.824973
 31
0.0
 11
46.049331
 21
8.779763
 31
0.0
 11
46.230265
 21
8.752637
 31
0.0
 11
46.411183
 21
8.743595
 31
0.0
 11
46.771526
 21
8.778278
 31
0.0
 11
47.128871
 21
8.882317
 31
0.0
 11
47.483185
 21
9.055694
 31
0.0
  0
SPLINE
  5
1bf
100
AcDbEntity
  8
0
 62
7
100
AcDbSpline
 70
0
 71
3
 72
10
 73
6
 74
4
 40
0.000000
 40
0.000000
 40
0.000000
 40
0.000000
 40
1.729670
 40
4.127606
 40
7.307613
 40
7.307613
 40
7.307613
 40
7.307613
 10
47.483185
 20
9.055694
 30
0.0
 10
47.925165
 20
9.433476
 30
0.0
 10
48.979884
 20
10.334998
 30
0.0
 10
50.065720
 20
12.574429
 30
0.0
 10
50.667955
 20
14.326238
 30
0.0
 10
51.011291
 20
15.324952
 30
0.0
 11
47.483185
 21
9.055694
 31
0.0
 11
48.731612
 21
10.252852
 31
0.0
 11
49.907636
 21
12.342605
 31
0.0
 11
51.011291
 21
15.324952
 31
0.0
  0
LWPOLYLINE
  5
1c0
100
AcDbEntity
  8
0
 62
7
100
AcDbPolyline
 90
4
 70
0
 10
50.522798
 20
19.029451
 30
0.0
 10
50.400656
 20
19.015888
 30
0.0
 10
50.373530
 20
18.893746
 30
0.0
 10
50.359967
 20
18.846276
 30
0.0
  0
LWPOLYLINE
  5
1c1
100
AcDbEntity
  8
0
 62
7
100
AcDbPolyline
 90
3
 70
0
 10
53.019666
 20
16.681927
 30
0.0
 10
52.829633
 20
16.980463
 30
0.0
 10
52.829633
 20
16.980463
 30
0.0
  0
SPLINE
  5
1c2
100
AcDbEntity
  8
0
 62
7
100
AcDbSpline
 70
0
 71
3
 72
16
 73
12
 74
10
 40
0.000000
 40
0.000000
 40
0.000000
 40
0.000000
 40
0.417696
 40
0.827355
 40
1.229004
 40
1.593039
 40
1.889748
 40
2.119127
 40
2.283461
 40
2.385124
 40
2.424248
 40
2.424248
 40
2.424248
 40
2.424248
 10
51.011291
 20
15.324952
 30
0.0
 10
51.124997
 20
15.405306
 30
0.0
 10
51.350220
 20
15.564467
 30
0.0
 10
51.687237
 20
15.797394
 30
0.0
 10
52.011696
 20
16.016984
 30
0.0
 10
52.305885
 20
16.214132
 30
0.0
 10
52.552514
 20
16.379045
 30
0.0
 10
52.743466
 20
16.507608
 30
0.0
 10
52.881819
 20
16.597539
 30
0.0
 10
52.966151
 20
16.654791
 30
0.0
 10
53.008028
 20
16.676026
 30
0.0
 10
53.019666
 20
16.681927
 30
0.0
 11
51.011291
 21
15.324952
 31
0.0
 11
51.352829
 21
15.565413
 31
0.0
 11
51.689813
 21
15.798355
 31
0.0
 11
52.022260
 21
16.023746
 31
0.0
 11
52.324560
 21
16.226565
 31
0.0
 11
52.571086
 21
16.391677
 31
0.0
 11
52.761818
 21
16.519096
 31
0.0
 11
52.899028
 21
16.609535
 31
0.0
 11
52.984982
 21
16.663823
 31
0.0
 11
53.019666
 21
16.681927
 31
0.0
  0
LWPOLYLINE
  5
1c3
100
AcDbEntity
  8
0
 62
7
100
AcDbPolyline
 90
2
 70
0
 10
49.328654
 20
18.337438
 30
0.0
 10
49.342217
 20
18.337438
 30
0.0
  0
SPLINE
  5
1c4
100
AcDbEntity
  8
0
 62
7
100
AcDbSpline
 70
0
 71
3
 72
13
 73
9
 74
7
 40
0.000000
 40
0.000000
 40
0.000000
 40
0.000000
 40
0.053892
 40
0.108969
 40
0.167778
 40
0.225718
 40
0.276895
 40
0.322149
 40
0.322149
 40
0.322149
 40
0.322149
 10
49.342217
 20
18.337438
 30
0.0
 10
49.360217
 20
18.336258
 30
0.0
 10
49.396614
 20
18.333871
 30
0.0
 10
49.449820
 20
18.314421
 30
0.0
 10
49.498780
 20
18.284288
 30
0.0
 10
49.542314
 20
18.249031
 30
0.0
 10
49.579635
 20
18.213253
 30
0.0
 10
49.598154
 20
18.186900
 30
0.0
 10
49.606845
 20
18.174532
 30
0.0
 11
49.342217
 21
18.337438
 31
0.0
 11
49.395768
 21
18.331391
 31
0.0
 11
49.447779
 21
18.313270
 31
0.0
 11
49.498266
 21
18.283111
 31
0.0
 11
49.543529
 21
18.246940
 31
0.0
 11
49.579717
 21
18.210753
 31
0.0
 11
49.606845
 21
18.174532
 31
0.0
  0
LWPOLYLINE
  5
1c5
100
AcDbEntity
  8
0
 62
7
100
AcDbPolyline
 90
2
 70
0
 10
49.606845
 20
18.174532
 30
0.0
 10
49.640753
 20
18.120280
 30
0.0
  0
SPLINE
  5
1c6
100
AcDbEntity
  8
0
 62
7
100
AcDbSpline
 70
0
 71
3
 72
16
 73
12
 74
10
 40
0.000000
 40
0.000000
 40
0.000000
 40
0.000000
 40
0.202561
 40
0.427005
 40
0.678755
 40
0.923771
 40
1.125367
 40
1.284434
 40
1.407453
 40
1.499718
 40
1.561214
 40
1.561214
 40
1.561214
 40
1.561214
 10
49.640753
 20
18.120280
 30
0.0
 10
49.668444
 20
18.058501
 30
0.0
 10
49.726818
 20
17.928269
 30
0.0
 10
49.770747
 20
17.704569
 30
0.0
 10
49.786192
 20
17.464490
 30
0.0
 10
49.784194
 20
17.231611
 30
0.0
 10
49.775324
 20
17.029762
 30
0.0
 10
49.753141
 20
16.869820
 30
0.0
 10
49.726975
 20
16.747791
 30
0.0
 10
49.709182
 20
16.657264
 30
0.0
 10
49.699109
 20
16.607010
 30
0.0
 10
49.695080
 20
16.586911
 30
0.0
 11
49.640753
 21
18.120280
 31
0.0
 11
49.716909
 21
17.932581
 31
0.0
 11
49.764399
 21
17.713218
 31
0.0
 11
49.783239
 21
17.462175
 31
0.0
 11
49.782486
 21
17.217159
 31
0.0
 11
49.771183
 21
17.015880
 31
0.0
 11
49.749332
 21
16.858321
 31
0.0
 11
49.725220
 21
16.737689
 31
0.0
 11
49.707136
 21
16.647213
 31
0.0
 11
49.695080
 21
16.586911
 31
0.0
  0
SPLINE
  5
1c7
100
AcDbEntity
  8
0
 62
7
100
AcDbSpline
 70
0
 71
3
 72
16
 73
12
 74
10
 40
0.000000
 40
0.000000
 40
0.000000
 40
0.000000
 40
0.125438
 40
0.272888
 40
0.442424
 40
0.657046
 40
0.940247
 40
1.292340
 40
1.666497
 40
2.017244
 40
2.346886
 40
2.346886
 40
2.346886
 40
2.346886
 10
49.667954
 20
16.437643
 30
0.0
 10
49.654324
 20
16.398111
 30
0.0
 10
49.624674
 20
16.312110
 30
0.0
 10
49.571924
 20
16.174377
 30
0.0
 10
49.507521
 20
16.009271
 30
0.0
 10
49.416382
 20
15.806215
 30
0.0
 10
49.287944
 20
15.553648
 30
0.0
 10
49.130620
 20
15.256166
 30
0.0
 10
48.949244
 20
14.946188
 30
0.0
 10
48.749171
 20
14.656316
 30
0.0
 10
48.600225
 20
14.485096
 30
0.0
 10
48.528062
 20
14.402142
 30
0.0
 11
49.667954
 21
16.437643
 31
0.0
 11
49.626456
 21
16.319268
 31
0.0
 11
49.574425
 21
16.181303
 31
0.0
 11
49.511829
 21
16.023746
 31
0.0
 11
49.424401
 21
15.827739
 31
0.0
 11
49.297757
 21
15.574432
 31
0.0
 11
49.131915
 21
15.263843
 31
0.0
 11
48.941185
 21
14.941948
 31
0.0
 11
48.739890
 21
14.654715
 31
0.0
 11
48.528062
 21
14.402142
 31
0.0
  0
SPLINE
  5
1c8
100
AcDbEntity
  8
0
 62
7
100
AcDbSpline
 70
0
 71
3
 72
19
 73
15
 74
13
 40
0.000000
 40
0.000000
 40
0.000000
 40
0.000000
 40
0.490549
 40
0.805561
 40
0.986617
 40
1.057098
 40
1.145786
 40
1.256710
 40
1.400778
 40
1.588985
 40
1.822593
 40
2.092972
 40
2.391913
 40
2.720240
 40
2.720240
 40
2.720240
 40
2.720240
 10
48.528062
 20
14.402142
 30
0.0
 10
48.392708
 20
14.310052
 30
0.0
 10
48.170436
 20
14.158826
 30
0.0
 10
47.879873
 20
14.004684
 30
0.0
 10
47.662078
 20
14.025053
 30
0.0
 10
47.600328
 20
14.125755
 30
0.0
 10
47.572495
 20
14.211119
 30
0.0
 10
47.553720
 20
14.324788
 30
0.0
 10
47.550874
 20
14.472814
 30
0.0
 10
47.566675
 20
14.660974
 30
0.0
 10
47.598163
 20
14.889628
 30
0.0
 10
47.649930
 20
15.152385
 30
0.0
 10
47.725059
 20
15.442215
 30
0.0
 10
47.788962
 20
15.641332
 30
0.0
 10
47.822410
 20
15.745554
 30
0.0
 11
48.528062
 21
14.402142
 31
0.0
 11
48.116451
 21
14.135281
 31
0.0
 11
47.822435
 21
14.022200
 31
0.0
 11
47.646016
 21
14.062917
 31
0.0
 11
47.606081
 21
14.120992
 31
0.0
 11
47.576695
 21
14.204670
 31
0.0
 11
47.557857
 21
14.313983
 31
0.0
 11
47.553303
 21
14.457979
 31
0.0
 11
47.566882
 21
14.645695
 31
0.0
 11
47.598546
 21
14.877148
 31
0.0
 11
47.650557
 21
15.142477
 31
0.0
 11
47.725190
 21
15.431951
 31
0.0
 11
47.822410
 21
15.745554
 31
0.0
  0
SPLINE
  5
1c9
100
AcDbEntity
  8
0
 62
7
100
AcDbSpline
 70
0
 71
3
 72
10
 73
6
 74
4
 40
0.000000
 40
0.000000
 40
0.000000
 40
0.000000
 40
0.855895
 40
1.589422
 40
2.206406
 40
2.206406
 40
2.206406
 40
2.206406
 10
47.822410
 20
15.745554
 30
0.0
 10
47.911205
 20
16.016643
 30
0.0
 10
48.076100
 20
16.520062
 30
0.0
 10
48.357918
 20
17.201743
 30
0.0
 10
48.586476
 20
17.590080
 30
0.0
 10
48.690893
 20
17.767492
 30
0.0
 11
47.822410
 21
15.745554
 31
0.0
 11
48.099848
 21
16.555236
 31
0.0
 11
48.389343
 21
17.229221
 31
0.0
 11
48.690893
 21
17.767492
 31
0.0
  0
LWPOLYLINE
  5
1ca
100
AcDbEntity
  8
0
 62
7
100
AcDbPolyline
 90
2
 70
0
 10
49.695080
 20
16.586911
 30
0.0
 10
49.667954
 20
16.437643
 30
0.0
  0
SPLINE
  5
1cb
100
AcDbEntity
  8
0
 62
7
100
AcDbSpline
 70
0
 71
3
 72
10
 73
6
 74
4
 40
0.000000
 40
0.000000
 40
0.000000
 40
0.000000
 40
0.393531
 40
0.678642
 40
0.880313
 40
0.880313
 40
0.880313
 40
0.880313
 10
48.690893
 20
17.767492
 30
0.0
 10
48.765067
 20
17.874448
 30
0.0
 10
48.892980
 20
18.058893
 30
0.0
 10
49.102073
 20
18.281740
 30
0.0
 10
49.262280
 20
18.321122
 30
0.0
 10
49.328654
 20
18.337438
 30
0.0
 11
48.690893
 21
17.767492
 31
0.0
 11
48.924605
 21
18.084107
 31
0.0
 11
49.137187
 21
18.274100
 31
0.0
 11
49.328654
 21
18.337438
 31
0.0
  0
SPLINE
  5
1cc
100
AcDbEntity
  8
0
 62
7
100
AcDbSpline
 70
0
 71
3
 72
22
 73
18
 74
16
 40
0.000000
 40
0.000000
 40
0.000000
 40
0.000000
 40
0.284553
 40
0.518050
 40
0.732489
 40
0.869719
 40
1.030734
 40
1.220239
 40
1.453606
 40
1.745662
 40
2.097958
 40
2.534775
 40
3.082170
 40
3.742142
 40
4.502045
 40
5.349073
 40
6.284004
 40
6.284004
 40
6.284004
 40
6.284004
 10
45.827674
 20
9.191399
 30
0.0
 10
45.739678
 20
9.228228
 30
0.0
 10
45.579474
 20
9.295276
 30
0.0
 10
45.395982
 20
9.465896
 30
0.0
 10
45.318172
 20
9.652960
 30
0.0
 10
45.319447
 20
9.825677
 30
0.0
 10
45.351326
 20
9.985665
 30
0.0
 10
45.415384
 20
10.170039
 30
0.0
 10
45.520801
 20
10.384290
 30
0.0
 10
45.672868
 20
10.634436
 30
0.0
 10
45.873727
 20
10.933914
 30
0.0
 10
46.152249
 20
11.282382
 30
0.0
 10
46.527050
 20
11.682698
 30
0.0
 10
46.995479
 20
12.141793
 30
0.0
 10
47.554933
 20
12.649964
 30
0.0
 10
48.200099
 20
13.199442
 30
0.0
 10
48.664382
 20
13.569975
 30
0.0
 10
48.907975
 20
13.764381
 30
0.0
 11
45.827674
 21
9.191399
 31
0.0
 11
45.572866
 21
9.318062
 31
0.0
 11
45.405514
 21
9.480893
 31
0.0
 11
45.325618
 21
9.679892
 31
0.0
 11
45.323358
 21
9.817104
 31
0.0
 11
45.352744
 21
9.975414
 31
0.0
 11
45.413777
 21
10.154822
 31
0.0
 11
45.514821
 21
10.365180
 31
0.0
 11
45.664090
 21
10.616209
 31
0.0
 11
45.861581
 21
10.907944
 31
0.0
 11
46.132997
 21
11.250205
 31
0.0
 11
46.503908
 21
11.652780
 31
0.0
 11
46.974348
 21
12.115651
 31
0.0
 11
47.535955
 21
12.627559
 31
0.0
 11
48.180498
 21
13.177124
 31
0.0
 11
48.907975
 21
13.764381
 31
0.0
  0
LWPOLYLINE
  5
1cd
100
AcDbEntity
  8
0
 62
7
100
AcDbPolyline
 90
1
 70
1
 10
49.328654
 20
18.337438
 30
0.0
  0
LWPOLYLINE
  5
1ce
100
AcDbEntity
  8
0
 62
7
100
AcDbPolyline
 90
3
 70
0
 10
45.827674
 20
9.204962
 30
0.0
 10
45.827674
 20
9.191399
 30
0.0
 10
45.827674
 20
9.191399
 30
0.0
  0
SPLINE
  5
1cf
100
AcDbEntity
  8
0
 62
7
100
AcDbSpline
 70
0
 71
3
 72
10
 73
6
 74
4
 40
0.000000
 40
0.000000
 40
0.000000
 40
0.000000
 40
2.456770
 40
4.290911
 40
5.617751
 40
5.617751
 40
5.617751
 40
5.617751
 10
48.907975
 20
13.764381
 30
0.0
 10
48.600576
 20
13.009688
 30
0.0
 10
48.063684
 20
11.691568
 30
0.0
 10
47.099739
 20
10.023901
 30
0.0
 10
46.203764
 20
9.447084
 30
0.0
 10
45.827674
 20
9.204962
 30
0.0
 11
48.907975
 21
13.764381
 31
0.0
 11
47.920418
 21
11.514837
 31
0.0
 11
46.893645
 21
9.995030
 31
0.0
 11
45.827674
 21
9.204962
 31
0.0
  0
SPLINE
  5
1d0
100
AcDbEntity
  8
0
 62
7
100
AcDbSpline
 70
0
 71
3
 72
28
 73
24
 74
22
 40
0.000000
 40
0.000000
 40
0.000000
 40
0.000000
 40
0.096594
 40
0.232139
 40
0.406777
 40
0.638973
 40
0.947323
 40
1.331986
 40
1.748734
 40
2.153624
 40
2.547457
 40
2.937453
 40
3.333188
 40
3.738495
 40
4.127886
 40
4.481189
 40
4.812071
 40
4.866409
 40
4.921429
 40
4.977786
 40
5.126862
 40
5.261789
 40
5.388731
 40
5.388731
 40
5.388731
 40
5.388731
 10
56.982012
 20
16.926136
 30
0.0
 10
56.969731
 20
16.896364
 30
0.0
 10
56.940216
 20
16.824814
 30
0.0
 10
56.879891
 20
16.703296
 30
0.0
 10
56.797811
 20
16.542218
 30
0.0
 10
56.680966
 20
16.334330
 30
0.0
 10
56.521555
 20
16.070305
 30
0.0
 10
56.326341
 20
15.756081
 30
0.0
 10
56.105673
 20
15.419804
 30
0.0
 10
55.867436
 20
15.091949
 30
0.0
 10
55.622888
 20
14.779995
 30
0.0
 10
55.357314
 20
14.489181
 30
0.0
 10
55.058521
 20
14.226664
 30
0.0
 10
54.738136
 20
13.991875
 30
0.0
 10
54.404603
 20
13.800811
 30
0.0
 10
54.064167
 20
13.684274
 30
0.0
 10
53.817484
 20
13.651540
 30
0.0
 10
53.670634
 20
13.657732
 30
0.0
 10
53.616127
 20
13.667237
 30
0.0
 10
53.531884
 20
13.689585
 30
0.0
 10
53.433615
 20
13.749034
 30
0.0
 10
53.323979
 20
13.833133
 30
0.0
 10
53.274363
 20
13.905631
 30
0.0
 10
53.250311
 20
13.940775
 30
0.0
 11
56.982012
 21
16.926136
 31
0.0
 11
56.944318
 21
16.837201
 31
0.0
 11
56.885509
 21
16.715078
 31
0.0
 11
56.805618
 21
16.559785
 31
0.0
 11
56.692518
 21
16.356996
 31
0.0
 11
56.534208
 21
16.092387
 31
0.0
 11
56.330688
 21
15.765974
 31
0.0
 11
56.100740
 21
15.418408
 31
0.0
 11
55.863274
 21
15.090466
 31
0.0
 11
55.618256
 21
14.782131
 31
0.0
 11
55.353627
 21
14.495654
 31
0.0
 11
55.057351
 21
14.233305
 31
0.0
 11
54.729429
 21
13.995102
 31
0.0
 11
54.388694
 21
13.806622
 31
0.0
 11
54.053970
 21
13.693558
 31
0.0
 11
53.725241
 21
13.655877
 31
0.0
 11
53.670987
 21
13.658891
 31
0.0
 11
53.616715
 21
13.667933
 31
0.0
 11
53.562410
 21
13.683003
 31
0.0
 11
53.431246
 21
13.753852
 31
0.0
 11
53.327224
 21
13.839787
 31
0.0
 11
53.250311
 21
13.940775
 31
0.0
  0
SPLINE
  5
1d1
100
AcDbEntity
  8
0
 62
7
100
AcDbSpline
 70
0
 71
3
 72
10
 73
6
 74
4
 40
0.000000
 40
0.000000
 40
0.000000
 40
0.000000
 40
0.561435
 40
1.366956
 40
2.486076
 40
2.486076
 40
2.486076
 40
2.486076
 10
53.250311
 20
13.940775
 30
0.0
 10
53.193549
 20
14.122405
 30
0.0
 10
53.055348
 20
14.564628
 30
0.0
 10
53.291100
 20
15.395092
 30
0.0
 10
53.548465
 20
15.977088
 30
0.0
 10
53.698116
 20
16.315501
 30
0.0
 11
53.250311
 21
13.940775
 31
0.0
 11
53.125206
 21
14.488094
 31
0.0
 11
53.274474
 21
15.279664
 31
0.0
 11
53.698116
 21
16.315501
 31
0.0
  0
SPLINE
  5
1d2
100
AcDbEntity
  8
0
 62
7
100
AcDbSpline
 70
0
 71
3
 72
22
 73
18
 74
16
 40
0.000000
 40
0.000000
 40
0.000000
 40
0.000000
 40
0.128206
 40
0.259701
 40
0.394742
 40
0.541743
 40
0.709589
 40
0.898908
 40
1.104722
 40
1.324664
 40
1.562126
 40
1.809031
 40
2.058076
 40
2.312996
 40
2.689426
 40
3.042263
 40
3.421891
 40
3.421891
 40
3.421891
 40
3.421891
 10
53.698116
 20
16.315501
 30
0.0
 10
53.740856
 20
16.316085
 30
0.0
 10
53.827432
 20
16.317268
 30
0.0
 10
53.958716
 20
16.326934
 30
0.0
 10
54.095823
 20
16.341582
 30
0.0
 10
54.243659
 20
16.367731
 30
0.0
 10
54.406440
 20
16.409858
 30
0.0
 10
54.586346
 20
16.463509
 30
0.0
 10
54.776705
 20
16.541324
 30
0.0
 10
54.967331
 20
16.654596
 30
0.0
 10
55.155350
 20
16.795805
 30
0.0
 10
55.333992
 20
16.963641
 30
0.0
 10
55.492723
 20
17.158029
 30
0.0
 10
55.652681
 20
17.404473
 30
0.0
 10
55.778267
 20
17.713248
 30
0.0
 10
55.776624
 20
18.096137
 30
0.0
 10
55.667850
 20
18.317598
 30
0.0
 10
55.611474
 20
18.432379
 30
0.0
 11
53.698116
 21
16.315501
 31
0.0
 11
53.826286
 21
16.318515
 31
0.0
 11
53.957470
 21
16.327557
 31
0.0
 11
54.091668
 21
16.342627
 31
0.0
 11
54.236415
 21
16.368265
 31
0.0
 11
54.399246
 21
16.408990
 31
0.0
 11
54.580161
 21
16.464769
 31
0.0
 11
54.770137
 21
16.543942
 31
0.0
 11
54.960130
 21
16.654745
 31
0.0
 11
55.150107
 21
16.797212
 31
0.0
 11
55.329515
 21
16.966844
 31
0.0
 11
55.487825
 21
17.159098
 31
0.0
 11
55.625037
 21
17.373940
 31
0.0
 11
55.756196
 21
17.726781
 31
0.0
 11
55.751675
 21
18.079588
 31
0.0
 11
55.611474
 21
18.432379
 31
0.0
  0
LWPOLYLINE
  5
1d3
100
AcDbEntity
  8
0
 62
7
100
AcDbPolyline
 90
2
 70
0
 10
57.294111
 20
16.776868
 30
0.0
 10
56.982012
 20
16.926136
 30
0.0
  0
SPLINE
  5
1d4
100
AcDbEntity
  8
0
 62
7
100
AcDbSpline
 70
0
 71
3
 72
10
 73
6
 74
4
 40
0.000000
 40
0.000000
 40
0.000000
 40
0.000000
 40
0.358632
 40
0.693800
 40
1.049254
 40
1.049254
 40
1.049254
 40
1.049254
 10
55.611474
 20
18.432379
 30
0.0
 10
55.544188
 20
18.532286
 30
0.0
 10
55.414017
 20
18.725563
 30
0.0
 10
55.105259
 20
18.917300
 30
0.0
 10
54.875044
 20
18.946571
 30
0.0
 10
54.756555
 20
18.961636
 30
0.0
 11
55.611474
 21
18.432379
 31
0.0
 11
55.389845
 21
18.714333
 31
0.0
 11
55.104872
 21
18.890763
 31
0.0
 11
54.756555
 21
18.961636
 31
0.0
  0
SPLINE
  5
1d5
100
AcDbEntity
  8
0
 62
7
100
AcDbSpline
 70
0
 71
3
 72
19
 73
15
 74
13
 40
0.000000
 40
0.000000
 40
0.000000
 40
0.000000
 40
0.258412
 40
0.562943
 40
0.929529
 40
1.339207
 40
1.768557
 40
2.221173
 40
2.691633
 40
3.174183
 40
3.671520
 40
4.156187
 40
4.602174
 40
5.014824
 40
5.014824
 40
5.014824
 40
5.014824
 10
54.729429
 20
18.961636
 30
0.0
 10
54.643206
 20
18.952017
 30
0.0
 10
54.455373
 20
18.931062
 30
0.0
 10
54.175423
 20
18.785838
 30
0.0
 10
53.885956
 20
18.571660
 30
0.0
 10
53.592401
 20
18.295600
 30
0.0
 10
53.306806
 20
17.972824
 30
0.0
 10
53.038467
 20
17.609890
 30
0.0
 10
52.789870
 20
17.212183
 30
0.0
 10
52.566111
 20
16.783162
 30
0.0
 10
52.370706
 20
16.335270
 30
0.0
 10
52.214377
 20
15.885340
 30
0.0
 10
52.106535
 20
15.449114
 30
0.0
 10
52.081677
 20
15.163620
 30
0.0
 10
52.069730
 20
15.026416
 30
0.0
 11
54.729429
 21
18.961636
 31
0.0
 11
54.474615
 21
18.918662
 31
0.0
 11
54.198720
 21
18.789738
 31
0.0
 11
53.901711
 21
18.574866
 31
0.0
 11
53.601668
 21
18.295920
 31
0.0
 11
53.316695
 21
17.974779
 31
0.0
 11
53.046792
 21
17.611443
 31
0.0
 11
52.797252
 21
17.212616
 31
0.0
 11
52.573349
 21
16.785156
 31
0.0
 11
52.375048
 21
16.329064
 31
0.0
 11
52.217511
 21
15.870713
 31
0.0
 11
52.115749
 21
15.436492
 31
0.0
 11
52.069730
 21
15.026416
 31
0.0
  0
LWPOLYLINE
  5
1d6
100
AcDbEntity
  8
0
 62
7
100
AcDbPolyline
 90
2
 70
0
 10
54.756555
 20
18.961636
 30
0.0
 10
54.729429
 20
18.961636
 30
0.0
  0
SPLINE
  5
1d7
100
AcDbEntity
  8
0
 62
7
100
AcDbSpline
 70
0
 71
3
 72
19
 73
15
 74
13
 40
0.000000
 40
0.000000
 40
0.000000
 40
0.000000
 40
0.479498
 40
0.901057
 40
1.291985
 40
1.679720
 40
2.093995
 40
2.565075
 40
2.673821
 40
2.782400
 40
2.891146
 40
2.989687
 40
3.067771
 40
3.125976
 40
3.125976
 40
3.125976
 40
3.125976
 10
52.069730
 20
15.026416
 30
0.0
 10
52.071205
 20
14.866042
 30
0.0
 10
52.073976
 20
14.564673
 30
0.0
 10
52.193023
 20
14.144668
 30
0.0
 10
52.405989
 20
13.799266
 30
0.0
 10
52.715144
 20
13.538501
 30
0.0
 10
53.111757
 20
13.372828
 30
0.0
 10
53.441839
 20
13.323218
 30
0.0
 10
53.670889
 20
13.309442
 30
0.0
 10
53.779651
 20
13.309569
 30
0.0
 10
53.884853
 20
13.315399
 30
0.0
 10
53.979377
 20
13.325616
 30
0.0
 10
54.057028
 20
13.337358
 30
0.0
 10
54.100309
 20
13.351361
 30
0.0
 10
54.118794
 20
13.357341
 30
0.0
 11
52.069730
 21
15.026416
 31
0.0
 11
52.096881
 21
14.547687
 31
0.0
 11
52.214502
 21
14.142869
 31
0.0
 11
52.422593
 21
13.811927
 31
0.0
 11
52.718085
 21
13.560884
 31
0.0
 11
53.098035
 21
13.395772
 31
0.0
 11
53.562410
 21
13.316577
 31
0.0
 11
53.670990
 21
13.310549
 31
0.0
 11
53.779569
 21
13.310549
 31
0.0
 11
53.888148
 21
13.316577
 31
0.0
 11
53.986122
 21
13.327129
 31
0.0
 11
54.063015
 21
13.340711
 31
0.0
 11
54.118794
 21
13.357341
 31
0.0
  0
LWPOLYLINE
  5
1d8
100
AcDbEntity
  8
0
 62
7
100
AcDbPolyline
 90
2
 70
0
 10
54.118794
 20
13.357341
 30
0.0
 10
54.200247
 20
13.370904
 30
0.0
  0
SPLINE
  5
1d9
100
AcDbEntity
  8
0
 62
7
100
AcDbSpline
 70
0
 71
3
 72
22
 73
18
 74
16
 40
0.000000
 40
0.000000
 40
0.000000
 40
0.000000
 40
0.348424
 40
0.723841
 40
1.133006
 40
1.547503
 40
1.936160
 40
2.301067
 40
2.664571
 40
3.047924
 40
3.451729
 40
3.823161
 40
4.109039
 40
4.309474
 40
4.460513
 40
4.598098
 40
4.722298
 40
4.722298
 40
4.722298
 40
4.722298
 10
54.200247
 20
13.370904
 30
0.0
 10
54.310671
 20
13.407585
 30
0.0
 10
54.540075
 20
13.483788
 30
0.0
 10
54.871429
 20
13.669200
 30
0.0
 10
55.195669
 20
13.903559
 30
0.0
 10
55.503024
 20
14.166458
 30
0.0
 10
55.783254
 20
14.437243
 30
0.0
 10
56.028415
 20
14.718080
 30
0.0
 10
56.252025
 20
15.013793
 30
0.0
 10
56.471804
 20
15.328253
 30
0.0
 10
56.678964
 20
15.654294
 30
0.0
 10
56.862259
 20
15.956802
 30
0.0
 10
57.008013
 20
16.202783
 30
0.0
 10
57.111242
 20
16.388543
 30
0.0
 10
57.183927
 20
16.534485
 30
0.0
 10
57.243325
 20
16.658640
 30
0.0
 10
57.277770
 20
16.738825
 30
0.0
 10
57.294111
 20
16.776868
 30
0.0
 11
54.200247
 21
13.370904
 31
0.0
 11
54.527416
 21
13.490736
 31
0.0
 11
54.857599
 21
13.669390
 31
0.0
 11
55.190796
 21
13.906868
 31
0.0
 11
55.506662
 21
14.175264
 31
0.0
 11
55.784854
 21
14.446674
 31
0.0
 11
56.025371
 21
14.721098
 31
0.0
 11
56.246241
 21
15.009805
 31
0.0
 11
56.465620
 21
15.324181
 31
0.0
 11
56.683476
 21
15.664177
 31
0.0
 11
56.876447
 21
15.981547
 31
0.0
 11
57.021194
 21
16.228072
 31
0.0
 11
57.117717
 21
16.403735
 31
0.0
 11
57.185552
 21
16.538684
 31
0.0
 11
57.244361
 21
16.663067
 31
0.0
 11
57.294111
 21
16.776868
 31
0.0
  0
SPLINE
  5
1da
100
AcDbEntity
  8
0
 62
7
100
AcDbSpline
 70
0
 71
3
 72
10
 73
6
 74
4
 40
0.000000
 40
0.000000
 40
0.000000
 40
0.000000
 40
0.592669
 40
1.158940
 40
1.772777
 40
1.772777
 40
1.772777
 40
1.772777
 10
55.340064
 20
17.550334
 30
0.0
 10
55.229015
 20
17.384850
 30
0.0
 10
55.011862
 20
17.061255
 30
0.0
 10
54.485340
 20
16.745189
 30
0.0
 10
54.092490
 20
16.694651
 30
0.0
 10
53.888148
 20
16.668364
 30
0.0
 11
55.340064
 21
17.550334
 31
0.0
 11
54.973688
 21
17.084474
 31
0.0
 11
54.489716
 21
16.790478
 31
0.0
 11
53.888148
 21
16.668364
 31
0.0
  0
SPLINE
  5
1db
100
AcDbEntity
  8
0
 62
7
100
AcDbSpline
 70
0
 71
3
 72
10
 73
6
 74
4
 40
0.000000
 40
0.000000
 40
0.000000
 40
0.000000
 40
0.133524
 40
0.267086
 40
0.400678
 40
0.400678
 40
0.400678
 40
0.400678
 10
53.888148
 20
16.668364
 30
0.0
 10
53.909247
 20
16.707553
 30
0.0
 10
53.951452
 20
16.785942
 30
0.0
 10
54.014758
 20
16.903545
 30
0.0
 10
54.056987
 20
16.981947
 30
0.0
 10
54.078105
 20
17.021152
 30
0.0
 11
53.888148
 21
16.668364
 31
0.0
 11
53.951444
 21
16.785932
 31
0.0
 11
54.014758
 21
16.903534
 31
0.0
 11
54.078105
 21
17.021152
 31
0.0
  0
SPLINE
  5
1dc
100
AcDbEntity
  8
0
 62
7
100
AcDbSpline
 70
0
 71
3
 72
19
 73
15
 74
13
 40
0.000000
 40
0.000000
 40
0.000000
 40
0.000000
 40
0.423523
 40
0.794873
 40
1.115173
 40
1.372727
 40
1.555067
 40
1.663394
 40
1.728818
 40
1.780384
 40
1.821104
 40
1.876609
 40
1.928196
 40
1.977418
 40
1.977418
 40
1.977418
 40
1.977418
 10
54.078105
 20
17.021152
 30
0.0
 10
54.150313
 20
17.142479
 30
0.0
 10
54.285834
 20
17.370187
 30
0.0
 10
54.493219
 20
17.679018
 30
0.0
 10
54.686809
 20
17.929530
 30
0.0
 10
54.853397
 20
18.120724
 30
0.0
 10
54.978186
 20
18.253963
 30
0.0
 10
55.067863
 20
18.333026
 30
0.0
 10
55.136448
 20
18.365993
 30
0.0
 10
55.186077
 20
18.380664
 30
0.0
 10
55.239268
 20
18.383955
 30
0.0
 10
55.271350
 20
18.340077
 30
0.0
 10
55.305423
 20
18.301925
 30
0.0
 10
55.319586
 20
18.271057
 30
0.0
 10
55.326501
 20
18.255985
 30
0.0
 11
54.078105
 21
17.021152
 31
0.0
 11
54.298221
 21
17.382982
 31
0.0
 11
54.506298
 21
17.690560
 31
0.0
 11
54.702303
 21
17.943886
 31
0.0
 11
54.871159
 21
18.138364
 31
0.0
 11
54.997803
 21
18.269548
 31
0.0
 11
55.082217
 21
18.337438
 31
0.0
 11
55.141043
 21
18.366071
 31
0.0
 11
55.190793
 21
18.379634
 31
0.0
 11
55.231485
 21
18.378127
 31
0.0
 11
55.272227
 21
18.340433
 31
0.0
 11
55.303893
 21
18.299708
 31
0.0
 11
55.326501
 21
18.255985
 31
0.0
  0
LWPOLYLINE
  5
1dd
100
AcDbEntity
  8
0
 62
7
100
AcDbPolyline
 90
1
 70
1
 10
57.294111
 20
16.776868
 30
0.0
  0
SPLINE
  5
1de
100
AcDbEntity
  8
0
 62
7
100
AcDbSpline
 70
0
 71
3
 72
10
 73
6
 74
4
 40
0.000000
 40
0.000000
 40
0.000000
 40
0.000000
 40
0.252566
 40
0.487815
 40
0.737230
 40
0.737230
 40
0.737230
 40
0.737230
 10
55.326501
 20
18.255985
 30
0.0
 10
55.363169
 20
18.179481
 30
0.0
 10
55.433992
 20
18.031720
 30
0.0
 10
55.439389
 20
17.776206
 30
0.0
 10
55.373811
 20
17.627077
 30
0.0
 10
55.340064
 20
17.550334
 30
0.0
 11
55.326501
 21
18.255985
 31
0.0
 11
55.418478
 21
18.020762
 31
0.0
 11
55.422999
 21
17.785556
 31
0.0
 11
55.340064
 21
17.550334
 31
0.0
  0
LWPOLYLINE
  5
1df
100
AcDbEntity
  8
0
 62
7
100
AcDbPolyline
 90
1
 70
1
 10
55.340064
 20
17.550334
 30
0.0
  0
SPLINE
  5
1e0
100
AcDbEntity
  8
0
 62
7
100
AcDbSpline
 70
0
 71
3
 72
16
 73
12
 74
10
 40
0.000000
 40
0.000000
 40
0.000000
 40
0.000000
 40
1.041352
 40
3.605297
 40
7.051914
 40
7.803287
 40
8.874123
 40
10.068110
 40
11.587070
 40
12.740004
 40
13.198970
 40
13.198970
 40
13.198970
 40
13.198970
 10
68.163439
 20
18.595410
 30
0.0
 10
68.134404
 20
18.248326
 30
0.0
 10
68.033880
 20
17.046678
 30
0.0
 10
68.590221
 20
14.727949
 30
0.0
 10
69.823744
 20
12.676374
 30
0.0
 10
71.329570
 20
11.752008
 30
0.0
 10
72.262680
 20
11.370676
 30
0.0
 10
73.473606
 20
11.008427
 30
0.0
 10
74.751062
 20
10.815438
 30
0.0
 10
75.791027
 20
10.722650
 30
0.0
 10
76.328167
 20
10.707082
 30
0.0
 10
76.481111
 20
10.702650
 30
0.0
 11
68.163439
 21
18.595410
 31
0.0
 11
68.108449
 21
17.555510
 31
0.0
 11
68.633816
 21
15.045968
 31
0.0
 11
70.607945
 21
12.220727
 31
0.0
 11
71.245569
 21
11.823240
 31
0.0
 11
72.229980
 21
11.401785
 31
0.0
 11
73.375077
 21
11.063614
 31
0.0
 11
74.873500
 21
10.814682
 31
0.0
 11
76.022420
 21
10.718558
 31
0.0
 11
76.481111
 21
10.702650
 31
0.0
  0
LWPOLYLINE
  5
1e1
100
AcDbEntity
  8
0
 62
7
100
AcDbPolyline
 90
2
 70
0
 10
76.481111
 20
10.702650
 30
0.0
 10
76.612476
 20
13.258121
 30
0.0
  0
LWPOLYLINE
  5
1e2
100
AcDbEntity
  8
0
 62
7
100
AcDbPolyline
 90
1
 70
1
 10
68.163439
 20
18.595410
 30
0.0
  0
SPLINE
  5
1e3
100
AcDbEntity
  8
0
 62
7
100
AcDbSpline
 70
0
 71
3
 72
19
 73
15
 74
13
 40
0.000000
 40
0.000000
 40
0.000000
 40
0.000000
 40
0.534457
 40
1.697097
 40
2.828207
 40
3.868449
 40
4.923439
 40
5.405953
 40
5.849328
 40
6.926559
 40
8.259304
 40
9.381592
 40
10.196205
 40
10.502719
 40
10.502719
 40
10.502719
 40
10.502719
 10
76.612476
 20
13.258121
 30
0.0
 10
76.481669
 20
13.379083
 30
0.0
 10
76.066308
 20
13.763182
 30
0.0
 10
75.388698
 20
14.418181
 30
0.0
 10
74.595034
 20
15.198300
 30
0.0
 10
73.970094
 20
16.085098
 30
0.0
 10
73.432966
 20
16.729662
 30
0.0
 10
73.153254
 20
17.392023
 30
0.0
 10
72.441033
 20
17.501578
 30
0.0
 10
71.580717
 20
17.848201
 30
0.0
 10
70.431052
 20
18.152217
 30
0.0
 10
69.371213
 20
18.395486
 30
0.0
 10
68.635015
 20
18.531577
 30
0.0
 10
68.264687
 20
18.581705
 30
0.0
 10
68.163439
 20
18.595410
 30
0.0
 11
76.612476
 21
13.258121
 31
0.0
 11
76.220923
 21
13.621894
 31
0.0
 11
75.382050
 21
14.426894
 31
0.0
 11
74.599536
 21
15.243645
 31
0.0
 11
73.965374
 21
16.068230
 31
0.0
 11
73.362300
 21
16.933854
 31
0.0
 11
73.093828
 21
17.334781
 31
0.0
 11
72.673391
 21
17.475545
 31
0.0
 11
71.646218
 21
17.800111
 31
0.0
 11
70.363516
 21
18.161890
 31
0.0
 11
69.268871
 21
18.409443
 31
0.0
 11
68.467000
 21
18.552958
 31
0.0
 11
68.163439
 21
18.595410
 31
0.0
  0
LWPOLYLINE
  5
1e4
100
AcDbEntity
  8
0
 62
7
100
AcDbPolyline
 90
4
 70
1
 10
62.193197
 20
24.217780
 30
0.0
 10
59.923820
 20
25.230507
 30
0.0
 10
61.634171
 20
22.453538
 30
0.0
 10
62.193197
 20
24.217780
 30
0.0
  0
SPLINE
  5
1e5
100
AcDbEntity
  8
0
 62
7
100
AcDbSpline
 70
0
 71
3
 72
37
 73
33
 74
31
 40
0.000000
 40
0.000000
 40
0.000000
 40
0.000000
 40
0.453461
 40
1.459588
 40
2.487951
 40
3.545796
 40
4.670589
 40
5.194143
 40
5.429563
 40
6.207210
 40
7.644034
 40
8.691989
 40
9.954316
 40
11.344469
 40
13.079783
 40
14.874898
 40
16.924307
 40
18.769061
 40
20.122096
 40
21.221000
 40
21.535043
 40
21.863058
 40
22.190778
 40
22.550960
 40
22.912910
 40
23.286571
 40
26.396633
 40
30.408851
 40
35.295558
 40
37.564179
 40
39.365573
 40
40.116329
 40
40.116329
 40
40.116329
 40
40.116329
 10
67.889611
 20
18.967731
 30
0.0
 10
68.039085
 20
18.945905
 30
0.0
 10
68.520206
 20
18.875651
 30
0.0
 10
69.342776
 20
18.738108
 30
0.0
 10
70.338371
 20
18.564356
 30
0.0
 10
71.438342
 20
18.195788
 30
0.0
 10
72.055269
 20
18.111503
 30
0.0
 10
73.065315
 20
17.595809
 30
0.0
 10
72.640283
 20
18.137245
 30
0.0
 10
72.392062
 20
18.797534
 30
0.0
 10
71.868020
 20
19.826596
 30
0.0
 10
71.636650
 20
21.046820
 30
0.0
 10
71.450363
 20
22.272035
 30
0.0
 10
70.842071
 20
23.629169
 30
0.0
 10
69.677813
 20
24.833796
 30
0.0
 10
67.993846
 20
25.699957
 30
0.0
 10
66.098425
 20
25.983029
 30
0.0
 10
64.324959
 20
25.898983
 30
0.0
 10
62.985933
 20
25.330484
 30
0.0
 10
62.284676
 20
24.673873
 30
0.0
 10
62.055297
 20
24.133217
 30
0.0
 10
62.016630
 20
23.810903
 30
0.0
 10
61.958502
 20
23.476113
 30
0.0
 10
61.825150
 20
23.151041
 30
0.0
 10
61.672782
 20
22.817839
 30
0.0
 10
61.417515
 20
21.555693
 30
0.0
 10
61.281339
 20
19.050746
 30
0.0
 10
61.748306
 20
15.032933
 30
0.0
 10
63.674418
 20
11.643683
 30
0.0
 10
66.053589
 20
9.790907
 30
0.0
 10
67.527426
 20
9.119961
 30
0.0
 10
68.342650
 20
8.876548
 30
0.0
 10
68.582461
 20
8.804944
 30
0.0
 11
67.889611
 21
18.967731
 31
0.0
 11
68.338172
 21
18.901245
 31
0.0
 11
69.331113
 21
18.738887
 31
0.0
 11
70.339326
 21
18.536310
 31
0.0
 11
71.356655
 21
18.246354
 31
0.0
 11
72.428898
 21
17.906565
 31
0.0
 11
72.926264
 21
17.743055
 31
0.0
 11
72.799853
 21
17.941657
 31
0.0
 11
72.442652
 21
18.632412
 31
0.0
 11
71.887713
 21
19.957744
 31
0.0
 11
71.655308
 21
20.979605
 31
0.0
 11
71.403758
 21
22.216613
 31
0.0
 11
70.829341
 21
23.482541
 31
0.0
 11
69.636362
 21
24.742745
 31
0.0
 11
68.044304
 21
25.572075
 31
0.0
 11
66.025036
 21
25.922272
 31
0.0
 11
64.186800
 21
25.767346
 31
0.0
 11
62.950124
 21
25.218406
 31
0.0
 11
62.189767
 21
24.425028
 31
0.0
 11
62.071251
 21
24.134206
 31
0.0
 11
62.013772
 21
23.811267
 31
0.0
 11
61.949461
 21
23.489919
 31
0.0
 11
61.823213
 21
23.152587
 31
0.0
 11
61.687353
 21
22.817104
 31
0.0
 11
61.601083
 21
22.453538
 31
0.0
 11
61.375208
 21
19.351689
 31
0.0
 11
61.955961
 21
15.381724
 31
0.0
 11
64.436863
 21
11.171614
 31
0.0
 11
66.228402
 21
9.779841
 31
0.0
 11
67.866053
 21
9.029429
 31
0.0
 11
68.582461
 21
8.804944
 31
0.0
  0
LWPOLYLINE
  5
1e6
100
AcDbEntity
  8
0
 62
7
100
AcDbPolyline
 90
2
 70
0
 10
68.582461
 20
8.804944
 30
0.0
 10
66.869723
 20
5.964751
 30
0.0
  0
SPLINE
  5
1e7
100
AcDbEntity
  8
0
 62
7
100
AcDbSpline
 70
0
 71
3
 72
13
 73
9
 74
7
 40
0.000000
 40
0.000000
 40
0.000000
 40
0.000000
 40
0.044660
 40
0.128022
 40
0.204842
 40
0.294700
 40
0.355911
 40
0.378892
 40
0.378892
 40
0.378892
 40
0.378892
 10
66.869723
 20
5.964751
 30
0.0
 10
66.867648
 20
5.950180
 30
0.0
 10
66.861699
 20
5.908412
 30
0.0
 10
66.858019
 20
5.834061
 30
0.0
 10
66.936362
 20
5.776942
 30
0.0
 10
67.013934
 20
5.794774
 30
0.0
 10
67.070811
 20
5.804154
 30
0.0
 10
67.097244
 20
5.813764
 30
0.0
 10
67.104459
 20
5.816387
 30
0.0
 11
66.869723
 21
5.964751
 31
0.0
 11
66.863941
 21
5.920467
 31
0.0
 11
66.872274
 21
5.837523
 31
0.0
 11
66.933235
 21
5.790779
 31
0.0
 11
67.022958
 21
5.795714
 31
0.0
 11
67.082733
 21
5.808896
 31
0.0
 11
67.104459
 21
5.816387
 31
0.0
  0
LWPOLYLINE
  5
1e8
100
AcDbEntity
  8
0
 62
7
100
AcDbPolyline
 90
2
 70
0
 10
67.104459
 20
5.816387
 30
0.0
 10
70.182425
 20
8.386398
 30
0.0
  0
SPLINE
  5
1e9
100
AcDbEntity
  8
0
 62
7
100
AcDbSpline
 70
0
 71
3
 72
19
 73
15
 74
13
 40
0.000000
 40
0.000000
 40
0.000000
 40
0.000000
 40
0.654882
 40
1.989716
 40
3.062101
 40
5.196338
 40
6.702456
 40
7.293078
 40
8.628873
 40
11.578532
 40
14.779160
 40
18.122855
 40
20.753776
 40
21.892346
 40
21.892346
 40
21.892346
 40
21.892346
 10
70.182425
 20
8.386398
 30
0.0
 10
70.400632
 20
8.381351
 30
0.0
 10
71.063605
 20
8.366017
 30
0.0
 10
72.085586
 20
8.362986
 30
0.0
 10
73.594004
 20
8.389060
 30
0.0
 10
75.178997
 20
8.975513
 30
0.0
 10
76.193073
 20
9.641846
 30
0.0
 10
77.409200
 20
10.572826
 30
0.0
 10
74.538395
 20
10.135664
 30
0.0
 10
72.846409
 20
10.828399
 30
0.0
 10
69.565821
 20
12.104456
 30
0.0
 10
68.100556
 20
14.968489
 30
0.0
 10
67.717336
 20
17.337127
 30
0.0
 10
67.849647
 20
18.589464
 30
0.0
 10
67.889611
 20
18.967731
 30
0.0
 11
70.182425
 21
8.386398
 31
0.0
 11
70.837164
 21
8.372705
 31
0.0
 11
72.171989
 21
8.367708
 31
0.0
 11
73.242814
 21
8.425533
 31
0.0
 11
75.269323
 21
9.095029
 31
0.0
 11
76.536497
 21
9.909071
 31
0.0
 11
76.974423
 21
10.305371
 31
0.0
 11
75.639596
 21
10.356214
 31
0.0
 11
72.734044
 21
10.864407
 31
0.0
 11
69.906168
 21
12.363449
 31
0.0
 11
68.184754
 21
15.229987
 31
0.0
 11
67.800317
 21
17.832668
 31
0.0
 11
67.889611
 21
18.967731
 31
0.0
  0
LWPOLYLINE
  5
1ea
100
AcDbEntity
  8
0
 62
7
100
AcDbPolyline
 90
1
 70
1
 10
67.889611
 20
18.967731
 30
0.0
  0
SPLINE
  5
1eb
100
AcDbEntity
  8
0
 62
7
100
AcDbSpline
 70
0
 71
3
 72
28
 73
24
 74
22
 40
0.000000
 40
0.000000
 40
0.000000
 40
0.000000
 40
0.700593
 40
1.949604
 40
2.617343
 40
3.198623
 40
4.592068
 40
6.278098
 40
7.499273
 40
8.425739
 40
9.028807
 40
9.580339
 40
10.131754
 40
10.868800
 40
12.045106
 40
12.722397
 40
13.253371
 40
14.356279
 40
15.696571
 40
16.956361
 40
18.211329
 40
19.425036
 40
19.969505
 40
19.969505
 40
19.969505
 40
19.969505
 10
76.540138
 20
13.315774
 30
0.0
 10
76.538856
 20
13.080103
 30
0.0
 10
76.535288
 20
12.424278
 30
0.0
 10
76.573134
 20
11.610596
 30
0.0
 10
76.245543
 20
10.645796
 30
0.0
 10
77.228155
 20
10.293237
 30
0.0
 10
78.092230
 20
9.526865
 30
0.0
 10
79.274043
 20
8.666859
 30
0.0
 10
80.178470
 20
7.768340
 30
0.0
 10
80.826463
 20
7.117627
 30
0.0
 10
81.286136
 20
6.599955
 30
0.0
 10
81.879884
 20
6.382097
 30
0.0
 10
82.444586
 20
6.775188
 30
0.0
 10
82.712489
 20
7.566526
 30
0.0
 10
82.849563
 20
8.443525
 30
0.0
 10
82.555105
 20
9.220207
 30
0.0
 10
81.975965
 20
9.743313
 30
0.0
 10
81.154103
 20
10.299850
 30
0.0
 10
80.037275
 20
10.830076
 30
0.0
 10
78.901645
 20
11.437998
 30
0.0
 10
77.915714
 20
12.199886
 30
0.0
 10
77.129911
 20
12.824436
 30
0.0
 10
76.679592
 20
13.199596
 30
0.0
 10
76.540138
 20
13.315774
 30
0.0
 11
76.540138
 21
13.315774
 31
0.0
 11
76.540393
 21
12.615182
 31
0.0
 11
76.463037
 21
11.368568
 31
0.0
 11
76.413764
 21
10.702650
 31
0.0
 11
76.902909
 21
10.388605
 31
0.0
 11
78.047609
 21
9.594030
 31
0.0
 11
79.363766
 21
8.540260
 31
0.0
 11
80.247758
 21
7.697749
 31
0.0
 11
80.894403
 21
7.034282
 31
0.0
 11
81.337570
 21
6.625266
 31
0.0
 11
81.868582
 21
6.476221
 31
0.0
 11
82.340840
 21
6.760880
 31
0.0
 11
82.648907
 21
7.430456
 31
0.0
 11
82.744288
 21
8.602889
 31
0.0
 11
82.488784
 21
9.230136
 31
0.0
 11
82.114838
 21
9.607096
 31
0.0
 11
81.207119
 21
10.233556
 31
0.0
 11
80.017845
 21
10.851625
 31
0.0
 11
78.919251
 21
11.468199
 31
0.0
 11
77.907127
 21
12.210187
 31
0.0
 11
76.959287
 21
12.968267
 31
0.0
 11
76.540138
 21
13.315774
 31
0.0
  0
LWPOLYLINE
  5
1ec
100
AcDbEntity
  8
0
 62
7
100
AcDbPolyline
 90
1
 70
1
 10
76.540138
 20
13.315774
 30
0.0
  0
ENDSEC
  0
SECTION
  2
OBJECTS
  0
DICTIONARY
  5
C
330
0
100
AcDbDictionary
  3
ACAD_GROUP
350
D
  3
ACAD_MLINESTYLE
350
17
  0
DICTIONARY
  5
D
330
C
100
AcDbDictionary
  0
DICTIONARY
  5
1A
330
C
100
AcDbDictionary
  0
DICTIONARY
  5
17
330
C
100
AcDbDictionary
  3
STANDARD
350
18
  0
DICTIONARY
  5
19
330
C
100
AcDbDictionary
  0
ENDSEC
  0
EOF
