<?xml version="1.0" encoding="UTF-8" standalone="no"?><!DOCTYPE svg PUBLIC "-//W3C//DTD SVG 1.1//EN" "http://www.w3.org/Graphics/SVG/1.1/DTD/svg11.dtd"><svg width="100%" height="100%" viewBox="0 0 1260 281" version="1.1" xmlns="http://www.w3.org/2000/svg" xmlns:xlink="http://www.w3.org/1999/xlink" xml:space="preserve" xmlns:serif="http://www.serif.com/" style="fill-rule:evenodd;clip-rule:evenodd;stroke-linejoin:round;stroke-miterlimit:2;"><path d="M101.408,227.624l-4.813,0c-1.328,0 -2.406,-1.079 -2.406,-2.407l0,-15.47l-3.403,0c-11.495,0 -20.828,-9.332 -20.828,-20.828l0,-3.402l-15.47,0c-1.328,0 -2.406,-1.078 -2.406,-2.407l0,-4.813c0,-1.328 1.078,-2.406 2.406,-2.406l15.47,0l0,-10.566l-15.47,0c-1.328,0 -2.406,-1.078 -2.406,-2.406l0,-4.813c0,-1.329 1.078,-2.407 2.406,-2.407l15.47,0l0,-10.565l-15.47,0c-1.328,0 -2.406,-1.079 -2.406,-2.407l0,-4.813c0,-1.328 1.078,-2.407 2.406,-2.407l15.47,0l0,-10.565l-15.47,0c-1.328,0 -2.406,-1.078 -2.406,-2.406l0,-4.814c0,-1.328 1.078,-2.406 2.406,-2.406l15.47,0l0,-10.565l-15.47,0c-1.328,0 -2.406,-1.079 -2.406,-2.407l0,-4.813c0,-1.328 1.078,-2.407 2.406,-2.407l15.47,0l0,-3.402c0,-11.496 9.333,-20.828 20.828,-20.828l3.403,0l0,-15.47c0,-1.328 1.078,-2.407 2.406,-2.407l4.813,0c1.329,0 2.407,1.079 2.407,2.407l0,15.47l10.565,0l0,-15.47c0,-1.328 1.079,-2.407 2.407,-2.407l4.813,0c1.328,0 2.407,1.079 2.407,2.407l0,15.47l10.565,0l0,-15.47c0,-1.328 1.078,-2.407 2.407,-2.407l4.813,0c1.328,0 2.406,1.079 2.406,2.407l0,15.47l10.566,0l0,-15.47c0,-1.328 1.078,-2.407 2.406,-2.407l4.813,0c1.328,0 2.407,1.079 2.407,2.407l0,15.47l10.565,0l0,-15.47c0,-1.328 1.078,-2.407 2.407,-2.407l4.813,0c1.328,0 2.406,1.079 2.406,2.407l0,15.47l3.403,0c11.495,0 20.828,9.333 20.828,20.828l0,3.402l15.47,0c1.328,0.001 2.406,1.079 2.406,2.407l0,4.813c0,1.328 -1.078,2.406 -2.406,2.407l-15.47,0l0,10.565l15.47,0c1.328,0 2.406,1.078 2.406,2.406l0,4.814c0,1.328 -1.078,2.406 -2.406,2.406l-15.47,0l0,10.565l15.47,0c1.328,0.001 2.406,1.079 2.406,2.407l0,4.813c0,1.328 -1.078,2.406 -2.406,2.407l-15.47,0l0,10.565l15.47,0c1.328,0 2.406,1.079 2.406,2.407l0,4.813c0,1.328 -1.078,2.406 -2.406,2.406l-15.47,0l0,10.566l15.47,0c1.328,0 2.406,1.078 2.406,2.406l0,4.813c0,1.328 -1.078,2.406 -2.406,2.407l-15.47,0l0,3.402c0,11.496 -9.333,20.828 -20.828,20.828l-3.403,0l0,15.47c0,1.328 -1.078,2.406 -2.406,2.407l-4.813,0c-1.329,0 -2.407,-1.079 -2.407,-2.407l0,-15.47l-10.565,0l0,15.47c0,1.328 -1.078,2.406 -2.407,2.407l-4.813,0c-1.328,0 -2.406,-1.079 -2.406,-2.407l0,-15.47l-10.566,0l0,15.47c0,1.328 -1.078,2.406 -2.406,2.407l-4.813,0c-1.329,0 -2.407,-1.079 -2.407,-2.407l0,-15.47l-10.565,0l0,15.47c0,1.328 -1.078,2.406 -2.407,2.407l-4.813,0c-1.328,0 -2.407,-1.079 -2.407,-2.407l0,-15.47l-10.565,0l0,15.47c0,1.328 -1.078,2.406 -2.407,2.407Zm77.607,-95.198c-0,5.068 -0.794,9.61 -2.383,13.625c-1.589,4.016 -3.855,7.441 -6.797,10.276c-2.942,2.834 -6.506,5.025 -10.694,6.571c-4.187,1.546 -8.922,2.383 -14.205,2.512l-0,15.397c-0,0.344 -0.086,0.644 -0.257,0.902c-0.172,0.258 -0.473,0.462 -0.902,0.612c-0.43,0.15 -0.999,0.268 -1.708,0.354c-0.708,0.086 -1.599,0.129 -2.673,0.129c-1.074,0 -1.965,-0.043 -2.674,-0.129c-0.708,-0.086 -1.267,-0.204 -1.675,-0.354c-0.408,-0.15 -0.708,-0.354 -0.901,-0.612c-0.194,-0.258 -0.29,-0.558 -0.29,-0.902l-0,-15.397c-5.369,-0.129 -10.158,-0.902 -14.366,-2.319c-4.209,-1.417 -7.774,-3.468 -10.695,-6.152c-2.92,-2.685 -5.153,-5.981 -6.699,-9.889c-1.547,-3.908 -2.32,-8.396 -2.32,-13.464l-0,-32.92c-0,-0.301 0.097,-0.58 0.29,-0.837c0.194,-0.258 0.494,-0.473 0.902,-0.645c0.408,-0.171 0.967,-0.3 1.675,-0.386c0.709,-0.086 1.6,-0.129 2.674,-0.129c1.073,0 1.965,0.043 2.673,0.129c0.709,0.086 1.278,0.215 1.707,0.386c0.43,0.172 0.73,0.387 0.902,0.645c0.172,0.257 0.258,0.536 0.258,0.837l-0,31.953c-0,3.565 0.472,6.775 1.417,9.631c0.945,2.856 2.362,5.283 4.252,7.28c1.89,1.997 4.284,3.543 7.183,4.639c2.899,1.095 6.281,1.685 10.147,1.771l-0,-55.274c-0,-0.301 0.096,-0.58 0.29,-0.837c0.193,-0.258 0.515,-0.473 0.966,-0.645c0.451,-0.171 1.031,-0.3 1.739,-0.386c0.709,-0.086 1.557,-0.129 2.545,-0.129c1.074,0 1.965,0.043 2.673,0.129c0.709,0.086 1.278,0.215 1.708,0.386c0.429,0.172 0.73,0.387 0.902,0.645c0.171,0.257 0.257,0.536 0.257,0.837l-0,55.274c3.866,-0.043 7.237,-0.633 10.114,-1.771c2.878,-1.139 5.272,-2.706 7.184,-4.703c1.911,-1.997 3.349,-4.402 4.316,-7.216c0.966,-2.813 1.449,-5.937 1.449,-9.373l-0,-32.211c-0,-0.301 0.086,-0.58 0.258,-0.837c0.172,-0.258 0.472,-0.473 0.902,-0.645c0.429,-0.171 0.988,-0.3 1.675,-0.386c0.687,-0.086 1.589,-0.129 2.706,-0.129c1.03,0 1.9,0.043 2.609,0.129c0.708,0.086 1.267,0.215 1.675,0.386c0.408,0.172 0.708,0.387 0.902,0.645c0.193,0.257 0.289,0.536 0.289,0.837l-0,31.76Z" style="fill:#fff;"/></svg>