<?xml version="1.0" encoding="UTF-8" standalone="no"?><!DOCTYPE svg PUBLIC "-//W3C//DTD SVG 1.1//EN" "http://www.w3.org/Graphics/SVG/1.1/DTD/svg11.dtd"><svg width="100%" height="100%" viewBox="0 0 1260 281" version="1.1" xmlns="http://www.w3.org/2000/svg" xmlns:xlink="http://www.w3.org/1999/xlink" xml:space="preserve" xmlns:serif="http://www.serif.com/" style="fill-rule:evenodd;clip-rule:evenodd;stroke-linejoin:round;stroke-miterlimit:2;"><path d="M1260,25.521l0,229.6c0,13.908 -11.292,25.2 -25.2,25.2l-1209.6,0c-13.908,0 -25.2,-11.292 -25.2,-25.2l0,-229.6c0,-13.909 11.292,-25.2 25.2,-25.2l1209.6,0c13.908,0 25.2,11.291 25.2,25.2Zm-921.588,98.026c-0,-3.132 -0.44,-5.996 -1.319,-8.591c-0.88,-2.596 -2.135,-4.881 -3.765,-6.854c-1.63,-1.974 -3.615,-3.636 -5.953,-4.987c-2.338,-1.352 -4.633,-2.274 -6.886,-2.768c-2.252,-0.493 -4.204,-0.815 -5.856,-0.965c-1.652,-0.15 -3.378,-0.225 -5.18,-0.225l-17.826,0c-1.116,0 -2.124,0.364 -3.025,1.094c-0.901,0.729 -1.351,1.952 -1.351,3.668l-0,76.838c-0,0.344 0.085,0.644 0.257,0.901c0.172,0.258 0.472,0.462 0.901,0.612c0.429,0.15 0.998,0.279 1.705,0.386c0.708,0.107 1.599,0.161 2.671,0.161c1.073,0 1.963,-0.054 2.671,-0.161c0.708,-0.107 1.265,-0.236 1.673,-0.386c0.408,-0.15 0.708,-0.354 0.901,-0.612c0.193,-0.257 0.29,-0.557 0.29,-0.901l-0,-29.988l9.46,0c5.148,0 9.578,-0.644 13.289,-1.931c3.711,-1.287 6.843,-3.11 9.395,-5.47c2.553,-2.36 4.516,-5.213 5.889,-8.559c1.373,-3.347 2.059,-7.101 2.059,-11.262Zm-11.648,0.901c-0,2.488 -0.386,4.794 -1.158,6.918c-0.773,2.124 -1.91,3.947 -3.411,5.47c-1.502,1.523 -3.357,2.714 -5.567,3.572c-2.209,0.858 -4.987,1.287 -8.334,1.287l-9.974,0l-0,-33.4l10.232,0c1.888,0 3.829,0.15 5.824,0.45c1.995,0.301 3.925,1.009 5.792,2.124c1.866,1.116 3.432,2.81 4.697,5.084c1.266,2.274 1.899,5.106 1.899,8.495Zm236.179,24.905l0,-1.931c0,-3.775 -0.483,-7.325 -1.448,-10.65c-0.966,-3.325 -2.478,-6.221 -4.537,-8.688c-2.06,-2.467 -4.687,-4.43 -7.884,-5.889c-3.196,-1.458 -7.068,-2.188 -11.615,-2.188c-4.248,-0 -8.088,0.74 -11.52,2.221c-3.432,1.48 -6.36,3.603 -8.784,6.371c-2.424,2.767 -4.28,6.135 -5.567,10.103c-1.287,3.969 -1.93,8.441 -1.93,13.418c0,5.234 0.622,9.825 1.866,13.772c1.244,3.947 3.089,7.229 5.534,9.846c2.446,2.617 5.46,4.59 9.042,5.92c3.582,1.33 7.755,1.995 12.517,1.995c2.746,-0 5.331,-0.203 7.755,-0.611c2.424,-0.408 4.558,-0.869 6.403,-1.384c1.845,-0.514 3.346,-1.04 4.505,-1.576c1.158,-0.537 1.855,-0.923 2.091,-1.159c0.236,-0.236 0.429,-0.482 0.579,-0.74c0.15,-0.257 0.258,-0.547 0.322,-0.868c0.064,-0.322 0.118,-0.687 0.161,-1.094c0.043,-0.408 0.064,-0.891 0.064,-1.448c0,-0.773 -0.032,-1.427 -0.097,-1.963c-0.064,-0.537 -0.161,-0.955 -0.291,-1.255c-0.129,-0.3 -0.312,-0.526 -0.549,-0.676c-0.237,-0.15 -0.507,-0.225 -0.808,-0.225c-0.518,-0 -1.283,0.225 -2.296,0.676c-1.014,0.45 -2.307,0.954 -3.881,1.512c-1.573,0.558 -3.438,1.062 -5.594,1.512c-2.155,0.451 -4.612,0.676 -7.372,0.676c-3.491,-0 -6.445,-0.493 -8.859,-1.48c-2.414,-0.987 -4.376,-2.403 -5.885,-4.248c-1.509,-1.844 -2.586,-4.054 -3.233,-6.628c-0.647,-2.574 -0.97,-5.47 -0.97,-8.688l38.143,-0c1.078,-0 2.037,-0.354 2.877,-1.062c0.841,-0.707 1.261,-1.898 1.261,-3.571Zm-10.683,-3.154l-31.598,-0c0.087,-2.359 0.497,-4.622 1.23,-6.789c0.734,-2.166 1.77,-4.065 3.109,-5.695c1.338,-1.631 3,-2.939 4.985,-3.926c1.986,-0.987 4.295,-1.48 6.929,-1.48c5.137,-0 9.01,1.587 11.622,4.762c2.611,3.175 3.852,7.551 3.723,13.128Zm574.16,34.558l-0,-76.581c-0,-0.901 -0.13,-1.662 -0.392,-2.284c-0.261,-0.622 -0.599,-1.137 -1.013,-1.545c-0.415,-0.407 -0.916,-0.708 -1.504,-0.901c-0.588,-0.193 -1.21,-0.289 -1.864,-0.289l-7.126,-0c-1.09,-0 -2.049,0.118 -2.877,0.354c-0.828,0.236 -1.58,0.622 -2.255,1.158c-0.676,0.536 -1.297,1.255 -1.864,2.156c-0.567,0.901 -1.09,1.995 -1.569,3.282l-24.776,60.107l-0.322,-0l-23.811,-60.3c-0.392,-1.158 -0.85,-2.167 -1.373,-3.025c-0.522,-0.858 -1.176,-1.566 -1.96,-2.123c-0.784,-0.558 -1.699,-0.966 -2.744,-1.223c-1.046,-0.258 -2.266,-0.386 -3.66,-0.386l-6.796,-0c-1.176,-0 -2.244,0.386 -3.202,1.158c-0.958,0.772 -1.438,2.059 -1.438,3.861l-0,76.581c-0,0.344 0.078,0.644 0.232,0.901c0.155,0.258 0.442,0.462 0.862,0.612c0.42,0.15 0.983,0.279 1.69,0.386c0.707,0.107 1.591,0.161 2.651,0.161c1.105,-0 2.011,-0.054 2.718,-0.161c0.707,-0.107 1.281,-0.236 1.723,-0.386c0.442,-0.15 0.752,-0.354 0.928,-0.612c0.177,-0.257 0.265,-0.557 0.265,-0.901l-0,-72.526l0.065,-0l28.058,72.848c0.086,0.258 0.247,0.494 0.483,0.708c0.236,0.215 0.568,0.397 0.997,0.547c0.429,0.15 0.965,0.268 1.609,0.354c0.644,0.086 1.416,0.129 2.317,0.129c0.858,-0 1.598,-0.032 2.22,-0.097c0.622,-0.064 1.158,-0.171 1.609,-0.321c0.45,-0.151 0.793,-0.333 1.029,-0.548c0.236,-0.214 0.419,-0.471 0.547,-0.772l29.346,-72.848l0.129,-0l-0,72.526c-0,0.344 0.088,0.644 0.265,0.901c0.176,0.258 0.474,0.462 0.894,0.612c0.42,0.15 0.995,0.279 1.724,0.386c0.729,0.107 1.602,0.161 2.618,0.161c1.105,-0 1.999,-0.054 2.684,-0.161c0.685,-0.107 1.248,-0.236 1.69,-0.386c0.442,-0.15 0.752,-0.354 0.928,-0.612c0.177,-0.257 0.265,-0.557 0.265,-0.901Zm-513.474,-54.057c0,-0.987 -0.011,-1.77 -0.032,-2.349c-0.022,-0.579 -0.065,-1.019 -0.129,-1.319c-0.065,-0.3 -0.14,-0.547 -0.225,-0.74c-0.086,-0.193 -0.258,-0.397 -0.515,-0.611c-0.258,-0.215 -0.697,-0.429 -1.32,-0.644c-0.622,-0.214 -1.319,-0.408 -2.091,-0.579c-0.772,-0.172 -1.512,-0.29 -2.22,-0.354c-0.708,-0.064 -1.341,-0.097 -1.899,-0.097c-1.244,-0 -2.477,0.161 -3.7,0.483c-1.223,0.322 -2.456,0.901 -3.7,1.738c-1.245,0.836 -2.564,1.984 -3.958,3.443c-1.394,1.458 -2.885,3.346 -4.473,5.663l0,-8.431c0,-0.343 -0.075,-0.632 -0.225,-0.868c-0.15,-0.236 -0.397,-0.451 -0.74,-0.644c-0.343,-0.193 -0.826,-0.322 -1.448,-0.386c-0.622,-0.064 -1.405,-0.097 -2.349,-0.097c-0.987,-0 -1.78,0.033 -2.381,0.097c-0.601,0.064 -1.094,0.193 -1.48,0.386c-0.386,0.193 -0.644,0.408 -0.772,0.644c-0.129,0.236 -0.193,0.525 -0.193,0.868l0,57.919c0,0.343 0.075,0.633 0.225,0.869c0.15,0.236 0.429,0.439 0.836,0.611c0.408,0.172 0.955,0.3 1.641,0.386c0.687,0.086 1.545,0.129 2.575,0.129c1.072,-0 1.952,-0.043 2.638,-0.129c0.687,-0.086 1.223,-0.214 1.609,-0.386c0.386,-0.172 0.665,-0.375 0.837,-0.611c0.171,-0.236 0.257,-0.526 0.257,-0.869l0,-38.098c1.502,-2.359 2.874,-4.354 4.119,-5.985c1.244,-1.63 2.434,-2.938 3.571,-3.925c1.137,-0.987 2.22,-1.695 3.25,-2.124c1.03,-0.429 2.081,-0.643 3.153,-0.643c0.901,-0 1.738,0.085 2.51,0.257c0.772,0.172 1.47,0.354 2.092,0.547c0.622,0.193 1.18,0.386 1.673,0.579c0.493,0.193 0.912,0.29 1.255,0.29c0.343,-0 0.611,-0.097 0.804,-0.29c0.193,-0.193 0.354,-0.472 0.483,-0.836c0.129,-0.365 0.214,-0.869 0.257,-1.513c0.043,-0.643 0.065,-1.437 0.065,-2.381Zm59.784,22.653l0,-1.931c0,-3.775 -0.482,-7.325 -1.447,-10.65c-0.966,-3.325 -2.478,-6.221 -4.537,-8.688c-2.06,-2.467 -4.688,-4.43 -7.884,-5.889c-3.196,-1.458 -7.068,-2.188 -11.616,-2.188c-4.247,-0 -8.087,0.74 -11.519,2.221c-3.432,1.48 -6.36,3.603 -8.784,6.371c-2.424,2.767 -4.28,6.135 -5.567,10.103c-1.287,3.969 -1.931,8.441 -1.931,13.418c0,5.234 0.623,9.825 1.867,13.772c1.244,3.947 3.089,7.229 5.534,9.846c2.446,2.617 5.46,4.59 9.042,5.92c3.582,1.33 7.755,1.995 12.517,1.995c2.745,-0 5.33,-0.203 7.754,-0.611c2.424,-0.408 4.559,-0.869 6.404,-1.384c1.844,-0.514 3.346,-1.04 4.504,-1.576c1.159,-0.537 1.856,-0.923 2.092,-1.159c0.236,-0.236 0.429,-0.482 0.579,-0.74c0.15,-0.257 0.257,-0.547 0.322,-0.868c0.064,-0.322 0.118,-0.687 0.161,-1.094c0.043,-0.408 0.064,-0.891 0.064,-1.448c0,-0.773 -0.032,-1.427 -0.097,-1.963c-0.065,-0.537 -0.162,-0.955 -0.291,-1.255c-0.129,-0.3 -0.313,-0.526 -0.55,-0.676c-0.237,-0.15 -0.506,-0.225 -0.808,-0.225c-0.517,-0 -1.282,0.225 -2.296,0.676c-1.013,0.45 -2.306,0.954 -3.88,1.512c-1.574,0.558 -3.438,1.062 -5.594,1.512c-2.155,0.451 -4.613,0.676 -7.372,0.676c-3.492,-0 -6.445,-0.493 -8.859,-1.48c-2.414,-0.987 -4.376,-2.403 -5.885,-4.248c-1.509,-1.844 -2.587,-4.054 -3.233,-6.628c-0.647,-2.574 -0.97,-5.47 -0.97,-8.688l38.143,-0c1.078,-0 2.037,-0.354 2.877,-1.062c0.84,-0.707 1.26,-1.898 1.26,-3.571Zm-10.682,-3.154l-31.598,-0c0.086,-2.359 0.497,-4.622 1.23,-6.789c0.734,-2.166 1.77,-4.065 3.108,-5.695c1.339,-1.631 3.001,-2.939 4.986,-3.926c1.986,-0.987 4.295,-1.48 6.928,-1.48c5.137,-0 9.011,1.587 11.622,4.762c2.611,3.175 3.852,7.551 3.724,13.128Zm179.161,4.891c0,-4.204 -0.429,-8.194 -1.287,-11.969c-0.858,-3.776 -2.22,-7.069 -4.087,-9.879c-1.866,-2.81 -4.29,-5.052 -7.272,-6.725c-2.981,-1.673 -6.574,-2.51 -10.779,-2.51c-1.716,-0 -3.346,0.172 -4.891,0.515c-1.544,0.343 -3.089,0.89 -4.633,1.641c-1.545,0.751 -3.121,1.727 -4.73,2.928c-1.609,1.202 -3.272,2.682 -4.988,4.441l0,-34.687c0,-0.343 -0.085,-0.644 -0.257,-0.901c-0.172,-0.257 -0.451,-0.472 -0.837,-0.643c-0.386,-0.172 -0.922,-0.301 -1.609,-0.387c-0.686,-0.085 -1.565,-0.128 -2.638,-0.128c-1.03,-0 -1.888,0.043 -2.574,0.128c-0.687,0.086 -1.234,0.215 -1.641,0.387c-0.408,0.171 -0.687,0.386 -0.837,0.643c-0.15,0.257 -0.225,0.558 -0.225,0.901l0,85.977c0,0.343 0.064,0.643 0.193,0.901c0.129,0.257 0.386,0.461 0.772,0.611c0.386,0.15 0.88,0.268 1.48,0.354c0.601,0.086 1.33,0.129 2.188,0.129c0.901,-0 1.641,-0.043 2.221,-0.129c0.579,-0.086 1.061,-0.204 1.448,-0.354c0.386,-0.15 0.665,-0.354 0.836,-0.611c0.172,-0.258 0.258,-0.558 0.258,-0.901l0,-7.079c1.673,1.759 3.26,3.261 4.762,4.505c1.501,1.244 3.003,2.274 4.505,3.089c1.501,0.815 3.035,1.405 4.601,1.769c1.566,0.365 3.271,0.547 5.116,0.547c3.99,-0 7.529,-0.75 10.618,-2.252c3.089,-1.502 5.696,-3.668 7.819,-6.5c2.124,-2.831 3.733,-6.253 4.827,-10.264c1.094,-4.012 1.641,-8.527 1.641,-13.547Zm-11.005,1.223c0,2.703 -0.269,5.374 -0.809,8.012c-0.54,2.639 -1.403,5.02 -2.59,7.143c-1.187,2.124 -2.73,3.829 -4.629,5.117c-1.9,1.287 -4.187,1.93 -6.863,1.93c-2.893,-0 -5.677,-0.933 -8.353,-2.799c-2.676,-1.867 -5.482,-4.58 -8.418,-8.141l0,-23.103c1.684,-2.145 3.27,-3.926 4.759,-5.341c1.489,-1.416 2.925,-2.575 4.306,-3.476c1.382,-0.9 2.742,-1.544 4.08,-1.93c1.338,-0.386 2.697,-0.579 4.078,-0.579c2.763,-0 5.073,0.654 6.929,1.962c1.856,1.309 3.345,3.036 4.467,5.181c1.123,2.145 1.911,4.612 2.364,7.401c0.453,2.788 0.679,5.663 0.679,8.623Zm-328.719,-29.538c0,-0.387 -0.075,-0.687 -0.225,-0.901c-0.151,-0.215 -0.408,-0.408 -0.773,-0.58c-0.364,-0.171 -0.858,-0.278 -1.48,-0.321c-0.622,-0.043 -1.448,-0.065 -2.477,-0.065c-1.116,-0 -2.028,0.033 -2.736,0.097c-0.707,0.064 -1.265,0.172 -1.673,0.322c-0.407,0.15 -0.708,0.364 -0.901,0.643c-0.193,0.279 -0.332,0.612 -0.418,0.998l-13.772,47.75l-0.064,0.579l-0.129,-0.579l-13.836,-47.879c-0.086,-0.343 -0.214,-0.644 -0.386,-0.901c-0.172,-0.257 -0.45,-0.461 -0.837,-0.611c-0.386,-0.15 -0.911,-0.258 -1.576,-0.322c-0.665,-0.064 -1.513,-0.097 -2.542,-0.097c-1.073,-0 -1.942,0.033 -2.607,0.097c-0.665,0.064 -1.19,0.172 -1.576,0.322c-0.386,0.15 -0.676,0.364 -0.869,0.643c-0.193,0.279 -0.333,0.612 -0.418,0.998l-12.807,47.75l-0.128,0.579l-0.129,-0.579l-13.965,-47.75c-0.129,-0.386 -0.279,-0.719 -0.45,-0.998c-0.172,-0.279 -0.451,-0.493 -0.837,-0.643c-0.386,-0.15 -0.944,-0.258 -1.673,-0.322c-0.73,-0.064 -1.695,-0.097 -2.896,-0.097c-0.987,-0 -1.824,0.022 -2.51,0.065c-0.686,0.043 -1.233,0.139 -1.641,0.289c-0.408,0.15 -0.697,0.344 -0.869,0.579c-0.171,0.236 -0.257,0.547 -0.257,0.934c0,0.3 0.043,0.665 0.129,1.094c0.085,0.429 0.235,0.965 0.45,1.608l16.925,55.023c0.129,0.429 0.322,0.794 0.579,1.094c0.258,0.3 0.655,0.536 1.191,0.708c0.536,0.172 1.223,0.3 2.059,0.386c0.837,0.086 1.92,0.129 3.25,0.129c1.287,-0 2.37,-0.032 3.25,-0.097c0.879,-0.064 1.598,-0.182 2.156,-0.354c0.557,-0.171 0.976,-0.407 1.255,-0.708c0.279,-0.3 0.482,-0.686 0.611,-1.158l11.262,-42.023l0.129,-0.579l0.128,0.579l12.163,42.023c0.129,0.429 0.322,0.794 0.579,1.094c0.258,0.3 0.655,0.536 1.191,0.708c0.536,0.172 1.255,0.3 2.156,0.386c0.901,0.086 2.016,0.129 3.346,0.129c1.287,-0 2.36,-0.032 3.218,-0.097c0.858,-0.064 1.534,-0.182 2.027,-0.354c0.493,-0.171 0.88,-0.407 1.158,-0.708c0.279,-0.3 0.483,-0.686 0.612,-1.158l17.054,-55.023c0.214,-0.643 0.364,-1.179 0.45,-1.608c0.086,-0.429 0.129,-0.794 0.129,-1.094Zm701.395,57.854c0,-0.258 -0.075,-0.59 -0.225,-0.998c-0.151,-0.407 -0.59,-1.169 -1.32,-2.284l-29.731,-39.514l27.608,-33.013c0.772,-0.987 1.297,-1.759 1.576,-2.317c0.279,-0.558 0.419,-1.115 0.419,-1.673c0,-0.3 -0.075,-0.579 -0.226,-0.837c-0.15,-0.257 -0.429,-0.472 -0.836,-0.643c-0.408,-0.172 -0.955,-0.311 -1.641,-0.418c-0.687,-0.108 -1.588,-0.161 -2.703,-0.161c-1.116,-0 -2.027,0.043 -2.735,0.128c-0.708,0.086 -1.309,0.204 -1.802,0.354c-0.493,0.15 -0.912,0.354 -1.255,0.612c-0.343,0.257 -0.643,0.579 -0.901,0.965l-29.474,37.003l0,-37.003c0,-0.343 -0.086,-0.644 -0.257,-0.901c-0.172,-0.257 -0.472,-0.461 -0.901,-0.611c-0.429,-0.151 -0.998,-0.279 -1.706,-0.386c-0.708,-0.108 -1.598,-0.161 -2.67,-0.161c-1.03,-0 -1.91,0.053 -2.639,0.161c-0.729,0.107 -1.308,0.235 -1.737,0.386c-0.429,0.15 -0.73,0.354 -0.901,0.611c-0.172,0.257 -0.258,0.558 -0.258,0.901l0,79.927c0,0.301 0.086,0.59 0.258,0.869c0.171,0.279 0.472,0.494 0.901,0.644c0.429,0.15 1.008,0.279 1.737,0.386c0.729,0.107 1.609,0.161 2.639,0.161c1.072,-0 1.962,-0.054 2.67,-0.161c0.708,-0.107 1.277,-0.236 1.706,-0.386c0.429,-0.15 0.729,-0.365 0.901,-0.644c0.171,-0.279 0.257,-0.568 0.257,-0.869l0,-41.636l30.632,41.636c0.301,0.43 0.687,0.816 1.159,1.159c0.472,0.343 1.18,0.579 2.124,0.708c0.943,0.128 2.166,0.193 3.668,0.193c1.158,-0 2.102,-0.054 2.831,-0.161c0.73,-0.107 1.309,-0.247 1.738,-0.418c0.429,-0.172 0.718,-0.397 0.869,-0.676c0.15,-0.279 0.225,-0.59 0.225,-0.933Zm-175.69,9.138c0,-1.244 -0.086,-2.242 -0.258,-2.992c-0.171,-0.751 -0.472,-1.33 -0.901,-1.738c-0.429,-0.408 -1.072,-0.772 -1.93,-1.094c-0.858,-0.322 -2.06,-0.847 -3.604,-1.577c-1.545,-0.729 -3.497,-1.812 -5.856,-3.25c-2.36,-1.437 -5.106,-3.442 -8.238,-6.017c1.802,-1.93 3.368,-4.097 4.698,-6.499c1.33,-2.403 2.435,-5.02 3.314,-7.852c0.88,-2.831 1.524,-5.834 1.931,-9.009c0.408,-3.175 0.611,-6.5 0.611,-9.975c0,-6.736 -0.772,-12.699 -2.316,-17.89c-1.545,-5.192 -3.851,-9.557 -6.918,-13.096c-3.068,-3.54 -6.865,-6.232 -11.391,-8.077c-4.526,-1.845 -9.771,-2.767 -15.735,-2.767c-6.349,-0 -11.905,1.019 -16.667,3.057c-4.762,2.038 -8.731,4.934 -11.906,8.688c-3.174,3.754 -5.556,8.301 -7.143,13.643c-1.587,5.341 -2.381,11.315 -2.381,17.922c0,6.865 0.729,12.946 2.188,18.245c1.459,5.298 3.679,9.728 6.661,13.289c2.981,3.561 6.757,6.263 11.326,8.108c4.569,1.845 9.986,2.767 16.249,2.767c4.248,-0 7.98,-0.472 11.198,-1.415c3.218,-0.944 5.878,-2.06 7.98,-3.347c2.66,2.574 5.405,4.827 8.237,6.757c2.832,1.931 5.492,3.572 7.98,4.923c2.488,1.352 4.687,2.382 6.596,3.089c1.909,0.708 3.293,1.062 4.151,1.062c0.257,-0 0.515,-0.064 0.772,-0.193c0.258,-0.128 0.494,-0.375 0.708,-0.74c0.215,-0.365 0.376,-0.879 0.483,-1.544c0.107,-0.665 0.161,-1.491 0.161,-2.478Zm-21.881,-49.231c0,4.505 -0.429,8.785 -1.287,12.839c-0.858,4.054 -2.295,7.615 -4.311,10.683c-2.017,3.067 -4.677,5.502 -7.98,7.304c-3.304,1.802 -7.38,2.703 -12.228,2.703c-4.89,-0 -8.955,-0.826 -12.195,-2.478c-3.239,-1.652 -5.824,-3.979 -7.754,-6.982c-1.931,-3.004 -3.304,-6.554 -4.119,-10.651c-0.815,-4.097 -1.223,-8.591 -1.223,-13.482c0,-4.462 0.44,-8.688 1.32,-12.678c0.879,-3.99 2.338,-7.497 4.376,-10.522c2.038,-3.024 4.687,-5.427 7.947,-7.207c3.261,-1.781 7.294,-2.671 12.099,-2.671c4.805,-0 8.838,0.837 12.098,2.51c3.261,1.673 5.867,4.001 7.819,6.982c1.953,2.982 3.347,6.489 4.183,10.522c0.837,4.033 1.255,8.409 1.255,13.128Zm-266.809,40.286l0,-85.72c0,-0.3 -0.096,-0.589 -0.289,-0.868c-0.194,-0.279 -0.483,-0.494 -0.869,-0.644c-0.386,-0.15 -0.923,-0.279 -1.609,-0.386c-0.687,-0.107 -1.566,-0.161 -2.639,-0.161c-1.029,-0 -1.877,0.054 -2.542,0.161c-0.665,0.107 -1.212,0.236 -1.641,0.386c-0.429,0.15 -0.718,0.365 -0.868,0.644c-0.151,0.279 -0.226,0.568 -0.226,0.868l0,33.658c-2.745,-2.875 -5.523,-5.052 -8.333,-6.532c-2.811,-1.481 -5.91,-2.221 -9.3,-2.221c-4.075,-0 -7.668,0.762 -10.779,2.285c-3.11,1.523 -5.717,3.7 -7.819,6.532c-2.102,2.831 -3.689,6.253 -4.762,10.264c-1.073,4.012 -1.609,8.506 -1.609,13.482c0,4.205 0.429,8.206 1.287,12.002c0.858,3.797 2.22,7.101 4.087,9.911c1.866,2.81 4.301,5.041 7.304,6.693c3.003,1.652 6.628,2.477 10.876,2.477c3.904,-0 7.497,-0.922 10.779,-2.767c3.282,-1.845 6.446,-4.419 9.492,-7.722l0,7.658c0,0.343 0.086,0.643 0.258,0.901c0.171,0.257 0.45,0.461 0.836,0.611c0.386,0.15 0.88,0.268 1.48,0.354c0.601,0.086 1.352,0.129 2.253,0.129c0.858,-0 1.587,-0.043 2.188,-0.129c0.6,-0.086 1.083,-0.204 1.448,-0.354c0.364,-0.15 0.622,-0.354 0.772,-0.611c0.15,-0.258 0.225,-0.558 0.225,-0.901Zm-10.683,-40.736l0,23.167c-1.673,2.102 -3.26,3.872 -4.762,5.309c-1.501,1.438 -2.939,2.607 -4.311,3.508c-1.373,0.901 -2.714,1.544 -4.023,1.93c-1.308,0.386 -2.67,0.58 -4.086,0.58c-2.789,-0 -5.105,-0.655 -6.95,-1.963c-1.845,-1.309 -3.325,-3.046 -4.441,-5.213c-1.115,-2.167 -1.898,-4.644 -2.349,-7.433c-0.45,-2.788 -0.675,-5.642 -0.675,-8.559c0,-2.746 0.268,-5.449 0.804,-8.108c0.536,-2.66 1.394,-5.042 2.574,-7.144c1.18,-2.102 2.714,-3.797 4.602,-5.084c1.887,-1.287 4.183,-1.93 6.885,-1.93c2.918,-0 5.717,0.933 8.399,2.799c2.681,1.866 5.459,4.58 8.333,8.141Zm155.093,42.345l20.787,-57.597c0.257,-0.772 0.386,-1.416 0.386,-1.931c0,-0.515 -0.183,-0.922 -0.547,-1.222c-0.365,-0.301 -0.933,-0.504 -1.706,-0.612c-0.772,-0.107 -1.759,-0.161 -2.96,-0.161c-1.373,-0 -2.424,0.054 -3.153,0.161c-0.73,0.108 -1.277,0.279 -1.641,0.515c-0.365,0.236 -0.676,0.762 -0.933,1.577l-15.96,46.721l-0.193,-0l-16.539,-46.464c-0.215,-0.558 -0.419,-0.997 -0.612,-1.319c-0.193,-0.322 -0.504,-0.569 -0.933,-0.74c-0.429,-0.172 -1.008,-0.29 -1.737,-0.354c-0.73,-0.064 -1.738,-0.097 -3.025,-0.097c-1.287,-0 -2.317,0.054 -3.089,0.161c-0.772,0.108 -1.33,0.311 -1.673,0.612c-0.343,0.3 -0.515,0.707 -0.515,1.222c0,0.515 0.172,1.223 0.515,2.124l20.658,55.344c0.128,0.429 0.364,0.837 0.707,1.223c0.344,0.386 0.708,0.665 1.094,0.837l-7.979,20.142c-0.258,0.601 -0.365,1.116 -0.322,1.545c0.043,0.429 0.246,0.772 0.611,1.03c0.365,0.257 0.89,0.439 1.577,0.547c0.686,0.107 1.587,0.16 2.703,0.16c2.145,-0 3.743,-0.182 4.794,-0.547c1.051,-0.364 1.705,-0.89 1.963,-1.576l7.722,-21.301Zm-781.502,45.193c1.329,-0.001 2.407,-1.079 2.407,-2.407l0,-15.47l10.565,-0l0,15.47c0,1.328 1.079,2.407 2.407,2.407l4.813,-0c1.329,-0.001 2.407,-1.079 2.407,-2.407l0,-15.47l10.565,-0l0,15.47c0,1.328 1.078,2.407 2.407,2.407l4.813,-0c1.328,-0.001 2.406,-1.079 2.406,-2.407l0,-15.47l10.566,-0l0,15.47c0,1.328 1.078,2.407 2.406,2.407l4.813,-0c1.329,-0.001 2.407,-1.079 2.407,-2.407l0,-15.47l10.565,-0l0,15.47c0,1.328 1.078,2.407 2.407,2.407l4.813,-0c1.328,-0.001 2.406,-1.079 2.406,-2.407l0,-15.47l3.403,-0c11.495,-0 20.828,-9.332 20.828,-20.828l0,-3.402l15.47,-0c1.328,-0.001 2.406,-1.079 2.406,-2.407l0,-4.813c0,-1.328 -1.078,-2.406 -2.406,-2.406l-15.47,-0l0,-10.566l15.47,-0c1.328,-0 2.406,-1.078 2.406,-2.406l0,-4.813c0,-1.328 -1.078,-2.407 -2.406,-2.407l-15.47,-0l0,-10.565l15.47,-0c1.328,-0.001 2.406,-1.079 2.406,-2.407l0,-4.813c0,-1.328 -1.078,-2.406 -2.406,-2.407l-15.47,-0l0,-10.565l15.47,-0c1.328,-0 2.406,-1.078 2.406,-2.406l0,-4.814c0,-1.328 -1.078,-2.406 -2.406,-2.406l-15.47,-0l0,-10.565l15.47,-0c1.328,-0.001 2.406,-1.079 2.406,-2.407l0,-4.813c0,-1.328 -1.078,-2.406 -2.406,-2.407l-15.47,-0l0,-3.402c0,-11.495 -9.333,-20.828 -20.828,-20.828l-3.403,-0l0,-15.47c0,-1.328 -1.078,-2.407 -2.406,-2.407l-4.813,-0c-1.329,-0 -2.407,1.079 -2.407,2.407l0,15.47l-10.565,-0l0,-15.47c0,-1.328 -1.079,-2.407 -2.407,-2.407l-4.813,-0c-1.328,-0 -2.406,1.079 -2.406,2.407l0,15.47l-10.566,-0l0,-15.47c0,-1.328 -1.078,-2.407 -2.406,-2.407l-4.813,-0c-1.329,-0 -2.407,1.079 -2.407,2.407l0,15.47l-10.565,-0l0,-15.47c0,-1.328 -1.079,-2.407 -2.407,-2.407l-4.813,-0c-1.328,-0 -2.407,1.079 -2.407,2.407l0,15.47l-10.565,-0l0,-15.47c0,-1.328 -1.078,-2.407 -2.407,-2.407l-4.813,-0c-1.328,-0 -2.406,1.079 -2.406,2.407l0,15.47l-3.403,-0c-11.495,-0 -20.828,9.332 -20.828,20.828l0,3.402l-15.47,-0c-1.328,-0 -2.406,1.079 -2.406,2.407l0,4.813c0,1.328 1.078,2.407 2.406,2.407l15.47,-0l0,10.565l-15.47,-0c-1.328,-0 -2.406,1.078 -2.406,2.406l0,4.814c0,1.328 1.078,2.406 2.406,2.406l15.47,-0l0,10.565l-15.47,-0c-1.328,-0 -2.406,1.079 -2.406,2.407l0,4.813c0,1.328 1.078,2.407 2.406,2.407l15.47,-0l0,10.565l-15.47,-0c-1.328,-0 -2.406,1.078 -2.406,2.407l0,4.813c0,1.328 1.078,2.406 2.406,2.406l15.47,-0l0,10.566l-15.47,-0c-1.328,-0 -2.406,1.078 -2.406,2.406l0,4.813c0,1.329 1.078,2.407 2.406,2.407l15.47,-0l0,3.402c0,11.496 9.333,20.828 20.828,20.828l3.403,-0l0,15.47c0,1.328 1.078,2.407 2.406,2.407l4.813,-0Zm77.607,-95.198c0,5.068 -0.794,9.61 -2.383,13.625c-1.589,4.016 -3.855,7.441 -6.797,10.276c-2.942,2.834 -6.506,5.025 -10.694,6.571c-4.187,1.546 -8.922,2.383 -14.205,2.512l0,15.397c0,0.344 -0.086,0.644 -0.257,0.902c-0.172,0.258 -0.473,0.462 -0.902,0.612c-0.43,0.15 -0.999,0.268 -1.708,0.354c-0.708,0.086 -1.599,0.129 -2.673,0.129c-1.074,-0 -1.965,-0.043 -2.674,-0.129c-0.708,-0.086 -1.267,-0.204 -1.675,-0.354c-0.408,-0.15 -0.708,-0.354 -0.901,-0.612c-0.194,-0.258 -0.29,-0.558 -0.29,-0.902l0,-15.397c-5.369,-0.129 -10.158,-0.902 -14.366,-2.319c-4.209,-1.417 -7.774,-3.468 -10.695,-6.152c-2.92,-2.685 -5.153,-5.981 -6.699,-9.889c-1.547,-3.908 -2.32,-8.396 -2.32,-13.464l0,-32.92c0,-0.301 0.097,-0.58 0.29,-0.837c0.194,-0.258 0.494,-0.473 0.902,-0.645c0.408,-0.171 0.967,-0.3 1.675,-0.386c0.709,-0.086 1.6,-0.129 2.674,-0.129c1.073,-0 1.965,0.043 2.673,0.129c0.709,0.086 1.278,0.215 1.707,0.386c0.43,0.172 0.73,0.387 0.902,0.645c0.172,0.257 0.258,0.536 0.258,0.837l0,31.953c0,3.565 0.472,6.775 1.417,9.631c0.945,2.856 2.362,5.283 4.252,7.28c1.89,1.997 4.284,3.543 7.183,4.639c2.899,1.095 6.281,1.685 10.147,1.771l0,-55.274c0,-0.301 0.096,-0.58 0.29,-0.837c0.193,-0.258 0.515,-0.473 0.966,-0.645c0.451,-0.171 1.031,-0.3 1.739,-0.386c0.709,-0.086 1.557,-0.129 2.545,-0.129c1.074,-0 1.965,0.043 2.673,0.129c0.709,0.086 1.278,0.215 1.708,0.386c0.429,0.172 0.73,0.387 0.902,0.645c0.171,0.257 0.257,0.536 0.257,0.837l0,55.274c3.866,-0.043 7.237,-0.633 10.114,-1.771c2.878,-1.139 5.272,-2.706 7.184,-4.703c1.911,-1.997 3.349,-4.402 4.316,-7.216c0.966,-2.813 1.449,-5.937 1.449,-9.373l0,-32.211c0,-0.301 0.086,-0.58 0.258,-0.837c0.172,-0.258 0.472,-0.473 0.902,-0.645c0.429,-0.171 0.988,-0.3 1.675,-0.386c0.687,-0.086 1.589,-0.129 2.706,-0.129c1.03,-0 1.9,0.043 2.609,0.129c0.708,0.086 1.267,0.215 1.675,0.386c0.408,0.172 0.708,0.387 0.902,0.645c0.193,0.257 0.289,0.536 0.289,0.837l0,31.76Zm226.325,18.793c0,-4.848 -0.59,-9.203 -1.77,-13.064c-1.18,-3.861 -2.949,-7.143 -5.309,-9.846c-2.36,-2.703 -5.309,-4.762 -8.849,-6.178c-3.539,-1.416 -7.69,-2.124 -12.452,-2.124c-4.934,-0 -9.246,0.794 -12.935,2.381c-3.69,1.588 -6.768,3.819 -9.235,6.693c-2.467,2.875 -4.312,6.296 -5.534,10.265c-1.223,3.968 -1.834,8.312 -1.834,13.031c0,4.891 0.579,9.267 1.737,13.129c1.158,3.861 2.917,7.143 5.277,9.846c2.36,2.703 5.309,4.762 8.849,6.178c3.539,1.416 7.69,2.123 12.452,2.123c4.891,-0 9.192,-0.804 12.903,-2.413c3.711,-1.609 6.8,-3.85 9.267,-6.725c2.467,-2.874 4.323,-6.296 5.567,-10.264c1.244,-3.969 1.866,-8.313 1.866,-13.032Zm-11.004,0.708c0,3.346 -0.347,6.414 -1.04,9.203c-0.692,2.788 -1.775,5.191 -3.247,7.207c-1.471,2.017 -3.354,3.583 -5.649,4.698c-2.294,1.115 -5,1.673 -8.117,1.673c-3.42,-0 -6.277,-0.611 -8.571,-1.834c-2.295,-1.223 -4.124,-2.874 -5.487,-4.955c-1.364,-2.081 -2.338,-4.516 -2.922,-7.304c-0.585,-2.789 -0.877,-5.771 -0.877,-8.945c0,-3.304 0.357,-6.35 1.071,-9.139c0.715,-2.788 1.808,-5.202 3.279,-7.24c1.472,-2.037 3.345,-3.614 5.617,-4.73c2.273,-1.115 4.99,-1.673 8.15,-1.673c3.42,-0 6.277,0.612 8.571,1.834c2.295,1.223 4.113,2.886 5.455,4.988c1.342,2.102 2.305,4.547 2.89,7.336c0.584,2.789 0.877,5.749 0.877,8.881Z" style="fill:#333;"/></svg>