<?xml version="1.0" encoding="UTF-8" standalone="no"?><!DOCTYPE svg PUBLIC "-//W3C//DTD SVG 1.1//EN" "http://www.w3.org/Graphics/SVG/1.1/DTD/svg11.dtd"><svg width="100%" height="100%" viewBox="0 0 29 29" version="1.1" xmlns="http://www.w3.org/2000/svg" xmlns:xlink="http://www.w3.org/1999/xlink" xml:space="preserve" xmlns:serif="http://www.serif.com/" style="fill-rule:evenodd;clip-rule:evenodd;stroke-linecap:round;stroke-linejoin:round;stroke-miterlimit:1.5;"><g><path d="M1.808,13.201c0.014,0.019 2.308,-3.407 5.833,-4.901c2.173,-0.92 5.468,-0.908 7.036,0.507c2.201,1.986 1.994,5.367 0.705,7.553c-1.561,2.648 -4.481,4.263 -4.481,4.263" style="fill:none;stroke:#040400;stroke-width:0.73px;"/><path d="M24.141,7.45c0.001,0 -1.686,-0.767 -1.686,-0.767l0.752,-1.583l3.679,-0.606c-0,-0 -0.913,0.985 -1.571,1.618c-0.464,0.446 -0.89,0.874 -1.267,1.483c-0.653,1.057 -0.841,2.208 -0.752,3.446c0.088,1.237 0.381,2.226 0.542,3.072c0.215,1.132 0.295,2.069 0.306,3.564c0.036,5.247 -3.365,7.441 -3.365,7.441" style="fill:none;stroke:#000;stroke-width:0.73px;"/><path d="M16.147,10.475c0.014,0.019 0.292,-0.724 0.438,-1.327c0.152,-0.627 -0.428,-1.941 0.671,-3.141c0.94,-1.025 2.395,-0.737 3.09,-1.15c0.508,-0.302 1,-1.093 1,-1.093" style="fill:none;stroke:#000;stroke-width:0.73px;"/><path d="M7.449,8.391c0.013,0.019 2.469,-3.334 5.994,-4.828c2.173,-0.92 6.128,-1.009 8.203,0.394c0.684,0.462 1.344,0.876 1.344,0.876" style="fill:none;stroke:#000;stroke-width:0.73px;"/><path d="M16.01,10.882c0.014,0.019 0.736,-0.077 2.305,1.338c2.2,1.986 2.361,5.206 1.534,7.605c-1.002,2.906 -3.193,4.091 -3.193,4.091" style="fill:none;stroke:#000;stroke-width:0.73px;"/><path d="M6.24,10.548c0.007,0.011 0.915,-0.648 1.87,-1.026c0.826,-0.327 1.717,-0.38 1.717,-0.38" style="fill:none;stroke:#000;stroke-width:0.73px;"/><path d="M11.1,9.066c0.007,0.01 0.453,-0.008 0.453,-0.008" style="fill:none;stroke:#000;stroke-width:0.73px;"/><ellipse cx="18.712" cy="6.973" rx="0.627" ry="0.633" style="fill:none;stroke:#000;stroke-width:0.73px;"/></g></svg>