<?xml version="1.0" encoding="UTF-8" standalone="no"?><!DOCTYPE svg PUBLIC "-//W3C//DTD SVG 1.1//EN" "http://www.w3.org/Graphics/SVG/1.1/DTD/svg11.dtd"><svg width="100%" height="100%" viewBox="0 0 77 29" version="1.1" xmlns="http://www.w3.org/2000/svg" xmlns:xlink="http://www.w3.org/1999/xlink" xml:space="preserve" xmlns:serif="http://www.serif.com/" style="fill-rule:evenodd;clip-rule:evenodd;stroke-linecap:round;stroke-linejoin:round;stroke-miterlimit:1.5;"><g><path d="M49.553,12.956c0.013,0.019 2.336,-3.449 5.904,-4.961c2.2,-0.932 5.535,-0.919 7.123,0.513c2.227,2.01 2.017,5.432 0.713,7.645c-1.58,2.681 -4.536,4.316 -4.536,4.316" style="fill:none;stroke:#040400;stroke-width:0.74px;"/><g><path d="M72.16,7.134c0,0 -1.707,-0.776 -1.707,-0.776l0.762,-1.603l3.723,-0.614c0,0 -0.924,0.997 -1.59,1.638c-0.47,0.452 -0.9,0.885 -1.282,1.502c-0.662,1.07 -0.852,2.235 -0.762,3.488c0.089,1.253 0.386,2.253 0.549,3.11c0.218,1.146 0.299,2.094 0.309,3.608c0.037,5.311 -3.405,7.532 -3.405,7.532" style="fill:none;stroke:#000;stroke-width:0.74px;"/></g><g><path d="M64.068,10.196c0.014,0.02 0.295,-0.732 0.443,-1.343c0.154,-0.635 -0.433,-1.965 0.679,-3.179c0.951,-1.039 2.425,-0.747 3.128,-1.165c0.514,-0.305 1.012,-1.106 1.012,-1.106" style="fill:none;stroke:#000;stroke-width:0.74px;"/></g><g><path d="M55.263,8.086c0.013,0.02 2.499,-3.374 6.067,-4.886c2.2,-0.932 6.204,-1.022 8.304,0.398c0.693,0.468 1.361,0.887 1.361,0.887" style="fill:none;stroke:#000;stroke-width:0.74px;"/></g><g><path d="M63.929,10.608c0.014,0.019 0.745,-0.078 2.333,1.355c2.227,2.01 2.39,5.27 1.553,7.697c-1.015,2.942 -3.232,4.142 -3.232,4.142" style="fill:none;stroke:#000;stroke-width:0.74px;"/></g><g><path d="M54.039,10.27c0.007,0.011 0.927,-0.656 1.893,-1.038c0.836,-0.331 1.738,-0.385 1.738,-0.385" style="fill:none;stroke:#000;stroke-width:0.74px;"/></g><g><path d="M58.958,8.77c0.008,0.01 0.459,-0.009 0.459,-0.009" style="fill:none;stroke:#000;stroke-width:0.74px;"/></g><g><ellipse cx="66.664" cy="6.651" rx="0.635" ry="0.641" style="fill:none;stroke:#000;stroke-width:0.74px;"/></g></g><g><path d="M2.751,9.149l-0,0.137c1.092,0 1.487,0.092 1.487,0.836c0,0.064 -0.009,0.211 -0.009,0.211l-0.927,12.027c-0.019,0.285 -0.101,0.597 -1.267,0.597l-0.202,-0l-0,0.147l3.865,-0l-0,-0.147l-1.028,-0c-1.065,-0 -1.185,-0.22 -1.185,-0.487l0,-0.091l0.992,-12.854l5.536,11.733c0.064,0.129 0.083,0.515 0.083,0.515l0.257,-0c-0,-0 0.027,-0.368 0.091,-0.515l5.417,-11.65l0.845,10.925c0.321,4.15 1.652,6.969 4.967,6.969c1.046,-0 1.891,-0.634 1.891,-1.405c0,-0.579 -0.514,-1.047 -1.138,-1.047c-0.57,0 -0.863,0.395 -1.607,0.395c-2.681,0 -3.682,-2.415 -3.92,-5.435l-0.762,-9.668c-0,0 -0.01,-0.147 -0.01,-0.211c0,-0.744 0.395,-0.845 1.497,-0.845l-0,-0.137l-1.699,-0c-0.027,-0 -0.064,0.018 -0.082,0.055l-5.417,11.66c-0.064,0.137 -0.129,0.202 -0.184,0.202c-0.055,-0 -0.11,-0.065 -0.174,-0.202l-5.499,-11.66c-0.019,-0.037 -0.056,-0.055 -0.083,-0.055l-1.735,-0Z" style="fill-rule:nonzero;"/><path d="M23.729,13.51c-2.617,0 -4.498,2.028 -4.498,4.82c0,2.791 1.891,4.819 4.498,4.819c2.608,0 4.498,-2.028 4.498,-4.819c0,-1.084 -0.283,-2.048 -0.78,-2.828l0.01,0.459c0.349,0.679 0.542,1.487 0.542,2.369c0,2.69 -1.791,4.637 -4.27,4.637c-2.479,-0 -4.269,-1.947 -4.269,-4.637c-0,-2.691 1.781,-4.637 4.269,-4.637c1.066,-0 1.764,0.587 1.773,1.46c-0,0.587 -0.524,0.927 -0.524,1.423c0,0.624 0.395,1.047 0.992,1.047c0.734,-0 1.22,-0.643 1.22,-1.616c-0.009,-1.497 -1.385,-2.497 -3.461,-2.497Z" style="fill-rule:nonzero;"/><path d="M29.835,13.556l0,0.137l0.23,-0c0.707,-0 0.964,0.119 0.964,0.459l-0,8.31c-0,0.266 -0.12,0.505 -1.377,0.505l-0.368,-0l0,0.136l3.856,0l-0,-0.136l-0.505,-0c-1.259,-0 -1.378,-0.239 -1.378,-0.505l0,-4.454c0,-2.295 1.378,-4.315 3.224,-4.315c0.293,-0 0.496,0.294 0.496,0.725c-0,0.588 -0.524,0.928 -0.524,1.423c0,0.625 0.395,1.047 0.991,1.047c0.734,0 1.221,-0.643 1.221,-1.616c-0,-1.056 -0.872,-1.762 -2.184,-1.762c-1.571,0 -2.783,1.34 -3.224,3.048l0,-3.029l-1.192,0.027l-0.23,0Z" style="fill-rule:nonzero;"/><path d="M37.933,13.556l-0,0.137l0.229,-0c0.707,-0 0.964,0.119 0.964,0.459l0,8.31c0,0.266 -0.119,0.505 -1.377,0.505l-0.367,-0l-0,0.136l3.855,0l0,-0.136l-0.505,-0c-1.258,-0 -1.377,-0.239 -1.377,-0.505l-0,-3.6c-0,-2.662 2.103,-5.142 4.27,-5.142c1.854,0 2.8,0.836 2.8,2.388l0,7.041c0,1.478 0.633,2.461 1.587,2.461c0.918,-0 1.534,-0.478 1.534,-1.194c-0,-0.514 -0.386,-0.854 -0.974,-0.854c-0.541,0 -0.725,0.441 -1.285,0.441c-0.312,0 -0.633,-0.624 -0.633,-1.596l-0,-6.327c-0,-1.671 -1.064,-2.57 -3.029,-2.57c-1.718,0 -3.334,1.45 -4.059,3.305c-0.064,0.165 -0.11,0.229 -0.147,0.229c-0.046,0 -0.064,-0.128 -0.064,-0.284l-0,-3.231l-1.193,0.027l-0.229,0Z" style="fill-rule:nonzero;"/><path d="M53.329,13.51c-1.001,0 -1.901,0.302 -2.626,0.826l0.348,-0c0.652,-0.414 1.433,-0.643 2.278,-0.643c2.185,-0 3.645,1.414 4.003,3.462c0.019,0.083 0.028,0.174 0.028,0.275c-0,0.303 -0.092,0.625 -0.413,0.625l-4.179,-0c-0.909,-0 -1.515,-0.441 -1.515,-1.093c0,-0.744 0.671,-0.946 0.671,-1.515c-0,-0.514 -0.386,-0.863 -0.955,-0.863c-0.844,-0 -1.404,0.642 -1.404,1.616c0,1.221 1.266,2.037 3.176,2.037l4.811,0c0.036,0 0.091,-0.027 0.091,-0.091c0,-2.662 -1.688,-4.636 -4.314,-4.636Zm-4.159,2.874c-0.22,0.587 -0.339,1.212 -0.339,1.945c-0,2.764 1.826,4.82 4.406,4.82c2.13,0 3.48,-0.936 4.196,-2.212l-0.165,-0.092c-0.689,1.221 -1.956,2.121 -4.031,2.121c-2.461,-0 -4.177,-1.956 -4.177,-4.637c0,-0.605 0.083,-1.137 0.239,-1.633l-0.129,-0.312Z" style="fill-rule:nonzero;"/></g></svg>