  0
SECTION
  2
HEADER
  9
$ACADVER
  1
AC1012
  9
$DWGCODEPAGE
  3
ansi_1251
  9
$INSBASE
 10
0.0
 20
0.0
 30
0.0
  9
$EXTMIN
 10
1.000000000000000E+20
 20
1.000000000000000E+20
 30
1.000000000000000E+20
  9
$EXTMAX
 10
-1.000000000000000E+20
 20
-1.000000000000000E+20
 30
-1.000000000000000E+20
  9
$LIMMIN
 10
0.0
 20
0.0
  9
$LIMMAX
 10
12.0
 20
9.0
  9
$ORTHOMODE
 70
     0
  9
$REGENMODE
 70
     1
  9
$FILLMODE
 70
     1
  9
$QTEXTMODE
 70
     0
  9
$MIRRTEXT
 70
     1
  9
$DRAGMODE
 70
     2
  9
$LTSCALE
 40
1.0
  9
$OSMODE
 70
    37
  9
$ATTMODE
 70
     1
  9
$TEXTSIZE
 40
0.2
  9
$TRACEWID
 40
0.05
  9
$TEXTSTYLE
  7
STANDARD
  9
$CLAYER
  8
0
  9
$CELTYPE
  6
BYLAYER
  9
$CECOLOR
 62
   256
  9
$CELTSCALE
 40
1.0
  9
$DELOBJ
 70
     1
  9
$DISPSILH
 70
     0
  9
$DIMSCALE
 40
1.0
  9
$DIMASZ
 40
0.18
  9
$DIMEXO
 40
0.0625
  9
$DIMDLI
 40
0.38
  9
$DIMRND
 40
0.0
  9
$DIMDLE
 40
0.0
  9
$DIMEXE
 40
0.18
  9
$DIMTP
 40
0.0
  9
$DIMTM
 40
0.0
  9
$DIMTXT
 40
0.18
  9
$DIMCEN
 40
0.09
  9
$DIMTSZ
 40
0.0
  9
$DIMTOL
 70
     0
  9
$DIMLIM
 70
     0
  9
$DIMTIH
 70
     1
  9
$DIMTOH
 70
     1
  9
$DIMSE1
 70
     0
  9
$DIMSE2
 70
     0
  9
$DIMTAD
 70
     0
  9
$DIMZIN
 70
     0
  9
$DIMBLK
  1

  9
$DIMASO
 70
     1
  9
$DIMSHO
 70
     1
  9
$DIMPOST
  1

  9
$DIMAPOST
  1

  9
$DIMALT
 70
     0
  9
$DIMALTD
 70
     2
  9
$DIMALTF
 40
25.4
  9
$DIMLFAC
 40
1.0
  9
$DIMTOFL
 70
     0
  9
$DIMTVP
 40
0.0
  9
$DIMTIX
 70
     0
  9
$DIMSOXD
 70
     0
  9
$DIMSAH
 70
     0
  9
$DIMBLK1
  1

  9
$DIMBLK2
  1

  9
$DIMSTYLE
  2
STANDARD
  9
$DIMCLRD
 70
     0
  9
$DIMCLRE
 70
     0
  9
$DIMCLRT
 70
     0
  9
$DIMTFAC
 40
1.0
  9
$DIMGAP
 40
0.09
  9
$DIMJUST
 70
     0
  9
$DIMSD1
 70
     0
  9
$DIMSD2
 70
     0
  9
$DIMTOLJ
 70
     1
  9
$DIMTZIN
 70
     0
  9
$DIMALTZ
 70
     0
  9
$DIMALTTZ
 70
     0
  9
$DIMFIT
 70
     3
  9
$DIMUPT
 70
     0
  9
$DIMUNIT
 70
     2
  9
$DIMDEC
 70
     4
  9
$DIMTDEC
 70
     4
  9
$DIMALTU
 70
     2
  9
$DIMALTTD
 70
     2
  9
$DIMTXSTY
  7
STANDARD
  9
$DIMAUNIT
 70
     0
  9
$LUNITS
 70
     2
  9
$LUPREC
 70
     4
  9
$SKETCHINC
 40
0.1
  9
$FILLETRAD
 40
0.5
  9
$AUNITS
 70
     0
  9
$AUPREC
 70
     0
  9
$MENU
  1
.
  9
$ELEVATION
 40
0.0
  9
$PELEVATION
 40
0.0
  9
$THICKNESS
 40
0.0
  9
$LIMCHECK
 70
     0
  9
$CHAMFERA
 40
0.5
  9
$CHAMFERB
 40
0.5
  9
$CHAMFERC
 40
1.0
  9
$CHAMFERD
 40
0.0
  9
$SKPOLY
 70
     0
  9
$TDCREATE
 40
2458723.810870012
  9
$TDUPDATE
 40
2458723.810870081
  9
$TDINDWG
 40
0.0000000116
  9
$TDUSRTIMER
 40
0.0000000116
  9
$USRTIMER
 70
     1
  9
$ANGBASE
 50
0.0
  9
$ANGDIR
 70
     0
  9
$PDMODE
 70
     0
  9
$PDSIZE
 40
0.0
  9
$PLINEWID
 40
0.0
  9
$COORDS
 70
     1
  9
$SPLFRAME
 70
     0
  9
$SPLINETYPE
 70
     6
  9
$SPLINESEGS
 70
     8
  9
$ATTDIA
 70
     0
  9
$ATTREQ
 70
     1
  9
$HANDLING
 70
     1
  9
$HANDSEED
  5
247
  9
$SURFTAB1
 70
     6
  9
$SURFTAB2
 70
     6
  9
$SURFTYPE
 70
     6
  9
$SURFU
 70
     6
  9
$SURFV
 70
     6
  9
$UCSNAME
  2

  9
$UCSORG
 10
0.0
 20
0.0
 30
0.0
  9
$UCSXDIR
 10
1.0
 20
0.0
 30
0.0
  9
$UCSYDIR
 10
0.0
 20
1.0
 30
0.0
  9
$PUCSNAME
  2

  9
$PUCSORG
 10
0.0
 20
0.0
 30
0.0
  9
$PUCSXDIR
 10
1.0
 20
0.0
 30
0.0
  9
$PUCSYDIR
 10
0.0
 20
1.0
 30
0.0
  9
$USERI1
 70
     0
  9
$USERI2
 70
     0
  9
$USERI3
 70
     0
  9
$USERI4
 70
     0
  9
$USERI5
 70
     0
  9
$USERR1
 40
0.0
  9
$USERR2
 40
0.0
  9
$USERR3
 40
0.0
  9
$USERR4
 40
0.0
  9
$USERR5
 40
0.0
  9
$WORLDVIEW
 70
     1
  9
$SHADEDGE
 70
     3
  9
$SHADEDIF
 70
    70
  9
$TILEMODE
 70
     1
  9
$MAXACTVP
 70
    64
  9
$PINSBASE
 10
0.0
 20
0.0
 30
0.0
  9
$PLIMCHECK
 70
     0
  9
$PEXTMIN
 10
1.000000000000000E+20
 20
1.000000000000000E+20
 30
1.000000000000000E+20
  9
$PEXTMAX
 10
-1.000000000000000E+20
 20
-1.000000000000000E+20
 30
-1.000000000000000E+20
  9
$PLIMMIN
 10
0.0
 20
0.0
  9
$PLIMMAX
 10
12.0
 20
9.0
  9
$UNITMODE
 70
     0
  9
$VISRETAIN
 70
     1
  9
$PLINEGEN
 70
     0
  9
$PSLTSCALE
 70
     1
  9
$TREEDEPTH
 70
  3020
  9
$PICKSTYLE
 70
     1
  9
$CMLSTYLE
  2
STANDARD
  9
$CMLJUST
 70
     0
  9
$CMLSCALE
 40
1.0
  9
$SAVEIMAGES
 70
     1
  0
ENDSEC
  0
SECTION
  2
CLASSES
  0
CLASS
  1
ACDBDICTIONARYWDFLT
  2
AcDbDictionaryWithDefault
  3
ObjectDBX Classes
 90
    32768
280
     0
281
     0
  0
CLASS
  1
VISUALSTYLE
  2
AcDbVisualStyle
  3
ObjectDBX Classes
 90
     4095
280
     0
281
     0
  0
CLASS
  1
MATERIAL
  2
AcDbMaterial
  3
ObjectDBX Classes
 90
     1153
280
     0
281
     0
  0
CLASS
  1
SUN
  2
AcDbSun
  3
SCENEOE
 90
     1024
280
     0
281
     0
  0
CLASS
  1
DICTIONARYVAR
  2
AcDbDictionaryVar
  3
ObjectDBX Classes
 90
        0
280
     0
281
     0
  0
CLASS
  1
XRECORD
  2
AcDbXrecord
  3
AutoCAD 2000
 90
    32768
280
     0
281
     0
  0
CLASS
  1
LWPOLYLINE
  2
AcDbPolyline
  3
AutoCAD 2000
 90
    32768
280
     0
281
     1
  0
CLASS
  1
HATCH
  2
AcDbHatch
  3
AutoCAD 2000
 90
    32768
280
     0
281
     1
  0
CLASS
  1
ACDBPLACEHOLDER
  2
AcDbPlaceHolder
  3
ObjectDBX Classes
 90
        0
280
     0
281
     0
  0
CLASS
  1
LAYOUT
  2
AcDbLayout
  3
ObjectDBX Classes
 90
        0
280
     0
281
     0
  0
ENDSEC
  0
SECTION
  2
TABLES
  0
TABLE
  2
VPORT
  5
8
330
0
100
AcDbSymbolTable
 70
     1
  0
VPORT
  5
29
330
8
100
AcDbSymbolTableRecord
100
AcDbViewportTableRecord
  2
*ACTIVE
 70
     0
 10
0.0
 20
0.0
 11
1.0
 21
1.0
 12
0.0
 22
0.0
 13
0.0
 23
0.0
 14
0.5
 24
0.5
 15
0.5
 25
0.5
 16
0.0
 26
0.0
 36
1.0
 17
-66.24814426904898
 27
6.600352365588229
 37
0.0
 40
184.7375813801405
 41
0.8394182615399682
 42
50.0
 43
0.0
 44
0.0
 50
0.0
 51
0.0
 71
     0
 72
   100
 73
     1
 74
     3
 75
     0
 76
     0
 77
     0
 78
     0
  0
ENDTAB
  0
TABLE
  2
LTYPE
  5
5
330
0
100
AcDbSymbolTable
 70
     1
  0
LTYPE
  5
14
330
5
100
AcDbSymbolTableRecord
100
AcDbLinetypeTableRecord
  2
BYBLOCK
 70
     0
  3

 72
    65
 73
     0
 40
0.0
  0
LTYPE
  5
15
330
5
100
AcDbSymbolTableRecord
100
AcDbLinetypeTableRecord
  2
BYLAYER
 70
     0
  3

 72
    65
 73
     0
 40
0.0
  0
LTYPE
  5
16
330
5
100
AcDbSymbolTableRecord
100
AcDbLinetypeTableRecord
  2
CONTINUOUS
 70
     0
  3
Solid line
 72
    65
 73
     0
 40
0.0
  0
ENDTAB
  0
TABLE
  2
LAYER
  5
2
330
0
100
AcDbSymbolTable
 70
     3
  0
LAYER
  5
10
330
2
100
AcDbSymbolTableRecord
100
AcDbLayerTableRecord
  2
0
 70
     0
 62
     7
  6
CONTINUOUS
  0
LAYER
  5
40
330
2
100
AcDbSymbolTableRecord
100
AcDbLayerTableRecord
  2
_U_5F6B_U_523B_U_30D1_U_30
 70
     0
 62
     7
  6
CONTINUOUS
  0
LAYER
  5
41
330
2
100
AcDbSymbolTableRecord
100
AcDbLayerTableRecord
  2
_U_5207_U_65AD_U_30D1_U_30
 70
     0
 62
     7
  6
CONTINUOUS
  0
ENDTAB
  0
TABLE
  2
STYLE
  5
3
330
0
100
AcDbSymbolTable
 70
     1
  0
STYLE
  5
11
330
3
100
AcDbSymbolTableRecord
100
AcDbTextStyleTableRecord
  2
STANDARD
 70
     0
 40
0.0
 41
1.0
 50
0.0
 71
     0
 42
0.2
  3
txt
  4

  0
ENDTAB
  0
TABLE
  2
VIEW
  5
6
330
0
100
AcDbSymbolTable
 70
     0
  0
ENDTAB
  0
TABLE
  2
UCS
  5
7
330
0
100
AcDbSymbolTable
 70
     0
  0
ENDTAB
  0
TABLE
  2
APPID
  5
9
330
0
100
AcDbSymbolTable
 70
     1
  0
APPID
  5
12
330
9
100
AcDbSymbolTableRecord
100
AcDbRegAppTableRecord
  2
ACAD
 70
     0
  0
ENDTAB
  0
TABLE
  2
DIMSTYLE
  5
A
330
0
100
AcDbSymbolTable
 70
     1
  0
DIMSTYLE
105
27
330
A
100
AcDbSymbolTableRecord
100
AcDbDimStyleTableRecord
  2
STANDARD
 70
     0
  3

  4

  5

  6

  7

 40
1.0
 41
0.18
 42
0.0625
 43
0.38
 44
0.18
 45
0.0
 46
0.0
 47
0.0
 48
0.0
140
0.18
141
0.09
142
0.0
143
25.4
144
1.0
145
0.0
146
1.0
147
0.09
 71
     0
 72
     0
 73
     1
 74
     1
 75
     0
 76
     0
 77
     0
 78
     0
170
     0
171
     2
172
     0
173
     0
174
     0
175
     0
176
     0
177
     0
178
     0
270
     2
271
     4
272
     4
273
     2
274
     2
340
11
275
     0
280
     0
281
     0
282
     0
283
     1
284
     0
285
     0
286
     0
287
     3
288
     0
  0
ENDTAB
  0
TABLE
  2
BLOCK_RECORD
  5
1
330
0
100
AcDbSymbolTable
 70
    72
  0
BLOCK_RECORD
  5
1F
330
1
100
AcDbSymbolTableRecord
100
AcDbBlockTableRecord
  2
*MODEL_SPACE
  0
BLOCK_RECORD
  5
1B
330
1
100
AcDbSymbolTableRecord
100
AcDbBlockTableRecord
  2
*PAPER_SPACE
  0
BLOCK_RECORD
  5
42
330
1
100
AcDbSymbolTableRecord
100
AcDbBlockTableRecord
  2
BLOCK_2
  0
BLOCK_RECORD
  5
46
330
1
100
AcDbSymbolTableRecord
100
AcDbBlockTableRecord
  2
BLOCK_3
  0
BLOCK_RECORD
  5
4B
330
1
100
AcDbSymbolTableRecord
100
AcDbBlockTableRecord
  2
BLOCK_4
  0
BLOCK_RECORD
  5
50
330
1
100
AcDbSymbolTableRecord
100
AcDbBlockTableRecord
  2
BLOCK_5
  0
BLOCK_RECORD
  5
55
330
1
100
AcDbSymbolTableRecord
100
AcDbBlockTableRecord
  2
BLOCK_6
  0
BLOCK_RECORD
  5
59
330
1
100
AcDbSymbolTableRecord
100
AcDbBlockTableRecord
  2
BLOCK_7
  0
BLOCK_RECORD
  5
5E
330
1
100
AcDbSymbolTableRecord
100
AcDbBlockTableRecord
  2
BLOCK_8
  0
BLOCK_RECORD
  5
63
330
1
100
AcDbSymbolTableRecord
100
AcDbBlockTableRecord
  2
BLOCK_9
  0
BLOCK_RECORD
  5
67
330
1
100
AcDbSymbolTableRecord
100
AcDbBlockTableRecord
  2
BLOCK_10
  0
BLOCK_RECORD
  5
6C
330
1
100
AcDbSymbolTableRecord
100
AcDbBlockTableRecord
  2
BLOCK_11
  0
BLOCK_RECORD
  5
71
330
1
100
AcDbSymbolTableRecord
100
AcDbBlockTableRecord
  2
BLOCK_12
  0
BLOCK_RECORD
  5
75
330
1
100
AcDbSymbolTableRecord
100
AcDbBlockTableRecord
  2
BLOCK_13
  0
BLOCK_RECORD
  5
7A
330
1
100
AcDbSymbolTableRecord
100
AcDbBlockTableRecord
  2
BLOCK_14
  0
BLOCK_RECORD
  5
7F
330
1
100
AcDbSymbolTableRecord
100
AcDbBlockTableRecord
  2
BLOCK_15
  0
BLOCK_RECORD
  5
83
330
1
100
AcDbSymbolTableRecord
100
AcDbBlockTableRecord
  2
BLOCK_16
  0
BLOCK_RECORD
  5
88
330
1
100
AcDbSymbolTableRecord
100
AcDbBlockTableRecord
  2
BLOCK_17
  0
BLOCK_RECORD
  5
8D
330
1
100
AcDbSymbolTableRecord
100
AcDbBlockTableRecord
  2
BLOCK_18
  0
BLOCK_RECORD
  5
91
330
1
100
AcDbSymbolTableRecord
100
AcDbBlockTableRecord
  2
BLOCK_19
  0
BLOCK_RECORD
  5
96
330
1
100
AcDbSymbolTableRecord
100
AcDbBlockTableRecord
  2
BLOCK_20
  0
BLOCK_RECORD
  5
9B
330
1
100
AcDbSymbolTableRecord
100
AcDbBlockTableRecord
  2
BLOCK_21
  0
BLOCK_RECORD
  5
A0
330
1
100
AcDbSymbolTableRecord
100
AcDbBlockTableRecord
  2
BLOCK_22
  0
BLOCK_RECORD
  5
A5
330
1
100
AcDbSymbolTableRecord
100
AcDbBlockTableRecord
  2
BLOCK_23
  0
BLOCK_RECORD
  5
AA
330
1
100
AcDbSymbolTableRecord
100
AcDbBlockTableRecord
  2
BLOCK_24
  0
BLOCK_RECORD
  5
B5
330
1
100
AcDbSymbolTableRecord
100
AcDbBlockTableRecord
  2
BLOCK_25
  0
BLOCK_RECORD
  5
C0
330
1
100
AcDbSymbolTableRecord
100
AcDbBlockTableRecord
  2
BLOCK_26
  0
BLOCK_RECORD
  5
CB
330
1
100
AcDbSymbolTableRecord
100
AcDbBlockTableRecord
  2
BLOCK_27
  0
BLOCK_RECORD
  5
D6
330
1
100
AcDbSymbolTableRecord
100
AcDbBlockTableRecord
  2
BLOCK_28
  0
BLOCK_RECORD
  5
E1
330
1
100
AcDbSymbolTableRecord
100
AcDbBlockTableRecord
  2
BLOCK_29
  0
BLOCK_RECORD
  5
EC
330
1
100
AcDbSymbolTableRecord
100
AcDbBlockTableRecord
  2
BLOCK_30
  0
BLOCK_RECORD
  5
F7
330
1
100
AcDbSymbolTableRecord
100
AcDbBlockTableRecord
  2
BLOCK_31
  0
BLOCK_RECORD
  5
102
330
1
100
AcDbSymbolTableRecord
100
AcDbBlockTableRecord
  2
BLOCK_32
  0
BLOCK_RECORD
  5
10D
330
1
100
AcDbSymbolTableRecord
100
AcDbBlockTableRecord
  2
BLOCK_33
  0
BLOCK_RECORD
  5
118
330
1
100
AcDbSymbolTableRecord
100
AcDbBlockTableRecord
  2
BLOCK_34
  0
BLOCK_RECORD
  5
123
330
1
100
AcDbSymbolTableRecord
100
AcDbBlockTableRecord
  2
BLOCK_35
  0
BLOCK_RECORD
  5
12E
330
1
100
AcDbSymbolTableRecord
100
AcDbBlockTableRecord
  2
BLOCK_36
  0
BLOCK_RECORD
  5
139
330
1
100
AcDbSymbolTableRecord
100
AcDbBlockTableRecord
  2
BLOCK_37
  0
BLOCK_RECORD
  5
144
330
1
100
AcDbSymbolTableRecord
100
AcDbBlockTableRecord
  2
BLOCK_38
  0
BLOCK_RECORD
  5
14F
330
1
100
AcDbSymbolTableRecord
100
AcDbBlockTableRecord
  2
BLOCK_39
  0
BLOCK_RECORD
  5
15A
330
1
100
AcDbSymbolTableRecord
100
AcDbBlockTableRecord
  2
BLOCK_40
  0
BLOCK_RECORD
  5
165
330
1
100
AcDbSymbolTableRecord
100
AcDbBlockTableRecord
  2
BLOCK_41
  0
BLOCK_RECORD
  5
170
330
1
100
AcDbSymbolTableRecord
100
AcDbBlockTableRecord
  2
BLOCK_42
  0
BLOCK_RECORD
  5
17B
330
1
100
AcDbSymbolTableRecord
100
AcDbBlockTableRecord
  2
BLOCK_43
  0
BLOCK_RECORD
  5
186
330
1
100
AcDbSymbolTableRecord
100
AcDbBlockTableRecord
  2
BLOCK_44
  0
BLOCK_RECORD
  5
19A
330
1
100
AcDbSymbolTableRecord
100
AcDbBlockTableRecord
  2
BLOCK_45
  0
BLOCK_RECORD
  5
19F
330
1
100
AcDbSymbolTableRecord
100
AcDbBlockTableRecord
  2
BLOCK_46
  0
BLOCK_RECORD
  5
1A4
330
1
100
AcDbSymbolTableRecord
100
AcDbBlockTableRecord
  2
BLOCK_47
  0
BLOCK_RECORD
  5
1A9
330
1
100
AcDbSymbolTableRecord
100
AcDbBlockTableRecord
  2
BLOCK_48
  0
BLOCK_RECORD
  5
1B2
330
1
100
AcDbSymbolTableRecord
100
AcDbBlockTableRecord
  2
BLOCK_49
  0
BLOCK_RECORD
  5
1C6
330
1
100
AcDbSymbolTableRecord
100
AcDbBlockTableRecord
  2
BLOCK_50
  0
BLOCK_RECORD
  5
1CA
330
1
100
AcDbSymbolTableRecord
100
AcDbBlockTableRecord
  2
BLOCK_51
  0
BLOCK_RECORD
  5
1CF
330
1
100
AcDbSymbolTableRecord
100
AcDbBlockTableRecord
  2
BLOCK_52
  0
BLOCK_RECORD
  5
1D4
330
1
100
AcDbSymbolTableRecord
100
AcDbBlockTableRecord
  2
BLOCK_53
  0
BLOCK_RECORD
  5
1D9
330
1
100
AcDbSymbolTableRecord
100
AcDbBlockTableRecord
  2
BLOCK_54
  0
BLOCK_RECORD
  5
1DE
330
1
100
AcDbSymbolTableRecord
100
AcDbBlockTableRecord
  2
BLOCK_55
  0
BLOCK_RECORD
  5
1E3
330
1
100
AcDbSymbolTableRecord
100
AcDbBlockTableRecord
  2
BLOCK_56
  0
BLOCK_RECORD
  5
1E8
330
1
100
AcDbSymbolTableRecord
100
AcDbBlockTableRecord
  2
BLOCK_57
  0
BLOCK_RECORD
  5
1ED
330
1
100
AcDbSymbolTableRecord
100
AcDbBlockTableRecord
  2
BLOCK_58
  0
BLOCK_RECORD
  5
1F2
330
1
100
AcDbSymbolTableRecord
100
AcDbBlockTableRecord
  2
BLOCK_59
  0
BLOCK_RECORD
  5
1F7
330
1
100
AcDbSymbolTableRecord
100
AcDbBlockTableRecord
  2
BLOCK_60
  0
BLOCK_RECORD
  5
1FD
330
1
100
AcDbSymbolTableRecord
100
AcDbBlockTableRecord
  2
BLOCK_61
  0
BLOCK_RECORD
  5
201
330
1
100
AcDbSymbolTableRecord
100
AcDbBlockTableRecord
  2
BLOCK_62
  0
BLOCK_RECORD
  5
206
330
1
100
AcDbSymbolTableRecord
100
AcDbBlockTableRecord
  2
BLOCK_63
  0
BLOCK_RECORD
  5
20B
330
1
100
AcDbSymbolTableRecord
100
AcDbBlockTableRecord
  2
BLOCK_64
  0
BLOCK_RECORD
  5
20F
330
1
100
AcDbSymbolTableRecord
100
AcDbBlockTableRecord
  2
BLOCK_65
  0
BLOCK_RECORD
  5
214
330
1
100
AcDbSymbolTableRecord
100
AcDbBlockTableRecord
  2
BLOCK_66
  0
BLOCK_RECORD
  5
219
330
1
100
AcDbSymbolTableRecord
100
AcDbBlockTableRecord
  2
BLOCK_67
  0
BLOCK_RECORD
  5
21D
330
1
100
AcDbSymbolTableRecord
100
AcDbBlockTableRecord
  2
BLOCK_68
  0
BLOCK_RECORD
  5
222
330
1
100
AcDbSymbolTableRecord
100
AcDbBlockTableRecord
  2
BLOCK_69
  0
BLOCK_RECORD
  5
227
330
1
100
AcDbSymbolTableRecord
100
AcDbBlockTableRecord
  2
BLOCK_70
  0
BLOCK_RECORD
  5
22B
330
1
100
AcDbSymbolTableRecord
100
AcDbBlockTableRecord
  2
BLOCK_71
  0
BLOCK_RECORD
  5
230
330
1
100
AcDbSymbolTableRecord
100
AcDbBlockTableRecord
  2
BLOCK_72
  0
ENDTAB
  0
ENDSEC
  0
SECTION
  2
BLOCKS
  0
BLOCK
  5
20
330
1F
100
AcDbEntity
  8
0
100
AcDbBlockBegin
  2
*MODEL_SPACE
 70
     0
 10
0.0
 20
0.0
 30
0.0
  3
*MODEL_SPACE
  1

  0
ENDBLK
  5
21
330
1F
100
AcDbEntity
  8
0
100
AcDbBlockEnd
  0
BLOCK
  5
1C
330
1B
100
AcDbEntity
 67
     1
  8
0
100
AcDbBlockBegin
  2
*PAPER_SPACE
 70
     0
 10
0.0
 20
0.0
 30
0.0
  3
*PAPER_SPACE
  1

  0
ENDBLK
  5
1D
330
1B
100
AcDbEntity
 67
     1
  8
0
100
AcDbBlockEnd
  0
BLOCK
  5
44
330
42
100
AcDbEntity
  8
0
100
AcDbBlockBegin
  2
BLOCK_2
 70
     0
 10
0.0
 20
0.0
 30
0.0
  3
BLOCK_2
  1

  0
INSERT
  5
47
330
42
100
AcDbEntity
  8
_U_5207_U_65AD_U_30D1_U_30
100
AcDbBlockReference
  2
BLOCK_3
 10
0.0
 20
0.0
 30
0.0
  0
INSERT
  5
4C
330
42
100
AcDbEntity
  8
_U_5207_U_65AD_U_30D1_U_30
100
AcDbBlockReference
  2
BLOCK_4
 10
0.0
 20
0.0
 30
0.0
  0
INSERT
  5
51
330
42
100
AcDbEntity
  8
_U_5207_U_65AD_U_30D1_U_30
100
AcDbBlockReference
  2
BLOCK_5
 10
0.0
 20
0.0
 30
0.0
  0
ENDBLK
  5
45
330
42
100
AcDbEntity
  8
0
100
AcDbBlockEnd
  0
BLOCK
  5
48
330
46
100
AcDbEntity
  8
0
100
AcDbBlockBegin
  2
BLOCK_3
 70
     0
 10
0.0
 20
0.0
 30
0.0
  3
BLOCK_3
  1

  0
SPLINE
  5
4A
330
46
100
AcDbEntity
  8
_U_5207_U_65AD_U_30D1_U_30
 62
     1
100
AcDbSpline
210
0.0
220
0.0
230
1.0
 70
    11
 71
     3
 72
    32
 73
    28
 74
     0
 42
0.0000000001
 43
0.0000000001
 12
1.0
 22
0.0
 32
0.0
 13
1.0
 23
0.0
 33
0.0
 40
0.0
 40
0.0
 40
0.0
 40
0.0
 40
1.0
 40
1.0
 40
1.0
 40
2.0
 40
2.0
 40
2.0
 40
3.0
 40
3.0
 40
3.0
 40
4.0
 40
4.0
 40
4.0
 40
5.0
 40
5.0
 40
5.0
 40
6.0
 40
6.0
 40
6.0
 40
7.0
 40
7.0
 40
7.0
 40
8.0
 40
8.0
 40
8.0
 40
9.0
 40
9.0
 40
9.0
 40
9.0
 10
-9.339730908742293
 20
88.30932318630322
 30
0.0
 10
-9.339730908742293
 20
88.30932318630322
 30
0.0
 10
-9.339730910868242
 20
40.9527364653738
 30
0.0
 10
-9.339730910868242
 20
40.9527364653738
 30
0.0
 10
-9.279881318471679
 20
40.42998554248238
 30
0.0
 10
-9.045524742737458
 20
40.17158555351052
 30
0.0
 10
-8.700840411537358
 20
39.87097237066679
 30
0.0
 10
-8.700840411537358
 20
39.87097237066679
 30
0.0
 10
10.1389496575724
 20
29.0145573304262
 30
0.0
 10
10.1389496575724
 20
29.0145573304262
 30
0.0
 10
10.54365348154314
 20
28.84444046527849
 30
0.0
 10
11.00963772013451
 20
29.03461076960529
 30
0.0
 10
11.17975458528414
 20
29.43931459357987
 30
0.0
 10
11.2048152003911
 20
29.4989331784458
 30
0.0
 10
11.2225064689502
 20
29.56138729382838
 30
0.0
 10
11.2324360845036
 20
29.62529201059832
 30
0.0
 10
11.2324360845036
 20
29.62529201059832
 30
0.0
 10
11.23126626408548
 20
88.29901430110355
 30
0.0
 10
11.23126626408548
 20
88.29901430110355
 30
0.0
 10
11.23126609443501
 20
88.57517626259336
 30
0.0
 10
11.00739245376489
 20
88.79904962820754
 30
0.0
 10
10.73123049227637
 20
88.79904945855642
 30
0.0
 10
10.73123049227637
 20
88.79904945855642
 30
0.0
 10
-8.839503459637838
 20
88.80985662429418
 30
0.0
 10
-8.839503459637838
 20
88.80985662429418
 30
0.0
 10
-9.115740427941649
 20
88.80949367775688
 30
0.0
 10
-9.339536884613032
 20
88.5855603249069
 30
0.0
 10
-9.339730908742293
 20
88.30932318630322
 30
0.0
  0
ENDBLK
  5
49
330
46
100
AcDbEntity
  8
0
100
AcDbBlockEnd
  0
BLOCK
  5
4D
330
4B
100
AcDbEntity
  8
0
100
AcDbBlockBegin
  2
BLOCK_4
 70
     0
 10
0.0
 20
0.0
 30
0.0
  3
BLOCK_4
  1

  0
SPLINE
  5
4F
330
4B
100
AcDbEntity
  8
_U_5207_U_65AD_U_30D1_U_30
 62
     1
100
AcDbSpline
210
0.0
220
0.0
230
1.0
 70
    11
 71
     3
 72
    20
 73
    16
 74
     0
 42
0.0000000001
 43
0.0000000001
 12
1.0
 22
0.0
 32
0.0
 13
1.0
 23
0.0
 33
0.0
 40
0.0
 40
0.0
 40
0.0
 40
0.0
 40
1.0
 40
1.0
 40
1.0
 40
2.0
 40
2.0
 40
2.0
 40
3.0
 40
3.0
 40
3.0
 40
4.0
 40
4.0
 40
4.0
 40
5.0
 40
5.0
 40
5.0
 40
5.0
 10
-6.862515321293016
 20
41.33593162146
 30
0.0
 10
-6.862515694523787
 20
41.94348793673192
 30
0.0
 10
-6.369994290177477
 20
42.43600994620363
 30
0.0
 10
-5.762437974900422
 20
42.43601031943441
 30
0.0
 10
-5.154881659625934
 20
42.43601069266389
 30
0.0
 10
-4.662359650152938
 20
41.94348928831823
 30
0.0
 10
-4.662359276921525
 20
41.33593297304759
 30
0.0
 10
-4.662358903691397
 20
40.72837665776861
 30
0.0
 10
-5.15488030803899
 20
40.23585464829625
 30
0.0
 10
-5.762436623312836
 20
40.23585427506548
 30
0.0
 10
-6.369992938589891
 20
40.23585390183471
 30
0.0
 10
-6.862514948062888
 20
40.72837530618102
 30
0.0
 10
-6.862515321293016
 20
41.33593162146
 30
0.0
 10
-6.862515321293016
 20
41.33593162146
 30
0.0
 10
-6.862515321293016
 20
41.33593162146
 30
0.0
 10
-6.862515321293016
 20
41.33593162146
 30
0.0
  0
ENDBLK
  5
4E
330
4B
100
AcDbEntity
  8
0
100
AcDbBlockEnd
  0
BLOCK
  5
52
330
50
100
AcDbEntity
  8
0
100
AcDbBlockBegin
  2
BLOCK_5
 70
     0
 10
0.0
 20
0.0
 30
0.0
  3
BLOCK_5
  1

  0
SPLINE
  5
54
330
50
100
AcDbEntity
  8
_U_5207_U_65AD_U_30D1_U_30
 62
     1
100
AcDbSpline
210
0.0
220
0.0
230
1.0
 70
    11
 71
     3
 72
    20
 73
    16
 74
     0
 42
0.0000000001
 43
0.0000000001
 12
1.0
 22
0.0
 32
0.0
 13
1.0
 23
0.0
 33
0.0
 40
0.0
 40
0.0
 40
0.0
 40
0.0
 40
1.0
 40
1.0
 40
1.0
 40
2.0
 40
2.0
 40
2.0
 40
3.0
 40
3.0
 40
3.0
 40
4.0
 40
4.0
 40
4.0
 40
5.0
 40
5.0
 40
5.0
 40
5.0
 10
7.638518375020366
 20
32.8353376309378
 30
0.0
 10
7.638518001789596
 20
33.44289394621614
 30
0.0
 10
8.131039406138473
 20
33.93541595568015
 30
0.0
 10
8.738595721409752
 20
33.93541632891028
 30
0.0
 10
9.34615203668809
 20
33.93541670214105
 30
0.0
 10
9.838674046163653
 20
33.44289529780244
 30
0.0
 10
9.838674419393142
 20
32.8353389825241
 30
0.0
 10
9.838674792625836
 20
32.22778266724062
 30
0.0
 10
9.346153388275676
 20
31.73526065776892
 30
0.0
 10
8.738597072997338
 20
31.73526028453879
 30
0.0
 10
8.131040757725417
 20
31.73525991130802
 30
0.0
 10
7.638518748251778
 20
32.22778131565433
 30
0.0
 10
7.638518375020366
 20
32.8353376309378
 30
0.0
 10
7.638518375020366
 20
32.8353376309378
 30
0.0
 10
7.638518375020366
 20
32.8353376309378
 30
0.0
 10
7.638518375020366
 20
32.8353376309378
 30
0.0
  0
ENDBLK
  5
53
330
50
100
AcDbEntity
  8
0
100
AcDbBlockEnd
  0
BLOCK
  5
57
330
55
100
AcDbEntity
  8
0
100
AcDbBlockBegin
  2
BLOCK_6
 70
     0
 10
0.0
 20
0.0
 30
0.0
  3
BLOCK_6
  1

  0
INSERT
  5
5A
330
55
100
AcDbEntity
  8
_U_5207_U_65AD_U_30D1_U_30
100
AcDbBlockReference
  2
BLOCK_7
 10
0.0
 20
0.0
 30
0.0
  0
INSERT
  5
5F
330
55
100
AcDbEntity
  8
_U_5207_U_65AD_U_30D1_U_30
100
AcDbBlockReference
  2
BLOCK_8
 10
0.0
 20
0.0
 30
0.0
  0
ENDBLK
  5
58
330
55
100
AcDbEntity
  8
0
100
AcDbBlockEnd
  0
BLOCK
  5
5B
330
59
100
AcDbEntity
  8
0
100
AcDbBlockBegin
  2
BLOCK_7
 70
     0
 10
0.0
 20
0.0
 30
0.0
  3
BLOCK_7
  1

  0
SPLINE
  5
5D
330
59
100
AcDbEntity
  8
_U_5207_U_65AD_U_30D1_U_30
 62
     1
100
AcDbSpline
210
0.0
220
0.0
230
1.0
 70
    11
 71
     3
 72
    20
 73
    16
 74
     0
 42
0.0000000001
 43
0.0000000001
 12
1.0
 22
0.0
 32
0.0
 13
1.0
 23
0.0
 33
0.0
 40
0.0
 40
0.0
 40
0.0
 40
0.0
 40
1.0
 40
1.0
 40
1.0
 40
2.0
 40
2.0
 40
2.0
 40
3.0
 40
3.0
 40
3.0
 40
4.0
 40
4.0
 40
4.0
 40
5.0
 40
5.0
 40
5.0
 40
5.0
 10
-20.42609477096978
 20
-64.4587358011007
 30
0.0
 10
-20.4260955408373
 20
-63.01047669883612
 30
0.0
 10
-19.24197819718776
 20
-61.83878253697142
 30
0.0
 10
-17.78907551594048
 20
-61.85899689037978
 30
0.0
 10
-16.40830012836613
 20
-61.8782077308731
 30
0.0
 10
-15.24556959094814
 20
-63.04093703206335
 30
0.0
 10
-15.22635728238571
 20
-64.42171239921113
 30
0.0
 10
-15.20614138422038
 20
-65.87461505901571
 30
0.0
 10
-16.37783428719927
 20
-67.05873364845785
 30
0.0
 10
-17.82609338950941
 20
-67.05873441832536
 30
0.0
 10
-19.26203373871504
 20
-67.05873518164434
 30
0.0
 10
-20.42609400765081
 20
-65.89467615028451
 30
0.0
 10
-20.42609477096978
 20
-64.4587358011007
 30
0.0
 10
-20.42609477096978
 20
-64.4587358011007
 30
0.0
 10
-20.42609477096978
 20
-64.4587358011007
 30
0.0
 10
-20.42609477096978
 20
-64.4587358011007
 30
0.0
  0
ENDBLK
  5
5C
330
59
100
AcDbEntity
  8
0
100
AcDbBlockEnd
  0
BLOCK
  5
60
330
5E
100
AcDbEntity
  8
0
100
AcDbBlockBegin
  2
BLOCK_8
 70
     0
 10
0.0
 20
0.0
 30
0.0
  3
BLOCK_8
  1

  0
SPLINE
  5
62
330
5E
100
AcDbEntity
  8
_U_5207_U_65AD_U_30D1_U_30
 62
     1
100
AcDbSpline
210
0.0
220
0.0
230
1.0
 70
    11
 71
     3
 72
    38
 73
    34
 74
     0
 42
0.0000000001
 43
0.0000000001
 12
1.0
 22
0.0
 32
0.0
 13
1.0
 23
0.0
 33
0.0
 40
0.0
 40
0.0
 40
0.0
 40
0.0
 40
1.0
 40
1.0
 40
1.0
 40
2.0
 40
2.0
 40
2.0
 40
3.0
 40
3.0
 40
3.0
 40
4.0
 40
4.0
 40
4.0
 40
5.0
 40
5.0
 40
5.0
 40
6.0
 40
6.0
 40
6.0
 40
7.0
 40
7.0
 40
7.0
 40
8.0
 40
8.0
 40
8.0
 40
9.0
 40
9.0
 40
9.0
 40
10.0
 40
10.0
 40
10.0
 40
11.0
 40
11.0
 40
11.0
 40
11.0
 10
-12.71796787165319
 20
-68.79103645189062
 30
0.0
 10
-12.31916559150566
 20
-68.79116639826906
 30
0.0
 10
-12.071400907445
 20
-68.34125330630856
 30
0.0
 10
-12.30133874608643
 20
-68.0154130603317
 30
0.0
 10
-12.45770040797973
 20
-67.7938361216519
 30
0.0
 10
-12.59561600236481
 20
-67.53503168730545
 30
0.0
 10
-12.69115067882174
 20
-67.23579956945906
 30
0.0
 10
-12.79731614086556
 20
-66.90327249366871
 30
0.0
 10
-12.82724271641282
 20
-66.59569006237625
 30
0.0
 10
-12.82609345409111
 20
-66.34347677508579
 30
0.0
 10
-12.82609345409111
 20
-66.34347677508579
 30
0.0
 10
-12.82608934127641
 20
-64.59011380692536
 30
0.0
 10
-12.82608934127641
 20
-64.59011380692536
 30
0.0
 10
-12.82608332086757
 20
-62.02351048320724
 30
0.0
 10
-14.70634887457754
 20
-59.77165506971146
 30
0.0
 10
-17.25747293805297
 20
-59.49019701934598
 30
0.0
 10
-20.27352293205243
 20
-59.15744505197961
 30
0.0
 10
-22.82609685917373
 20
-61.50999913372679
 30
0.0
 10
-22.82609406618091
 20
-64.45874039656934
 30
0.0
 10
-22.82609406618091
 20
-64.45874039656934
 30
0.0
 10
-22.82609406618091
 20
-66.34109750601628
 30
0.0
 10
-22.82609406618091
 20
-66.34109750601628
 30
0.0
 10
-22.82626901243601
 20
-66.5973803123487
 30
0.0
 10
-22.85949803498359
 20
-67.38214076611844
 30
0.0
 10
-23.42203906403164
 20
-68.13597072198466
 30
0.0
 10
-23.42203906403164
 20
-68.13597072198466
 30
0.0
 10
-23.42203955193082
 20
-68.13597137340352
 30
0.0
 10
-23.42203955193082
 20
-68.13597137340352
 30
0.0
 10
-23.62320088930743
 20
-68.4045520292658
 30
0.0
 10
-23.43162569445515
 20
-68.78754549633948
 30
0.0
 10
-23.09606431206842
 20
-68.78765483620178
 30
0.0
 10
-23.09606431206842
 20
-68.78765483620178
 30
0.0
 10
-12.71796787165319
 20
-68.79103645189062
 30
0.0
 10
-12.71796787165319
 20
-68.79103645189062
 30
0.0
  0
ENDBLK
  5
61
330
5E
100
AcDbEntity
  8
0
100
AcDbBlockEnd
  0
BLOCK
  5
65
330
63
100
AcDbEntity
  8
0
100
AcDbBlockBegin
  2
BLOCK_9
 70
     0
 10
0.0
 20
0.0
 30
0.0
  3
BLOCK_9
  1

  0
INSERT
  5
68
330
63
100
AcDbEntity
  8
_U_5207_U_65AD_U_30D1_U_30
100
AcDbBlockReference
  2
BLOCK_10
 10
0.0
 20
0.0
 30
0.0
  0
INSERT
  5
6D
330
63
100
AcDbEntity
  8
_U_5207_U_65AD_U_30D1_U_30
100
AcDbBlockReference
  2
BLOCK_11
 10
0.0
 20
0.0
 30
0.0
  0
ENDBLK
  5
66
330
63
100
AcDbEntity
  8
0
100
AcDbBlockEnd
  0
BLOCK
  5
69
330
67
100
AcDbEntity
  8
0
100
AcDbBlockBegin
  2
BLOCK_10
 70
     0
 10
0.0
 20
0.0
 30
0.0
  3
BLOCK_10
  1

  0
SPLINE
  5
6B
330
67
100
AcDbEntity
  8
_U_5207_U_65AD_U_30D1_U_30
 62
     1
100
AcDbSpline
210
0.0
220
0.0
230
1.0
 70
    11
 71
     3
 72
    20
 73
    16
 74
     0
 42
0.0000000001
 43
0.0000000001
 12
1.0
 22
0.0
 32
0.0
 13
1.0
 23
0.0
 33
0.0
 40
0.0
 40
0.0
 40
0.0
 40
0.0
 40
1.0
 40
1.0
 40
1.0
 40
2.0
 40
2.0
 40
2.0
 40
3.0
 40
3.0
 40
3.0
 40
4.0
 40
4.0
 40
4.0
 40
5.0
 40
5.0
 40
5.0
 40
5.0
 10
-59.50172816833656
 20
-64.45873580110006
 30
0.0
 10
-59.50172893820439
 20
-63.01047669883548
 30
0.0
 10
-58.31761159455485
 20
-61.83878253697077
 30
0.0
 10
-56.86470891330789
 20
-61.85899689037914
 30
0.0
 10
-55.48393352573291
 20
-61.87820773087246
 30
0.0
 10
-54.32120298831588
 20
-63.0409370320627
 30
0.0
 10
-54.30199067975312
 20
-64.42171239921049
 30
0.0
 10
-54.28177478158747
 20
-65.87461505901507
 30
0.0
 10
-55.45346768456669
 20
-67.0587336484572
 30
0.0
 10
-56.90172678687619
 20
-67.05873441832472
 30
0.0
 10
-58.33766713608181
 20
-67.05873518164368
 30
0.0
 10
-59.5017274050179
 20
-65.89467615028387
 30
0.0
 10
-59.50172816833656
 20
-64.45873580110006
 30
0.0
 10
-59.50172816833656
 20
-64.45873580110006
 30
0.0
 10
-59.50172816833656
 20
-64.45873580110006
 30
0.0
 10
-59.50172816833656
 20
-64.45873580110006
 30
0.0
  0
ENDBLK
  5
6A
330
67
100
AcDbEntity
  8
0
100
AcDbBlockEnd
  0
BLOCK
  5
6E
330
6C
100
AcDbEntity
  8
0
100
AcDbBlockBegin
  2
BLOCK_11
 70
     0
 10
0.0
 20
0.0
 30
0.0
  3
BLOCK_11
  1

  0
SPLINE
  5
70
330
6C
100
AcDbEntity
  8
_U_5207_U_65AD_U_30D1_U_30
 62
     1
100
AcDbSpline
210
0.0
220
0.0
230
1.0
 70
    11
 71
     3
 72
    38
 73
    34
 74
     0
 42
0.0000000001
 43
0.0000000001
 12
1.0
 22
0.0
 32
0.0
 13
1.0
 23
0.0
 33
0.0
 40
0.0
 40
0.0
 40
0.0
 40
0.0
 40
1.0
 40
1.0
 40
1.0
 40
2.0
 40
2.0
 40
2.0
 40
3.0
 40
3.0
 40
3.0
 40
4.0
 40
4.0
 40
4.0
 40
5.0
 40
5.0
 40
5.0
 40
6.0
 40
6.0
 40
6.0
 40
7.0
 40
7.0
 40
7.0
 40
8.0
 40
8.0
 40
8.0
 40
9.0
 40
9.0
 40
9.0
 40
10.0
 40
10.0
 40
10.0
 40
11.0
 40
11.0
 40
11.0
 40
11.0
 10
-51.79360126902029
 20
-68.79103645188998
 30
0.0
 10
-51.39479898887244
 20
-68.79116639826842
 30
0.0
 10
-51.1470343048121
 20
-68.34125330630792
 30
0.0
 10
-51.37697214345449
 20
-68.01541306033106
 30
0.0
 10
-51.53333380534715
 20
-67.79383612165127
 30
0.0
 10
-51.67124939973159
 20
-67.53503168730481
 30
0.0
 10
-51.76678407618916
 20
-67.23579956945842
 30
0.0
 10
-51.87294953823266
 20
-66.90327249366807
 30
0.0
 10
-51.90287611377992
 20
-66.59569006237561
 30
0.0
 10
-51.90172685145789
 20
-66.34347677508515
 30
0.0
 10
-51.90172685145789
 20
-66.34347677508515
 30
0.0
 10
-51.90172273864415
 20
-64.59011380692472
 30
0.0
 10
-51.90172273864415
 20
-64.59011380692472
 30
0.0
 10
-51.90171671823435
 20
-62.0235104832066
 30
0.0
 10
-53.78198227194527
 20
-59.77165506971082
 30
0.0
 10
-56.33310633542071
 20
-59.49019701934534
 30
0.0
 10
-59.34915632941888
 20
-59.15744505197897
 30
0.0
 10
-61.90173025654114
 20
-61.50999913372615
 30
0.0
 10
-61.901727463548
 20
-64.4587403965687
 30
0.0
 10
-61.901727463548
 20
-64.4587403965687
 30
0.0
 10
-61.901727463548
 20
-66.34109750601564
 30
0.0
 10
-61.901727463548
 20
-66.34109750601564
 30
0.0
 10
-61.90190240980247
 20
-66.59738031234806
 30
0.0
 10
-61.93513143235069
 20
-67.3821407661178
 30
0.0
 10
-62.49767246139874
 20
-68.13597072198402
 30
0.0
 10
-62.49767246139874
 20
-68.13597072198402
 30
0.0
 10
-62.49767294929759
 20
-68.13597137340288
 30
0.0
 10
-62.49767294929759
 20
-68.13597137340288
 30
0.0
 10
-62.69883428667388
 20
-68.40455202926516
 30
0.0
 10
-62.50725909182289
 20
-68.78754549633884
 30
0.0
 10
-62.17169770943615
 20
-68.78765483620114
 30
0.0
 10
-62.17169770943615
 20
-68.78765483620114
 30
0.0
 10
-51.79360126902029
 20
-68.79103645188998
 30
0.0
 10
-51.79360126902029
 20
-68.79103645188998
 30
0.0
  0
ENDBLK
  5
6F
330
6C
100
AcDbEntity
  8
0
100
AcDbBlockEnd
  0
BLOCK
  5
73
330
71
100
AcDbEntity
  8
0
100
AcDbBlockBegin
  2
BLOCK_12
 70
     0
 10
0.0
 20
0.0
 30
0.0
  3
BLOCK_12
  1

  0
INSERT
  5
76
330
71
100
AcDbEntity
  8
_U_5207_U_65AD_U_30D1_U_30
100
AcDbBlockReference
  2
BLOCK_13
 10
0.0
 20
0.0
 30
0.0
  0
INSERT
  5
7B
330
71
100
AcDbEntity
  8
_U_5207_U_65AD_U_30D1_U_30
100
AcDbBlockReference
  2
BLOCK_14
 10
0.0
 20
0.0
 30
0.0
  0
ENDBLK
  5
74
330
71
100
AcDbEntity
  8
0
100
AcDbBlockEnd
  0
BLOCK
  5
77
330
75
100
AcDbEntity
  8
0
100
AcDbBlockBegin
  2
BLOCK_13
 70
     0
 10
0.0
 20
0.0
 30
0.0
  3
BLOCK_13
  1

  0
SPLINE
  5
79
330
75
100
AcDbEntity
  8
_U_5207_U_65AD_U_30D1_U_30
 62
     1
100
AcDbSpline
210
0.0
220
0.0
230
1.0
 70
    11
 71
     3
 72
    20
 73
    16
 74
     0
 42
0.0000000001
 43
0.0000000001
 12
1.0
 22
0.0
 32
0.0
 13
1.0
 23
0.0
 33
0.0
 40
0.0
 40
0.0
 40
0.0
 40
0.0
 40
1.0
 40
1.0
 40
1.0
 40
2.0
 40
2.0
 40
2.0
 40
3.0
 40
3.0
 40
3.0
 40
4.0
 40
4.0
 40
4.0
 40
5.0
 40
5.0
 40
5.0
 40
5.0
 10
-46.44953245117731
 20
-64.45873580110006
 30
0.0
 10
-46.44953322104418
 20
-63.01047669883548
 30
0.0
 10
-45.26541587739528
 20
-61.83878253697077
 30
0.0
 10
-43.81251319614833
 20
-61.85899689037914
 30
0.0
 10
-42.43173780857335
 20
-61.87820773087246
 30
0.0
 10
-41.26900727115567
 20
-63.0409370320627
 30
0.0
 10
-41.24979496259355
 20
-64.42171239921049
 30
0.0
 10
-41.22957906442758
 20
-65.87461505901507
 30
0.0
 10
-42.40127196740712
 20
-67.0587336484572
 30
0.0
 10
-43.84953106971662
 20
-67.05873441832472
 30
0.0
 10
-45.28547141892225
 20
-67.05873518164368
 30
0.0
 10
-46.44953168785834
 20
-65.89467615028387
 30
0.0
 10
-46.44953245117731
 20
-64.45873580110006
 30
0.0
 10
-46.44953245117731
 20
-64.45873580110006
 30
0.0
 10
-46.44953245117731
 20
-64.45873580110006
 30
0.0
 10
-46.44953245117731
 20
-64.45873580110006
 30
0.0
  0
ENDBLK
  5
78
330
75
100
AcDbEntity
  8
0
100
AcDbBlockEnd
  0
BLOCK
  5
7C
330
7A
100
AcDbEntity
  8
0
100
AcDbBlockBegin
  2
BLOCK_14
 70
     0
 10
0.0
 20
0.0
 30
0.0
  3
BLOCK_14
  1

  0
SPLINE
  5
7E
330
7A
100
AcDbEntity
  8
_U_5207_U_65AD_U_30D1_U_30
 62
     1
100
AcDbSpline
210
0.0
220
0.0
230
1.0
 70
    11
 71
     3
 72
    38
 73
    34
 74
     0
 42
0.0000000001
 43
0.0000000001
 12
1.0
 22
0.0
 32
0.0
 13
1.0
 23
0.0
 33
0.0
 40
0.0
 40
0.0
 40
0.0
 40
0.0
 40
1.0
 40
1.0
 40
1.0
 40
2.0
 40
2.0
 40
2.0
 40
3.0
 40
3.0
 40
3.0
 40
4.0
 40
4.0
 40
4.0
 40
5.0
 40
5.0
 40
5.0
 40
6.0
 40
6.0
 40
6.0
 40
7.0
 40
7.0
 40
7.0
 40
8.0
 40
8.0
 40
8.0
 40
9.0
 40
9.0
 40
9.0
 40
10.0
 40
10.0
 40
10.0
 40
11.0
 40
11.0
 40
11.0
 40
11.0
 10
-38.74140555186072
 20
-68.79103645188998
 30
0.0
 10
-38.34260327171223
 20
-68.79116639826842
 30
0.0
 10
-38.09483858765253
 20
-68.34125330630792
 30
0.0
 10
-38.32477642629429
 20
-68.01541306033106
 30
0.0
 10
-38.48113808818758
 20
-67.79383612165127
 30
0.0
 10
-38.61905368257234
 20
-67.53503168730481
 30
0.0
 10
-38.71458835902895
 20
-67.23579956945842
 30
0.0
 10
-38.82075382107309
 20
-66.90327249366807
 30
0.0
 10
-38.85068039661971
 20
-66.59569006237561
 30
0.0
 10
-38.84953113429768
 20
-66.34347677508515
 30
0.0
 10
-38.84953113429768
 20
-66.34347677508515
 30
0.0
 10
-38.84952702148426
 20
-64.59011380692472
 30
0.0
 10
-38.84952702148426
 20
-64.59011380692472
 30
0.0
 10
-38.84952100107414
 20
-62.0235104832066
 30
0.0
 10
-40.72978655478539
 20
-59.77165506971082
 30
0.0
 10
-43.2809106182605
 20
-59.49019701934534
 30
0.0
 10
-46.29696061225932
 20
-59.15744505197897
 30
0.0
 10
-48.84953453938158
 20
-61.50999913372615
 30
0.0
 10
-48.8495317463878
 20
-64.4587403965687
 30
0.0
 10
-48.8495317463878
 20
-64.4587403965687
 30
0.0
 10
-48.8495317463878
 20
-66.34109750601564
 30
0.0
 10
-48.8495317463878
 20
-66.34109750601564
 30
0.0
 10
-48.8497066926429
 20
-66.59738031234806
 30
0.0
 10
-48.88293571519112
 20
-67.3821407661178
 30
0.0
 10
-49.44547674423853
 20
-68.13597072198402
 30
0.0
 10
-49.44547674423853
 20
-68.13597072198402
 30
0.0
 10
-49.44547723213739
 20
-68.13597137340288
 30
0.0
 10
-49.44547723213739
 20
-68.13597137340288
 30
0.0
 10
-49.64663856951368
 20
-68.40455202926516
 30
0.0
 10
-49.45506337466269
 20
-68.78754549633884
 30
0.0
 10
-49.11950199227627
 20
-68.78765483620114
 30
0.0
 10
-49.11950199227627
 20
-68.78765483620114
 30
0.0
 10
-38.74140555186072
 20
-68.79103645188998
 30
0.0
 10
-38.74140555186072
 20
-68.79103645188998
 30
0.0
  0
ENDBLK
  5
7D
330
7A
100
AcDbEntity
  8
0
100
AcDbBlockEnd
  0
BLOCK
  5
81
330
7F
100
AcDbEntity
  8
0
100
AcDbBlockBegin
  2
BLOCK_15
 70
     0
 10
0.0
 20
0.0
 30
0.0
  3
BLOCK_15
  1

  0
INSERT
  5
84
330
7F
100
AcDbEntity
  8
_U_5207_U_65AD_U_30D1_U_30
100
AcDbBlockReference
  2
BLOCK_16
 10
0.0
 20
0.0
 30
0.0
  0
INSERT
  5
89
330
7F
100
AcDbEntity
  8
_U_5207_U_65AD_U_30D1_U_30
100
AcDbBlockReference
  2
BLOCK_17
 10
0.0
 20
0.0
 30
0.0
  0
ENDBLK
  5
82
330
7F
100
AcDbEntity
  8
0
100
AcDbBlockEnd
  0
BLOCK
  5
85
330
83
100
AcDbEntity
  8
0
100
AcDbBlockBegin
  2
BLOCK_16
 70
     0
 10
0.0
 20
0.0
 30
0.0
  3
BLOCK_16
  1

  0
SPLINE
  5
87
330
83
100
AcDbEntity
  8
_U_5207_U_65AD_U_30D1_U_30
 62
     1
100
AcDbSpline
210
0.0
220
0.0
230
1.0
 70
    11
 71
     3
 72
    20
 73
    16
 74
     0
 42
0.0000000001
 43
0.0000000001
 12
1.0
 22
0.0
 32
0.0
 13
1.0
 23
0.0
 33
0.0
 40
0.0
 40
0.0
 40
0.0
 40
0.0
 40
1.0
 40
1.0
 40
1.0
 40
2.0
 40
2.0
 40
2.0
 40
3.0
 40
3.0
 40
3.0
 40
4.0
 40
4.0
 40
4.0
 40
5.0
 40
5.0
 40
5.0
 40
5.0
 10
-33.45498195088852
 20
-64.4587358011007
 30
0.0
 10
-33.45498272075539
 20
-63.01047669883612
 30
0.0
 10
-32.27086537710585
 20
-61.83878253697142
 30
0.0
 10
-30.81796269585953
 20
-61.85899689037978
 30
0.0
 10
-29.43718730828455
 20
-61.8782077308731
 30
0.0
 10
-28.27445677086752
 20
-63.04093703206335
 30
0.0
 10
-28.25524446230476
 20
-64.42171239921113
 30
0.0
 10
-28.23502856413879
 20
-65.87461505901571
 30
0.0
 10
-29.40672146711832
 20
-67.05873364845785
 30
0.0
 10
-30.85498056942783
 20
-67.05873441832536
 30
0.0
 10
-32.29092091863345
 20
-67.05873518164434
 30
0.0
 10
-33.45498118756954
 20
-65.89467615028451
 30
0.0
 10
-33.45498195088852
 20
-64.4587358011007
 30
0.0
 10
-33.45498195088852
 20
-64.4587358011007
 30
0.0
 10
-33.45498195088852
 20
-64.4587358011007
 30
0.0
 10
-33.45498195088852
 20
-64.4587358011007
 30
0.0
  0
ENDBLK
  5
86
330
83
100
AcDbEntity
  8
0
100
AcDbBlockEnd
  0
BLOCK
  5
8A
330
88
100
AcDbEntity
  8
0
100
AcDbBlockBegin
  2
BLOCK_17
 70
     0
 10
0.0
 20
0.0
 30
0.0
  3
BLOCK_17
  1

  0
SPLINE
  5
8C
330
88
100
AcDbEntity
  8
_U_5207_U_65AD_U_30D1_U_30
 62
     1
100
AcDbSpline
210
0.0
220
0.0
230
1.0
 70
    11
 71
     3
 72
    38
 73
    34
 74
     0
 42
0.0000000001
 43
0.0000000001
 12
1.0
 22
0.0
 32
0.0
 13
1.0
 23
0.0
 33
0.0
 40
0.0
 40
0.0
 40
0.0
 40
0.0
 40
1.0
 40
1.0
 40
1.0
 40
2.0
 40
2.0
 40
2.0
 40
3.0
 40
3.0
 40
3.0
 40
4.0
 40
4.0
 40
4.0
 40
5.0
 40
5.0
 40
5.0
 40
6.0
 40
6.0
 40
6.0
 40
7.0
 40
7.0
 40
7.0
 40
8.0
 40
8.0
 40
8.0
 40
9.0
 40
9.0
 40
9.0
 40
10.0
 40
10.0
 40
10.0
 40
11.0
 40
11.0
 40
11.0
 40
11.0
 10
-25.74685505157192
 20
-68.79103645189062
 30
0.0
 10
-25.34805277142344
 20
-68.79116639826906
 30
0.0
 10
-25.1002880873631
 20
-68.34125330630856
 30
0.0
 10
-25.33022592600484
 20
-68.0154130603317
 30
0.0
 10
-25.48658758789879
 20
-67.7938361216519
 30
0.0
 10
-25.62450318228354
 20
-67.53503168730545
 30
0.0
 10
-25.72003785874016
 20
-67.23579956945906
 30
0.0
 10
-25.82620332078366
 20
-66.90327249366871
 30
0.0
 10
-25.85612989633092
 20
-66.59569006237625
 30
0.0
 10
-25.85498063400888
 20
-66.34347677508579
 30
0.0
 10
-25.85498063400888
 20
-66.34347677508579
 30
0.0
 10
-25.85497652119546
 20
-64.59011380692536
 30
0.0
 10
-25.85497652119546
 20
-64.59011380692536
 30
0.0
 10
-25.85497050078534
 20
-62.02351048320724
 30
0.0
 10
-27.7352360544966
 20
-59.77165506971146
 30
0.0
 10
-30.28636011797106
 20
-59.49019701934598
 30
0.0
 10
-33.30241011197052
 20
-59.15744505197961
 30
0.0
 10
-35.85498403909246
 20
-61.50999913372679
 30
0.0
 10
-35.854981246099
 20
-64.45874039656934
 30
0.0
 10
-35.854981246099
 20
-64.45874039656934
 30
0.0
 10
-35.854981246099
 20
-66.34109750601628
 30
0.0
 10
-35.854981246099
 20
-66.34109750601628
 30
0.0
 10
-35.85515619235411
 20
-66.5973803123487
 30
0.0
 10
-35.88838521490168
 20
-67.38214076611844
 30
0.0
 10
-36.45092624394942
 20
-68.13597072198466
 30
0.0
 10
-36.45092624394942
 20
-68.13597072198466
 30
0.0
 10
-36.4509267318486
 20
-68.13597137340352
 30
0.0
 10
-36.4509267318486
 20
-68.13597137340352
 30
0.0
 10
-36.65208806922488
 20
-68.4045520292658
 30
0.0
 10
-36.46051287437324
 20
-68.78754549633948
 30
0.0
 10
-36.12495149198747
 20
-68.78765483620178
 30
0.0
 10
-36.12495149198747
 20
-68.78765483620178
 30
0.0
 10
-25.74685505157192
 20
-68.79103645189062
 30
0.0
 10
-25.74685505157192
 20
-68.79103645189062
 30
0.0
  0
ENDBLK
  5
8B
330
88
100
AcDbEntity
  8
0
100
AcDbBlockEnd
  0
BLOCK
  5
8F
330
8D
100
AcDbEntity
  8
0
100
AcDbBlockBegin
  2
BLOCK_18
 70
     0
 10
0.0
 20
0.0
 30
0.0
  3
BLOCK_18
  1

  0
INSERT
  5
92
330
8D
100
AcDbEntity
  8
_U_5207_U_65AD_U_30D1_U_30
100
AcDbBlockReference
  2
BLOCK_19
 10
0.0
 20
0.0
 30
0.0
  0
INSERT
  5
97
330
8D
100
AcDbEntity
  8
_U_5207_U_65AD_U_30D1_U_30
100
AcDbBlockReference
  2
BLOCK_20
 10
0.0
 20
0.0
 30
0.0
  0
INSERT
  5
9C
330
8D
100
AcDbEntity
  8
_U_5207_U_65AD_U_30D1_U_30
100
AcDbBlockReference
  2
BLOCK_21
 10
0.0
 20
0.0
 30
0.0
  0
INSERT
  5
A1
330
8D
100
AcDbEntity
  8
_U_5207_U_65AD_U_30D1_U_30
100
AcDbBlockReference
  2
BLOCK_22
 10
0.0
 20
0.0
 30
0.0
  0
INSERT
  5
A6
330
8D
100
AcDbEntity
  8
_U_5207_U_65AD_U_30D1_U_30
100
AcDbBlockReference
  2
BLOCK_23
 10
0.0
 20
0.0
 30
0.0
  0
INSERT
  5
AB
330
8D
100
AcDbEntity
  8
_U_5207_U_65AD_U_30D1_U_30
100
AcDbBlockReference
  2
BLOCK_24
 10
0.0
 20
0.0
 30
0.0
  0
INSERT
  5
B6
330
8D
100
AcDbEntity
  8
_U_5207_U_65AD_U_30D1_U_30
100
AcDbBlockReference
  2
BLOCK_25
 10
0.0
 20
0.0
 30
0.0
  0
INSERT
  5
C1
330
8D
100
AcDbEntity
  8
_U_5207_U_65AD_U_30D1_U_30
100
AcDbBlockReference
  2
BLOCK_26
 10
0.0
 20
0.0
 30
0.0
  0
INSERT
  5
CC
330
8D
100
AcDbEntity
  8
_U_5207_U_65AD_U_30D1_U_30
100
AcDbBlockReference
  2
BLOCK_27
 10
0.0
 20
0.0
 30
0.0
  0
INSERT
  5
D7
330
8D
100
AcDbEntity
  8
_U_5207_U_65AD_U_30D1_U_30
100
AcDbBlockReference
  2
BLOCK_28
 10
0.0
 20
0.0
 30
0.0
  0
INSERT
  5
E2
330
8D
100
AcDbEntity
  8
_U_5207_U_65AD_U_30D1_U_30
100
AcDbBlockReference
  2
BLOCK_29
 10
0.0
 20
0.0
 30
0.0
  0
INSERT
  5
ED
330
8D
100
AcDbEntity
  8
_U_5207_U_65AD_U_30D1_U_30
100
AcDbBlockReference
  2
BLOCK_30
 10
0.0
 20
0.0
 30
0.0
  0
INSERT
  5
F8
330
8D
100
AcDbEntity
  8
_U_5207_U_65AD_U_30D1_U_30
100
AcDbBlockReference
  2
BLOCK_31
 10
0.0
 20
0.0
 30
0.0
  0
INSERT
  5
103
330
8D
100
AcDbEntity
  8
_U_5207_U_65AD_U_30D1_U_30
100
AcDbBlockReference
  2
BLOCK_32
 10
0.0
 20
0.0
 30
0.0
  0
INSERT
  5
10E
330
8D
100
AcDbEntity
  8
_U_5207_U_65AD_U_30D1_U_30
100
AcDbBlockReference
  2
BLOCK_33
 10
0.0
 20
0.0
 30
0.0
  0
INSERT
  5
119
330
8D
100
AcDbEntity
  8
_U_5207_U_65AD_U_30D1_U_30
100
AcDbBlockReference
  2
BLOCK_34
 10
0.0
 20
0.0
 30
0.0
  0
INSERT
  5
124
330
8D
100
AcDbEntity
  8
_U_5207_U_65AD_U_30D1_U_30
100
AcDbBlockReference
  2
BLOCK_35
 10
0.0
 20
0.0
 30
0.0
  0
INSERT
  5
12F
330
8D
100
AcDbEntity
  8
_U_5207_U_65AD_U_30D1_U_30
100
AcDbBlockReference
  2
BLOCK_36
 10
0.0
 20
0.0
 30
0.0
  0
INSERT
  5
13A
330
8D
100
AcDbEntity
  8
_U_5207_U_65AD_U_30D1_U_30
100
AcDbBlockReference
  2
BLOCK_37
 10
0.0
 20
0.0
 30
0.0
  0
INSERT
  5
145
330
8D
100
AcDbEntity
  8
_U_5207_U_65AD_U_30D1_U_30
100
AcDbBlockReference
  2
BLOCK_38
 10
0.0
 20
0.0
 30
0.0
  0
INSERT
  5
150
330
8D
100
AcDbEntity
  8
_U_5207_U_65AD_U_30D1_U_30
100
AcDbBlockReference
  2
BLOCK_39
 10
0.0
 20
0.0
 30
0.0
  0
INSERT
  5
15B
330
8D
100
AcDbEntity
  8
_U_5207_U_65AD_U_30D1_U_30
100
AcDbBlockReference
  2
BLOCK_40
 10
0.0
 20
0.0
 30
0.0
  0
INSERT
  5
166
330
8D
100
AcDbEntity
  8
_U_5207_U_65AD_U_30D1_U_30
100
AcDbBlockReference
  2
BLOCK_41
 10
0.0
 20
0.0
 30
0.0
  0
INSERT
  5
171
330
8D
100
AcDbEntity
  8
_U_5207_U_65AD_U_30D1_U_30
100
AcDbBlockReference
  2
BLOCK_42
 10
0.0
 20
0.0
 30
0.0
  0
INSERT
  5
17C
330
8D
100
AcDbEntity
  8
_U_5207_U_65AD_U_30D1_U_30
100
AcDbBlockReference
  2
BLOCK_43
 10
0.0
 20
0.0
 30
0.0
  0
INSERT
  5
187
330
8D
100
AcDbEntity
  8
_U_5207_U_65AD_U_30D1_U_30
100
AcDbBlockReference
  2
BLOCK_44
 10
0.0
 20
0.0
 30
0.0
  0
POLYLINE
  5
191
330
8D
100
AcDbEntity
  8
_U_5207_U_65AD_U_30D1_U_30
 62
     1
100
AcDb2dPolyline
 66
     1
 10
0.0
 20
0.0
 30
0.0
  0
VERTEX
  5
192
330
191
100
AcDbEntity
  8
_U_5207_U_65AD_U_30D1_U_30
 62
     1
100
AcDbVertex
100
AcDb2dVertex
 10
-26.78648452922191
 20
89.05110492296552
 30
0.0
  0
VERTEX
  5
235
330
191
100
AcDbEntity
  8
0
100
AcDbVertex
100
AcDb2dVertex
 10
-26.78648452922191
 20
89.05110492296552
 30
0.0
  0
SEQEND
  5
193
330
191
100
AcDbEntity
  8
_U_5207_U_65AD_U_30D1_U_30
 62
     1
  0
POLYLINE
  5
194
330
8D
100
AcDbEntity
  8
_U_5207_U_65AD_U_30D1_U_30
 62
     1
100
AcDb2dPolyline
 66
     1
 10
0.0
 20
0.0
 30
0.0
  0
VERTEX
  5
195
330
194
100
AcDbEntity
  8
_U_5207_U_65AD_U_30D1_U_30
 62
     1
100
AcDbVertex
100
AcDb2dVertex
 10
-13.86376922128672
 20
89.05110492296552
 30
0.0
  0
VERTEX
  5
236
330
194
100
AcDbEntity
  8
0
100
AcDbVertex
100
AcDb2dVertex
 10
-13.86376922128672
 20
89.05110492296552
 30
0.0
  0
SEQEND
  5
196
330
194
100
AcDbEntity
  8
_U_5207_U_65AD_U_30D1_U_30
 62
     1
  0
POLYLINE
  5
197
330
8D
100
AcDbEntity
  8
_U_5207_U_65AD_U_30D1_U_30
 62
     1
100
AcDb2dPolyline
 66
     1
 10
0.0
 20
0.0
 30
0.0
  0
VERTEX
  5
198
330
197
100
AcDbEntity
  8
_U_5207_U_65AD_U_30D1_U_30
 62
     1
100
AcDbVertex
100
AcDb2dVertex
 10
-25.32512687400462
 20
93.93314287168623
 30
0.0
  0
VERTEX
  5
237
330
197
100
AcDbEntity
  8
0
100
AcDbVertex
100
AcDb2dVertex
 10
-25.32512687400462
 20
93.93314287168623
 30
0.0
  0
SEQEND
  5
199
330
197
100
AcDbEntity
  8
_U_5207_U_65AD_U_30D1_U_30
 62
     1
  0
INSERT
  5
19B
330
8D
100
AcDbEntity
  8
_U_5207_U_65AD_U_30D1_U_30
100
AcDbBlockReference
  2
BLOCK_45
 10
0.0
 20
0.0
 30
0.0
  0
INSERT
  5
1A0
330
8D
100
AcDbEntity
  8
_U_5207_U_65AD_U_30D1_U_30
100
AcDbBlockReference
  2
BLOCK_46
 10
0.0
 20
0.0
 30
0.0
  0
INSERT
  5
1A5
330
8D
100
AcDbEntity
  8
_U_5207_U_65AD_U_30D1_U_30
100
AcDbBlockReference
  2
BLOCK_47
 10
0.0
 20
0.0
 30
0.0
  0
INSERT
  5
1AA
330
8D
100
AcDbEntity
  8
_U_5207_U_65AD_U_30D1_U_30
100
AcDbBlockReference
  2
BLOCK_48
 10
0.0
 20
0.0
 30
0.0
  0
POLYLINE
  5
1AE
330
8D
100
AcDbEntity
  8
_U_5207_U_65AD_U_30D1_U_30
 62
     1
100
AcDb2dPolyline
 66
     1
 10
0.0
 20
0.0
 30
0.0
  0
VERTEX
  5
1AF
330
1AE
100
AcDbEntity
  8
_U_5207_U_65AD_U_30D1_U_30
 62
     1
100
AcDbVertex
100
AcDb2dVertex
 10
8.77494174853241
 20
24.9848147889296
 30
0.0
  0
VERTEX
  5
238
330
1AE
100
AcDbEntity
  8
0
100
AcDbVertex
100
AcDb2dVertex
 10
8.77494174853241
 20
24.9848147889296
 30
0.0
  0
SEQEND
  5
1B0
330
1AE
100
AcDbEntity
  8
_U_5207_U_65AD_U_30D1_U_30
 62
     1
  0
SPLINE
  5
1B1
330
8D
100
AcDbEntity
  8
_U_5207_U_65AD_U_30D1_U_30
 62
     1
100
AcDbSpline
210
0.0
220
0.0
230
1.0
 70
     8
 71
     3
 72
   230
 73
   226
 74
     0
 42
0.0000000001
 43
0.0000000001
 12
1.0
 22
0.0
 32
0.0
 13
1.0
 23
0.0
 33
0.0
 40
0.0
 40
0.0
 40
0.0
 40
0.0
 40
1.0
 40
1.0
 40
1.0
 40
2.0
 40
2.0
 40
2.0
 40
3.0
 40
3.0
 40
3.0
 40
4.0
 40
4.0
 40
4.0
 40
5.0
 40
5.0
 40
5.0
 40
6.0
 40
6.0
 40
6.0
 40
7.0
 40
7.0
 40
7.0
 40
8.0
 40
8.0
 40
8.0
 40
9.0
 40
9.0
 40
9.0
 40
10.0
 40
10.0
 40
10.0
 40
11.0
 40
11.0
 40
11.0
 40
12.0
 40
12.0
 40
12.0
 40
13.0
 40
13.0
 40
13.0
 40
14.0
 40
14.0
 40
14.0
 40
15.0
 40
15.0
 40
15.0
 40
16.0
 40
16.0
 40
16.0
 40
17.0
 40
17.0
 40
17.0
 40
18.0
 40
18.0
 40
18.0
 40
19.0
 40
19.0
 40
19.0
 40
20.0
 40
20.0
 40
20.0
 40
21.0
 40
21.0
 40
21.0
 40
22.0
 40
22.0
 40
22.0
 40
23.0
 40
23.0
 40
23.0
 40
24.0
 40
24.0
 40
24.0
 40
25.0
 40
25.0
 40
25.0
 40
26.0
 40
26.0
 40
26.0
 40
27.0
 40
27.0
 40
27.0
 40
28.0
 40
28.0
 40
28.0
 40
29.0
 40
29.0
 40
29.0
 40
30.0
 40
30.0
 40
30.0
 40
31.0
 40
31.0
 40
31.0
 40
32.0
 40
32.0
 40
32.0
 40
33.0
 40
33.0
 40
33.0
 40
34.0
 40
34.0
 40
34.0
 40
35.0
 40
35.0
 40
35.0
 40
36.0
 40
36.0
 40
36.0
 40
37.0
 40
37.0
 40
37.0
 40
38.0
 40
38.0
 40
38.0
 40
39.0
 40
39.0
 40
39.0
 40
40.0
 40
40.0
 40
40.0
 40
41.0
 40
41.0
 40
41.0
 40
42.0
 40
42.0
 40
42.0
 40
43.0
 40
43.0
 40
43.0
 40
44.0
 40
44.0
 40
44.0
 40
45.0
 40
45.0
 40
45.0
 40
46.0
 40
46.0
 40
46.0
 40
47.0
 40
47.0
 40
47.0
 40
48.0
 40
48.0
 40
48.0
 40
49.0
 40
49.0
 40
49.0
 40
50.0
 40
50.0
 40
50.0
 40
51.0
 40
51.0
 40
51.0
 40
52.0
 40
52.0
 40
52.0
 40
53.0
 40
53.0
 40
53.0
 40
54.0
 40
54.0
 40
54.0
 40
55.0
 40
55.0
 40
55.0
 40
56.0
 40
56.0
 40
56.0
 40
57.0
 40
57.0
 40
57.0
 40
58.0
 40
58.0
 40
58.0
 40
59.0
 40
59.0
 40
59.0
 40
60.0
 40
60.0
 40
60.0
 40
61.0
 40
61.0
 40
61.0
 40
62.0
 40
62.0
 40
62.0
 40
63.0
 40
63.0
 40
63.0
 40
64.0
 40
64.0
 40
64.0
 40
65.0
 40
65.0
 40
65.0
 40
66.0
 40
66.0
 40
66.0
 40
67.0
 40
67.0
 40
67.0
 40
68.0
 40
68.0
 40
68.0
 40
69.0
 40
69.0
 40
69.0
 40
70.0
 40
70.0
 40
70.0
 40
71.0
 40
71.0
 40
71.0
 40
72.0
 40
72.0
 40
72.0
 40
73.0
 40
73.0
 40
73.0
 40
74.0
 40
74.0
 40
74.0
 40
75.0
 40
75.0
 40
75.0
 40
75.0
 10
8.717820824857336
 20
25.01225761429896
 30
0.0
 10
9.024628109665617
 20
25.59633856457204
 30
0.0
 10
8.862547133008004
 20
26.31672956238457
 30
0.0
 10
8.335124546063035
 20
26.71310932980935
 30
0.0
 10
8.335124546063035
 20
26.71310932980935
 30
0.0
 10
-10.74182255542315
 20
37.75048740508684
 30
0.0
 10
-10.74182255542315
 20
37.75048740508684
 30
0.0
 10
-11.03559230700444
 20
38.01007534990041
 30
0.0
 10
-11.23839000592835
 20
38.35701799711185
 30
0.0
 10
-11.32043710809426
 20
38.74036561427133
 30
0.0
 10
-11.32043710809426
 20
38.74036561427133
 30
0.0
 10
-11.31995264154164
 20
87.29395071820146
 30
0.0
 10
-11.31995264154164
 20
87.29395071820146
 30
0.0
 10
-11.31995264154164
 20
87.29395071820146
 30
0.0
 10
-11.31926296006135
 20
87.30214223633993
 30
0.0
 10
-11.31926296006135
 20
87.30214223633993
 30
0.0
 10
-11.31926296006135
 20
87.30214223633993
 30
0.0
 10
-11.31564015499231
 20
88.5253091637108
 30
0.0
 10
-11.31564015499231
 20
88.5253091637108
 30
0.0
 10
-11.31481146532188
 20
88.80509948603382
 30
0.0
 10
-11.54305373681711
 20
89.03419579840174
 30
0.0
 10
-11.82284520275948
 20
89.03441208008549
 30
0.0
 10
-11.82284520275948
 20
89.03441208008549
 30
0.0
 10
-12.31606719812589
 20
89.03479334576484
 30
0.0
 10
-12.31606719812589
 20
89.03479334576484
 30
0.0
 10
-13.97618775296385
 20
89.03607663604082
 30
0.0
 10
-15.32130119419539
 20
90.38223026568937
 30
0.0
 10
-15.32130119419539
 20
92.0423513165254
 30
0.0
 10
-15.32130119419539
 20
92.0423513165254
 30
0.0
 10
-15.32130119419539
 20
93.91914790078269
 30
0.0
 10
-15.32130119419539
 20
93.91914790078269
 30
0.0
 10
-15.32130119419539
 20
96.86576348727122
 30
0.0
 10
-17.87019616482014
 20
99.21705113672421
 30
0.0
 10
-20.88341236227707
 20
98.88842017734635
 30
0.0
 10
-23.43863868614005
 20
98.6097390528562
 30
0.0
 10
-25.32130541562699
 20
96.35162379224398
 30
0.0
 10
-25.32130509308338
 20
93.78124546691755
 30
0.0
 10
-25.32130509308338
 20
93.78124546691755
 30
0.0
 10
-25.32130487494293
 20
92.04286710244966
 30
0.0
 10
-25.32130487494293
 20
92.04286710244966
 30
0.0
 10
-25.32130466659737
 20
90.38254202550497
 30
0.0
 10
-26.66673524889543
 20
89.03630307858866
 30
0.0
 10
-28.32706002646633
 20
89.03530602637655
 30
0.0
 10
-28.32706002646633
 20
89.03530602637655
 30
0.0
 10
-29.80890885583871
 20
89.03441615189305
 30
0.0
 10
-29.80890885583871
 20
89.03441615189305
 30
0.0
 10
-30.08944954865949
 20
89.03424768261436
 30
0.0
 10
-30.3169620994634
 20
89.26162364942883
 30
0.0
 10
-30.3169620994634
 20
89.5421643928341
 30
0.0
 10
-30.3169620994634
 20
89.5421643928341
 30
0.0
 10
-30.3169620994634
 20
91.02700062384206
 30
0.0
 10
-30.3169620994634
 20
91.02700062384206
 30
0.0
 10
-30.3169620994634
 20
91.3073360213755
 30
0.0
 10
-30.54421884098474
 20
91.53459276289685
 30
0.0
 10
-30.82455423851883
 20
91.53459276289685
 30
0.0
 10
-30.82455423851883
 20
91.53459276289685
 30
0.0
 10
-48.81071874783971
 20
91.53459276289685
 30
0.0
 10
-48.81071874783971
 20
91.53459276289685
 30
0.0
 10
-49.0910541453738
 20
91.53459276289685
 30
0.0
 10
-49.31831088689513
 20
91.76184950441818
 30
0.0
 10
-49.31831088689513
 20
92.04218490195291
 30
0.0
 10
-49.31831088689513
 20
92.04218490195291
 30
0.0
 10
-49.31831088689513
 20
93.27716474003299
 30
0.0
 10
-49.31831088689513
 20
93.27716474003299
 30
0.0
 10
-49.31831088689513
 20
93.55750013756644
 30
0.0
 10
-49.54556762841648
 20
93.78475687908778
 30
0.0
 10
-49.82590302595057
 20
93.78475687908778
 30
0.0
 10
-49.82590302595057
 20
93.78475687908778
 30
0.0
 10
-66.8119832307119
 20
93.78475687908778
 30
0.0
 10
-66.8119832307119
 20
93.78475687908778
 30
0.0
 10
-67.09232457410158
 20
93.78475687908778
 30
0.0
 10
-67.31958613569071
 20
93.55749531749929
 30
0.0
 10
-67.31958613569071
 20
93.2771539741096
 30
0.0
 10
-67.31958613569071
 20
93.2771539741096
 30
0.0
 10
-67.31958613569071
 20
92.04218490195291
 30
0.0
 10
-67.31958613569071
 20
92.04218490195291
 30
0.0
 10
-67.31958613569071
 20
91.76184950441818
 30
0.0
 10
-67.54684287721238
 20
91.53459276289685
 30
0.0
 10
-67.82717827474615
 20
91.53459276289685
 30
0.0
 10
-67.82717827474615
 20
91.53459276289685
 30
0.0
 10
-85.81334278406703
 20
91.53459276289685
 30
0.0
 10
-85.81334278406703
 20
91.53459276289685
 30
0.0
 10
-86.09367818160143
 20
91.53459276289685
 30
0.0
 10
-86.32093492312245
 20
91.3073360213755
 30
0.0
 10
-86.32093492312245
 20
91.02700062384206
 30
0.0
 10
-86.32093492312245
 20
91.02700062384206
 30
0.0
 10
-86.32093492312245
 20
87.29184501361414
 30
0.0
 10
-86.32093492312245
 20
87.29184501361414
 30
0.0
 10
-86.32093492312245
 20
87.01150664315192
 30
0.0
 10
-86.5481940746777
 20
86.78424749159636
 30
0.0
 10
-86.82853244513957
 20
86.78424749159636
 30
0.0
 10
-86.82853244513957
 20
86.78424749159636
 30
0.0
 10
-104.8222469412361
 20
86.78424749159636
 30
0.0
 10
-104.8222469412361
 20
86.78424749159636
 30
0.0
 10
-104.8222469412361
 20
86.78424749159636
 30
0.0
 10
-106.8223886355467
 20
86.78424749159636
 30
0.0
 10
-106.8223886355467
 20
86.78424749159636
 30
0.0
 10
-106.8223886355467
 20
86.78424749159636
 30
0.0
 10
-123.8160369945794
 20
86.78424749159636
 30
0.0
 10
-123.8160369945794
 20
86.78424749159636
 30
0.0
 10
-124.0963723921138
 20
86.78424749159636
 30
0.0
 10
-124.3236291336349
 20
86.55699075007503
 30
0.0
 10
-124.3236291336349
 20
86.27665535254158
 30
0.0
 10
-124.3236291336349
 20
86.27665535254158
 30
0.0
 10
-124.3236291336349
 20
85.87596459914634
 30
0.0
 10
-124.3236291336349
 20
85.87596459914634
 30
0.0
 10
-124.3236291336349
 20
84.21493621748381
 30
0.0
 10
-125.6701587280227
 20
82.86840668604115
 30
0.0
 10
-127.3311871096853
 20
82.86840676368675
 30
0.0
 10
-127.3311871096853
 20
82.86840676368675
 30
0.0
 10
-129.0600839001758
 20
82.86840684450617
 30
0.0
 10
-129.0600839001758
 20
82.86840684450617
 30
0.0
 10
-131.7738739692986
 20
82.86840697136365
 30
0.0
 10
-134.1050245341682
 20
80.7691913317832
 30
0.0
 10
-134.2048811569204
 20
78.05723904714354
 30
0.0
 10
-134.2805792914976
 20
76.00139414320506
 30
0.0
 10
-133.1145654002182
 20
74.20936939443997
 30
0.0
 10
-131.3975340840358
 20
73.37186391928041
 30
0.0
 10
-131.0180180257079
 20
73.18476329259879
 30
0.0
 10
-131.221869066384
 20
72.76910123062636
 30
0.0
 10
-131.3901167415663
 20
72.76970243245138
 30
0.0
 10
-133.1835133011235
 20
72.77611080203484
 30
0.0
 10
-142.9758343233309
 20
72.8044271262807
 30
0.0
 10
-143.2035161023026
 20
72.80514353946097
 30
0.0
 10
-143.4525578698328
 20
72.80592716301277
 30
0.0
 10
-143.6971610111644
 20
72.62355573238887
 30
0.0
 10
-143.6980122043089
 20
72.31529409956856
 30
0.0
 10
-143.7058819556439
 20
69.46524483247772
 30
0.0
 10
-143.7287246226009
 20
55.0370723788828
 30
0.0
 10
-143.7287246226009
 20
54.8480293929193
 30
0.0
 10
-143.7287246226009
 20
54.5539463037911
 30
0.0
 10
-143.4366258657423
 20
54.36441471342503
 30
0.0
 10
-143.1943089177054
 20
54.36356459501153
 30
0.0
 10
-142.9519919696684
 20
54.36271447659803
 30
0.0
 10
-124.8155223604761
 20
54.36574945333195
 30
0.0
 10
-124.8155223604761
 20
54.36574945333195
 30
0.0
 10
-124.813635117333
 20
54.36574968351838
 30
0.0
 10
-125.0118031682922
 20
54.36572551301541
 30
0.0
 10
-124.8104229052627
 20
54.36377075117984
 30
0.0
 10
-124.6090426422332
 20
54.36181598934425
 30
0.0
 10
-124.3436008160477
 20
54.18110861325204
 30
0.0
 10
-124.3336753025198
 20
53.92810895707369
 30
0.0
 10
-124.3237497889925
 20
53.5485243336054
 30
0.0
 10
-124.3312150851249
 20
53.92465064452873
 30
0.0
 10
-124.3312157750599
 20
53.92252714241725
 30
0.0
 10
-124.3312157750599
 20
53.92252714241725
 30
0.0
 10
-124.3331677417597
 20
47.8441502011198
 30
0.0
 10
-124.3331677417597
 20
47.8441502011198
 30
0.0
 10
-124.3331677417597
 20
46.18729612302924
 30
0.0
 10
-125.676313578148
 20
44.84415028664085
 30
0.0
 10
-127.3331679926737
 20
44.84415028664085
 30
0.0
 10
-127.3331679926737
 20
44.84415028664085
 30
0.0
 10
-129.080003108223
 20
44.84415103293426
 30
0.0
 10
-129.080003108223
 20
44.84415103293426
 30
0.0
 10
-131.6503717961385
 20
44.84415213106228
 30
0.0
 10
-133.9084761108234
 20
42.961497786062
 30
0.0
 10
-134.1871721322168
 20
40.40628278151211
 30
0.0
 10
-134.5158226213347
 20
37.39306193664679
 30
0.0
 10
-132.1645303233478
 20
34.84414967455074
 30
0.0
 10
-129.2179079037594
 20
34.84414967455074
 30
0.0
 10
-129.2179079037594
 20
34.84414967455074
 30
0.0
 10
-127.3355516353996
 20
34.84414967455074
 30
0.0
 10
-127.3355516353996
 20
34.84414967455074
 30
0.0
 10
-125.6787695544217
 20
34.84414967455074
 30
0.0
 10
-124.3356533243226
 20
33.50111688035796
 30
0.0
 10
-124.3355517209206
 20
31.84433547225029
 30
0.0
 10
-124.3355517209206
 20
31.84433547225029
 30
0.0
 10
-124.3236291336349
 20
31.03029708981762
 30
0.0
 10
-124.3236291336349
 20
31.03029708981762
 30
0.0
 10
-124.3236123118796
 20
30.75412962298128
 30
0.0
 10
-124.099730897734
 20
30.53026301198039
 30
0.0
 10
-123.8235647766381
 20
30.53026301198039
 30
0.0
 10
-123.8235647766381
 20
30.53026301198039
 30
0.0
 10
-106.8223886355467
 20
30.53026301198039
 30
0.0
 10
-106.8223886355467
 20
30.53026301198039
 30
0.0
 10
-106.8223886355467
 20
30.53026301198039
 30
0.0
 10
-104.8222469412361
 20
30.53026301198039
 30
0.0
 10
-104.8222469412361
 20
30.53026301198039
 30
0.0
 10
-104.8222469412361
 20
30.53026301198039
 30
0.0
 10
-68.8196937521641
 20
30.53026301198039
 30
0.0
 10
-68.8196937521641
 20
30.53026301198039
 30
0.0
 10
-68.68707372486708
 20
30.53026301198039
 30
0.0
 10
-68.55989048888239
 20
30.47757996586455
 30
0.0
 10
-68.46611391318186
 20
30.38380608164455
 30
0.0
 10
-68.46966666790102
 20
30.38847849239642
 30
0.0
 10
-57.91892178731931
 20
15.92922702862435
 30
0.0
 10
-57.91892178731931
 20
15.92922702862435
 30
0.0
 10
-57.82028439720725
 20
15.84468357797207
 30
0.0
 10
-57.69814499633176
 20
15.79233696696221
 30
0.0
 10
-57.56889470305623
 20
15.77921599782893
 30
0.0
 10
-57.56889470305623
 20
15.77921599782893
 30
0.0
 10
-20.77502730434997
 20
10.30983825367388
 30
0.0
 10
-20.77502730434997
 20
10.30983825367388
 30
0.0
 10
-20.67981347787638
 20
10.29357498065074
 30
0.0
 10
-20.58610688067758
 20
10.26946065799441
 30
0.0
 10
-20.49487644585881
 20
10.23774155620248
 30
0.0
 10
-20.49487644585881
 20
10.23774155620248
 30
0.0
 10
-5.745206124161024
 20
1.748217154117
 30
0.0
 10
-5.745206124161024
 20
1.748217154117
 30
0.0
 10
-5.351894644902798
 20
1.470209723686048
 30
0.0
 10
-4.807687983390629
 20
1.563683339573951
 30
0.0
 10
-4.529679543654359
 20
1.956995996355048
 30
0.0
 10
-4.529679543654359
 20
1.956995996355048
 30
0.0
 10
-1.994218410260095
 20
6.37470827724796
 30
0.0
 10
-1.994218410260095
 20
6.37470827724796
 30
0.0
 10
-1.163164183255736
 20
7.822712514572887
 30
0.0
 10
0.6882463133690279
 20
8.316706795964667
 30
0.0
 10
2.130192826841268
 20
7.47518576127925
 30
0.0
 10
2.130192826841268
 20
7.47518576127925
 30
0.0
 10
3.731594834434403
 20
6.540606384176872
 30
0.0
 10
3.731594834434403
 20
6.540606384176872
 30
0.0
 10
6.123061695137535
 20
5.159892858114173
 30
0.0
 10
9.181014575232421
 20
5.979265755587281
 30
0.0
 10
10.56172271833343
 20
8.370727906198928
 30
0.0
 10
11.94244162735782
 20
10.76218938394037
 30
0.0
 10
11.12306872988471
 20
13.82014226403525
 30
0.0
 10
8.731601869181581
 20
15.20085579009795
 30
0.0
 10
8.731601869181581
 20
15.20085579009795
 30
0.0
 10
7.085795057833502
 20
16.1659660796369
 30
0.0
 10
7.085795057833502
 20
16.1659660796369
 30
0.0
 10
5.663800580259893
 20
16.99983156889723
 30
0.0
 10
5.178032032752305
 20
18.82297340984949
 30
0.0
 10
5.996601338540864
 20
20.25382778400925
 30
0.0
 10
5.996601338540864
 20
20.25382778400925
 30
0.0
 10
8.722160154367318
 20
25.01808870373387
 30
0.0
 10
8.722160154367318
 20
25.01808870373387
 30
0.0
  0
INSERT
  5
1B3
330
8D
100
AcDbEntity
  8
_U_5207_U_65AD_U_30D1_U_30
100
AcDbBlockReference
  2
BLOCK_49
 10
0.0
 20
0.0
 30
0.0
  0
ENDBLK
  5
90
330
8D
100
AcDbEntity
  8
0
100
AcDbBlockEnd
  0
BLOCK
  5
93
330
91
100
AcDbEntity
  8
0
100
AcDbBlockBegin
  2
BLOCK_19
 70
     0
 10
0.0
 20
0.0
 30
0.0
  3
BLOCK_19
  1

  0
SPLINE
  5
95
330
91
100
AcDbEntity
  8
_U_5207_U_65AD_U_30D1_U_30
 62
     1
100
AcDbSpline
210
0.0
220
0.0
230
1.0
 70
    11
 71
     3
 72
    20
 73
    16
 74
     0
 42
0.0000000001
 43
0.0000000001
 12
1.0
 22
0.0
 32
0.0
 13
1.0
 23
0.0
 33
0.0
 40
0.0
 40
0.0
 40
0.0
 40
0.0
 40
1.0
 40
1.0
 40
1.0
 40
2.0
 40
2.0
 40
2.0
 40
3.0
 40
3.0
 40
3.0
 40
4.0
 40
4.0
 40
4.0
 40
5.0
 40
5.0
 40
5.0
 40
5.0
 10
-30.90153563008897
 20
71.79725285735542
 30
0.0
 10
-30.90153563008897
 20
72.40480917263119
 30
0.0
 10
-30.40901392317835
 20
72.89733087953667
 30
0.0
 10
-29.80145760789873
 20
72.89733087953667
 30
0.0
 10
-29.19390129261911
 20
72.89733087953667
 30
0.0
 10
-28.7013795857162
 20
72.40480917263119
 30
0.0
 10
-28.7013795857162
 20
71.79725285735542
 30
0.0
 10
-28.7013795857162
 20
71.18969654207324
 30
0.0
 10
-29.19390129261911
 20
70.69717483516389
 30
0.0
 10
-29.80145760789873
 20
70.69717483516389
 30
0.0
 10
-30.40901392317835
 20
70.69717483516389
 30
0.0
 10
-30.90153563008897
 20
71.18969654207324
 30
0.0
 10
-30.90153563008897
 20
71.79725285735542
 30
0.0
 10
-30.90153563008897
 20
71.79725285735542
 30
0.0
 10
-30.90153563008897
 20
71.79725285735542
 30
0.0
 10
-30.90153563008897
 20
71.79725285735542
 30
0.0
  0
ENDBLK
  5
94
330
91
100
AcDbEntity
  8
0
100
AcDbBlockEnd
  0
BLOCK
  5
98
330
96
100
AcDbEntity
  8
0
100
AcDbBlockBegin
  2
BLOCK_20
 70
     0
 10
0.0
 20
0.0
 30
0.0
  3
BLOCK_20
  1

  0
SPLINE
  5
9A
330
96
100
AcDbEntity
  8
_U_5207_U_65AD_U_30D1_U_30
 62
     1
100
AcDbSpline
210
0.0
220
0.0
230
1.0
 70
    11
 71
     3
 72
    20
 73
    16
 74
     0
 42
0.0000000001
 43
0.0000000001
 12
1.0
 22
0.0
 32
0.0
 13
1.0
 23
0.0
 33
0.0
 40
0.0
 40
0.0
 40
0.0
 40
0.0
 40
1.0
 40
1.0
 40
1.0
 40
2.0
 40
2.0
 40
2.0
 40
3.0
 40
3.0
 40
3.0
 40
4.0
 40
4.0
 40
4.0
 40
5.0
 40
5.0
 40
5.0
 40
5.0
 10
-106.9233580373525
 20
68.17485413837886
 30
0.0
 10
-106.9233580373525
 20
68.78241045365463
 30
0.0
 10
-106.430836330447
 20
69.27493216056396
 30
0.0
 10
-105.8232800151686
 20
69.27493216056396
 30
0.0
 10
-105.215723699889
 20
69.27493216056396
 30
0.0
 10
-104.7232019929791
 20
68.78241045365463
 30
0.0
 10
-104.7232019929791
 20
68.17485413837886
 30
0.0
 10
-104.7232019929791
 20
67.56729782310437
 30
0.0
 10
-105.215723699889
 20
67.07477611619504
 30
0.0
 10
-105.8232800151686
 20
67.07477611619504
 30
0.0
 10
-106.430836330447
 20
67.07477611619504
 30
0.0
 10
-106.9233580373525
 20
67.56729782310437
 30
0.0
 10
-106.9233580373525
 20
68.17485413837886
 30
0.0
 10
-106.9233580373525
 20
68.17485413837886
 30
0.0
 10
-106.9233580373525
 20
68.17485413837886
 30
0.0
 10
-106.9233580373525
 20
68.17485413837886
 30
0.0
  0
ENDBLK
  5
99
330
96
100
AcDbEntity
  8
0
100
AcDbBlockEnd
  0
BLOCK
  5
9D
330
9B
100
AcDbEntity
  8
0
100
AcDbBlockBegin
  2
BLOCK_21
 70
     0
 10
0.0
 20
0.0
 30
0.0
  3
BLOCK_21
  1

  0
SPLINE
  5
9F
330
9B
100
AcDbEntity
  8
_U_5207_U_65AD_U_30D1_U_30
 62
     1
100
AcDbSpline
210
0.0
220
0.0
230
1.0
 70
    11
 71
     3
 72
    20
 73
    16
 74
     0
 42
0.0000000001
 43
0.0000000001
 12
1.0
 22
0.0
 32
0.0
 13
1.0
 23
0.0
 33
0.0
 40
0.0
 40
0.0
 40
0.0
 40
0.0
 40
1.0
 40
1.0
 40
1.0
 40
2.0
 40
2.0
 40
2.0
 40
3.0
 40
3.0
 40
3.0
 40
4.0
 40
4.0
 40
4.0
 40
5.0
 40
5.0
 40
5.0
 40
5.0
 10
-106.9321534463866
 20
49.15970851713128
 30
0.0
 10
-106.9321534463866
 20
49.76726483240577
 30
0.0
 10
-106.439631739476
 20
50.2597865393228
 30
0.0
 10
-105.832075424204
 20
50.2597865393228
 30
0.0
 10
-105.2245191089231
 20
50.2597865393228
 30
0.0
 10
-104.7319974020138
 20
49.76726483240577
 30
0.0
 10
-104.7319974020138
 20
49.15970851713128
 30
0.0
 10
-104.7319974020138
 20
48.55215220185166
 30
0.0
 10
-105.2245191089231
 20
48.05963049494618
 30
0.0
 10
-105.832075424204
 20
48.05963049494618
 30
0.0
 10
-106.439631739476
 20
48.05963049494618
 30
0.0
 10
-106.9321534463866
 20
48.55215220185166
 30
0.0
 10
-106.9321534463866
 20
49.15970851713128
 30
0.0
 10
-106.9321534463866
 20
49.15970851713128
 30
0.0
 10
-106.9321534463866
 20
49.15970851713128
 30
0.0
 10
-106.9321534463866
 20
49.15970851713128
 30
0.0
  0
ENDBLK
  5
9E
330
9B
100
AcDbEntity
  8
0
100
AcDbBlockEnd
  0
BLOCK
  5
A2
330
A0
100
AcDbEntity
  8
0
100
AcDbBlockBegin
  2
BLOCK_22
 70
     0
 10
0.0
 20
0.0
 30
0.0
  3
BLOCK_22
  1

  0
SPLINE
  5
A4
330
A0
100
AcDbEntity
  8
_U_5207_U_65AD_U_30D1_U_30
 62
     1
100
AcDbSpline
210
0.0
220
0.0
230
1.0
 70
    11
 71
     3
 72
    20
 73
    16
 74
     0
 42
0.0000000001
 43
0.0000000001
 12
1.0
 22
0.0
 32
0.0
 13
1.0
 23
0.0
 33
0.0
 40
0.0
 40
0.0
 40
0.0
 40
0.0
 40
1.0
 40
1.0
 40
1.0
 40
2.0
 40
2.0
 40
2.0
 40
3.0
 40
3.0
 40
3.0
 40
4.0
 40
4.0
 40
4.0
 40
5.0
 40
5.0
 40
5.0
 40
5.0
 10
-17.15983782169276
 20
24.29546993440118
 30
0.0
 10
-17.15983782169276
 20
24.90302624968081
 30
0.0
 10
-16.66731611478856
 20
25.39554795659014
 30
0.0
 10
-16.0597597995115
 20
25.39554795659014
 30
0.0
 10
-15.45220348423188
 20
25.39554795659014
 30
0.0
 10
-14.95968177732768
 20
24.90302624968081
 30
0.0
 10
-14.95968177732768
 20
24.29546993440118
 30
0.0
 10
-14.95968177732768
 20
23.68791361913055
 30
0.0
 10
-15.45220348423188
 20
23.19539191221736
 30
0.0
 10
-16.0597597995115
 20
23.19539191221736
 30
0.0
 10
-16.66731611478856
 20
23.19539191221736
 30
0.0
 10
-17.15983782169276
 20
23.68791361913055
 30
0.0
 10
-17.15983782169276
 20
24.29546993440118
 30
0.0
 10
-17.15983782169276
 20
24.29546993440118
 30
0.0
 10
-17.15983782169276
 20
24.29546993440118
 30
0.0
 10
-17.15983782169276
 20
24.29546993440118
 30
0.0
  0
ENDBLK
  5
A3
330
A0
100
AcDbEntity
  8
0
100
AcDbBlockEnd
  0
BLOCK
  5
A7
330
A5
100
AcDbEntity
  8
0
100
AcDbBlockBegin
  2
BLOCK_23
 70
     0
 10
0.0
 20
0.0
 30
0.0
  3
BLOCK_23
  1

  0
SPLINE
  5
A9
330
A5
100
AcDbEntity
  8
_U_5207_U_65AD_U_30D1_U_30
 62
     1
100
AcDbSpline
210
0.0
220
0.0
230
1.0
 70
    11
 71
     3
 72
    20
 73
    16
 74
     0
 42
0.0000000001
 43
0.0000000001
 12
1.0
 22
0.0
 32
0.0
 13
1.0
 23
0.0
 33
0.0
 40
0.0
 40
0.0
 40
0.0
 40
0.0
 40
1.0
 40
1.0
 40
1.0
 40
2.0
 40
2.0
 40
2.0
 40
3.0
 40
3.0
 40
3.0
 40
4.0
 40
4.0
 40
4.0
 40
5.0
 40
5.0
 40
5.0
 40
5.0
 10
-63.67981667055071
 20
32.0499795588632
 30
0.0
 10
-63.67981667055071
 20
32.65753587414282
 30
0.0
 10
-63.18729496364716
 20
33.15005758105215
 30
0.0
 10
-62.57973864836625
 20
33.15005758105215
 30
0.0
 10
-61.97218233308631
 20
33.15005758105215
 30
0.0
 10
-61.47966062618372
 20
32.65753587414282
 30
0.0
 10
-61.47966062618372
 20
32.0499795588632
 30
0.0
 10
-61.47966062618372
 20
31.44242324358486
 30
0.0
 10
-61.97218233308631
 20
30.94990153668323
 30
0.0
 10
-62.57973864836625
 20
30.94990153668323
 30
0.0
 10
-63.18729496364716
 20
30.94990153668323
 30
0.0
 10
-63.67981667055071
 20
31.44242324358486
 30
0.0
 10
-63.67981667055071
 20
32.0499795588632
 30
0.0
 10
-63.67981667055071
 20
32.0499795588632
 30
0.0
 10
-63.67981667055071
 20
32.0499795588632
 30
0.0
 10
-63.67981667055071
 20
32.0499795588632
 30
0.0
  0
ENDBLK
  5
A8
330
A5
100
AcDbEntity
  8
0
100
AcDbBlockEnd
  0
BLOCK
  5
AC
330
AA
100
AcDbEntity
  8
0
100
AcDbBlockBegin
  2
BLOCK_24
 70
     0
 10
0.0
 20
0.0
 30
0.0
  3
BLOCK_24
  1

  0
POLYLINE
  5
AE
330
AA
100
AcDbEntity
  8
_U_5207_U_65AD_U_30D1_U_30
 62
     1
100
AcDb2dPolyline
 66
     1
 10
0.0
 20
0.0
 30
0.0
  0
VERTEX
  5
AF
330
AE
100
AcDbEntity
  8
_U_5207_U_65AD_U_30D1_U_30
 62
     1
100
AcDbVertex
100
AcDb2dVertex
 10
-122.2578643761424
 20
84.60787505614974
 30
0.0
  0
VERTEX
  5
B0
330
AE
100
AcDbEntity
  8
_U_5207_U_65AD_U_30D1_U_30
 62
     1
100
AcDbVertex
100
AcDb2dVertex
 10
-122.2578643761424
 20
70.75689268589356
 30
0.0
  0
VERTEX
  5
B1
330
AE
100
AcDbEntity
  8
_U_5207_U_65AD_U_30D1_U_30
 62
     1
100
AcDbVertex
100
AcDb2dVertex
 10
-108.4068820058875
 20
70.75689268589356
 30
0.0
  0
VERTEX
  5
B2
330
AE
100
AcDbEntity
  8
_U_5207_U_65AD_U_30D1_U_30
 62
     1
100
AcDbVertex
100
AcDb2dVertex
 10
-108.4068820058875
 20
84.60787505614974
 30
0.0
  0
VERTEX
  5
B3
330
AE
100
AcDbEntity
  8
_U_5207_U_65AD_U_30D1_U_30
 62
     1
100
AcDbVertex
100
AcDb2dVertex
 10
-122.2578643761424
 20
84.60787505614974
 30
0.0
  0
SEQEND
  5
B4
330
AE
100
AcDbEntity
  8
_U_5207_U_65AD_U_30D1_U_30
 62
     1
  0
ENDBLK
  5
AD
330
AA
100
AcDbEntity
  8
0
100
AcDbBlockEnd
  0
BLOCK
  5
B7
330
B5
100
AcDbEntity
  8
0
100
AcDbBlockBegin
  2
BLOCK_25
 70
     0
 10
0.0
 20
0.0
 30
0.0
  3
BLOCK_25
  1

  0
POLYLINE
  5
B9
330
B5
100
AcDbEntity
  8
_U_5207_U_65AD_U_30D1_U_30
 62
     1
100
AcDb2dPolyline
 66
     1
 10
0.0
 20
0.0
 30
0.0
  0
VERTEX
  5
BA
330
B9
100
AcDbEntity
  8
_U_5207_U_65AD_U_30D1_U_30
 62
     1
100
AcDbVertex
100
AcDb2dVertex
 10
-122.2578643761424
 20
65.60652740020666
 30
0.0
  0
VERTEX
  5
BB
330
B9
100
AcDbEntity
  8
_U_5207_U_65AD_U_30D1_U_30
 62
     1
100
AcDbVertex
100
AcDb2dVertex
 10
-122.2578643761424
 20
51.75554502994665
 30
0.0
  0
VERTEX
  5
BC
330
B9
100
AcDbEntity
  8
_U_5207_U_65AD_U_30D1_U_30
 62
     1
100
AcDbVertex
100
AcDb2dVertex
 10
-108.4068820058875
 20
51.75554502994665
 30
0.0
  0
VERTEX
  5
BD
330
B9
100
AcDbEntity
  8
_U_5207_U_65AD_U_30D1_U_30
 62
     1
100
AcDbVertex
100
AcDb2dVertex
 10
-108.4068820058875
 20
65.60652740020666
 30
0.0
  0
VERTEX
  5
BE
330
B9
100
AcDbEntity
  8
_U_5207_U_65AD_U_30D1_U_30
 62
     1
100
AcDbVertex
100
AcDb2dVertex
 10
-122.2578643761424
 20
65.60652740020666
 30
0.0
  0
SEQEND
  5
BF
330
B9
100
AcDbEntity
  8
_U_5207_U_65AD_U_30D1_U_30
 62
     1
  0
ENDBLK
  5
B8
330
B5
100
AcDbEntity
  8
0
100
AcDbBlockEnd
  0
BLOCK
  5
C2
330
C0
100
AcDbEntity
  8
0
100
AcDbBlockBegin
  2
BLOCK_26
 70
     0
 10
0.0
 20
0.0
 30
0.0
  3
BLOCK_26
  1

  0
POLYLINE
  5
C4
330
C0
100
AcDbEntity
  8
_U_5207_U_65AD_U_30D1_U_30
 62
     1
100
AcDb2dPolyline
 66
     1
 10
0.0
 20
0.0
 30
0.0
  0
VERTEX
  5
C5
330
C4
100
AcDbEntity
  8
_U_5207_U_65AD_U_30D1_U_30
 62
     1
100
AcDbVertex
100
AcDb2dVertex
 10
-122.2578643761424
 20
46.60517974425974
 30
0.0
  0
VERTEX
  5
C6
330
C4
100
AcDbEntity
  8
_U_5207_U_65AD_U_30D1_U_30
 62
     1
100
AcDbVertex
100
AcDb2dVertex
 10
-122.2578643761424
 20
32.75419737400485
 30
0.0
  0
VERTEX
  5
C7
330
C4
100
AcDbEntity
  8
_U_5207_U_65AD_U_30D1_U_30
 62
     1
100
AcDbVertex
100
AcDb2dVertex
 10
-108.4068820058875
 20
32.75419737400485
 30
0.0
  0
VERTEX
  5
C8
330
C4
100
AcDbEntity
  8
_U_5207_U_65AD_U_30D1_U_30
 62
     1
100
AcDbVertex
100
AcDb2dVertex
 10
-108.4068820058875
 20
46.60517974425974
 30
0.0
  0
VERTEX
  5
C9
330
C4
100
AcDbEntity
  8
_U_5207_U_65AD_U_30D1_U_30
 62
     1
100
AcDbVertex
100
AcDb2dVertex
 10
-122.2578643761424
 20
46.60517974425974
 30
0.0
  0
SEQEND
  5
CA
330
C4
100
AcDbEntity
  8
_U_5207_U_65AD_U_30D1_U_30
 62
     1
  0
ENDBLK
  5
C3
330
C0
100
AcDbEntity
  8
0
100
AcDbBlockEnd
  0
BLOCK
  5
CD
330
CB
100
AcDbEntity
  8
0
100
AcDbBlockBegin
  2
BLOCK_27
 70
     0
 10
0.0
 20
0.0
 30
0.0
  3
BLOCK_27
  1

  0
POLYLINE
  5
CF
330
CB
100
AcDbEntity
  8
_U_5207_U_65AD_U_30D1_U_30
 62
     1
100
AcDb2dPolyline
 66
     1
 10
0.0
 20
0.0
 30
0.0
  0
VERTEX
  5
D0
330
CF
100
AcDbEntity
  8
_U_5207_U_65AD_U_30D1_U_30
 62
     1
100
AcDbVertex
100
AcDb2dVertex
 10
-103.2560086841693
 20
84.60787505614974
 30
0.0
  0
VERTEX
  5
D1
330
CF
100
AcDbEntity
  8
_U_5207_U_65AD_U_30D1_U_30
 62
     1
100
AcDbVertex
100
AcDb2dVertex
 10
-103.2560086841693
 20
70.75689268589356
 30
0.0
  0
VERTEX
  5
D2
330
CF
100
AcDbEntity
  8
_U_5207_U_65AD_U_30D1_U_30
 62
     1
100
AcDbVertex
100
AcDb2dVertex
 10
-89.40502631391313
 20
70.75689268589356
 30
0.0
  0
VERTEX
  5
D3
330
CF
100
AcDbEntity
  8
_U_5207_U_65AD_U_30D1_U_30
 62
     1
100
AcDbVertex
100
AcDb2dVertex
 10
-89.40502631391313
 20
84.60787505614974
 30
0.0
  0
VERTEX
  5
D4
330
CF
100
AcDbEntity
  8
_U_5207_U_65AD_U_30D1_U_30
 62
     1
100
AcDbVertex
100
AcDb2dVertex
 10
-103.2560086841693
 20
84.60787505614974
 30
0.0
  0
SEQEND
  5
D5
330
CF
100
AcDbEntity
  8
_U_5207_U_65AD_U_30D1_U_30
 62
     1
  0
ENDBLK
  5
CE
330
CB
100
AcDbEntity
  8
0
100
AcDbBlockEnd
  0
BLOCK
  5
D8
330
D6
100
AcDbEntity
  8
0
100
AcDbBlockBegin
  2
BLOCK_28
 70
     0
 10
0.0
 20
0.0
 30
0.0
  3
BLOCK_28
  1

  0
POLYLINE
  5
DA
330
D6
100
AcDbEntity
  8
_U_5207_U_65AD_U_30D1_U_30
 62
     1
100
AcDb2dPolyline
 66
     1
 10
0.0
 20
0.0
 30
0.0
  0
VERTEX
  5
DB
330
DA
100
AcDbEntity
  8
_U_5207_U_65AD_U_30D1_U_30
 62
     1
100
AcDbVertex
100
AcDb2dVertex
 10
-103.2560086841693
 20
65.60652740020666
 30
0.0
  0
VERTEX
  5
DC
330
DA
100
AcDbEntity
  8
_U_5207_U_65AD_U_30D1_U_30
 62
     1
100
AcDbVertex
100
AcDb2dVertex
 10
-103.2560086841693
 20
51.75554502994665
 30
0.0
  0
VERTEX
  5
DD
330
DA
100
AcDbEntity
  8
_U_5207_U_65AD_U_30D1_U_30
 62
     1
100
AcDbVertex
100
AcDb2dVertex
 10
-89.40502631391313
 20
51.75554502994665
 30
0.0
  0
VERTEX
  5
DE
330
DA
100
AcDbEntity
  8
_U_5207_U_65AD_U_30D1_U_30
 62
     1
100
AcDbVertex
100
AcDb2dVertex
 10
-89.40502631391313
 20
65.60652740020666
 30
0.0
  0
VERTEX
  5
DF
330
DA
100
AcDbEntity
  8
_U_5207_U_65AD_U_30D1_U_30
 62
     1
100
AcDbVertex
100
AcDb2dVertex
 10
-103.2560086841693
 20
65.60652740020666
 30
0.0
  0
SEQEND
  5
E0
330
DA
100
AcDbEntity
  8
_U_5207_U_65AD_U_30D1_U_30
 62
     1
  0
ENDBLK
  5
D9
330
D6
100
AcDbEntity
  8
0
100
AcDbBlockEnd
  0
BLOCK
  5
E3
330
E1
100
AcDbEntity
  8
0
100
AcDbBlockBegin
  2
BLOCK_29
 70
     0
 10
0.0
 20
0.0
 30
0.0
  3
BLOCK_29
  1

  0
POLYLINE
  5
E5
330
E1
100
AcDbEntity
  8
_U_5207_U_65AD_U_30D1_U_30
 62
     1
100
AcDb2dPolyline
 66
     1
 10
0.0
 20
0.0
 30
0.0
  0
VERTEX
  5
E6
330
E5
100
AcDbEntity
  8
_U_5207_U_65AD_U_30D1_U_30
 62
     1
100
AcDbVertex
100
AcDb2dVertex
 10
-103.2560086841693
 20
46.60517974425974
 30
0.0
  0
VERTEX
  5
E7
330
E5
100
AcDbEntity
  8
_U_5207_U_65AD_U_30D1_U_30
 62
     1
100
AcDbVertex
100
AcDb2dVertex
 10
-103.2560086841693
 20
32.75419737400485
 30
0.0
  0
VERTEX
  5
E8
330
E5
100
AcDbEntity
  8
_U_5207_U_65AD_U_30D1_U_30
 62
     1
100
AcDbVertex
100
AcDb2dVertex
 10
-89.40502631391313
 20
32.75419737400485
 30
0.0
  0
VERTEX
  5
E9
330
E5
100
AcDbEntity
  8
_U_5207_U_65AD_U_30D1_U_30
 62
     1
100
AcDbVertex
100
AcDb2dVertex
 10
-89.40502631391313
 20
46.60517974425974
 30
0.0
  0
VERTEX
  5
EA
330
E5
100
AcDbEntity
  8
_U_5207_U_65AD_U_30D1_U_30
 62
     1
100
AcDbVertex
100
AcDb2dVertex
 10
-103.2560086841693
 20
46.60517974425974
 30
0.0
  0
SEQEND
  5
EB
330
E5
100
AcDbEntity
  8
_U_5207_U_65AD_U_30D1_U_30
 62
     1
  0
ENDBLK
  5
E4
330
E1
100
AcDbEntity
  8
0
100
AcDbBlockEnd
  0
BLOCK
  5
EE
330
EC
100
AcDbEntity
  8
0
100
AcDbBlockBegin
  2
BLOCK_30
 70
     0
 10
0.0
 20
0.0
 30
0.0
  3
BLOCK_30
  1

  0
POLYLINE
  5
F0
330
EC
100
AcDbEntity
  8
_U_5207_U_65AD_U_30D1_U_30
 62
     1
100
AcDb2dPolyline
 66
     1
 10
0.0
 20
0.0
 30
0.0
  0
VERTEX
  5
F1
330
F0
100
AcDbEntity
  8
_U_5207_U_65AD_U_30D1_U_30
 62
     1
100
AcDbVertex
100
AcDb2dVertex
 10
-84.25466102821723
 20
89.35821197013519
 30
0.0
  0
VERTEX
  5
F2
330
F0
100
AcDbEntity
  8
_U_5207_U_65AD_U_30D1_U_30
 62
     1
100
AcDbVertex
100
AcDb2dVertex
 10
-84.25466102821723
 20
75.50722959988286
 30
0.0
  0
VERTEX
  5
F3
330
F0
100
AcDbEntity
  8
_U_5207_U_65AD_U_30D1_U_30
 62
     1
100
AcDbVertex
100
AcDb2dVertex
 10
-70.40367865796362
 20
75.50722959988286
 30
0.0
  0
VERTEX
  5
F4
330
F0
100
AcDbEntity
  8
_U_5207_U_65AD_U_30D1_U_30
 62
     1
100
AcDbVertex
100
AcDb2dVertex
 10
-70.40367865796362
 20
89.35821197013519
 30
0.0
  0
VERTEX
  5
F5
330
F0
100
AcDbEntity
  8
_U_5207_U_65AD_U_30D1_U_30
 62
     1
100
AcDbVertex
100
AcDb2dVertex
 10
-84.25466102821723
 20
89.35821197013519
 30
0.0
  0
SEQEND
  5
F6
330
F0
100
AcDbEntity
  8
_U_5207_U_65AD_U_30D1_U_30
 62
     1
  0
ENDBLK
  5
EF
330
EC
100
AcDbEntity
  8
0
100
AcDbBlockEnd
  0
BLOCK
  5
F9
330
F7
100
AcDbEntity
  8
0
100
AcDbBlockBegin
  2
BLOCK_31
 70
     0
 10
0.0
 20
0.0
 30
0.0
  3
BLOCK_31
  1

  0
POLYLINE
  5
FB
330
F7
100
AcDbEntity
  8
_U_5207_U_65AD_U_30D1_U_30
 62
     1
100
AcDb2dPolyline
 66
     1
 10
0.0
 20
0.0
 30
0.0
  0
VERTEX
  5
FC
330
FB
100
AcDbEntity
  8
_U_5207_U_65AD_U_30D1_U_30
 62
     1
100
AcDbVertex
100
AcDb2dVertex
 10
-84.25466102821723
 20
70.35686431419211
 30
0.0
  0
VERTEX
  5
FD
330
FB
100
AcDbEntity
  8
_U_5207_U_65AD_U_30D1_U_30
 62
     1
100
AcDbVertex
100
AcDb2dVertex
 10
-84.25466102821723
 20
56.50588194393979
 30
0.0
  0
VERTEX
  5
FE
330
FB
100
AcDbEntity
  8
_U_5207_U_65AD_U_30D1_U_30
 62
     1
100
AcDbVertex
100
AcDb2dVertex
 10
-70.40367865796362
 20
56.50588194393979
 30
0.0
  0
VERTEX
  5
FF
330
FB
100
AcDbEntity
  8
_U_5207_U_65AD_U_30D1_U_30
 62
     1
100
AcDbVertex
100
AcDb2dVertex
 10
-70.40367865796362
 20
70.35686431419211
 30
0.0
  0
VERTEX
  5
100
330
FB
100
AcDbEntity
  8
_U_5207_U_65AD_U_30D1_U_30
 62
     1
100
AcDbVertex
100
AcDb2dVertex
 10
-84.25466102821723
 20
70.35686431419211
 30
0.0
  0
SEQEND
  5
101
330
FB
100
AcDbEntity
  8
_U_5207_U_65AD_U_30D1_U_30
 62
     1
  0
ENDBLK
  5
FA
330
F7
100
AcDbEntity
  8
0
100
AcDbBlockEnd
  0
BLOCK
  5
104
330
102
100
AcDbEntity
  8
0
100
AcDbBlockBegin
  2
BLOCK_32
 70
     0
 10
0.0
 20
0.0
 30
0.0
  3
BLOCK_32
  1

  0
POLYLINE
  5
106
330
102
100
AcDbEntity
  8
_U_5207_U_65AD_U_30D1_U_30
 62
     1
100
AcDb2dPolyline
 66
     1
 10
0.0
 20
0.0
 30
0.0
  0
VERTEX
  5
107
330
106
100
AcDbEntity
  8
_U_5207_U_65AD_U_30D1_U_30
 62
     1
100
AcDbVertex
100
AcDb2dVertex
 10
-84.25466102821723
 20
51.35551665824133
 30
0.0
  0
VERTEX
  5
108
330
106
100
AcDbEntity
  8
_U_5207_U_65AD_U_30D1_U_30
 62
     1
100
AcDbVertex
100
AcDb2dVertex
 10
-84.25466102821723
 20
37.5045342879903
 30
0.0
  0
VERTEX
  5
109
330
106
100
AcDbEntity
  8
_U_5207_U_65AD_U_30D1_U_30
 62
     1
100
AcDbVertex
100
AcDb2dVertex
 10
-70.40367865796362
 20
37.5045342879903
 30
0.0
  0
VERTEX
  5
10A
330
106
100
AcDbEntity
  8
_U_5207_U_65AD_U_30D1_U_30
 62
     1
100
AcDbVertex
100
AcDb2dVertex
 10
-70.40367865796362
 20
51.35551665824133
 30
0.0
  0
VERTEX
  5
10B
330
106
100
AcDbEntity
  8
_U_5207_U_65AD_U_30D1_U_30
 62
     1
100
AcDbVertex
100
AcDb2dVertex
 10
-84.25466102821723
 20
51.35551665824133
 30
0.0
  0
SEQEND
  5
10C
330
106
100
AcDbEntity
  8
_U_5207_U_65AD_U_30D1_U_30
 62
     1
  0
ENDBLK
  5
105
330
102
100
AcDbEntity
  8
0
100
AcDbBlockEnd
  0
BLOCK
  5
10F
330
10D
100
AcDbEntity
  8
0
100
AcDbBlockBegin
  2
BLOCK_33
 70
     0
 10
0.0
 20
0.0
 30
0.0
  3
BLOCK_33
  1

  0
POLYLINE
  5
111
330
10D
100
AcDbEntity
  8
_U_5207_U_65AD_U_30D1_U_30
 62
     1
100
AcDb2dPolyline
 66
     1
 10
0.0
 20
0.0
 30
0.0
  0
VERTEX
  5
112
330
111
100
AcDbEntity
  8
_U_5207_U_65AD_U_30D1_U_30
 62
     1
100
AcDbVertex
100
AcDb2dVertex
 10
-65.25331337227544
 20
91.73338042712598
 30
0.0
  0
VERTEX
  5
113
330
111
100
AcDbEntity
  8
_U_5207_U_65AD_U_30D1_U_30
 62
     1
100
AcDbVertex
100
AcDb2dVertex
 10
-65.25331337227544
 20
77.88239805687495
 30
0.0
  0
VERTEX
  5
114
330
111
100
AcDbEntity
  8
_U_5207_U_65AD_U_30D1_U_30
 62
     1
100
AcDbVertex
100
AcDb2dVertex
 10
-51.40233100202055
 20
77.88239805687495
 30
0.0
  0
VERTEX
  5
115
330
111
100
AcDbEntity
  8
_U_5207_U_65AD_U_30D1_U_30
 62
     1
100
AcDbVertex
100
AcDb2dVertex
 10
-51.40233100202055
 20
91.73338042712598
 30
0.0
  0
VERTEX
  5
116
330
111
100
AcDbEntity
  8
_U_5207_U_65AD_U_30D1_U_30
 62
     1
100
AcDbVertex
100
AcDb2dVertex
 10
-65.25331337227544
 20
91.73338042712598
 30
0.0
  0
SEQEND
  5
117
330
111
100
AcDbEntity
  8
_U_5207_U_65AD_U_30D1_U_30
 62
     1
  0
ENDBLK
  5
110
330
10D
100
AcDbEntity
  8
0
100
AcDbBlockEnd
  0
BLOCK
  5
11A
330
118
100
AcDbEntity
  8
0
100
AcDbBlockBegin
  2
BLOCK_34
 70
     0
 10
0.0
 20
0.0
 30
0.0
  3
BLOCK_34
  1

  0
POLYLINE
  5
11C
330
118
100
AcDbEntity
  8
_U_5207_U_65AD_U_30D1_U_30
 62
     1
100
AcDb2dPolyline
 66
     1
 10
0.0
 20
0.0
 30
0.0
  0
VERTEX
  5
11D
330
11C
100
AcDbEntity
  8
_U_5207_U_65AD_U_30D1_U_30
 62
     1
100
AcDbVertex
100
AcDb2dVertex
 10
-65.25331337227544
 20
72.73203277118677
 30
0.0
  0
VERTEX
  5
11E
330
11C
100
AcDbEntity
  8
_U_5207_U_65AD_U_30D1_U_30
 62
     1
100
AcDbVertex
100
AcDb2dVertex
 10
-65.25331337227544
 20
58.88105040093188
 30
0.0
  0
VERTEX
  5
11F
330
11C
100
AcDbEntity
  8
_U_5207_U_65AD_U_30D1_U_30
 62
     1
100
AcDbVertex
100
AcDb2dVertex
 10
-51.40233100202055
 20
58.88105040093188
 30
0.0
  0
VERTEX
  5
120
330
11C
100
AcDbEntity
  8
_U_5207_U_65AD_U_30D1_U_30
 62
     1
100
AcDbVertex
100
AcDb2dVertex
 10
-51.40233100202055
 20
72.73203277118677
 30
0.0
  0
VERTEX
  5
121
330
11C
100
AcDbEntity
  8
_U_5207_U_65AD_U_30D1_U_30
 62
     1
100
AcDbVertex
100
AcDb2dVertex
 10
-65.25331337227544
 20
72.73203277118677
 30
0.0
  0
SEQEND
  5
122
330
11C
100
AcDbEntity
  8
_U_5207_U_65AD_U_30D1_U_30
 62
     1
  0
ENDBLK
  5
11B
330
118
100
AcDbEntity
  8
0
100
AcDbBlockEnd
  0
BLOCK
  5
125
330
123
100
AcDbEntity
  8
0
100
AcDbBlockBegin
  2
BLOCK_35
 70
     0
 10
0.0
 20
0.0
 30
0.0
  3
BLOCK_35
  1

  0
POLYLINE
  5
127
330
123
100
AcDbEntity
  8
_U_5207_U_65AD_U_30D1_U_30
 62
     1
100
AcDb2dPolyline
 66
     1
 10
0.0
 20
0.0
 30
0.0
  0
VERTEX
  5
128
330
127
100
AcDbEntity
  8
_U_5207_U_65AD_U_30D1_U_30
 62
     1
100
AcDbVertex
100
AcDb2dVertex
 10
-65.25331337227544
 20
53.73068511524369
 30
0.0
  0
VERTEX
  5
129
330
127
100
AcDbEntity
  8
_U_5207_U_65AD_U_30D1_U_30
 62
     1
100
AcDbVertex
100
AcDb2dVertex
 10
-65.25331337227544
 20
39.87970274498495
 30
0.0
  0
VERTEX
  5
12A
330
127
100
AcDbEntity
  8
_U_5207_U_65AD_U_30D1_U_30
 62
     1
100
AcDbVertex
100
AcDb2dVertex
 10
-51.40233100202055
 20
39.87970274498495
 30
0.0
  0
VERTEX
  5
12B
330
127
100
AcDbEntity
  8
_U_5207_U_65AD_U_30D1_U_30
 62
     1
100
AcDbVertex
100
AcDb2dVertex
 10
-51.40233100202055
 20
53.73068511524369
 30
0.0
  0
VERTEX
  5
12C
330
127
100
AcDbEntity
  8
_U_5207_U_65AD_U_30D1_U_30
 62
     1
100
AcDbVertex
100
AcDb2dVertex
 10
-65.25331337227544
 20
53.73068511524369
 30
0.0
  0
SEQEND
  5
12D
330
127
100
AcDbEntity
  8
_U_5207_U_65AD_U_30D1_U_30
 62
     1
  0
ENDBLK
  5
126
330
123
100
AcDbEntity
  8
0
100
AcDbBlockEnd
  0
BLOCK
  5
130
330
12E
100
AcDbEntity
  8
0
100
AcDbBlockBegin
  2
BLOCK_36
 70
     0
 10
0.0
 20
0.0
 30
0.0
  3
BLOCK_36
  1

  0
POLYLINE
  5
132
330
12E
100
AcDbEntity
  8
_U_5207_U_65AD_U_30D1_U_30
 62
     1
100
AcDb2dPolyline
 66
     1
 10
0.0
 20
0.0
 30
0.0
  0
VERTEX
  5
133
330
132
100
AcDbEntity
  8
_U_5207_U_65AD_U_30D1_U_30
 62
     1
100
AcDbVertex
100
AcDb2dVertex
 10
-46.25196571633109
 20
89.35821197013519
 30
0.0
  0
VERTEX
  5
134
330
132
100
AcDbEntity
  8
_U_5207_U_65AD_U_30D1_U_30
 62
     1
100
AcDbVertex
100
AcDb2dVertex
 10
-46.25196571633109
 20
75.50722959988286
 30
0.0
  0
VERTEX
  5
135
330
132
100
AcDbEntity
  8
_U_5207_U_65AD_U_30D1_U_30
 62
     1
100
AcDbVertex
100
AcDb2dVertex
 10
-32.40098334607492
 20
75.50722959988286
 30
0.0
  0
VERTEX
  5
136
330
132
100
AcDbEntity
  8
_U_5207_U_65AD_U_30D1_U_30
 62
     1
100
AcDbVertex
100
AcDb2dVertex
 10
-32.40098334607492
 20
89.35821197013519
 30
0.0
  0
VERTEX
  5
137
330
132
100
AcDbEntity
  8
_U_5207_U_65AD_U_30D1_U_30
 62
     1
100
AcDbVertex
100
AcDb2dVertex
 10
-46.25196571633109
 20
89.35821197013519
 30
0.0
  0
SEQEND
  5
138
330
132
100
AcDbEntity
  8
_U_5207_U_65AD_U_30D1_U_30
 62
     1
  0
ENDBLK
  5
131
330
12E
100
AcDbEntity
  8
0
100
AcDbBlockEnd
  0
BLOCK
  5
13B
330
139
100
AcDbEntity
  8
0
100
AcDbBlockBegin
  2
BLOCK_37
 70
     0
 10
0.0
 20
0.0
 30
0.0
  3
BLOCK_37
  1

  0
POLYLINE
  5
13D
330
139
100
AcDbEntity
  8
_U_5207_U_65AD_U_30D1_U_30
 62
     1
100
AcDb2dPolyline
 66
     1
 10
0.0
 20
0.0
 30
0.0
  0
VERTEX
  5
13E
330
13D
100
AcDbEntity
  8
_U_5207_U_65AD_U_30D1_U_30
 62
     1
100
AcDbVertex
100
AcDb2dVertex
 10
-46.25196571633109
 20
70.35686431419211
 30
0.0
  0
VERTEX
  5
13F
330
13D
100
AcDbEntity
  8
_U_5207_U_65AD_U_30D1_U_30
 62
     1
100
AcDbVertex
100
AcDb2dVertex
 10
-46.25196571633109
 20
56.50588194393979
 30
0.0
  0
VERTEX
  5
140
330
13D
100
AcDbEntity
  8
_U_5207_U_65AD_U_30D1_U_30
 62
     1
100
AcDbVertex
100
AcDb2dVertex
 10
-32.40098334607492
 20
56.50588194393979
 30
0.0
  0
VERTEX
  5
141
330
13D
100
AcDbEntity
  8
_U_5207_U_65AD_U_30D1_U_30
 62
     1
100
AcDbVertex
100
AcDb2dVertex
 10
-32.40098334607492
 20
70.35686431419211
 30
0.0
  0
VERTEX
  5
142
330
13D
100
AcDbEntity
  8
_U_5207_U_65AD_U_30D1_U_30
 62
     1
100
AcDbVertex
100
AcDb2dVertex
 10
-46.25196571633109
 20
70.35686431419211
 30
0.0
  0
SEQEND
  5
143
330
13D
100
AcDbEntity
  8
_U_5207_U_65AD_U_30D1_U_30
 62
     1
  0
ENDBLK
  5
13C
330
139
100
AcDbEntity
  8
0
100
AcDbBlockEnd
  0
BLOCK
  5
146
330
144
100
AcDbEntity
  8
0
100
AcDbBlockBegin
  2
BLOCK_38
 70
     0
 10
0.0
 20
0.0
 30
0.0
  3
BLOCK_38
  1

  0
POLYLINE
  5
148
330
144
100
AcDbEntity
  8
_U_5207_U_65AD_U_30D1_U_30
 62
     1
100
AcDb2dPolyline
 66
     1
 10
0.0
 20
0.0
 30
0.0
  0
VERTEX
  5
149
330
148
100
AcDbEntity
  8
_U_5207_U_65AD_U_30D1_U_30
 62
     1
100
AcDbVertex
100
AcDb2dVertex
 10
-46.25196571633109
 20
51.35551665824133
 30
0.0
  0
VERTEX
  5
14A
330
148
100
AcDbEntity
  8
_U_5207_U_65AD_U_30D1_U_30
 62
     1
100
AcDbVertex
100
AcDb2dVertex
 10
-46.25196571633109
 20
37.5045342879903
 30
0.0
  0
VERTEX
  5
14B
330
148
100
AcDbEntity
  8
_U_5207_U_65AD_U_30D1_U_30
 62
     1
100
AcDbVertex
100
AcDb2dVertex
 10
-32.40098334607492
 20
37.5045342879903
 30
0.0
  0
VERTEX
  5
14C
330
148
100
AcDbEntity
  8
_U_5207_U_65AD_U_30D1_U_30
 62
     1
100
AcDbVertex
100
AcDb2dVertex
 10
-32.40098334607492
 20
51.35551665824133
 30
0.0
  0
VERTEX
  5
14D
330
148
100
AcDbEntity
  8
_U_5207_U_65AD_U_30D1_U_30
 62
     1
100
AcDbVertex
100
AcDb2dVertex
 10
-46.25196571633109
 20
51.35551665824133
 30
0.0
  0
SEQEND
  5
14E
330
148
100
AcDbEntity
  8
_U_5207_U_65AD_U_30D1_U_30
 62
     1
  0
ENDBLK
  5
147
330
144
100
AcDbEntity
  8
0
100
AcDbBlockEnd
  0
BLOCK
  5
151
330
14F
100
AcDbEntity
  8
0
100
AcDbBlockBegin
  2
BLOCK_39
 70
     0
 10
0.0
 20
0.0
 30
0.0
  3
BLOCK_39
  1

  0
POLYLINE
  5
153
330
14F
100
AcDbEntity
  8
_U_5207_U_65AD_U_30D1_U_30
 62
     1
100
AcDb2dPolyline
 66
     1
 10
0.0
 20
0.0
 30
0.0
  0
VERTEX
  5
154
330
153
100
AcDbEntity
  8
_U_5207_U_65AD_U_30D1_U_30
 62
     1
100
AcDbVertex
100
AcDb2dVertex
 10
-27.25061806038288
 20
86.98304351314438
 30
0.0
  0
VERTEX
  5
155
330
153
100
AcDbEntity
  8
_U_5207_U_65AD_U_30D1_U_30
 62
     1
100
AcDbVertex
100
AcDb2dVertex
 10
-27.25061806038288
 20
73.13206114289207
 30
0.0
  0
VERTEX
  5
156
330
153
100
AcDbEntity
  8
_U_5207_U_65AD_U_30D1_U_30
 62
     1
100
AcDbVertex
100
AcDb2dVertex
 10
-13.39963569012543
 20
73.13206114289207
 30
0.0
  0
VERTEX
  5
157
330
153
100
AcDbEntity
  8
_U_5207_U_65AD_U_30D1_U_30
 62
     1
100
AcDbVertex
100
AcDb2dVertex
 10
-13.39963569012543
 20
86.98304351314438
 30
0.0
  0
VERTEX
  5
158
330
153
100
AcDbEntity
  8
_U_5207_U_65AD_U_30D1_U_30
 62
     1
100
AcDbVertex
100
AcDb2dVertex
 10
-27.25061806038288
 20
86.98304351314438
 30
0.0
  0
SEQEND
  5
159
330
153
100
AcDbEntity
  8
_U_5207_U_65AD_U_30D1_U_30
 62
     1
  0
ENDBLK
  5
152
330
14F
100
AcDbEntity
  8
0
100
AcDbBlockEnd
  0
BLOCK
  5
15C
330
15A
100
AcDbEntity
  8
0
100
AcDbBlockBegin
  2
BLOCK_40
 70
     0
 10
0.0
 20
0.0
 30
0.0
  3
BLOCK_40
  1

  0
POLYLINE
  5
15E
330
15A
100
AcDbEntity
  8
_U_5207_U_65AD_U_30D1_U_30
 62
     1
100
AcDb2dPolyline
 66
     1
 10
0.0
 20
0.0
 30
0.0
  0
VERTEX
  5
15F
330
15E
100
AcDbEntity
  8
_U_5207_U_65AD_U_30D1_U_30
 62
     1
100
AcDbVertex
100
AcDb2dVertex
 10
-27.25061806038288
 20
67.98169585719747
 30
0.0
  0
VERTEX
  5
160
330
15E
100
AcDbEntity
  8
_U_5207_U_65AD_U_30D1_U_30
 62
     1
100
AcDbVertex
100
AcDb2dVertex
 10
-27.25061806038288
 20
54.13071348693872
 30
0.0
  0
VERTEX
  5
161
330
15E
100
AcDbEntity
  8
_U_5207_U_65AD_U_30D1_U_30
 62
     1
100
AcDbVertex
100
AcDb2dVertex
 10
-13.39963569012543
 20
54.13071348693872
 30
0.0
  0
VERTEX
  5
162
330
15E
100
AcDbEntity
  8
_U_5207_U_65AD_U_30D1_U_30
 62
     1
100
AcDbVertex
100
AcDb2dVertex
 10
-13.39963569012543
 20
67.98169585719747
 30
0.0
  0
VERTEX
  5
163
330
15E
100
AcDbEntity
  8
_U_5207_U_65AD_U_30D1_U_30
 62
     1
100
AcDbVertex
100
AcDb2dVertex
 10
-27.25061806038288
 20
67.98169585719747
 30
0.0
  0
SEQEND
  5
164
330
15E
100
AcDbEntity
  8
_U_5207_U_65AD_U_30D1_U_30
 62
     1
  0
ENDBLK
  5
15D
330
15A
100
AcDbEntity
  8
0
100
AcDbBlockEnd
  0
BLOCK
  5
167
330
165
100
AcDbEntity
  8
0
100
AcDbBlockBegin
  2
BLOCK_41
 70
     0
 10
0.0
 20
0.0
 30
0.0
  3
BLOCK_41
  1

  0
POLYLINE
  5
169
330
165
100
AcDbEntity
  8
_U_5207_U_65AD_U_30D1_U_30
 62
     1
100
AcDb2dPolyline
 66
     1
 10
0.0
 20
0.0
 30
0.0
  0
VERTEX
  5
16A
330
169
100
AcDbEntity
  8
_U_5207_U_65AD_U_30D1_U_30
 62
     1
100
AcDbVertex
100
AcDb2dVertex
 10
-27.25061806038288
 20
48.98034820125054
 30
0.0
  0
VERTEX
  5
16B
330
169
100
AcDbEntity
  8
_U_5207_U_65AD_U_30D1_U_30
 62
     1
100
AcDbVertex
100
AcDb2dVertex
 10
-27.25061806038288
 20
35.1293658309995
 30
0.0
  0
VERTEX
  5
16C
330
169
100
AcDbEntity
  8
_U_5207_U_65AD_U_30D1_U_30
 62
     1
100
AcDbVertex
100
AcDb2dVertex
 10
-13.39963569012543
 20
35.1293658309995
 30
0.0
  0
VERTEX
  5
16D
330
169
100
AcDbEntity
  8
_U_5207_U_65AD_U_30D1_U_30
 62
     1
100
AcDbVertex
100
AcDb2dVertex
 10
-13.39963569012543
 20
48.98034820125054
 30
0.0
  0
VERTEX
  5
16E
330
169
100
AcDbEntity
  8
_U_5207_U_65AD_U_30D1_U_30
 62
     1
100
AcDbVertex
100
AcDb2dVertex
 10
-27.25061806038288
 20
48.98034820125054
 30
0.0
  0
SEQEND
  5
16F
330
169
100
AcDbEntity
  8
_U_5207_U_65AD_U_30D1_U_30
 62
     1
  0
ENDBLK
  5
168
330
165
100
AcDbEntity
  8
0
100
AcDbBlockEnd
  0
BLOCK
  5
172
330
170
100
AcDbEntity
  8
0
100
AcDbBlockBegin
  2
BLOCK_42
 70
     0
 10
0.0
 20
0.0
 30
0.0
  3
BLOCK_42
  1

  0
POLYLINE
  5
174
330
170
100
AcDbEntity
  8
_U_5207_U_65AD_U_30D1_U_30
 62
     1
100
AcDb2dPolyline
 66
     1
 10
0.0
 20
0.0
 30
0.0
  0
VERTEX
  5
175
330
174
100
AcDbEntity
  8
_U_5207_U_65AD_U_30D1_U_30
 62
     1
100
AcDbVertex
100
AcDb2dVertex
 10
-55.75263954430198
 20
31.72912467151466
 30
0.0
  0
VERTEX
  5
176
330
174
100
AcDbEntity
  8
_U_5207_U_65AD_U_30D1_U_30
 62
     1
100
AcDbVertex
100
AcDb2dVertex
 10
-55.75263954430198
 20
17.87814230125849
 30
0.0
  0
VERTEX
  5
177
330
174
100
AcDbEntity
  8
_U_5207_U_65AD_U_30D1_U_30
 62
     1
100
AcDbVertex
100
AcDb2dVertex
 10
-41.9016571740471
 20
17.87814230125849
 30
0.0
  0
VERTEX
  5
178
330
174
100
AcDbEntity
  8
_U_5207_U_65AD_U_30D1_U_30
 62
     1
100
AcDbVertex
100
AcDb2dVertex
 10
-41.9016571740471
 20
31.72912467151466
 30
0.0
  0
VERTEX
  5
179
330
174
100
AcDbEntity
  8
_U_5207_U_65AD_U_30D1_U_30
 62
     1
100
AcDbVertex
100
AcDb2dVertex
 10
-55.75263954430198
 20
31.72912467151466
 30
0.0
  0
SEQEND
  5
17A
330
174
100
AcDbEntity
  8
_U_5207_U_65AD_U_30D1_U_30
 62
     1
  0
ENDBLK
  5
173
330
170
100
AcDbEntity
  8
0
100
AcDbBlockEnd
  0
BLOCK
  5
17D
330
17B
100
AcDbEntity
  8
0
100
AcDbBlockBegin
  2
BLOCK_43
 70
     0
 10
0.0
 20
0.0
 30
0.0
  3
BLOCK_43
  1

  0
POLYLINE
  5
17F
330
17B
100
AcDbEntity
  8
_U_5207_U_65AD_U_30D1_U_30
 62
     1
100
AcDb2dPolyline
 66
     1
 10
0.0
 20
0.0
 30
0.0
  0
VERTEX
  5
180
330
17F
100
AcDbEntity
  8
_U_5207_U_65AD_U_30D1_U_30
 62
     1
100
AcDbVertex
100
AcDb2dVertex
 10
-32.72349649233221
 20
30.52958332080539
 30
0.0
  0
VERTEX
  5
181
330
17F
100
AcDbEntity
  8
_U_5207_U_65AD_U_30D1_U_30
 62
     1
100
AcDbVertex
100
AcDb2dVertex
 10
-36.29479977163468
 20
17.14692642808015
 30
0.0
  0
VERTEX
  5
182
330
17F
100
AcDbEntity
  8
_U_5207_U_65AD_U_30D1_U_30
 62
     1
100
AcDbVertex
100
AcDb2dVertex
 10
-22.91214287891201
 20
13.57562314877512
 30
0.0
  0
VERTEX
  5
183
330
17F
100
AcDbEntity
  8
_U_5207_U_65AD_U_30D1_U_30
 62
     1
100
AcDbVertex
100
AcDb2dVertex
 10
-19.34083959961083
 20
26.95828004150163
 30
0.0
  0
VERTEX
  5
184
330
17F
100
AcDbEntity
  8
_U_5207_U_65AD_U_30D1_U_30
 62
     1
100
AcDbVertex
100
AcDb2dVertex
 10
-32.72349649233221
 20
30.52958332080539
 30
0.0
  0
SEQEND
  5
185
330
17F
100
AcDbEntity
  8
_U_5207_U_65AD_U_30D1_U_30
 62
     1
  0
ENDBLK
  5
17E
330
17B
100
AcDbEntity
  8
0
100
AcDbBlockEnd
  0
BLOCK
  5
188
330
186
100
AcDbEntity
  8
0
100
AcDbBlockBegin
  2
BLOCK_44
 70
     0
 10
0.0
 20
0.0
 30
0.0
  3
BLOCK_44
  1

  0
POLYLINE
  5
18A
330
186
100
AcDbEntity
  8
_U_5207_U_65AD_U_30D1_U_30
 62
     1
100
AcDb2dPolyline
 66
     1
 10
0.0
 20
0.0
 30
0.0
  0
VERTEX
  5
18B
330
18A
100
AcDbEntity
  8
_U_5207_U_65AD_U_30D1_U_30
 62
     1
100
AcDbVertex
100
AcDb2dVertex
 10
-8.110904535076632
 20
27.76794627907221
 30
0.0
  0
VERTEX
  5
18C
330
18A
100
AcDbEntity
  8
_U_5207_U_65AD_U_30D1_U_30
 62
     1
100
AcDbVertex
100
AcDb2dVertex
 10
-15.02820918313119
 20
15.76792090297033
 30
0.0
  0
VERTEX
  5
18D
330
18A
100
AcDbEntity
  8
_U_5207_U_65AD_U_30D1_U_30
 62
     1
100
AcDbVertex
100
AcDb2dVertex
 10
-3.028183807021608
 20
8.850616254918345
 30
0.0
  0
VERTEX
  5
18E
330
18A
100
AcDbEntity
  8
_U_5207_U_65AD_U_30D1_U_30
 62
     1
100
AcDbVertex
100
AcDb2dVertex
 10
3.889120841030379
 20
20.85064163102792
 30
0.0
  0
VERTEX
  5
18F
330
18A
100
AcDbEntity
  8
_U_5207_U_65AD_U_30D1_U_30
 62
     1
100
AcDbVertex
100
AcDb2dVertex
 10
-8.110904535076632
 20
27.76794627907221
 30
0.0
  0
SEQEND
  5
190
330
18A
100
AcDbEntity
  8
_U_5207_U_65AD_U_30D1_U_30
 62
     1
  0
ENDBLK
  5
189
330
186
100
AcDbEntity
  8
0
100
AcDbBlockEnd
  0
BLOCK
  5
19C
330
19A
100
AcDbEntity
  8
0
100
AcDbBlockBegin
  2
BLOCK_45
 70
     0
 10
0.0
 20
0.0
 30
0.0
  3
BLOCK_45
  1

  0
SPLINE
  5
19E
330
19A
100
AcDbEntity
  8
_U_5207_U_65AD_U_30D1_U_30
 62
     1
100
AcDbSpline
210
0.0
220
0.0
230
1.0
 70
    11
 71
     3
 72
    20
 73
    16
 74
     0
 42
0.0000000001
 43
0.0000000001
 12
1.0
 22
0.0
 32
0.0
 13
1.0
 23
0.0
 33
0.0
 40
0.0
 40
0.0
 40
0.0
 40
0.0
 40
1.0
 40
1.0
 40
1.0
 40
2.0
 40
2.0
 40
2.0
 40
3.0
 40
3.0
 40
3.0
 40
4.0
 40
4.0
 40
4.0
 40
5.0
 40
5.0
 40
5.0
 40
5.0
 10
-22.92512687460452
 20
93.93314287169842
 30
0.0
 10
-22.92512687460452
 20
95.36908322090405
 30
0.0
 10
-21.76106722446074
 20
96.53314287106195
 30
0.0
 10
-20.32512687525415
 20
96.53314287106195
 30
0.0
 10
-18.8891865260543
 20
96.53314287106195
 30
0.0
 10
-17.72512687590442
 20
95.36908322090405
 30
0.0
 10
-17.72512687590442
 20
93.93314287169842
 30
0.0
 10
-17.72512687590442
 20
92.49720252251397
 30
0.0
 10
-18.8891865260543
 20
91.33314287236185
 30
0.0
 10
-20.32512687525415
 20
91.33314287236185
 30
0.0
 10
-21.76106722446074
 20
91.33314287236185
 30
0.0
 10
-22.92512687460452
 20
92.49720252251397
 30
0.0
 10
-22.92512687460452
 20
93.93314287169842
 30
0.0
 10
-22.92512687460452
 20
93.93314287169842
 30
0.0
 10
-22.92512687460452
 20
93.93314287169842
 30
0.0
 10
-22.92512687460452
 20
93.93314287169842
 30
0.0
  0
ENDBLK
  5
19D
330
19A
100
AcDbEntity
  8
0
100
AcDbBlockEnd
  0
BLOCK
  5
1A1
330
19F
100
AcDbEntity
  8
0
100
AcDbBlockBegin
  2
BLOCK_46
 70
     0
 10
0.0
 20
0.0
 30
0.0
  3
BLOCK_46
  1

  0
SPLINE
  5
1A3
330
19F
100
AcDbEntity
  8
_U_5207_U_65AD_U_30D1_U_30
 62
     1
100
AcDbSpline
210
0.0
220
0.0
230
1.0
 70
    11
 71
     3
 72
    20
 73
    16
 74
     0
 42
0.0000000001
 43
0.0000000001
 12
1.0
 22
0.0
 32
0.0
 13
1.0
 23
0.0
 33
0.0
 40
0.0
 40
0.0
 40
0.0
 40
0.0
 40
1.0
 40
1.0
 40
1.0
 40
2.0
 40
2.0
 40
2.0
 40
3.0
 40
3.0
 40
3.0
 40
4.0
 40
4.0
 40
4.0
 40
5.0
 40
5.0
 40
5.0
 40
5.0
 10
-129.2121918761639
 20
75.28239759544512
 30
0.0
 10
-130.6481322253695
 20
75.28239759544512
 30
0.0
 10
-131.8121918755277
 20
76.4464572455889
 30
0.0
 10
-131.8121918755277
 20
77.88239759479517
 30
0.0
 10
-131.8121918755277
 20
79.31833794399502
 30
0.0
 10
-130.6481322253695
 20
80.48239759414457
 30
0.0
 10
-129.2121918761639
 20
80.48239759414457
 30
0.0
 10
-127.7762515269798
 20
80.48239759414457
 30
0.0
 10
-126.6121918768273
 20
79.31833794399502
 30
0.0
 10
-126.6121918768273
 20
77.88239759479517
 30
0.0
 10
-126.6121918768273
 20
76.4464572455889
 30
0.0
 10
-127.7762515269798
 20
75.28239759544512
 30
0.0
 10
-129.2121918761639
 20
75.28239759544512
 30
0.0
 10
-129.2121918761639
 20
75.28239759544512
 30
0.0
 10
-129.2121918761639
 20
75.28239759544512
 30
0.0
 10
-129.2121918761639
 20
75.28239759544512
 30
0.0
  0
ENDBLK
  5
1A2
330
19F
100
AcDbEntity
  8
0
100
AcDbBlockEnd
  0
BLOCK
  5
1A6
330
1A4
100
AcDbEntity
  8
0
100
AcDbBlockBegin
  2
BLOCK_47
 70
     0
 10
0.0
 20
0.0
 30
0.0
  3
BLOCK_47
  1

  0
SPLINE
  5
1A8
330
1A4
100
AcDbEntity
  8
_U_5207_U_65AD_U_30D1_U_30
 62
     1
100
AcDbSpline
210
0.0
220
0.0
230
1.0
 70
    11
 71
     3
 72
    20
 73
    16
 74
     0
 42
0.0000000001
 43
0.0000000001
 12
1.0
 22
0.0
 32
0.0
 13
1.0
 23
0.0
 33
0.0
 40
0.0
 40
0.0
 40
0.0
 40
0.0
 40
1.0
 40
1.0
 40
1.0
 40
2.0
 40
2.0
 40
2.0
 40
3.0
 40
3.0
 40
3.0
 40
4.0
 40
4.0
 40
4.0
 40
5.0
 40
5.0
 40
5.0
 40
5.0
 10
7.527781053995216
 20
13.13638751853917
 30
0.0
 10
8.771341263039037
 20
12.41841628446365
 30
0.0
 10
9.197415311779856
 20
10.82828086783831
 30
0.0
 10
8.479444077703373
 20
9.584720658793211
 30
0.0
 10
7.7614728436301
 20
8.341160449755165
 30
0.0
 10
6.171337426996418
 20
7.915086401027501
 30
0.0
 10
4.927777217952597
 20
8.63305763510302
 30
0.0
 10
3.684217008927707
 20
9.351028869168914
 30
0.0
 10
3.258142960194268
 20
10.94116428579746
 30
0.0
 10
3.97611419426722
 20
12.18472449483551
 30
0.0
 10
4.694085428344665
 20
13.42828470387997
 30
0.0
 10
6.284220844970005
 20
13.85435875260443
 30
0.0
 10
7.527781053995216
 20
13.13638751853917
 30
0.0
 10
7.527781053995216
 20
13.13638751853917
 30
0.0
 10
7.527781053995216
 20
13.13638751853917
 30
0.0
 10
7.527781053995216
 20
13.13638751853917
 30
0.0
  0
ENDBLK
  5
1A7
330
1A4
100
AcDbEntity
  8
0
100
AcDbBlockEnd
  0
BLOCK
  5
1AB
330
1A9
100
AcDbEntity
  8
0
100
AcDbBlockBegin
  2
BLOCK_48
 70
     0
 10
0.0
 20
0.0
 30
0.0
  3
BLOCK_48
  1

  0
SPLINE
  5
1AD
330
1A9
100
AcDbEntity
  8
_U_5207_U_65AD_U_30D1_U_30
 62
     1
100
AcDbSpline
210
0.0
220
0.0
230
1.0
 70
    11
 71
     3
 72
    20
 73
    16
 74
     0
 42
0.0000000001
 43
0.0000000001
 12
1.0
 22
0.0
 32
0.0
 13
1.0
 23
0.0
 33
0.0
 40
0.0
 40
0.0
 40
0.0
 40
0.0
 40
1.0
 40
1.0
 40
1.0
 40
2.0
 40
2.0
 40
2.0
 40
3.0
 40
3.0
 40
3.0
 40
4.0
 40
4.0
 40
4.0
 40
5.0
 40
5.0
 40
5.0
 40
5.0
 10
-129.2217301188764
 20
37.2581415067619
 30
0.0
 10
-130.657670468082
 20
37.2581415067619
 30
0.0
 10
-131.8217301182399
 20
38.42220115690569
 30
0.0
 10
-131.8217301182399
 20
39.85814150611196
 30
0.0
 10
-131.8217301182399
 20
41.2940818553118
 30
0.0
 10
-130.657670468082
 20
42.45814150546136
 30
0.0
 10
-129.2217301188764
 20
42.45814150546136
 30
0.0
 10
-127.7857897696919
 20
42.45814150546136
 30
0.0
 10
-126.6217301195395
 20
41.2940818553118
 30
0.0
 10
-126.6217301195395
 20
39.85814150611196
 30
0.0
 10
-126.6217301195395
 20
38.42220115690569
 30
0.0
 10
-127.7857897696919
 20
37.2581415067619
 30
0.0
 10
-129.2217301188764
 20
37.2581415067619
 30
0.0
 10
-129.2217301188764
 20
37.2581415067619
 30
0.0
 10
-129.2217301188764
 20
37.2581415067619
 30
0.0
 10
-129.2217301188764
 20
37.2581415067619
 30
0.0
  0
ENDBLK
  5
1AC
330
1A9
100
AcDbEntity
  8
0
100
AcDbBlockEnd
  0
BLOCK
  5
1B4
330
1B2
100
AcDbEntity
  8
0
100
AcDbBlockBegin
  2
BLOCK_49
 70
     0
 10
0.0
 20
0.0
 30
0.0
  3
BLOCK_49
  1

  0
POLYLINE
  5
1B6
330
1B2
100
AcDbEntity
  8
_U_5207_U_65AD_U_30D1_U_30
 62
     1
100
AcDb2dPolyline
 66
     1
 10
0.0
 20
0.0
 30
0.0
  0
VERTEX
  5
1B7
330
1B6
100
AcDbEntity
  8
_U_5207_U_65AD_U_30D1_U_30
 62
     1
100
AcDbVertex
100
AcDb2dVertex
 10
-141.2987749053081
 20
70.38647601931142
 30
0.0
  0
VERTEX
  5
1B8
330
1B6
100
AcDbEntity
  8
_U_5207_U_65AD_U_30D1_U_30
 62
     1
100
AcDbVertex
100
AcDb2dVertex
 10
-141.2987749053081
 20
56.5354936490514
 30
0.0
  0
VERTEX
  5
1B9
330
1B6
100
AcDbEntity
  8
_U_5207_U_65AD_U_30D1_U_30
 62
     1
100
AcDbVertex
100
AcDb2dVertex
 10
-127.4477925350532
 20
56.5354936490514
 30
0.0
  0
VERTEX
  5
1BA
330
1B6
100
AcDbEntity
  8
_U_5207_U_65AD_U_30D1_U_30
 62
     1
100
AcDbVertex
100
AcDb2dVertex
 10
-127.4477925350532
 20
70.38647601931142
 30
0.0
  0
VERTEX
  5
1BB
330
1B6
100
AcDbEntity
  8
_U_5207_U_65AD_U_30D1_U_30
 62
     1
100
AcDbVertex
100
AcDb2dVertex
 10
-141.2987749053081
 20
70.38647601931142
 30
0.0
  0
SEQEND
  5
1BC
330
1B6
100
AcDbEntity
  8
_U_5207_U_65AD_U_30D1_U_30
 62
     1
  0
ENDBLK
  5
1B5
330
1B2
100
AcDbEntity
  8
0
100
AcDbBlockEnd
  0
BLOCK
  5
1C8
330
1C6
100
AcDbEntity
  8
0
100
AcDbBlockBegin
  2
BLOCK_50
 70
     0
 10
0.0
 20
0.0
 30
0.0
  3
BLOCK_50
  1

  0
INSERT
  5
1CB
330
1C6
100
AcDbEntity
  8
_U_5207_U_65AD_U_30D1_U_30
100
AcDbBlockReference
  2
BLOCK_51
 10
0.0
 20
0.0
 30
0.0
  0
INSERT
  5
1D0
330
1C6
100
AcDbEntity
  8
_U_5207_U_65AD_U_30D1_U_30
100
AcDbBlockReference
  2
BLOCK_52
 10
0.0
 20
0.0
 30
0.0
  0
INSERT
  5
1D5
330
1C6
100
AcDbEntity
  8
_U_5207_U_65AD_U_30D1_U_30
100
AcDbBlockReference
  2
BLOCK_53
 10
0.0
 20
0.0
 30
0.0
  0
INSERT
  5
1DA
330
1C6
100
AcDbEntity
  8
_U_5207_U_65AD_U_30D1_U_30
100
AcDbBlockReference
  2
BLOCK_54
 10
0.0
 20
0.0
 30
0.0
  0
INSERT
  5
1DF
330
1C6
100
AcDbEntity
  8
_U_5207_U_65AD_U_30D1_U_30
100
AcDbBlockReference
  2
BLOCK_55
 10
0.0
 20
0.0
 30
0.0
  0
INSERT
  5
1E4
330
1C6
100
AcDbEntity
  8
_U_5207_U_65AD_U_30D1_U_30
100
AcDbBlockReference
  2
BLOCK_56
 10
0.0
 20
0.0
 30
0.0
  0
INSERT
  5
1E9
330
1C6
100
AcDbEntity
  8
_U_5207_U_65AD_U_30D1_U_30
100
AcDbBlockReference
  2
BLOCK_57
 10
0.0
 20
0.0
 30
0.0
  0
INSERT
  5
1EE
330
1C6
100
AcDbEntity
  8
_U_5207_U_65AD_U_30D1_U_30
100
AcDbBlockReference
  2
BLOCK_58
 10
0.0
 20
0.0
 30
0.0
  0
INSERT
  5
1F3
330
1C6
100
AcDbEntity
  8
_U_5207_U_65AD_U_30D1_U_30
100
AcDbBlockReference
  2
BLOCK_59
 10
0.0
 20
0.0
 30
0.0
  0
INSERT
  5
1F8
330
1C6
100
AcDbEntity
  8
_U_5207_U_65AD_U_30D1_U_30
100
AcDbBlockReference
  2
BLOCK_60
 10
0.0
 20
0.0
 30
0.0
  0
SPLINE
  5
1FC
330
1C6
100
AcDbEntity
  8
_U_5207_U_65AD_U_30D1_U_30
 62
     1
100
AcDbSpline
210
0.0
220
0.0
230
1.0
 70
     8
 71
     3
 72
   236
 73
   232
 74
     0
 42
0.0000000001
 43
0.0000000001
 12
1.0
 22
0.0
 32
0.0
 13
1.0
 23
0.0
 33
0.0
 40
0.0
 40
0.0
 40
0.0
 40
0.0
 40
1.0
 40
1.0
 40
1.0
 40
2.0
 40
2.0
 40
2.0
 40
3.0
 40
3.0
 40
3.0
 40
4.0
 40
4.0
 40
4.0
 40
5.0
 40
5.0
 40
5.0
 40
6.0
 40
6.0
 40
6.0
 40
7.0
 40
7.0
 40
7.0
 40
8.0
 40
8.0
 40
8.0
 40
9.0
 40
9.0
 40
9.0
 40
10.0
 40
10.0
 40
10.0
 40
11.0
 40
11.0
 40
11.0
 40
12.0
 40
12.0
 40
12.0
 40
13.0
 40
13.0
 40
13.0
 40
14.0
 40
14.0
 40
14.0
 40
15.0
 40
15.0
 40
15.0
 40
16.0
 40
16.0
 40
16.0
 40
17.0
 40
17.0
 40
17.0
 40
18.0
 40
18.0
 40
18.0
 40
19.0
 40
19.0
 40
19.0
 40
20.0
 40
20.0
 40
20.0
 40
21.0
 40
21.0
 40
21.0
 40
22.0
 40
22.0
 40
22.0
 40
23.0
 40
23.0
 40
23.0
 40
24.0
 40
24.0
 40
24.0
 40
25.0
 40
25.0
 40
25.0
 40
26.0
 40
26.0
 40
26.0
 40
27.0
 40
27.0
 40
27.0
 40
28.0
 40
28.0
 40
28.0
 40
29.0
 40
29.0
 40
29.0
 40
30.0
 40
30.0
 40
30.0
 40
31.0
 40
31.0
 40
31.0
 40
32.0
 40
32.0
 40
32.0
 40
33.0
 40
33.0
 40
33.0
 40
34.0
 40
34.0
 40
34.0
 40
35.0
 40
35.0
 40
35.0
 40
36.0
 40
36.0
 40
36.0
 40
37.0
 40
37.0
 40
37.0
 40
38.0
 40
38.0
 40
38.0
 40
39.0
 40
39.0
 40
39.0
 40
40.0
 40
40.0
 40
40.0
 40
41.0
 40
41.0
 40
41.0
 40
42.0
 40
42.0
 40
42.0
 40
43.0
 40
43.0
 40
43.0
 40
44.0
 40
44.0
 40
44.0
 40
45.0
 40
45.0
 40
45.0
 40
46.0
 40
46.0
 40
46.0
 40
47.0
 40
47.0
 40
47.0
 40
48.0
 40
48.0
 40
48.0
 40
49.0
 40
49.0
 40
49.0
 40
50.0
 40
50.0
 40
50.0
 40
51.0
 40
51.0
 40
51.0
 40
52.0
 40
52.0
 40
52.0
 40
53.0
 40
53.0
 40
53.0
 40
54.0
 40
54.0
 40
54.0
 40
55.0
 40
55.0
 40
55.0
 40
56.0
 40
56.0
 40
56.0
 40
57.0
 40
57.0
 40
57.0
 40
58.0
 40
58.0
 40
58.0
 40
59.0
 40
59.0
 40
59.0
 40
60.0
 40
60.0
 40
60.0
 40
61.0
 40
61.0
 40
61.0
 40
62.0
 40
62.0
 40
62.0
 40
63.0
 40
63.0
 40
63.0
 40
64.0
 40
64.0
 40
64.0
 40
65.0
 40
65.0
 40
65.0
 40
66.0
 40
66.0
 40
66.0
 40
67.0
 40
67.0
 40
67.0
 40
68.0
 40
68.0
 40
68.0
 40
69.0
 40
69.0
 40
69.0
 40
70.0
 40
70.0
 40
70.0
 40
71.0
 40
71.0
 40
71.0
 40
72.0
 40
72.0
 40
72.0
 40
73.0
 40
73.0
 40
73.0
 40
74.0
 40
74.0
 40
74.0
 40
75.0
 40
75.0
 40
75.0
 40
76.0
 40
76.0
 40
76.0
 40
77.0
 40
77.0
 40
77.0
 40
77.0
 10
-141.2239180398981
 20
-62.28855356892478
 30
0.0
 10
-141.2239180398981
 20
-62.28855356892478
 30
0.0
 10
-138.4983592242859
 20
-67.0528144887726
 30
0.0
 10
-138.4983592242859
 20
-67.0528144887726
 30
0.0
 10
-137.6797899185609
 20
-68.48366886296829
 30
0.0
 10
-138.1655584661506
 20
-70.30681070389873
 30
0.0
 10
-139.5875529437608
 20
-71.1406761930949
 30
0.0
 10
-139.5875529437608
 20
-71.1406761930949
 30
0.0
 10
-141.2333597551529
 20
-72.10578648255941
 30
0.0
 10
-141.2333597551529
 20
-72.10578648255941
 30
0.0
 10
-143.6248266159179
 20
-73.48650000851559
 30
0.0
 10
-144.4441995135283
 20
-76.54445288857326
 30
0.0
 10
-143.0634806046114
 20
-78.9359143663763
 30
0.0
 10
-141.6827724616179
 20
-81.32737651705082
 30
0.0
 10
-138.6248195815596
 20
-82.14674941466126
 30
0.0
 10
-136.2333527207945
 20
-80.76603588870508
 30
0.0
 10
-136.2333527207945
 20
-80.76603588870508
 30
0.0
 10
-134.6319507131591
 20
-79.83145651167457
 30
0.0
 10
-134.6319507131591
 20
-79.83145651167457
 30
0.0
 10
-133.1900041996496
 20
-78.98993547705462
 30
0.0
 10
-131.338593703047
 20
-79.48392975852981
 30
0.0
 10
-130.5075394761068
 20
-80.93193399589195
 30
0.0
 10
-130.5075394761068
 20
-80.93193399589195
 30
0.0
 10
-127.9720783429114
 20
-85.34964627689781
 30
0.0
 10
-127.9720783429114
 20
-85.34964627689781
 30
0.0
 10
-127.6940699031928
 20
-85.74295893369174
 30
0.0
 10
-127.1498632416851
 20
-85.83643254960403
 30
0.0
 10
-126.756551762415
 20
-85.55842511919104
 30
0.0
 10
-126.756551762415
 20
-85.55842511919104
 30
0.0
 10
-112.0068814403354
 20
-77.06890071776779
 30
0.0
 10
-112.0068814403354
 20
-77.06890071776779
 30
0.0
 10
-111.9156510055151
 20
-77.03718161597972
 30
0.0
 10
-111.821944408315
 20
-77.01306729332724
 30
0.0
 10
-111.7267305818411
 20
-76.99680402030923
 30
0.0
 10
-111.7267305818411
 20
-76.99680402030923
 30
0.0
 10
-74.93286318288905
 20
-71.52742627780592
 30
0.0
 10
-74.93286318288905
 20
-71.52742627780592
 30
0.0
 10
-74.80361288961288
 20
-71.51430530867778
 30
0.0
 10
-74.68147348873514
 20
-71.46195869767432
 30
0.0
 10
-74.58283609861923
 20
-71.3774152470259
 30
0.0
 10
-74.58283609861923
 20
-71.3774152470259
 30
0.0
 10
-64.03209121738844
 20
-56.91816378372803
 30
0.0
 10
-64.03564397210792
 20
-56.92283619447991
 30
0.0
 10
-63.94186739640291
 20
-56.82906231026377
 30
0.0
 10
-63.81468416041597
 20
-56.7763792641537
 30
0.0
 10
-63.68206413311893
 20
-56.77637926415947
 30
0.0
 10
-63.68206413311893
 20
-56.77637926415947
 30
0.0
 10
-27.67951094404693
 20
-56.77637926577591
 30
0.0
 10
-27.67951094404693
 20
-56.77637926577591
 30
0.0
 10
-27.67951094404693
 20
-56.77637926577591
 30
0.0
 10
-25.67936924973631
 20
-56.77637926586575
 30
0.0
 10
-25.67936924973631
 20
-56.77637926586575
 30
0.0
 10
-25.67936924973631
 20
-56.77637926586575
 30
0.0
 10
-8.678193108644942
 20
-56.77637926662937
 30
0.0
 10
-8.678193108644942
 20
-56.77637926662937
 30
0.0
 10
-8.678193108644942
 20
-56.77637926662937
 30
0.0
 10
-8.667254414482658
 20
-56.77736004460498
 30
0.0
 10
-8.667254414482658
 20
-56.77736004460498
 30
0.0
 10
-8.391088293386742
 20
-56.77736004461782
 30
0.0
 10
-8.167206879231243
 20
-56.55349343362655
 30
0.0
 10
-8.16719005746343
 20
-56.27732596679021
 30
0.0
 10
-8.16719005746343
 20
-56.27732596679021
 30
0.0
 10
-8.155267470141084
 20
-55.46328758435818
 30
0.0
 10
-8.155267470141084
 20
-55.46328758435818
 30
0.0
 10
-8.15516586666496
 20
-53.80650617625052
 30
0.0
 10
-6.812049636505578
 20
-52.46347338211805
 30
0.0
 10
-5.155267555527697
 20
-52.46347338219249
 30
0.0
 10
-5.155267555527697
 20
-52.46347338219249
 30
0.0
 10
-3.272911287168517
 20
-52.46347338227719
 30
0.0
 10
-3.272911287168517
 20
-52.46347338227719
 30
0.0
 10
-0.3262888675798466
 20
-52.46347338240938
 30
0.0
 10
2.02500343052097
 20
-49.91456112041922
 30
0.0
 10
1.696352941539788
 20
-46.90134027553913
 30
0.0
 10
1.417656920260228
 20
-44.34612527097641
 30
0.0
 10
-0.8404473943396085
 20
-42.46347092587474
 30
0.0
 10
-3.410816082255115
 20
-42.46347202388725
 30
0.0
 10
-3.410816082255115
 20
-42.46347202388725
 30
0.0
 10
-5.157651197804387
 20
-42.46347277010238
 30
0.0
 10
-5.157651197804387
 20
-42.46347277010238
 30
0.0
 10
-6.814505612330053
 20
-42.46347277002794
 30
0.0
 10
-8.157651448658122
 20
-41.12032693357923
 30
0.0
 10
-8.157651448584007
 20
-39.46347285548867
 30
0.0
 10
-8.157651448584007
 20
-39.46347285548867
 30
0.0
 10
-8.159603415010764
 20
-33.38509591419122
 30
0.0
 10
-8.159603415010764
 20
-33.38509591419122
 30
0.0
 10
-8.159604104945679
 20
-33.38297241207975
 30
0.0
 10
-8.167069401094501
 20
-33.75909872300243
 30
0.0
 10
-8.15714388754991
 20
-33.37951409953478
 30
0.0
 10
-8.147218374011096
 20
-33.12651444335707
 30
0.0
 10
-7.881776547817521
 20
-32.94580706727641
 30
0.0
 10
-7.680396284787711
 20
-32.94385230545046
 30
0.0
 10
-7.479016021758222
 20
-32.94189754362386
 30
0.0
 10
-7.677184072717673
 20
-32.94187337311191
 30
0.0
 10
-7.675296829574611
 20
-32.94187360329834
 30
0.0
 10
-7.675296829574611
 20
-32.94187360329834
 30
0.0
 10
10.46117277961765
 20
-32.94490858084658
 30
0.0
 10
10.70348972765496
 20
-32.94405846244398
 30
0.0
 10
10.94580667569163
 20
-32.94320834404139
 30
0.0
 10
11.2379054325582
 20
-32.75367675368815
 30
0.0
 10
11.23790543257135
 20
-32.45959366455995
 30
0.0
 10
11.23790543258001
 20
-32.27055067859645
 30
0.0
 10
11.1975904559886
 20
-17.83754853270689
 30
0.0
 10
11.18972070478065
 20
-14.98749926561604
 30
0.0
 10
11.18886951165055
 20
-14.67923763279575
 30
0.0
 10
10.96173868060988
 20
-14.50169589445429
 30
0.0
 10
10.71269691307993
 20
-14.50247951799454
 30
0.0
 10
10.485015134108
 20
-14.50319593116455
 30
0.0
 10
0.6926941118989305
 20
-14.53151225497084
 30
0.0
 10
-1.100702447658881
 20
-14.53792062447409
 30
0.0
 10
-1.268950122840566
 20
-14.53852182629141
 30
0.0
 10
-1.472801163498041
 20
-14.12285976430999
 30
0.0
 10
-1.093285105161104
 20
-13.93575913764506
 30
0.0
 10
0.6237462110581206
 20
-13.09825366256315
 30
0.0
 10
1.789760102418069
 20
-11.30622891385004
 30
0.0
 10
1.714061967933302
 20
-9.250384009908347
 30
0.0
 10
1.614205345302676
 20
-6.538431725264189
 30
0.0
 10
-0.7169452194728666
 20
-4.439216085579141
 30
0.0
 10
-3.430735288595386
 20
-4.439216212314702
 30
0.0
 10
-3.430735288595386
 20
-4.439216212314702
 30
0.0
 10
-5.159632079085585
 20
-4.439216293056483
 30
0.0
 10
-5.159632079085585
 20
-4.439216293056483
 30
0.0
 10
-6.820660460748121
 20
-4.43921637062763
 30
0.0
 10
-8.167190055075668
 20
-3.092686839124023
 30
0.0
 10
-8.16719005500123
 20
-1.431658457461488
 30
0.0
 10
-8.16719005500123
 20
-1.431658457461488
 30
0.0
 10
-8.167190054983262
 20
-1.030967704066248
 30
0.0
 10
-8.167190054983262
 20
-1.030967704066248
 30
0.0
 10
-8.16719005497043
 20
-0.750632306532802
 30
0.0
 10
-8.394446796481823
 20
-0.5233755650018359
 30
0.0
 10
-8.674782194015911
 20
-0.523375564989002
 30
0.0
 10
-8.674782194015911
 20
-0.523375564989002
 30
0.0
 10
-8.672474382610941
 20
-0.5230637294548405
 30
0.0
 10
-8.672474382610941
 20
-0.5230637294548405
 30
0.0
 10
-8.672474382610941
 20
-0.5230637294548405
 30
0.0
 10
-25.66612274164365
 20
-0.5230637286918604
 30
0.0
 10
-25.66612274164365
 20
-0.5230637286918604
 30
0.0
 10
-25.66612274164365
 20
-0.5230637286918604
 30
0.0
 10
-27.66626443595427
 20
-0.5230637286020224
 30
0.0
 10
-27.66626443595427
 20
-0.5230637286020224
 30
0.0
 10
-27.66626443595427
 20
-0.5230637286020224
 30
0.0
 10
-45.65997893205081
 20
-0.5230637277941234
 30
0.0
 10
-45.65997893205081
 20
-0.5230637277941234
 30
0.0
 10
-45.9403173025127
 20
-0.5230637277819311
 30
0.0
 10
-46.16757645405799
 20
-0.2958045762167491
 30
0.0
 10
-46.16757645404515
 20
-0.0154662057545403
 30
0.0
 10
-46.16757645404515
 20
-0.0154662057545403
 30
0.0
 10
-46.16757645387734
 20
3.719689404473386
 30
0.0
 10
-46.16757645387734
 20
3.719689404473386
 30
0.0
 10
-46.16757645386483
 20
4.000024802007474
 30
0.0
 10
-46.39483319537591
 20
4.227281543539082
 30
0.0
 10
-46.67516859290999
 20
4.227281543551915
 30
0.0
 10
-46.67516859290999
 20
4.227281543551915
 30
0.0
 10
-64.66133310223087
 20
4.227281544359172
 30
0.0
 10
-64.66133310223087
 20
4.227281544359172
 30
0.0
 10
-64.94166849976496
 20
4.227281544372007
 30
0.0
 10
-65.16892524127636
 20
4.454538285903615
 30
0.0
 10
-65.16892524126352
 20
4.734873683437701
 30
0.0
 10
-65.16892524126352
 20
4.734873683437701
 30
0.0
 10
-65.16892524120802
 20
5.969842755594386
 30
0.0
 10
-65.16892524120802
 20
5.969842755594386
 30
0.0
 10
-65.16892524119551
 20
6.250184098984074
 30
0.0
 10
-65.3961868027747
 20
6.477445660583473
 30
0.0
 10
-65.67652814616406
 20
6.477445660595665
 30
0.0
 10
-65.67652814616406
 20
6.477445660595665
 30
0.0
 10
-82.66260835092571
 20
6.477445661358645
 30
0.0
 10
-82.66260835092571
 20
6.477445661358645
 30
0.0
 10
-82.94294374845947
 20
6.477445661370838
 30
0.0
 10
-83.17020048999109
 20
6.250188919859764
 30
0.0
 10
-83.1702004900036
 20
5.969853522325677
 30
0.0
 10
-83.1702004900036
 20
5.969853522325677
 30
0.0
 10
-83.1702004900591
 20
4.734873684245601
 30
0.0
 10
-83.1702004900591
 20
4.734873684245601
 30
0.0
 10
-83.17020049007162
 20
4.454538286711514
 30
0.0
 10
-83.39745723160323
 20
4.22728154520044
 30
0.0
 10
-83.67779262913731
 20
4.227281545213274
 30
0.0
 10
-83.67779262913731
 20
4.227281545213274
 30
0.0
 10
-101.6639571384582
 20
4.227281546020532
 30
0.0
 10
-101.6639571384582
 20
4.227281546020532
 30
0.0
 10
-101.9442925359929
 20
4.227281546033366
 30
0.0
 10
-102.1715492775236
 20
4.000024804522292
 30
0.0
 10
-102.1715492775364
 20
3.719689406988205
 30
0.0
 10
-102.1715492775364
 20
3.719689406988205
 30
0.0
 10
-102.1715492776031
 20
2.234853175980889
 30
0.0
 10
-102.1715492776031
 20
2.234853175980889
 30
0.0
 10
-102.171549277616
 20
1.954312432575618
 30
0.0
 10
-102.3990618284298
 20
1.72693646577014
 30
0.0
 10
-102.6796025212506
 20
1.727104935062305
 30
0.0
 10
-102.6796025212506
 20
1.727104935062305
 30
0.0
 10
-104.161451350623
 20
1.727994809611888
 30
0.0
 10
-104.161451350623
 20
1.727994809611888
 30
0.0
 10
-105.8217761281939
 20
1.728991861898435
 30
0.0
 10
-107.1672067104313
 20
3.07523080887572
 30
0.0
 10
-107.1672065020113
 20
4.735555885819759
 30
0.0
 10
-107.1672065020113
 20
4.735555885819759
 30
0.0
 10
-107.1672062837929
 20
6.473934250287648
 30
0.0
 10
-107.1672062837929
 20
6.473934250287648
 30
0.0
 10
-107.1672059611338
 20
9.044312575614724
 30
0.0
 10
-109.0498726905193
 20
11.302427836311
 30
0.0
 10
-111.6050990143698
 20
11.58110896091602
 30
0.0
 10
-114.618315211812
 20
11.90973992042863
 30
0.0
 10
-117.1672101825423
 20
9.558452271090516
 30
0.0
 10
-117.1672101826745
 20
6.611836684602625
 30
0.0
 10
-117.1672101826745
 20
6.611836684602625
 30
0.0
 10
-117.1672101827589
 20
4.735040100345327
 30
0.0
 10
-117.1672101827589
 20
4.735040100345327
 30
0.0
 10
-117.1672101828333
 20
3.074919049509309
 30
0.0
 10
-118.5123236241255
 20
1.728765419920426
 30
0.0
 10
-120.1724441789634
 20
1.727482129718887
 30
0.0
 10
-120.1724441789634
 20
1.727482129718887
 30
0.0
 10
-120.6656661743302
 20
1.727100864061996
 30
0.0
 10
-120.6656661743302
 20
1.727100864061996
 30
0.0
 10
-120.9454576402722
 20
1.726884582391076
 30
0.0
 10
-121.1736999117777
 20
1.497788270033437
 30
0.0
 10
-121.1728712221198
 20
1.217997947710404
 30
0.0
 10
-121.1728712221198
 20
1.217997947710404
 30
0.0
 10
-121.1692484171059
 20
-0.0051689796604541
 30
0.0
 10
-121.1692484171059
 20
-0.0051689796604541
 30
0.0
 10
-121.1976596889477
 20
-0.2732943017221307
 30
0.0
 10
-121.4034826123543
 20
-0.4884351318053036
 30
0.0
 10
-121.6700899392206
 20
-0.528694302315273
 30
0.0
 10
-121.6700899392206
 20
-0.528694302315273
 30
0.0
 10
-141.4139317890902
 20
-0.5286943014290867
 30
0.0
 10
-141.4139317890902
 20
-0.5286943014290867
 30
0.0
 10
-141.6942670056453
 20
-0.5286943014162527
 30
0.0
 10
-141.9215236722123
 20
-0.7559507604828521
 30
0.0
 10
-141.9215239281626
 20
-1.036285977037918
 30
0.0
 10
-141.9215239281626
 20
-1.036285977037918
 30
0.0
 10
-141.9215777535322
 20
-59.9895136156966
 30
0.0
 10
-141.9215777535322
 20
-59.9895136156966
 30
0.0
 10
-141.8782556778417
 20
-60.80282529830227
 30
0.0
 10
-141.6326526675486
 20
-61.59246809834156
 30
0.0
 10
-141.2070111203774
 20
-62.28686477414415
 30
0.0
  0
ENDBLK
  5
1C9
330
1C6
100
AcDbEntity
  8
0
100
AcDbBlockEnd
  0
BLOCK
  5
1CC
330
1CA
100
AcDbEntity
  8
0
100
AcDbBlockBegin
  2
BLOCK_51
 70
     0
 10
0.0
 20
0.0
 30
0.0
  3
BLOCK_51
  1

  0
SPLINE
  5
1CE
330
1CA
100
AcDbEntity
  8
_U_5207_U_65AD_U_30D1_U_30
 62
     1
100
AcDbSpline
210
0.0
220
0.0
230
1.0
 70
    11
 71
     3
 72
    20
 73
    16
 74
     0
 42
0.0000000001
 43
0.0000000001
 12
1.0
 22
0.0
 32
0.0
 13
1.0
 23
0.0
 33
0.0
 40
0.0
 40
0.0
 40
0.0
 40
0.0
 40
1.0
 40
1.0
 40
1.0
 40
2.0
 40
2.0
 40
2.0
 40
3.0
 40
3.0
 40
3.0
 40
4.0
 40
4.0
 40
4.0
 40
5.0
 40
5.0
 40
5.0
 40
5.0
 10
-109.5672067174981
 20
6.611840647459961
 30
0.0
 10
-109.5672067174336
 20
8.047780996665585
 30
0.0
 10
-110.7312663675254
 20
9.211840646875466
 30
0.0
 10
-112.1672067167317
 20
9.211840646940276
 30
0.0
 10
-113.6031470659319
 20
9.211840647004447
 30
0.0
 10
-114.7672067161337
 20
8.047780996899164
 30
0.0
 10
-114.7672067161982
 20
6.61184064769354
 30
0.0
 10
-114.7672067162627
 20
5.175900298509092
 30
0.0
 10
-113.6031470661654
 20
4.011840648304346
 30
0.0
 10
-112.1672067169649
 20
4.011840648240176
 30
0.0
 10
-110.7312663677593
 20
4.011840648175363
 30
0.0
 10
-109.5672067175626
 20
5.175900298275513
 30
0.0
 10
-109.5672067174981
 20
6.611840647459961
 30
0.0
 10
-109.5672067174981
 20
6.611840647459961
 30
0.0
 10
-109.5672067174981
 20
6.611840647459961
 30
0.0
 10
-109.5672067174981
 20
6.611840647459961
 30
0.0
  0
ENDBLK
  5
1CD
330
1CA
100
AcDbEntity
  8
0
100
AcDbBlockEnd
  0
BLOCK
  5
1D1
330
1CF
100
AcDbEntity
  8
0
100
AcDbBlockBegin
  2
BLOCK_52
 70
     0
 10
0.0
 20
0.0
 30
0.0
  3
BLOCK_52
  1

  0
SPLINE
  5
1D3
330
1CF
100
AcDbEntity
  8
_U_5207_U_65AD_U_30D1_U_30
 62
     1
100
AcDbSpline
210
0.0
220
0.0
230
1.0
 70
    11
 71
     3
 72
    20
 73
    16
 74
     0
 42
0.0000000001
 43
0.0000000001
 12
1.0
 22
0.0
 32
0.0
 13
1.0
 23
0.0
 33
0.0
 40
0.0
 40
0.0
 40
0.0
 40
0.0
 40
1.0
 40
1.0
 40
1.0
 40
2.0
 40
2.0
 40
2.0
 40
3.0
 40
3.0
 40
3.0
 40
4.0
 40
4.0
 40
4.0
 40
5.0
 40
5.0
 40
5.0
 40
5.0
 10
-3.280141716775843
 20
-12.03890463356502
 30
0.0
 10
-1.844201367570218
 20
-12.03890463362983
 30
0.0
 10
-0.6801417173593762
 20
-10.87484498353803
 30
0.0
 10
-0.6801417172948855
 20
-9.43890463433176
 30
0.0
 10
-0.6801417172303947
 20
-8.00296428513191
 30
0.0
 10
-1.84420136733664
 20
-6.838904634930373
 30
0.0
 10
-3.280141716542264
 20
-6.838904634865561
 30
0.0
 10
-4.716082065726071
 20
-6.838904634801391
 30
0.0
 10
-5.880141715930496
 20
-8.002964284898331
 30
0.0
 10
-5.880141715994987
 20
-9.438904634098181
 30
0.0
 10
-5.880141716059478
 20
-10.87484498330445
 30
0.0
 10
-4.716082065959649
 20
-12.03890463350085
 30
0.0
 10
-3.280141716775843
 20
-12.03890463356502
 30
0.0
 10
-3.280141716775843
 20
-12.03890463356502
 30
0.0
 10
-3.280141716775843
 20
-12.03890463356502
 30
0.0
 10
-3.280141716775843
 20
-12.03890463356502
 30
0.0
  0
ENDBLK
  5
1D2
330
1CF
100
AcDbEntity
  8
0
100
AcDbBlockEnd
  0
BLOCK
  5
1D6
330
1D4
100
AcDbEntity
  8
0
100
AcDbBlockBegin
  2
BLOCK_53
 70
     0
 10
0.0
 20
0.0
 30
0.0
  3
BLOCK_53
  1

  0
SPLINE
  5
1D8
330
1D4
100
AcDbEntity
  8
_U_5207_U_65AD_U_30D1_U_30
 62
     1
100
AcDbSpline
210
0.0
220
0.0
230
1.0
 70
    11
 71
     3
 72
    20
 73
    16
 74
     0
 42
0.0000000001
 43
0.0000000001
 12
1.0
 22
0.0
 32
0.0
 13
1.0
 23
0.0
 33
0.0
 40
0.0
 40
0.0
 40
0.0
 40
0.0
 40
1.0
 40
1.0
 40
1.0
 40
2.0
 40
2.0
 40
2.0
 40
3.0
 40
3.0
 40
3.0
 40
4.0
 40
4.0
 40
4.0
 40
5.0
 40
5.0
 40
5.0
 40
5.0
 10
-140.0201146497251
 20
-74.18491470433183
 30
0.0
 10
-141.2636748588019
 20
-74.90288593835152
 30
0.0
 10
-141.6897489076143
 20
-76.4930213549576
 30
0.0
 10
-140.9717776735927
 20
-77.73658156403545
 30
0.0
 10
-140.2538064395765
 20
-78.98014177310557
 30
0.0
 10
-138.6636710229611
 20
-79.40621582190447
 30
0.0
 10
-137.4201108138859
 20
-78.68824458788477
 30
0.0
 10
-136.1765506048282
 20
-77.97027335387406
 30
0.0
 10
-135.7504765560236
 20
-76.38013793726542
 30
0.0
 10
-136.4684477900397
 20
-75.13657772819528
 30
0.0
 10
-137.1864190240613
 20
-73.89301751911873
 30
0.0
 10
-138.7765544406678
 20
-73.4669434703224
 30
0.0
 10
-140.0201146497251
 20
-74.18491470433183
 30
0.0
 10
-140.0201146497251
 20
-74.18491470433183
 30
0.0
 10
-140.0201146497251
 20
-74.18491470433183
 30
0.0
 10
-140.0201146497251
 20
-74.18491470433183
 30
0.0
  0
ENDBLK
  5
1D7
330
1D4
100
AcDbEntity
  8
0
100
AcDbBlockEnd
  0
BLOCK
  5
1DB
330
1D9
100
AcDbEntity
  8
0
100
AcDbBlockBegin
  2
BLOCK_54
 70
     0
 10
0.0
 20
0.0
 30
0.0
  3
BLOCK_54
  1

  0
SPLINE
  5
1DD
330
1D9
100
AcDbEntity
  8
_U_5207_U_65AD_U_30D1_U_30
 62
     1
100
AcDbSpline
210
0.0
220
0.0
230
1.0
 70
    11
 71
     3
 72
    20
 73
    16
 74
     0
 42
0.0000000001
 43
0.0000000001
 12
1.0
 22
0.0
 32
0.0
 13
1.0
 23
0.0
 33
0.0
 40
0.0
 40
0.0
 40
0.0
 40
0.0
 40
1.0
 40
1.0
 40
1.0
 40
2.0
 40
2.0
 40
2.0
 40
3.0
 40
3.0
 40
3.0
 40
4.0
 40
4.0
 40
4.0
 40
5.0
 40
5.0
 40
5.0
 40
5.0
 10
-68.80886720484952
 20
-55.27030875808379
 30
0.0
 10
-68.80886720482225
 20
-54.66275244280416
 30
0.0
 10
-69.30138891170816
 20
-54.17023073586852
 30
0.0
 10
-69.90894522698811
 20
-54.17023073584157
 30
0.0
 10
-70.51650154226387
 20
-54.17023073581397
 30
0.0
 10
-71.0090232491963
 20
-54.66275244270534
 30
0.0
 10
-71.00902324922357
 20
-55.27030875798496
 30
0.0
 10
-71.00902324925086
 20
-55.8778650732633
 30
0.0
 10
-70.51650154236238
 20
-56.37038678018675
 30
0.0
 10
-69.9089452270866
 20
-56.37038678021435
 30
0.0
 10
-69.30138891180698
 20
-56.3703867802413
 30
0.0
 10
-68.80886720487679
 20
-55.87786507336212
 30
0.0
 10
-68.80886720484952
 20
-55.27030875808379
 30
0.0
 10
-68.80886720484952
 20
-55.27030875808379
 30
0.0
 10
-68.80886720484952
 20
-55.27030875808379
 30
0.0
 10
-68.80886720484952
 20
-55.27030875808379
 30
0.0
  0
ENDBLK
  5
1DC
330
1D9
100
AcDbEntity
  8
0
100
AcDbBlockEnd
  0
BLOCK
  5
1E0
330
1DE
100
AcDbEntity
  8
0
100
AcDbBlockBegin
  2
BLOCK_55
 70
     0
 10
0.0
 20
0.0
 30
0.0
  3
BLOCK_55
  1

  0
SPLINE
  5
1E2
330
1DE
100
AcDbEntity
  8
_U_5207_U_65AD_U_30D1_U_30
 62
     1
100
AcDbSpline
210
0.0
220
0.0
230
1.0
 70
    11
 71
     3
 72
    20
 73
    16
 74
     0
 42
0.0000000001
 43
0.0000000001
 12
1.0
 22
0.0
 32
0.0
 13
1.0
 23
0.0
 33
0.0
 40
0.0
 40
0.0
 40
0.0
 40
0.0
 40
1.0
 40
1.0
 40
1.0
 40
2.0
 40
2.0
 40
2.0
 40
3.0
 40
3.0
 40
3.0
 40
4.0
 40
4.0
 40
4.0
 40
5.0
 40
5.0
 40
5.0
 40
5.0
 10
-101.5871482435328
 20
-15.52303545811951
 30
0.0
 10
-101.5871482435055
 20
-14.91547914283989
 30
0.0
 10
-102.0796699503914
 20
-14.42295743591644
 30
0.0
 10
-102.6872262656707
 20
-14.42295743588884
 30
0.0
 10
-103.2947825809468
 20
-14.42295743586189
 30
0.0
 10
-103.787304287877
 20
-14.91547914274106
 30
0.0
 10
-103.7873042879043
 20
-15.52303545802068
 30
0.0
 10
-103.7873042879316
 20
-16.13059177329902
 30
0.0
 10
-103.2947825810453
 20
-16.62311348023466
 30
0.0
 10
-102.6872262657699
 20
-16.62311348026162
 30
0.0
 10
-102.0796699504903
 20
-16.62311348028921
 30
0.0
 10
-101.5871482435601
 20
-16.13059177339785
 30
0.0
 10
-101.5871482435328
 20
-15.52303545811951
 30
0.0
 10
-101.5871482435328
 20
-15.52303545811951
 30
0.0
 10
-101.5871482435328
 20
-15.52303545811951
 30
0.0
 10
-101.5871482435328
 20
-15.52303545811951
 30
0.0
  0
ENDBLK
  5
1E1
330
1DE
100
AcDbEntity
  8
0
100
AcDbBlockEnd
  0
BLOCK
  5
1E5
330
1E3
100
AcDbEntity
  8
0
100
AcDbBlockBegin
  2
BLOCK_56
 70
     0
 10
0.0
 20
0.0
 30
0.0
  3
BLOCK_56
  1

  0
SPLINE
  5
1E7
330
1E3
100
AcDbEntity
  8
_U_5207_U_65AD_U_30D1_U_30
 62
     1
100
AcDbSpline
210
0.0
220
0.0
230
1.0
 70
    11
 71
     3
 72
    20
 73
    16
 74
     0
 42
0.0000000001
 43
0.0000000001
 12
1.0
 22
0.0
 32
0.0
 13
1.0
 23
0.0
 33
0.0
 40
0.0
 40
0.0
 40
0.0
 40
0.0
 40
1.0
 40
1.0
 40
1.0
 40
2.0
 40
2.0
 40
2.0
 40
3.0
 40
3.0
 40
3.0
 40
4.0
 40
4.0
 40
4.0
 40
5.0
 40
5.0
 40
5.0
 40
5.0
 10
-25.56532583642651
 20
-19.14543418050927
 30
0.0
 10
-25.56532583639924
 20
-18.53787786523349
 30
0.0
 10
-26.05784754328804
 20
-18.04535615829849
 30
0.0
 10
-26.66540385856381
 20
-18.0453561582709
 30
0.0
 10
-27.27296017384343
 20
-18.04535615824395
 30
0.0
 10
-27.76548188077266
 20
-18.53787786513467
 30
0.0
 10
-27.76548188079993
 20
-19.14543418041044
 30
0.0
 10
-27.7654818808272
 20
-19.75299049568493
 30
0.0
 10
-27.27296017394193
 20
-20.24551220261672
 30
0.0
 10
-26.66540385866231
 20
-20.24551220264367
 30
0.0
 10
-26.05784754338654
 20
-20.24551220267127
 30
0.0
 10
-25.56532583645378
 20
-19.75299049578375
 30
0.0
 10
-25.56532583642651
 20
-19.14543418050927
 30
0.0
 10
-25.56532583642651
 20
-19.14543418050927
 30
0.0
 10
-25.56532583642651
 20
-19.14543418050927
 30
0.0
 10
-25.56532583642651
 20
-19.14543418050927
 30
0.0
  0
ENDBLK
  5
1E6
330
1E3
100
AcDbEntity
  8
0
100
AcDbBlockEnd
  0
BLOCK
  5
1EA
330
1E8
100
AcDbEntity
  8
0
100
AcDbBlockBegin
  2
BLOCK_57
 70
     0
 10
0.0
 20
0.0
 30
0.0
  3
BLOCK_57
  1

  0
SPLINE
  5
1EC
330
1E8
100
AcDbEntity
  8
_U_5207_U_65AD_U_30D1_U_30
 62
     1
100
AcDbSpline
210
0.0
220
0.0
230
1.0
 70
    11
 71
     3
 72
    20
 73
    16
 74
     0
 42
0.0000000001
 43
0.0000000001
 12
1.0
 22
0.0
 32
0.0
 13
1.0
 23
0.0
 33
0.0
 40
0.0
 40
0.0
 40
0.0
 40
0.0
 40
1.0
 40
1.0
 40
1.0
 40
2.0
 40
2.0
 40
2.0
 40
3.0
 40
3.0
 40
3.0
 40
4.0
 40
4.0
 40
4.0
 40
5.0
 40
5.0
 40
5.0
 40
5.0
 10
-25.55653042824874
 20
-38.16057980175749
 30
0.0
 10
-25.55653042822147
 20
-37.55302348647915
 30
0.0
 10
-26.04905213510738
 20
-37.06050177954735
 30
0.0
 10
-26.65660845038636
 20
-37.0605017795204
 30
0.0
 10
-27.26416476566085
 20
-37.06050177949281
 30
0.0
 10
-27.75668647259553
 20
-37.55302348638033
 30
0.0
 10
-27.7566864726228
 20
-38.16057980165866
 30
0.0
 10
-27.75668647265007
 20
-38.76813611693829
 30
0.0
 10
-27.26416476575967
 20
-39.26065782386559
 30
0.0
 10
-26.65660845048518
 20
-39.26065782389318
 30
0.0
 10
-26.0490521352062
 20
-39.26065782392013
 30
0.0
 10
-25.55653042827601
 20
-38.7681361170371
 30
0.0
 10
-25.55653042824874
 20
-38.16057980175749
 30
0.0
 10
-25.55653042824874
 20
-38.16057980175749
 30
0.0
 10
-25.55653042824874
 20
-38.16057980175749
 30
0.0
 10
-25.55653042824874
 20
-38.16057980175749
 30
0.0
  0
ENDBLK
  5
1EB
330
1E8
100
AcDbEntity
  8
0
100
AcDbBlockEnd
  0
BLOCK
  5
1EF
330
1ED
100
AcDbEntity
  8
0
100
AcDbBlockBegin
  2
BLOCK_58
 70
     0
 10
0.0
 20
0.0
 30
0.0
  3
BLOCK_58
  1

  0
SPLINE
  5
1F1
330
1ED
100
AcDbEntity
  8
_U_5207_U_65AD_U_30D1_U_30
 62
     1
100
AcDbSpline
210
0.0
220
0.0
230
1.0
 70
    11
 71
     3
 72
    20
 73
    16
 74
     0
 42
0.0000000001
 43
0.0000000001
 12
1.0
 22
0.0
 32
0.0
 13
1.0
 23
0.0
 33
0.0
 40
0.0
 40
0.0
 40
0.0
 40
0.0
 40
1.0
 40
1.0
 40
1.0
 40
2.0
 40
2.0
 40
2.0
 40
3.0
 40
3.0
 40
3.0
 40
4.0
 40
4.0
 40
4.0
 40
5.0
 40
5.0
 40
5.0
 40
5.0
 10
-115.3288460540553
 20
-63.02481838045707
 30
0.0
 10
-115.328846054028
 20
-62.41726206517745
 30
0.0
 10
-115.8213677609126
 20
-61.92474035824181
 30
0.0
 10
-116.4289240761923
 20
-61.92474035821486
 30
0.0
 10
-117.0364803914693
 20
-61.92474035818726
 30
0.0
 10
-117.5290020984008
 20
-62.41726206507862
 30
0.0
 10
-117.5290020984281
 20
-63.02481838035825
 30
0.0
 10
-117.5290020984553
 20
-63.63237469562888
 30
0.0
 10
-117.0364803915678
 20
-64.12489640256132
 30
0.0
 10
-116.4289240762908
 20
-64.12489640258892
 30
0.0
 10
-115.8213677610115
 20
-64.12489640261586
 30
0.0
 10
-115.3288460540825
 20
-63.63237469572771
 30
0.0
 10
-115.3288460540553
 20
-63.02481838045707
 30
0.0
 10
-115.3288460540553
 20
-63.02481838045707
 30
0.0
 10
-115.3288460540553
 20
-63.02481838045707
 30
0.0
 10
-115.3288460540553
 20
-63.02481838045707
 30
0.0
  0
ENDBLK
  5
1F0
330
1ED
100
AcDbEntity
  8
0
100
AcDbBlockEnd
  0
BLOCK
  5
1F4
330
1F2
100
AcDbEntity
  8
0
100
AcDbBlockBegin
  2
BLOCK_59
 70
     0
 10
0.0
 20
0.0
 30
0.0
  3
BLOCK_59
  1

  0
SPLINE
  5
1F6
330
1F2
100
AcDbEntity
  8
_U_5207_U_65AD_U_30D1_U_30
 62
     1
100
AcDbSpline
210
0.0
220
0.0
230
1.0
 70
    11
 71
     3
 72
    20
 73
    16
 74
     0
 42
0.0000000001
 43
0.0000000001
 12
1.0
 22
0.0
 32
0.0
 13
1.0
 23
0.0
 33
0.0
 40
0.0
 40
0.0
 40
0.0
 40
0.0
 40
1.0
 40
1.0
 40
1.0
 40
2.0
 40
2.0
 40
2.0
 40
3.0
 40
3.0
 40
3.0
 40
4.0
 40
4.0
 40
4.0
 40
5.0
 40
5.0
 40
5.0
 40
5.0
 10
-25.56018014772584
 20
-38.16159371087909
 30
0.0
 10
-25.56018014769857
 20
-37.5540373956046
 30
0.0
 10
-26.05270185458705
 20
-37.06151568866511
 30
0.0
 10
-26.66025816985897
 20
-37.06151568863816
 30
0.0
 10
-27.26781448513987
 20
-37.06151568861057
 30
0.0
 10
-27.76033619207134
 20
-37.55403739550578
 30
0.0
 10
-27.76033619209862
 20
-38.16159371078027
 30
0.0
 10
-27.76033619212589
 20
-38.76915002605989
 30
0.0
 10
-27.26781448523869
 20
-39.26167173298719
 30
0.0
 10
-26.66025816995779
 20
-39.26167173301479
 30
0.0
 10
-26.05270185468587
 20
-39.26167173304174
 30
0.0
 10
-25.56018014775311
 20
-38.76915002615871
 30
0.0
 10
-25.56018014772584
 20
-38.16159371087909
 30
0.0
 10
-25.56018014772584
 20
-38.16159371087909
 30
0.0
 10
-25.56018014772584
 20
-38.16159371087909
 30
0.0
 10
-25.56018014772584
 20
-38.16159371087909
 30
0.0
  0
ENDBLK
  5
1F5
330
1F2
100
AcDbEntity
  8
0
100
AcDbBlockEnd
  0
BLOCK
  5
1F9
330
1F7
100
AcDbEntity
  8
0
100
AcDbBlockBegin
  2
BLOCK_60
 70
     0
 10
0.0
 20
0.0
 30
0.0
  3
BLOCK_60
  1

  0
SPLINE
  5
1FB
330
1F7
100
AcDbEntity
  8
_U_5207_U_65AD_U_30D1_U_30
 62
     1
100
AcDbSpline
210
0.0
220
0.0
230
1.0
 70
    11
 71
     3
 72
    20
 73
    16
 74
     0
 42
0.0000000001
 43
0.0000000001
 12
1.0
 22
0.0
 32
0.0
 13
1.0
 23
0.0
 33
0.0
 40
0.0
 40
0.0
 40
0.0
 40
0.0
 40
1.0
 40
1.0
 40
1.0
 40
2.0
 40
2.0
 40
2.0
 40
3.0
 40
3.0
 40
3.0
 40
4.0
 40
4.0
 40
4.0
 40
5.0
 40
5.0
 40
5.0
 40
5.0
 10
-3.270603475770607
 20
-50.06316072224888
 30
0.0
 10
-1.834663126564983
 20
-50.06316072231369
 30
0.0
 10
-0.6706034763547822
 20
-48.89910107222188
 30
0.0
 10
-0.6706034762902915
 20
-47.46316072301562
 30
0.0
 10
-0.6706034762258007
 20
-46.02722037381577
 30
0.0
 10
-1.834663126331404
 20
-44.86316072361423
 30
0.0
 10
-3.270603475537029
 20
-44.86316072354942
 30
0.0
 10
-4.706543824721477
 20
-44.86316072348525
 30
0.0
 10
-5.870603474925902
 20
-46.02722037358219
 30
0.0
 10
-5.870603474990393
 20
-47.46316072278204
 30
0.0
 10
-5.870603475054883
 20
-48.89910107198831
 30
0.0
 10
-4.706543824955055
 20
-50.06316072218471
 30
0.0
 10
-3.270603475770607
 20
-50.06316072224888
 30
0.0
 10
-3.270603475770607
 20
-50.06316072224888
 30
0.0
 10
-3.270603475770607
 20
-50.06316072224888
 30
0.0
 10
-3.270603475770607
 20
-50.06316072224888
 30
0.0
  0
ENDBLK
  5
1FA
330
1F7
100
AcDbEntity
  8
0
100
AcDbBlockEnd
  0
BLOCK
  5
1FF
330
1FD
100
AcDbEntity
  8
0
100
AcDbBlockBegin
  2
BLOCK_61
 70
     0
 10
0.0
 20
0.0
 30
0.0
  3
BLOCK_61
  1

  0
INSERT
  5
202
330
1FD
100
AcDbEntity
  8
_U_5207_U_65AD_U_30D1_U_30
100
AcDbBlockReference
  2
BLOCK_62
 10
0.0
 20
0.0
 30
0.0
  0
INSERT
  5
207
330
1FD
100
AcDbEntity
  8
_U_5207_U_65AD_U_30D1_U_30
100
AcDbBlockReference
  2
BLOCK_63
 10
0.0
 20
0.0
 30
0.0
  0
ENDBLK
  5
200
330
1FD
100
AcDbEntity
  8
0
100
AcDbBlockEnd
  0
BLOCK
  5
203
330
201
100
AcDbEntity
  8
0
100
AcDbBlockBegin
  2
BLOCK_62
 70
     0
 10
0.0
 20
0.0
 30
0.0
  3
BLOCK_62
  1

  0
SPLINE
  5
205
330
201
100
AcDbEntity
  8
_U_5207_U_65AD_U_30D1_U_30
 62
     1
100
AcDbSpline
210
0.0
220
0.0
230
1.0
 70
    11
 71
     3
 72
    20
 73
    16
 74
     0
 42
0.0000000001
 43
0.0000000001
 12
1.0
 22
0.0
 32
0.0
 13
1.0
 23
0.0
 33
0.0
 40
0.0
 40
0.0
 40
0.0
 40
0.0
 40
1.0
 40
1.0
 40
1.0
 40
2.0
 40
2.0
 40
2.0
 40
3.0
 40
3.0
 40
3.0
 40
4.0
 40
4.0
 40
4.0
 40
5.0
 40
5.0
 40
5.0
 40
5.0
 10
-59.50172816833624
 20
-76.77041904462331
 30
0.0
 10
-59.50172893820343
 20
-75.32215994235872
 30
0.0
 10
-58.31761159455389
 20
-74.15046578049402
 30
0.0
 10
-56.86470891330693
 20
-74.17068013390238
 30
0.0
 10
-55.48393352573194
 20
-74.1898909743957
 30
0.0
 10
-54.32120298831492
 20
-75.35262027558595
 30
0.0
 10
-54.30199067975216
 20
-76.73339564273373
 30
0.0
 10
-54.28177478158651
 20
-78.1862983025383
 30
0.0
 10
-55.45346768456572
 20
-79.37041689198044
 30
0.0
 10
-56.90172678687522
 20
-79.37041766184795
 30
0.0
 10
-58.33766713608085
 20
-79.37041842516693
 30
0.0
 10
-59.50172740501694
 20
-78.2063593938071
 30
0.0
 10
-59.50172816833624
 20
-76.77041904462331
 30
0.0
 10
-59.50172816833624
 20
-76.77041904462331
 30
0.0
 10
-59.50172816833624
 20
-76.77041904462331
 30
0.0
 10
-59.50172816833624
 20
-76.77041904462331
 30
0.0
  0
ENDBLK
  5
204
330
201
100
AcDbEntity
  8
0
100
AcDbBlockEnd
  0
BLOCK
  5
208
330
206
100
AcDbEntity
  8
0
100
AcDbBlockBegin
  2
BLOCK_63
 70
     0
 10
0.0
 20
0.0
 30
0.0
  3
BLOCK_63
  1

  0
SPLINE
  5
20A
330
206
100
AcDbEntity
  8
_U_5207_U_65AD_U_30D1_U_30
 62
     1
100
AcDbSpline
210
0.0
220
0.0
230
1.0
 70
    11
 71
     3
 72
    38
 73
    34
 74
     0
 42
0.0000000001
 43
0.0000000001
 12
1.0
 22
0.0
 32
0.0
 13
1.0
 23
0.0
 33
0.0
 40
0.0
 40
0.0
 40
0.0
 40
0.0
 40
1.0
 40
1.0
 40
1.0
 40
2.0
 40
2.0
 40
2.0
 40
3.0
 40
3.0
 40
3.0
 40
4.0
 40
4.0
 40
4.0
 40
5.0
 40
5.0
 40
5.0
 40
6.0
 40
6.0
 40
6.0
 40
7.0
 40
7.0
 40
7.0
 40
8.0
 40
8.0
 40
8.0
 40
9.0
 40
9.0
 40
9.0
 40
10.0
 40
10.0
 40
10.0
 40
11.0
 40
11.0
 40
11.0
 40
11.0
 10
-51.79360126901932
 20
-81.10271969541321
 30
0.0
 10
-51.39479898887147
 20
-81.10284964179165
 30
0.0
 10
-51.14703430481114
 20
-80.65293654983115
 30
0.0
 10
-51.37697214345353
 20
-80.32709630385429
 30
0.0
 10
-51.53333380534619
 20
-80.10551936517452
 30
0.0
 10
-51.67124939973094
 20
-79.84671493082804
 30
0.0
 10
-51.76678407618819
 20
-79.54748281298166
 30
0.0
 10
-51.87294953823169
 20
-79.2149557371913
 30
0.0
 10
-51.90287611377896
 20
-78.90737330589884
 30
0.0
 10
-51.90172685145692
 20
-78.65516001860838
 30
0.0
 10
-51.90172685145692
 20
-78.65516001860838
 30
0.0
 10
-51.90172273864318
 20
-76.90179705044795
 30
0.0
 10
-51.90172273864318
 20
-76.90179705044795
 30
0.0
 10
-51.90171671823338
 20
-74.33519372672984
 30
0.0
 10
-53.781982271944
 20
-72.08333831323405
 30
0.0
 10
-56.33310633541974
 20
-71.80188026286858
 30
0.0
 10
-59.34915632941792
 20
-71.4691282955022
 30
0.0
 10
-61.90173025654018
 20
-73.82168237724939
 30
0.0
 10
-61.90172746354704
 20
-76.77042364009193
 30
0.0
 10
-61.90172746354704
 20
-76.77042364009193
 30
0.0
 10
-61.90172746354704
 20
-78.65278074953889
 30
0.0
 10
-61.90172746354704
 20
-78.65278074953889
 30
0.0
 10
-61.90190240980151
 20
-78.9090635558713
 30
0.0
 10
-61.93513143234972
 20
-79.69382400964103
 30
0.0
 10
-62.49767246139778
 20
-80.44765396550727
 30
0.0
 10
-62.49767246139778
 20
-80.44765396550727
 30
0.0
 10
-62.49767294929664
 20
-80.44765461692612
 30
0.0
 10
-62.49767294929664
 20
-80.44765461692612
 30
0.0
 10
-62.69883428667292
 20
-80.7162352727884
 30
0.0
 10
-62.50725909182193
 20
-81.09922873986207
 30
0.0
 10
-62.17169770943519
 20
-81.09933807972438
 30
0.0
 10
-62.17169770943519
 20
-81.09933807972438
 30
0.0
 10
-51.79360126901932
 20
-81.10271969541321
 30
0.0
 10
-51.79360126901932
 20
-81.10271969541321
 30
0.0
  0
ENDBLK
  5
209
330
206
100
AcDbEntity
  8
0
100
AcDbBlockEnd
  0
BLOCK
  5
20D
330
20B
100
AcDbEntity
  8
0
100
AcDbBlockBegin
  2
BLOCK_64
 70
     0
 10
0.0
 20
0.0
 30
0.0
  3
BLOCK_64
  1

  0
INSERT
  5
210
330
20B
100
AcDbEntity
  8
_U_5207_U_65AD_U_30D1_U_30
100
AcDbBlockReference
  2
BLOCK_65
 10
0.0
 20
0.0
 30
0.0
  0
INSERT
  5
215
330
20B
100
AcDbEntity
  8
_U_5207_U_65AD_U_30D1_U_30
100
AcDbBlockReference
  2
BLOCK_66
 10
0.0
 20
0.0
 30
0.0
  0
ENDBLK
  5
20E
330
20B
100
AcDbEntity
  8
0
100
AcDbBlockEnd
  0
BLOCK
  5
211
330
20F
100
AcDbEntity
  8
0
100
AcDbBlockBegin
  2
BLOCK_65
 70
     0
 10
0.0
 20
0.0
 30
0.0
  3
BLOCK_65
  1

  0
SPLINE
  5
213
330
20F
100
AcDbEntity
  8
_U_5207_U_65AD_U_30D1_U_30
 62
     1
100
AcDbSpline
210
0.0
220
0.0
230
1.0
 70
    11
 71
     3
 72
    20
 73
    16
 74
     0
 42
0.0000000001
 43
0.0000000001
 12
1.0
 22
0.0
 32
0.0
 13
1.0
 23
0.0
 33
0.0
 40
0.0
 40
0.0
 40
0.0
 40
0.0
 40
1.0
 40
1.0
 40
1.0
 40
2.0
 40
2.0
 40
2.0
 40
3.0
 40
3.0
 40
3.0
 40
4.0
 40
4.0
 40
4.0
 40
5.0
 40
5.0
 40
5.0
 40
5.0
 10
-46.44953245117667
 20
-76.77041904462331
 30
0.0
 10
-46.44953322104323
 20
-75.32215994235872
 30
0.0
 10
-45.26541587739433
 20
-74.15046578049402
 30
0.0
 10
-43.81251319614736
 20
-74.17068013390238
 30
0.0
 10
-42.43173780857238
 20
-74.1898909743957
 30
0.0
 10
-41.26900727115471
 20
-75.35262027558595
 30
0.0
 10
-41.2497949625926
 20
-76.73339564273373
 30
0.0
 10
-41.22957906442662
 20
-78.1862983025383
 30
0.0
 10
-42.40127196740616
 20
-79.37041689198044
 30
0.0
 10
-43.84953106971566
 20
-79.37041766184795
 30
0.0
 10
-45.28547141892128
 20
-79.37041842516693
 30
0.0
 10
-46.44953168785738
 20
-78.2063593938071
 30
0.0
 10
-46.44953245117667
 20
-76.77041904462331
 30
0.0
 10
-46.44953245117667
 20
-76.77041904462331
 30
0.0
 10
-46.44953245117667
 20
-76.77041904462331
 30
0.0
 10
-46.44953245117667
 20
-76.77041904462331
 30
0.0
  0
ENDBLK
  5
212
330
20F
100
AcDbEntity
  8
0
100
AcDbBlockEnd
  0
BLOCK
  5
216
330
214
100
AcDbEntity
  8
0
100
AcDbBlockBegin
  2
BLOCK_66
 70
     0
 10
0.0
 20
0.0
 30
0.0
  3
BLOCK_66
  1

  0
SPLINE
  5
218
330
214
100
AcDbEntity
  8
_U_5207_U_65AD_U_30D1_U_30
 62
     1
100
AcDbSpline
210
0.0
220
0.0
230
1.0
 70
    11
 71
     3
 72
    38
 73
    34
 74
     0
 42
0.0000000001
 43
0.0000000001
 12
1.0
 22
0.0
 32
0.0
 13
1.0
 23
0.0
 33
0.0
 40
0.0
 40
0.0
 40
0.0
 40
0.0
 40
1.0
 40
1.0
 40
1.0
 40
2.0
 40
2.0
 40
2.0
 40
3.0
 40
3.0
 40
3.0
 40
4.0
 40
4.0
 40
4.0
 40
5.0
 40
5.0
 40
5.0
 40
6.0
 40
6.0
 40
6.0
 40
7.0
 40
7.0
 40
7.0
 40
8.0
 40
8.0
 40
8.0
 40
9.0
 40
9.0
 40
9.0
 40
10.0
 40
10.0
 40
10.0
 40
11.0
 40
11.0
 40
11.0
 40
11.0
 10
-38.74140555185976
 20
-81.10271969541321
 30
0.0
 10
-38.34260327171127
 20
-81.10284964179165
 30
0.0
 10
-38.09483858765189
 20
-80.65293654983115
 30
0.0
 10
-38.32477642629332
 20
-80.32709630385429
 30
0.0
 10
-38.48113808818662
 20
-80.10551936517452
 30
0.0
 10
-38.6190536825717
 20
-79.84671493082804
 30
0.0
 10
-38.71458835902799
 20
-79.54748281298166
 30
0.0
 10
-38.82075382107213
 20
-79.2149557371913
 30
0.0
 10
-38.85068039661875
 20
-78.90737330589884
 30
0.0
 10
-38.84953113429672
 20
-78.65516001860838
 30
0.0
 10
-38.84953113429672
 20
-78.65516001860838
 30
0.0
 10
-38.8495270214833
 20
-76.90179705044795
 30
0.0
 10
-38.8495270214833
 20
-76.90179705044795
 30
0.0
 10
-38.84952100107318
 20
-74.33519372672984
 30
0.0
 10
-40.72978655478443
 20
-72.08333831323405
 30
0.0
 10
-43.28091061825954
 20
-71.80188026286858
 30
0.0
 10
-46.29696061225835
 20
-71.4691282955022
 30
0.0
 10
-48.84953453938062
 20
-73.82168237724939
 30
0.0
 10
-48.84953174638683
 20
-76.77042364009193
 30
0.0
 10
-48.84953174638683
 20
-76.77042364009193
 30
0.0
 10
-48.84953174638683
 20
-78.65278074953889
 30
0.0
 10
-48.84953174638683
 20
-78.65278074953889
 30
0.0
 10
-48.84970669264226
 20
-78.9090635558713
 30
0.0
 10
-48.88293571519016
 20
-79.69382400964103
 30
0.0
 10
-49.44547674423725
 20
-80.44765396550727
 30
0.0
 10
-49.44547674423725
 20
-80.44765396550727
 30
0.0
 10
-49.44547723213643
 20
-80.44765461692612
 30
0.0
 10
-49.44547723213643
 20
-80.44765461692612
 30
0.0
 10
-49.64663856951271
 20
-80.7162352727884
 30
0.0
 10
-49.45506337466172
 20
-81.09922873986207
 30
0.0
 10
-49.11950199227531
 20
-81.09933807972438
 30
0.0
 10
-49.11950199227531
 20
-81.09933807972438
 30
0.0
 10
-38.74140555185976
 20
-81.10271969541321
 30
0.0
 10
-38.74140555185976
 20
-81.10271969541321
 30
0.0
  0
ENDBLK
  5
217
330
214
100
AcDbEntity
  8
0
100
AcDbBlockEnd
  0
BLOCK
  5
21B
330
219
100
AcDbEntity
  8
0
100
AcDbBlockBegin
  2
BLOCK_67
 70
     0
 10
0.0
 20
0.0
 30
0.0
  3
BLOCK_67
  1

  0
INSERT
  5
21E
330
219
100
AcDbEntity
  8
_U_5207_U_65AD_U_30D1_U_30
100
AcDbBlockReference
  2
BLOCK_68
 10
0.0
 20
0.0
 30
0.0
  0
INSERT
  5
223
330
219
100
AcDbEntity
  8
_U_5207_U_65AD_U_30D1_U_30
100
AcDbBlockReference
  2
BLOCK_69
 10
0.0
 20
0.0
 30
0.0
  0
ENDBLK
  5
21C
330
219
100
AcDbEntity
  8
0
100
AcDbBlockEnd
  0
BLOCK
  5
21F
330
21D
100
AcDbEntity
  8
0
100
AcDbBlockBegin
  2
BLOCK_68
 70
     0
 10
0.0
 20
0.0
 30
0.0
  3
BLOCK_68
  1

  0
SPLINE
  5
221
330
21D
100
AcDbEntity
  8
_U_5207_U_65AD_U_30D1_U_30
 62
     1
100
AcDbSpline
210
0.0
220
0.0
230
1.0
 70
    11
 71
     3
 72
    20
 73
    16
 74
     0
 42
0.0000000001
 43
0.0000000001
 12
1.0
 22
0.0
 32
0.0
 13
1.0
 23
0.0
 33
0.0
 40
0.0
 40
0.0
 40
0.0
 40
0.0
 40
1.0
 40
1.0
 40
1.0
 40
2.0
 40
2.0
 40
2.0
 40
3.0
 40
3.0
 40
3.0
 40
4.0
 40
4.0
 40
4.0
 40
5.0
 40
5.0
 40
5.0
 40
5.0
 10
-33.39764740268638
 20
-76.77041904462266
 30
0.0
 10
-33.39764817255389
 20
-75.32215994235808
 30
0.0
 10
-32.21353082890435
 20
-74.15046578049336
 30
0.0
 10
-30.76062814765739
 20
-74.17068013390174
 30
0.0
 10
-29.37985276008241
 20
-74.18989097439506
 30
0.0
 10
-28.21712222266538
 20
-75.3526202755853
 30
0.0
 10
-28.19790991410262
 20
-76.73339564273309
 30
0.0
 10
-28.17769401593665
 20
-78.18629830253766
 30
0.0
 10
-29.34938691891618
 20
-79.3704168919798
 30
0.0
 10
-30.79764602122568
 20
-79.37041766184731
 30
0.0
 10
-32.23358637043131
 20
-79.37041842516629
 30
0.0
 10
-33.3976466393674
 20
-78.20635939380647
 30
0.0
 10
-33.39764740268638
 20
-76.77041904462266
 30
0.0
 10
-33.39764740268638
 20
-76.77041904462266
 30
0.0
 10
-33.39764740268638
 20
-76.77041904462266
 30
0.0
 10
-33.39764740268638
 20
-76.77041904462266
 30
0.0
  0
ENDBLK
  5
220
330
21D
100
AcDbEntity
  8
0
100
AcDbBlockEnd
  0
BLOCK
  5
224
330
222
100
AcDbEntity
  8
0
100
AcDbBlockBegin
  2
BLOCK_69
 70
     0
 10
0.0
 20
0.0
 30
0.0
  3
BLOCK_69
  1

  0
SPLINE
  5
226
330
222
100
AcDbEntity
  8
_U_5207_U_65AD_U_30D1_U_30
 62
     1
100
AcDbSpline
210
0.0
220
0.0
230
1.0
 70
    11
 71
     3
 72
    38
 73
    34
 74
     0
 42
0.0000000001
 43
0.0000000001
 12
1.0
 22
0.0
 32
0.0
 13
1.0
 23
0.0
 33
0.0
 40
0.0
 40
0.0
 40
0.0
 40
0.0
 40
1.0
 40
1.0
 40
1.0
 40
2.0
 40
2.0
 40
2.0
 40
3.0
 40
3.0
 40
3.0
 40
4.0
 40
4.0
 40
4.0
 40
5.0
 40
5.0
 40
5.0
 40
6.0
 40
6.0
 40
6.0
 40
7.0
 40
7.0
 40
7.0
 40
8.0
 40
8.0
 40
8.0
 40
9.0
 40
9.0
 40
9.0
 40
10.0
 40
10.0
 40
10.0
 40
11.0
 40
11.0
 40
11.0
 40
11.0
 10
-25.68952050336978
 20
-81.10271969541257
 30
0.0
 10
-25.29071822322194
 20
-81.10284964179101
 30
0.0
 10
-25.0429535391616
 20
-80.65293654983051
 30
0.0
 10
-25.27289137780399
 20
-80.32709630385365
 30
0.0
 10
-25.42925303969665
 20
-80.10551936517388
 30
0.0
 10
-25.5671686340814
 20
-79.8467149308274
 30
0.0
 10
-25.66270331053866
 20
-79.54748281298102
 30
0.0
 10
-25.76886877258216
 20
-79.21495573719066
 30
0.0
 10
-25.79879534812942
 20
-78.9073733058982
 30
0.0
 10
-25.79764608580738
 20
-78.65516001860775
 30
0.0
 10
-25.79764608580738
 20
-78.65516001860775
 30
0.0
 10
-25.79764197299365
 20
-76.90179705044731
 30
0.0
 10
-25.79764197299365
 20
-76.90179705044731
 30
0.0
 10
-25.79763595258385
 20
-74.3351937267292
 30
0.0
 10
-27.67790150629445
 20
-72.08333831323341
 30
0.0
 10
-30.22902556977021
 20
-71.80188026286794
 30
0.0
 10
-33.24507556376838
 20
-71.46912829550156
 30
0.0
 10
-35.79764949089064
 20
-73.82168237724875
 30
0.0
 10
-35.7976466978975
 20
-76.7704236400913
 30
0.0
 10
-35.7976466978975
 20
-76.7704236400913
 30
0.0
 10
-35.7976466978975
 20
-78.65278074953824
 30
0.0
 10
-35.7976466978975
 20
-78.65278074953824
 30
0.0
 10
-35.79782164415197
 20
-78.90906355587066
 30
0.0
 10
-35.83105066670019
 20
-79.6938240096404
 30
0.0
 10
-36.39359169574823
 20
-80.44765396550663
 30
0.0
 10
-36.39359169574823
 20
-80.44765396550663
 30
0.0
 10
-36.39359218364709
 20
-80.44765461692548
 30
0.0
 10
-36.39359218364709
 20
-80.44765461692548
 30
0.0
 10
-36.59475352102338
 20
-80.71623527278776
 30
0.0
 10
-36.40317832617239
 20
-81.09922873986143
 30
0.0
 10
-36.06761694378533
 20
-81.09933807972374
 30
0.0
 10
-36.06761694378533
 20
-81.09933807972374
 30
0.0
 10
-25.68952050336978
 20
-81.10271969541257
 30
0.0
 10
-25.68952050336978
 20
-81.10271969541257
 30
0.0
  0
ENDBLK
  5
225
330
222
100
AcDbEntity
  8
0
100
AcDbBlockEnd
  0
BLOCK
  5
229
330
227
100
AcDbEntity
  8
0
100
AcDbBlockBegin
  2
BLOCK_70
 70
     0
 10
0.0
 20
0.0
 30
0.0
  3
BLOCK_70
  1

  0
INSERT
  5
22C
330
227
100
AcDbEntity
  8
_U_5207_U_65AD_U_30D1_U_30
100
AcDbBlockReference
  2
BLOCK_71
 10
0.0
 20
0.0
 30
0.0
  0
INSERT
  5
231
330
227
100
AcDbEntity
  8
_U_5207_U_65AD_U_30D1_U_30
100
AcDbBlockReference
  2
BLOCK_72
 10
0.0
 20
0.0
 30
0.0
  0
ENDBLK
  5
22A
330
227
100
AcDbEntity
  8
0
100
AcDbBlockEnd
  0
BLOCK
  5
22D
330
22B
100
AcDbEntity
  8
0
100
AcDbBlockBegin
  2
BLOCK_71
 70
     0
 10
0.0
 20
0.0
 30
0.0
  3
BLOCK_71
  1

  0
SPLINE
  5
22F
330
22B
100
AcDbEntity
  8
_U_5207_U_65AD_U_30D1_U_30
 62
     1
100
AcDbSpline
210
0.0
220
0.0
230
1.0
 70
    11
 71
     3
 72
    20
 73
    16
 74
     0
 42
0.0000000001
 43
0.0000000001
 12
1.0
 22
0.0
 32
0.0
 13
1.0
 23
0.0
 33
0.0
 40
0.0
 40
0.0
 40
0.0
 40
0.0
 40
1.0
 40
1.0
 40
1.0
 40
2.0
 40
2.0
 40
2.0
 40
3.0
 40
3.0
 40
3.0
 40
4.0
 40
4.0
 40
4.0
 40
5.0
 40
5.0
 40
5.0
 40
5.0
 10
-20.34545168552713
 20
-76.77041904462266
 30
0.0
 10
-20.34545245539369
 20
-75.32215994235808
 30
0.0
 10
-19.16133511174478
 20
-74.15046578049336
 30
0.0
 10
-17.70843243049783
 20
-74.17068013390174
 30
0.0
 10
-16.32765704292284
 20
-74.18989097439506
 30
0.0
 10
-15.16492650550517
 20
-75.3526202755853
 30
0.0
 10
-15.14571419694306
 20
-76.73339564273309
 30
0.0
 10
-15.1254982987774
 20
-78.18629830253766
 30
0.0
 10
-16.29719120175662
 20
-79.3704168919798
 30
0.0
 10
-17.74545030406612
 20
-79.37041766184731
 30
0.0
 10
-19.18139065327174
 20
-79.37041842516629
 30
0.0
 10
-20.34545092220784
 20
-78.20635939380647
 30
0.0
 10
-20.34545168552713
 20
-76.77041904462266
 30
0.0
 10
-20.34545168552713
 20
-76.77041904462266
 30
0.0
 10
-20.34545168552713
 20
-76.77041904462266
 30
0.0
 10
-20.34545168552713
 20
-76.77041904462266
 30
0.0
  0
ENDBLK
  5
22E
330
22B
100
AcDbEntity
  8
0
100
AcDbBlockEnd
  0
BLOCK
  5
232
330
230
100
AcDbEntity
  8
0
100
AcDbBlockBegin
  2
BLOCK_72
 70
     0
 10
0.0
 20
0.0
 30
0.0
  3
BLOCK_72
  1

  0
SPLINE
  5
234
330
230
100
AcDbEntity
  8
_U_5207_U_65AD_U_30D1_U_30
 62
     1
100
AcDbSpline
210
0.0
220
0.0
230
1.0
 70
    11
 71
     3
 72
    38
 73
    34
 74
     0
 42
0.0000000001
 43
0.0000000001
 12
1.0
 22
0.0
 32
0.0
 13
1.0
 23
0.0
 33
0.0
 40
0.0
 40
0.0
 40
0.0
 40
0.0
 40
1.0
 40
1.0
 40
1.0
 40
2.0
 40
2.0
 40
2.0
 40
3.0
 40
3.0
 40
3.0
 40
4.0
 40
4.0
 40
4.0
 40
5.0
 40
5.0
 40
5.0
 40
6.0
 40
6.0
 40
6.0
 40
7.0
 40
7.0
 40
7.0
 40
8.0
 40
8.0
 40
8.0
 40
9.0
 40
9.0
 40
9.0
 40
10.0
 40
10.0
 40
10.0
 40
11.0
 40
11.0
 40
11.0
 40
11.0
 10
-12.63732478621022
 20
-81.10271969541257
 30
0.0
 10
-12.23852250606173
 20
-81.10284964179101
 30
0.0
 10
-11.99075782200203
 20
-80.65293654983051
 30
0.0
 10
-12.22069566064378
 20
-80.32709630385365
 30
0.0
 10
-12.37705732253708
 20
-80.10551936517388
 30
0.0
 10
-12.51497291692216
 20
-79.8467149308274
 30
0.0
 10
-12.61050759337845
 20
-79.54748281298102
 30
0.0
 10
-12.71667305542259
 20
-79.21495573719066
 30
0.0
 10
-12.74659963096921
 20
-78.9073733058982
 30
0.0
 10
-12.74545036864718
 20
-78.65516001860775
 30
0.0
 10
-12.74545036864718
 20
-78.65516001860775
 30
0.0
 10
-12.74544625583376
 20
-76.90179705044731
 30
0.0
 10
-12.74544625583376
 20
-76.90179705044731
 30
0.0
 10
-12.74544023542364
 20
-74.3351937267292
 30
0.0
 10
-14.62570578913489
 20
-72.08333831323341
 30
0.0
 10
-17.17682985261
 20
-71.80188026286794
 30
0.0
 10
-20.19287984660881
 20
-71.46912829550156
 30
0.0
 10
-22.74545377373108
 20
-73.82168237724875
 30
0.0
 10
-22.74545098073729
 20
-76.7704236400913
 30
0.0
 10
-22.74545098073729
 20
-76.7704236400913
 30
0.0
 10
-22.74545098073729
 20
-78.65278074953824
 30
0.0
 10
-22.74545098073729
 20
-78.65278074953824
 30
0.0
 10
-22.74562592699208
 20
-78.90906355587066
 30
0.0
 10
-22.77885494954062
 20
-79.6938240096404
 30
0.0
 10
-23.34139597858771
 20
-80.44765396550663
 30
0.0
 10
-23.34139597858771
 20
-80.44765396550663
 30
0.0
 10
-23.34139646648689
 20
-80.44765461692548
 30
0.0
 10
-23.34139646648689
 20
-80.44765461692548
 30
0.0
 10
-23.54255780386317
 20
-80.71623527278776
 30
0.0
 10
-23.35098260901218
 20
-81.09922873986143
 30
0.0
 10
-23.01542122662609
 20
-81.09933807972374
 30
0.0
 10
-23.01542122662609
 20
-81.09933807972374
 30
0.0
 10
-12.63732478621022
 20
-81.10271969541257
 30
0.0
 10
-12.63732478621022
 20
-81.10271969541257
 30
0.0
  0
ENDBLK
  5
233
330
230
100
AcDbEntity
  8
0
100
AcDbBlockEnd
  0
ENDSEC
  0
SECTION
  2
ENTITIES
  0
INSERT
  5
43
330
1F
100
AcDbEntity
  8
_U_5207_U_65AD_U_30D1_U_30
100
AcDbBlockReference
  2
BLOCK_2
 10
0.0
 20
0.0
 30
0.0
  0
INSERT
  5
56
330
1F
100
AcDbEntity
  8
_U_5207_U_65AD_U_30D1_U_30
100
AcDbBlockReference
  2
BLOCK_6
 10
0.0
 20
0.0
 30
0.0
  0
INSERT
  5
64
330
1F
100
AcDbEntity
  8
_U_5207_U_65AD_U_30D1_U_30
100
AcDbBlockReference
  2
BLOCK_9
 10
0.0
 20
0.0
 30
0.0
  0
INSERT
  5
72
330
1F
100
AcDbEntity
  8
_U_5207_U_65AD_U_30D1_U_30
100
AcDbBlockReference
  2
BLOCK_12
 10
0.0
 20
0.0
 30
0.0
  0
INSERT
  5
80
330
1F
100
AcDbEntity
  8
_U_5207_U_65AD_U_30D1_U_30
100
AcDbBlockReference
  2
BLOCK_15
 10
0.0
 20
0.0
 30
0.0
  0
INSERT
  5
8E
330
1F
100
AcDbEntity
  8
_U_5207_U_65AD_U_30D1_U_30
100
AcDbBlockReference
  2
BLOCK_18
 10
0.0
 20
0.0
 30
0.0
  0
POLYLINE
  5
1BD
330
1F
100
AcDbEntity
  8
_U_5207_U_65AD_U_30D1_U_30
 62
     1
100
AcDb2dPolyline
 66
     1
 10
0.0
 20
0.0
 30
0.0
  0
VERTEX
  5
1BE
330
1BD
100
AcDbEntity
  8
_U_5207_U_65AD_U_30D1_U_30
 62
     1
100
AcDbVertex
100
AcDb2dVertex
 10
-9.122108733274672
 20
-52.59048668966621
 30
0.0
  0
VERTEX
  5
239
330
1BD
100
AcDbEntity
  8
0
100
AcDbVertex
100
AcDb2dVertex
 10
-9.122108733274672
 20
-52.59048668966621
 30
0.0
  0
SEQEND
  5
1BF
330
1BD
100
AcDbEntity
  8
_U_5207_U_65AD_U_30D1_U_30
 62
     1
  0
POLYLINE
  5
1C0
330
1F
100
AcDbEntity
  8
_U_5207_U_65AD_U_30D1_U_30
 62
     1
100
AcDb2dPolyline
 66
     1
 10
0.0
 20
0.0
 30
0.0
  0
VERTEX
  5
1C1
330
1C0
100
AcDbEntity
  8
_U_5207_U_65AD_U_30D1_U_30
 62
     1
100
AcDbVertex
100
AcDb2dVertex
 10
-9.122108481689827
 20
-53.00629586948681
 30
0.0
  0
VERTEX
  5
23A
330
1C0
100
AcDbEntity
  8
0
100
AcDbVertex
100
AcDb2dVertex
 10
-9.122108481689827
 20
-53.00629586948681
 30
0.0
  0
SEQEND
  5
1C2
330
1C0
100
AcDbEntity
  8
_U_5207_U_65AD_U_30D1_U_30
 62
     1
  0
POLYLINE
  5
1C3
330
1F
100
AcDbEntity
  8
_U_5207_U_65AD_U_30D1_U_30
 62
     1
100
AcDb2dPolyline
 66
     1
 10
0.0
 20
0.0
 30
0.0
  0
VERTEX
  5
1C4
330
1C3
100
AcDbEntity
  8
_U_5207_U_65AD_U_30D1_U_30
 62
     1
100
AcDbVertex
100
AcDb2dVertex
 10
-81.7767692852074
 20
-66.57652410997179
 30
0.0
  0
VERTEX
  5
23B
330
1C3
100
AcDbEntity
  8
0
100
AcDbVertex
100
AcDb2dVertex
 10
-81.7767692852074
 20
-66.57652410997179
 30
0.0
  0
SEQEND
  5
1C5
330
1C3
100
AcDbEntity
  8
_U_5207_U_65AD_U_30D1_U_30
 62
     1
  0
INSERT
  5
1C7
330
1F
100
AcDbEntity
  8
_U_5207_U_65AD_U_30D1_U_30
100
AcDbBlockReference
  2
BLOCK_50
 10
0.0
 20
0.0
 30
0.0
  0
INSERT
  5
1FE
330
1F
100
AcDbEntity
  8
_U_5207_U_65AD_U_30D1_U_30
100
AcDbBlockReference
  2
BLOCK_61
 10
0.0
 20
0.0
 30
0.0
  0
INSERT
  5
20C
330
1F
100
AcDbEntity
  8
_U_5207_U_65AD_U_30D1_U_30
100
AcDbBlockReference
  2
BLOCK_64
 10
0.0
 20
0.0
 30
0.0
  0
INSERT
  5
21A
330
1F
100
AcDbEntity
  8
_U_5207_U_65AD_U_30D1_U_30
100
AcDbBlockReference
  2
BLOCK_67
 10
0.0
 20
0.0
 30
0.0
  0
INSERT
  5
228
330
1F
100
AcDbEntity
  8
_U_5207_U_65AD_U_30D1_U_30
100
AcDbBlockReference
  2
BLOCK_70
 10
0.0
 20
0.0
 30
0.0
  0
ENDSEC
  0
SECTION
  2
OBJECTS
  0
DICTIONARY
  5
C
330
0
100
AcDbDictionary
  3
ACAD_GROUP
350
D
  3
ACAD_LAYOUT
350
1A
  3
ACAD_MATERIAL
350
3B
  3
ACAD_MLEADERSTYLE
350
23E
  3
ACAD_MLINESTYLE
350
17
  3
ACAD_PLOTSETTINGS
350
19
  3
ACAD_VISUALSTYLE
350
2A
  3
ACDBVARIABLEDICTIONARY
350
23C
1001
ACAD
1000
TREAT_AS_HARD
1070
     0
  0
DICTIONARY
  5
D
102
{ACAD_REACTORS
330
C
102
}
330
C
100
AcDbDictionary
1001
ACAD
1000
TREAT_AS_HARD
1070
     0
  0
DICTIONARY
  5
1A
102
{ACAD_REACTORS
330
C
102
}
330
C
100
AcDbDictionary
1001
ACAD
1000
TREAT_AS_HARD
1070
     0
  0
DICTIONARY
  5
3B
102
{ACAD_REACTORS
330
C
102
}
330
C
100
AcDbDictionary
  3
BYBLOCK
350
3D
  3
BYLAYER
350
3C
  3
GLOBAL
350
3E
1001
ACAD
1000
TREAT_AS_HARD
1070
     0
  0
DICTIONARY
  5
23E
102
{ACAD_REACTORS
330
C
102
}
330
C
100
AcDbDictionary
1001
ACAD
1000
TREAT_AS_HARD
1070
     0
  0
DICTIONARY
  5
17
102
{ACAD_REACTORS
330
C
102
}
330
C
100
AcDbDictionary
  3
STANDARD
350
18
1001
ACAD
1000
TREAT_AS_HARD
1070
     0
  0
DICTIONARY
  5
19
102
{ACAD_REACTORS
330
C
102
}
330
C
100
AcDbDictionary
1001
ACAD
1000
TREAT_AS_HARD
1070
     0
  0
DICTIONARY
  5
2A
102
{ACAD_REACTORS
330
C
102
}
330
C
100
AcDbDictionary
  3
2DWIREFRAME
350
2F
  3
3D_HIDDEN
350
31
  3
3DWIREFRAME
350
30
  3
BASIC
350
32
  3
BRIGHTEN
350
36
  3
COLORCHANGE
350
3A
  3
CONCEPTUAL
350
34
  3
DIM
350
35
  3
FACEPATTERN
350
39
  3
FLAT
350
2B
  3
FLATWITHEDGES
350
2C
  3
GOURAUD
350
2D
  3
GOURAUDWITHEDGES
350
2E
  3
LINEPATTERN
350
38
  3
REALISTIC
350
33
  3
THICKEN
350
37
1001
ACAD
1000
TREAT_AS_HARD
1070
     0
  0
DICTIONARY
  5
23C
102
{ACAD_REACTORS
330
C
102
}
330
C
100
AcDbDictionary
  3
DIMASSOC
350
23F
  3
HIDETEXT
350
240
1001
ACAD
1000
TREAT_AS_HARD
1070
     0
  0
MATERIAL
  5
3D
102
{ACAD_REACTORS
330
3B
102
}
102
{ACAD_XDICTIONARY
360
243
102
}
330
3B
100
AcDbMaterial
  1
ByBlock
  0
MATERIAL
  5
3C
102
{ACAD_REACTORS
330
3B
102
}
102
{ACAD_XDICTIONARY
360
241
102
}
330
3B
100
AcDbMaterial
  1
ByLayer
  0
MATERIAL
  5
3E
102
{ACAD_REACTORS
330
3B
102
}
102
{ACAD_XDICTIONARY
360
245
102
}
330
3B
100
AcDbMaterial
  1
Global
  0
MLINESTYLE
  5
18
102
{ACAD_REACTORS
330
17
102
}
330
17
100
AcDbMlineStyle
  2
Standard
 70
     0
  3

 62
   256
 51
90.0
 52
90.0
 71
     2
 49
0.5
 62
   256
  6
BYLAYER
 49
-0.5
 62
   256
  6
BYLAYER
  0
ACAD_PROXY_OBJECT
  5
2F
102
{ACAD_REACTORS
330
2A
102
}
330
2A
100
AcDbZombieObject
 90
      499
 91
      501
 93
      436
310
42CC9915DA5C99599C985B595049028333333333333E3BF0000000000000FB0107901411070040501600405405064090741402480A0340
1001
ACAD
1000
AcDbSavedByObjectVersion
1070
     0
  0
ACAD_PROXY_OBJECT
  5
31
102
{ACAD_REACTORS
330
2A
102
}
330
2A
100
AcDbZombieObject
 90
      499
 91
      501
 93
      500
310
424CD108121A5919195B90640502408333333333333E3BF0000000000000FB01079024090700405020000000000001110200405405064090740C02480A0340
1001
ACAD
1000
AcDbSavedByObjectVersion
1070
     0
  0
ACAD_PROXY_OBJECT
  5
30
102
{ACAD_REACTORS
330
2A
102
}
330
2A
100
AcDbZombieObject
 90
      499
 91
      501
 93
      436
310
42CCD915DA5C99599C985B595059028333333333333E3BF0000000000000FB0107901411070040501600405405064090741402480A0340
1001
ACAD
1000
AcDbSavedByObjectVersion
1070
     0
  0
ACAD_PROXY_OBJECT
  5
32
102
{ACAD_REACTORS
330
2A
102
}
330
2A
100
AcDbZombieObject
 90
      499
 91
      501
 93
      388
310
4150985CDA58D07406404333333333333E3BF0000000000000FB0107A41107004050150841D405064090741402480A0350
1001
ACAD
1000
AcDbSavedByObjectVersion
1070
     0
  0
ACAD_PROXY_OBJECT
  5
36
102
{ACAD_REACTORS
330
2A
102
}
330
2A
100
AcDbZombieObject
 90
      499
 91
      501
 93
      428
310
42109C9A59DA1D195B90C409028333333333333E3BF0000000000000FB010790141107004050150841D405064090741402480A029950
1001
ACAD
1000
AcDbSavedByObjectVersion
1070
     0
  0
ACAD_PROXY_OBJECT
  5
3A
102
{ACAD_REACTORS
330
2A
102
}
330
2A
100
AcDbZombieObject
 90
      499
 91
      501
 93
      452
310
42D0DBDB1BDC90DA185B99D95104090240C333333333333E3BF0000000000000FB0108901411070040501508421405064090741402480A0350
1001
ACAD
1000
AcDbSavedByObjectVersion
1070
     0
  0
ACAD_PROXY_OBJECT
  5
34
102
{ACAD_REACTORS
330
2A
102
}
330
2A
100
AcDbZombieObject
 90
      499
 91
      501
 93
      500
310
4290DBDB98D95C1D1D585B10940D028333333333333E3BF0000000000000FB0107902409070040501000000000000111010841D405064090740C02480A0340
1001
ACAD
1000
AcDbSavedByObjectVersion
1070
     0
  0
ACAD_PROXY_OBJECT
  5
35
102
{ACAD_REACTORS
330
2A
102
}
330
2A
100
AcDbZombieObject
 90
      499
 91
      501
 93
      412
310
40D11A5B50B409028333333333333E3BF0000000000000FB010790141107004050150841D405064090741402480A02677FFFFFD0
1001
ACAD
1000
AcDbSavedByObjectVersion
1070
     0
  0
ACAD_PROXY_OBJECT
  5
39
102
{ACAD_REACTORS
330
2A
102
}
330
2A
100
AcDbZombieObject
 90
      499
 91
      501
 93
      444
310
42D19858D95C185D1D195C9B90F409028333333333333E3BF0000000000000FB010790141107004050150841D405064090741402480A0350
1001
ACAD
1000
AcDbSavedByObjectVersion
1070
     0
  0
ACAD_PROXY_OBJECT
  5
2B
102
{ACAD_REACTORS
330
2A
102
}
330
2A
100
AcDbZombieObject
 90
      499
 91
      501
 93
      388
310
41119B185D240901404333333333333E3BF0000000000000F9010740A41107004050150841D405064090741402480A1B50
1001
ACAD
1000
AcDbSavedByObjectVersion
1070
     0
  0
ACAD_PROXY_OBJECT
  5
2C
102
{ACAD_REACTORS
330
2A
102
}
330
2A
100
AcDbZombieObject
 90
      499
 91
      501
 93
      476
310
43519B185D15DA5D1A115919D95CD0140901404333333333333E3BF0000000000000F9010740901411070040501600405405064090741402480A1B50
1001
ACAD
1000
AcDbSavedByObjectVersion
1070
     0
  0
ACAD_PROXY_OBJECT
  5
2D
102
{ACAD_REACTORS
330
2A
102
}
330
2A
100
AcDbZombieObject
 90
      499
 91
      501
 93
      412
310
41D1DBDD5C985D5910240902404333333333333E3BF0000000000000F9010740A411070040501641D405064090741402480A1B50
1001
ACAD
1000
AcDbSavedByObjectVersion
1070
     0
  0
ACAD_PROXY_OBJECT
  5
2E
102
{ACAD_REACTORS
330
2A
102
}
330
2A
100
AcDbZombieObject
 90
      499
 91
      501
 93
      500
310
4411DBDD5C985D5915DA5D1A115919D95CD0340902404333333333333E3BF0000000000000F9010740901411070040501600405405064090741402480A1B50
1001
ACAD
1000
AcDbSavedByObjectVersion
1070
     0
  0
ACAD_PROXY_OBJECT
  5
38
102
{ACAD_REACTORS
330
2A
102
}
330
2A
100
AcDbZombieObject
 90
      499
 91
      501
 93
      444
310
42D31A5B995C185D1D195C9B90E409028333333333333E3BF0000000000000FB010790141107004050750841D405064090741402483A0350
1001
ACAD
1000
AcDbSavedByObjectVersion
1070
     0
  0
ACAD_PROXY_OBJECT
  5
33
102
{ACAD_REACTORS
330
2A
102
}
330
2A
100
AcDbZombieObject
 90
      499
 91
      501
 93
      420
310
425499585B1A5CDD1A58D08409028333333333333E3BF0000000000000FB01079019070040501508421405064090741402480A1B40
1001
ACAD
1000
AcDbSavedByObjectVersion
1070
     0
  0
ACAD_PROXY_OBJECT
  5
37
102
{ACAD_REACTORS
330
2A
102
}
330
2A
100
AcDbZombieObject
 90
      499
 91
      501
 93
      412
310
41D51A1A58DAD95B90D409028333333333333E3BF0000000000000FB010790141107004050150C41D405064090741402480A0350
1001
ACAD
1000
AcDbSavedByObjectVersion
1070
     0
  0
DICTIONARYVAR
  5
23F
102
{ACAD_REACTORS
330
23C
102
}
330
23C
100
DictionaryVariables
280
     0
  1
2
  0
DICTIONARYVAR
  5
240
102
{ACAD_REACTORS
330
23C
102
}
330
23C
100
DictionaryVariables
280
     0
  1
1
  0
DICTIONARY
  5
243
330
3D
100
AcDbDictionary
  3
ACAD_XREC_ROUNDTRIP
360
244
1001
ACAD
1000
TREAT_AS_HARD
1070
     1
  0
DICTIONARY
  5
241
330
3C
100
AcDbDictionary
  3
ACAD_XREC_ROUNDTRIP
360
242
1001
ACAD
1000
TREAT_AS_HARD
1070
     1
  0
DICTIONARY
  5
245
330
3E
100
AcDbDictionary
  3
ACAD_XREC_ROUNDTRIP
360
246
1001
ACAD
1000
TREAT_AS_HARD
1070
     1
  0
XRECORD
  5
244
102
{ACAD_REACTORS
330
243
102
}
330
243
100
AcDbXrecord
102
MATERIAL
148
0.0
149
0.0
149
0.0
 93
        0
 94
      127
282
     0
 72
     1
 77
     1
171
     1
175
     1
179
     1
273
     0
  0
XRECORD
  5
242
102
{ACAD_REACTORS
330
241
102
}
330
241
100
AcDbXrecord
102
MATERIAL
148
0.0
149
0.0
149
0.0
 93
        0
 94
      127
282
     0
 72
     1
 77
     1
171
     1
175
     1
179
     1
273
     0
  0
XRECORD
  5
246
102
{ACAD_REACTORS
330
245
102
}
330
245
100
AcDbXrecord
102
MATERIAL
148
0.0
149
0.0
149
0.0
 93
        0
 94
      127
282
     0
 72
     1
 77
     1
171
     1
175
     1
179
     1
273
     0
  0
ENDSEC
  0
EOF
