  0
SECTION
  2
HEADER
  9
$ACADVER
  1
AC1012
  9
$DWGCODEPAGE
  3
ansi_1251
  9
$INSBASE
 10
0.0
 20
0.0
 30
0.0
  9
$EXTMIN
 10
1.000000000000000E+20
 20
1.000000000000000E+20
 30
1.000000000000000E+20
  9
$EXTMAX
 10
-1.000000000000000E+20
 20
-1.000000000000000E+20
 30
-1.000000000000000E+20
  9
$LIMMIN
 10
0.0
 20
0.0
  9
$LIMMAX
 10
12.0
 20
9.0
  9
$ORTHOMODE
 70
     0
  9
$REGENMODE
 70
     1
  9
$FILLMODE
 70
     1
  9
$QTEXTMODE
 70
     0
  9
$MIRRTEXT
 70
     1
  9
$DRAGMODE
 70
     2
  9
$LTSCALE
 40
1.0
  9
$OSMODE
 70
    37
  9
$ATTMODE
 70
     1
  9
$TEXTSIZE
 40
0.2
  9
$TRACEWID
 40
0.05
  9
$TEXTSTYLE
  7
STANDARD
  9
$CLAYER
  8
0
  9
$CELTYPE
  6
BYLAYER
  9
$CECOLOR
 62
   256
  9
$CELTSCALE
 40
1.0
  9
$DELOBJ
 70
     1
  9
$DISPSILH
 70
     0
  9
$DIMSCALE
 40
1.0
  9
$DIMASZ
 40
0.18
  9
$DIMEXO
 40
0.0625
  9
$DIMDLI
 40
0.38
  9
$DIMRND
 40
0.0
  9
$DIMDLE
 40
0.0
  9
$DIMEXE
 40
0.18
  9
$DIMTP
 40
0.0
  9
$DIMTM
 40
0.0
  9
$DIMTXT
 40
0.18
  9
$DIMCEN
 40
0.09
  9
$DIMTSZ
 40
0.0
  9
$DIMTOL
 70
     0
  9
$DIMLIM
 70
     0
  9
$DIMTIH
 70
     1
  9
$DIMTOH
 70
     1
  9
$DIMSE1
 70
     0
  9
$DIMSE2
 70
     0
  9
$DIMTAD
 70
     0
  9
$DIMZIN
 70
     0
  9
$DIMBLK
  1

  9
$DIMASO
 70
     1
  9
$DIMSHO
 70
     1
  9
$DIMPOST
  1

  9
$DIMAPOST
  1

  9
$DIMALT
 70
     0
  9
$DIMALTD
 70
     2
  9
$DIMALTF
 40
25.4
  9
$DIMLFAC
 40
1.0
  9
$DIMTOFL
 70
     0
  9
$DIMTVP
 40
0.0
  9
$DIMTIX
 70
     0
  9
$DIMSOXD
 70
     0
  9
$DIMSAH
 70
     0
  9
$DIMBLK1
  1

  9
$DIMBLK2
  1

  9
$DIMSTYLE
  2
STANDARD
  9
$DIMCLRD
 70
     0
  9
$DIMCLRE
 70
     0
  9
$DIMCLRT
 70
     0
  9
$DIMTFAC
 40
1.0
  9
$DIMGAP
 40
0.09
  9
$DIMJUST
 70
     0
  9
$DIMSD1
 70
     0
  9
$DIMSD2
 70
     0
  9
$DIMTOLJ
 70
     1
  9
$DIMTZIN
 70
     0
  9
$DIMALTZ
 70
     0
  9
$DIMALTTZ
 70
     0
  9
$DIMFIT
 70
     3
  9
$DIMUPT
 70
     0
  9
$DIMUNIT
 70
     2
  9
$DIMDEC
 70
     4
  9
$DIMTDEC
 70
     4
  9
$DIMALTU
 70
     2
  9
$DIMALTTD
 70
     2
  9
$DIMTXSTY
  7
STANDARD
  9
$DIMAUNIT
 70
     0
  9
$LUNITS
 70
     2
  9
$LUPREC
 70
     4
  9
$SKETCHINC
 40
0.1
  9
$FILLETRAD
 40
0.5
  9
$AUNITS
 70
     0
  9
$AUPREC
 70
     0
  9
$MENU
  1
.
  9
$ELEVATION
 40
0.0
  9
$PELEVATION
 40
0.0
  9
$THICKNESS
 40
0.0
  9
$LIMCHECK
 70
     0
  9
$CHAMFERA
 40
0.5
  9
$CHAMFERB
 40
0.5
  9
$CHAMFERC
 40
1.0
  9
$CHAMFERD
 40
0.0
  9
$SKPOLY
 70
     0
  9
$TDCREATE
 40
2458713.634395648
  9
$TDUPDATE
 40
2458713.634395706
  9
$TDINDWG
 40
0.0000000116
  9
$TDUSRTIMER
 40
0.0000000116
  9
$USRTIMER
 70
     1
  9
$ANGBASE
 50
0.0
  9
$ANGDIR
 70
     0
  9
$PDMODE
 70
     0
  9
$PDSIZE
 40
0.0
  9
$PLINEWID
 40
0.0
  9
$COORDS
 70
     1
  9
$SPLFRAME
 70
     0
  9
$SPLINETYPE
 70
     6
  9
$SPLINESEGS
 70
     8
  9
$ATTDIA
 70
     0
  9
$ATTREQ
 70
     1
  9
$HANDLING
 70
     1
  9
$HANDSEED
  5
2CF
  9
$SURFTAB1
 70
     6
  9
$SURFTAB2
 70
     6
  9
$SURFTYPE
 70
     6
  9
$SURFU
 70
     6
  9
$SURFV
 70
     6
  9
$UCSNAME
  2

  9
$UCSORG
 10
0.0
 20
0.0
 30
0.0
  9
$UCSXDIR
 10
1.0
 20
0.0
 30
0.0
  9
$UCSYDIR
 10
0.0
 20
1.0
 30
0.0
  9
$PUCSNAME
  2

  9
$PUCSORG
 10
0.0
 20
0.0
 30
0.0
  9
$PUCSXDIR
 10
1.0
 20
0.0
 30
0.0
  9
$PUCSYDIR
 10
0.0
 20
1.0
 30
0.0
  9
$USERI1
 70
     0
  9
$USERI2
 70
     0
  9
$USERI3
 70
     0
  9
$USERI4
 70
     0
  9
$USERI5
 70
     0
  9
$USERR1
 40
0.0
  9
$USERR2
 40
0.0
  9
$USERR3
 40
0.0
  9
$USERR4
 40
0.0
  9
$USERR5
 40
0.0
  9
$WORLDVIEW
 70
     1
  9
$SHADEDGE
 70
     3
  9
$SHADEDIF
 70
    70
  9
$TILEMODE
 70
     1
  9
$MAXACTVP
 70
    64
  9
$PINSBASE
 10
0.0
 20
0.0
 30
0.0
  9
$PLIMCHECK
 70
     0
  9
$PEXTMIN
 10
1.000000000000000E+20
 20
1.000000000000000E+20
 30
1.000000000000000E+20
  9
$PEXTMAX
 10
-1.000000000000000E+20
 20
-1.000000000000000E+20
 30
-1.000000000000000E+20
  9
$PLIMMIN
 10
0.0
 20
0.0
  9
$PLIMMAX
 10
12.0
 20
9.0
  9
$UNITMODE
 70
     0
  9
$VISRETAIN
 70
     1
  9
$PLINEGEN
 70
     0
  9
$PSLTSCALE
 70
     1
  9
$TREEDEPTH
 70
  3020
  9
$PICKSTYLE
 70
     1
  9
$CMLSTYLE
  2
STANDARD
  9
$CMLJUST
 70
     0
  9
$CMLSCALE
 40
1.0
  9
$SAVEIMAGES
 70
     1
  0
ENDSEC
  0
SECTION
  2
CLASSES
  0
CLASS
  1
ACDBDICTIONARYWDFLT
  2
AcDbDictionaryWithDefault
  3
ObjectDBX Classes
 90
    32768
280
     0
281
     0
  0
CLASS
  1
VISUALSTYLE
  2
AcDbVisualStyle
  3
ObjectDBX Classes
 90
     4095
280
     0
281
     0
  0
CLASS
  1
MATERIAL
  2
AcDbMaterial
  3
ObjectDBX Classes
 90
     1153
280
     0
281
     0
  0
CLASS
  1
SUN
  2
AcDbSun
  3
SCENEOE
 90
     1024
280
     0
281
     0
  0
CLASS
  1
DICTIONARYVAR
  2
AcDbDictionaryVar
  3
ObjectDBX Classes
 90
        0
280
     0
281
     0
  0
CLASS
  1
XRECORD
  2
AcDbXrecord
  3
AutoCAD 2000
 90
    32768
280
     0
281
     0
  0
CLASS
  1
LWPOLYLINE
  2
AcDbPolyline
  3
AutoCAD 2000
 90
    32768
280
     0
281
     1
  0
CLASS
  1
HATCH
  2
AcDbHatch
  3
AutoCAD 2000
 90
    32768
280
     0
281
     1
  0
CLASS
  1
ACDBPLACEHOLDER
  2
AcDbPlaceHolder
  3
ObjectDBX Classes
 90
        0
280
     0
281
     0
  0
CLASS
  1
LAYOUT
  2
AcDbLayout
  3
ObjectDBX Classes
 90
        0
280
     0
281
     0
  0
ENDSEC
  0
SECTION
  2
TABLES
  0
TABLE
  2
VPORT
  5
8
330
0
100
AcDbSymbolTable
 70
     1
  0
VPORT
  5
29
330
8
100
AcDbSymbolTableRecord
100
AcDbViewportTableRecord
  2
*ACTIVE
 70
     0
 10
0.0
 20
0.0
 11
1.0
 21
1.0
 12
0.0
 22
0.0
 13
0.0
 23
0.0
 14
0.5
 24
0.5
 15
0.5
 25
0.5
 16
0.0
 26
0.0
 36
1.0
 17
-0.0000000000003126
 27
0.0
 37
0.0
 40
209.9999999474998
 41
1.414285714285718
 42
50.0
 43
0.0
 44
0.0
 50
0.0
 51
0.0
 71
     0
 72
   100
 73
     1
 74
     3
 75
     0
 76
     0
 77
     0
 78
     0
  0
ENDTAB
  0
TABLE
  2
LTYPE
  5
5
330
0
100
AcDbSymbolTable
 70
     1
  0
LTYPE
  5
14
330
5
100
AcDbSymbolTableRecord
100
AcDbLinetypeTableRecord
  2
BYBLOCK
 70
     0
  3

 72
    65
 73
     0
 40
0.0
  0
LTYPE
  5
15
330
5
100
AcDbSymbolTableRecord
100
AcDbLinetypeTableRecord
  2
BYLAYER
 70
     0
  3

 72
    65
 73
     0
 40
0.0
  0
LTYPE
  5
16
330
5
100
AcDbSymbolTableRecord
100
AcDbLinetypeTableRecord
  2
CONTINUOUS
 70
     0
  3
Solid line
 72
    65
 73
     0
 40
0.0
  0
ENDTAB
  0
TABLE
  2
LAYER
  5
2
330
0
100
AcDbSymbolTable
 70
     3
  0
LAYER
  5
10
330
2
100
AcDbSymbolTableRecord
100
AcDbLayerTableRecord
  2
0
 70
     0
 62
     7
  6
CONTINUOUS
  0
LAYER
  5
40
330
2
100
AcDbSymbolTableRecord
100
AcDbLayerTableRecord
  2
_U_5F6B_U_523B_U_30D1_U_30
 70
     0
 62
     7
  6
CONTINUOUS
  0
LAYER
  5
41
330
2
100
AcDbSymbolTableRecord
100
AcDbLayerTableRecord
  2
_U_5207_U_65AD_U_30D1_U_30
 70
     0
 62
     7
  6
CONTINUOUS
  0
ENDTAB
  0
TABLE
  2
STYLE
  5
3
330
0
100
AcDbSymbolTable
 70
     1
  0
STYLE
  5
11
330
3
100
AcDbSymbolTableRecord
100
AcDbTextStyleTableRecord
  2
STANDARD
 70
     0
 40
0.0
 41
1.0
 50
0.0
 71
     0
 42
0.2
  3
txt
  4

  0
ENDTAB
  0
TABLE
  2
VIEW
  5
6
330
0
100
AcDbSymbolTable
 70
     0
  0
ENDTAB
  0
TABLE
  2
UCS
  5
7
330
0
100
AcDbSymbolTable
 70
     0
  0
ENDTAB
  0
TABLE
  2
APPID
  5
9
330
0
100
AcDbSymbolTable
 70
     1
  0
APPID
  5
12
330
9
100
AcDbSymbolTableRecord
100
AcDbRegAppTableRecord
  2
ACAD
 70
     0
  0
ENDTAB
  0
TABLE
  2
DIMSTYLE
  5
A
330
0
100
AcDbSymbolTable
 70
     1
  0
DIMSTYLE
105
27
330
A
100
AcDbSymbolTableRecord
100
AcDbDimStyleTableRecord
  2
STANDARD
 70
     0
  3

  4

  5

  6

  7

 40
1.0
 41
0.18
 42
0.0625
 43
0.38
 44
0.18
 45
0.0
 46
0.0
 47
0.0
 48
0.0
140
0.18
141
0.09
142
0.0
143
25.4
144
1.0
145
0.0
146
1.0
147
0.09
 71
     0
 72
     0
 73
     1
 74
     1
 75
     0
 76
     0
 77
     0
 78
     0
170
     0
171
     2
172
     0
173
     0
174
     0
175
     0
176
     0
177
     0
178
     0
270
     2
271
     4
272
     4
273
     2
274
     2
340
11
275
     0
280
     0
281
     0
282
     0
283
     1
284
     0
285
     0
286
     0
287
     3
288
     0
  0
ENDTAB
  0
TABLE
  2
BLOCK_RECORD
  5
1
330
0
100
AcDbSymbolTable
 70
    77
  0
BLOCK_RECORD
  5
1F
330
1
100
AcDbSymbolTableRecord
100
AcDbBlockTableRecord
  2
*MODEL_SPACE
  0
BLOCK_RECORD
  5
1B
330
1
100
AcDbSymbolTableRecord
100
AcDbBlockTableRecord
  2
*PAPER_SPACE
  0
BLOCK_RECORD
  5
42
330
1
100
AcDbSymbolTableRecord
100
AcDbBlockTableRecord
  2
BLOCK_2
  0
BLOCK_RECORD
  5
46
330
1
100
AcDbSymbolTableRecord
100
AcDbBlockTableRecord
  2
BLOCK_3
  0
BLOCK_RECORD
  5
4B
330
1
100
AcDbSymbolTableRecord
100
AcDbBlockTableRecord
  2
BLOCK_4
  0
BLOCK_RECORD
  5
50
330
1
100
AcDbSymbolTableRecord
100
AcDbBlockTableRecord
  2
BLOCK_5
  0
BLOCK_RECORD
  5
55
330
1
100
AcDbSymbolTableRecord
100
AcDbBlockTableRecord
  2
BLOCK_6
  0
BLOCK_RECORD
  5
59
330
1
100
AcDbSymbolTableRecord
100
AcDbBlockTableRecord
  2
BLOCK_7
  0
BLOCK_RECORD
  5
5E
330
1
100
AcDbSymbolTableRecord
100
AcDbBlockTableRecord
  2
BLOCK_8
  0
BLOCK_RECORD
  5
63
330
1
100
AcDbSymbolTableRecord
100
AcDbBlockTableRecord
  2
BLOCK_9
  0
BLOCK_RECORD
  5
68
330
1
100
AcDbSymbolTableRecord
100
AcDbBlockTableRecord
  2
BLOCK_10
  0
BLOCK_RECORD
  5
6C
330
1
100
AcDbSymbolTableRecord
100
AcDbBlockTableRecord
  2
BLOCK_11
  0
BLOCK_RECORD
  5
70
330
1
100
AcDbSymbolTableRecord
100
AcDbBlockTableRecord
  2
BLOCK_12
  0
BLOCK_RECORD
  5
75
330
1
100
AcDbSymbolTableRecord
100
AcDbBlockTableRecord
  2
BLOCK_13
  0
BLOCK_RECORD
  5
7A
330
1
100
AcDbSymbolTableRecord
100
AcDbBlockTableRecord
  2
BLOCK_14
  0
BLOCK_RECORD
  5
7F
330
1
100
AcDbSymbolTableRecord
100
AcDbBlockTableRecord
  2
BLOCK_15
  0
BLOCK_RECORD
  5
84
330
1
100
AcDbSymbolTableRecord
100
AcDbBlockTableRecord
  2
BLOCK_16
  0
BLOCK_RECORD
  5
89
330
1
100
AcDbSymbolTableRecord
100
AcDbBlockTableRecord
  2
BLOCK_17
  0
BLOCK_RECORD
  5
94
330
1
100
AcDbSymbolTableRecord
100
AcDbBlockTableRecord
  2
BLOCK_18
  0
BLOCK_RECORD
  5
9F
330
1
100
AcDbSymbolTableRecord
100
AcDbBlockTableRecord
  2
BLOCK_19
  0
BLOCK_RECORD
  5
AA
330
1
100
AcDbSymbolTableRecord
100
AcDbBlockTableRecord
  2
BLOCK_20
  0
BLOCK_RECORD
  5
B5
330
1
100
AcDbSymbolTableRecord
100
AcDbBlockTableRecord
  2
BLOCK_21
  0
BLOCK_RECORD
  5
C0
330
1
100
AcDbSymbolTableRecord
100
AcDbBlockTableRecord
  2
BLOCK_22
  0
BLOCK_RECORD
  5
CB
330
1
100
AcDbSymbolTableRecord
100
AcDbBlockTableRecord
  2
BLOCK_23
  0
BLOCK_RECORD
  5
D6
330
1
100
AcDbSymbolTableRecord
100
AcDbBlockTableRecord
  2
BLOCK_24
  0
BLOCK_RECORD
  5
E1
330
1
100
AcDbSymbolTableRecord
100
AcDbBlockTableRecord
  2
BLOCK_25
  0
BLOCK_RECORD
  5
EC
330
1
100
AcDbSymbolTableRecord
100
AcDbBlockTableRecord
  2
BLOCK_26
  0
BLOCK_RECORD
  5
F7
330
1
100
AcDbSymbolTableRecord
100
AcDbBlockTableRecord
  2
BLOCK_27
  0
BLOCK_RECORD
  5
102
330
1
100
AcDbSymbolTableRecord
100
AcDbBlockTableRecord
  2
BLOCK_28
  0
BLOCK_RECORD
  5
10D
330
1
100
AcDbSymbolTableRecord
100
AcDbBlockTableRecord
  2
BLOCK_29
  0
BLOCK_RECORD
  5
118
330
1
100
AcDbSymbolTableRecord
100
AcDbBlockTableRecord
  2
BLOCK_30
  0
BLOCK_RECORD
  5
123
330
1
100
AcDbSymbolTableRecord
100
AcDbBlockTableRecord
  2
BLOCK_31
  0
BLOCK_RECORD
  5
12E
330
1
100
AcDbSymbolTableRecord
100
AcDbBlockTableRecord
  2
BLOCK_32
  0
BLOCK_RECORD
  5
139
330
1
100
AcDbSymbolTableRecord
100
AcDbBlockTableRecord
  2
BLOCK_33
  0
BLOCK_RECORD
  5
144
330
1
100
AcDbSymbolTableRecord
100
AcDbBlockTableRecord
  2
BLOCK_34
  0
BLOCK_RECORD
  5
14F
330
1
100
AcDbSymbolTableRecord
100
AcDbBlockTableRecord
  2
BLOCK_35
  0
BLOCK_RECORD
  5
15A
330
1
100
AcDbSymbolTableRecord
100
AcDbBlockTableRecord
  2
BLOCK_36
  0
BLOCK_RECORD
  5
165
330
1
100
AcDbSymbolTableRecord
100
AcDbBlockTableRecord
  2
BLOCK_37
  0
BLOCK_RECORD
  5
178
330
1
100
AcDbSymbolTableRecord
100
AcDbBlockTableRecord
  2
BLOCK_38
  0
BLOCK_RECORD
  5
17C
330
1
100
AcDbSymbolTableRecord
100
AcDbBlockTableRecord
  2
BLOCK_39
  0
BLOCK_RECORD
  5
180
330
1
100
AcDbSymbolTableRecord
100
AcDbBlockTableRecord
  2
BLOCK_40
  0
BLOCK_RECORD
  5
185
330
1
100
AcDbSymbolTableRecord
100
AcDbBlockTableRecord
  2
BLOCK_41
  0
BLOCK_RECORD
  5
18A
330
1
100
AcDbSymbolTableRecord
100
AcDbBlockTableRecord
  2
BLOCK_42
  0
BLOCK_RECORD
  5
18F
330
1
100
AcDbSymbolTableRecord
100
AcDbBlockTableRecord
  2
BLOCK_43
  0
BLOCK_RECORD
  5
194
330
1
100
AcDbSymbolTableRecord
100
AcDbBlockTableRecord
  2
BLOCK_44
  0
BLOCK_RECORD
  5
19A
330
1
100
AcDbSymbolTableRecord
100
AcDbBlockTableRecord
  2
BLOCK_45
  0
BLOCK_RECORD
  5
19E
330
1
100
AcDbSymbolTableRecord
100
AcDbBlockTableRecord
  2
BLOCK_46
  0
BLOCK_RECORD
  5
1A2
330
1
100
AcDbSymbolTableRecord
100
AcDbBlockTableRecord
  2
BLOCK_47
  0
BLOCK_RECORD
  5
1A7
330
1
100
AcDbSymbolTableRecord
100
AcDbBlockTableRecord
  2
BLOCK_48
  0
BLOCK_RECORD
  5
1AC
330
1
100
AcDbSymbolTableRecord
100
AcDbBlockTableRecord
  2
BLOCK_49
  0
BLOCK_RECORD
  5
1B1
330
1
100
AcDbSymbolTableRecord
100
AcDbBlockTableRecord
  2
BLOCK_50
  0
BLOCK_RECORD
  5
1B6
330
1
100
AcDbSymbolTableRecord
100
AcDbBlockTableRecord
  2
BLOCK_51
  0
BLOCK_RECORD
  5
1BB
330
1
100
AcDbSymbolTableRecord
100
AcDbBlockTableRecord
  2
BLOCK_52
  0
BLOCK_RECORD
  5
1C6
330
1
100
AcDbSymbolTableRecord
100
AcDbBlockTableRecord
  2
BLOCK_53
  0
BLOCK_RECORD
  5
1D1
330
1
100
AcDbSymbolTableRecord
100
AcDbBlockTableRecord
  2
BLOCK_54
  0
BLOCK_RECORD
  5
1DC
330
1
100
AcDbSymbolTableRecord
100
AcDbBlockTableRecord
  2
BLOCK_55
  0
BLOCK_RECORD
  5
1E7
330
1
100
AcDbSymbolTableRecord
100
AcDbBlockTableRecord
  2
BLOCK_56
  0
BLOCK_RECORD
  5
1F2
330
1
100
AcDbSymbolTableRecord
100
AcDbBlockTableRecord
  2
BLOCK_57
  0
BLOCK_RECORD
  5
1FD
330
1
100
AcDbSymbolTableRecord
100
AcDbBlockTableRecord
  2
BLOCK_58
  0
BLOCK_RECORD
  5
208
330
1
100
AcDbSymbolTableRecord
100
AcDbBlockTableRecord
  2
BLOCK_59
  0
BLOCK_RECORD
  5
213
330
1
100
AcDbSymbolTableRecord
100
AcDbBlockTableRecord
  2
BLOCK_60
  0
BLOCK_RECORD
  5
21E
330
1
100
AcDbSymbolTableRecord
100
AcDbBlockTableRecord
  2
BLOCK_61
  0
BLOCK_RECORD
  5
229
330
1
100
AcDbSymbolTableRecord
100
AcDbBlockTableRecord
  2
BLOCK_62
  0
BLOCK_RECORD
  5
234
330
1
100
AcDbSymbolTableRecord
100
AcDbBlockTableRecord
  2
BLOCK_63
  0
BLOCK_RECORD
  5
23F
330
1
100
AcDbSymbolTableRecord
100
AcDbBlockTableRecord
  2
BLOCK_64
  0
BLOCK_RECORD
  5
24A
330
1
100
AcDbSymbolTableRecord
100
AcDbBlockTableRecord
  2
BLOCK_65
  0
BLOCK_RECORD
  5
255
330
1
100
AcDbSymbolTableRecord
100
AcDbBlockTableRecord
  2
BLOCK_66
  0
BLOCK_RECORD
  5
260
330
1
100
AcDbSymbolTableRecord
100
AcDbBlockTableRecord
  2
BLOCK_67
  0
BLOCK_RECORD
  5
26B
330
1
100
AcDbSymbolTableRecord
100
AcDbBlockTableRecord
  2
BLOCK_68
  0
BLOCK_RECORD
  5
276
330
1
100
AcDbSymbolTableRecord
100
AcDbBlockTableRecord
  2
BLOCK_69
  0
BLOCK_RECORD
  5
281
330
1
100
AcDbSymbolTableRecord
100
AcDbBlockTableRecord
  2
BLOCK_70
  0
BLOCK_RECORD
  5
28C
330
1
100
AcDbSymbolTableRecord
100
AcDbBlockTableRecord
  2
BLOCK_71
  0
BLOCK_RECORD
  5
297
330
1
100
AcDbSymbolTableRecord
100
AcDbBlockTableRecord
  2
BLOCK_72
  0
BLOCK_RECORD
  5
2AA
330
1
100
AcDbSymbolTableRecord
100
AcDbBlockTableRecord
  2
BLOCK_73
  0
BLOCK_RECORD
  5
2AF
330
1
100
AcDbSymbolTableRecord
100
AcDbBlockTableRecord
  2
BLOCK_74
  0
BLOCK_RECORD
  5
2B4
330
1
100
AcDbSymbolTableRecord
100
AcDbBlockTableRecord
  2
BLOCK_75
  0
BLOCK_RECORD
  5
2B9
330
1
100
AcDbSymbolTableRecord
100
AcDbBlockTableRecord
  2
BLOCK_76
  0
BLOCK_RECORD
  5
2BE
330
1
100
AcDbSymbolTableRecord
100
AcDbBlockTableRecord
  2
BLOCK_77
  0
ENDTAB
  0
ENDSEC
  0
SECTION
  2
BLOCKS
  0
BLOCK
  5
20
330
1F
100
AcDbEntity
  8
0
100
AcDbBlockBegin
  2
*MODEL_SPACE
 70
     0
 10
0.0
 20
0.0
 30
0.0
  3
*MODEL_SPACE
  1

  0
ENDBLK
  5
21
330
1F
100
AcDbEntity
  8
0
100
AcDbBlockEnd
  0
BLOCK
  5
1C
330
1B
100
AcDbEntity
 67
     1
  8
0
100
AcDbBlockBegin
  2
*PAPER_SPACE
 70
     0
 10
0.0
 20
0.0
 30
0.0
  3
*PAPER_SPACE
  1

  0
ENDBLK
  5
1D
330
1B
100
AcDbEntity
 67
     1
  8
0
100
AcDbBlockEnd
  0
BLOCK
  5
44
330
42
100
AcDbEntity
  8
0
100
AcDbBlockBegin
  2
BLOCK_2
 70
     0
 10
0.0
 20
0.0
 30
0.0
  3
BLOCK_2
  1

  0
INSERT
  5
47
330
42
100
AcDbEntity
  8
_U_5207_U_65AD_U_30D1_U_30
100
AcDbBlockReference
  2
BLOCK_3
 10
0.0
 20
0.0
 30
0.0
  0
INSERT
  5
4C
330
42
100
AcDbEntity
  8
_U_5207_U_65AD_U_30D1_U_30
100
AcDbBlockReference
  2
BLOCK_4
 10
0.0
 20
0.0
 30
0.0
  0
INSERT
  5
51
330
42
100
AcDbEntity
  8
_U_5207_U_65AD_U_30D1_U_30
100
AcDbBlockReference
  2
BLOCK_5
 10
0.0
 20
0.0
 30
0.0
  0
ENDBLK
  5
45
330
42
100
AcDbEntity
  8
0
100
AcDbBlockEnd
  0
BLOCK
  5
48
330
46
100
AcDbEntity
  8
0
100
AcDbBlockBegin
  2
BLOCK_3
 70
     0
 10
0.0
 20
0.0
 30
0.0
  3
BLOCK_3
  1

  0
SPLINE
  5
4A
330
46
100
AcDbEntity
  8
_U_5207_U_65AD_U_30D1_U_30
 62
     1
100
AcDbSpline
210
0.0
220
0.0
230
1.0
 70
    11
 71
     3
 72
    32
 73
    28
 74
     0
 42
0.0000000001
 43
0.0000000001
 12
1.0
 22
0.0
 32
0.0
 13
1.0
 23
0.0
 33
0.0
 40
0.0
 40
0.0
 40
0.0
 40
0.0
 40
1.0
 40
1.0
 40
1.0
 40
2.0
 40
2.0
 40
2.0
 40
3.0
 40
3.0
 40
3.0
 40
4.0
 40
4.0
 40
4.0
 40
5.0
 40
5.0
 40
5.0
 40
6.0
 40
6.0
 40
6.0
 40
7.0
 40
7.0
 40
7.0
 40
8.0
 40
8.0
 40
8.0
 40
9.0
 40
9.0
 40
9.0
 40
9.0
 10
68.65787512444537
 20
19.39395423765937
 30
0.0
 10
68.65787512444537
 20
19.39395423765937
 30
0.0
 10
21.30128840351627
 20
19.39395516657392
 30
0.0
 10
21.30128840351627
 20
19.39395516657392
 30
0.0
 10
20.77853747945311
 20
19.33410558440796
 30
0.0
 10
20.52013748589503
 20
19.09974901372969
 30
0.0
 10
20.21952429630576
 20
18.75506468841333
 30
0.0
 10
20.21952429630576
 20
18.75506468841333
 30
0.0
 10
9.36310888736286
 20
-0.0847251682318072
 30
0.0
 10
9.36310888736286
 20
-0.0847251682318072
 30
0.0
 10
9.192992014294662
 20
-0.4894289888734067
 30
0.0
 10
9.383162309501632
 20
-0.9554132311866349
 30
0.0
 10
9.787866130147725
 20
-1.125530104256116
 30
0.0
 10
9.847484714522754
 20
-1.150590720529681
 30
0.0
 10
9.909938829559458
 20
-1.168281990311858
 30
0.0
 10
9.973843546134965
 20
-1.178211607115289
 30
0.0
 10
9.973843546134965
 20
-1.178211607115289
 30
0.0
 10
68.64756583666234
 20
-1.177042934966268
 30
0.0
 10
68.64756583666234
 20
-1.177042934966268
 30
0.0
 10
68.92372779815214
 20
-1.177042770720832
 30
0.0
 10
69.14760116814848
 20
-0.9531691344315837
 30
0.0
 10
69.14760100390177
 20
-0.6770071729430636
 30
0.0
 10
69.14760100390177
 20
-0.6770071729430636
 30
0.0
 10
69.15840855264658
 20
18.89372677875938
 30
0.0
 10
69.15840855264658
 20
18.89372677875938
 30
0.0
 10
69.15804561151494
 20
19.16996374707025
 30
0.0
 10
68.9341122630452
 20
19.39376020812444
 30
0.0
 10
68.65787512444537
 20
19.39395423765937
 30
0.0
  0
ENDBLK
  5
49
330
46
100
AcDbEntity
  8
0
100
AcDbBlockEnd
  0
BLOCK
  5
4D
330
4B
100
AcDbEntity
  8
0
100
AcDbBlockBegin
  2
BLOCK_4
 70
     0
 10
0.0
 20
0.0
 30
0.0
  3
BLOCK_4
  1

  0
SPLINE
  5
4F
330
4B
100
AcDbEntity
  8
_U_5207_U_65AD_U_30D1_U_30
 62
     1
100
AcDbSpline
210
0.0
220
0.0
230
1.0
 70
    11
 71
     3
 72
    20
 73
    16
 74
     0
 42
0.0000000001
 43
0.0000000001
 12
1.0
 22
0.0
 32
0.0
 13
1.0
 23
0.0
 33
0.0
 40
0.0
 40
0.0
 40
0.0
 40
0.0
 40
1.0
 40
1.0
 40
1.0
 40
2.0
 40
2.0
 40
2.0
 40
3.0
 40
3.0
 40
3.0
 40
4.0
 40
4.0
 40
4.0
 40
5.0
 40
5.0
 40
5.0
 40
5.0
 10
21.68448351112275
 20
16.91673956949915
 30
0.0
 10
22.29203982639403
 20
16.91673993083988
 30
0.0
 10
22.78456182622742
 20
16.42421851685461
 30
0.0
 10
22.78456218756751
 20
15.81666220157756
 30
0.0
 10
22.78456254890696
 20
15.20910588630307
 30
0.0
 10
22.29204113492233
 20
14.71658388646839
 30
0.0
 10
21.68448481965169
 20
14.71658352512766
 30
0.0
 10
21.07692850437271
 20
14.71658316378693
 30
0.0
 10
20.58440650453867
 20
15.20910457777413
 30
0.0
 10
20.58440614319858
 20
15.81666089304798
 30
0.0
 10
20.5844057818585
 20
16.42421720832503
 30
0.0
 10
21.07692719584313
 20
16.91673920815843
 30
0.0
 10
21.68448351112275
 20
16.91673956949915
 30
0.0
 10
21.68448351112275
 20
16.91673956949915
 30
0.0
 10
21.68448351112275
 20
16.91673956949915
 30
0.0
 10
21.68448351112275
 20
16.91673956949915
 30
0.0
  0
ENDBLK
  5
4E
330
4B
100
AcDbEntity
  8
0
100
AcDbBlockEnd
  0
BLOCK
  5
52
330
50
100
AcDbEntity
  8
0
100
AcDbBlockBegin
  2
BLOCK_5
 70
     0
 10
0.0
 20
0.0
 30
0.0
  3
BLOCK_5
  1

  0
SPLINE
  5
54
330
50
100
AcDbEntity
  8
_U_5207_U_65AD_U_30D1_U_30
 62
     1
100
AcDbSpline
210
0.0
220
0.0
230
1.0
 70
    11
 71
     3
 72
    20
 73
    16
 74
     0
 42
0.0000000001
 43
0.0000000001
 12
1.0
 22
0.0
 32
0.0
 13
1.0
 23
0.0
 33
0.0
 40
0.0
 40
0.0
 40
0.0
 40
0.0
 40
1.0
 40
1.0
 40
1.0
 40
2.0
 40
2.0
 40
2.0
 40
3.0
 40
3.0
 40
3.0
 40
4.0
 40
4.0
 40
4.0
 40
5.0
 40
5.0
 40
5.0
 40
5.0
 10
13.1838892368085
 20
2.415706039545606
 30
0.0
 10
13.79144555208684
 20
2.415706400886977
 30
0.0
 10
14.28396755191189
 20
1.923184986898497
 30
0.0
 10
14.28396791325262
 20
1.315628671627217
 30
0.0
 10
14.28396827459271
 20
0.7080723563488794
 30
0.0
 10
13.79144686061578
 20
0.215550356512919
 30
0.0
 10
13.18389054533744
 20
0.2155499951728315
 30
0.0
 10
12.57633423005397
 20
0.2155496338308191
 30
0.0
 10
12.08381223022058
 20
0.7080710478192994
 30
0.0
 10
12.08381186888049
 20
1.315627363097637
 30
0.0
 10
12.08381150753976
 20
1.923183678369558
 30
0.0
 10
12.57633292152503
 20
2.415705678204877
 30
0.0
 10
13.1838892368085
 20
2.415706039545606
 30
0.0
 10
13.1838892368085
 20
2.415706039545606
 30
0.0
 10
13.1838892368085
 20
2.415706039545606
 30
0.0
 10
13.1838892368085
 20
2.415706039545606
 30
0.0
  0
ENDBLK
  5
53
330
50
100
AcDbEntity
  8
0
100
AcDbBlockEnd
  0
BLOCK
  5
57
330
55
100
AcDbEntity
  8
0
100
AcDbBlockBegin
  2
BLOCK_6
 70
     0
 10
0.0
 20
0.0
 30
0.0
  3
BLOCK_6
  1

  0
INSERT
  5
5A
330
55
100
AcDbEntity
  8
_U_5207_U_65AD_U_30D1_U_30
100
AcDbBlockReference
  2
BLOCK_7
 10
0.0
 20
0.0
 30
0.0
  0
INSERT
  5
5F
330
55
100
AcDbEntity
  8
_U_5207_U_65AD_U_30D1_U_30
100
AcDbBlockReference
  2
BLOCK_8
 10
0.0
 20
0.0
 30
0.0
  0
INSERT
  5
64
330
55
100
AcDbEntity
  8
_U_5207_U_65AD_U_30D1_U_30
100
AcDbBlockReference
  2
BLOCK_9
 10
0.0
 20
0.0
 30
0.0
  0
ENDBLK
  5
58
330
55
100
AcDbEntity
  8
0
100
AcDbBlockEnd
  0
BLOCK
  5
5B
330
59
100
AcDbEntity
  8
0
100
AcDbBlockBegin
  2
BLOCK_7
 70
     0
 10
0.0
 20
0.0
 30
0.0
  3
BLOCK_7
  1

  0
SPLINE
  5
5D
330
59
100
AcDbEntity
  8
_U_5207_U_65AD_U_30D1_U_30
 62
     1
100
AcDbSpline
210
0.0
220
0.0
230
1.0
 70
    11
 71
     3
 72
    32
 73
    28
 74
     0
 42
0.0000000001
 43
0.0000000001
 12
1.0
 22
0.0
 32
0.0
 13
1.0
 23
0.0
 33
0.0
 40
0.0
 40
0.0
 40
0.0
 40
0.0
 40
1.0
 40
1.0
 40
1.0
 40
2.0
 40
2.0
 40
2.0
 40
3.0
 40
3.0
 40
3.0
 40
4.0
 40
4.0
 40
4.0
 40
5.0
 40
5.0
 40
5.0
 40
6.0
 40
6.0
 40
6.0
 40
7.0
 40
7.0
 40
7.0
 40
8.0
 40
8.0
 40
8.0
 40
9.0
 40
9.0
 40
9.0
 40
9.0
 10
-126.0970020570475
 20
23.83832868820158
 30
0.0
 10
-126.0970020570475
 20
23.83832868820158
 30
0.0
 10
-78.74041533611812
 20
23.83832961073828
 30
0.0
 10
-78.74041533611812
 20
23.83832961073828
 30
0.0
 10
-78.21766441206329
 20
23.77848002850174
 30
0.0
 10
-77.95926441853601
 20
23.54412345778881
 30
0.0
 10
-77.65865122899294
 20
23.19943913243138
 30
0.0
 10
-77.65865122899294
 20
23.19943913243138
 30
0.0
 10
-66.80223582258796
 20
4.359649274323814
 30
0.0
 10
-66.80223582258796
 20
4.359649274323814
 30
0.0
 10
-66.63211894957496
 20
3.954945453659114
 30
0.0
 10
-66.82228924484417
 20
3.488961211372196
 30
0.0
 10
-67.22699306551335
 20
3.318844338357259
 30
0.0
 10
-67.2866116498916
 20
3.293783722092036
 30
0.0
 10
-67.3490657649312
 20
3.276092452318201
 30
0.0
 10
-67.41297048150798
 20
3.266162835523754
 30
0.0
 10
-67.41297048150798
 20
3.266162835523754
 30
0.0
 10
-126.0866927720354
 20
3.267331515575299
 30
0.0
 10
-126.0866927720354
 20
3.267331515575299
 30
0.0
 10
-126.3628547335252
 20
3.267331679857953
 30
0.0
 10
-126.5867281034901
 20
3.491205316177361
 30
0.0
 10
-126.5867279392068
 20
3.767367277665239
 30
0.0
 10
-126.5867279392068
 20
3.767367277665239
 30
0.0
 10
-126.5975354853171
 20
23.33810122936897
 30
0.0
 10
-126.5975354853171
 20
23.33810122936897
 30
0.0
 10
-126.5971725441473
 20
23.61433819767984
 30
0.0
 10
-126.3732391956473
 20
23.83813465870451
 30
0.0
 10
-126.0970020570475
 20
23.83832868820158
 30
0.0
  0
ENDBLK
  5
5C
330
59
100
AcDbEntity
  8
0
100
AcDbBlockEnd
  0
BLOCK
  5
60
330
5E
100
AcDbEntity
  8
0
100
AcDbBlockBegin
  2
BLOCK_8
 70
     0
 10
0.0
 20
0.0
 30
0.0
  3
BLOCK_8
  1

  0
SPLINE
  5
62
330
5E
100
AcDbEntity
  8
_U_5207_U_65AD_U_30D1_U_30
 62
     1
100
AcDbSpline
210
0.0
220
0.0
230
1.0
 70
    11
 71
     3
 72
    20
 73
    16
 74
     0
 42
0.0000000001
 43
0.0000000001
 12
1.0
 22
0.0
 32
0.0
 13
1.0
 23
0.0
 33
0.0
 40
0.0
 40
0.0
 40
0.0
 40
0.0
 40
1.0
 40
1.0
 40
1.0
 40
2.0
 40
2.0
 40
2.0
 40
3.0
 40
3.0
 40
3.0
 40
4.0
 40
4.0
 40
4.0
 40
5.0
 40
5.0
 40
5.0
 40
5.0
 10
-79.12361044405827
 20
21.36111401371485
 30
0.0
 10
-79.73116675932955
 20
21.36111437513708
 30
0.0
 10
-80.22368875922905
 20
20.8685929612179
 30
0.0
 10
-80.22368912065127
 20
20.26103664594084
 30
0.0
 10
-80.22368948207253
 20
19.65348033066636
 30
0.0
 10
-79.73116806815432
 20
19.16095833076558
 30
0.0
 10
-79.12361175288368
 20
19.16095796934336
 30
0.0
 10
-78.51605543760469
 20
19.16095760792049
 30
0.0
 10
-78.02353343770393
 20
19.6534790218416
 30
0.0
 10
-78.02353307628266
 20
20.2610353371148
 30
0.0
 10
-78.02353271486012
 20
20.86859165239186
 30
0.0
 10
-78.51605412877865
 20
21.36111365229199
 30
0.0
 10
-79.12361044405827
 20
21.36111401371485
 30
0.0
 10
-79.12361044405827
 20
21.36111401371485
 30
0.0
 10
-79.12361044405827
 20
21.36111401371485
 30
0.0
 10
-79.12361044405827
 20
21.36111401371485
 30
0.0
  0
ENDBLK
  5
61
330
5E
100
AcDbEntity
  8
0
100
AcDbBlockEnd
  0
BLOCK
  5
65
330
63
100
AcDbEntity
  8
0
100
AcDbBlockBegin
  2
BLOCK_9
 70
     0
 10
0.0
 20
0.0
 30
0.0
  3
BLOCK_9
  1

  0
SPLINE
  5
67
330
63
100
AcDbEntity
  8
_U_5207_U_65AD_U_30D1_U_30
 62
     1
100
AcDbSpline
210
0.0
220
0.0
230
1.0
 70
    11
 71
     3
 72
    20
 73
    16
 74
     0
 42
0.0000000001
 43
0.0000000001
 12
1.0
 22
0.0
 32
0.0
 13
1.0
 23
0.0
 33
0.0
 40
0.0
 40
0.0
 40
0.0
 40
0.0
 40
1.0
 40
1.0
 40
1.0
 40
2.0
 40
2.0
 40
2.0
 40
3.0
 40
3.0
 40
3.0
 40
4.0
 40
4.0
 40
4.0
 40
5.0
 40
5.0
 40
5.0
 40
5.0
 10
-70.62301617169672
 20
6.860080482616512
 30
0.0
 10
-71.23057248697505
 20
6.860080844040021
 30
0.0
 10
-71.72309448686684
 20
6.367559430117635
 30
0.0
 10
-71.72309484828907
 20
5.760003114846356
 30
0.0
 10
-71.72309520971129
 20
5.152446799568018
 30
0.0
 10
-71.23057379580045
 20
4.659924799665963
 30
0.0
 10
-70.62301748052212
 20
4.659924438243737
 30
0.0
 10
-70.01546116523865
 20
4.659924076819587
 30
0.0
 10
-69.52293916533917
 20
5.152445490741973
 30
0.0
 10
-69.52293880391693
 20
5.760001806020311
 30
0.0
 10
-69.5229384424947
 20
6.367558121292232
 30
0.0
 10
-70.01545985641324
 20
6.860080121194287
 30
0.0
 10
-70.62301617169672
 20
6.860080482616512
 30
0.0
 10
-70.62301617169672
 20
6.860080482616512
 30
0.0
 10
-70.62301617169672
 20
6.860080482616512
 30
0.0
 10
-70.62301617169672
 20
6.860080482616512
 30
0.0
  0
ENDBLK
  5
66
330
63
100
AcDbEntity
  8
0
100
AcDbBlockEnd
  0
BLOCK
  5
6A
330
68
100
AcDbEntity
  8
0
100
AcDbBlockBegin
  2
BLOCK_10
 70
     0
 10
0.0
 20
0.0
 30
0.0
  3
BLOCK_10
  1

  0
INSERT
  5
6D
330
68
100
AcDbEntity
  8
_U_5207_U_65AD_U_30D1_U_30
100
AcDbBlockReference
  2
BLOCK_11
 10
0.0
 20
0.0
 30
0.0
  0
SPLINE
  5
170
330
68
100
AcDbEntity
  8
_U_5207_U_65AD_U_30D1_U_30
 62
     1
100
AcDbSpline
210
0.0
220
0.0
230
1.0
 70
    11
 71
     3
 72
   176
 73
   172
 74
     0
 42
0.0000000001
 43
0.0000000001
 12
1.0
 22
0.0
 32
0.0
 13
1.0
 23
0.0
 33
0.0
 40
0.0
 40
0.0
 40
0.0
 40
0.0
 40
1.0
 40
1.0
 40
1.0
 40
2.0
 40
2.0
 40
2.0
 40
3.0
 40
3.0
 40
3.0
 40
4.0
 40
4.0
 40
4.0
 40
5.0
 40
5.0
 40
5.0
 40
6.0
 40
6.0
 40
6.0
 40
7.0
 40
7.0
 40
7.0
 40
8.0
 40
8.0
 40
8.0
 40
9.0
 40
9.0
 40
9.0
 40
10.0
 40
10.0
 40
10.0
 40
11.0
 40
11.0
 40
11.0
 40
12.0
 40
12.0
 40
12.0
 40
13.0
 40
13.0
 40
13.0
 40
14.0
 40
14.0
 40
14.0
 40
15.0
 40
15.0
 40
15.0
 40
16.0
 40
16.0
 40
16.0
 40
17.0
 40
17.0
 40
17.0
 40
18.0
 40
18.0
 40
18.0
 40
19.0
 40
19.0
 40
19.0
 40
20.0
 40
20.0
 40
20.0
 40
21.0
 40
21.0
 40
21.0
 40
22.0
 40
22.0
 40
22.0
 40
23.0
 40
23.0
 40
23.0
 40
24.0
 40
24.0
 40
24.0
 40
25.0
 40
25.0
 40
25.0
 40
26.0
 40
26.0
 40
26.0
 40
27.0
 40
27.0
 40
27.0
 40
28.0
 40
28.0
 40
28.0
 40
29.0
 40
29.0
 40
29.0
 40
30.0
 40
30.0
 40
30.0
 40
31.0
 40
31.0
 40
31.0
 40
32.0
 40
32.0
 40
32.0
 40
33.0
 40
33.0
 40
33.0
 40
34.0
 40
34.0
 40
34.0
 40
35.0
 40
35.0
 40
35.0
 40
36.0
 40
36.0
 40
36.0
 40
37.0
 40
37.0
 40
37.0
 40
38.0
 40
38.0
 40
38.0
 40
39.0
 40
39.0
 40
39.0
 40
40.0
 40
40.0
 40
40.0
 40
41.0
 40
41.0
 40
41.0
 40
42.0
 40
42.0
 40
42.0
 40
43.0
 40
43.0
 40
43.0
 40
44.0
 40
44.0
 40
44.0
 40
45.0
 40
45.0
 40
45.0
 40
46.0
 40
46.0
 40
46.0
 40
47.0
 40
47.0
 40
47.0
 40
48.0
 40
48.0
 40
48.0
 40
49.0
 40
49.0
 40
49.0
 40
50.0
 40
50.0
 40
50.0
 40
51.0
 40
51.0
 40
51.0
 40
52.0
 40
52.0
 40
52.0
 40
53.0
 40
53.0
 40
53.0
 40
54.0
 40
54.0
 40
54.0
 40
55.0
 40
55.0
 40
55.0
 40
56.0
 40
56.0
 40
56.0
 40
57.0
 40
57.0
 40
57.0
 40
57.0
 10
123.5197332588695
 20
-15.02732298637762
 30
0.0
 10
123.5197332588695
 20
-15.02732298637762
 30
0.0
 10
106.5185274614466
 20
-15.02732298561464
 30
0.0
 10
106.5185274614466
 20
-15.02732298561464
 30
0.0
 10
106.5185274614466
 20
-15.02732298561464
 30
0.0
 10
104.5183856029213
 20
-15.0273229855248
 30
0.0
 10
104.5183856029213
 20
-15.0273229855248
 30
0.0
 10
104.5183856029213
 20
-15.0273229855248
 30
0.0
 10
86.51710887624023
 20
-15.02732298471626
 30
0.0
 10
86.51710887624023
 20
-15.02732298471626
 30
0.0
 10
86.24094691474659
 20
-15.02732298470407
 30
0.0
 10
86.01707341161823
 20
-14.80344948154748
 30
0.0
 10
86.01707341163042
 20
-14.52728752006152
 30
0.0
 10
86.01707341163042
 20
-14.52728752006152
 30
0.0
 10
86.01707341179919
 20
-10.77702153533678
 30
0.0
 10
86.01707341179919
 20
-10.77702153533678
 30
0.0
 10
86.01707341181074
 20
-10.50085957384569
 30
0.0
 10
85.79319990867981
 20
-10.27698607069103
 30
0.0
 10
85.51703794718873
 20
-10.27698607067819
 30
0.0
 10
85.51703794718873
 20
-10.27698607067819
 30
0.0
 10
67.51576122050379
 20
-10.27698606987029
 30
0.0
 10
67.51576122050379
 20
-10.27698606987029
 30
0.0
 10
67.23959925901526
 20
-10.27698606985746
 30
0.0
 10
67.01572575588307
 20
-10.05311256671306
 30
0.0
 10
67.0157257558959
 20
-9.776950605223258
 30
0.0
 10
67.0157257558959
 20
-9.776950605223258
 30
0.0
 10
67.01572575595172
 20
-8.526861943645775
 30
0.0
 10
67.01572575595172
 20
-8.526861943645775
 30
0.0
 10
67.01572575596391
 20
-8.250699982149554
 30
0.0
 10
66.79185225283557
 20
-8.026826479000665
 30
0.0
 10
66.51569029134961
 20
-8.026826478988472
 30
0.0
 10
66.51569029134961
 20
-8.026826478988472
 30
0.0
 10
49.51448449391767
 20
-8.026826478224852
 30
0.0
 10
49.51448449391767
 20
-8.026826478224852
 30
0.0
 10
49.23832253243044
 20
-8.026826478212659
 30
0.0
 10
49.01444902928315
 20
-8.250699981341013
 30
0.0
 10
49.01444902927064
 20
-8.526861942837234
 30
0.0
 10
49.01444902927064
 20
-8.526861942837234
 30
0.0
 10
49.01444902921481
 20
-9.776950604414717
 30
0.0
 10
49.01444902921481
 20
-9.776950604414717
 30
0.0
 10
49.0144490292023
 20
-10.05311256590452
 30
0.0
 10
48.79057552604956
 20
-10.27698606902967
 30
0.0
 10
48.51441356456104
 20
-10.27698606901683
 30
0.0
 10
48.51441356456104
 20
-10.27698606901683
 30
0.0
 10
30.51313683787481
 20
-10.27698606820893
 30
0.0
 10
30.51313683787481
 20
-10.27698606820893
 30
0.0
 10
30.2369748763863
 20
-10.27698606819674
 30
0.0
 10
30.01310137323131
 20
-10.50085957133151
 30
0.0
 10
30.01310137321911
 20
-10.7770215328226
 30
0.0
 10
30.01310137321911
 20
-10.7770215328226
 30
0.0
 10
30.01310137315174
 20
-12.27712792670916
 30
0.0
 10
30.01310137315174
 20
-12.27712792670916
 30
0.0
 10
30.01310137313923
 20
-12.55328988820282
 30
0.0
 10
29.78922786999322
 20
-12.77716339133117
 30
0.0
 10
29.51306590849829
 20
-12.77716339131898
 30
0.0
 10
29.51306590849829
 20
-12.77716339131898
 30
0.0
 10
11.51178918182105
 20
-12.77716339051044
 30
0.0
 10
11.51178918182105
 20
-12.77716339051044
 30
0.0
 10
11.23562722032483
 20
-12.77716339049825
 30
0.0
 10
11.01175371717594
 20
-13.00103689362981
 30
0.0
 10
11.01175371716375
 20
-13.2771988551209
 30
0.0
 10
11.01175371716375
 20
-13.2771988551209
 30
0.0
 10
11.01175371710824
 20
-14.51179269321755
 30
0.0
 10
11.01175371710824
 20
-14.51179269321755
 30
0.0
 10
11.01175371710824
 20
-14.51179269321755
 30
0.0
 10
11.0124492417017
 20
-30.77255363591565
 30
0.0
 10
11.0124492417017
 20
-30.77255363591565
 30
0.0
 10
11.0124492417017
 20
-30.77255363591565
 30
0.0
 10
11.01224520389519
 20
-63.06537913740799
 30
0.0
 10
11.01224520389519
 20
-63.06537913740799
 30
0.0
 10
10.93019652144722
 20
-63.44872716512909
 30
0.0
 10
10.72739762196088
 20
-63.79566843716023
 30
0.0
 10
10.43362748359132
 20
-64.05525811809761
 30
0.0
 10
10.43362748359132
 20
-64.05525811809761
 30
0.0
 10
-8.643321746446517
 20
-75.0926358467017
 30
0.0
 10
-8.643321746446517
 20
-75.0926358467017
 30
0.0
 10
-9.170739201117218
 20
-75.48901531219103
 30
0.0
 10
-9.33282696892967
 20
-76.20940539119128
 30
0.0
 10
-9.026013228057298
 20
-76.79348687572245
 30
0.0
 10
-9.026013228057298
 20
-76.79348687572245
 30
0.0
 10
4.211271394305355
 20
-99.83333778229245
 30
0.0
 10
4.211271394305355
 20
-99.83333778229245
 30
0.0
 10
4.216016149984582
 20
-99.84048936929351
 30
0.0
 10
4.220866216648856
 20
-99.84757052608516
 30
0.0
 10
4.225820009175779
 20
-99.85457893836764
 30
0.0
 10
4.503827291327088
 20
-100.2478916660931
 30
0.0
 10
5.048039685853875
 20
-100.3413651984125
 30
0.0
 10
5.441352413586031
 20
-100.0633579162551
 30
0.0
 10
5.441352413586031
 20
-100.0633579162551
 30
0.0
 10
20.19102161631213
 20
-91.57383359128899
 30
0.0
 10
20.19102161631213
 20
-91.57383359128899
 30
0.0
 10
20.2822547376296
 20
-91.54211459726528
 30
0.0
 10
20.37595628995707
 20
-91.51799997462172
 30
0.0
 10
20.47116700137551
 20
-91.50173659739306
 30
0.0
 10
20.47116700137551
 20
-91.50173659739306
 30
0.0
 10
57.26503419218283
 20
-86.03235896088367
 30
0.0
 10
57.26503419218283
 20
-86.03235896088367
 30
0.0
 10
57.39428155612021
 20
-86.01923845932248
 30
0.0
 10
57.51642185151326
 20
-85.96689261844259
 30
0.0
 10
57.61505901743236
 20
-85.8823483215067
 30
0.0
 10
57.61505901743236
 20
-85.8823483215067
 30
0.0
 10
68.1658073217794
 20
-71.42309593512284
 30
0.0
 10
68.16225367914898
 20
-71.42776975153828
 30
0.0
 10
68.25602851928429
 20
-71.33399491141324
 30
0.0
 10
68.38321449630087
 20
-71.28131275479815
 30
0.0
 10
68.51583214702829
 20
-71.28131275480392
 30
0.0
 10
68.51583214702829
 20
-71.28131275480392
 30
0.0
 10
104.5183856003956
 20
-71.28131275642036
 30
0.0
 10
104.5183856003956
 20
-71.28131275642036
 30
0.0
 10
104.5183856003956
 20
-71.28131275642036
 30
0.0
 10
106.5185274589157
 20
-71.2813127565102
 30
0.0
 10
106.5185274589157
 20
-71.2813127565102
 30
0.0
 10
106.5185274589157
 20
-71.2813127565102
 30
0.0
 10
123.5197332563438
 20
-71.28131275727318
 30
0.0
 10
123.5197332563438
 20
-71.28131275727318
 30
0.0
 10
123.5197332563438
 20
-71.28131275727318
 30
0.0
 10
123.4801488216555
 20
-71.27969183847026
 30
0.0
 10
123.4801488216555
 20
-71.27969183847026
 30
0.0
 10
123.4801488216555
 20
-71.27969183847026
 30
0.0
 10
123.4910875158178
 20
-71.28067261644651
 30
0.0
 10
123.4910875158178
 20
-71.28067261644651
 30
0.0
 10
123.7672536369137
 20
-71.2806726164587
 30
0.0
 10
123.9911350510695
 20
-71.05680600546808
 30
0.0
 10
123.991151872837
 20
-70.78063853863173
 30
0.0
 10
123.991151872837
 20
-70.78063853863173
 30
0.0
 10
123.9819077934975
 20
-69.96660015619842
 30
0.0
 10
123.9819077934975
 20
-69.96660015619842
 30
0.0
 10
123.9819077934975
 20
-69.96660015619842
 30
0.0
 10
123.9819163389074
 20
-69.96660021900023
 30
0.0
 10
123.9819163389074
 20
-69.96660021900023
 30
0.0
 10
123.9819163389074
 20
-69.96660021900023
 30
0.0
 10
123.9987335735099
 20
-47.88840906601445
 30
0.0
 10
123.9987335735099
 20
-47.88840906601445
 30
0.0
 10
123.9987335735105
 20
-47.8862854876255
 30
0.0
 10
123.9912620226595
 20
-48.26241186166956
 30
0.0
 10
124.0011882040437
 20
-47.88282693473601
 30
0.0
 10
124.0111143854222
 20
-47.6298263892982
 30
0.0
 10
124.276558992569
 20
-47.44911901944457
 30
0.0
 10
124.4779463555286
 20
-47.44716500435802
 30
0.0
 10
124.6793337184883
 20
-47.44520964353104
 30
0.0
 10
124.4811546006993
 20
-47.44518542019443
 30
0.0
 10
124.4830494032162
 20
-47.44518676593549
 30
0.0
 10
124.4830494032162
 20
-47.44518676593549
 30
0.0
 10
142.6195177349993
 20
-47.44822141140511
 30
0.0
 10
142.8618263727697
 20
-47.44737090346811
 30
0.0
 10
143.1041457764634
 20
-47.4465203955311
 30
0.0
 10
143.3962468099274
 20
-47.25698900571972
 30
0.0
 10
143.3962468099409
 20
-46.96290569661966
 30
0.0
 10
143.3962468099486
 20
-46.77386281056869
 30
0.0
 10
143.3559284274959
 20
-32.34086001376337
 30
0.0
 10
143.3480585376251
 20
-29.49081057176012
 30
0.0
 10
143.3472080296913
 20
-29.182549887294
 30
0.0
 10
143.1200793439105
 20
-29.00500904463606
 30
0.0
 10
142.8710420040205
 20
-29.00579226555188
 30
0.0
 10
142.6552821333334
 20
-29.00647051871591
 30
0.0
 10
127.5052594184794
 20
-29.00010516583054
 30
0.0
 10
124.3924864564755
 20
-29.00489061863813
 30
0.0
 10
124.1123378778268
 20
-29.00131316561212
 30
0.0
 10
123.9911543642964
 20
-28.87472921158101
 30
0.0
 10
123.9911543643067
 20
-28.64646073115009
 30
0.0
 10
123.9911543643169
 20
-28.41819225071918
 30
0.0
 10
123.9911543648951
 20
-15.53428197432343
 30
0.0
 10
123.9911543648951
 20
-15.53428197432343
 30
0.0
 10
123.9911543649079
 20
-15.25394271217292
 30
0.0
 10
123.7638857221256
 20
-15.02669021825516
 30
0.0
 10
123.4835626088602
 20
-15.02669021824297
 30
0.0
 10
123.4835626088602
 20
-15.02669021824297
 30
0.0
 10
123.485866516466
 20
-15.02637800646462
 30
0.0
 10
123.485866516466
 20
-15.02637800646462
 30
0.0
 10
123.485866516466
 20
-15.02637800646462
 30
0.0
 10
123.5197332588695
 20
-15.02732298637762
 30
0.0
 10
123.5197332588695
 20
-15.02732298637762
 30
0.0
  0
POLYLINE
  5
171
330
68
100
AcDbEntity
  8
_U_5207_U_65AD_U_30D1_U_30
 62
     1
100
AcDb2dPolyline
 66
     1
 10
0.0
 20
0.0
 30
0.0
  0
VERTEX
  5
172
330
171
100
AcDbEntity
  8
_U_5207_U_65AD_U_30D1_U_30
 62
     1
100
AcDbVertex
100
AcDb2dVertex
 10
127.0884972371869
 20
-45.07273961075843
 30
0.0
  0
VERTEX
  5
173
330
171
100
AcDbEntity
  8
_U_5207_U_65AD_U_30D1_U_30
 62
     1
100
AcDbVertex
100
AcDb2dVertex
 10
127.0884972378088
 20
-31.22175724049841
 30
0.0
  0
VERTEX
  5
174
330
171
100
AcDbEntity
  8
_U_5207_U_65AD_U_30D1_U_30
 62
     1
100
AcDbVertex
100
AcDb2dVertex
 10
140.9394796080636
 20
-31.22175724112022
 30
0.0
  0
VERTEX
  5
175
330
171
100
AcDbEntity
  8
_U_5207_U_65AD_U_30D1_U_30
 62
     1
100
AcDbVertex
100
AcDb2dVertex
 10
140.9394796074418
 20
-45.07273961138024
 30
0.0
  0
VERTEX
  5
176
330
171
100
AcDbEntity
  8
_U_5207_U_65AD_U_30D1_U_30
 62
     1
100
AcDbVertex
100
AcDb2dVertex
 10
127.0884972371869
 20
-45.07273961075843
 30
0.0
  0
SEQEND
  5
177
330
171
100
AcDbEntity
  8
_U_5207_U_65AD_U_30D1_U_30
 62
     1
  0
ENDBLK
  5
6B
330
68
100
AcDbEntity
  8
0
100
AcDbBlockEnd
  0
BLOCK
  5
6E
330
6C
100
AcDbEntity
  8
0
100
AcDbBlockBegin
  2
BLOCK_11
 70
     0
 10
0.0
 20
0.0
 30
0.0
  3
BLOCK_11
  1

  0
INSERT
  5
71
330
6C
100
AcDbEntity
  8
_U_5207_U_65AD_U_30D1_U_30
100
AcDbBlockReference
  2
BLOCK_12
 10
0.0
 20
0.0
 30
0.0
  0
INSERT
  5
76
330
6C
100
AcDbEntity
  8
_U_5207_U_65AD_U_30D1_U_30
100
AcDbBlockReference
  2
BLOCK_13
 10
0.0
 20
0.0
 30
0.0
  0
INSERT
  5
7B
330
6C
100
AcDbEntity
  8
_U_5207_U_65AD_U_30D1_U_30
100
AcDbBlockReference
  2
BLOCK_14
 10
0.0
 20
0.0
 30
0.0
  0
INSERT
  5
80
330
6C
100
AcDbEntity
  8
_U_5207_U_65AD_U_30D1_U_30
100
AcDbBlockReference
  2
BLOCK_15
 10
0.0
 20
0.0
 30
0.0
  0
INSERT
  5
85
330
6C
100
AcDbEntity
  8
_U_5207_U_65AD_U_30D1_U_30
100
AcDbBlockReference
  2
BLOCK_16
 10
0.0
 20
0.0
 30
0.0
  0
INSERT
  5
8A
330
6C
100
AcDbEntity
  8
_U_5207_U_65AD_U_30D1_U_30
100
AcDbBlockReference
  2
BLOCK_17
 10
0.0
 20
0.0
 30
0.0
  0
INSERT
  5
95
330
6C
100
AcDbEntity
  8
_U_5207_U_65AD_U_30D1_U_30
100
AcDbBlockReference
  2
BLOCK_18
 10
0.0
 20
0.0
 30
0.0
  0
INSERT
  5
A0
330
6C
100
AcDbEntity
  8
_U_5207_U_65AD_U_30D1_U_30
100
AcDbBlockReference
  2
BLOCK_19
 10
0.0
 20
0.0
 30
0.0
  0
INSERT
  5
AB
330
6C
100
AcDbEntity
  8
_U_5207_U_65AD_U_30D1_U_30
100
AcDbBlockReference
  2
BLOCK_20
 10
0.0
 20
0.0
 30
0.0
  0
INSERT
  5
B6
330
6C
100
AcDbEntity
  8
_U_5207_U_65AD_U_30D1_U_30
100
AcDbBlockReference
  2
BLOCK_21
 10
0.0
 20
0.0
 30
0.0
  0
INSERT
  5
C1
330
6C
100
AcDbEntity
  8
_U_5207_U_65AD_U_30D1_U_30
100
AcDbBlockReference
  2
BLOCK_22
 10
0.0
 20
0.0
 30
0.0
  0
INSERT
  5
CC
330
6C
100
AcDbEntity
  8
_U_5207_U_65AD_U_30D1_U_30
100
AcDbBlockReference
  2
BLOCK_23
 10
0.0
 20
0.0
 30
0.0
  0
INSERT
  5
D7
330
6C
100
AcDbEntity
  8
_U_5207_U_65AD_U_30D1_U_30
100
AcDbBlockReference
  2
BLOCK_24
 10
0.0
 20
0.0
 30
0.0
  0
INSERT
  5
E2
330
6C
100
AcDbEntity
  8
_U_5207_U_65AD_U_30D1_U_30
100
AcDbBlockReference
  2
BLOCK_25
 10
0.0
 20
0.0
 30
0.0
  0
INSERT
  5
ED
330
6C
100
AcDbEntity
  8
_U_5207_U_65AD_U_30D1_U_30
100
AcDbBlockReference
  2
BLOCK_26
 10
0.0
 20
0.0
 30
0.0
  0
INSERT
  5
F8
330
6C
100
AcDbEntity
  8
_U_5207_U_65AD_U_30D1_U_30
100
AcDbBlockReference
  2
BLOCK_27
 10
0.0
 20
0.0
 30
0.0
  0
INSERT
  5
103
330
6C
100
AcDbEntity
  8
_U_5207_U_65AD_U_30D1_U_30
100
AcDbBlockReference
  2
BLOCK_28
 10
0.0
 20
0.0
 30
0.0
  0
INSERT
  5
10E
330
6C
100
AcDbEntity
  8
_U_5207_U_65AD_U_30D1_U_30
100
AcDbBlockReference
  2
BLOCK_29
 10
0.0
 20
0.0
 30
0.0
  0
INSERT
  5
119
330
6C
100
AcDbEntity
  8
_U_5207_U_65AD_U_30D1_U_30
100
AcDbBlockReference
  2
BLOCK_30
 10
0.0
 20
0.0
 30
0.0
  0
INSERT
  5
124
330
6C
100
AcDbEntity
  8
_U_5207_U_65AD_U_30D1_U_30
100
AcDbBlockReference
  2
BLOCK_31
 10
0.0
 20
0.0
 30
0.0
  0
INSERT
  5
12F
330
6C
100
AcDbEntity
  8
_U_5207_U_65AD_U_30D1_U_30
100
AcDbBlockReference
  2
BLOCK_32
 10
0.0
 20
0.0
 30
0.0
  0
INSERT
  5
13A
330
6C
100
AcDbEntity
  8
_U_5207_U_65AD_U_30D1_U_30
100
AcDbBlockReference
  2
BLOCK_33
 10
0.0
 20
0.0
 30
0.0
  0
INSERT
  5
145
330
6C
100
AcDbEntity
  8
_U_5207_U_65AD_U_30D1_U_30
100
AcDbBlockReference
  2
BLOCK_34
 10
0.0
 20
0.0
 30
0.0
  0
INSERT
  5
150
330
6C
100
AcDbEntity
  8
_U_5207_U_65AD_U_30D1_U_30
100
AcDbBlockReference
  2
BLOCK_35
 10
0.0
 20
0.0
 30
0.0
  0
INSERT
  5
15B
330
6C
100
AcDbEntity
  8
_U_5207_U_65AD_U_30D1_U_30
100
AcDbBlockReference
  2
BLOCK_36
 10
0.0
 20
0.0
 30
0.0
  0
INSERT
  5
166
330
6C
100
AcDbEntity
  8
_U_5207_U_65AD_U_30D1_U_30
100
AcDbBlockReference
  2
BLOCK_37
 10
0.0
 20
0.0
 30
0.0
  0
ENDBLK
  5
6F
330
6C
100
AcDbEntity
  8
0
100
AcDbBlockEnd
  0
BLOCK
  5
72
330
70
100
AcDbEntity
  8
0
100
AcDbBlockBegin
  2
BLOCK_12
 70
     0
 10
0.0
 20
0.0
 30
0.0
  3
BLOCK_12
  1

  0
SPLINE
  5
74
330
70
100
AcDbEntity
  8
_U_5207_U_65AD_U_30D1_U_30
 62
     1
100
AcDbSpline
210
0.0
220
0.0
230
1.0
 70
    11
 71
     3
 72
    20
 73
    16
 74
     0
 42
0.0000000001
 43
0.0000000001
 12
1.0
 22
0.0
 32
0.0
 13
1.0
 23
0.0
 33
0.0
 40
0.0
 40
0.0
 40
0.0
 40
0.0
 40
1.0
 40
1.0
 40
1.0
 40
2.0
 40
2.0
 40
2.0
 40
3.0
 40
3.0
 40
3.0
 40
4.0
 40
4.0
 40
4.0
 40
5.0
 40
5.0
 40
5.0
 40
5.0
 10
30.59385274503619
 20
-30.02831313739045
 30
0.0
 10
30.59385274506346
 20
-29.42075682211468
 30
0.0
 10
30.10133103817499
 20
-28.92823511518674
 30
0.0
 10
29.49377472289536
 20
-28.92823511515979
 30
0.0
 10
28.88621840761574
 20
-28.92823511513219
 30
0.0
 10
28.39369670069069
 20
-29.42075682201586
 30
0.0
 10
28.39369670066342
 20
-30.02831313729163
 30
0.0
 10
28.39369670063614
 20
-30.63586945257382
 30
0.0
 10
28.88621840751692
 20
-31.12839115950497
 30
0.0
 10
29.49377472279654
 20
-31.12839115953256
 30
0.0
 10
30.10133103807616
 20
-31.12839115955951
 30
0.0
 10
30.59385274500892
 20
-30.63586945267264
 30
0.0
 10
30.59385274503619
 20
-30.02831313739045
 30
0.0
 10
30.59385274503619
 20
-30.02831313739045
 30
0.0
 10
30.59385274503619
 20
-30.02831313739045
 30
0.0
 10
30.59385274503619
 20
-30.02831313739045
 30
0.0
  0
ENDBLK
  5
73
330
70
100
AcDbEntity
  8
0
100
AcDbBlockEnd
  0
BLOCK
  5
77
330
75
100
AcDbEntity
  8
0
100
AcDbBlockBegin
  2
BLOCK_13
 70
     0
 10
0.0
 20
0.0
 30
0.0
  3
BLOCK_13
  1

  0
SPLINE
  5
79
330
75
100
AcDbEntity
  8
_U_5207_U_65AD_U_30D1_U_30
 62
     1
100
AcDbSpline
210
0.0
220
0.0
230
1.0
 70
    11
 71
     3
 72
    20
 73
    16
 74
     0
 42
0.0000000001
 43
0.0000000001
 12
1.0
 22
0.0
 32
0.0
 13
1.0
 23
0.0
 33
0.0
 40
0.0
 40
0.0
 40
0.0
 40
0.0
 40
1.0
 40
1.0
 40
1.0
 40
2.0
 40
2.0
 40
2.0
 40
3.0
 40
3.0
 40
3.0
 40
4.0
 40
4.0
 40
4.0
 40
5.0
 40
5.0
 40
5.0
 40
5.0
 10
106.6156751521367
 20
-33.65071185977957
 30
0.0
 10
106.6156751521643
 20
-33.0431555445038
 30
0.0
 10
106.1231534452806
 20
-32.55063383757265
 30
0.0
 10
105.5155971300023
 20
-32.55063383754506
 30
0.0
 10
104.9080408147227
 20
-32.5506338375181
 30
0.0
 10
104.4155191077902
 20
-33.04315554440561
 30
0.0
 10
104.4155191077626
 20
-33.65071185968139
 30
0.0
 10
104.4155191077351
 20
-34.25826817495587
 30
0.0
 10
104.9080408146238
 20
-34.75078988188702
 30
0.0
 10
105.5155971299035
 20
-34.75078988191398
 30
0.0
 10
106.1231534451818
 20
-34.75078988194157
 30
0.0
 10
106.6156751521091
 20
-34.25826817505406
 30
0.0
 10
106.6156751521367
 20
-33.65071185977957
 30
0.0
 10
106.6156751521367
 20
-33.65071185977957
 30
0.0
 10
106.6156751521367
 20
-33.65071185977957
 30
0.0
 10
106.6156751521367
 20
-33.65071185977957
 30
0.0
  0
ENDBLK
  5
78
330
75
100
AcDbEntity
  8
0
100
AcDbBlockEnd
  0
BLOCK
  5
7C
330
7A
100
AcDbEntity
  8
0
100
AcDbBlockBegin
  2
BLOCK_14
 70
     0
 10
0.0
 20
0.0
 30
0.0
  3
BLOCK_14
  1

  0
SPLINE
  5
7E
330
7A
100
AcDbEntity
  8
_U_5207_U_65AD_U_30D1_U_30
 62
     1
100
AcDbSpline
210
0.0
220
0.0
230
1.0
 70
    11
 71
     3
 72
    20
 73
    16
 74
     0
 42
0.0000000001
 43
0.0000000001
 12
1.0
 22
0.0
 32
0.0
 13
1.0
 23
0.0
 33
0.0
 40
0.0
 40
0.0
 40
0.0
 40
0.0
 40
1.0
 40
1.0
 40
1.0
 40
2.0
 40
2.0
 40
2.0
 40
3.0
 40
3.0
 40
3.0
 40
4.0
 40
4.0
 40
4.0
 40
5.0
 40
5.0
 40
5.0
 40
5.0
 10
106.6244705603167
 20
-52.66585748102779
 30
0.0
 10
106.6244705603443
 20
-52.0583011657533
 30
0.0
 10
106.1319488534562
 20
-51.56577945881445
 30
0.0
 10
105.5243925381842
 20
-51.56577945878686
 30
0.0
 10
104.9168362229033
 20
-51.56577945875991
 30
0.0
 10
104.4243145159715
 20
-52.05830116565448
 30
0.0
 10
104.4243145159439
 20
-52.66585748092896
 30
0.0
 10
104.424314515917
 20
-53.27341379620859
 30
0.0
 10
104.9168362228045
 20
-53.76593550313653
 30
0.0
 10
105.5243925380854
 20
-53.76593550316348
 30
0.0
 10
106.1319488533573
 20
-53.76593550319107
 30
0.0
 10
106.6244705602898
 20
-53.27341379630741
 30
0.0
 10
106.6244705603167
 20
-52.66585748102779
 30
0.0
 10
106.6244705603167
 20
-52.66585748102779
 30
0.0
 10
106.6244705603167
 20
-52.66585748102779
 30
0.0
 10
106.6244705603167
 20
-52.66585748102779
 30
0.0
  0
ENDBLK
  5
7D
330
7A
100
AcDbEntity
  8
0
100
AcDbBlockEnd
  0
BLOCK
  5
81
330
7F
100
AcDbEntity
  8
0
100
AcDbBlockBegin
  2
BLOCK_15
 70
     0
 10
0.0
 20
0.0
 30
0.0
  3
BLOCK_15
  1

  0
SPLINE
  5
83
330
7F
100
AcDbEntity
  8
_U_5207_U_65AD_U_30D1_U_30
 62
     1
100
AcDbSpline
210
0.0
220
0.0
230
1.0
 70
    11
 71
     3
 72
    20
 73
    16
 74
     0
 42
0.0000000001
 43
0.0000000001
 12
1.0
 22
0.0
 32
0.0
 13
1.0
 23
0.0
 33
0.0
 40
0.0
 40
0.0
 40
0.0
 40
0.0
 40
1.0
 40
1.0
 40
1.0
 40
2.0
 40
2.0
 40
2.0
 40
3.0
 40
3.0
 40
3.0
 40
4.0
 40
4.0
 40
4.0
 40
5.0
 40
5.0
 40
5.0
 40
5.0
 10
16.85215493450729
 20
-77.53009605972737
 30
0.0
 10
16.85215493453456
 20
-76.92253974444775
 30
0.0
 10
16.3596332276525
 20
-76.4300180375166
 30
0.0
 10
15.75207691237545
 20
-76.430018037489
 30
0.0
 10
15.14452059709583
 20
-76.43001803746206
 30
0.0
 10
14.65199889016949
 20
-76.92253974434892
 30
0.0
 10
14.65199889014222
 20
-77.53009605962855
 30
0.0
 10
14.65199889011495
 20
-78.13765237489919
 30
0.0
 10
15.14452059699701
 20
-78.63017408183484
 30
0.0
 10
15.75207691227663
 20
-78.63017408186178
 30
0.0
 10
16.35963322755368
 20
-78.63017408188938
 30
0.0
 10
16.85215493448002
 20
-78.13765237499801
 30
0.0
 10
16.85215493450729
 20
-77.53009605972737
 30
0.0
 10
16.85215493450729
 20
-77.53009605972737
 30
0.0
 10
16.85215493450729
 20
-77.53009605972737
 30
0.0
 10
16.85215493450729
 20
-77.53009605972737
 30
0.0
  0
ENDBLK
  5
82
330
7F
100
AcDbEntity
  8
0
100
AcDbBlockEnd
  0
BLOCK
  5
86
330
84
100
AcDbEntity
  8
0
100
AcDbBlockBegin
  2
BLOCK_16
 70
     0
 10
0.0
 20
0.0
 30
0.0
  3
BLOCK_16
  1

  0
SPLINE
  5
88
330
84
100
AcDbEntity
  8
_U_5207_U_65AD_U_30D1_U_30
 62
     1
100
AcDbSpline
210
0.0
220
0.0
230
1.0
 70
    11
 71
     3
 72
    20
 73
    16
 74
     0
 42
0.0000000001
 43
0.0000000001
 12
1.0
 22
0.0
 32
0.0
 13
1.0
 23
0.0
 33
0.0
 40
0.0
 40
0.0
 40
0.0
 40
0.0
 40
1.0
 40
1.0
 40
1.0
 40
2.0
 40
2.0
 40
2.0
 40
3.0
 40
3.0
 40
3.0
 40
4.0
 40
4.0
 40
4.0
 40
5.0
 40
5.0
 40
5.0
 40
5.0
 10
63.37213378371273
 20
-69.7755864373541
 30
0.0
 10
63.37213378373968
 20
-69.16803012207447
 30
0.0
 10
62.87961207685922
 20
-68.67550841514267
 30
0.0
 10
62.27205576157832
 20
-68.67550841511573
 30
0.0
 10
61.6644994462987
 20
-68.67550841508813
 30
0.0
 10
61.17197773937333
 20
-69.16803012197565
 30
0.0
 10
61.17197773934637
 20
-69.77558643725527
 30
0.0
 10
61.17197773931942
 20
-70.3831427525336
 30
0.0
 10
61.66449944619988
 20
-70.87566445945706
 30
0.0
 10
62.2720557614795
 20
-70.87566445948465
 30
0.0
 10
62.8796120767604
 20
-70.8756644595116
 30
0.0
 10
63.37213378368578
 20
-70.38314275263242
 30
0.0
 10
63.37213378371273
 20
-69.7755864373541
 30
0.0
 10
63.37213378371273
 20
-69.7755864373541
 30
0.0
 10
63.37213378371273
 20
-69.7755864373541
 30
0.0
 10
63.37213378371273
 20
-69.7755864373541
 30
0.0
  0
ENDBLK
  5
87
330
84
100
AcDbEntity
  8
0
100
AcDbBlockEnd
  0
BLOCK
  5
8B
330
89
100
AcDbEntity
  8
0
100
AcDbBlockBegin
  2
BLOCK_17
 70
     0
 10
0.0
 20
0.0
 30
0.0
  3
BLOCK_17
  1

  0
POLYLINE
  5
8D
330
89
100
AcDbEntity
  8
_U_5207_U_65AD_U_30D1_U_30
 62
     1
100
AcDb2dPolyline
 66
     1
 10
0.0
 20
0.0
 30
0.0
  0
VERTEX
  5
8E
330
8D
100
AcDbEntity
  8
_U_5207_U_65AD_U_30D1_U_30
 62
     1
100
AcDbVertex
100
AcDb2dVertex
 10
121.9501814916639
 20
-17.21769094269723
 30
0.0
  0
VERTEX
  5
8F
330
8D
100
AcDbEntity
  8
_U_5207_U_65AD_U_30D1_U_30
 62
     1
100
AcDbVertex
100
AcDb2dVertex
 10
121.9501814910427
 20
-31.0686733129534
 30
0.0
  0
VERTEX
  5
90
330
8D
100
AcDbEntity
  8
_U_5207_U_65AD_U_30D1_U_30
 62
     1
100
AcDbVertex
100
AcDb2dVertex
 10
108.0991991207878
 20
-31.06867331233159
 30
0.0
  0
VERTEX
  5
91
330
8D
100
AcDbEntity
  8
_U_5207_U_65AD_U_30D1_U_30
 62
     1
100
AcDbVertex
100
AcDb2dVertex
 10
108.099199121409
 20
-17.21769094207543
 30
0.0
  0
VERTEX
  5
92
330
8D
100
AcDbEntity
  8
_U_5207_U_65AD_U_30D1_U_30
 62
     1
100
AcDbVertex
100
AcDb2dVertex
 10
121.9501814916639
 20
-17.21769094269723
 30
0.0
  0
SEQEND
  5
93
330
8D
100
AcDbEntity
  8
_U_5207_U_65AD_U_30D1_U_30
 62
     1
  0
ENDBLK
  5
8C
330
89
100
AcDbEntity
  8
0
100
AcDbBlockEnd
  0
BLOCK
  5
96
330
94
100
AcDbEntity
  8
0
100
AcDbBlockBegin
  2
BLOCK_18
 70
     0
 10
0.0
 20
0.0
 30
0.0
  3
BLOCK_18
  1

  0
POLYLINE
  5
98
330
94
100
AcDbEntity
  8
_U_5207_U_65AD_U_30D1_U_30
 62
     1
100
AcDb2dPolyline
 66
     1
 10
0.0
 20
0.0
 30
0.0
  0
VERTEX
  5
99
330
98
100
AcDbEntity
  8
_U_5207_U_65AD_U_30D1_U_30
 62
     1
100
AcDbVertex
100
AcDb2dVertex
 10
121.9501814908111
 20
-36.2190385986403
 30
0.0
  0
VERTEX
  5
9A
330
98
100
AcDbEntity
  8
_U_5207_U_65AD_U_30D1_U_30
 62
     1
100
AcDbVertex
100
AcDb2dVertex
 10
121.9501814901893
 20
-50.07002096890032
 30
0.0
  0
VERTEX
  5
9B
330
98
100
AcDbEntity
  8
_U_5207_U_65AD_U_30D1_U_30
 62
     1
100
AcDbVertex
100
AcDb2dVertex
 10
108.0991991199344
 20
-50.07002096827852
 30
0.0
  0
VERTEX
  5
9C
330
98
100
AcDbEntity
  8
_U_5207_U_65AD_U_30D1_U_30
 62
     1
100
AcDbVertex
100
AcDb2dVertex
 10
108.0991991205562
 20
-36.2190385980185
 30
0.0
  0
VERTEX
  5
9D
330
98
100
AcDbEntity
  8
_U_5207_U_65AD_U_30D1_U_30
 62
     1
100
AcDbVertex
100
AcDb2dVertex
 10
121.9501814908111
 20
-36.2190385986403
 30
0.0
  0
SEQEND
  5
9E
330
98
100
AcDbEntity
  8
_U_5207_U_65AD_U_30D1_U_30
 62
     1
  0
ENDBLK
  5
97
330
94
100
AcDbEntity
  8
0
100
AcDbBlockEnd
  0
BLOCK
  5
A1
330
9F
100
AcDbEntity
  8
0
100
AcDbBlockBegin
  2
BLOCK_19
 70
     0
 10
0.0
 20
0.0
 30
0.0
  3
BLOCK_19
  1

  0
POLYLINE
  5
A3
330
9F
100
AcDbEntity
  8
_U_5207_U_65AD_U_30D1_U_30
 62
     1
100
AcDb2dPolyline
 66
     1
 10
0.0
 20
0.0
 30
0.0
  0
VERTEX
  5
A4
330
A3
100
AcDbEntity
  8
_U_5207_U_65AD_U_30D1_U_30
 62
     1
100
AcDbVertex
100
AcDb2dVertex
 10
121.9501814899583
 20
-55.22038625458723
 30
0.0
  0
VERTEX
  5
A5
330
A3
100
AcDbEntity
  8
_U_5207_U_65AD_U_30D1_U_30
 62
     1
100
AcDbVertex
100
AcDb2dVertex
 10
121.9501814893358
 20
-69.07136862484211
 30
0.0
  0
VERTEX
  5
A6
330
A3
100
AcDbEntity
  8
_U_5207_U_65AD_U_30D1_U_30
 62
     1
100
AcDbVertex
100
AcDb2dVertex
 10
108.0991991190809
 20
-69.07136862422031
 30
0.0
  0
VERTEX
  5
A7
330
A3
100
AcDbEntity
  8
_U_5207_U_65AD_U_30D1_U_30
 62
     1
100
AcDbVertex
100
AcDb2dVertex
 10
108.0991991197034
 20
-55.22038625396542
 30
0.0
  0
VERTEX
  5
A8
330
A3
100
AcDbEntity
  8
_U_5207_U_65AD_U_30D1_U_30
 62
     1
100
AcDbVertex
100
AcDb2dVertex
 10
121.9501814899583
 20
-55.22038625458723
 30
0.0
  0
SEQEND
  5
A9
330
A3
100
AcDbEntity
  8
_U_5207_U_65AD_U_30D1_U_30
 62
     1
  0
ENDBLK
  5
A2
330
9F
100
AcDbEntity
  8
0
100
AcDbBlockEnd
  0
BLOCK
  5
AC
330
AA
100
AcDbEntity
  8
0
100
AcDbBlockBegin
  2
BLOCK_20
 70
     0
 10
0.0
 20
0.0
 30
0.0
  3
BLOCK_20
  1

  0
POLYLINE
  5
AE
330
AA
100
AcDbEntity
  8
_U_5207_U_65AD_U_30D1_U_30
 62
     1
100
AcDb2dPolyline
 66
     1
 10
0.0
 20
0.0
 30
0.0
  0
VERTEX
  5
AF
330
AE
100
AcDbEntity
  8
_U_5207_U_65AD_U_30D1_U_30
 62
     1
100
AcDbVertex
100
AcDb2dVertex
 10
102.9483257996908
 20
-17.21769094184442
 30
0.0
  0
VERTEX
  5
B0
330
AE
100
AcDbEntity
  8
_U_5207_U_65AD_U_30D1_U_30
 62
     1
100
AcDbVertex
100
AcDb2dVertex
 10
102.9483257990697
 20
-31.06867331210058
 30
0.0
  0
VERTEX
  5
B1
330
AE
100
AcDbEntity
  8
_U_5207_U_65AD_U_30D1_U_30
 62
     1
100
AcDbVertex
100
AcDb2dVertex
 10
89.0973434288135
 20
-31.06867331147878
 30
0.0
  0
VERTEX
  5
B2
330
AE
100
AcDbEntity
  8
_U_5207_U_65AD_U_30D1_U_30
 62
     1
100
AcDbVertex
100
AcDb2dVertex
 10
89.09734342943466
 20
-17.21769094122261
 30
0.0
  0
VERTEX
  5
B3
330
AE
100
AcDbEntity
  8
_U_5207_U_65AD_U_30D1_U_30
 62
     1
100
AcDbVertex
100
AcDb2dVertex
 10
102.9483257996908
 20
-17.21769094184442
 30
0.0
  0
SEQEND
  5
B4
330
AE
100
AcDbEntity
  8
_U_5207_U_65AD_U_30D1_U_30
 62
     1
  0
ENDBLK
  5
AD
330
AA
100
AcDbEntity
  8
0
100
AcDbBlockEnd
  0
BLOCK
  5
B7
330
B5
100
AcDbEntity
  8
0
100
AcDbBlockBegin
  2
BLOCK_21
 70
     0
 10
0.0
 20
0.0
 30
0.0
  3
BLOCK_21
  1

  0
POLYLINE
  5
B9
330
B5
100
AcDbEntity
  8
_U_5207_U_65AD_U_30D1_U_30
 62
     1
100
AcDb2dPolyline
 66
     1
 10
0.0
 20
0.0
 30
0.0
  0
VERTEX
  5
BA
330
B9
100
AcDbEntity
  8
_U_5207_U_65AD_U_30D1_U_30
 62
     1
100
AcDbVertex
100
AcDb2dVertex
 10
102.948325798838
 20
-36.21903859778749
 30
0.0
  0
VERTEX
  5
BB
330
B9
100
AcDbEntity
  8
_U_5207_U_65AD_U_30D1_U_30
 62
     1
100
AcDbVertex
100
AcDb2dVertex
 10
102.9483257982162
 20
-50.07002096804751
 30
0.0
  0
VERTEX
  5
BC
330
B9
100
AcDbEntity
  8
_U_5207_U_65AD_U_30D1_U_30
 62
     1
100
AcDbVertex
100
AcDb2dVertex
 10
89.09734342796004
 20
-50.0700209674257
 30
0.0
  0
VERTEX
  5
BD
330
B9
100
AcDbEntity
  8
_U_5207_U_65AD_U_30D1_U_30
 62
     1
100
AcDbVertex
100
AcDb2dVertex
 10
89.09734342858184
 20
-36.21903859716569
 30
0.0
  0
VERTEX
  5
BE
330
B9
100
AcDbEntity
  8
_U_5207_U_65AD_U_30D1_U_30
 62
     1
100
AcDbVertex
100
AcDb2dVertex
 10
102.948325798838
 20
-36.21903859778749
 30
0.0
  0
SEQEND
  5
BF
330
B9
100
AcDbEntity
  8
_U_5207_U_65AD_U_30D1_U_30
 62
     1
  0
ENDBLK
  5
B8
330
B5
100
AcDbEntity
  8
0
100
AcDbBlockEnd
  0
BLOCK
  5
C2
330
C0
100
AcDbEntity
  8
0
100
AcDbBlockBegin
  2
BLOCK_22
 70
     0
 10
0.0
 20
0.0
 30
0.0
  3
BLOCK_22
  1

  0
POLYLINE
  5
C4
330
C0
100
AcDbEntity
  8
_U_5207_U_65AD_U_30D1_U_30
 62
     1
100
AcDb2dPolyline
 66
     1
 10
0.0
 20
0.0
 30
0.0
  0
VERTEX
  5
C5
330
C4
100
AcDbEntity
  8
_U_5207_U_65AD_U_30D1_U_30
 62
     1
100
AcDbVertex
100
AcDb2dVertex
 10
102.9483257979852
 20
-55.22038625373441
 30
0.0
  0
VERTEX
  5
C6
330
C4
100
AcDbEntity
  8
_U_5207_U_65AD_U_30D1_U_30
 62
     1
100
AcDbVertex
100
AcDb2dVertex
 10
102.9483257973627
 20
-69.0713686239893
 30
0.0
  0
VERTEX
  5
C7
330
C4
100
AcDbEntity
  8
_U_5207_U_65AD_U_30D1_U_30
 62
     1
100
AcDbVertex
100
AcDb2dVertex
 10
89.09734342710658
 20
-69.07136862336749
 30
0.0
  0
VERTEX
  5
C8
330
C4
100
AcDbEntity
  8
_U_5207_U_65AD_U_30D1_U_30
 62
     1
100
AcDbVertex
100
AcDb2dVertex
 10
89.09734342772903
 20
-55.22038625311261
 30
0.0
  0
VERTEX
  5
C9
330
C4
100
AcDbEntity
  8
_U_5207_U_65AD_U_30D1_U_30
 62
     1
100
AcDbVertex
100
AcDb2dVertex
 10
102.9483257979852
 20
-55.22038625373441
 30
0.0
  0
SEQEND
  5
CA
330
C4
100
AcDbEntity
  8
_U_5207_U_65AD_U_30D1_U_30
 62
     1
  0
ENDBLK
  5
C3
330
C0
100
AcDbEntity
  8
0
100
AcDbBlockEnd
  0
BLOCK
  5
CD
330
CB
100
AcDbEntity
  8
0
100
AcDbBlockBegin
  2
BLOCK_23
 70
     0
 10
0.0
 20
0.0
 30
0.0
  3
BLOCK_23
  1

  0
POLYLINE
  5
CF
330
CB
100
AcDbEntity
  8
_U_5207_U_65AD_U_30D1_U_30
 62
     1
100
AcDb2dPolyline
 66
     1
 10
0.0
 20
0.0
 30
0.0
  0
VERTEX
  5
D0
330
CF
100
AcDbEntity
  8
_U_5207_U_65AD_U_30D1_U_30
 62
     1
100
AcDbVertex
100
AcDb2dVertex
 10
83.94697814395246
 20
-12.46735402700551
 30
0.0
  0
VERTEX
  5
D1
330
CF
100
AcDbEntity
  8
_U_5207_U_65AD_U_30D1_U_30
 62
     1
100
AcDbVertex
100
AcDb2dVertex
 10
83.94697814333065
 20
-26.31833639725783
 30
0.0
  0
VERTEX
  5
D2
330
CF
100
AcDbEntity
  8
_U_5207_U_65AD_U_30D1_U_30
 62
     1
100
AcDbVertex
100
AcDb2dVertex
 10
70.09599577307705
 20
-26.31833639663602
 30
0.0
  0
VERTEX
  5
D3
330
CF
100
AcDbEntity
  8
_U_5207_U_65AD_U_30D1_U_30
 62
     1
100
AcDbVertex
100
AcDb2dVertex
 10
70.0959957736995
 20
-12.4673540263837
 30
0.0
  0
VERTEX
  5
D4
330
CF
100
AcDbEntity
  8
_U_5207_U_65AD_U_30D1_U_30
 62
     1
100
AcDbVertex
100
AcDb2dVertex
 10
83.94697814395246
 20
-12.46735402700551
 30
0.0
  0
SEQEND
  5
D5
330
CF
100
AcDbEntity
  8
_U_5207_U_65AD_U_30D1_U_30
 62
     1
  0
ENDBLK
  5
CE
330
CB
100
AcDbEntity
  8
0
100
AcDbBlockEnd
  0
BLOCK
  5
D8
330
D6
100
AcDbEntity
  8
0
100
AcDbBlockBegin
  2
BLOCK_24
 70
     0
 10
0.0
 20
0.0
 30
0.0
  3
BLOCK_24
  1

  0
POLYLINE
  5
DA
330
D6
100
AcDbEntity
  8
_U_5207_U_65AD_U_30D1_U_30
 62
     1
100
AcDb2dPolyline
 66
     1
 10
0.0
 20
0.0
 30
0.0
  0
VERTEX
  5
DB
330
DA
100
AcDbEntity
  8
_U_5207_U_65AD_U_30D1_U_30
 62
     1
100
AcDbVertex
100
AcDb2dVertex
 10
83.94697814309964
 20
-31.46870168294858
 30
0.0
  0
VERTEX
  5
DC
330
DA
100
AcDbEntity
  8
_U_5207_U_65AD_U_30D1_U_30
 62
     1
100
AcDbVertex
100
AcDb2dVertex
 10
83.94697814247719
 20
-45.3196840532009
 30
0.0
  0
VERTEX
  5
DD
330
DA
100
AcDbEntity
  8
_U_5207_U_65AD_U_30D1_U_30
 62
     1
100
AcDbVertex
100
AcDb2dVertex
 10
70.09599577222423
 20
-45.31968405257909
 30
0.0
  0
VERTEX
  5
DE
330
DA
100
AcDbEntity
  8
_U_5207_U_65AD_U_30D1_U_30
 62
     1
100
AcDbVertex
100
AcDb2dVertex
 10
70.09599577284604
 20
-31.46870168232677
 30
0.0
  0
VERTEX
  5
DF
330
DA
100
AcDbEntity
  8
_U_5207_U_65AD_U_30D1_U_30
 62
     1
100
AcDbVertex
100
AcDb2dVertex
 10
83.94697814309964
 20
-31.46870168294858
 30
0.0
  0
SEQEND
  5
E0
330
DA
100
AcDbEntity
  8
_U_5207_U_65AD_U_30D1_U_30
 62
     1
  0
ENDBLK
  5
D9
330
D6
100
AcDbEntity
  8
0
100
AcDbBlockEnd
  0
BLOCK
  5
E3
330
E1
100
AcDbEntity
  8
0
100
AcDbBlockBegin
  2
BLOCK_25
 70
     0
 10
0.0
 20
0.0
 30
0.0
  3
BLOCK_25
  1

  0
POLYLINE
  5
E5
330
E1
100
AcDbEntity
  8
_U_5207_U_65AD_U_30D1_U_30
 62
     1
100
AcDb2dPolyline
 66
     1
 10
0.0
 20
0.0
 30
0.0
  0
VERTEX
  5
E6
330
E5
100
AcDbEntity
  8
_U_5207_U_65AD_U_30D1_U_30
 62
     1
100
AcDbVertex
100
AcDb2dVertex
 10
83.94697814224618
 20
-50.47004933889936
 30
0.0
  0
VERTEX
  5
E7
330
E5
100
AcDbEntity
  8
_U_5207_U_65AD_U_30D1_U_30
 62
     1
100
AcDbVertex
100
AcDb2dVertex
 10
83.94697814162437
 20
-64.32103170915039
 30
0.0
  0
VERTEX
  5
E8
330
E5
100
AcDbEntity
  8
_U_5207_U_65AD_U_30D1_U_30
 62
     1
100
AcDbVertex
100
AcDb2dVertex
 10
70.09599577137142
 20
-64.32103170852858
 30
0.0
  0
VERTEX
  5
E9
330
E5
100
AcDbEntity
  8
_U_5207_U_65AD_U_30D1_U_30
 62
     1
100
AcDbVertex
100
AcDb2dVertex
 10
70.09599577199258
 20
-50.47004933827755
 30
0.0
  0
VERTEX
  5
EA
330
E5
100
AcDbEntity
  8
_U_5207_U_65AD_U_30D1_U_30
 62
     1
100
AcDbVertex
100
AcDb2dVertex
 10
83.94697814224618
 20
-50.47004933889936
 30
0.0
  0
SEQEND
  5
EB
330
E5
100
AcDbEntity
  8
_U_5207_U_65AD_U_30D1_U_30
 62
     1
  0
ENDBLK
  5
E4
330
E1
100
AcDbEntity
  8
0
100
AcDbBlockEnd
  0
BLOCK
  5
EE
330
EC
100
AcDbEntity
  8
0
100
AcDbBlockBegin
  2
BLOCK_26
 70
     0
 10
0.0
 20
0.0
 30
0.0
  3
BLOCK_26
  1

  0
POLYLINE
  5
F0
330
EC
100
AcDbEntity
  8
_U_5207_U_65AD_U_30D1_U_30
 62
     1
100
AcDb2dPolyline
 66
     1
 10
0.0
 20
0.0
 30
0.0
  0
VERTEX
  5
F1
330
F0
100
AcDbEntity
  8
_U_5207_U_65AD_U_30D1_U_30
 62
     1
100
AcDbVertex
100
AcDb2dVertex
 10
64.94563048811783
 20
-10.09218556916189
 30
0.0
  0
VERTEX
  5
F2
330
F0
100
AcDbEntity
  8
_U_5207_U_65AD_U_30D1_U_30
 62
     1
100
AcDbVertex
100
AcDb2dVertex
 10
64.94563048749538
 20
-23.94316793941293
 30
0.0
  0
VERTEX
  5
F3
330
F0
100
AcDbEntity
  8
_U_5207_U_65AD_U_30D1_U_30
 62
     1
100
AcDbVertex
100
AcDb2dVertex
 10
51.0946481172405
 20
-23.94316793879112
 30
0.0
  0
VERTEX
  5
F4
330
F0
100
AcDbEntity
  8
_U_5207_U_65AD_U_30D1_U_30
 62
     1
100
AcDbVertex
100
AcDb2dVertex
 10
51.09464811786295
 20
-10.09218556854008
 30
0.0
  0
VERTEX
  5
F5
330
F0
100
AcDbEntity
  8
_U_5207_U_65AD_U_30D1_U_30
 62
     1
100
AcDbVertex
100
AcDb2dVertex
 10
64.94563048811783
 20
-10.09218556916189
 30
0.0
  0
SEQEND
  5
F6
330
F0
100
AcDbEntity
  8
_U_5207_U_65AD_U_30D1_U_30
 62
     1
  0
ENDBLK
  5
EF
330
EC
100
AcDbEntity
  8
0
100
AcDbBlockEnd
  0
BLOCK
  5
F9
330
F7
100
AcDbEntity
  8
0
100
AcDbBlockBegin
  2
BLOCK_27
 70
     0
 10
0.0
 20
0.0
 30
0.0
  3
BLOCK_27
  1

  0
POLYLINE
  5
FB
330
F7
100
AcDbEntity
  8
_U_5207_U_65AD_U_30D1_U_30
 62
     1
100
AcDb2dPolyline
 66
     1
 10
0.0
 20
0.0
 30
0.0
  0
VERTEX
  5
FC
330
FB
100
AcDbEntity
  8
_U_5207_U_65AD_U_30D1_U_30
 62
     1
100
AcDbVertex
100
AcDb2dVertex
 10
64.94563048726437
 20
-29.09353322510112
 30
0.0
  0
VERTEX
  5
FD
330
FB
100
AcDbEntity
  8
_U_5207_U_65AD_U_30D1_U_30
 62
     1
100
AcDbVertex
100
AcDb2dVertex
 10
64.94563048664257
 20
-42.944515595356
 30
0.0
  0
VERTEX
  5
FE
330
FB
100
AcDbEntity
  8
_U_5207_U_65AD_U_30D1_U_30
 62
     1
100
AcDbVertex
100
AcDb2dVertex
 10
51.09464811638768
 20
-42.94451559473419
 30
0.0
  0
VERTEX
  5
FF
330
FB
100
AcDbEntity
  8
_U_5207_U_65AD_U_30D1_U_30
 62
     1
100
AcDbVertex
100
AcDb2dVertex
 10
51.09464811700948
 20
-29.09353322447931
 30
0.0
  0
VERTEX
  5
100
330
FB
100
AcDbEntity
  8
_U_5207_U_65AD_U_30D1_U_30
 62
     1
100
AcDbVertex
100
AcDb2dVertex
 10
64.94563048726437
 20
-29.09353322510112
 30
0.0
  0
SEQEND
  5
101
330
FB
100
AcDbEntity
  8
_U_5207_U_65AD_U_30D1_U_30
 62
     1
  0
ENDBLK
  5
FA
330
F7
100
AcDbEntity
  8
0
100
AcDbBlockEnd
  0
BLOCK
  5
104
330
102
100
AcDbEntity
  8
0
100
AcDbBlockBegin
  2
BLOCK_28
 70
     0
 10
0.0
 20
0.0
 30
0.0
  3
BLOCK_28
  1

  0
POLYLINE
  5
106
330
102
100
AcDbEntity
  8
_U_5207_U_65AD_U_30D1_U_30
 62
     1
100
AcDb2dPolyline
 66
     1
 10
0.0
 20
0.0
 30
0.0
  0
VERTEX
  5
107
330
106
100
AcDbEntity
  8
_U_5207_U_65AD_U_30D1_U_30
 62
     1
100
AcDbVertex
100
AcDb2dVertex
 10
64.94563048641156
 20
-48.09488088104419
 30
0.0
  0
VERTEX
  5
108
330
106
100
AcDbEntity
  8
_U_5207_U_65AD_U_30D1_U_30
 62
     1
100
AcDbVertex
100
AcDb2dVertex
 10
64.94563048578975
 20
-61.94586325130292
 30
0.0
  0
VERTEX
  5
109
330
106
100
AcDbEntity
  8
_U_5207_U_65AD_U_30D1_U_30
 62
     1
100
AcDbVertex
100
AcDb2dVertex
 10
51.09464811553487
 20
-61.94586325068111
 30
0.0
  0
VERTEX
  5
10A
330
106
100
AcDbEntity
  8
_U_5207_U_65AD_U_30D1_U_30
 62
     1
100
AcDbVertex
100
AcDb2dVertex
 10
51.09464811615667
 20
-48.09488088042238
 30
0.0
  0
VERTEX
  5
10B
330
106
100
AcDbEntity
  8
_U_5207_U_65AD_U_30D1_U_30
 62
     1
100
AcDbVertex
100
AcDb2dVertex
 10
64.94563048641156
 20
-48.09488088104419
 30
0.0
  0
SEQEND
  5
10C
330
106
100
AcDbEntity
  8
_U_5207_U_65AD_U_30D1_U_30
 62
     1
  0
ENDBLK
  5
105
330
102
100
AcDbEntity
  8
0
100
AcDbBlockEnd
  0
BLOCK
  5
10F
330
10D
100
AcDbEntity
  8
0
100
AcDbBlockBegin
  2
BLOCK_29
 70
     0
 10
0.0
 20
0.0
 30
0.0
  3
BLOCK_29
  1

  0
POLYLINE
  5
111
330
10D
100
AcDbEntity
  8
_U_5207_U_65AD_U_30D1_U_30
 62
     1
100
AcDb2dPolyline
 66
     1
 10
0.0
 20
0.0
 30
0.0
  0
VERTEX
  5
112
330
111
100
AcDbEntity
  8
_U_5207_U_65AD_U_30D1_U_30
 62
     1
100
AcDbVertex
100
AcDb2dVertex
 10
45.94428283206663
 20
-12.46735402529987
 30
0.0
  0
VERTEX
  5
113
330
111
100
AcDbEntity
  8
_U_5207_U_65AD_U_30D1_U_30
 62
     1
100
AcDbVertex
100
AcDb2dVertex
 10
45.94428283144482
 20
-26.31833639555219
 30
0.0
  0
VERTEX
  5
114
330
111
100
AcDbEntity
  8
_U_5207_U_65AD_U_30D1_U_30
 62
     1
100
AcDbVertex
100
AcDb2dVertex
 10
32.09330046118865
 20
-26.31833639492974
 30
0.0
  0
VERTEX
  5
115
330
111
100
AcDbEntity
  8
_U_5207_U_65AD_U_30D1_U_30
 62
     1
100
AcDbVertex
100
AcDb2dVertex
 10
32.09330046181046
 20
-12.46735402467742
 30
0.0
  0
VERTEX
  5
116
330
111
100
AcDbEntity
  8
_U_5207_U_65AD_U_30D1_U_30
 62
     1
100
AcDbVertex
100
AcDb2dVertex
 10
45.94428283206663
 20
-12.46735402529987
 30
0.0
  0
SEQEND
  5
117
330
111
100
AcDbEntity
  8
_U_5207_U_65AD_U_30D1_U_30
 62
     1
  0
ENDBLK
  5
110
330
10D
100
AcDbEntity
  8
0
100
AcDbBlockEnd
  0
BLOCK
  5
11A
330
118
100
AcDbEntity
  8
0
100
AcDbBlockBegin
  2
BLOCK_30
 70
     0
 10
0.0
 20
0.0
 30
0.0
  3
BLOCK_30
  1

  0
POLYLINE
  5
11C
330
118
100
AcDbEntity
  8
_U_5207_U_65AD_U_30D1_U_30
 62
     1
100
AcDb2dPolyline
 66
     1
 10
0.0
 20
0.0
 30
0.0
  0
VERTEX
  5
11D
330
11C
100
AcDbEntity
  8
_U_5207_U_65AD_U_30D1_U_30
 62
     1
100
AcDbVertex
100
AcDb2dVertex
 10
45.94428283121349
 20
-31.46870168124294
 30
0.0
  0
VERTEX
  5
11E
330
11C
100
AcDbEntity
  8
_U_5207_U_65AD_U_30D1_U_30
 62
     1
100
AcDbVertex
100
AcDb2dVertex
 10
45.94428283059169
 20
-45.31968405149527
 30
0.0
  0
VERTEX
  5
11F
330
11C
100
AcDbEntity
  8
_U_5207_U_65AD_U_30D1_U_30
 62
     1
100
AcDbVertex
100
AcDb2dVertex
 10
32.09330046033552
 20
-45.31968405087282
 30
0.0
  0
VERTEX
  5
120
330
11C
100
AcDbEntity
  8
_U_5207_U_65AD_U_30D1_U_30
 62
     1
100
AcDbVertex
100
AcDb2dVertex
 10
32.09330046095732
 20
-31.4687016806205
 30
0.0
  0
VERTEX
  5
121
330
11C
100
AcDbEntity
  8
_U_5207_U_65AD_U_30D1_U_30
 62
     1
100
AcDbVertex
100
AcDb2dVertex
 10
45.94428283121349
 20
-31.46870168124294
 30
0.0
  0
SEQEND
  5
122
330
11C
100
AcDbEntity
  8
_U_5207_U_65AD_U_30D1_U_30
 62
     1
  0
ENDBLK
  5
11B
330
118
100
AcDbEntity
  8
0
100
AcDbBlockEnd
  0
BLOCK
  5
125
330
123
100
AcDbEntity
  8
0
100
AcDbBlockBegin
  2
BLOCK_31
 70
     0
 10
0.0
 20
0.0
 30
0.0
  3
BLOCK_31
  1

  0
POLYLINE
  5
127
330
123
100
AcDbEntity
  8
_U_5207_U_65AD_U_30D1_U_30
 62
     1
100
AcDb2dPolyline
 66
     1
 10
0.0
 20
0.0
 30
0.0
  0
VERTEX
  5
128
330
127
100
AcDbEntity
  8
_U_5207_U_65AD_U_30D1_U_30
 62
     1
100
AcDbVertex
100
AcDb2dVertex
 10
45.94428283036036
 20
-50.47004933719372
 30
0.0
  0
VERTEX
  5
129
330
127
100
AcDbEntity
  8
_U_5207_U_65AD_U_30D1_U_30
 62
     1
100
AcDbVertex
100
AcDb2dVertex
 10
45.94428282973855
 20
-64.32103170744476
 30
0.0
  0
VERTEX
  5
12A
330
127
100
AcDbEntity
  8
_U_5207_U_65AD_U_30D1_U_30
 62
     1
100
AcDbVertex
100
AcDb2dVertex
 10
32.09330045948238
 20
-64.32103170682231
 30
0.0
  0
VERTEX
  5
12B
330
127
100
AcDbEntity
  8
_U_5207_U_65AD_U_30D1_U_30
 62
     1
100
AcDbVertex
100
AcDb2dVertex
 10
32.09330046010419
 20
-50.47004933657127
 30
0.0
  0
VERTEX
  5
12C
330
127
100
AcDbEntity
  8
_U_5207_U_65AD_U_30D1_U_30
 62
     1
100
AcDbVertex
100
AcDb2dVertex
 10
45.94428283036036
 20
-50.47004933719372
 30
0.0
  0
SEQEND
  5
12D
330
127
100
AcDbEntity
  8
_U_5207_U_65AD_U_30D1_U_30
 62
     1
  0
ENDBLK
  5
126
330
123
100
AcDbEntity
  8
0
100
AcDbBlockEnd
  0
BLOCK
  5
130
330
12E
100
AcDbEntity
  8
0
100
AcDbBlockBegin
  2
BLOCK_32
 70
     0
 10
0.0
 20
0.0
 30
0.0
  3
BLOCK_32
  1

  0
POLYLINE
  5
132
330
12E
100
AcDbEntity
  8
_U_5207_U_65AD_U_30D1_U_30
 62
     1
100
AcDb2dPolyline
 66
     1
 10
0.0
 20
0.0
 30
0.0
  0
VERTEX
  5
133
330
132
100
AcDbEntity
  8
_U_5207_U_65AD_U_30D1_U_30
 62
     1
100
AcDbVertex
100
AcDb2dVertex
 10
26.9429351760119
 20
-14.84252248143721
 30
0.0
  0
VERTEX
  5
134
330
132
100
AcDbEntity
  8
_U_5207_U_65AD_U_30D1_U_30
 62
     1
100
AcDbVertex
100
AcDb2dVertex
 10
26.94293517538978
 20
-28.69350485168953
 30
0.0
  0
VERTEX
  5
135
330
132
100
AcDbEntity
  8
_U_5207_U_65AD_U_30D1_U_30
 62
     1
100
AcDbVertex
100
AcDb2dVertex
 10
13.09195280513232
 20
-28.69350485106772
 30
0.0
  0
VERTEX
  5
136
330
132
100
AcDbEntity
  8
_U_5207_U_65AD_U_30D1_U_30
 62
     1
100
AcDbVertex
100
AcDb2dVertex
 10
13.09195280575445
 20
-14.8425224808154
 30
0.0
  0
VERTEX
  5
137
330
132
100
AcDbEntity
  8
_U_5207_U_65AD_U_30D1_U_30
 62
     1
100
AcDbVertex
100
AcDb2dVertex
 10
26.9429351760119
 20
-14.84252248143721
 30
0.0
  0
SEQEND
  5
138
330
132
100
AcDbEntity
  8
_U_5207_U_65AD_U_30D1_U_30
 62
     1
  0
ENDBLK
  5
131
330
12E
100
AcDbEntity
  8
0
100
AcDbBlockEnd
  0
BLOCK
  5
13B
330
139
100
AcDbEntity
  8
0
100
AcDbBlockBegin
  2
BLOCK_33
 70
     0
 10
0.0
 20
0.0
 30
0.0
  3
BLOCK_33
  1

  0
POLYLINE
  5
13D
330
139
100
AcDbEntity
  8
_U_5207_U_65AD_U_30D1_U_30
 62
     1
100
AcDb2dPolyline
 66
     1
 10
0.0
 20
0.0
 30
0.0
  0
VERTEX
  5
13E
330
13D
100
AcDbEntity
  8
_U_5207_U_65AD_U_30D1_U_30
 62
     1
100
AcDbVertex
100
AcDb2dVertex
 10
26.94293517515877
 20
-33.84387013738414
 30
0.0
  0
VERTEX
  5
13F
330
13D
100
AcDbEntity
  8
_U_5207_U_65AD_U_30D1_U_30
 62
     1
100
AcDbVertex
100
AcDb2dVertex
 10
26.94293517453696
 20
-47.69485250764287
 30
0.0
  0
VERTEX
  5
140
330
13D
100
AcDbEntity
  8
_U_5207_U_65AD_U_30D1_U_30
 62
     1
100
AcDbVertex
100
AcDb2dVertex
 10
13.09195280427951
 20
-47.69485250702106
 30
0.0
  0
VERTEX
  5
141
330
13D
100
AcDbEntity
  8
_U_5207_U_65AD_U_30D1_U_30
 62
     1
100
AcDbVertex
100
AcDb2dVertex
 10
13.09195280490131
 20
-33.84387013676233
 30
0.0
  0
VERTEX
  5
142
330
13D
100
AcDbEntity
  8
_U_5207_U_65AD_U_30D1_U_30
 62
     1
100
AcDbVertex
100
AcDb2dVertex
 10
26.94293517515877
 20
-33.84387013738414
 30
0.0
  0
SEQEND
  5
143
330
13D
100
AcDbEntity
  8
_U_5207_U_65AD_U_30D1_U_30
 62
     1
  0
ENDBLK
  5
13C
330
139
100
AcDbEntity
  8
0
100
AcDbBlockEnd
  0
BLOCK
  5
146
330
144
100
AcDbEntity
  8
0
100
AcDbBlockBegin
  2
BLOCK_34
 70
     0
 10
0.0
 20
0.0
 30
0.0
  3
BLOCK_34
  1

  0
POLYLINE
  5
148
330
144
100
AcDbEntity
  8
_U_5207_U_65AD_U_30D1_U_30
 62
     1
100
AcDb2dPolyline
 66
     1
 10
0.0
 20
0.0
 30
0.0
  0
VERTEX
  5
149
330
148
100
AcDbEntity
  8
_U_5207_U_65AD_U_30D1_U_30
 62
     1
100
AcDbVertex
100
AcDb2dVertex
 10
26.94293517430563
 20
-52.84521779333106
 30
0.0
  0
VERTEX
  5
14A
330
148
100
AcDbEntity
  8
_U_5207_U_65AD_U_30D1_U_30
 62
     1
100
AcDbVertex
100
AcDb2dVertex
 10
26.94293517368382
 20
-66.69620016358209
 30
0.0
  0
VERTEX
  5
14B
330
148
100
AcDbEntity
  8
_U_5207_U_65AD_U_30D1_U_30
 62
     1
100
AcDbVertex
100
AcDb2dVertex
 10
13.09195280342637
 20
-66.69620016296028
 30
0.0
  0
VERTEX
  5
14C
330
148
100
AcDbEntity
  8
_U_5207_U_65AD_U_30D1_U_30
 62
     1
100
AcDbVertex
100
AcDb2dVertex
 10
13.09195280404817
 20
-52.84521779270925
 30
0.0
  0
VERTEX
  5
14D
330
148
100
AcDbEntity
  8
_U_5207_U_65AD_U_30D1_U_30
 62
     1
100
AcDbVertex
100
AcDb2dVertex
 10
26.94293517430563
 20
-52.84521779333106
 30
0.0
  0
SEQEND
  5
14E
330
148
100
AcDbEntity
  8
_U_5207_U_65AD_U_30D1_U_30
 62
     1
  0
ENDBLK
  5
147
330
144
100
AcDbEntity
  8
0
100
AcDbBlockEnd
  0
BLOCK
  5
151
330
14F
100
AcDbEntity
  8
0
100
AcDbBlockBegin
  2
BLOCK_35
 70
     0
 10
0.0
 20
0.0
 30
0.0
  3
BLOCK_35
  1

  0
POLYLINE
  5
153
330
14F
100
AcDbEntity
  8
_U_5207_U_65AD_U_30D1_U_30
 62
     1
100
AcDb2dPolyline
 66
     1
 10
0.0
 20
0.0
 30
0.0
  0
VERTEX
  5
154
330
153
100
AcDbEntity
  8
_U_5207_U_65AD_U_30D1_U_30
 62
     1
100
AcDbVertex
100
AcDb2dVertex
 10
55.44495665745052
 20
-70.09644132434649
 30
0.0
  0
VERTEX
  5
155
330
153
100
AcDbEntity
  8
_U_5207_U_65AD_U_30D1_U_30
 62
     1
100
AcDbVertex
100
AcDb2dVertex
 10
55.44495665682807
 20
-83.94742369460266
 30
0.0
  0
VERTEX
  5
156
330
153
100
AcDbEntity
  8
_U_5207_U_65AD_U_30D1_U_30
 62
     1
100
AcDbVertex
100
AcDb2dVertex
 10
41.59397428657351
 20
-83.94742369398085
 30
0.0
  0
VERTEX
  5
157
330
153
100
AcDbEntity
  8
_U_5207_U_65AD_U_30D1_U_30
 62
     1
100
AcDbVertex
100
AcDb2dVertex
 10
41.59397428719564
 20
-70.09644132372468
 30
0.0
  0
VERTEX
  5
158
330
153
100
AcDbEntity
  8
_U_5207_U_65AD_U_30D1_U_30
 62
     1
100
AcDbVertex
100
AcDb2dVertex
 10
55.44495665745052
 20
-70.09644132434649
 30
0.0
  0
SEQEND
  5
159
330
153
100
AcDbEntity
  8
_U_5207_U_65AD_U_30D1_U_30
 62
     1
  0
ENDBLK
  5
152
330
14F
100
AcDbEntity
  8
0
100
AcDbBlockEnd
  0
BLOCK
  5
15C
330
15A
100
AcDbEntity
  8
0
100
AcDbBlockBegin
  2
BLOCK_36
 70
     0
 10
0.0
 20
0.0
 30
0.0
  3
BLOCK_36
  1

  0
POLYLINE
  5
15E
330
15A
100
AcDbEntity
  8
_U_5207_U_65AD_U_30D1_U_30
 62
     1
100
AcDb2dPolyline
 66
     1
 10
0.0
 20
0.0
 30
0.0
  0
VERTEX
  5
15F
330
15E
100
AcDbEntity
  8
_U_5207_U_65AD_U_30D1_U_30
 62
     1
100
AcDbVertex
100
AcDb2dVertex
 10
32.41581360542652
 20
-71.29598267402199
 30
0.0
  0
VERTEX
  5
160
330
15E
100
AcDbEntity
  8
_U_5207_U_65AD_U_30D1_U_30
 62
     1
100
AcDbVertex
100
AcDb2dVertex
 10
35.98711688412804
 20
-84.67863956690763
 30
0.0
  0
VERTEX
  5
161
330
15E
100
AcDbEntity
  8
_U_5207_U_65AD_U_30D1_U_30
 62
     1
100
AcDbVertex
100
AcDb2dVertex
 10
22.60445999124527
 20
-88.24994284561204
 30
0.0
  0
VERTEX
  5
162
330
15E
100
AcDbEntity
  8
_U_5207_U_65AD_U_30D1_U_30
 62
     1
100
AcDbVertex
100
AcDb2dVertex
 10
19.03315671254472
 20
-74.86728595272511
 30
0.0
  0
VERTEX
  5
163
330
15E
100
AcDbEntity
  8
_U_5207_U_65AD_U_30D1_U_30
 62
     1
100
AcDbVertex
100
AcDb2dVertex
 10
32.41581360542652
 20
-71.29598267402199
 30
0.0
  0
SEQEND
  5
164
330
15E
100
AcDbEntity
  8
_U_5207_U_65AD_U_30D1_U_30
 62
     1
  0
ENDBLK
  5
15D
330
15A
100
AcDbEntity
  8
0
100
AcDbBlockEnd
  0
BLOCK
  5
167
330
165
100
AcDbEntity
  8
0
100
AcDbBlockBegin
  2
BLOCK_37
 70
     0
 10
0.0
 20
0.0
 30
0.0
  3
BLOCK_37
  1

  0
POLYLINE
  5
169
330
165
100
AcDbEntity
  8
_U_5207_U_65AD_U_30D1_U_30
 62
     1
100
AcDb2dPolyline
 66
     1
 10
0.0
 20
0.0
 30
0.0
  0
VERTEX
  5
16A
330
169
100
AcDbEntity
  8
_U_5207_U_65AD_U_30D1_U_30
 62
     1
100
AcDbVertex
100
AcDb2dVertex
 10
7.803221648047098
 20
-74.05761971465016
 30
0.0
  0
VERTEX
  5
16B
330
169
100
AcDbEntity
  8
_U_5207_U_65AD_U_30D1_U_30
 62
     1
100
AcDbVertex
100
AcDb2dVertex
 10
14.72052629556262
 20
-86.05764509106261
 30
0.0
  0
VERTEX
  5
16C
330
169
100
AcDbEntity
  8
_U_5207_U_65AD_U_30D1_U_30
 62
     1
100
AcDbVertex
100
AcDb2dVertex
 10
2.720500919142786
 20
-92.97494973857557
 30
0.0
  0
VERTEX
  5
16D
330
169
100
AcDbEntity
  8
_U_5207_U_65AD_U_30D1_U_30
 62
     1
100
AcDbVertex
100
AcDb2dVertex
 10
-4.196803728370494
 20
-80.9749243621554
 30
0.0
  0
VERTEX
  5
16E
330
169
100
AcDbEntity
  8
_U_5207_U_65AD_U_30D1_U_30
 62
     1
100
AcDbVertex
100
AcDb2dVertex
 10
7.803221648047098
 20
-74.05761971465016
 30
0.0
  0
SEQEND
  5
16F
330
169
100
AcDbEntity
  8
_U_5207_U_65AD_U_30D1_U_30
 62
     1
  0
ENDBLK
  5
168
330
165
100
AcDbEntity
  8
0
100
AcDbBlockEnd
  0
BLOCK
  5
17A
330
178
100
AcDbEntity
  8
0
100
AcDbBlockBegin
  2
BLOCK_38
 70
     0
 10
0.0
 20
0.0
 30
0.0
  3
BLOCK_38
  1

  0
INSERT
  5
17D
330
178
100
AcDbEntity
  8
_U_5207_U_65AD_U_30D1_U_30
100
AcDbBlockReference
  2
BLOCK_39
 10
0.0
 20
0.0
 30
0.0
  0
SPLINE
  5
199
330
178
100
AcDbEntity
  8
_U_5207_U_65AD_U_30D1_U_30
 62
     1
100
AcDbSpline
210
0.0
220
0.0
230
1.0
 70
    11
 71
     3
 72
   182
 73
   178
 74
     0
 42
0.0000000001
 43
0.0000000001
 12
1.0
 22
0.0
 32
0.0
 13
1.0
 23
0.0
 33
0.0
 40
0.0
 40
0.0
 40
0.0
 40
0.0
 40
1.0
 40
1.0
 40
1.0
 40
2.0
 40
2.0
 40
2.0
 40
3.0
 40
3.0
 40
3.0
 40
4.0
 40
4.0
 40
4.0
 40
5.0
 40
5.0
 40
5.0
 40
6.0
 40
6.0
 40
6.0
 40
7.0
 40
7.0
 40
7.0
 40
8.0
 40
8.0
 40
8.0
 40
9.0
 40
9.0
 40
9.0
 40
10.0
 40
10.0
 40
10.0
 40
11.0
 40
11.0
 40
11.0
 40
12.0
 40
12.0
 40
12.0
 40
13.0
 40
13.0
 40
13.0
 40
14.0
 40
14.0
 40
14.0
 40
15.0
 40
15.0
 40
15.0
 40
16.0
 40
16.0
 40
16.0
 40
17.0
 40
17.0
 40
17.0
 40
18.0
 40
18.0
 40
18.0
 40
19.0
 40
19.0
 40
19.0
 40
20.0
 40
20.0
 40
20.0
 40
21.0
 40
21.0
 40
21.0
 40
22.0
 40
22.0
 40
22.0
 40
23.0
 40
23.0
 40
23.0
 40
24.0
 40
24.0
 40
24.0
 40
25.0
 40
25.0
 40
25.0
 40
26.0
 40
26.0
 40
26.0
 40
27.0
 40
27.0
 40
27.0
 40
28.0
 40
28.0
 40
28.0
 40
29.0
 40
29.0
 40
29.0
 40
30.0
 40
30.0
 40
30.0
 40
31.0
 40
31.0
 40
31.0
 40
32.0
 40
32.0
 40
32.0
 40
33.0
 40
33.0
 40
33.0
 40
34.0
 40
34.0
 40
34.0
 40
35.0
 40
35.0
 40
35.0
 40
36.0
 40
36.0
 40
36.0
 40
37.0
 40
37.0
 40
37.0
 40
38.0
 40
38.0
 40
38.0
 40
39.0
 40
39.0
 40
39.0
 40
40.0
 40
40.0
 40
40.0
 40
41.0
 40
41.0
 40
41.0
 40
42.0
 40
42.0
 40
42.0
 40
43.0
 40
43.0
 40
43.0
 40
44.0
 40
44.0
 40
44.0
 40
45.0
 40
45.0
 40
45.0
 40
46.0
 40
46.0
 40
46.0
 40
47.0
 40
47.0
 40
47.0
 40
48.0
 40
48.0
 40
48.0
 40
49.0
 40
49.0
 40
49.0
 40
50.0
 40
50.0
 40
50.0
 40
51.0
 40
51.0
 40
51.0
 40
52.0
 40
52.0
 40
52.0
 40
53.0
 40
53.0
 40
53.0
 40
54.0
 40
54.0
 40
54.0
 40
55.0
 40
55.0
 40
55.0
 40
56.0
 40
56.0
 40
56.0
 40
57.0
 40
57.0
 40
57.0
 40
58.0
 40
58.0
 40
58.0
 40
59.0
 40
59.0
 40
59.0
 40
59.0
 10
10.43822853907714
 20
93.07815122176655
 30
0.0
 10
10.43822853907714
 20
93.07815122176655
 30
0.0
 10
27.43943433650266
 20
93.07815122176655
 30
0.0
 10
27.43943433650266
 20
93.07815122176655
 30
0.0
 10
27.43943433650266
 20
93.07815122176655
 30
0.0
 10
29.43957619502278
 20
93.07815122176655
 30
0.0
 10
29.43957619502278
 20
93.07815122176655
 30
0.0
 10
29.43957619502278
 20
93.07815122176655
 30
0.0
 10
47.44085292171029
 20
93.07815122176655
 30
0.0
 10
47.44085292171029
 20
93.07815122176655
 30
0.0
 10
47.71701488319752
 20
93.07815122176655
 30
0.0
 10
47.94088838633743
 20
93.30202472490517
 30
0.0
 10
47.94088838633743
 20
93.57818668639882
 30
0.0
 10
47.94088838633743
 20
93.57818668639882
 30
0.0
 10
47.94088838633743
 20
97.32845267112357
 30
0.0
 10
47.94088838633743
 20
97.32845267112357
 30
0.0
 10
47.94088838633743
 20
97.6046146326108
 30
0.0
 10
48.16476188947733
 20
97.82848813575585
 30
0.0
 10
48.4409238509697
 20
97.82848813575585
 30
0.0
 10
48.4409238509697
 20
97.82848813575585
 30
0.0
 10
66.44220057765335
 20
97.82848813575585
 30
0.0
 10
66.44220057765335
 20
97.82848813575585
 30
0.0
 10
66.71836253914445
 20
97.82848813575585
 30
0.0
 10
66.94223604228435
 20
98.05236163889062
 30
0.0
 10
66.94223604228435
 20
98.3285236003817
 30
0.0
 10
66.94223604228435
 20
98.3285236003817
 30
0.0
 10
66.94223604228435
 20
99.57861226196175
 30
0.0
 10
66.94223604228435
 20
99.57861226196175
 30
0.0
 10
66.94223604228435
 20
99.85477422344898
 30
0.0
 10
67.16610954542426
 20
100.0786477265876
 30
0.0
 10
67.44227150691407
 20
100.0786477265876
 30
0.0
 10
67.44227150691407
 20
100.0786477265876
 30
0.0
 10
84.44347730433958
 20
100.0786477265876
 30
0.0
 10
84.44347730433958
 20
100.0786477265876
 30
0.0
 10
84.71963926583066
 20
100.0786477265876
 30
0.0
 10
84.94351276897186
 20
99.85477422344898
 30
0.0
 10
84.94351276897186
 20
99.57861226196175
 30
0.0
 10
84.94351276897186
 20
99.57861226196175
 30
0.0
 10
84.94351276897186
 20
98.3285236003817
 30
0.0
 10
84.94351276897186
 20
98.3285236003817
 30
0.0
 10
84.94351276897186
 20
98.05236163889062
 30
0.0
 10
85.16738627211048
 20
97.82848813575585
 30
0.0
 10
85.44354823360028
 20
97.82848813575585
 30
0.0
 10
85.44354823360028
 20
97.82848813575585
 30
0.0
 10
103.4448249602865
 20
97.82848813575585
 30
0.0
 10
103.4448249602865
 20
97.82848813575585
 30
0.0
 10
103.7209869217776
 20
97.82848813575585
 30
0.0
 10
103.9448604249188
 20
97.6046146326108
 30
0.0
 10
103.9448604249188
 20
97.32845267112357
 30
0.0
 10
103.9448604249188
 20
97.32845267112357
 30
0.0
 10
103.9448604249188
 20
95.82834627723443
 30
0.0
 10
103.9448604249188
 20
95.82834627723443
 30
0.0
 10
103.9448604249149
 20
95.5521843157395
 30
0.0
 10
104.1687339280574
 20
95.32831081260473
 30
0.0
 10
104.4448958895472
 20
95.32831081260473
 30
0.0
 10
104.4448958895472
 20
95.32831081260473
 30
0.0
 10
122.4461726162321
 20
95.32831081260473
 30
0.0
 10
122.4461726162321
 20
95.32831081260473
 30
0.0
 10
122.7223345777207
 20
95.32831081260473
 30
0.0
 10
122.9462080808619
 20
95.10443730945968
 30
0.0
 10
122.9462080808619
 20
94.82827534797245
 30
0.0
 10
122.9462080808619
 20
94.82827534797245
 30
0.0
 10
122.9462080808619
 20
93.5936815098758
 30
0.0
 10
122.9462080808619
 20
93.5936815098758
 30
0.0
 10
122.9746246958322
 20
93.32555948902072
 30
0.0
 10
123.1804473310959
 20
93.11041382914993
 30
0.0
 10
123.447048420931
 20
93.07015490497218
 30
0.0
 10
123.447048420931
 20
93.07015490497218
 30
0.0
 10
143.1984492738205
 20
93.07015490497218
 30
0.0
 10
143.1984492738205
 20
93.07015490497218
 30
0.0
 10
143.4746112353078
 20
93.07015490497218
 30
0.0
 10
143.698484738449
 20
92.84628140182971
 30
0.0
 10
143.698484738449
 20
92.57011944033863
 30
0.0
 10
143.698484738449
 20
92.57011944033863
 30
0.0
 10
143.6985397117135
 20
33.60933828110362
 30
0.0
 10
143.6985397117135
 20
33.60933828110362
 30
0.0
 10
143.6552206886027
 20
32.79602640605176
 30
0.0
 10
143.4096113957163
 20
32.00638377106901
 30
0.0
 10
142.9839750232286
 20
31.31198732647123
 30
0.0
 10
142.9839750232286
 20
31.31198732647123
 30
0.0
 10
129.7466903998316
 20
8.272136420491602
 30
0.0
 10
129.7466903998316
 20
8.272136420491602
 30
0.0
 10
129.741945644152
 20
8.264984833494397
 30
0.0
 10
129.7370955774887
 20
8.257903676700174
 30
0.0
 10
129.732141784964
 20
8.250895264417053
 30
0.0
 10
129.4541345027951
 20
7.857582536707678
 30
0.0
 10
128.9099221082615
 20
7.764109004410058
 30
0.0
 10
128.516609380547
 20
8.042116286581582
 30
0.0
 10
128.516609380547
 20
8.042116286581582
 30
0.0
 10
113.7669401781995
 20
16.53164061221633
 30
0.0
 10
113.7669401781995
 20
16.53164061221633
 30
0.0
 10
113.6757070568846
 20
16.56335960624132
 30
0.0
 10
113.5820055045556
 20
16.58747422889195
 30
0.0
 10
113.4867947931394
 20
16.60373760612059
 30
0.0
 10
113.4867947931394
 20
16.60373760612059
 30
0.0
 10
76.6929276025733
 20
22.07311524428621
 30
0.0
 10
76.6929276025733
 20
22.07311524428621
 30
0.0
 10
76.5636802386385
 20
22.08623574585318
 30
0.0
 10
76.44153994324866
 20
22.13858158673564
 30
0.0
 10
76.34290277733085
 20
22.22312588367474
 30
0.0
 10
76.34290277733085
 20
22.22312588367474
 30
0.0
 10
65.79215447363512
 20
36.68237827053216
 30
0.0
 10
65.7957081162694
 20
36.67770445411801
 30
0.0
 10
65.70193327613602
 20
36.77147929425011
 30
0.0
 10
65.57474729912008
 20
36.82416145087098
 30
0.0
 10
65.44212964839265
 20
36.82416145087098
 30
0.0
 10
65.44212964839265
 20
36.82416145087098
 30
0.0
 10
29.43957619502278
 20
36.82416145087098
 30
0.0
 10
29.43957619502278
 20
36.82416145087098
 30
0.0
 10
29.43957619502278
 20
36.82416145087098
 30
0.0
 10
27.43943433650266
 20
36.82416145087098
 30
0.0
 10
27.43943433650266
 20
36.82416145087098
 30
0.0
 10
27.43943433650266
 20
36.82416145087098
 30
0.0
 10
10.43822853907714
 20
36.82416145087098
 30
0.0
 10
10.43822853907714
 20
36.82416145087098
 30
0.0
 10
10.43822853907714
 20
36.82416145087098
 30
0.0
 10
10.39380165569031
 20
36.82245739214096
 30
0.0
 10
10.39380165569031
 20
36.82245739214096
 30
0.0
 10
10.39380165569031
 20
36.82245739214096
 30
0.0
 10
10.43338609037863
 20
36.82407831094196
 30
0.0
 10
10.43338609037863
 20
36.82407831094196
 30
0.0
 10
10.43338609037863
 20
36.82407831094196
 30
0.0
 10
10.42244739621635
 20
36.82309753296571
 30
0.0
 10
10.42244739621635
 20
36.82309753296571
 30
0.0
 10
10.14628127512043
 20
36.82309753296571
 30
0.0
 10
9.922399860974876
 20
37.0469641439666
 30
0.0
 10
9.922383039219575
 20
37.32313161080295
 30
0.0
 10
9.922383039219575
 20
37.32313161080295
 30
0.0
 10
9.931627118595642
 20
38.13716999323561
 30
0.0
 10
9.931627118595642
 20
38.13716999323561
 30
0.0
 10
9.931627118595642
 20
38.13716999323561
 30
0.0
 10
9.93161857318579
 20
38.13716993043381
 30
0.0
 10
9.93161857318579
 20
38.13716993043381
 30
0.0
 10
9.93161857318579
 20
38.13716993043381
 30
0.0
 10
9.914801339574081
 20
60.21536108342087
 30
0.0
 10
9.914801339574081
 20
60.21536108342087
 30
0.0
 10
9.914801339574081
 20
60.21748466180982
 30
0.0
 10
9.922272890407717
 20
59.84135828776513
 30
0.0
 10
9.91234670904084
 20
60.22094321469931
 30
0.0
 10
9.902420527673964
 20
60.47394376013777
 30
0.0
 10
9.636975920535464
 20
60.65465113000294
 30
0.0
 10
9.435588557575828
 20
60.65660514509848
 30
0.0
 10
9.234201194616192
 20
60.65856050593445
 30
0.0
 10
9.43238031240519
 20
60.65858472926207
 30
0.0
 10
9.430485509888301
 20
60.65858338352165
 30
0.0
 10
9.430485509888301
 20
60.65858338352165
 30
0.0
 10
-8.705982821894857
 20
60.6555487388657
 30
0.0
 10
-8.948291459665224
 20
60.65639924681362
 30
0.0
 10
-9.190610863358986
 20
60.65724975476154
 30
0.0
 10
-9.482711896814607
 20
60.84678114458639
 30
0.0
 10
-9.482711896814607
 20
61.14086445368645
 30
0.0
 10
-9.482711896814607
 20
61.32990733973742
 30
0.0
 10
-9.44239351371379
 20
75.76291013654081
 30
0.0
 10
-9.434523623714673
 20
78.61295957854342
 30
0.0
 10
-9.433673115766753
 20
78.92122026300954
 30
0.0
 10
-9.206544429978265
 20
79.09876110565722
 30
0.0
 10
-8.957507090088269
 20
79.09797788473048
 30
0.0
 10
-8.741747219401105
 20
79.09729963155682
 30
0.0
 10
6.408275495452882
 20
79.103664983762
 30
0.0
 10
9.521048457456807
 20
79.09887953081451
 30
0.0
 10
9.801197036105503
 20
79.10245698382897
 30
0.0
 10
9.92238054964163
 20
79.22904093785432
 30
0.0
 10
9.92238054964163
 20
79.4573094182846
 30
0.0
 10
9.92238054964163
 20
79.68557789871615
 30
0.0
 10
9.92238054964163
 20
92.56948817511126
 30
0.0
 10
9.92238054964163
 20
92.56948817511126
 30
0.0
 10
9.92238054964163
 20
92.84982743726177
 30
0.0
 10
10.14964919243421
 20
93.07707993116925
 30
0.0
 10
10.42997230569963
 20
93.07707993116925
 30
0.0
 10
10.42997230569963
 20
93.07707993116925
 30
0.0
 10
10.42766839809387
 20
93.0773921429476
 30
0.0
 10
10.42766839809387
 20
93.0773921429476
 30
0.0
 10
10.42766839809387
 20
93.0773921429476
 30
0.0
 10
10.39380165569031
 20
93.07644716303653
 30
0.0
 10
10.39380165569031
 20
93.07644716303653
 30
0.0
 10
10.39380165569031
 20
93.07644716303653
 30
0.0
 10
10.43822853907714
 20
93.07815122176655
 30
0.0
 10
10.43822853907714
 20
93.07815122176655
 30
0.0
  0
ENDBLK
  5
17B
330
178
100
AcDbEntity
  8
0
100
AcDbBlockEnd
  0
BLOCK
  5
17E
330
17C
100
AcDbEntity
  8
0
100
AcDbBlockBegin
  2
BLOCK_39
 70
     0
 10
0.0
 20
0.0
 30
0.0
  3
BLOCK_39
  1

  0
INSERT
  5
181
330
17C
100
AcDbEntity
  8
_U_5207_U_65AD_U_30D1_U_30
100
AcDbBlockReference
  2
BLOCK_40
 10
0.0
 20
0.0
 30
0.0
  0
INSERT
  5
186
330
17C
100
AcDbEntity
  8
_U_5207_U_65AD_U_30D1_U_30
100
AcDbBlockReference
  2
BLOCK_41
 10
0.0
 20
0.0
 30
0.0
  0
INSERT
  5
18B
330
17C
100
AcDbEntity
  8
_U_5207_U_65AD_U_30D1_U_30
100
AcDbBlockReference
  2
BLOCK_42
 10
0.0
 20
0.0
 30
0.0
  0
INSERT
  5
190
330
17C
100
AcDbEntity
  8
_U_5207_U_65AD_U_30D1_U_30
100
AcDbBlockReference
  2
BLOCK_43
 10
0.0
 20
0.0
 30
0.0
  0
INSERT
  5
195
330
17C
100
AcDbEntity
  8
_U_5207_U_65AD_U_30D1_U_30
100
AcDbBlockReference
  2
BLOCK_44
 10
0.0
 20
0.0
 30
0.0
  0
ENDBLK
  5
17F
330
17C
100
AcDbEntity
  8
0
100
AcDbBlockEnd
  0
BLOCK
  5
182
330
180
100
AcDbEntity
  8
0
100
AcDbBlockBegin
  2
BLOCK_40
 70
     0
 10
0.0
 20
0.0
 30
0.0
  3
BLOCK_40
  1

  0
SPLINE
  5
184
330
180
100
AcDbEntity
  8
_U_5207_U_65AD_U_30D1_U_30
 62
     1
100
AcDbSpline
210
0.0
220
0.0
230
1.0
 70
    11
 71
     3
 72
    20
 73
    16
 74
     0
 42
0.0000000001
 43
0.0000000001
 12
1.0
 22
0.0
 32
0.0
 13
1.0
 23
0.0
 33
0.0
 40
0.0
 40
0.0
 40
0.0
 40
0.0
 40
1.0
 40
1.0
 40
1.0
 40
2.0
 40
2.0
 40
2.0
 40
3.0
 40
3.0
 40
3.0
 40
4.0
 40
4.0
 40
4.0
 40
5.0
 40
5.0
 40
5.0
 40
5.0
 10
70.58582801177238
 20
38.32854288497066
 30
0.0
 10
70.58582801177238
 20
38.93609920025028
 30
0.0
 10
71.07834971868043
 20
39.42862090716346
 30
0.0
 10
71.68590603396005
 20
39.42862090716346
 30
0.0
 10
72.29346234923582
 20
39.42862090716346
 30
0.0
 10
72.78598405614645
 20
38.93609920025028
 30
0.0
 10
72.78598405614645
 20
38.32854288497066
 30
0.0
 10
72.78598405614645
 20
37.72098656969232
 30
0.0
 10
72.29346234923582
 20
37.22846486279069
 30
0.0
 10
71.68590603396005
 20
37.22846486279069
 30
0.0
 10
71.07834971868043
 20
37.22846486279069
 30
0.0
 10
70.58582801177238
 20
37.72098656969232
 30
0.0
 10
70.58582801177238
 20
38.32854288497066
 30
0.0
 10
70.58582801177238
 20
38.32854288497066
 30
0.0
 10
70.58582801177238
 20
38.32854288497066
 30
0.0
 10
70.58582801177238
 20
38.32854288497066
 30
0.0
  0
ENDBLK
  5
183
330
180
100
AcDbEntity
  8
0
100
AcDbBlockEnd
  0
BLOCK
  5
187
330
185
100
AcDbEntity
  8
0
100
AcDbBlockBegin
  2
BLOCK_41
 70
     0
 10
0.0
 20
0.0
 30
0.0
  3
BLOCK_41
  1

  0
SPLINE
  5
189
330
185
100
AcDbEntity
  8
_U_5207_U_65AD_U_30D1_U_30
 62
     1
100
AcDbSpline
210
0.0
220
0.0
230
1.0
 70
    11
 71
     3
 72
    20
 73
    16
 74
     0
 42
0.0000000001
 43
0.0000000001
 12
1.0
 22
0.0
 32
0.0
 13
1.0
 23
0.0
 33
0.0
 40
0.0
 40
0.0
 40
0.0
 40
0.0
 40
1.0
 40
1.0
 40
1.0
 40
2.0
 40
2.0
 40
2.0
 40
3.0
 40
3.0
 40
3.0
 40
4.0
 40
4.0
 40
4.0
 40
5.0
 40
5.0
 40
5.0
 40
5.0
 10
103.3641090522399
 20
78.07581618346288
 30
0.0
 10
103.3641090522399
 20
78.6833724987425
 30
0.0
 10
103.8566307591479
 20
79.17589420564414
 30
0.0
 10
104.4641870744276
 20
79.17589420564414
 30
0.0
 10
105.0717433897033
 20
79.17589420564414
 30
0.0
 10
105.5642650966114
 20
78.6833724987425
 30
0.0
 10
105.5642650966114
 20
78.07581618346288
 30
0.0
 10
105.5642650966114
 20
77.46825986818455
 30
0.0
 10
105.0717433897033
 20
76.97573816127137
 30
0.0
 10
104.4641870744276
 20
76.97573816127137
 30
0.0
 10
103.8566307591479
 20
76.97573816127137
 30
0.0
 10
103.3641090522399
 20
77.46825986818455
 30
0.0
 10
103.3641090522399
 20
78.07581618346288
 30
0.0
 10
103.3641090522399
 20
78.07581618346288
 30
0.0
 10
103.3641090522399
 20
78.07581618346288
 30
0.0
 10
103.3641090522399
 20
78.07581618346288
 30
0.0
  0
ENDBLK
  5
188
330
185
100
AcDbEntity
  8
0
100
AcDbBlockEnd
  0
BLOCK
  5
18C
330
18A
100
AcDbEntity
  8
0
100
AcDbBlockBegin
  2
BLOCK_42
 70
     0
 10
0.0
 20
0.0
 30
0.0
  3
BLOCK_42
  1

  0
SPLINE
  5
18E
330
18A
100
AcDbEntity
  8
_U_5207_U_65AD_U_30D1_U_30
 62
     1
100
AcDbSpline
210
0.0
220
0.0
230
1.0
 70
    11
 71
     3
 72
    20
 73
    16
 74
     0
 42
0.0000000001
 43
0.0000000001
 12
1.0
 22
0.0
 32
0.0
 13
1.0
 23
0.0
 33
0.0
 40
0.0
 40
0.0
 40
0.0
 40
0.0
 40
1.0
 40
1.0
 40
1.0
 40
2.0
 40
2.0
 40
2.0
 40
3.0
 40
3.0
 40
3.0
 40
4.0
 40
4.0
 40
4.0
 40
5.0
 40
5.0
 40
5.0
 40
5.0
 10
27.34228664497127
 20
74.45341746448632
 30
0.0
 10
27.34228664497127
 20
75.0609737797621
 30
0.0
 10
27.83480835188188
 20
75.55349548667527
 30
0.0
 10
28.44236466715765
 20
75.55349548667527
 30
0.0
 10
29.04992098243727
 20
75.55349548667527
 30
0.0
 10
29.54244268934533
 20
75.0609737797621
 30
0.0
 10
29.54244268934533
 20
74.45341746448632
 30
0.0
 10
29.54244268934533
 20
73.84586114921183
 30
0.0
 10
29.04992098243727
 20
73.3533394423025
 30
0.0
 10
28.44236466715765
 20
73.3533394423025
 30
0.0
 10
27.83480835188188
 20
73.3533394423025
 30
0.0
 10
27.34228664497127
 20
73.84586114921183
 30
0.0
 10
27.34228664497127
 20
74.45341746448632
 30
0.0
 10
27.34228664497127
 20
74.45341746448632
 30
0.0
 10
27.34228664497127
 20
74.45341746448632
 30
0.0
 10
27.34228664497127
 20
74.45341746448632
 30
0.0
  0
ENDBLK
  5
18D
330
18A
100
AcDbEntity
  8
0
100
AcDbBlockEnd
  0
BLOCK
  5
191
330
18F
100
AcDbEntity
  8
0
100
AcDbBlockBegin
  2
BLOCK_43
 70
     0
 10
0.0
 20
0.0
 30
0.0
  3
BLOCK_43
  1

  0
SPLINE
  5
193
330
18F
100
AcDbEntity
  8
_U_5207_U_65AD_U_30D1_U_30
 62
     1
100
AcDbSpline
210
0.0
220
0.0
230
1.0
 70
    11
 71
     3
 72
    20
 73
    16
 74
     0
 42
0.0000000001
 43
0.0000000001
 12
1.0
 22
0.0
 32
0.0
 13
1.0
 23
0.0
 33
0.0
 40
0.0
 40
0.0
 40
0.0
 40
0.0
 40
1.0
 40
1.0
 40
1.0
 40
2.0
 40
2.0
 40
2.0
 40
3.0
 40
3.0
 40
3.0
 40
4.0
 40
4.0
 40
4.0
 40
5.0
 40
5.0
 40
5.0
 40
5.0
 10
27.33349123593971
 20
55.43827184323874
 30
0.0
 10
27.33349123593971
 20
56.04582815851708
 30
0.0
 10
27.82601294284776
 20
56.53834986542641
 30
0.0
 10
28.43356925812738
 20
56.53834986542641
 30
0.0
 10
29.04112557340187
 20
56.53834986542641
 30
0.0
 10
29.53364728031377
 20
56.04582815851708
 30
0.0
 10
29.53364728031377
 20
55.43827184323874
 30
0.0
 10
29.53364728031377
 20
54.83071552795912
 30
0.0
 10
29.04112557340187
 20
54.33819382105364
 30
0.0
 10
28.43356925812738
 20
54.33819382105364
 30
0.0
 10
27.82601294284776
 20
54.33819382105364
 30
0.0
 10
27.33349123593971
 20
54.83071552795912
 30
0.0
 10
27.33349123593971
 20
55.43827184323874
 30
0.0
 10
27.33349123593971
 20
55.43827184323874
 30
0.0
 10
27.33349123593971
 20
55.43827184323874
 30
0.0
 10
27.33349123593971
 20
55.43827184323874
 30
0.0
  0
ENDBLK
  5
192
330
18F
100
AcDbEntity
  8
0
100
AcDbBlockEnd
  0
BLOCK
  5
196
330
194
100
AcDbEntity
  8
0
100
AcDbBlockBegin
  2
BLOCK_44
 70
     0
 10
0.0
 20
0.0
 30
0.0
  3
BLOCK_44
  1

  0
SPLINE
  5
198
330
194
100
AcDbEntity
  8
_U_5207_U_65AD_U_30D1_U_30
 62
     1
100
AcDbSpline
210
0.0
220
0.0
230
1.0
 70
    11
 71
     3
 72
    20
 73
    16
 74
     0
 42
0.0000000001
 43
0.0000000001
 12
1.0
 22
0.0
 32
0.0
 13
1.0
 23
0.0
 33
0.0
 40
0.0
 40
0.0
 40
0.0
 40
0.0
 40
1.0
 40
1.0
 40
1.0
 40
2.0
 40
2.0
 40
2.0
 40
3.0
 40
3.0
 40
3.0
 40
4.0
 40
4.0
 40
4.0
 40
5.0
 40
5.0
 40
5.0
 40
5.0
 10
117.1058068606297
 20
30.57403326050865
 30
0.0
 10
117.1058068606297
 20
31.18158957578827
 30
0.0
 10
117.5983285675365
 20
31.67411128270145
 30
0.0
 10
118.2058848828161
 20
31.67411128270145
 30
0.0
 10
118.8134411980931
 20
31.67411128270145
 30
0.0
 10
119.3059629050025
 20
31.18158957578827
 30
0.0
 10
119.3059629050025
 20
30.57403326050865
 30
0.0
 10
119.3059629050025
 20
29.96647694523801
 30
0.0
 10
118.8134411980931
 20
29.47395523832739
 30
0.0
 10
118.2058848828161
 20
29.47395523832739
 30
0.0
 10
117.5983285675365
 20
29.47395523832739
 30
0.0
 10
117.1058068606297
 20
29.96647694523801
 30
0.0
 10
117.1058068606297
 20
30.57403326050865
 30
0.0
 10
117.1058068606297
 20
30.57403326050865
 30
0.0
 10
117.1058068606297
 20
30.57403326050865
 30
0.0
 10
117.1058068606297
 20
30.57403326050865
 30
0.0
  0
ENDBLK
  5
197
330
194
100
AcDbEntity
  8
0
100
AcDbBlockEnd
  0
BLOCK
  5
19C
330
19A
100
AcDbEntity
  8
0
100
AcDbBlockBegin
  2
BLOCK_45
 70
     0
 10
0.0
 20
0.0
 30
0.0
  3
BLOCK_45
  1

  0
INSERT
  5
19F
330
19A
100
AcDbEntity
  8
_U_5207_U_65AD_U_30D1_U_30
100
AcDbBlockReference
  2
BLOCK_46
 10
0.0
 20
0.0
 30
0.0
  0
SPLINE
  5
2A2
330
19A
100
AcDbEntity
  8
_U_5207_U_65AD_U_30D1_U_30
 62
     1
100
AcDbSpline
210
0.0
220
0.0
230
1.0
 70
    11
 71
     3
 72
   176
 73
   172
 74
     0
 42
0.0000000001
 43
0.0000000001
 12
1.0
 22
0.0
 32
0.0
 13
1.0
 23
0.0
 33
0.0
 40
0.0
 40
0.0
 40
0.0
 40
0.0
 40
1.0
 40
1.0
 40
1.0
 40
2.0
 40
2.0
 40
2.0
 40
3.0
 40
3.0
 40
3.0
 40
4.0
 40
4.0
 40
4.0
 40
5.0
 40
5.0
 40
5.0
 40
6.0
 40
6.0
 40
6.0
 40
7.0
 40
7.0
 40
7.0
 40
8.0
 40
8.0
 40
8.0
 40
9.0
 40
9.0
 40
9.0
 40
10.0
 40
10.0
 40
10.0
 40
11.0
 40
11.0
 40
11.0
 40
12.0
 40
12.0
 40
12.0
 40
13.0
 40
13.0
 40
13.0
 40
14.0
 40
14.0
 40
14.0
 40
15.0
 40
15.0
 40
15.0
 40
16.0
 40
16.0
 40
16.0
 40
17.0
 40
17.0
 40
17.0
 40
18.0
 40
18.0
 40
18.0
 40
19.0
 40
19.0
 40
19.0
 40
20.0
 40
20.0
 40
20.0
 40
21.0
 40
21.0
 40
21.0
 40
22.0
 40
22.0
 40
22.0
 40
23.0
 40
23.0
 40
23.0
 40
24.0
 40
24.0
 40
24.0
 40
25.0
 40
25.0
 40
25.0
 40
26.0
 40
26.0
 40
26.0
 40
27.0
 40
27.0
 40
27.0
 40
28.0
 40
28.0
 40
28.0
 40
29.0
 40
29.0
 40
29.0
 40
30.0
 40
30.0
 40
30.0
 40
31.0
 40
31.0
 40
31.0
 40
32.0
 40
32.0
 40
32.0
 40
33.0
 40
33.0
 40
33.0
 40
34.0
 40
34.0
 40
34.0
 40
35.0
 40
35.0
 40
35.0
 40
36.0
 40
36.0
 40
36.0
 40
37.0
 40
37.0
 40
37.0
 40
38.0
 40
38.0
 40
38.0
 40
39.0
 40
39.0
 40
39.0
 40
40.0
 40
40.0
 40
40.0
 40
41.0
 40
41.0
 40
41.0
 40
42.0
 40
42.0
 40
42.0
 40
43.0
 40
43.0
 40
43.0
 40
44.0
 40
44.0
 40
44.0
 40
45.0
 40
45.0
 40
45.0
 40
46.0
 40
46.0
 40
46.0
 40
47.0
 40
47.0
 40
47.0
 40
48.0
 40
48.0
 40
48.0
 40
49.0
 40
49.0
 40
49.0
 40
50.0
 40
50.0
 40
50.0
 40
51.0
 40
51.0
 40
51.0
 40
52.0
 40
52.0
 40
52.0
 40
53.0
 40
53.0
 40
53.0
 40
54.0
 40
54.0
 40
54.0
 40
55.0
 40
55.0
 40
55.0
 40
56.0
 40
56.0
 40
56.0
 40
57.0
 40
57.0
 40
57.0
 40
57.0
 10
-123.0287715056508
 20
91.49987298075261
 30
0.0
 10
-123.0287715056508
 20
91.49987298075261
 30
0.0
 10
-106.0275657082275
 20
91.49987298075261
 30
0.0
 10
-106.0275657082275
 20
91.49987298075261
 30
0.0
 10
-106.0275657082275
 20
91.49987298075261
 30
0.0
 10
-104.0274238497023
 20
91.49987298075261
 30
0.0
 10
-104.0274238497023
 20
91.49987298075261
 30
0.0
 10
-104.0274238497023
 20
91.49987298075261
 30
0.0
 10
-86.02614712302119
 20
91.49987298075261
 30
0.0
 10
-86.02614712302119
 20
91.49987298075261
 30
0.0
 10
-85.74998516152753
 20
91.49987298075261
 30
0.0
 10
-85.52611165838891
 20
91.72374648389894
 30
0.0
 10
-85.52611165838891
 20
91.99990844538489
 30
0.0
 10
-85.52611165838891
 20
91.99990844538489
 30
0.0
 10
-85.52611165838891
 20
95.75017443010964
 30
0.0
 10
-85.52611165838891
 20
95.75017443010964
 30
0.0
 10
-85.52611165838891
 20
96.02633639160072
 30
0.0
 10
-85.30223815524772
 20
96.25020989474577
 30
0.0
 10
-85.02607619375664
 20
96.25020989474577
 30
0.0
 10
-85.02607619375664
 20
96.25020989474577
 30
0.0
 10
-67.02479946707203
 20
96.25020989474577
 30
0.0
 10
-67.02479946707203
 20
96.25020989474577
 30
0.0
 10
-66.7486375055835
 20
96.25020989474577
 30
0.0
 10
-66.52476400244103
 20
96.47408339788053
 30
0.0
 10
-66.52476400244103
 20
96.75024535937034
 30
0.0
 10
-66.52476400244103
 20
96.75024535937034
 30
0.0
 10
-66.52476400244103
 20
98.00033402094782
 30
0.0
 10
-66.52476400244103
 20
98.00033402094782
 30
0.0
 10
-66.52476400244103
 20
98.27649598244403
 30
0.0
 10
-66.30089049930241
 20
98.50036948558265
 30
0.0
 10
-66.02472853781646
 20
98.50036948558265
 30
0.0
 10
-66.02472853781646
 20
98.50036948558265
 30
0.0
 10
-49.02352274038484
 20
98.50036948558265
 30
0.0
 10
-49.02352274038484
 20
98.50036948558265
 30
0.0
 10
-48.74736077889728
 20
98.50036948558265
 30
0.0
 10
-48.52348727575994
 20
98.27649598244403
 30
0.0
 10
-48.52348727575994
 20
98.00033402094782
 30
0.0
 10
-48.52348727575994
 20
98.00033402094782
 30
0.0
 10
-48.52348727575994
 20
96.75024535937034
 30
0.0
 10
-48.52348727575994
 20
96.75024535937034
 30
0.0
 10
-48.52348727575994
 20
96.47408339788053
 30
0.0
 10
-48.29961377261715
 20
96.25020989474577
 30
0.0
 10
-48.02345181112895
 20
96.25020989474577
 30
0.0
 10
-48.02345181112895
 20
96.25020989474577
 30
0.0
 10
-30.02217508444273
 20
96.25020989474577
 30
0.0
 10
-30.02217508444273
 20
96.25020989474577
 30
0.0
 10
-29.74601312295421
 20
96.25020989474577
 30
0.0
 10
-29.52213961980917
 20
96.02633639160072
 30
0.0
 10
-29.52213961980917
 20
95.75017443010964
 30
0.0
 10
-29.52213961980917
 20
95.75017443010964
 30
0.0
 10
-29.52213961980917
 20
94.25006803622307
 30
0.0
 10
-29.52213961980917
 20
94.25006803622307
 30
0.0
 10
-29.52213961980917
 20
93.97390607472941
 30
0.0
 10
-29.29826611667311
 20
93.7500325715908
 30
0.0
 10
-29.02210415517818
 20
93.7500325715908
 30
0.0
 10
-29.02210415517818
 20
93.7500325715908
 30
0.0
 10
-11.02082742850094
 20
93.7500325715908
 30
0.0
 10
-11.02082742850094
 20
93.7500325715908
 30
0.0
 10
-10.74466546700472
 20
93.7500325715908
 30
0.0
 10
-10.5207919638661
 20
93.5261590684496
 30
0.0
 10
-10.5207919638661
 20
93.24999710695852
 30
0.0
 10
-10.5207919638661
 20
93.24999710695852
 30
0.0
 10
-10.5207919638661
 20
92.01540326886186
 30
0.0
 10
-10.5207919638661
 20
92.01540326886186
 30
0.0
 10
-10.5207919638661
 20
92.01540326886186
 30
0.0
 10
-10.52148748918949
 20
75.75464232616378
 30
0.0
 10
-10.52148748918949
 20
75.75464232616378
 30
0.0
 10
-10.52148748918949
 20
75.75464232616378
 30
0.0
 10
-10.5212834528329
 20
43.46181682467142
 30
0.0
 10
-10.5212834528329
 20
43.46181682467142
 30
0.0
 10
-10.43923477040225
 20
43.07846879694648
 30
0.0
 10
-10.23643587093131
 20
42.73152752490635
 30
0.0
 10
-9.942665732573627
 20
42.47193784395549
 30
0.0
 10
-9.942665732573627
 20
42.47193784395549
 30
0.0
 10
9.13428349696882
 20
31.43456011449474
 30
0.0
 10
9.13428349696882
 20
31.43456011449474
 30
0.0
 10
9.661700951621555
 20
31.03818064898166
 30
0.0
 10
9.82378871940192
 20
30.31779056997436
 30
0.0
 10
9.516974978503239
 20
29.7337090854573
 30
0.0
 10
9.516974978503239
 20
29.7337090854573
 30
0.0
 10
-3.720309644893834
 20
6.69385817948152
 30
0.0
 10
-3.720309644893834
 20
6.69385817948152
 30
0.0
 10
-3.725054400573381
 20
6.686706592480465
 30
0.0
 10
-3.729904467237976
 20
6.679625435688808
 30
0.0
 10
-3.73485825976522
 20
6.672617023406969
 30
0.0
 10
-4.012865541934175
 20
6.279304295693745
 30
0.0
 10
-4.557077936465133
 20
6.185830763398692
 30
0.0
 10
-4.950390664184776
 20
6.463838045574064
 30
0.0
 10
-4.950390664184776
 20
6.463838045574064
 30
0.0
 10
-19.70005986652971
 20
14.95336237120239
 30
0.0
 10
-19.70005986652971
 20
14.95336237120239
 30
0.0
 10
-19.79129298784589
 20
14.98508136522995
 30
0.0
 10
-19.8849945401724
 20
15.00919598787801
 30
0.0
 10
-19.98020525158987
 20
15.02545936511051
 30
0.0
 10
-19.98020525158987
 20
15.02545936511051
 30
0.0
 10
-56.77407244215207
 20
20.49483700327228
 30
0.0
 10
-56.77407244215207
 20
20.49483700327228
 30
0.0
 10
-56.90331980608816
 20
20.50795750483925
 30
0.0
 10
-57.02546010147929
 20
20.56030334572428
 30
0.0
 10
-57.12409726739454
 20
20.64484764266466
 30
0.0
 10
-57.12409726739454
 20
20.64484764266466
 30
0.0
 10
-67.67484557109283
 20
35.10410002952208
 30
0.0
 10
-67.6712919284624
 20
35.09942621310665
 30
0.0
 10
-67.76506676859321
 20
35.19320105323618
 30
0.0
 10
-67.89225274560788
 20
35.24588320985705
 30
0.0
 10
-68.02487039633529
 20
35.24588320985705
 30
0.0
 10
-68.02487039633529
 20
35.24588320985705
 30
0.0
 10
-104.0274238497023
 20
35.24588320985705
 30
0.0
 10
-104.0274238497023
 20
35.24588320985705
 30
0.0
 10
-104.0274238497023
 20
35.24588320985705
 30
0.0
 10
-106.0275657082224
 20
35.24588320985705
 30
0.0
 10
-106.0275657082224
 20
35.24588320985705
 30
0.0
 10
-106.0275657082224
 20
35.24588320985705
 30
0.0
 10
-123.0287715056508
 20
35.24588320985705
 30
0.0
 10
-123.0287715056508
 20
35.24588320985705
 30
0.0
 10
-123.0287715056508
 20
35.24588320985705
 30
0.0
 10
-122.9891870709622
 20
35.24750412865804
 30
0.0
 10
-122.9891870709622
 20
35.24750412865804
 30
0.0
 10
-122.9891870709622
 20
35.24750412865804
 30
0.0
 10
-123.0001257651245
 20
35.24652335068244
 30
0.0
 10
-123.0001257651245
 20
35.24652335068244
 30
0.0
 10
-123.2762918862204
 20
35.24652335068244
 30
0.0
 10
-123.5001733003659
 20
35.47038996168332
 30
0.0
 10
-123.5001901221212
 20
35.74655742851967
 30
0.0
 10
-123.5001901221212
 20
35.74655742851967
 30
0.0
 10
-123.4909460427452
 20
36.56059581095234
 30
0.0
 10
-123.4909460427452
 20
36.56059581095234
 30
0.0
 10
-123.4909460427452
 20
36.56059581095234
 30
0.0
 10
-123.490954588155
 20
36.56059574815053
 30
0.0
 10
-123.490954588155
 20
36.56059574815053
 30
0.0
 10
-123.490954588155
 20
36.56059574815053
 30
0.0
 10
-123.5077718217667
 20
58.63878690113759
 30
0.0
 10
-123.5077718217667
 20
58.63878690113759
 30
0.0
 10
-123.5077718217667
 20
58.64091047952655
 30
0.0
 10
-123.5003002709331
 20
58.26478410548185
 30
0.0
 10
-123.5102264523
 20
58.64436903241604
 30
0.0
 10
-123.5201526336668
 20
58.89736957785449
 30
0.0
 10
-123.7855972408053
 20
59.07807694771967
 30
0.0
 10
-123.986984603765
 20
59.0800309628152
 30
0.0
 10
-124.1883719667246
 20
59.08198632365117
 30
0.0
 10
-123.9901928489356
 20
59.0820105469788
 30
0.0
 10
-123.9920876514525
 20
59.08200920123837
 30
0.0
 10
-123.9920876514525
 20
59.08200920123837
 30
0.0
 10
-142.1285559832357
 20
59.07897455658242
 30
0.0
 10
-142.370864621006
 20
59.07982506453034
 30
0.0
 10
-142.6131840246998
 20
59.08067557247826
 30
0.0
 10
-142.9052850581554
 20
59.27020696230311
 30
0.0
 10
-142.9052850581554
 20
59.56429027140317
 30
0.0
 10
-142.9052850581554
 20
59.75333315745414
 30
0.0
 10
-142.8649666750546
 20
74.18633595425754
 30
0.0
 10
-142.8570967850555
 20
77.03638539626014
 30
0.0
 10
-142.8562462771075
 20
77.34464608072626
 30
0.0
 10
-142.6291175913191
 20
77.52218692337394
 30
0.0
 10
-142.3800802514291
 20
77.52140370244722
 30
0.0
 10
-142.1643203807419
 20
77.52072544927356
 30
0.0
 10
-127.0142976658879
 20
77.52709080147872
 30
0.0
 10
-123.901524703884
 20
77.52230534853125
 30
0.0
 10
-123.6213761252353
 20
77.52588280154505
 30
0.0
 10
-123.5001926116992
 20
77.6524667555704
 30
0.0
 10
-123.5001926116992
 20
77.88073523600131
 30
0.0
 10
-123.5001926116992
 20
78.10900371643223
 30
0.0
 10
-123.5001926116992
 20
90.99291399282798
 30
0.0
 10
-123.5001926116992
 20
90.99291399282798
 30
0.0
 10
-123.5001926116992
 20
91.27325325497848
 30
0.0
 10
-123.2729239689066
 20
91.50050574888597
 30
0.0
 10
-122.9926008556412
 20
91.50050574888597
 30
0.0
 10
-122.9926008556412
 20
91.50050574888597
 30
0.0
 10
-122.9949047632469
 20
91.50081796066432
 30
0.0
 10
-122.9949047632469
 20
91.50081796066432
 30
0.0
 10
-122.9949047632469
 20
91.50081796066432
 30
0.0
 10
-123.0287715056508
 20
91.49987298075261
 30
0.0
 10
-123.0287715056508
 20
91.49987298075261
 30
0.0
  0
POLYLINE
  5
2A3
330
19A
100
AcDbEntity
  8
_U_5207_U_65AD_U_30D1_U_30
 62
     1
100
AcDb2dPolyline
 66
     1
 10
0.0
 20
0.0
 30
0.0
  0
VERTEX
  5
2A4
330
2A3
100
AcDbEntity
  8
_U_5207_U_65AD_U_30D1_U_30
 62
     1
100
AcDbVertex
100
AcDb2dVertex
 10
-126.5975354853171
 20
61.45445635653222
 30
0.0
  0
VERTEX
  5
2A5
330
2A3
100
AcDbEntity
  8
_U_5207_U_65AD_U_30D1_U_30
 62
     1
100
AcDbVertex
100
AcDb2dVertex
 10
-126.5975354853171
 20
75.30543872679223
 30
0.0
  0
VERTEX
  5
2A6
330
2A3
100
AcDbEntity
  8
_U_5207_U_65AD_U_30D1_U_30
 62
     1
100
AcDbVertex
100
AcDb2dVertex
 10
-140.4485178555717
 20
75.30543872679223
 30
0.0
  0
VERTEX
  5
2A7
330
2A3
100
AcDbEntity
  8
_U_5207_U_65AD_U_30D1_U_30
 62
     1
100
AcDbVertex
100
AcDb2dVertex
 10
-140.4485178555717
 20
61.45445635653222
 30
0.0
  0
VERTEX
  5
2A8
330
2A3
100
AcDbEntity
  8
_U_5207_U_65AD_U_30D1_U_30
 62
     1
100
AcDbVertex
100
AcDb2dVertex
 10
-126.5975354853171
 20
61.45445635653222
 30
0.0
  0
SEQEND
  5
2A9
330
2A3
100
AcDbEntity
  8
_U_5207_U_65AD_U_30D1_U_30
 62
     1
  0
ENDBLK
  5
19D
330
19A
100
AcDbEntity
  8
0
100
AcDbBlockEnd
  0
BLOCK
  5
1A0
330
19E
100
AcDbEntity
  8
0
100
AcDbBlockBegin
  2
BLOCK_46
 70
     0
 10
0.0
 20
0.0
 30
0.0
  3
BLOCK_46
  1

  0
INSERT
  5
1A3
330
19E
100
AcDbEntity
  8
_U_5207_U_65AD_U_30D1_U_30
100
AcDbBlockReference
  2
BLOCK_47
 10
0.0
 20
0.0
 30
0.0
  0
INSERT
  5
1A8
330
19E
100
AcDbEntity
  8
_U_5207_U_65AD_U_30D1_U_30
100
AcDbBlockReference
  2
BLOCK_48
 10
0.0
 20
0.0
 30
0.0
  0
INSERT
  5
1AD
330
19E
100
AcDbEntity
  8
_U_5207_U_65AD_U_30D1_U_30
100
AcDbBlockReference
  2
BLOCK_49
 10
0.0
 20
0.0
 30
0.0
  0
INSERT
  5
1B2
330
19E
100
AcDbEntity
  8
_U_5207_U_65AD_U_30D1_U_30
100
AcDbBlockReference
  2
BLOCK_50
 10
0.0
 20
0.0
 30
0.0
  0
INSERT
  5
1B7
330
19E
100
AcDbEntity
  8
_U_5207_U_65AD_U_30D1_U_30
100
AcDbBlockReference
  2
BLOCK_51
 10
0.0
 20
0.0
 30
0.0
  0
INSERT
  5
1BC
330
19E
100
AcDbEntity
  8
_U_5207_U_65AD_U_30D1_U_30
100
AcDbBlockReference
  2
BLOCK_52
 10
0.0
 20
0.0
 30
0.0
  0
INSERT
  5
1C7
330
19E
100
AcDbEntity
  8
_U_5207_U_65AD_U_30D1_U_30
100
AcDbBlockReference
  2
BLOCK_53
 10
0.0
 20
0.0
 30
0.0
  0
INSERT
  5
1D2
330
19E
100
AcDbEntity
  8
_U_5207_U_65AD_U_30D1_U_30
100
AcDbBlockReference
  2
BLOCK_54
 10
0.0
 20
0.0
 30
0.0
  0
INSERT
  5
1DD
330
19E
100
AcDbEntity
  8
_U_5207_U_65AD_U_30D1_U_30
100
AcDbBlockReference
  2
BLOCK_55
 10
0.0
 20
0.0
 30
0.0
  0
INSERT
  5
1E8
330
19E
100
AcDbEntity
  8
_U_5207_U_65AD_U_30D1_U_30
100
AcDbBlockReference
  2
BLOCK_56
 10
0.0
 20
0.0
 30
0.0
  0
INSERT
  5
1F3
330
19E
100
AcDbEntity
  8
_U_5207_U_65AD_U_30D1_U_30
100
AcDbBlockReference
  2
BLOCK_57
 10
0.0
 20
0.0
 30
0.0
  0
INSERT
  5
1FE
330
19E
100
AcDbEntity
  8
_U_5207_U_65AD_U_30D1_U_30
100
AcDbBlockReference
  2
BLOCK_58
 10
0.0
 20
0.0
 30
0.0
  0
INSERT
  5
209
330
19E
100
AcDbEntity
  8
_U_5207_U_65AD_U_30D1_U_30
100
AcDbBlockReference
  2
BLOCK_59
 10
0.0
 20
0.0
 30
0.0
  0
INSERT
  5
214
330
19E
100
AcDbEntity
  8
_U_5207_U_65AD_U_30D1_U_30
100
AcDbBlockReference
  2
BLOCK_60
 10
0.0
 20
0.0
 30
0.0
  0
INSERT
  5
21F
330
19E
100
AcDbEntity
  8
_U_5207_U_65AD_U_30D1_U_30
100
AcDbBlockReference
  2
BLOCK_61
 10
0.0
 20
0.0
 30
0.0
  0
INSERT
  5
22A
330
19E
100
AcDbEntity
  8
_U_5207_U_65AD_U_30D1_U_30
100
AcDbBlockReference
  2
BLOCK_62
 10
0.0
 20
0.0
 30
0.0
  0
INSERT
  5
235
330
19E
100
AcDbEntity
  8
_U_5207_U_65AD_U_30D1_U_30
100
AcDbBlockReference
  2
BLOCK_63
 10
0.0
 20
0.0
 30
0.0
  0
INSERT
  5
240
330
19E
100
AcDbEntity
  8
_U_5207_U_65AD_U_30D1_U_30
100
AcDbBlockReference
  2
BLOCK_64
 10
0.0
 20
0.0
 30
0.0
  0
INSERT
  5
24B
330
19E
100
AcDbEntity
  8
_U_5207_U_65AD_U_30D1_U_30
100
AcDbBlockReference
  2
BLOCK_65
 10
0.0
 20
0.0
 30
0.0
  0
INSERT
  5
256
330
19E
100
AcDbEntity
  8
_U_5207_U_65AD_U_30D1_U_30
100
AcDbBlockReference
  2
BLOCK_66
 10
0.0
 20
0.0
 30
0.0
  0
INSERT
  5
261
330
19E
100
AcDbEntity
  8
_U_5207_U_65AD_U_30D1_U_30
100
AcDbBlockReference
  2
BLOCK_67
 10
0.0
 20
0.0
 30
0.0
  0
INSERT
  5
26C
330
19E
100
AcDbEntity
  8
_U_5207_U_65AD_U_30D1_U_30
100
AcDbBlockReference
  2
BLOCK_68
 10
0.0
 20
0.0
 30
0.0
  0
INSERT
  5
277
330
19E
100
AcDbEntity
  8
_U_5207_U_65AD_U_30D1_U_30
100
AcDbBlockReference
  2
BLOCK_69
 10
0.0
 20
0.0
 30
0.0
  0
INSERT
  5
282
330
19E
100
AcDbEntity
  8
_U_5207_U_65AD_U_30D1_U_30
100
AcDbBlockReference
  2
BLOCK_70
 10
0.0
 20
0.0
 30
0.0
  0
INSERT
  5
28D
330
19E
100
AcDbEntity
  8
_U_5207_U_65AD_U_30D1_U_30
100
AcDbBlockReference
  2
BLOCK_71
 10
0.0
 20
0.0
 30
0.0
  0
INSERT
  5
298
330
19E
100
AcDbEntity
  8
_U_5207_U_65AD_U_30D1_U_30
100
AcDbBlockReference
  2
BLOCK_72
 10
0.0
 20
0.0
 30
0.0
  0
ENDBLK
  5
1A1
330
19E
100
AcDbEntity
  8
0
100
AcDbBlockEnd
  0
BLOCK
  5
1A4
330
1A2
100
AcDbEntity
  8
0
100
AcDbBlockBegin
  2
BLOCK_47
 70
     0
 10
0.0
 20
0.0
 30
0.0
  3
BLOCK_47
  1

  0
SPLINE
  5
1A6
330
1A2
100
AcDbEntity
  8
_U_5207_U_65AD_U_30D1_U_30
 62
     1
100
AcDbSpline
210
0.0
220
0.0
230
1.0
 70
    11
 71
     3
 72
    20
 73
    16
 74
     0
 42
0.0000000001
 43
0.0000000001
 12
1.0
 22
0.0
 32
0.0
 13
1.0
 23
0.0
 33
0.0
 40
0.0
 40
0.0
 40
0.0
 40
0.0
 40
1.0
 40
1.0
 40
1.0
 40
2.0
 40
2.0
 40
2.0
 40
3.0
 40
3.0
 40
3.0
 40
4.0
 40
4.0
 40
4.0
 40
5.0
 40
5.0
 40
5.0
 40
5.0
 10
-30.10289099249061
 20
76.49888282556809
 30
0.0
 10
-30.10289099249061
 20
77.10643914084386
 30
0.0
 10
-29.61036928558
 20
77.59896084774934
 30
0.0
 10
-29.00281297030037
 20
77.59896084774934
 30
0.0
 10
-28.39525665502075
 20
77.59896084774934
 30
0.0
 10
-27.90273494811784
 20
77.10643914084386
 30
0.0
 10
-27.90273494811784
 20
76.49888282556809
 30
0.0
 10
-27.90273494811784
 20
75.89132651028591
 30
0.0
 10
-28.39525665502075
 20
75.39880480337656
 30
0.0
 10
-29.00281297030037
 20
75.39880480337656
 30
0.0
 10
-29.61036928558
 20
75.39880480337656
 30
0.0
 10
-30.10289099249061
 20
75.89132651028591
 30
0.0
 10
-30.10289099249061
 20
76.49888282556809
 30
0.0
 10
-30.10289099249061
 20
76.49888282556809
 30
0.0
 10
-30.10289099249061
 20
76.49888282556809
 30
0.0
 10
-30.10289099249061
 20
76.49888282556809
 30
0.0
  0
ENDBLK
  5
1A5
330
1A2
100
AcDbEntity
  8
0
100
AcDbBlockEnd
  0
BLOCK
  5
1A9
330
1A7
100
AcDbEntity
  8
0
100
AcDbBlockBegin
  2
BLOCK_48
 70
     0
 10
0.0
 20
0.0
 30
0.0
  3
BLOCK_48
  1

  0
SPLINE
  5
1AB
330
1A7
100
AcDbEntity
  8
_U_5207_U_65AD_U_30D1_U_30
 62
     1
100
AcDbSpline
210
0.0
220
0.0
230
1.0
 70
    11
 71
     3
 72
    20
 73
    16
 74
     0
 42
0.0000000001
 43
0.0000000001
 12
1.0
 22
0.0
 32
0.0
 13
1.0
 23
0.0
 33
0.0
 40
0.0
 40
0.0
 40
0.0
 40
0.0
 40
1.0
 40
1.0
 40
1.0
 40
2.0
 40
2.0
 40
2.0
 40
3.0
 40
3.0
 40
3.0
 40
4.0
 40
4.0
 40
4.0
 40
5.0
 40
5.0
 40
5.0
 40
5.0
 10
-106.1247133997538
 20
72.87648410659153
 30
0.0
 10
-106.1247133997538
 20
73.4840404218673
 30
0.0
 10
-105.6321916928483
 20
73.97656212877664
 30
0.0
 10
-105.02463537757
 20
73.97656212877664
 30
0.0
 10
-104.4170790622904
 20
73.97656212877664
 30
0.0
 10
-103.9245573553797
 20
73.4840404218673
 30
0.0
 10
-103.9245573553797
 20
72.87648410659153
 30
0.0
 10
-103.9245573553797
 20
72.26892779131704
 30
0.0
 10
-104.4170790622904
 20
71.77640608440771
 30
0.0
 10
-105.02463537757
 20
71.77640608440771
 30
0.0
 10
-105.6321916928483
 20
71.77640608440771
 30
0.0
 10
-106.1247133997538
 20
72.26892779131704
 30
0.0
 10
-106.1247133997538
 20
72.87648410659153
 30
0.0
 10
-106.1247133997538
 20
72.87648410659153
 30
0.0
 10
-106.1247133997538
 20
72.87648410659153
 30
0.0
 10
-106.1247133997538
 20
72.87648410659153
 30
0.0
  0
ENDBLK
  5
1AA
330
1A7
100
AcDbEntity
  8
0
100
AcDbBlockEnd
  0
BLOCK
  5
1AE
330
1AC
100
AcDbEntity
  8
0
100
AcDbBlockBegin
  2
BLOCK_49
 70
     0
 10
0.0
 20
0.0
 30
0.0
  3
BLOCK_49
  1

  0
SPLINE
  5
1B0
330
1AC
100
AcDbEntity
  8
_U_5207_U_65AD_U_30D1_U_30
 62
     1
100
AcDbSpline
210
0.0
220
0.0
230
1.0
 70
    11
 71
     3
 72
    20
 73
    16
 74
     0
 42
0.0000000001
 43
0.0000000001
 12
1.0
 22
0.0
 32
0.0
 13
1.0
 23
0.0
 33
0.0
 40
0.0
 40
0.0
 40
0.0
 40
0.0
 40
1.0
 40
1.0
 40
1.0
 40
2.0
 40
2.0
 40
2.0
 40
3.0
 40
3.0
 40
3.0
 40
4.0
 40
4.0
 40
4.0
 40
5.0
 40
5.0
 40
5.0
 40
5.0
 10
-106.1335088087882
 20
53.86133848534395
 30
0.0
 10
-106.1335088087882
 20
54.46889480061844
 30
0.0
 10
-105.6409871018773
 20
54.96141650753547
 30
0.0
 10
-105.0334307866054
 20
54.96141650753547
 30
0.0
 10
-104.4258744713245
 20
54.96141650753547
 30
0.0
 10
-103.9333527644151
 20
54.46889480061844
 30
0.0
 10
-103.9333527644151
 20
53.86133848534395
 30
0.0
 10
-103.9333527644151
 20
53.25378217006433
 30
0.0
 10
-104.4258744713245
 20
52.76126046315885
 30
0.0
 10
-105.0334307866054
 20
52.76126046315885
 30
0.0
 10
-105.6409871018773
 20
52.76126046315885
 30
0.0
 10
-106.1335088087882
 20
53.25378217006433
 30
0.0
 10
-106.1335088087882
 20
53.86133848534395
 30
0.0
 10
-106.1335088087882
 20
53.86133848534395
 30
0.0
 10
-106.1335088087882
 20
53.86133848534395
 30
0.0
 10
-106.1335088087882
 20
53.86133848534395
 30
0.0
  0
ENDBLK
  5
1AF
330
1AC
100
AcDbEntity
  8
0
100
AcDbBlockEnd
  0
BLOCK
  5
1B3
330
1B1
100
AcDbEntity
  8
0
100
AcDbBlockBegin
  2
BLOCK_50
 70
     0
 10
0.0
 20
0.0
 30
0.0
  3
BLOCK_50
  1

  0
SPLINE
  5
1B5
330
1B1
100
AcDbEntity
  8
_U_5207_U_65AD_U_30D1_U_30
 62
     1
100
AcDbSpline
210
0.0
220
0.0
230
1.0
 70
    11
 71
     3
 72
    20
 73
    16
 74
     0
 42
0.0000000001
 43
0.0000000001
 12
1.0
 22
0.0
 32
0.0
 13
1.0
 23
0.0
 33
0.0
 40
0.0
 40
0.0
 40
0.0
 40
0.0
 40
1.0
 40
1.0
 40
1.0
 40
2.0
 40
2.0
 40
2.0
 40
3.0
 40
3.0
 40
3.0
 40
4.0
 40
4.0
 40
4.0
 40
5.0
 40
5.0
 40
5.0
 40
5.0
 10
-16.3611931840944
 20
28.99709990261385
 30
0.0
 10
-16.3611931840944
 20
29.60465621789348
 30
0.0
 10
-15.8686714771902
 20
30.09717792480281
 30
0.0
 10
-15.26111516191314
 20
30.09717792480281
 30
0.0
 10
-14.65355884663352
 20
30.09717792480281
 30
0.0
 10
-14.16103713972932
 20
29.60465621789348
 30
0.0
 10
-14.16103713972932
 20
28.99709990261385
 30
0.0
 10
-14.16103713972932
 20
28.38954358734322
 30
0.0
 10
-14.65355884663352
 20
27.89702188043004
 30
0.0
 10
-15.26111516191314
 20
27.89702188043004
 30
0.0
 10
-15.8686714771902
 20
27.89702188043004
 30
0.0
 10
-16.3611931840944
 20
28.38954358734322
 30
0.0
 10
-16.3611931840944
 20
28.99709990261385
 30
0.0
 10
-16.3611931840944
 20
28.99709990261385
 30
0.0
 10
-16.3611931840944
 20
28.99709990261385
 30
0.0
 10
-16.3611931840944
 20
28.99709990261385
 30
0.0
  0
ENDBLK
  5
1B4
330
1B1
100
AcDbEntity
  8
0
100
AcDbBlockEnd
  0
BLOCK
  5
1B8
330
1B6
100
AcDbEntity
  8
0
100
AcDbBlockBegin
  2
BLOCK_51
 70
     0
 10
0.0
 20
0.0
 30
0.0
  3
BLOCK_51
  1

  0
SPLINE
  5
1BA
330
1B6
100
AcDbEntity
  8
_U_5207_U_65AD_U_30D1_U_30
 62
     1
100
AcDbSpline
210
0.0
220
0.0
230
1.0
 70
    11
 71
     3
 72
    20
 73
    16
 74
     0
 42
0.0000000001
 43
0.0000000001
 12
1.0
 22
0.0
 32
0.0
 13
1.0
 23
0.0
 33
0.0
 40
0.0
 40
0.0
 40
0.0
 40
0.0
 40
1.0
 40
1.0
 40
1.0
 40
2.0
 40
2.0
 40
2.0
 40
3.0
 40
3.0
 40
3.0
 40
4.0
 40
4.0
 40
4.0
 40
5.0
 40
5.0
 40
5.0
 40
5.0
 10
-62.88117203295172
 20
36.75160952707587
 30
0.0
 10
-62.88117203295172
 20
37.35916584235549
 30
0.0
 10
-62.3886503260488
 20
37.85168754926482
 30
0.0
 10
-61.78109401076789
 20
37.85168754926482
 30
0.0
 10
-61.17353769548827
 20
37.85168754926482
 30
0.0
 10
-60.68101598858536
 20
37.35916584235549
 30
0.0
 10
-60.68101598858536
 20
36.75160952707587
 30
0.0
 10
-60.68101598858536
 20
36.14405321179753
 30
0.0
 10
-61.17353769548827
 20
35.6515315048959
 30
0.0
 10
-61.78109401076789
 20
35.6515315048959
 30
0.0
 10
-62.3886503260488
 20
35.6515315048959
 30
0.0
 10
-62.88117203295172
 20
36.14405321179753
 30
0.0
 10
-62.88117203295172
 20
36.75160952707587
 30
0.0
 10
-62.88117203295172
 20
36.75160952707587
 30
0.0
 10
-62.88117203295172
 20
36.75160952707587
 30
0.0
 10
-62.88117203295172
 20
36.75160952707587
 30
0.0
  0
ENDBLK
  5
1B9
330
1B6
100
AcDbEntity
  8
0
100
AcDbBlockEnd
  0
BLOCK
  5
1BD
330
1BB
100
AcDbEntity
  8
0
100
AcDbBlockBegin
  2
BLOCK_52
 70
     0
 10
0.0
 20
0.0
 30
0.0
  3
BLOCK_52
  1

  0
POLYLINE
  5
1BF
330
1BB
100
AcDbEntity
  8
_U_5207_U_65AD_U_30D1_U_30
 62
     1
100
AcDb2dPolyline
 66
     1
 10
0.0
 20
0.0
 30
0.0
  0
VERTEX
  5
1C0
330
1BF
100
AcDbEntity
  8
_U_5207_U_65AD_U_30D1_U_30
 62
     1
100
AcDbVertex
100
AcDb2dVertex
 10
-121.4592197385437
 20
89.30950502436241
 30
0.0
  0
VERTEX
  5
1C1
330
1BF
100
AcDbEntity
  8
_U_5207_U_65AD_U_30D1_U_30
 62
     1
100
AcDbVertex
100
AcDb2dVertex
 10
-121.4592197385437
 20
75.45852265410623
 30
0.0
  0
VERTEX
  5
1C2
330
1BF
100
AcDbEntity
  8
_U_5207_U_65AD_U_30D1_U_30
 62
     1
100
AcDbVertex
100
AcDb2dVertex
 10
-107.6082373682888
 20
75.45852265410623
 30
0.0
  0
VERTEX
  5
1C3
330
1BF
100
AcDbEntity
  8
_U_5207_U_65AD_U_30D1_U_30
 62
     1
100
AcDbVertex
100
AcDb2dVertex
 10
-107.6082373682888
 20
89.30950502436241
 30
0.0
  0
VERTEX
  5
1C4
330
1BF
100
AcDbEntity
  8
_U_5207_U_65AD_U_30D1_U_30
 62
     1
100
AcDbVertex
100
AcDb2dVertex
 10
-121.4592197385437
 20
89.30950502436241
 30
0.0
  0
SEQEND
  5
1C5
330
1BF
100
AcDbEntity
  8
_U_5207_U_65AD_U_30D1_U_30
 62
     1
  0
ENDBLK
  5
1BE
330
1BB
100
AcDbEntity
  8
0
100
AcDbBlockEnd
  0
BLOCK
  5
1C8
330
1C6
100
AcDbEntity
  8
0
100
AcDbBlockBegin
  2
BLOCK_53
 70
     0
 10
0.0
 20
0.0
 30
0.0
  3
BLOCK_53
  1

  0
POLYLINE
  5
1CA
330
1C6
100
AcDbEntity
  8
_U_5207_U_65AD_U_30D1_U_30
 62
     1
100
AcDb2dPolyline
 66
     1
 10
0.0
 20
0.0
 30
0.0
  0
VERTEX
  5
1CB
330
1CA
100
AcDbEntity
  8
_U_5207_U_65AD_U_30D1_U_30
 62
     1
100
AcDbVertex
100
AcDb2dVertex
 10
-121.4592197385437
 20
70.30815736841933
 30
0.0
  0
VERTEX
  5
1CC
330
1CA
100
AcDbEntity
  8
_U_5207_U_65AD_U_30D1_U_30
 62
     1
100
AcDbVertex
100
AcDb2dVertex
 10
-121.4592197385437
 20
56.45717499815932
 30
0.0
  0
VERTEX
  5
1CD
330
1CA
100
AcDbEntity
  8
_U_5207_U_65AD_U_30D1_U_30
 62
     1
100
AcDbVertex
100
AcDb2dVertex
 10
-107.6082373682888
 20
56.45717499815932
 30
0.0
  0
VERTEX
  5
1CE
330
1CA
100
AcDbEntity
  8
_U_5207_U_65AD_U_30D1_U_30
 62
     1
100
AcDbVertex
100
AcDb2dVertex
 10
-107.6082373682888
 20
70.30815736841933
 30
0.0
  0
VERTEX
  5
1CF
330
1CA
100
AcDbEntity
  8
_U_5207_U_65AD_U_30D1_U_30
 62
     1
100
AcDbVertex
100
AcDb2dVertex
 10
-121.4592197385437
 20
70.30815736841933
 30
0.0
  0
SEQEND
  5
1D0
330
1CA
100
AcDbEntity
  8
_U_5207_U_65AD_U_30D1_U_30
 62
     1
  0
ENDBLK
  5
1C9
330
1C6
100
AcDbEntity
  8
0
100
AcDbBlockEnd
  0
BLOCK
  5
1D3
330
1D1
100
AcDbEntity
  8
0
100
AcDbBlockBegin
  2
BLOCK_54
 70
     0
 10
0.0
 20
0.0
 30
0.0
  3
BLOCK_54
  1

  0
POLYLINE
  5
1D5
330
1D1
100
AcDbEntity
  8
_U_5207_U_65AD_U_30D1_U_30
 62
     1
100
AcDb2dPolyline
 66
     1
 10
0.0
 20
0.0
 30
0.0
  0
VERTEX
  5
1D6
330
1D5
100
AcDbEntity
  8
_U_5207_U_65AD_U_30D1_U_30
 62
     1
100
AcDbVertex
100
AcDb2dVertex
 10
-121.4592197385437
 20
51.30680971247241
 30
0.0
  0
VERTEX
  5
1D7
330
1D5
100
AcDbEntity
  8
_U_5207_U_65AD_U_30D1_U_30
 62
     1
100
AcDbVertex
100
AcDb2dVertex
 10
-121.4592197385437
 20
37.45582734221752
 30
0.0
  0
VERTEX
  5
1D8
330
1D5
100
AcDbEntity
  8
_U_5207_U_65AD_U_30D1_U_30
 62
     1
100
AcDbVertex
100
AcDb2dVertex
 10
-107.6082373682888
 20
37.45582734221752
 30
0.0
  0
VERTEX
  5
1D9
330
1D5
100
AcDbEntity
  8
_U_5207_U_65AD_U_30D1_U_30
 62
     1
100
AcDbVertex
100
AcDb2dVertex
 10
-107.6082373682888
 20
51.30680971247241
 30
0.0
  0
VERTEX
  5
1DA
330
1D5
100
AcDbEntity
  8
_U_5207_U_65AD_U_30D1_U_30
 62
     1
100
AcDbVertex
100
AcDb2dVertex
 10
-121.4592197385437
 20
51.30680971247241
 30
0.0
  0
SEQEND
  5
1DB
330
1D5
100
AcDbEntity
  8
_U_5207_U_65AD_U_30D1_U_30
 62
     1
  0
ENDBLK
  5
1D4
330
1D1
100
AcDbEntity
  8
0
100
AcDbBlockEnd
  0
BLOCK
  5
1DE
330
1DC
100
AcDbEntity
  8
0
100
AcDbBlockBegin
  2
BLOCK_55
 70
     0
 10
0.0
 20
0.0
 30
0.0
  3
BLOCK_55
  1

  0
POLYLINE
  5
1E0
330
1DC
100
AcDbEntity
  8
_U_5207_U_65AD_U_30D1_U_30
 62
     1
100
AcDb2dPolyline
 66
     1
 10
0.0
 20
0.0
 30
0.0
  0
VERTEX
  5
1E1
330
1E0
100
AcDbEntity
  8
_U_5207_U_65AD_U_30D1_U_30
 62
     1
100
AcDbVertex
100
AcDb2dVertex
 10
-102.4573640465706
 20
89.30950502436241
 30
0.0
  0
VERTEX
  5
1E2
330
1E0
100
AcDbEntity
  8
_U_5207_U_65AD_U_30D1_U_30
 62
     1
100
AcDbVertex
100
AcDb2dVertex
 10
-102.4573640465706
 20
75.45852265410623
 30
0.0
  0
VERTEX
  5
1E3
330
1E0
100
AcDbEntity
  8
_U_5207_U_65AD_U_30D1_U_30
 62
     1
100
AcDbVertex
100
AcDb2dVertex
 10
-88.60638167631444
 20
75.45852265410623
 30
0.0
  0
VERTEX
  5
1E4
330
1E0
100
AcDbEntity
  8
_U_5207_U_65AD_U_30D1_U_30
 62
     1
100
AcDbVertex
100
AcDb2dVertex
 10
-88.60638167631444
 20
89.30950502436241
 30
0.0
  0
VERTEX
  5
1E5
330
1E0
100
AcDbEntity
  8
_U_5207_U_65AD_U_30D1_U_30
 62
     1
100
AcDbVertex
100
AcDb2dVertex
 10
-102.4573640465706
 20
89.30950502436241
 30
0.0
  0
SEQEND
  5
1E6
330
1E0
100
AcDbEntity
  8
_U_5207_U_65AD_U_30D1_U_30
 62
     1
  0
ENDBLK
  5
1DF
330
1DC
100
AcDbEntity
  8
0
100
AcDbBlockEnd
  0
BLOCK
  5
1E9
330
1E7
100
AcDbEntity
  8
0
100
AcDbBlockBegin
  2
BLOCK_56
 70
     0
 10
0.0
 20
0.0
 30
0.0
  3
BLOCK_56
  1

  0
POLYLINE
  5
1EB
330
1E7
100
AcDbEntity
  8
_U_5207_U_65AD_U_30D1_U_30
 62
     1
100
AcDb2dPolyline
 66
     1
 10
0.0
 20
0.0
 30
0.0
  0
VERTEX
  5
1EC
330
1EB
100
AcDbEntity
  8
_U_5207_U_65AD_U_30D1_U_30
 62
     1
100
AcDbVertex
100
AcDb2dVertex
 10
-102.4573640465706
 20
70.30815736841933
 30
0.0
  0
VERTEX
  5
1ED
330
1EB
100
AcDbEntity
  8
_U_5207_U_65AD_U_30D1_U_30
 62
     1
100
AcDbVertex
100
AcDb2dVertex
 10
-102.4573640465706
 20
56.45717499815932
 30
0.0
  0
VERTEX
  5
1EE
330
1EB
100
AcDbEntity
  8
_U_5207_U_65AD_U_30D1_U_30
 62
     1
100
AcDbVertex
100
AcDb2dVertex
 10
-88.60638167631444
 20
56.45717499815932
 30
0.0
  0
VERTEX
  5
1EF
330
1EB
100
AcDbEntity
  8
_U_5207_U_65AD_U_30D1_U_30
 62
     1
100
AcDbVertex
100
AcDb2dVertex
 10
-88.60638167631444
 20
70.30815736841933
 30
0.0
  0
VERTEX
  5
1F0
330
1EB
100
AcDbEntity
  8
_U_5207_U_65AD_U_30D1_U_30
 62
     1
100
AcDbVertex
100
AcDb2dVertex
 10
-102.4573640465706
 20
70.30815736841933
 30
0.0
  0
SEQEND
  5
1F1
330
1EB
100
AcDbEntity
  8
_U_5207_U_65AD_U_30D1_U_30
 62
     1
  0
ENDBLK
  5
1EA
330
1E7
100
AcDbEntity
  8
0
100
AcDbBlockEnd
  0
BLOCK
  5
1F4
330
1F2
100
AcDbEntity
  8
0
100
AcDbBlockBegin
  2
BLOCK_57
 70
     0
 10
0.0
 20
0.0
 30
0.0
  3
BLOCK_57
  1

  0
POLYLINE
  5
1F6
330
1F2
100
AcDbEntity
  8
_U_5207_U_65AD_U_30D1_U_30
 62
     1
100
AcDb2dPolyline
 66
     1
 10
0.0
 20
0.0
 30
0.0
  0
VERTEX
  5
1F7
330
1F6
100
AcDbEntity
  8
_U_5207_U_65AD_U_30D1_U_30
 62
     1
100
AcDbVertex
100
AcDb2dVertex
 10
-102.4573640465706
 20
51.30680971247241
 30
0.0
  0
VERTEX
  5
1F8
330
1F6
100
AcDbEntity
  8
_U_5207_U_65AD_U_30D1_U_30
 62
     1
100
AcDbVertex
100
AcDb2dVertex
 10
-102.4573640465706
 20
37.45582734221752
 30
0.0
  0
VERTEX
  5
1F9
330
1F6
100
AcDbEntity
  8
_U_5207_U_65AD_U_30D1_U_30
 62
     1
100
AcDbVertex
100
AcDb2dVertex
 10
-88.60638167631444
 20
37.45582734221752
 30
0.0
  0
VERTEX
  5
1FA
330
1F6
100
AcDbEntity
  8
_U_5207_U_65AD_U_30D1_U_30
 62
     1
100
AcDbVertex
100
AcDb2dVertex
 10
-88.60638167631444
 20
51.30680971247241
 30
0.0
  0
VERTEX
  5
1FB
330
1F6
100
AcDbEntity
  8
_U_5207_U_65AD_U_30D1_U_30
 62
     1
100
AcDbVertex
100
AcDb2dVertex
 10
-102.4573640465706
 20
51.30680971247241
 30
0.0
  0
SEQEND
  5
1FC
330
1F6
100
AcDbEntity
  8
_U_5207_U_65AD_U_30D1_U_30
 62
     1
  0
ENDBLK
  5
1F5
330
1F2
100
AcDbEntity
  8
0
100
AcDbBlockEnd
  0
BLOCK
  5
1FF
330
1FD
100
AcDbEntity
  8
0
100
AcDbBlockBegin
  2
BLOCK_58
 70
     0
 10
0.0
 20
0.0
 30
0.0
  3
BLOCK_58
  1

  0
POLYLINE
  5
201
330
1FD
100
AcDbEntity
  8
_U_5207_U_65AD_U_30D1_U_30
 62
     1
100
AcDb2dPolyline
 66
     1
 10
0.0
 20
0.0
 30
0.0
  0
VERTEX
  5
202
330
201
100
AcDbEntity
  8
_U_5207_U_65AD_U_30D1_U_30
 62
     1
100
AcDbVertex
100
AcDb2dVertex
 10
-83.45601639061856
 20
94.05984193834786
 30
0.0
  0
VERTEX
  5
203
330
201
100
AcDbEntity
  8
_U_5207_U_65AD_U_30D1_U_30
 62
     1
100
AcDbVertex
100
AcDb2dVertex
 10
-83.45601639061856
 20
80.20885956809553
 30
0.0
  0
VERTEX
  5
204
330
201
100
AcDbEntity
  8
_U_5207_U_65AD_U_30D1_U_30
 62
     1
100
AcDbVertex
100
AcDb2dVertex
 10
-69.60503402036527
 20
80.20885956809553
 30
0.0
  0
VERTEX
  5
205
330
201
100
AcDbEntity
  8
_U_5207_U_65AD_U_30D1_U_30
 62
     1
100
AcDbVertex
100
AcDb2dVertex
 10
-69.60503402036527
 20
94.05984193834786
 30
0.0
  0
VERTEX
  5
206
330
201
100
AcDbEntity
  8
_U_5207_U_65AD_U_30D1_U_30
 62
     1
100
AcDbVertex
100
AcDb2dVertex
 10
-83.45601639061856
 20
94.05984193834786
 30
0.0
  0
SEQEND
  5
207
330
201
100
AcDbEntity
  8
_U_5207_U_65AD_U_30D1_U_30
 62
     1
  0
ENDBLK
  5
200
330
1FD
100
AcDbEntity
  8
0
100
AcDbBlockEnd
  0
BLOCK
  5
20A
330
208
100
AcDbEntity
  8
0
100
AcDbBlockBegin
  2
BLOCK_59
 70
     0
 10
0.0
 20
0.0
 30
0.0
  3
BLOCK_59
  1

  0
POLYLINE
  5
20C
330
208
100
AcDbEntity
  8
_U_5207_U_65AD_U_30D1_U_30
 62
     1
100
AcDb2dPolyline
 66
     1
 10
0.0
 20
0.0
 30
0.0
  0
VERTEX
  5
20D
330
20C
100
AcDbEntity
  8
_U_5207_U_65AD_U_30D1_U_30
 62
     1
100
AcDbVertex
100
AcDb2dVertex
 10
-83.45601639061856
 20
75.05849428240478
 30
0.0
  0
VERTEX
  5
20E
330
20C
100
AcDbEntity
  8
_U_5207_U_65AD_U_30D1_U_30
 62
     1
100
AcDbVertex
100
AcDb2dVertex
 10
-83.45601639061856
 20
61.20751191215246
 30
0.0
  0
VERTEX
  5
20F
330
20C
100
AcDbEntity
  8
_U_5207_U_65AD_U_30D1_U_30
 62
     1
100
AcDbVertex
100
AcDb2dVertex
 10
-69.60503402036527
 20
61.20751191215246
 30
0.0
  0
VERTEX
  5
210
330
20C
100
AcDbEntity
  8
_U_5207_U_65AD_U_30D1_U_30
 62
     1
100
AcDbVertex
100
AcDb2dVertex
 10
-69.60503402036527
 20
75.05849428240478
 30
0.0
  0
VERTEX
  5
211
330
20C
100
AcDbEntity
  8
_U_5207_U_65AD_U_30D1_U_30
 62
     1
100
AcDbVertex
100
AcDb2dVertex
 10
-83.45601639061856
 20
75.05849428240478
 30
0.0
  0
SEQEND
  5
212
330
20C
100
AcDbEntity
  8
_U_5207_U_65AD_U_30D1_U_30
 62
     1
  0
ENDBLK
  5
20B
330
208
100
AcDbEntity
  8
0
100
AcDbBlockEnd
  0
BLOCK
  5
215
330
213
100
AcDbEntity
  8
0
100
AcDbBlockBegin
  2
BLOCK_60
 70
     0
 10
0.0
 20
0.0
 30
0.0
  3
BLOCK_60
  1

  0
POLYLINE
  5
217
330
213
100
AcDbEntity
  8
_U_5207_U_65AD_U_30D1_U_30
 62
     1
100
AcDb2dPolyline
 66
     1
 10
0.0
 20
0.0
 30
0.0
  0
VERTEX
  5
218
330
217
100
AcDbEntity
  8
_U_5207_U_65AD_U_30D1_U_30
 62
     1
100
AcDbVertex
100
AcDb2dVertex
 10
-83.45601639061856
 20
56.05714662645401
 30
0.0
  0
VERTEX
  5
219
330
217
100
AcDbEntity
  8
_U_5207_U_65AD_U_30D1_U_30
 62
     1
100
AcDbVertex
100
AcDb2dVertex
 10
-83.45601639061856
 20
42.20616425620297
 30
0.0
  0
VERTEX
  5
21A
330
217
100
AcDbEntity
  8
_U_5207_U_65AD_U_30D1_U_30
 62
     1
100
AcDbVertex
100
AcDb2dVertex
 10
-69.60503402036527
 20
42.20616425620297
 30
0.0
  0
VERTEX
  5
21B
330
217
100
AcDbEntity
  8
_U_5207_U_65AD_U_30D1_U_30
 62
     1
100
AcDbVertex
100
AcDb2dVertex
 10
-69.60503402036527
 20
56.05714662645401
 30
0.0
  0
VERTEX
  5
21C
330
217
100
AcDbEntity
  8
_U_5207_U_65AD_U_30D1_U_30
 62
     1
100
AcDbVertex
100
AcDb2dVertex
 10
-83.45601639061856
 20
56.05714662645401
 30
0.0
  0
SEQEND
  5
21D
330
217
100
AcDbEntity
  8
_U_5207_U_65AD_U_30D1_U_30
 62
     1
  0
ENDBLK
  5
216
330
213
100
AcDbEntity
  8
0
100
AcDbBlockEnd
  0
BLOCK
  5
220
330
21E
100
AcDbEntity
  8
0
100
AcDbBlockBegin
  2
BLOCK_61
 70
     0
 10
0.0
 20
0.0
 30
0.0
  3
BLOCK_61
  1

  0
POLYLINE
  5
222
330
21E
100
AcDbEntity
  8
_U_5207_U_65AD_U_30D1_U_30
 62
     1
100
AcDb2dPolyline
 66
     1
 10
0.0
 20
0.0
 30
0.0
  0
VERTEX
  5
223
330
222
100
AcDbEntity
  8
_U_5207_U_65AD_U_30D1_U_30
 62
     1
100
AcDbVertex
100
AcDb2dVertex
 10
-64.45466873467709
 20
96.43501039533865
 30
0.0
  0
VERTEX
  5
224
330
222
100
AcDbEntity
  8
_U_5207_U_65AD_U_30D1_U_30
 62
     1
100
AcDbVertex
100
AcDb2dVertex
 10
-64.45466873467709
 20
82.58402802508762
 30
0.0
  0
VERTEX
  5
225
330
222
100
AcDbEntity
  8
_U_5207_U_65AD_U_30D1_U_30
 62
     1
100
AcDbVertex
100
AcDb2dVertex
 10
-50.6036863644222
 20
82.58402802508762
 30
0.0
  0
VERTEX
  5
226
330
222
100
AcDbEntity
  8
_U_5207_U_65AD_U_30D1_U_30
 62
     1
100
AcDbVertex
100
AcDb2dVertex
 10
-50.6036863644222
 20
96.43501039533865
 30
0.0
  0
VERTEX
  5
227
330
222
100
AcDbEntity
  8
_U_5207_U_65AD_U_30D1_U_30
 62
     1
100
AcDbVertex
100
AcDb2dVertex
 10
-64.45466873467709
 20
96.43501039533865
 30
0.0
  0
SEQEND
  5
228
330
222
100
AcDbEntity
  8
_U_5207_U_65AD_U_30D1_U_30
 62
     1
  0
ENDBLK
  5
221
330
21E
100
AcDbEntity
  8
0
100
AcDbBlockEnd
  0
BLOCK
  5
22B
330
229
100
AcDbEntity
  8
0
100
AcDbBlockBegin
  2
BLOCK_62
 70
     0
 10
0.0
 20
0.0
 30
0.0
  3
BLOCK_62
  1

  0
POLYLINE
  5
22D
330
229
100
AcDbEntity
  8
_U_5207_U_65AD_U_30D1_U_30
 62
     1
100
AcDb2dPolyline
 66
     1
 10
0.0
 20
0.0
 30
0.0
  0
VERTEX
  5
22E
330
22D
100
AcDbEntity
  8
_U_5207_U_65AD_U_30D1_U_30
 62
     1
100
AcDbVertex
100
AcDb2dVertex
 10
-64.45466873467709
 20
77.43366273939944
 30
0.0
  0
VERTEX
  5
22F
330
22D
100
AcDbEntity
  8
_U_5207_U_65AD_U_30D1_U_30
 62
     1
100
AcDbVertex
100
AcDb2dVertex
 10
-64.45466873467709
 20
63.58268036914455
 30
0.0
  0
VERTEX
  5
230
330
22D
100
AcDbEntity
  8
_U_5207_U_65AD_U_30D1_U_30
 62
     1
100
AcDbVertex
100
AcDb2dVertex
 10
-50.6036863644222
 20
63.58268036914455
 30
0.0
  0
VERTEX
  5
231
330
22D
100
AcDbEntity
  8
_U_5207_U_65AD_U_30D1_U_30
 62
     1
100
AcDbVertex
100
AcDb2dVertex
 10
-50.6036863644222
 20
77.43366273939944
 30
0.0
  0
VERTEX
  5
232
330
22D
100
AcDbEntity
  8
_U_5207_U_65AD_U_30D1_U_30
 62
     1
100
AcDbVertex
100
AcDb2dVertex
 10
-64.45466873467709
 20
77.43366273939944
 30
0.0
  0
SEQEND
  5
233
330
22D
100
AcDbEntity
  8
_U_5207_U_65AD_U_30D1_U_30
 62
     1
  0
ENDBLK
  5
22C
330
229
100
AcDbEntity
  8
0
100
AcDbBlockEnd
  0
BLOCK
  5
236
330
234
100
AcDbEntity
  8
0
100
AcDbBlockBegin
  2
BLOCK_63
 70
     0
 10
0.0
 20
0.0
 30
0.0
  3
BLOCK_63
  1

  0
POLYLINE
  5
238
330
234
100
AcDbEntity
  8
_U_5207_U_65AD_U_30D1_U_30
 62
     1
100
AcDb2dPolyline
 66
     1
 10
0.0
 20
0.0
 30
0.0
  0
VERTEX
  5
239
330
238
100
AcDbEntity
  8
_U_5207_U_65AD_U_30D1_U_30
 62
     1
100
AcDbVertex
100
AcDb2dVertex
 10
-64.45466873467709
 20
58.43231508345636
 30
0.0
  0
VERTEX
  5
23A
330
238
100
AcDbEntity
  8
_U_5207_U_65AD_U_30D1_U_30
 62
     1
100
AcDbVertex
100
AcDb2dVertex
 10
-64.45466873467709
 20
44.58133271319763
 30
0.0
  0
VERTEX
  5
23B
330
238
100
AcDbEntity
  8
_U_5207_U_65AD_U_30D1_U_30
 62
     1
100
AcDbVertex
100
AcDb2dVertex
 10
-50.6036863644222
 20
44.58133271319763
 30
0.0
  0
VERTEX
  5
23C
330
238
100
AcDbEntity
  8
_U_5207_U_65AD_U_30D1_U_30
 62
     1
100
AcDbVertex
100
AcDb2dVertex
 10
-50.6036863644222
 20
58.43231508345636
 30
0.0
  0
VERTEX
  5
23D
330
238
100
AcDbEntity
  8
_U_5207_U_65AD_U_30D1_U_30
 62
     1
100
AcDbVertex
100
AcDb2dVertex
 10
-64.45466873467709
 20
58.43231508345636
 30
0.0
  0
SEQEND
  5
23E
330
238
100
AcDbEntity
  8
_U_5207_U_65AD_U_30D1_U_30
 62
     1
  0
ENDBLK
  5
237
330
234
100
AcDbEntity
  8
0
100
AcDbBlockEnd
  0
BLOCK
  5
241
330
23F
100
AcDbEntity
  8
0
100
AcDbBlockBegin
  2
BLOCK_64
 70
     0
 10
0.0
 20
0.0
 30
0.0
  3
BLOCK_64
  1

  0
POLYLINE
  5
243
330
23F
100
AcDbEntity
  8
_U_5207_U_65AD_U_30D1_U_30
 62
     1
100
AcDb2dPolyline
 66
     1
 10
0.0
 20
0.0
 30
0.0
  0
VERTEX
  5
244
330
243
100
AcDbEntity
  8
_U_5207_U_65AD_U_30D1_U_30
 62
     1
100
AcDbVertex
100
AcDb2dVertex
 10
-45.45332107873241
 20
94.05984193834786
 30
0.0
  0
VERTEX
  5
245
330
243
100
AcDbEntity
  8
_U_5207_U_65AD_U_30D1_U_30
 62
     1
100
AcDbVertex
100
AcDb2dVertex
 10
-45.45332107873241
 20
80.20885956809553
 30
0.0
  0
VERTEX
  5
246
330
243
100
AcDbEntity
  8
_U_5207_U_65AD_U_30D1_U_30
 62
     1
100
AcDbVertex
100
AcDb2dVertex
 10
-31.60233870847656
 20
80.20885956809553
 30
0.0
  0
VERTEX
  5
247
330
243
100
AcDbEntity
  8
_U_5207_U_65AD_U_30D1_U_30
 62
     1
100
AcDbVertex
100
AcDb2dVertex
 10
-31.60233870847656
 20
94.05984193834786
 30
0.0
  0
VERTEX
  5
248
330
243
100
AcDbEntity
  8
_U_5207_U_65AD_U_30D1_U_30
 62
     1
100
AcDbVertex
100
AcDb2dVertex
 10
-45.45332107873241
 20
94.05984193834786
 30
0.0
  0
SEQEND
  5
249
330
243
100
AcDbEntity
  8
_U_5207_U_65AD_U_30D1_U_30
 62
     1
  0
ENDBLK
  5
242
330
23F
100
AcDbEntity
  8
0
100
AcDbBlockEnd
  0
BLOCK
  5
24C
330
24A
100
AcDbEntity
  8
0
100
AcDbBlockBegin
  2
BLOCK_65
 70
     0
 10
0.0
 20
0.0
 30
0.0
  3
BLOCK_65
  1

  0
POLYLINE
  5
24E
330
24A
100
AcDbEntity
  8
_U_5207_U_65AD_U_30D1_U_30
 62
     1
100
AcDb2dPolyline
 66
     1
 10
0.0
 20
0.0
 30
0.0
  0
VERTEX
  5
24F
330
24E
100
AcDbEntity
  8
_U_5207_U_65AD_U_30D1_U_30
 62
     1
100
AcDbVertex
100
AcDb2dVertex
 10
-45.45332107873241
 20
75.05849428240478
 30
0.0
  0
VERTEX
  5
250
330
24E
100
AcDbEntity
  8
_U_5207_U_65AD_U_30D1_U_30
 62
     1
100
AcDbVertex
100
AcDb2dVertex
 10
-45.45332107873241
 20
61.20751191215246
 30
0.0
  0
VERTEX
  5
251
330
24E
100
AcDbEntity
  8
_U_5207_U_65AD_U_30D1_U_30
 62
     1
100
AcDbVertex
100
AcDb2dVertex
 10
-31.60233870847656
 20
61.20751191215246
 30
0.0
  0
VERTEX
  5
252
330
24E
100
AcDbEntity
  8
_U_5207_U_65AD_U_30D1_U_30
 62
     1
100
AcDbVertex
100
AcDb2dVertex
 10
-31.60233870847656
 20
75.05849428240478
 30
0.0
  0
VERTEX
  5
253
330
24E
100
AcDbEntity
  8
_U_5207_U_65AD_U_30D1_U_30
 62
     1
100
AcDbVertex
100
AcDb2dVertex
 10
-45.45332107873241
 20
75.05849428240478
 30
0.0
  0
SEQEND
  5
254
330
24E
100
AcDbEntity
  8
_U_5207_U_65AD_U_30D1_U_30
 62
     1
  0
ENDBLK
  5
24D
330
24A
100
AcDbEntity
  8
0
100
AcDbBlockEnd
  0
BLOCK
  5
257
330
255
100
AcDbEntity
  8
0
100
AcDbBlockBegin
  2
BLOCK_66
 70
     0
 10
0.0
 20
0.0
 30
0.0
  3
BLOCK_66
  1

  0
POLYLINE
  5
259
330
255
100
AcDbEntity
  8
_U_5207_U_65AD_U_30D1_U_30
 62
     1
100
AcDb2dPolyline
 66
     1
 10
0.0
 20
0.0
 30
0.0
  0
VERTEX
  5
25A
330
259
100
AcDbEntity
  8
_U_5207_U_65AD_U_30D1_U_30
 62
     1
100
AcDbVertex
100
AcDb2dVertex
 10
-45.45332107873241
 20
56.05714662645401
 30
0.0
  0
VERTEX
  5
25B
330
259
100
AcDbEntity
  8
_U_5207_U_65AD_U_30D1_U_30
 62
     1
100
AcDbVertex
100
AcDb2dVertex
 10
-45.45332107873241
 20
42.20616425620297
 30
0.0
  0
VERTEX
  5
25C
330
259
100
AcDbEntity
  8
_U_5207_U_65AD_U_30D1_U_30
 62
     1
100
AcDbVertex
100
AcDb2dVertex
 10
-31.60233870847656
 20
42.20616425620297
 30
0.0
  0
VERTEX
  5
25D
330
259
100
AcDbEntity
  8
_U_5207_U_65AD_U_30D1_U_30
 62
     1
100
AcDbVertex
100
AcDb2dVertex
 10
-31.60233870847656
 20
56.05714662645401
 30
0.0
  0
VERTEX
  5
25E
330
259
100
AcDbEntity
  8
_U_5207_U_65AD_U_30D1_U_30
 62
     1
100
AcDbVertex
100
AcDb2dVertex
 10
-45.45332107873241
 20
56.05714662645401
 30
0.0
  0
SEQEND
  5
25F
330
259
100
AcDbEntity
  8
_U_5207_U_65AD_U_30D1_U_30
 62
     1
  0
ENDBLK
  5
258
330
255
100
AcDbEntity
  8
0
100
AcDbBlockEnd
  0
BLOCK
  5
262
330
260
100
AcDbEntity
  8
0
100
AcDbBlockBegin
  2
BLOCK_67
 70
     0
 10
0.0
 20
0.0
 30
0.0
  3
BLOCK_67
  1

  0
POLYLINE
  5
264
330
260
100
AcDbEntity
  8
_U_5207_U_65AD_U_30D1_U_30
 62
     1
100
AcDb2dPolyline
 66
     1
 10
0.0
 20
0.0
 30
0.0
  0
VERTEX
  5
265
330
264
100
AcDbEntity
  8
_U_5207_U_65AD_U_30D1_U_30
 62
     1
100
AcDbVertex
100
AcDb2dVertex
 10
-26.45197342278452
 20
91.68467348135705
 30
0.0
  0
VERTEX
  5
266
330
264
100
AcDbEntity
  8
_U_5207_U_65AD_U_30D1_U_30
 62
     1
100
AcDbVertex
100
AcDb2dVertex
 10
-26.45197342278452
 20
77.83369111110474
 30
0.0
  0
VERTEX
  5
267
330
264
100
AcDbEntity
  8
_U_5207_U_65AD_U_30D1_U_30
 62
     1
100
AcDbVertex
100
AcDb2dVertex
 10
-12.60099105252707
 20
77.83369111110474
 30
0.0
  0
VERTEX
  5
268
330
264
100
AcDbEntity
  8
_U_5207_U_65AD_U_30D1_U_30
 62
     1
100
AcDbVertex
100
AcDb2dVertex
 10
-12.60099105252707
 20
91.68467348135705
 30
0.0
  0
VERTEX
  5
269
330
264
100
AcDbEntity
  8
_U_5207_U_65AD_U_30D1_U_30
 62
     1
100
AcDbVertex
100
AcDb2dVertex
 10
-26.45197342278452
 20
91.68467348135705
 30
0.0
  0
SEQEND
  5
26A
330
264
100
AcDbEntity
  8
_U_5207_U_65AD_U_30D1_U_30
 62
     1
  0
ENDBLK
  5
263
330
260
100
AcDbEntity
  8
0
100
AcDbBlockEnd
  0
BLOCK
  5
26D
330
26B
100
AcDbEntity
  8
0
100
AcDbBlockBegin
  2
BLOCK_68
 70
     0
 10
0.0
 20
0.0
 30
0.0
  3
BLOCK_68
  1

  0
POLYLINE
  5
26F
330
26B
100
AcDbEntity
  8
_U_5207_U_65AD_U_30D1_U_30
 62
     1
100
AcDb2dPolyline
 66
     1
 10
0.0
 20
0.0
 30
0.0
  0
VERTEX
  5
270
330
26F
100
AcDbEntity
  8
_U_5207_U_65AD_U_30D1_U_30
 62
     1
100
AcDbVertex
100
AcDb2dVertex
 10
-26.45197342278452
 20
72.68332582541014
 30
0.0
  0
VERTEX
  5
271
330
26F
100
AcDbEntity
  8
_U_5207_U_65AD_U_30D1_U_30
 62
     1
100
AcDbVertex
100
AcDb2dVertex
 10
-26.45197342278452
 20
58.8323434551514
 30
0.0
  0
VERTEX
  5
272
330
26F
100
AcDbEntity
  8
_U_5207_U_65AD_U_30D1_U_30
 62
     1
100
AcDbVertex
100
AcDb2dVertex
 10
-12.60099105252707
 20
58.8323434551514
 30
0.0
  0
VERTEX
  5
273
330
26F
100
AcDbEntity
  8
_U_5207_U_65AD_U_30D1_U_30
 62
     1
100
AcDbVertex
100
AcDb2dVertex
 10
-12.60099105252707
 20
72.68332582541014
 30
0.0
  0
VERTEX
  5
274
330
26F
100
AcDbEntity
  8
_U_5207_U_65AD_U_30D1_U_30
 62
     1
100
AcDbVertex
100
AcDb2dVertex
 10
-26.45197342278452
 20
72.68332582541014
 30
0.0
  0
SEQEND
  5
275
330
26F
100
AcDbEntity
  8
_U_5207_U_65AD_U_30D1_U_30
 62
     1
  0
ENDBLK
  5
26E
330
26B
100
AcDbEntity
  8
0
100
AcDbBlockEnd
  0
BLOCK
  5
278
330
276
100
AcDbEntity
  8
0
100
AcDbBlockBegin
  2
BLOCK_69
 70
     0
 10
0.0
 20
0.0
 30
0.0
  3
BLOCK_69
  1

  0
POLYLINE
  5
27A
330
276
100
AcDbEntity
  8
_U_5207_U_65AD_U_30D1_U_30
 62
     1
100
AcDb2dPolyline
 66
     1
 10
0.0
 20
0.0
 30
0.0
  0
VERTEX
  5
27B
330
27A
100
AcDbEntity
  8
_U_5207_U_65AD_U_30D1_U_30
 62
     1
100
AcDbVertex
100
AcDb2dVertex
 10
-26.45197342278452
 20
53.68197816946321
 30
0.0
  0
VERTEX
  5
27C
330
27A
100
AcDbEntity
  8
_U_5207_U_65AD_U_30D1_U_30
 62
     1
100
AcDbVertex
100
AcDb2dVertex
 10
-26.45197342278452
 20
39.83099579921218
 30
0.0
  0
VERTEX
  5
27D
330
27A
100
AcDbEntity
  8
_U_5207_U_65AD_U_30D1_U_30
 62
     1
100
AcDbVertex
100
AcDb2dVertex
 10
-12.60099105252707
 20
39.83099579921218
 30
0.0
  0
VERTEX
  5
27E
330
27A
100
AcDbEntity
  8
_U_5207_U_65AD_U_30D1_U_30
 62
     1
100
AcDbVertex
100
AcDb2dVertex
 10
-12.60099105252707
 20
53.68197816946321
 30
0.0
  0
VERTEX
  5
27F
330
27A
100
AcDbEntity
  8
_U_5207_U_65AD_U_30D1_U_30
 62
     1
100
AcDbVertex
100
AcDb2dVertex
 10
-26.45197342278452
 20
53.68197816946321
 30
0.0
  0
SEQEND
  5
280
330
27A
100
AcDbEntity
  8
_U_5207_U_65AD_U_30D1_U_30
 62
     1
  0
ENDBLK
  5
279
330
276
100
AcDbEntity
  8
0
100
AcDbBlockEnd
  0
BLOCK
  5
283
330
281
100
AcDbEntity
  8
0
100
AcDbBlockBegin
  2
BLOCK_70
 70
     0
 10
0.0
 20
0.0
 30
0.0
  3
BLOCK_70
  1

  0
POLYLINE
  5
285
330
281
100
AcDbEntity
  8
_U_5207_U_65AD_U_30D1_U_30
 62
     1
100
AcDb2dPolyline
 66
     1
 10
0.0
 20
0.0
 30
0.0
  0
VERTEX
  5
286
330
285
100
AcDbEntity
  8
_U_5207_U_65AD_U_30D1_U_30
 62
     1
100
AcDbVertex
100
AcDb2dVertex
 10
-54.9539949067033
 20
36.43075463972733
 30
0.0
  0
VERTEX
  5
287
330
285
100
AcDbEntity
  8
_U_5207_U_65AD_U_30D1_U_30
 62
     1
100
AcDbVertex
100
AcDb2dVertex
 10
-54.9539949067033
 20
22.57977226947116
 30
0.0
  0
VERTEX
  5
288
330
285
100
AcDbEntity
  8
_U_5207_U_65AD_U_30D1_U_30
 62
     1
100
AcDbVertex
100
AcDb2dVertex
 10
-41.10301253644874
 20
22.57977226947116
 30
0.0
  0
VERTEX
  5
289
330
285
100
AcDbEntity
  8
_U_5207_U_65AD_U_30D1_U_30
 62
     1
100
AcDbVertex
100
AcDb2dVertex
 10
-41.10301253644874
 20
36.43075463972733
 30
0.0
  0
VERTEX
  5
28A
330
285
100
AcDbEntity
  8
_U_5207_U_65AD_U_30D1_U_30
 62
     1
100
AcDbVertex
100
AcDb2dVertex
 10
-54.9539949067033
 20
36.43075463972733
 30
0.0
  0
SEQEND
  5
28B
330
285
100
AcDbEntity
  8
_U_5207_U_65AD_U_30D1_U_30
 62
     1
  0
ENDBLK
  5
284
330
281
100
AcDbEntity
  8
0
100
AcDbBlockEnd
  0
BLOCK
  5
28E
330
28C
100
AcDbEntity
  8
0
100
AcDbBlockBegin
  2
BLOCK_71
 70
     0
 10
0.0
 20
0.0
 30
0.0
  3
BLOCK_71
  1

  0
POLYLINE
  5
290
330
28C
100
AcDbEntity
  8
_U_5207_U_65AD_U_30D1_U_30
 62
     1
100
AcDb2dPolyline
 66
     1
 10
0.0
 20
0.0
 30
0.0
  0
VERTEX
  5
291
330
290
100
AcDbEntity
  8
_U_5207_U_65AD_U_30D1_U_30
 62
     1
100
AcDbVertex
100
AcDb2dVertex
 10
-31.92485185473385
 20
35.23121328901806
 30
0.0
  0
VERTEX
  5
292
330
290
100
AcDbEntity
  8
_U_5207_U_65AD_U_30D1_U_30
 62
     1
100
AcDbVertex
100
AcDb2dVertex
 10
-35.49615513403632
 20
21.84855639629282
 30
0.0
  0
VERTEX
  5
293
330
290
100
AcDbEntity
  8
_U_5207_U_65AD_U_30D1_U_30
 62
     1
100
AcDbVertex
100
AcDb2dVertex
 10
-22.11349824131366
 20
18.27725311698779
 30
0.0
  0
VERTEX
  5
294
330
290
100
AcDbEntity
  8
_U_5207_U_65AD_U_30D1_U_30
 62
     1
100
AcDbVertex
100
AcDb2dVertex
 10
-18.54219496201247
 20
31.6599100097143
 30
0.0
  0
VERTEX
  5
295
330
290
100
AcDbEntity
  8
_U_5207_U_65AD_U_30D1_U_30
 62
     1
100
AcDbVertex
100
AcDb2dVertex
 10
-31.92485185473385
 20
35.23121328901806
 30
0.0
  0
SEQEND
  5
296
330
290
100
AcDbEntity
  8
_U_5207_U_65AD_U_30D1_U_30
 62
     1
  0
ENDBLK
  5
28F
330
28C
100
AcDbEntity
  8
0
100
AcDbBlockEnd
  0
BLOCK
  5
299
330
297
100
AcDbEntity
  8
0
100
AcDbBlockBegin
  2
BLOCK_72
 70
     0
 10
0.0
 20
0.0
 30
0.0
  3
BLOCK_72
  1

  0
POLYLINE
  5
29B
330
297
100
AcDbEntity
  8
_U_5207_U_65AD_U_30D1_U_30
 62
     1
100
AcDb2dPolyline
 66
     1
 10
0.0
 20
0.0
 30
0.0
  0
VERTEX
  5
29C
330
29B
100
AcDbEntity
  8
_U_5207_U_65AD_U_30D1_U_30
 62
     1
100
AcDbVertex
100
AcDb2dVertex
 10
-7.312259897478272
 20
32.46957624728488
 30
0.0
  0
VERTEX
  5
29D
330
29B
100
AcDbEntity
  8
_U_5207_U_65AD_U_30D1_U_30
 62
     1
100
AcDbVertex
100
AcDb2dVertex
 10
-14.22956454553283
 20
20.469550871183
 30
0.0
  0
VERTEX
  5
29E
330
29B
100
AcDbEntity
  8
_U_5207_U_65AD_U_30D1_U_30
 62
     1
100
AcDbVertex
100
AcDb2dVertex
 10
-2.229539169423249
 20
13.55224622313102
 30
0.0
  0
VERTEX
  5
29F
330
29B
100
AcDbEntity
  8
_U_5207_U_65AD_U_30D1_U_30
 62
     1
100
AcDbVertex
100
AcDb2dVertex
 10
4.687765478628738
 20
25.55227159924059
 30
0.0
  0
VERTEX
  5
2A0
330
29B
100
AcDbEntity
  8
_U_5207_U_65AD_U_30D1_U_30
 62
     1
100
AcDbVertex
100
AcDb2dVertex
 10
-7.312259897478272
 20
32.46957624728488
 30
0.0
  0
SEQEND
  5
2A1
330
29B
100
AcDbEntity
  8
_U_5207_U_65AD_U_30D1_U_30
 62
     1
  0
ENDBLK
  5
29A
330
297
100
AcDbEntity
  8
0
100
AcDbBlockEnd
  0
BLOCK
  5
2AC
330
2AA
100
AcDbEntity
  8
0
100
AcDbBlockBegin
  2
BLOCK_73
 70
     0
 10
0.0
 20
0.0
 30
0.0
  3
BLOCK_73
  1

  0
SPLINE
  5
2AE
330
2AA
100
AcDbEntity
  8
_U_5207_U_65AD_U_30D1_U_30
 62
     1
100
AcDbSpline
210
0.0
220
0.0
230
1.0
 70
    11
 71
     3
 72
    20
 73
    16
 74
     0
 42
0.0000000001
 43
0.0000000001
 12
1.0
 22
0.0
 32
0.0
 13
1.0
 23
0.0
 33
0.0
 40
0.0
 40
0.0
 40
0.0
 40
0.0
 40
1.0
 40
1.0
 40
1.0
 40
2.0
 40
2.0
 40
2.0
 40
3.0
 40
3.0
 40
3.0
 40
4.0
 40
4.0
 40
4.0
 40
5.0
 40
5.0
 40
5.0
 40
5.0
 10
-70.09486626104955
 20
-68.31769004679445
 30
0.0
 10
-70.09486626102228
 20
-67.71013373151483
 30
0.0
 10
-70.58738796790851
 20
-67.21761202457984
 30
0.0
 10
-71.19494428318781
 20
-67.21761202455224
 30
0.0
 10
-71.8025005984639
 20
-67.21761202452528
 30
0.0
 10
-72.29502230539633
 20
-67.71013373141601
 30
0.0
 10
-72.2950223054236
 20
-68.31769004669563
 30
0.0
 10
-72.29502230545089
 20
-68.92524636197398
 30
0.0
 10
-71.8025005985624
 20
-69.41776806889806
 30
0.0
 10
-71.19494428328663
 20
-69.41776806892501
 30
0.0
 10
-70.58738796800701
 20
-69.41776806895261
 30
0.0
 10
-70.09486626107714
 20
-68.92524636207278
 30
0.0
 10
-70.09486626104955
 20
-68.31769004679445
 30
0.0
 10
-70.09486626104955
 20
-68.31769004679445
 30
0.0
 10
-70.09486626104955
 20
-68.31769004679445
 30
0.0
 10
-70.09486626104955
 20
-68.31769004679445
 30
0.0
  0
ENDBLK
  5
2AD
330
2AA
100
AcDbEntity
  8
0
100
AcDbBlockEnd
  0
BLOCK
  5
2B1
330
2AF
100
AcDbEntity
  8
0
100
AcDbBlockBegin
  2
BLOCK_74
 70
     0
 10
0.0
 20
0.0
 30
0.0
  3
BLOCK_74
  1

  0
SPLINE
  5
2B3
330
2AF
100
AcDbEntity
  8
_U_5207_U_65AD_U_30D1_U_30
 62
     1
100
AcDbSpline
210
0.0
220
0.0
230
1.0
 70
    11
 71
     3
 72
    20
 73
    16
 74
     0
 42
0.0000000001
 43
0.0000000001
 12
1.0
 22
0.0
 32
0.0
 13
1.0
 23
0.0
 33
0.0
 40
0.0
 40
0.0
 40
0.0
 40
0.0
 40
1.0
 40
1.0
 40
1.0
 40
2.0
 40
2.0
 40
2.0
 40
3.0
 40
3.0
 40
3.0
 40
4.0
 40
4.0
 40
4.0
 40
5.0
 40
5.0
 40
5.0
 40
5.0
 10
-102.8731472997328
 20
-28.57041674683082
 30
0.0
 10
-102.8731472997056
 20
-27.9628604315512
 30
0.0
 10
-103.3656690065915
 20
-27.4703387246271
 30
0.0
 10
-103.9732253218711
 20
-27.47033872460015
 30
0.0
 10
-104.5807816371469
 20
-27.47033872457256
 30
0.0
 10
-105.0733033440774
 20
-27.96286043145237
 30
0.0
 10
-105.0733033441043
 20
-28.57041674673199
 30
0.0
 10
-105.0733033441316
 20
-29.17797306201033
 30
0.0
 10
-104.5807816372457
 20
-29.67049476894533
 30
0.0
 10
-103.9732253219699
 20
-29.67049476897293
 30
0.0
 10
-103.3656690066903
 20
-29.67049476899988
 30
0.0
 10
-102.8731472997601
 20
-29.17797306210915
 30
0.0
 10
-102.8731472997328
 20
-28.57041674683082
 30
0.0
 10
-102.8731472997328
 20
-28.57041674683082
 30
0.0
 10
-102.8731472997328
 20
-28.57041674683082
 30
0.0
 10
-102.8731472997328
 20
-28.57041674683082
 30
0.0
  0
ENDBLK
  5
2B2
330
2AF
100
AcDbEntity
  8
0
100
AcDbBlockEnd
  0
BLOCK
  5
2B6
330
2B4
100
AcDbEntity
  8
0
100
AcDbBlockBegin
  2
BLOCK_75
 70
     0
 10
0.0
 20
0.0
 30
0.0
  3
BLOCK_75
  1

  0
SPLINE
  5
2B8
330
2B4
100
AcDbEntity
  8
_U_5207_U_65AD_U_30D1_U_30
 62
     1
100
AcDbSpline
210
0.0
220
0.0
230
1.0
 70
    11
 71
     3
 72
    20
 73
    16
 74
     0
 42
0.0000000001
 43
0.0000000001
 12
1.0
 22
0.0
 32
0.0
 13
1.0
 23
0.0
 33
0.0
 40
0.0
 40
0.0
 40
0.0
 40
0.0
 40
1.0
 40
1.0
 40
1.0
 40
2.0
 40
2.0
 40
2.0
 40
3.0
 40
3.0
 40
3.0
 40
4.0
 40
4.0
 40
4.0
 40
5.0
 40
5.0
 40
5.0
 40
5.0
 10
-26.85132489262654
 20
-32.19281546922058
 30
0.0
 10
-26.85132489259927
 20
-31.5852591539448
 30
0.0
 10
-27.34384659948807
 20
-31.09273744700916
 30
0.0
 10
-27.95140291476384
 20
-31.09273744698221
 30
0.0
 10
-28.55895923004346
 20
-31.09273744695462
 30
0.0
 10
-29.05148093697332
 20
-31.58525915384598
 30
0.0
 10
-29.0514809370006
 20
-32.19281546912175
 30
0.0
 10
-29.05148093702787
 20
-32.80037178439624
 30
0.0
 10
-28.55895923014196
 20
-33.29289349132739
 30
0.0
 10
-27.95140291486234
 20
-33.29289349135499
 30
0.0
 10
-27.34384659958657
 20
-33.29289349138194
 30
0.0
 10
-26.85132489265381
 20
-32.80037178449506
 30
0.0
 10
-26.85132489262654
 20
-32.19281546922058
 30
0.0
 10
-26.85132489262654
 20
-32.19281546922058
 30
0.0
 10
-26.85132489262654
 20
-32.19281546922058
 30
0.0
 10
-26.85132489262654
 20
-32.19281546922058
 30
0.0
  0
ENDBLK
  5
2B7
330
2B4
100
AcDbEntity
  8
0
100
AcDbBlockEnd
  0
BLOCK
  5
2BB
330
2B9
100
AcDbEntity
  8
0
100
AcDbBlockBegin
  2
BLOCK_76
 70
     0
 10
0.0
 20
0.0
 30
0.0
  3
BLOCK_76
  1

  0
SPLINE
  5
2BD
330
2B9
100
AcDbEntity
  8
_U_5207_U_65AD_U_30D1_U_30
 62
     1
100
AcDbSpline
210
0.0
220
0.0
230
1.0
 70
    11
 71
     3
 72
    20
 73
    16
 74
     0
 42
0.0000000001
 43
0.0000000001
 12
1.0
 22
0.0
 32
0.0
 13
1.0
 23
0.0
 33
0.0
 40
0.0
 40
0.0
 40
0.0
 40
0.0
 40
1.0
 40
1.0
 40
1.0
 40
2.0
 40
2.0
 40
2.0
 40
3.0
 40
3.0
 40
3.0
 40
4.0
 40
4.0
 40
4.0
 40
5.0
 40
5.0
 40
5.0
 40
5.0
 10
-26.84252948444877
 20
-51.20796109046815
 30
0.0
 10
-26.84252948442149
 20
-50.60040477518982
 30
0.0
 10
-27.33505119130741
 20
-50.10788306825867
 30
0.0
 10
-27.94260750658703
 20
-50.10788306823107
 30
0.0
 10
-28.55016382186152
 20
-50.10788306820412
 30
0.0
 10
-29.04268552879555
 20
-50.60040477509099
 30
0.0
 10
-29.04268552882283
 20
-51.20796109036933
 30
0.0
 10
-29.0426855288501
 20
-51.81551740564895
 30
0.0
 10
-28.55016382196034
 20
-52.30803911257689
 30
0.0
 10
-27.94260750668585
 20
-52.30803911260384
 30
0.0
 10
-27.33505119140623
 20
-52.30803911263144
 30
0.0
 10
-26.84252948447604
 20
-51.81551740574778
 30
0.0
 10
-26.84252948444877
 20
-51.20796109046815
 30
0.0
 10
-26.84252948444877
 20
-51.20796109046815
 30
0.0
 10
-26.84252948444877
 20
-51.20796109046815
 30
0.0
 10
-26.84252948444877
 20
-51.20796109046815
 30
0.0
  0
ENDBLK
  5
2BC
330
2B9
100
AcDbEntity
  8
0
100
AcDbBlockEnd
  0
BLOCK
  5
2C0
330
2BE
100
AcDbEntity
  8
0
100
AcDbBlockBegin
  2
BLOCK_77
 70
     0
 10
0.0
 20
0.0
 30
0.0
  3
BLOCK_77
  1

  0
SPLINE
  5
2C2
330
2BE
100
AcDbEntity
  8
_U_5207_U_65AD_U_30D1_U_30
 62
     1
100
AcDbSpline
210
0.0
220
0.0
230
1.0
 70
    11
 71
     3
 72
    20
 73
    16
 74
     0
 42
0.0000000001
 43
0.0000000001
 12
1.0
 22
0.0
 32
0.0
 13
1.0
 23
0.0
 33
0.0
 40
0.0
 40
0.0
 40
0.0
 40
0.0
 40
1.0
 40
1.0
 40
1.0
 40
2.0
 40
2.0
 40
2.0
 40
3.0
 40
3.0
 40
3.0
 40
4.0
 40
4.0
 40
4.0
 40
5.0
 40
5.0
 40
5.0
 40
5.0
 10
-116.6148451102553
 20
-76.07219966916774
 30
0.0
 10
-116.6148451102287
 20
-75.46464335388812
 30
0.0
 10
-117.1073668171127
 20
-74.97212164695311
 30
0.0
 10
-117.7149231323923
 20
-74.97212164692617
 30
0.0
 10
-118.3224794476693
 20
-74.97212164689857
 30
0.0
 10
-118.8150011546008
 20
-75.46464335378994
 30
0.0
 10
-118.8150011546284
 20
-76.07219966906956
 30
0.0
 10
-118.8150011546553
 20
-76.67975598434019
 30
0.0
 10
-118.3224794477678
 20
-77.17227769127263
 30
0.0
 10
-117.7149231324908
 20
-77.17227769130022
 30
0.0
 10
-117.1073668172112
 20
-77.17227769132718
 30
0.0
 10
-116.6148451102826
 20
-76.67975598443837
 30
0.0
 10
-116.6148451102553
 20
-76.07219966916774
 30
0.0
 10
-116.6148451102553
 20
-76.07219966916774
 30
0.0
 10
-116.6148451102553
 20
-76.07219966916774
 30
0.0
 10
-116.6148451102553
 20
-76.07219966916774
 30
0.0
  0
ENDBLK
  5
2C1
330
2BE
100
AcDbEntity
  8
0
100
AcDbBlockEnd
  0
ENDSEC
  0
SECTION
  2
ENTITIES
  0
INSERT
  5
43
330
1F
100
AcDbEntity
  8
_U_5207_U_65AD_U_30D1_U_30
100
AcDbBlockReference
  2
BLOCK_2
 10
0.0
 20
0.0
 30
0.0
  0
INSERT
  5
56
330
1F
100
AcDbEntity
  8
_U_5207_U_65AD_U_30D1_U_30
100
AcDbBlockReference
  2
BLOCK_6
 10
0.0
 20
0.0
 30
0.0
  0
INSERT
  5
69
330
1F
100
AcDbEntity
  8
_U_5207_U_65AD_U_30D1_U_30
100
AcDbBlockReference
  2
BLOCK_10
 10
0.0
 20
0.0
 30
0.0
  0
INSERT
  5
179
330
1F
100
AcDbEntity
  8
_U_5207_U_65AD_U_30D1_U_30
100
AcDbBlockReference
  2
BLOCK_38
 10
0.0
 20
0.0
 30
0.0
  0
INSERT
  5
19B
330
1F
100
AcDbEntity
  8
_U_5207_U_65AD_U_30D1_U_30
100
AcDbBlockReference
  2
BLOCK_45
 10
0.0
 20
0.0
 30
0.0
  0
INSERT
  5
2AB
330
1F
100
AcDbEntity
  8
_U_5207_U_65AD_U_30D1_U_30
100
AcDbBlockReference
  2
BLOCK_73
 10
0.0
 20
0.0
 30
0.0
  0
INSERT
  5
2B0
330
1F
100
AcDbEntity
  8
_U_5207_U_65AD_U_30D1_U_30
100
AcDbBlockReference
  2
BLOCK_74
 10
0.0
 20
0.0
 30
0.0
  0
INSERT
  5
2B5
330
1F
100
AcDbEntity
  8
_U_5207_U_65AD_U_30D1_U_30
100
AcDbBlockReference
  2
BLOCK_75
 10
0.0
 20
0.0
 30
0.0
  0
INSERT
  5
2BA
330
1F
100
AcDbEntity
  8
_U_5207_U_65AD_U_30D1_U_30
100
AcDbBlockReference
  2
BLOCK_76
 10
0.0
 20
0.0
 30
0.0
  0
INSERT
  5
2BF
330
1F
100
AcDbEntity
  8
_U_5207_U_65AD_U_30D1_U_30
100
AcDbBlockReference
  2
BLOCK_77
 10
0.0
 20
0.0
 30
0.0
  0
SPLINE
  5
2C3
330
1F
100
AcDbEntity
  8
_U_5207_U_65AD_U_30D1_U_30
 62
     1
100
AcDbSpline
210
0.0
220
0.0
230
1.0
 70
    11
 71
     3
 72
   182
 73
   178
 74
     0
 42
0.0000000001
 43
0.0000000001
 12
1.0
 22
0.0
 32
0.0
 13
1.0
 23
0.0
 33
0.0
 40
0.0
 40
0.0
 40
0.0
 40
0.0
 40
1.0
 40
1.0
 40
1.0
 40
2.0
 40
2.0
 40
2.0
 40
3.0
 40
3.0
 40
3.0
 40
4.0
 40
4.0
 40
4.0
 40
5.0
 40
5.0
 40
5.0
 40
6.0
 40
6.0
 40
6.0
 40
7.0
 40
7.0
 40
7.0
 40
8.0
 40
8.0
 40
8.0
 40
9.0
 40
9.0
 40
9.0
 40
10.0
 40
10.0
 40
10.0
 40
11.0
 40
11.0
 40
11.0
 40
12.0
 40
12.0
 40
12.0
 40
13.0
 40
13.0
 40
13.0
 40
14.0
 40
14.0
 40
14.0
 40
15.0
 40
15.0
 40
15.0
 40
16.0
 40
16.0
 40
16.0
 40
17.0
 40
17.0
 40
17.0
 40
18.0
 40
18.0
 40
18.0
 40
19.0
 40
19.0
 40
19.0
 40
20.0
 40
20.0
 40
20.0
 40
21.0
 40
21.0
 40
21.0
 40
22.0
 40
22.0
 40
22.0
 40
23.0
 40
23.0
 40
23.0
 40
24.0
 40
24.0
 40
24.0
 40
25.0
 40
25.0
 40
25.0
 40
26.0
 40
26.0
 40
26.0
 40
27.0
 40
27.0
 40
27.0
 40
28.0
 40
28.0
 40
28.0
 40
29.0
 40
29.0
 40
29.0
 40
30.0
 40
30.0
 40
30.0
 40
31.0
 40
31.0
 40
31.0
 40
32.0
 40
32.0
 40
32.0
 40
33.0
 40
33.0
 40
33.0
 40
34.0
 40
34.0
 40
34.0
 40
35.0
 40
35.0
 40
35.0
 40
36.0
 40
36.0
 40
36.0
 40
37.0
 40
37.0
 40
37.0
 40
38.0
 40
38.0
 40
38.0
 40
39.0
 40
39.0
 40
39.0
 40
40.0
 40
40.0
 40
40.0
 40
41.0
 40
41.0
 40
41.0
 40
42.0
 40
42.0
 40
42.0
 40
43.0
 40
43.0
 40
43.0
 40
44.0
 40
44.0
 40
44.0
 40
45.0
 40
45.0
 40
45.0
 40
46.0
 40
46.0
 40
46.0
 40
47.0
 40
47.0
 40
47.0
 40
48.0
 40
48.0
 40
48.0
 40
49.0
 40
49.0
 40
49.0
 40
50.0
 40
50.0
 40
50.0
 40
51.0
 40
51.0
 40
51.0
 40
52.0
 40
52.0
 40
52.0
 40
53.0
 40
53.0
 40
53.0
 40
54.0
 40
54.0
 40
54.0
 40
55.0
 40
55.0
 40
55.0
 40
56.0
 40
56.0
 40
56.0
 40
57.0
 40
57.0
 40
57.0
 40
58.0
 40
58.0
 40
58.0
 40
59.0
 40
59.0
 40
59.0
 40
59.0
 10
-9.94726678589628
 20
-13.56808171269884
 30
0.0
 10
-9.94726678589628
 20
-13.56808171269884
 30
0.0
 10
-26.9484725833218
 20
-13.56808171193586
 30
0.0
 10
-26.9484725833218
 20
-13.56808171193586
 30
0.0
 10
-26.9484725833218
 20
-13.56808171193586
 30
0.0
 10
-28.94861444184192
 20
-13.56808171184602
 30
0.0
 10
-28.94861444184192
 20
-13.56808171184602
 30
0.0
 10
-28.94861444184192
 20
-13.56808171184602
 30
0.0
 10
-46.94989116852943
 20
-13.56808171103812
 30
0.0
 10
-46.94989116852943
 20
-13.56808171103812
 30
0.0
 10
-47.22605313001666
 20
-13.56808171102529
 30
0.0
 10
-47.44992663314662
 20
-13.34420820787704
 30
0.0
 10
-47.4499266331341
 20
-13.06804624638339
 30
0.0
 10
-47.4499266331341
 20
-13.06804624638339
 30
0.0
 10
-47.44992663296598
 20
-9.317780261658642
 30
0.0
 10
-47.44992663296598
 20
-9.317780261658642
 30
0.0
 10
-47.44992663295347
 20
-9.041618300171406
 30
0.0
 10
-47.67380013608343
 20
-8.817744797016099
 30
0.0
 10
-47.9499620975758
 20
-8.817744797003906
 30
0.0
 10
-47.9499620975758
 20
-8.817744797003906
 30
0.0
 10
-65.95123882425945
 20
-8.817744796195365
 30
0.0
 10
-65.95123882425945
 20
-8.817744796195365
 30
0.0
 10
-66.22740078575055
 20
-8.817744796183174
 30
0.0
 10
-66.4512742888805
 20
-8.593871293038134
 30
0.0
 10
-66.45127428886799
 20
-8.317709331547047
 30
0.0
 10
-66.45127428886799
 20
-8.317709331547047
 30
0.0
 10
-66.45127428881183
 20
-7.067620669966998
 30
0.0
 10
-66.45127428881183
 20
-7.067620669966998
 30
0.0
 10
-66.45127428879933
 20
-6.791458708479762
 30
0.0
 10
-66.67514779192929
 20
-6.567585205331513
 30
0.0
 10
-66.95130975341908
 20
-6.56758520531868
 30
0.0
 10
-66.95130975341908
 20
-6.56758520531868
 30
0.0
 10
-83.95251555084461
 20
-6.567585204555699
 30
0.0
 10
-83.95251555084461
 20
-6.567585204555699
 30
0.0
 10
-84.2286775123357
 20
-6.567585204542866
 30
0.0
 10
-84.45255101548683
 20
-6.791458707671862
 30
0.0
 10
-84.45255101549934
 20
-7.067620669159099
 30
0.0
 10
-84.45255101549934
 20
-7.067620669159099
 30
0.0
 10
-84.45255101555517
 20
-8.317709330739147
 30
0.0
 10
-84.45255101555517
 20
-8.317709330739147
 30
0.0
 10
-84.45255101556768
 20
-8.593871292230235
 30
0.0
 10
-84.67642451871657
 20
-8.81774479535474
 30
0.0
 10
-84.95258648020669
 20
-8.817744795342547
 30
0.0
 10
-84.95258648020669
 20
-8.817744795342547
 30
0.0
 10
-102.9538632068926
 20
-8.817744794534006
 30
0.0
 10
-102.9538632068926
 20
-8.817744794534006
 30
0.0
 10
-103.2300251683837
 20
-8.817744794521815
 30
0.0
 10
-103.4538986715348
 20
-9.041618297656587
 30
0.0
 10
-103.4538986715473
 20
-9.317780259143824
 30
0.0
 10
-103.4538986715473
 20
-9.317780259143824
 30
0.0
 10
-103.4538986716147
 20
-10.81788665303295
 30
0.0
 10
-103.4538986716147
 20
-10.81788665303295
 30
0.0
 10
-103.4538986716231
 20
-11.09404861452789
 30
0.0
 10
-103.6777721747755
 20
-11.31792211765304
 30
0.0
 10
-103.9539341362653
 20
-11.3179221176402
 30
0.0
 10
-103.9539341362653
 20
-11.3179221176402
 30
0.0
 10
-121.9552108629502
 20
-11.3179221168323
 30
0.0
 10
-121.9552108629502
 20
-11.3179221168323
 30
0.0
 10
-122.2313728244387
 20
-11.31792211682011
 30
0.0
 10
-122.4552463275902
 20
-11.54179561995488
 30
0.0
 10
-122.4552463276027
 20
-11.81795758144212
 30
0.0
 10
-122.4552463276027
 20
-11.81795758144212
 30
0.0
 10
-122.4552463276579
 20
-13.05255141953877
 30
0.0
 10
-122.4552463276579
 20
-13.05255141953877
 30
0.0
 10
-122.4836629426404
 20
-13.32067344039258
 30
0.0
 10
-122.6894855779138
 20
-13.53581910025373
 30
0.0
 10
-122.9560866677508
 20
-13.57607802441993
 30
0.0
 10
-122.9560866677508
 20
-13.57607802441993
 30
0.0
 10
-142.7074875206397
 20
-13.5760780235331
 30
0.0
 10
-142.7074875206397
 20
-13.5760780235331
 30
0.0
 10
-142.9836494821269
 20
-13.57607802352091
 30
0.0
 10
-143.2075229852784
 20
-13.79995152665311
 30
0.0
 10
-143.2075229852906
 20
-14.0761134881442
 30
0.0
 10
-143.2075229852906
 20
-14.0761134881442
 30
0.0
 10
-143.2075779612021
 20
-73.03689464737921
 30
0.0
 10
-143.2075779612021
 20
-73.03689464737921
 30
0.0
 10
-143.1642589381279
 20
-73.85020652243298
 30
0.0
 10
-142.9186496452774
 20
-74.63984915742665
 30
0.0
 10
-142.4930132728205
 20
-75.33424560204368
 30
0.0
 10
-142.4930132728205
 20
-75.33424560204368
 30
0.0
 10
-129.2557286504582
 20
-98.37409650861751
 30
0.0
 10
-129.2557286504582
 20
-98.37409650861751
 30
0.0
 10
-129.250983894779
 20
-98.38124809561472
 30
0.0
 10
-129.2461338281163
 20
-98.38832925240959
 30
0.0
 10
-129.2411800355916
 20
-98.3953376646927
 30
0.0
 10
-128.9631727534403
 20
-98.78865039241492
 30
0.0
 10
-128.418960358911
 20
-98.88212392473693
 30
0.0
 10
-128.0256476311839
 20
-98.60411664258272
 30
0.0
 10
-128.0256476311839
 20
-98.60411664258272
 30
0.0
 10
-113.2759784284553
 20
-90.11459231761022
 30
0.0
 10
-113.2759784284553
 20
-90.11459231761022
 30
0.0
 10
-113.1847453071391
 20
-90.08287332358907
 30
0.0
 10
-113.0910437548091
 20
-90.05875870094295
 30
0.0
 10
-112.9958330433919
 20
-90.04249532371878
 30
0.0
 10
-112.9958330433919
 20
-90.04249532371878
 30
0.0
 10
-76.20196585258041
 20
-84.5731176872049
 30
0.0
 10
-76.20196585258041
 20
-84.5731176872049
 30
0.0
 10
-76.07271848864497
 20
-84.5599971856437
 30
0.0
 10
-75.95057819325287
 20
-84.50765134476701
 30
0.0
 10
-75.85194102733121
 20
-84.42310704783176
 30
0.0
 10
-75.85194102733121
 20
-84.42310704783176
 30
0.0
 10
-65.3011927229864
 20
-69.96385466144856
 30
0.0
 10
-65.30474636562067
 20
-69.96852847786208
 30
0.0
 10
-65.21097152548313
 20
-69.87475363773447
 30
0.0
 10
-65.08378554846495
 20
-69.82207148111937
 30
0.0
 10
-64.95116789773752
 20
-69.82207148112515
 30
0.0
 10
-64.95116789773752
 20
-69.82207148112515
 30
0.0
 10
-28.94861444436765
 20
-69.82207148274159
 30
0.0
 10
-28.94861444436765
 20
-69.82207148274159
 30
0.0
 10
-28.94861444436765
 20
-69.82207148274159
 30
0.0
 10
-26.94847258584753
 20
-69.82207148283142
 30
0.0
 10
-26.94847258584753
 20
-69.82207148283142
 30
0.0
 10
-26.94847258584753
 20
-69.82207148283142
 30
0.0
 10
-9.947266788422008
 20
-69.8220714835944
 30
0.0
 10
-9.947266788422008
 20
-69.8220714835944
 30
0.0
 10
-9.947266788422008
 20
-69.8220714835944
 30
0.0
 10
-9.90283990503518
 20
-69.82377554232698
 30
0.0
 10
-9.90283990503518
 20
-69.82377554232698
 30
0.0
 10
-9.90283990503518
 20
-69.82377554232698
 30
0.0
 10
-9.942424339723493
 20
-69.82215462352407
 30
0.0
 10
-9.942424339723493
 20
-69.82215462352407
 30
0.0
 10
-9.942424339723493
 20
-69.82215462352407
 30
0.0
 10
-9.93148564556121
 20
-69.82313540150095
 30
0.0
 10
-9.93148564556121
 20
-69.82313540150095
 30
0.0
 10
-9.655319524465295
 20
-69.82313540151314
 30
0.0
 10
-9.431438110309793
 20
-69.59926879052253
 30
0.0
 10
-9.431421288541982
 20
-69.32310132368619
 30
0.0
 10
-9.431421288541982
 20
-69.32310132368619
 30
0.0
 10
-9.440665367881472
 20
-68.50906294125288
 30
0.0
 10
-9.440665367881472
 20
-68.50906294125288
 30
0.0
 10
-9.440665367881472
 20
-68.50906294125288
 30
0.0
 10
-9.440656822471619
 20
-68.50906300405468
 30
0.0
 10
-9.440656822471619
 20
-68.50906300405468
 30
0.0
 10
-9.440656822471619
 20
-68.50906300405468
 30
0.0
 10
-9.423839587868805
 20
-46.43087185106826
 30
0.0
 10
-9.423839587868805
 20
-46.43087185106826
 30
0.0
 10
-9.423839587868805
 20
-46.42874827267931
 30
0.0
 10
-9.431311138719126
 20
-46.804874646724
 30
0.0
 10
-9.421384957335244
 20
-46.42528971978982
 30
0.0
 10
-9.411458775957138
 20
-46.172289174352
 30
0.0
 10
-9.146014168810296
 20
-45.99158180449902
 30
0.0
 10
-8.94462680585066
 20
-45.98962778941247
 30
0.0
 10
-8.743239442891024
 20
-45.98767242858548
 30
0.0
 10
-8.941418560680022
 20
-45.98764820524887
 30
0.0
 10
-8.939523758163135
 20
-45.9876495509893
 30
0.0
 10
-8.939523758163135
 20
-45.9876495509893
 30
0.0
 10
9.196944573619703
 20
-45.99068419645956
 30
0.0
 10
9.439253211390072
 20
-45.98983368852255
 30
0.0
 10
9.681572615083832
 20
-45.98898318058554
 30
0.0
 10
9.973673648548436
 20
-45.79945179077352
 30
0.0
 10
9.97367364856127
 20
-45.50536848167346
 30
0.0
 10
9.973673648570255
 20
-45.31632559562249
 30
0.0
 10
9.933355266117555
 20
-30.88332279881717
 30
0.0
 10
9.925485376246137
 20
-28.03327335681457
 30
0.0
 10
9.92463486831169
 20
-27.72501267234845
 30
0.0
 10
9.697506182531546
 20
-27.54747182969051
 30
0.0
 10
9.448468842640906
 20
-27.54825505060633
 30
0.0
 10
9.232708971953745
 20
-27.54893330376972
 30
0.0
 10
-5.917313742899602
 20
-27.54256795088435
 30
0.0
 10
-9.030086704903526
 20
-27.54735340369258
 30
0.0
 10
-9.310235283552222
 20
-27.54377595066529
 30
0.0
 10
-9.431418797082575
 20
-27.41719199663481
 30
0.0
 10
-9.431418797072308
 20
-27.18892351620454
 30
0.0
 10
-9.43141879706204
 20
-26.96065503577298
 30
0.0
 10
-9.431418796483548
 20
-14.07674475937787
 30
0.0
 10
-9.431418796483548
 20
-14.07674475937787
 30
0.0
 10
-9.431418796471036
 20
-13.79640549722736
 30
0.0
 10
-9.658687439253343
 20
-13.56915300330961
 30
0.0
 10
-9.939010552518766
 20
-13.56915300329677
 30
0.0
 10
-9.939010552518766
 20
-13.56915300329677
 30
0.0
 10
-9.936706644913006
 20
-13.56884079151842
 30
0.0
 10
-9.936706644913006
 20
-13.56884079151842
 30
0.0
 10
-9.936706644913006
 20
-13.56884079151842
 30
0.0
 10
-9.902839902509772
 20
-13.56978577143142
 30
0.0
 10
-9.902839902509772
 20
-13.56978577143142
 30
0.0
 10
-9.902839902509772
 20
-13.56978577143142
 30
0.0
 10
-9.94726678589628
 20
-13.56808171269884
 30
0.0
 10
-9.94726678589628
 20
-13.56808171269884
 30
0.0
  0
ENDSEC
  0
SECTION
  2
OBJECTS
  0
DICTIONARY
  5
C
330
0
100
AcDbDictionary
  3
ACAD_GROUP
350
D
  3
ACAD_LAYOUT
350
1A
  3
ACAD_MATERIAL
350
3B
  3
ACAD_MLEADERSTYLE
350
2C6
  3
ACAD_MLINESTYLE
350
17
  3
ACAD_PLOTSETTINGS
350
19
  3
ACAD_VISUALSTYLE
350
2A
  3
ACDBVARIABLEDICTIONARY
350
2C4
1001
ACAD
1000
TREAT_AS_HARD
1070
     0
  0
DICTIONARY
  5
D
102
{ACAD_REACTORS
330
C
102
}
330
C
100
AcDbDictionary
1001
ACAD
1000
TREAT_AS_HARD
1070
     0
  0
DICTIONARY
  5
1A
102
{ACAD_REACTORS
330
C
102
}
330
C
100
AcDbDictionary
1001
ACAD
1000
TREAT_AS_HARD
1070
     0
  0
DICTIONARY
  5
3B
102
{ACAD_REACTORS
330
C
102
}
330
C
100
AcDbDictionary
  3
BYBLOCK
350
3D
  3
BYLAYER
350
3C
  3
GLOBAL
350
3E
1001
ACAD
1000
TREAT_AS_HARD
1070
     0
  0
DICTIONARY
  5
2C6
102
{ACAD_REACTORS
330
C
102
}
330
C
100
AcDbDictionary
1001
ACAD
1000
TREAT_AS_HARD
1070
     0
  0
DICTIONARY
  5
17
102
{ACAD_REACTORS
330
C
102
}
330
C
100
AcDbDictionary
  3
STANDARD
350
18
1001
ACAD
1000
TREAT_AS_HARD
1070
     0
  0
DICTIONARY
  5
19
102
{ACAD_REACTORS
330
C
102
}
330
C
100
AcDbDictionary
1001
ACAD
1000
TREAT_AS_HARD
1070
     0
  0
DICTIONARY
  5
2A
102
{ACAD_REACTORS
330
C
102
}
330
C
100
AcDbDictionary
  3
2DWIREFRAME
350
2F
  3
3D_HIDDEN
350
31
  3
3DWIREFRAME
350
30
  3
BASIC
350
32
  3
BRIGHTEN
350
36
  3
COLORCHANGE
350
3A
  3
CONCEPTUAL
350
34
  3
DIM
350
35
  3
FACEPATTERN
350
39
  3
FLAT
350
2B
  3
FLATWITHEDGES
350
2C
  3
GOURAUD
350
2D
  3
GOURAUDWITHEDGES
350
2E
  3
LINEPATTERN
350
38
  3
REALISTIC
350
33
  3
THICKEN
350
37
1001
ACAD
1000
TREAT_AS_HARD
1070
     0
  0
DICTIONARY
  5
2C4
102
{ACAD_REACTORS
330
C
102
}
330
C
100
AcDbDictionary
  3
DIMASSOC
350
2C7
  3
HIDETEXT
350
2C8
1001
ACAD
1000
TREAT_AS_HARD
1070
     0
  0
MATERIAL
  5
3D
102
{ACAD_REACTORS
330
3B
102
}
102
{ACAD_XDICTIONARY
360
2CB
102
}
330
3B
100
AcDbMaterial
  1
ByBlock
  0
MATERIAL
  5
3C
102
{ACAD_REACTORS
330
3B
102
}
102
{ACAD_XDICTIONARY
360
2C9
102
}
330
3B
100
AcDbMaterial
  1
ByLayer
  0
MATERIAL
  5
3E
102
{ACAD_REACTORS
330
3B
102
}
102
{ACAD_XDICTIONARY
360
2CD
102
}
330
3B
100
AcDbMaterial
  1
Global
  0
MLINESTYLE
  5
18
102
{ACAD_REACTORS
330
17
102
}
330
17
100
AcDbMlineStyle
  2
Standard
 70
     0
  3

 62
   256
 51
90.0
 52
90.0
 71
     2
 49
0.5
 62
   256
  6
BYLAYER
 49
-0.5
 62
   256
  6
BYLAYER
  0
ACAD_PROXY_OBJECT
  5
2F
102
{ACAD_REACTORS
330
2A
102
}
330
2A
100
AcDbZombieObject
 90
      499
 91
      501
 93
      436
310
42CC9915DA5C99599C985B595049028333333333333E3BF0000000000000FB0107901411070040501600405405064090741402480A0340
1001
ACAD
1000
AcDbSavedByObjectVersion
1070
     0
  0
ACAD_PROXY_OBJECT
  5
31
102
{ACAD_REACTORS
330
2A
102
}
330
2A
100
AcDbZombieObject
 90
      499
 91
      501
 93
      500
310
424CD108121A5919195B90640502408333333333333E3BF0000000000000FB01079024090700405020000000000001110200405405064090740C02480A0340
1001
ACAD
1000
AcDbSavedByObjectVersion
1070
     0
  0
ACAD_PROXY_OBJECT
  5
30
102
{ACAD_REACTORS
330
2A
102
}
330
2A
100
AcDbZombieObject
 90
      499
 91
      501
 93
      436
310
42CCD915DA5C99599C985B595059028333333333333E3BF0000000000000FB0107901411070040501600405405064090741402480A0340
1001
ACAD
1000
AcDbSavedByObjectVersion
1070
     0
  0
ACAD_PROXY_OBJECT
  5
32
102
{ACAD_REACTORS
330
2A
102
}
330
2A
100
AcDbZombieObject
 90
      499
 91
      501
 93
      388
310
4150985CDA58D07406404333333333333E3BF0000000000000FB0107A41107004050150841D405064090741402480A0350
1001
ACAD
1000
AcDbSavedByObjectVersion
1070
     0
  0
ACAD_PROXY_OBJECT
  5
36
102
{ACAD_REACTORS
330
2A
102
}
330
2A
100
AcDbZombieObject
 90
      499
 91
      501
 93
      428
310
42109C9A59DA1D195B90C409028333333333333E3BF0000000000000FB010790141107004050150841D405064090741402480A029950
1001
ACAD
1000
AcDbSavedByObjectVersion
1070
     0
  0
ACAD_PROXY_OBJECT
  5
3A
102
{ACAD_REACTORS
330
2A
102
}
330
2A
100
AcDbZombieObject
 90
      499
 91
      501
 93
      452
310
42D0DBDB1BDC90DA185B99D95104090240C333333333333E3BF0000000000000FB0108901411070040501508421405064090741402480A0350
1001
ACAD
1000
AcDbSavedByObjectVersion
1070
     0
  0
ACAD_PROXY_OBJECT
  5
34
102
{ACAD_REACTORS
330
2A
102
}
330
2A
100
AcDbZombieObject
 90
      499
 91
      501
 93
      500
310
4290DBDB98D95C1D1D585B10940D028333333333333E3BF0000000000000FB0107902409070040501000000000000111010841D405064090740C02480A0340
1001
ACAD
1000
AcDbSavedByObjectVersion
1070
     0
  0
ACAD_PROXY_OBJECT
  5
35
102
{ACAD_REACTORS
330
2A
102
}
330
2A
100
AcDbZombieObject
 90
      499
 91
      501
 93
      412
310
40D11A5B50B409028333333333333E3BF0000000000000FB010790141107004050150841D405064090741402480A02677FFFFFD0
1001
ACAD
1000
AcDbSavedByObjectVersion
1070
     0
  0
ACAD_PROXY_OBJECT
  5
39
102
{ACAD_REACTORS
330
2A
102
}
330
2A
100
AcDbZombieObject
 90
      499
 91
      501
 93
      444
310
42D19858D95C185D1D195C9B90F409028333333333333E3BF0000000000000FB010790141107004050150841D405064090741402480A0350
1001
ACAD
1000
AcDbSavedByObjectVersion
1070
     0
  0
ACAD_PROXY_OBJECT
  5
2B
102
{ACAD_REACTORS
330
2A
102
}
330
2A
100
AcDbZombieObject
 90
      499
 91
      501
 93
      388
310
41119B185D240901404333333333333E3BF0000000000000F9010740A41107004050150841D405064090741402480A1B50
1001
ACAD
1000
AcDbSavedByObjectVersion
1070
     0
  0
ACAD_PROXY_OBJECT
  5
2C
102
{ACAD_REACTORS
330
2A
102
}
330
2A
100
AcDbZombieObject
 90
      499
 91
      501
 93
      476
310
43519B185D15DA5D1A115919D95CD0140901404333333333333E3BF0000000000000F9010740901411070040501600405405064090741402480A1B50
1001
ACAD
1000
AcDbSavedByObjectVersion
1070
     0
  0
ACAD_PROXY_OBJECT
  5
2D
102
{ACAD_REACTORS
330
2A
102
}
330
2A
100
AcDbZombieObject
 90
      499
 91
      501
 93
      412
310
41D1DBDD5C985D5910240902404333333333333E3BF0000000000000F9010740A411070040501641D405064090741402480A1B50
1001
ACAD
1000
AcDbSavedByObjectVersion
1070
     0
  0
ACAD_PROXY_OBJECT
  5
2E
102
{ACAD_REACTORS
330
2A
102
}
330
2A
100
AcDbZombieObject
 90
      499
 91
      501
 93
      500
310
4411DBDD5C985D5915DA5D1A115919D95CD0340902404333333333333E3BF0000000000000F9010740901411070040501600405405064090741402480A1B50
1001
ACAD
1000
AcDbSavedByObjectVersion
1070
     0
  0
ACAD_PROXY_OBJECT
  5
38
102
{ACAD_REACTORS
330
2A
102
}
330
2A
100
AcDbZombieObject
 90
      499
 91
      501
 93
      444
310
42D31A5B995C185D1D195C9B90E409028333333333333E3BF0000000000000FB010790141107004050750841D405064090741402483A0350
1001
ACAD
1000
AcDbSavedByObjectVersion
1070
     0
  0
ACAD_PROXY_OBJECT
  5
33
102
{ACAD_REACTORS
330
2A
102
}
330
2A
100
AcDbZombieObject
 90
      499
 91
      501
 93
      420
310
425499585B1A5CDD1A58D08409028333333333333E3BF0000000000000FB01079019070040501508421405064090741402480A1B40
1001
ACAD
1000
AcDbSavedByObjectVersion
1070
     0
  0
ACAD_PROXY_OBJECT
  5
37
102
{ACAD_REACTORS
330
2A
102
}
330
2A
100
AcDbZombieObject
 90
      499
 91
      501
 93
      412
310
41D51A1A58DAD95B90D409028333333333333E3BF0000000000000FB010790141107004050150C41D405064090741402480A0350
1001
ACAD
1000
AcDbSavedByObjectVersion
1070
     0
  0
DICTIONARYVAR
  5
2C7
102
{ACAD_REACTORS
330
2C4
102
}
330
2C4
100
DictionaryVariables
280
     0
  1
2
  0
DICTIONARYVAR
  5
2C8
102
{ACAD_REACTORS
330
2C4
102
}
330
2C4
100
DictionaryVariables
280
     0
  1
1
  0
DICTIONARY
  5
2CB
330
3D
100
AcDbDictionary
  3
ACAD_XREC_ROUNDTRIP
360
2CC
1001
ACAD
1000
TREAT_AS_HARD
1070
     1
  0
DICTIONARY
  5
2C9
330
3C
100
AcDbDictionary
  3
ACAD_XREC_ROUNDTRIP
360
2CA
1001
ACAD
1000
TREAT_AS_HARD
1070
     1
  0
DICTIONARY
  5
2CD
330
3E
100
AcDbDictionary
  3
ACAD_XREC_ROUNDTRIP
360
2CE
1001
ACAD
1000
TREAT_AS_HARD
1070
     1
  0
XRECORD
  5
2CC
102
{ACAD_REACTORS
330
2CB
102
}
330
2CB
100
AcDbXrecord
102
MATERIAL
148
0.0
149
0.0
149
0.0
 93
        0
 94
      127
282
     0
 72
     1
 77
     1
171
     1
175
     1
179
     1
273
     0
  0
XRECORD
  5
2CA
102
{ACAD_REACTORS
330
2C9
102
}
330
2C9
100
AcDbXrecord
102
MATERIAL
148
0.0
149
0.0
149
0.0
 93
        0
 94
      127
282
     0
 72
     1
 77
     1
171
     1
175
     1
179
     1
273
     0
  0
XRECORD
  5
2CE
102
{ACAD_REACTORS
330
2CD
102
}
330
2CD
100
AcDbXrecord
102
MATERIAL
148
0.0
149
0.0
149
0.0
 93
        0
 94
      127
282
     0
 72
     1
 77
     1
171
     1
175
     1
179
     1
273
     0
  0
ENDSEC
  0
EOF
