  0
SECTION
  2
HEADER
  9
$ACADVER
  1
AC1024
  9
$ACADMAINTVER
 70
     6
  9
$DWGCODEPAGE
  3
ANSI_1251
  9
$INSBASE
 10
0.0
 20
0.0
 30
0.0
  9
$EXTMIN
 10
1.000000000000000E+20
 20
1.000000000000000E+20
 30
1.000000000000000E+20
  9
$EXTMAX
 10
-1.000000000000000E+20
 20
-1.000000000000000E+20
 30
-1.000000000000000E+20
  9
$LIMMIN
 10
0.0
 20
0.0
  9
$LIMMAX
 10
12.0
 20
9.0
  9
$ORTHOMODE
 70
     0
  9
$REGENMODE
 70
     1
  9
$FILLMODE
 70
     1
  9
$QTEXTMODE
 70
     0
  9
$MIRRTEXT
 70
     1
  9
$LTSCALE
 40
1.0
  9
$ATTMODE
 70
     1
  9
$TEXTSIZE
 40
0.2
  9
$TRACEWID
 40
0.05
  9
$TEXTSTYLE
  7
Standard
  9
$CLAYER
  8
0
  9
$CELTYPE
  6
ByLayer
  9
$CECOLOR
 62
   256
  9
$CELTSCALE
 40
1.0
  9
$DISPSILH
 70
     0
  9
$DIMSCALE
 40
1.0
  9
$DIMASZ
 40
0.18
  9
$DIMEXO
 40
0.0625
  9
$DIMDLI
 40
0.38
  9
$DIMRND
 40
0.0
  9
$DIMDLE
 40
0.0
  9
$DIMEXE
 40
0.18
  9
$DIMTP
 40
0.0
  9
$DIMTM
 40
0.0
  9
$DIMTXT
 40
0.18
  9
$DIMCEN
 40
0.09
  9
$DIMTSZ
 40
0.0
  9
$DIMTOL
 70
     0
  9
$DIMLIM
 70
     0
  9
$DIMTIH
 70
     1
  9
$DIMTOH
 70
     1
  9
$DIMSE1
 70
     0
  9
$DIMSE2
 70
     0
  9
$DIMTAD
 70
     0
  9
$DIMZIN
 70
     0
  9
$DIMBLK
  1

  9
$DIMASO
 70
     1
  9
$DIMSHO
 70
     1
  9
$DIMPOST
  1

  9
$DIMAPOST
  1

  9
$DIMALT
 70
     0
  9
$DIMALTD
 70
     2
  9
$DIMALTF
 40
25.4
  9
$DIMLFAC
 40
1.0
  9
$DIMTOFL
 70
     0
  9
$DIMTVP
 40
0.0
  9
$DIMTIX
 70
     0
  9
$DIMSOXD
 70
     0
  9
$DIMSAH
 70
     0
  9
$DIMBLK1
  1

  9
$DIMBLK2
  1

  9
$DIMSTYLE
  2
Standard
  9
$DIMCLRD
 70
     0
  9
$DIMCLRE
 70
     0
  9
$DIMCLRT
 70
     0
  9
$DIMTFAC
 40
1.0
  9
$DIMGAP
 40
0.09
  9
$DIMJUST
 70
     0
  9
$DIMSD1
 70
     0
  9
$DIMSD2
 70
     0
  9
$DIMTOLJ
 70
     1
  9
$DIMTZIN
 70
     0
  9
$DIMALTZ
 70
     0
  9
$DIMALTTZ
 70
     0
  9
$DIMUPT
 70
     0
  9
$DIMDEC
 70
     4
  9
$DIMTDEC
 70
     4
  9
$DIMALTU
 70
     2
  9
$DIMALTTD
 70
     2
  9
$DIMTXSTY
  7
Standard
  9
$DIMAUNIT
 70
     0
  9
$DIMADEC
 70
     0
  9
$DIMALTRND
 40
0.0
  9
$DIMAZIN
 70
     0
  9
$DIMDSEP
 70
    46
  9
$DIMATFIT
 70
     3
  9
$DIMFRAC
 70
     0
  9
$DIMLDRBLK
  1

  9
$DIMLUNIT
 70
     2
  9
$DIMLWD
 70
    -2
  9
$DIMLWE
 70
    -2
  9
$DIMTMOVE
 70
     0
  9
$DIMFXL
 40
1.0
  9
$DIMFXLON
 70
     0
  9
$DIMJOGANG
 40
0.7853981633974483
  9
$DIMTFILL
 70
     0
  9
$DIMTFILLCLR
 70
     0
  9
$DIMARCSYM
 70
     0
  9
$DIMLTYPE
  6

  9
$DIMLTEX1
  6

  9
$DIMLTEX2
  6

  9
$DIMTXTDIRECTION
 70
     0
  9
$LUNITS
 70
     2
  9
$LUPREC
 70
     4
  9
$SKETCHINC
 40
0.1
  9
$FILLETRAD
 40
0.5
  9
$AUNITS
 70
     0
  9
$AUPREC
 70
     0
  9
$MENU
  1
.
  9
$ELEVATION
 40
0.0
  9
$PELEVATION
 40
0.0
  9
$THICKNESS
 40
0.0
  9
$LIMCHECK
 70
     0
  9
$CHAMFERA
 40
0.5
  9
$CHAMFERB
 40
0.5
  9
$CHAMFERC
 40
1.0
  9
$CHAMFERD
 40
0.0
  9
$SKPOLY
 70
     0
  9
$TDCREATE
 40
2458720.44130044
  9
$TDUCREATE
 40
2458720.232967107
  9
$TDUPDATE
 40
2458720.441300532
  9
$TDUUPDATE
 40
2458720.232967199
  9
$TDINDWG
 40
0.0000000116
  9
$TDUSRTIMER
 40
0.0000000116
  9
$USRTIMER
 70
     1
  9
$ANGBASE
 50
0.0
  9
$ANGDIR
 70
     0
  9
$PDMODE
 70
     0
  9
$PDSIZE
 40
0.0
  9
$PLINEWID
 40
0.0
  9
$SPLFRAME
 70
     0
  9
$SPLINETYPE
 70
     6
  9
$SPLINESEGS
 70
     8
  9
$HANDSEED
  5
15E
  9
$SURFTAB1
 70
     6
  9
$SURFTAB2
 70
     6
  9
$SURFTYPE
 70
     6
  9
$SURFU
 70
     6
  9
$SURFV
 70
     6
  9
$UCSBASE
  2

  9
$UCSNAME
  2

  9
$UCSORG
 10
0.0
 20
0.0
 30
0.0
  9
$UCSXDIR
 10
1.0
 20
0.0
 30
0.0
  9
$UCSYDIR
 10
0.0
 20
1.0
 30
0.0
  9
$UCSORTHOREF
  2

  9
$UCSORTHOVIEW
 70
     0
  9
$UCSORGTOP
 10
0.0
 20
0.0
 30
0.0
  9
$UCSORGBOTTOM
 10
0.0
 20
0.0
 30
0.0
  9
$UCSORGLEFT
 10
0.0
 20
0.0
 30
0.0
  9
$UCSORGRIGHT
 10
0.0
 20
0.0
 30
0.0
  9
$UCSORGFRONT
 10
0.0
 20
0.0
 30
0.0
  9
$UCSORGBACK
 10
0.0
 20
0.0
 30
0.0
  9
$PUCSBASE
  2

  9
$PUCSNAME
  2

  9
$PUCSORG
 10
0.0
 20
0.0
 30
0.0
  9
$PUCSXDIR
 10
1.0
 20
0.0
 30
0.0
  9
$PUCSYDIR
 10
0.0
 20
1.0
 30
0.0
  9
$PUCSORTHOREF
  2

  9
$PUCSORTHOVIEW
 70
     0
  9
$PUCSORGTOP
 10
0.0
 20
0.0
 30
0.0
  9
$PUCSORGBOTTOM
 10
0.0
 20
0.0
 30
0.0
  9
$PUCSORGLEFT
 10
0.0
 20
0.0
 30
0.0
  9
$PUCSORGRIGHT
 10
0.0
 20
0.0
 30
0.0
  9
$PUCSORGFRONT
 10
0.0
 20
0.0
 30
0.0
  9
$PUCSORGBACK
 10
0.0
 20
0.0
 30
0.0
  9
$USERI1
 70
     0
  9
$USERI2
 70
     0
  9
$USERI3
 70
     0
  9
$USERI4
 70
     0
  9
$USERI5
 70
     0
  9
$USERR1
 40
0.0
  9
$USERR2
 40
0.0
  9
$USERR3
 40
0.0
  9
$USERR4
 40
0.0
  9
$USERR5
 40
0.0
  9
$WORLDVIEW
 70
     1
  9
$SHADEDGE
 70
     3
  9
$SHADEDIF
 70
    70
  9
$TILEMODE
 70
     1
  9
$MAXACTVP
 70
    64
  9
$PINSBASE
 10
0.0
 20
0.0
 30
0.0
  9
$PLIMCHECK
 70
     0
  9
$PEXTMIN
 10
1.000000000000000E+20
 20
1.000000000000000E+20
 30
1.000000000000000E+20
  9
$PEXTMAX
 10
-1.000000000000000E+20
 20
-1.000000000000000E+20
 30
-1.000000000000000E+20
  9
$PLIMMIN
 10
0.0
 20
0.0
  9
$PLIMMAX
 10
12.0
 20
9.0
  9
$UNITMODE
 70
     0
  9
$VISRETAIN
 70
     1
  9
$PLINEGEN
 70
     0
  9
$PSLTSCALE
 70
     1
  9
$TREEDEPTH
 70
  3020
  9
$CMLSTYLE
  2
Standard
  9
$CMLJUST
 70
     0
  9
$CMLSCALE
 40
1.0
  9
$PROXYGRAPHICS
 70
     1
  9
$MEASUREMENT
 70
     0
  9
$CELWEIGHT
370
    -1
  9
$ENDCAPS
280
     0
  9
$JOINSTYLE
280
     0
  9
$LWDISPLAY
290
     1
  9
$INSUNITS
 70
     1
  9
$HYPERLINKBASE
  1

  9
$STYLESHEET
  1

  9
$XEDIT
290
     1
  9
$CEPSNTYPE
380
     0
  9
$PSTYLEMODE
290
     1
  9
$FINGERPRINTGUID
  2
{C3F5D2F8-0F36-482F-B1F4-4E946114F6BF}
  9
$VERSIONGUID
  2
{FAEB1C32-E019-11D5-929B-00C0DF256EC4}
  9
$EXTNAMES
290
     1
  9
$PSVPSCALE
 40
0.0
  9
$OLESTARTUP
290
     0
  9
$SORTENTS
280
   127
  9
$INDEXCTL
280
     0
  9
$HIDETEXT
280
     1
  9
$XCLIPFRAME
280
     2
  9
$HALOGAP
280
     0
  9
$OBSCOLOR
 70
   257
  9
$OBSLTYPE
280
     0
  9
$INTERSECTIONDISPLAY
280
     0
  9
$INTERSECTIONCOLOR
 70
   257
  9
$DIMASSOC
280
     2
  9
$PROJECTNAME
  1

  9
$CAMERADISPLAY
290
     0
  9
$LENSLENGTH
 40
50.0
  9
$CAMERAHEIGHT
 40
0.0
  9
$STEPSPERSEC
 40
2.0
  9
$STEPSIZE
 40
6.0
  9
$3DDWFPREC
 40
2.0
  9
$PSOLWIDTH
 40
0.25
  9
$PSOLHEIGHT
 40
4.0
  9
$LOFTANG1
 40
1.570796326794897
  9
$LOFTANG2
 40
1.570796326794897
  9
$LOFTMAG1
 40
0.0
  9
$LOFTMAG2
 40
0.0
  9
$LOFTPARAM
 70
     7
  9
$LOFTNORMALS
280
     1
  9
$LATITUDE
 40
37.795
  9
$LONGITUDE
 40
-122.394
  9
$NORTHDIRECTION
 40
0.0
  9
$TIMEZONE
 70
 -8000
  9
$LIGHTGLYPHDISPLAY
280
     1
  9
$TILEMODELIGHTSYNCH
280
     1
  9
$CMATERIAL
347
3C
  9
$SOLIDHIST
280
     1
  9
$SHOWHIST
280
     1
  9
$DWFFRAME
280
     2
  9
$DGNFRAME
280
     2
  9
$REALWORLDSCALE
290
     1
  9
$INTERFERECOLOR
 62
   256
  9
$CSHADOW
280
     0
  9
$SHADOWPLANELOCATION
 40
0.0
  0
ENDSEC
  0
SECTION
  2
CLASSES
  0
CLASS
  1
ACDBDICTIONARYWDFLT
  2
AcDbDictionaryWithDefault
  3
ObjectDBX Classes
 90
        0
 91
        4
280
     0
281
     0
  0
CLASS
  1
VISUALSTYLE
  2
AcDbVisualStyle
  3
ObjectDBX Classes
 90
     4095
 91
        4
280
     0
281
     0
  0
CLASS
  1
MATERIAL
  2
AcDbMaterial
  3
ObjectDBX Classes
 90
     1153
 91
        4
280
     0
281
     0
  0
CLASS
  1
SUN
  2
AcDbSun
  3
SCENEOE
 90
     1024
 91
        4
280
     0
281
     0
  0
ENDSEC
  0
SECTION
  2
TABLES
  0
TABLE
  2
VPORT
  5
8
330
0
100
AcDbSymbolTable
 70
     1
  0
VPORT
  5
29
330
8
100
AcDbSymbolTableRecord
100
AcDbViewportTableRecord
  2
*Active
 70
     0
 10
0.0
 20
0.0
 11
1.0
 21
1.0
 12
0.0
 22
0.0
 13
0.0
 23
0.0
 14
0.5
 24
0.5
 15
0.5
 25
0.5
 16
0.0
 26
0.0
 36
1.0
 17
105.7883363416411
 27
-148.90173550241
 37
0.0
 40
92.2965397457001
 41
1.654197128923307
 42
50.0
 43
0.0
 44
0.0
 50
0.0
 51
0.0
 71
     0
 72
   100
 73
     1
 74
     3
 75
     0
 76
     0
 77
     0
 78
     0
281
     0
 65
     1
110
0.0
120
0.0
130
0.0
111
1.0
121
0.0
131
0.0
112
0.0
122
1.0
132
0.0
 79
     0
146
0.0
 60
     3
 61
     5
292
     1
282
     1
141
0.0
142
0.0
 63
   250
361
3F
  0
ENDTAB
  0
TABLE
  2
LTYPE
  5
5
330
0
100
AcDbSymbolTable
 70
     1
  0
LTYPE
  5
14
330
5
100
AcDbSymbolTableRecord
100
AcDbLinetypeTableRecord
  2
ByBlock
 70
     0
  3

 72
    65
 73
     0
 40
0.0
  0
LTYPE
  5
15
330
5
100
AcDbSymbolTableRecord
100
AcDbLinetypeTableRecord
  2
ByLayer
 70
     0
  3

 72
    65
 73
     0
 40
0.0
  0
LTYPE
  5
16
330
5
100
AcDbSymbolTableRecord
100
AcDbLinetypeTableRecord
  2
Continuous
 70
     0
  3
Solid line
 72
    65
 73
     0
 40
0.0
  0
ENDTAB
  0
TABLE
  2
LAYER
  5
2
330
0
100
AcDbSymbolTable
 70
     2
  0
LAYER
  5
10
330
2
100
AcDbSymbolTableRecord
100
AcDbLayerTableRecord
  2
0
 70
     0
 62
     7
  6
Continuous
370
    -3
390
F
347
3E
  0
LAYER
  5
40
330
2
100
AcDbSymbolTableRecord
100
AcDbLayerTableRecord
  2
Layer 1
 70
     0
 62
     7
  6
Continuous
370
    -3
390
F
347
3E
  0
ENDTAB
  0
TABLE
  2
STYLE
  5
3
330
0
100
AcDbSymbolTable
 70
     1
  0
STYLE
  5
11
330
3
100
AcDbSymbolTableRecord
100
AcDbTextStyleTableRecord
  2
Standard
 70
     0
 40
0.0
 41
1.0
 50
0.0
 71
     0
 42
0.2
  3
txt
  4

  0
ENDTAB
  0
TABLE
  2
VIEW
  5
6
330
0
100
AcDbSymbolTable
 70
     0
  0
ENDTAB
  0
TABLE
  2
UCS
  5
7
330
0
100
AcDbSymbolTable
 70
     0
  0
ENDTAB
  0
TABLE
  2
APPID
  5
9
330
0
100
AcDbSymbolTable
 70
     1
  0
APPID
  5
12
330
9
100
AcDbSymbolTableRecord
100
AcDbRegAppTableRecord
  2
ACAD
 70
     0
  0
ENDTAB
  0
TABLE
  2
DIMSTYLE
  5
A
330
0
100
AcDbSymbolTable
 70
     1
100
AcDbDimStyleTable
  0
DIMSTYLE
105
27
330
A
100
AcDbSymbolTableRecord
100
AcDbDimStyleTableRecord
  2
Standard
 70
     0
178
     0
340
11
  0
ENDTAB
  0
TABLE
  2
BLOCK_RECORD
  5
1
330
0
100
AcDbSymbolTable
 70
    30
  0
BLOCK_RECORD
  5
1F
330
1
100
AcDbSymbolTableRecord
100
AcDbBlockTableRecord
  2
*Model_Space
340
22
 70
     0
280
     1
281
     0
  0
BLOCK_RECORD
  5
1B
330
1
100
AcDbSymbolTableRecord
100
AcDbBlockTableRecord
  2
*Paper_Space
340
1E
 70
     0
280
     1
281
     0
  0
BLOCK_RECORD
  5
23
330
1
100
AcDbSymbolTableRecord
100
AcDbBlockTableRecord
  2
*Paper_Space0
340
26
 70
     0
280
     1
281
     0
  0
BLOCK_RECORD
  5
41
330
1
100
AcDbSymbolTableRecord
100
AcDbBlockTableRecord
  2
block 2
340
0
102
{BLKREFS
331
42
102
}
 70
     0
280
     1
281
     0
  0
BLOCK_RECORD
  5
45
330
1
100
AcDbSymbolTableRecord
100
AcDbBlockTableRecord
  2
block 3
340
0
102
{BLKREFS
331
46
102
}
 70
     0
280
     1
281
     0
  0
BLOCK_RECORD
  5
49
330
1
100
AcDbSymbolTableRecord
100
AcDbBlockTableRecord
  2
block 4
340
0
102
{BLKREFS
331
4A
102
}
 70
     0
280
     1
281
     0
  0
BLOCK_RECORD
  5
4E
330
1
100
AcDbSymbolTableRecord
100
AcDbBlockTableRecord
  2
block 5
340
0
102
{BLKREFS
331
4F
102
}
 70
     0
280
     1
281
     0
  0
BLOCK_RECORD
  5
53
330
1
100
AcDbSymbolTableRecord
100
AcDbBlockTableRecord
  2
block 6
340
0
102
{BLKREFS
331
54
102
}
 70
     0
280
     1
281
     0
  0
BLOCK_RECORD
  5
58
330
1
100
AcDbSymbolTableRecord
100
AcDbBlockTableRecord
  2
block 7
340
0
102
{BLKREFS
331
59
102
}
 70
     0
280
     1
281
     0
  0
BLOCK_RECORD
  5
5D
330
1
100
AcDbSymbolTableRecord
100
AcDbBlockTableRecord
  2
block 8
340
0
102
{BLKREFS
331
5E
102
}
 70
     0
280
     1
281
     0
  0
BLOCK_RECORD
  5
62
330
1
100
AcDbSymbolTableRecord
100
AcDbBlockTableRecord
  2
block 9
340
0
102
{BLKREFS
331
63
102
}
 70
     0
280
     1
281
     0
  0
BLOCK_RECORD
  5
6D
330
1
100
AcDbSymbolTableRecord
100
AcDbBlockTableRecord
  2
block 10
340
0
102
{BLKREFS
331
6E
102
}
 70
     0
280
     1
281
     0
  0
BLOCK_RECORD
  5
78
330
1
100
AcDbSymbolTableRecord
100
AcDbBlockTableRecord
  2
block 11
340
0
102
{BLKREFS
331
79
102
}
 70
     0
280
     1
281
     0
  0
BLOCK_RECORD
  5
83
330
1
100
AcDbSymbolTableRecord
100
AcDbBlockTableRecord
  2
block 12
340
0
102
{BLKREFS
331
84
102
}
 70
     0
280
     1
281
     0
  0
BLOCK_RECORD
  5
8E
330
1
100
AcDbSymbolTableRecord
100
AcDbBlockTableRecord
  2
block 13
340
0
102
{BLKREFS
331
8F
102
}
 70
     0
280
     1
281
     0
  0
BLOCK_RECORD
  5
99
330
1
100
AcDbSymbolTableRecord
100
AcDbBlockTableRecord
  2
block 14
340
0
102
{BLKREFS
331
9A
102
}
 70
     0
280
     1
281
     0
  0
BLOCK_RECORD
  5
A4
330
1
100
AcDbSymbolTableRecord
100
AcDbBlockTableRecord
  2
block 15
340
0
102
{BLKREFS
331
A5
102
}
 70
     0
280
     1
281
     0
  0
BLOCK_RECORD
  5
AF
330
1
100
AcDbSymbolTableRecord
100
AcDbBlockTableRecord
  2
block 16
340
0
102
{BLKREFS
331
B0
102
}
 70
     0
280
     1
281
     0
  0
BLOCK_RECORD
  5
BA
330
1
100
AcDbSymbolTableRecord
100
AcDbBlockTableRecord
  2
block 17
340
0
102
{BLKREFS
331
BB
102
}
 70
     0
280
     1
281
     0
  0
BLOCK_RECORD
  5
C5
330
1
100
AcDbSymbolTableRecord
100
AcDbBlockTableRecord
  2
block 18
340
0
102
{BLKREFS
331
C6
102
}
 70
     0
280
     1
281
     0
  0
BLOCK_RECORD
  5
D0
330
1
100
AcDbSymbolTableRecord
100
AcDbBlockTableRecord
  2
block 19
340
0
102
{BLKREFS
331
D1
102
}
 70
     0
280
     1
281
     0
  0
BLOCK_RECORD
  5
DB
330
1
100
AcDbSymbolTableRecord
100
AcDbBlockTableRecord
  2
block 20
340
0
102
{BLKREFS
331
DC
102
}
 70
     0
280
     1
281
     0
  0
BLOCK_RECORD
  5
E6
330
1
100
AcDbSymbolTableRecord
100
AcDbBlockTableRecord
  2
block 21
340
0
102
{BLKREFS
331
E7
102
}
 70
     0
280
     1
281
     0
  0
BLOCK_RECORD
  5
F1
330
1
100
AcDbSymbolTableRecord
100
AcDbBlockTableRecord
  2
block 22
340
0
102
{BLKREFS
331
F2
102
}
 70
     0
280
     1
281
     0
  0
BLOCK_RECORD
  5
FC
330
1
100
AcDbSymbolTableRecord
100
AcDbBlockTableRecord
  2
block 23
340
0
102
{BLKREFS
331
FD
102
}
 70
     0
280
     1
281
     0
  0
BLOCK_RECORD
  5
107
330
1
100
AcDbSymbolTableRecord
100
AcDbBlockTableRecord
  2
block 24
340
0
102
{BLKREFS
331
108
102
}
 70
     0
280
     1
281
     0
  0
BLOCK_RECORD
  5
112
330
1
100
AcDbSymbolTableRecord
100
AcDbBlockTableRecord
  2
block 25
340
0
102
{BLKREFS
331
113
102
}
 70
     0
280
     1
281
     0
  0
BLOCK_RECORD
  5
11D
330
1
100
AcDbSymbolTableRecord
100
AcDbBlockTableRecord
  2
block 26
340
0
102
{BLKREFS
331
11E
102
}
 70
     0
280
     1
281
     0
  0
BLOCK_RECORD
  5
128
330
1
100
AcDbSymbolTableRecord
100
AcDbBlockTableRecord
  2
block 27
340
0
102
{BLKREFS
331
129
102
}
 70
     0
280
     1
281
     0
  0
BLOCK_RECORD
  5
133
330
1
100
AcDbSymbolTableRecord
100
AcDbBlockTableRecord
  2
block 28
340
0
102
{BLKREFS
331
134
102
}
 70
     0
280
     1
281
     0
  0
BLOCK_RECORD
  5
13E
330
1
100
AcDbSymbolTableRecord
100
AcDbBlockTableRecord
  2
block 29
340
0
102
{BLKREFS
331
13F
102
}
 70
     0
280
     1
281
     0
  0
BLOCK_RECORD
  5
149
330
1
100
AcDbSymbolTableRecord
100
AcDbBlockTableRecord
  2
block 30
340
0
102
{BLKREFS
331
14A
102
}
 70
     0
280
     1
281
     0
  0
ENDTAB
  0
ENDSEC
  0
SECTION
  2
BLOCKS
  0
BLOCK
  5
20
330
1F
100
AcDbEntity
  8
0
100
AcDbBlockBegin
  2
*Model_Space
 70
     0
 10
0.0
 20
0.0
 30
0.0
  3
*Model_Space
  1

  0
ENDBLK
  5
21
330
1F
100
AcDbEntity
  8
0
100
AcDbBlockEnd
  0
BLOCK
  5
1C
330
1B
100
AcDbEntity
 67
     1
  8
0
100
AcDbBlockBegin
  2
*Paper_Space
 70
     0
 10
0.0
 20
0.0
 30
0.0
  3
*Paper_Space
  1

  0
ENDBLK
  5
1D
330
1B
100
AcDbEntity
 67
     1
  8
0
100
AcDbBlockEnd
  0
BLOCK
  5
24
330
23
100
AcDbEntity
  8
0
100
AcDbBlockBegin
  2
*Paper_Space0
 70
     0
 10
0.0
 20
0.0
 30
0.0
  3
*Paper_Space0
  1

  0
ENDBLK
  5
25
330
23
100
AcDbEntity
  8
0
100
AcDbBlockEnd
  0
BLOCK
  5
43
330
41
100
AcDbEntity
  8
0
100
AcDbBlockBegin
  2
block 2
 70
     0
 10
0.0
 20
0.0
 30
0.0
  3
block 2
  1

  0
INSERT
  5
46
330
41
100
AcDbEntity
  8
Layer 1
100
AcDbBlockReference
  2
block 3
 10
0.0
 20
0.0
 30
0.0
  0
SPLINE
  5
154
330
41
100
AcDbEntity
  8
Layer 1
 62
    22
420
 14951456
370
     9
100
AcDbSpline
210
0.0
220
0.0
230
1.0
 70
    11
 71
     3
 72
   176
 73
   172
 74
     0
 42
0.0000000001
 43
0.0000000001
 12
1.0
 22
0.0
 32
0.0
 13
1.0
 23
0.0
 33
0.0
 40
0.0
 40
0.0
 40
0.0
 40
0.0
 40
1.0
 40
1.0
 40
1.0
 40
2.0
 40
2.0
 40
2.0
 40
3.0
 40
3.0
 40
3.0
 40
4.0
 40
4.0
 40
4.0
 40
5.0
 40
5.0
 40
5.0
 40
6.0
 40
6.0
 40
6.0
 40
7.0
 40
7.0
 40
7.0
 40
8.0
 40
8.0
 40
8.0
 40
9.0
 40
9.0
 40
9.0
 40
10.0
 40
10.0
 40
10.0
 40
11.0
 40
11.0
 40
11.0
 40
12.0
 40
12.0
 40
12.0
 40
13.0
 40
13.0
 40
13.0
 40
14.0
 40
14.0
 40
14.0
 40
15.0
 40
15.0
 40
15.0
 40
16.0
 40
16.0
 40
16.0
 40
17.0
 40
17.0
 40
17.0
 40
18.0
 40
18.0
 40
18.0
 40
19.0
 40
19.0
 40
19.0
 40
20.0
 40
20.0
 40
20.0
 40
21.0
 40
21.0
 40
21.0
 40
22.0
 40
22.0
 40
22.0
 40
23.0
 40
23.0
 40
23.0
 40
24.0
 40
24.0
 40
24.0
 40
25.0
 40
25.0
 40
25.0
 40
26.0
 40
26.0
 40
26.0
 40
27.0
 40
27.0
 40
27.0
 40
28.0
 40
28.0
 40
28.0
 40
29.0
 40
29.0
 40
29.0
 40
30.0
 40
30.0
 40
30.0
 40
31.0
 40
31.0
 40
31.0
 40
32.0
 40
32.0
 40
32.0
 40
33.0
 40
33.0
 40
33.0
 40
34.0
 40
34.0
 40
34.0
 40
35.0
 40
35.0
 40
35.0
 40
36.0
 40
36.0
 40
36.0
 40
37.0
 40
37.0
 40
37.0
 40
38.0
 40
38.0
 40
38.0
 40
39.0
 40
39.0
 40
39.0
 40
40.0
 40
40.0
 40
40.0
 40
41.0
 40
41.0
 40
41.0
 40
42.0
 40
42.0
 40
42.0
 40
43.0
 40
43.0
 40
43.0
 40
44.0
 40
44.0
 40
44.0
 40
45.0
 40
45.0
 40
45.0
 40
46.0
 40
46.0
 40
46.0
 40
47.0
 40
47.0
 40
47.0
 40
48.0
 40
48.0
 40
48.0
 40
49.0
 40
49.0
 40
49.0
 40
50.0
 40
50.0
 40
50.0
 40
51.0
 40
51.0
 40
51.0
 40
52.0
 40
52.0
 40
52.0
 40
53.0
 40
53.0
 40
53.0
 40
54.0
 40
54.0
 40
54.0
 40
55.0
 40
55.0
 40
55.0
 40
56.0
 40
56.0
 40
56.0
 40
57.0
 40
57.0
 40
57.0
 40
57.0
 10
49.37651420458224
 20
-109.8039534851922
 30
0.0
 10
49.37651420458224
 20
-109.8039534851922
 30
0.0
 10
66.37772129770336
 20
-109.8039534851922
 30
0.0
 10
66.37772129770336
 20
-109.8039534851922
 30
0.0
 10
66.37772129770336
 20
-109.8039534851922
 30
0.0
 10
68.37786299201397
 20
-109.8039534851922
 30
0.0
 10
68.37786299201397
 20
-109.8039534851922
 30
0.0
 10
68.37786299201397
 20
-109.8039534851922
 30
0.0
 10
86.37913824080955
 20
-109.8039534851922
 30
0.0
 10
86.37913824080955
 20
-109.8039534851922
 30
0.0
 10
86.6553003246842
 20
-109.8039534851922
 30
0.0
 10
86.87917770160848
 20
-109.5800868741913
 30
0.0
 10
86.87917770160848
 20
-109.303919407355
 30
0.0
 10
86.87917770160848
 20
-109.303919407355
 30
0.0
 10
86.87917770160848
 20
-105.5536530576523
 30
0.0
 10
86.87917770160848
 20
-105.5536530576523
 30
0.0
 10
86.87917770160848
 20
-105.2774963567394
 30
0.0
 10
87.10304969557107
 20
-105.0536189798151
 30
0.0
 10
87.37921177944571
 20
-105.0536189798151
 30
0.0
 10
87.37921177944571
 20
-105.0536189798151
 30
0.0
 10
105.380492411203
 20
-105.0536189798151
 30
0.0
 10
105.380492411203
 20
-105.0536189798151
 30
0.0
 10
105.6566491121159
 20
-105.0536189798151
 30
0.0
 10
105.8805264890402
 20
-104.8297416028908
 30
0.0
 10
105.8805264890402
 20
-104.5535849019779
 30
0.0
 10
105.8805264890402
 20
-104.5535849019779
 30
0.0
 10
105.8805264890402
 20
-103.3034997073848
 30
0.0
 10
105.8805264890402
 20
-103.3034997073848
 30
0.0
 10
105.8805264890402
 20
-103.0273322405484
 30
0.0
 10
106.1043931000411
 20
-102.8034656295476
 30
0.0
 10
106.3805605668774
 20
-102.8034656295476
 30
0.0
 10
106.3805605668774
 20
-102.8034656295476
 30
0.0
 10
123.3817622770369
 20
-102.8034656295476
 30
0.0
 10
123.3817622770369
 20
-102.8034656295476
 30
0.0
 10
123.6579297438732
 20
-102.8034656295476
 30
0.0
 10
123.8817963548741
 20
-103.0273322405484
 30
0.0
 10
123.8817963548741
 20
-103.3034997073848
 30
0.0
 10
123.8817963548741
 20
-103.3034997073848
 30
0.0
 10
123.8817963548741
 20
-104.5535849019779
 30
0.0
 10
123.8817963548741
 20
-104.5535849019779
 30
0.0
 10
123.8817963548741
 20
-104.8297416028908
 30
0.0
 10
124.1056737317984
 20
-105.0536189798151
 30
0.0
 10
124.3818304327113
 20
-105.0536189798151
 30
0.0
 10
124.3818304327113
 20
-105.0536189798151
 30
0.0
 10
142.3831110644686
 20
-105.0536189798151
 30
0.0
 10
142.3831110644686
 20
-105.0536189798151
 30
0.0
 10
142.6592785313049
 20
-105.0536189798151
 30
0.0
 10
142.8831451423058
 20
-105.2774963567394
 30
0.0
 10
142.8831451423058
 20
-105.5536530576523
 30
0.0
 10
142.8831451423058
 20
-105.5536530576523
 30
0.0
 10
142.8831451423058
 20
-107.0537660570874
 30
0.0
 10
142.8831451423058
 20
-107.0537660570874
 30
0.0
 10
142.8831451423058
 20
-107.3299227580004
 30
0.0
 10
143.1070225192301
 20
-107.5538001349246
 30
0.0
 10
143.3831792201431
 20
-107.5538001349246
 30
0.0
 10
143.3831792201431
 20
-107.5538001349246
 30
0.0
 10
161.3844598519003
 20
-107.5538001349246
 30
0.0
 10
161.3844598519003
 20
-107.5538001349246
 30
0.0
 10
161.6606165528133
 20
-107.5538001349246
 30
0.0
 10
161.8844939297376
 20
-107.7776667459255
 30
0.0
 10
161.8844939297376
 20
-108.0538342127619
 30
0.0
 10
161.8844939297376
 20
-108.0538342127619
 30
0.0
 10
161.8844939297376
 20
-109.2884272435947
 30
0.0
 10
161.8844939297376
 20
-109.2884272435947
 30
0.0
 10
161.8844939297376
 20
-109.2884272435947
 30
0.0
 10
161.8837941447171
 20
-125.5491918065868
 30
0.0
 10
161.8837941447171
 20
-125.5491918065868
 30
0.0
 10
161.8837941447171
 20
-125.5491918065868
 30
0.0
 10
161.8839986972616
 20
-157.842009656044
 30
0.0
 10
161.8839986972616
 20
-157.842009656044
 30
0.0
 10
161.9660565653509
 20
-158.2253626561652
 30
0.0
 10
162.1688542642748
 20
-158.5723053033766
 30
0.0
 10
162.4626240158561
 20
-158.8318932481902
 30
0.0
 10
162.4626240158561
 20
-158.8318932481902
 30
0.0
 10
181.5395711173423
 20
-169.8692686319868
 30
0.0
 10
181.5395711173423
 20
-169.8692686319868
 30
0.0
 10
182.0669937042872
 20
-170.2656483994116
 30
0.0
 10
182.2290854468682
 20
-170.9860393972241
 30
0.0
 10
181.9222566302132
 20
-171.5701230389781
 30
0.0
 10
181.9222566302132
 20
-171.5701230389781
 30
0.0
 10
168.6849724606167
 20
-194.6099742430706
 30
0.0
 10
168.6849724606167
 20
-194.6099742430706
 30
0.0
 10
168.6802354543244
 20
-194.6171228162024
 30
0.0
 10
168.6753800228749
 20
-194.624206793794
 30
0.0
 10
168.6704276981149
 20
-194.6312046439984
 30
0.0
 10
168.3924192583786
 20
-195.02452688918
 30
0.0
 10
167.8482125968664
 20
-195.1179966360642
 30
0.0
 10
167.4549011176082
 20
-194.8399989622513
 30
0.0
 10
167.4549011176082
 20
-194.8399989622513
 30
0.0
 10
152.7052307959104
 20
-186.350465476418
 30
0.0
 10
152.7052307959104
 20
-186.350465476418
 30
0.0
 10
152.6139895951683
 20
-186.3187490661069
 30
0.0
 10
152.5202937638929
 20
-186.2946333977101
 30
0.0
 10
152.4250799374193
 20
-186.2783768533891
 30
0.0
 10
152.4250799374193
 20
-186.2783768533891
 30
0.0
 10
115.631212538713
 20
-180.8089970906234
 30
0.0
 10
115.631212538713
 20
-180.8089970906234
 30
0.0
 10
115.5019676283992
 20
-180.7958734300093
 30
0.0
 10
115.3798282275237
 20
-180.7435295104803
 30
0.0
 10
115.2811908374116
 20
-180.6589847140876
 30
0.0
 10
115.2811908374116
 20
-180.6589847140876
 30
0.0
 10
104.7304459568299
 20
-166.199725175873
 30
0.0
 10
104.7339987115491
 20
-166.2044083525482
 30
0.0
 10
104.6402167528865
 20
-166.1106263938857
 30
0.0
 10
104.5130388998639
 20
-166.0579487307315
 30
0.0
 10
104.3804134896051
 20
-166.0579487307315
 30
0.0
 10
104.3804134896051
 20
-166.0579487307315
 30
0.0
 10
68.37786299201397
 20
-166.0579487307315
 30
0.0
 10
68.37786299201397
 20
-166.0579487307315
 30
0.0
 10
68.37786299201397
 20
-166.0579487307315
 30
0.0
 10
66.37772129770336
 20
-166.0579487307315
 30
0.0
 10
66.37772129770336
 20
-166.0579487307315
 30
0.0
 10
66.37772129770336
 20
-166.0579487307315
 30
0.0
 10
49.37651420458224
 20
-166.0579487307315
 30
0.0
 10
49.37651420458224
 20
-166.0579487307315
 30
0.0
 10
49.37651420458224
 20
-166.0579487307315
 30
0.0
 10
49.41610050489243
 20
-166.0563230762995
 30
0.0
 10
49.41610050489243
 20
-166.0563230762995
 30
0.0
 10
49.41610050489243
 20
-166.0563230762995
 30
0.0
 10
49.40516232672677
 20
-166.0573027753281
 30
0.0
 10
49.40516232672677
 20
-166.0573027753281
 30
0.0
 10
49.12899485989043
 20
-166.0573027753281
 30
0.0
 10
48.90511210000445
 20
-165.8334361643272
 30
0.0
 10
48.90509595111936
 20
-165.5572686974908
 30
0.0
 10
48.90509595111936
 20
-165.5572686974908
 30
0.0
 10
48.91433849635089
 20
-164.7432356980199
 30
0.0
 10
48.91433849635089
 20
-164.7432356980199
 30
0.0
 10
48.91433849635089
 20
-164.7432356980199
 30
0.0
 10
48.91433311338919
 20
-164.7432356980199
 30
0.0
 10
48.91433311338919
 20
-164.7432356980199
 30
0.0
 10
48.91433311338919
 20
-164.7432356980199
 30
0.0
 10
48.89751674105181
 20
-142.6650398349413
 30
0.0
 10
48.89751674105181
 20
-142.6650398349413
 30
0.0
 10
48.89751674105181
 20
-142.6629189480332
 30
0.0
 10
48.90498829188545
 20
-143.0390480135588
 30
0.0
 10
48.89506211051857
 20
-142.6594630866246
 30
0.0
 10
48.88513592915169
 20
-142.4064638869265
 30
0.0
 10
48.6196913220132
 20
-142.2257578628018
 30
0.0
 10
48.41830395905356
 20
-142.2237984647446
 30
0.0
 10
48.21691659609392
 20
-142.2218390666873
 30
0.0
 10
48.41509571388292
 20
-142.2218175348405
 30
0.0
 10
48.41320091136603
 20
-142.2218175348405
 30
0.0
 10
48.41320091136603
 20
-142.2218175348405
 30
0.0
 10
30.27672988810203
 20
-142.2248535252369
 30
0.0
 10
30.03442125033166
 20
-142.224003017289
 30
0.0
 10
29.7921018466379
 20
-142.2231525093411
 30
0.0
 10
29.50000081318228
 20
-142.0336184280354
 30
0.0
 10
29.50000081318228
 20
-141.7395364646758
 30
0.0
 10
29.50000081318228
 20
-141.550497615846
 30
0.0
 10
29.54031919628309
 20
-127.1174961647831
 30
0.0
 10
29.54818908628221
 20
-124.2674440312996
 30
0.0
 10
29.54903959423013
 20
-123.9591833468335
 30
0.0
 10
29.77616828001862
 20
-123.7816425041858
 30
0.0
 10
30.02520561990861
 20
-123.7824284165934
 30
0.0
 10
30.24096549059578
 20
-123.7831066697671
 30
0.0
 10
45.39098820544977
 20
-123.7767440090427
 30
0.0
 10
48.50376385893454
 20
-123.7815240790285
 30
0.0
 10
48.78390933446401
 20
-123.7779497924626
 30
0.0
 10
48.90509595111936
 20
-123.6513640652264
 30
0.0
 10
48.90509595111936
 20
-123.4230941915584
 30
0.0
 10
48.90509595111936
 20
-123.1948243178905
 30
0.0
 10
48.90509595111936
 20
-110.3109208176935
 30
0.0
 10
48.90509595111936
 20
-110.3109208176935
 30
0.0
 10
48.90509595111936
 20
-110.0305761725813
 30
0.0
 10
49.13236459391194
 20
-109.8033290616355
 30
0.0
 10
49.41268770717736
 20
-109.8033290616355
 30
0.0
 10
49.41268770717736
 20
-109.8033290616355
 30
0.0
 10
49.4103837995716
 20
-109.8030168498571
 30
0.0
 10
49.4103837995716
 20
-109.8030168498571
 30
0.0
 10
49.4103837995716
 20
-109.8030168498571
 30
0.0
 10
49.37651420458224
 20
-109.8039534851922
 30
0.0
 10
49.37651420458224
 20
-109.8039534851922
 30
0.0
  0
POLYLINE
  5
155
330
41
100
AcDbEntity
  8
Layer 1
 62
    22
420
 14951456
370
     9
100
AcDb2dPolyline
 66
     1
 10
0.0
 20
0.0
 30
0.0
  0
VERTEX
  5
156
330
155
100
AcDbEntity
  8
Layer 1
 62
    22
420
 14951456
370
     9
100
AcDbVertex
100
AcDb2dVertex
 10
45.88220036957126
 20
-139.9238227093755
 30
0.0
  0
VERTEX
  5
157
330
155
100
AcDbEntity
  8
Layer 1
 62
    22
420
 14951456
370
     9
100
AcDbVertex
100
AcDb2dVertex
 10
45.88220036957126
 20
-125.9239422786356
 30
0.0
  0
VERTEX
  5
158
330
155
100
AcDbEntity
  8
Layer 1
 62
    22
420
 14951456
370
     9
100
AcDbVertex
100
AcDb2dVertex
 10
31.88231993883639
 20
-125.9239422786356
 30
0.0
  0
VERTEX
  5
159
330
155
100
AcDbEntity
  8
Layer 1
 62
    22
420
 14951456
370
     9
100
AcDbVertex
100
AcDb2dVertex
 10
31.88231993883639
 20
-139.9238227093755
 30
0.0
  0
VERTEX
  5
15A
330
155
100
AcDbEntity
  8
Layer 1
 62
    22
420
 14951456
370
     9
100
AcDbVertex
100
AcDb2dVertex
 10
45.88220036957126
 20
-139.9238227093755
 30
0.0
  0
SEQEND
  5
15B
330
155
100
AcDbEntity
  8
Layer 1
 62
    22
420
 14951456
370
     9
  0
ENDBLK
  5
44
330
41
100
AcDbEntity
  8
0
100
AcDbBlockEnd
  0
BLOCK
  5
47
330
45
100
AcDbEntity
  8
0
100
AcDbBlockBegin
  2
block 3
 70
     0
 10
0.0
 20
0.0
 30
0.0
  3
block 3
  1

  0
INSERT
  5
4A
330
45
100
AcDbEntity
  8
Layer 1
100
AcDbBlockReference
  2
block 4
 10
0.0
 20
0.0
 30
0.0
  0
INSERT
  5
4F
330
45
100
AcDbEntity
  8
Layer 1
100
AcDbBlockReference
  2
block 5
 10
0.0
 20
0.0
 30
0.0
  0
INSERT
  5
54
330
45
100
AcDbEntity
  8
Layer 1
100
AcDbBlockReference
  2
block 6
 10
0.0
 20
0.0
 30
0.0
  0
INSERT
  5
59
330
45
100
AcDbEntity
  8
Layer 1
100
AcDbBlockReference
  2
block 7
 10
0.0
 20
0.0
 30
0.0
  0
INSERT
  5
5E
330
45
100
AcDbEntity
  8
Layer 1
100
AcDbBlockReference
  2
block 8
 10
0.0
 20
0.0
 30
0.0
  0
INSERT
  5
63
330
45
100
AcDbEntity
  8
Layer 1
100
AcDbBlockReference
  2
block 9
 10
0.0
 20
0.0
 30
0.0
  0
INSERT
  5
6E
330
45
100
AcDbEntity
  8
Layer 1
100
AcDbBlockReference
  2
block 10
 10
0.0
 20
0.0
 30
0.0
  0
INSERT
  5
79
330
45
100
AcDbEntity
  8
Layer 1
100
AcDbBlockReference
  2
block 11
 10
0.0
 20
0.0
 30
0.0
  0
INSERT
  5
84
330
45
100
AcDbEntity
  8
Layer 1
100
AcDbBlockReference
  2
block 12
 10
0.0
 20
0.0
 30
0.0
  0
INSERT
  5
8F
330
45
100
AcDbEntity
  8
Layer 1
100
AcDbBlockReference
  2
block 13
 10
0.0
 20
0.0
 30
0.0
  0
INSERT
  5
9A
330
45
100
AcDbEntity
  8
Layer 1
100
AcDbBlockReference
  2
block 14
 10
0.0
 20
0.0
 30
0.0
  0
INSERT
  5
A5
330
45
100
AcDbEntity
  8
Layer 1
100
AcDbBlockReference
  2
block 15
 10
0.0
 20
0.0
 30
0.0
  0
INSERT
  5
B0
330
45
100
AcDbEntity
  8
Layer 1
100
AcDbBlockReference
  2
block 16
 10
0.0
 20
0.0
 30
0.0
  0
INSERT
  5
BB
330
45
100
AcDbEntity
  8
Layer 1
100
AcDbBlockReference
  2
block 17
 10
0.0
 20
0.0
 30
0.0
  0
INSERT
  5
C6
330
45
100
AcDbEntity
  8
Layer 1
100
AcDbBlockReference
  2
block 18
 10
0.0
 20
0.0
 30
0.0
  0
INSERT
  5
D1
330
45
100
AcDbEntity
  8
Layer 1
100
AcDbBlockReference
  2
block 19
 10
0.0
 20
0.0
 30
0.0
  0
INSERT
  5
DC
330
45
100
AcDbEntity
  8
Layer 1
100
AcDbBlockReference
  2
block 20
 10
0.0
 20
0.0
 30
0.0
  0
INSERT
  5
E7
330
45
100
AcDbEntity
  8
Layer 1
100
AcDbBlockReference
  2
block 21
 10
0.0
 20
0.0
 30
0.0
  0
INSERT
  5
F2
330
45
100
AcDbEntity
  8
Layer 1
100
AcDbBlockReference
  2
block 22
 10
0.0
 20
0.0
 30
0.0
  0
INSERT
  5
FD
330
45
100
AcDbEntity
  8
Layer 1
100
AcDbBlockReference
  2
block 23
 10
0.0
 20
0.0
 30
0.0
  0
INSERT
  5
108
330
45
100
AcDbEntity
  8
Layer 1
100
AcDbBlockReference
  2
block 24
 10
0.0
 20
0.0
 30
0.0
  0
INSERT
  5
113
330
45
100
AcDbEntity
  8
Layer 1
100
AcDbBlockReference
  2
block 25
 10
0.0
 20
0.0
 30
0.0
  0
INSERT
  5
11E
330
45
100
AcDbEntity
  8
Layer 1
100
AcDbBlockReference
  2
block 26
 10
0.0
 20
0.0
 30
0.0
  0
INSERT
  5
129
330
45
100
AcDbEntity
  8
Layer 1
100
AcDbBlockReference
  2
block 27
 10
0.0
 20
0.0
 30
0.0
  0
INSERT
  5
134
330
45
100
AcDbEntity
  8
Layer 1
100
AcDbBlockReference
  2
block 28
 10
0.0
 20
0.0
 30
0.0
  0
INSERT
  5
13F
330
45
100
AcDbEntity
  8
Layer 1
100
AcDbBlockReference
  2
block 29
 10
0.0
 20
0.0
 30
0.0
  0
INSERT
  5
14A
330
45
100
AcDbEntity
  8
Layer 1
100
AcDbBlockReference
  2
block 30
 10
0.0
 20
0.0
 30
0.0
  0
ENDBLK
  5
48
330
45
100
AcDbEntity
  8
0
100
AcDbBlockEnd
  0
BLOCK
  5
4B
330
49
100
AcDbEntity
  8
0
100
AcDbBlockBegin
  2
block 4
 70
     0
 10
0.0
 20
0.0
 30
0.0
  3
block 4
  1

  0
SPLINE
  5
4D
330
49
100
AcDbEntity
  8
Layer 1
 62
    22
420
 14951456
370
     9
100
AcDbSpline
210
0.0
220
0.0
230
1.0
 70
    11
 71
     3
 72
    20
 73
    16
 74
     0
 42
0.0000000001
 43
0.0000000001
 12
1.0
 22
0.0
 32
0.0
 13
1.0
 23
0.0
 33
0.0
 40
0.0
 40
0.0
 40
0.0
 40
0.0
 40
1.0
 40
1.0
 40
1.0
 40
2.0
 40
2.0
 40
2.0
 40
3.0
 40
3.0
 40
3.0
 40
4.0
 40
4.0
 40
4.0
 40
5.0
 40
5.0
 40
5.0
 40
5.0
 10
142.3023958321581
 20
-124.8049472100997
 30
0.0
 10
142.3023958321581
 20
-124.1973908948239
 30
0.0
 10
142.7949175390687
 20
-123.7048691879184
 30
0.0
 10
143.4024738543483
 20
-123.7048691879184
 30
0.0
 10
144.0100301696279
 20
-123.7048691879184
 30
0.0
 10
144.5025518765308
 20
-124.1973908948239
 30
0.0
 10
144.5025518765308
 20
-124.8049472100997
 30
0.0
 10
144.5025518765308
 20
-125.4125035253819
 30
0.0
 10
144.0100301696279
 20
-125.9050252322912
 30
0.0
 10
143.4024738543483
 20
-125.9050252322912
 30
0.0
 10
142.7949175390687
 20
-125.9050252322912
 30
0.0
 10
142.3023958321581
 20
-125.4125035253819
 30
0.0
 10
142.3023958321581
 20
-124.8049472100997
 30
0.0
 10
142.3023958321581
 20
-124.8049472100997
 30
0.0
 10
142.3023958321581
 20
-124.8049472100997
 30
0.0
 10
142.3023958321581
 20
-124.8049472100997
 30
0.0
  0
ENDBLK
  5
4C
330
49
100
AcDbEntity
  8
0
100
AcDbBlockEnd
  0
BLOCK
  5
50
330
4E
100
AcDbEntity
  8
0
100
AcDbBlockBegin
  2
block 5
 70
     0
 10
0.0
 20
0.0
 30
0.0
  3
block 5
  1

  0
SPLINE
  5
52
330
4E
100
AcDbEntity
  8
Layer 1
 62
    22
420
 14951456
370
     9
100
AcDbSpline
210
0.0
220
0.0
230
1.0
 70
    11
 71
     3
 72
    20
 73
    16
 74
     0
 42
0.0000000001
 43
0.0000000001
 12
1.0
 22
0.0
 32
0.0
 13
1.0
 23
0.0
 33
0.0
 40
0.0
 40
0.0
 40
0.0
 40
0.0
 40
1.0
 40
1.0
 40
1.0
 40
2.0
 40
2.0
 40
2.0
 40
3.0
 40
3.0
 40
3.0
 40
4.0
 40
4.0
 40
4.0
 40
5.0
 40
5.0
 40
5.0
 40
5.0
 10
66.28057342489456
 20
-128.4273459290762
 30
0.0
 10
66.28057342489456
 20
-127.8197896138005
 30
0.0
 10
66.77309513180003
 20
-127.3272679068912
 30
0.0
 10
67.38065144707836
 20
-127.3272679068912
 30
0.0
 10
67.98820776235799
 20
-127.3272679068912
 30
0.0
 10
68.48072946926861
 20
-127.8197896138005
 30
0.0
 10
68.48072946926861
 20
-128.4273459290762
 30
0.0
 10
68.48072946926861
 20
-129.0349022443507
 30
0.0
 10
67.98820776235799
 20
-129.5274239512601
 30
0.0
 10
67.38065144707836
 20
-129.5274239512601
 30
0.0
 10
66.77309513180003
 20
-129.5274239512601
 30
0.0
 10
66.28057342489456
 20
-129.0349022443507
 30
0.0
 10
66.28057342489456
 20
-128.4273459290762
 30
0.0
 10
66.28057342489456
 20
-128.4273459290762
 30
0.0
 10
66.28057342489456
 20
-128.4273459290762
 30
0.0
 10
66.28057342489456
 20
-128.4273459290762
 30
0.0
  0
ENDBLK
  5
51
330
4E
100
AcDbEntity
  8
0
100
AcDbBlockEnd
  0
BLOCK
  5
55
330
53
100
AcDbEntity
  8
0
100
AcDbBlockBegin
  2
block 6
 70
     0
 10
0.0
 20
0.0
 30
0.0
  3
block 6
  1

  0
SPLINE
  5
57
330
53
100
AcDbEntity
  8
Layer 1
 62
    22
420
 14951456
370
     9
100
AcDbSpline
210
0.0
220
0.0
230
1.0
 70
    11
 71
     3
 72
    20
 73
    16
 74
     0
 42
0.0000000001
 43
0.0000000001
 12
1.0
 22
0.0
 32
0.0
 13
1.0
 23
0.0
 33
0.0
 40
0.0
 40
0.0
 40
0.0
 40
0.0
 40
1.0
 40
1.0
 40
1.0
 40
2.0
 40
2.0
 40
2.0
 40
3.0
 40
3.0
 40
3.0
 40
4.0
 40
4.0
 40
4.0
 40
5.0
 40
5.0
 40
5.0
 40
5.0
 10
66.27177801586011
 20
-147.4424915503238
 30
0.0
 10
66.27177801586011
 20
-146.8349352350493
 30
0.0
 10
66.76429972277104
 20
-146.3424135281323
 30
0.0
 10
67.37185603804296
 20
-146.3424135281323
 30
0.0
 10
67.97941235332387
 20
-146.3424135281323
 30
0.0
 10
68.47193406023321
 20
-146.8349352350493
 30
0.0
 10
68.47193406023321
 20
-147.4424915503238
 30
0.0
 10
68.47193406023321
 20
-148.0500478656035
 30
0.0
 10
67.97941235332387
 20
-148.5425695725089
 30
0.0
 10
67.37185603804296
 20
-148.5425695725089
 30
0.0
 10
66.76429972277104
 20
-148.5425695725089
 30
0.0
 10
66.27177801586011
 20
-148.0500478656035
 30
0.0
 10
66.27177801586011
 20
-147.4424915503238
 30
0.0
 10
66.27177801586011
 20
-147.4424915503238
 30
0.0
 10
66.27177801586011
 20
-147.4424915503238
 30
0.0
 10
66.27177801586011
 20
-147.4424915503238
 30
0.0
  0
ENDBLK
  5
56
330
53
100
AcDbEntity
  8
0
100
AcDbBlockEnd
  0
BLOCK
  5
5A
330
58
100
AcDbEntity
  8
0
100
AcDbBlockBegin
  2
block 7
 70
     0
 10
0.0
 20
0.0
 30
0.0
  3
block 7
  1

  0
SPLINE
  5
5C
330
58
100
AcDbEntity
  8
Layer 1
 62
    22
420
 14951456
370
     9
100
AcDbSpline
210
0.0
220
0.0
230
1.0
 70
    11
 71
     3
 72
    20
 73
    16
 74
     0
 42
0.0000000001
 43
0.0000000001
 12
1.0
 22
0.0
 32
0.0
 13
1.0
 23
0.0
 33
0.0
 40
0.0
 40
0.0
 40
0.0
 40
0.0
 40
1.0
 40
1.0
 40
1.0
 40
2.0
 40
2.0
 40
2.0
 40
3.0
 40
3.0
 40
3.0
 40
4.0
 40
4.0
 40
4.0
 40
5.0
 40
5.0
 40
5.0
 40
5.0
 10
156.0440936405543
 20
-172.3067301330539
 30
0.0
 10
156.0440936405543
 20
-171.6991738177743
 30
0.0
 10
156.5366153474585
 20
-171.206652110865
 30
0.0
 10
157.1441716627355
 20
-171.206652110865
 30
0.0
 10
157.7517279780151
 20
-171.206652110865
 30
0.0
 10
158.2442496849193
 20
-171.6991738177743
 30
0.0
 10
158.2442496849193
 20
-172.3067301330539
 30
0.0
 10
158.2442496849193
 20
-172.9142864483246
 30
0.0
 10
157.7517279780151
 20
-173.4068081552377
 30
0.0
 10
157.1441716627355
 20
-173.4068081552377
 30
0.0
 10
156.5366153474585
 20
-173.4068081552377
 30
0.0
 10
156.0440936405543
 20
-172.9142864483246
 30
0.0
 10
156.0440936405543
 20
-172.3067301330539
 30
0.0
 10
156.0440936405543
 20
-172.3067301330539
 30
0.0
 10
156.0440936405543
 20
-172.3067301330539
 30
0.0
 10
156.0440936405543
 20
-172.3067301330539
 30
0.0
  0
ENDBLK
  5
5B
330
58
100
AcDbEntity
  8
0
100
AcDbBlockEnd
  0
BLOCK
  5
5F
330
5D
100
AcDbEntity
  8
0
100
AcDbBlockBegin
  2
block 8
 70
     0
 10
0.0
 20
0.0
 30
0.0
  3
block 8
  1

  0
SPLINE
  5
61
330
5D
100
AcDbEntity
  8
Layer 1
 62
    22
420
 14951456
370
     9
100
AcDbSpline
210
0.0
220
0.0
230
1.0
 70
    11
 71
     3
 72
    20
 73
    16
 74
     0
 42
0.0000000001
 43
0.0000000001
 12
1.0
 22
0.0
 32
0.0
 13
1.0
 23
0.0
 33
0.0
 40
0.0
 40
0.0
 40
0.0
 40
0.0
 40
1.0
 40
1.0
 40
1.0
 40
2.0
 40
2.0
 40
2.0
 40
3.0
 40
3.0
 40
3.0
 40
4.0
 40
4.0
 40
4.0
 40
5.0
 40
5.0
 40
5.0
 40
5.0
 10
109.5241147916969
 20
-164.5522205085919
 30
0.0
 10
109.5241147916969
 20
-163.9446641933123
 30
0.0
 10
110.0166364985999
 20
-163.4521424864029
 30
0.0
 10
110.6241928138808
 20
-163.4521424864029
 30
0.0
 10
111.2317491291604
 20
-163.4521424864029
 30
0.0
 10
111.7242708360633
 20
-163.9446641933123
 30
0.0
 10
111.7242708360633
 20
-164.5522205085919
 30
0.0
 10
111.7242708360633
 20
-165.1597768238703
 30
0.0
 10
111.2317491291604
 20
-165.6522985307719
 30
0.0
 10
110.6241928138808
 20
-165.6522985307719
 30
0.0
 10
110.0166364985999
 20
-165.6522985307719
 30
0.0
 10
109.5241147916969
 20
-165.1597768238703
 30
0.0
 10
109.5241147916969
 20
-164.5522205085919
 30
0.0
 10
109.5241147916969
 20
-164.5522205085919
 30
0.0
 10
109.5241147916969
 20
-164.5522205085919
 30
0.0
 10
109.5241147916969
 20
-164.5522205085919
 30
0.0
  0
ENDBLK
  5
60
330
5D
100
AcDbEntity
  8
0
100
AcDbBlockEnd
  0
BLOCK
  5
64
330
62
100
AcDbEntity
  8
0
100
AcDbBlockBegin
  2
block 9
 70
     0
 10
0.0
 20
0.0
 30
0.0
  3
block 9
  1

  0
POLYLINE
  5
66
330
62
100
AcDbEntity
  8
Layer 1
 62
    22
420
 14951456
370
     9
100
AcDb2dPolyline
 66
     1
 10
0.0
 20
0.0
 30
0.0
  0
VERTEX
  5
67
330
66
100
AcDbEntity
  8
Layer 1
 62
    22
420
 14951456
370
     9
100
AcDbVertex
100
AcDb2dVertex
 10
50.87161805586468
 20
-111.9198759810654
 30
0.0
  0
VERTEX
  5
68
330
66
100
AcDbEntity
  8
Layer 1
 62
    22
420
 14951456
370
     9
100
AcDbVertex
100
AcDb2dVertex
 10
50.87161805586468
 20
-125.9197564118015
 30
0.0
  0
VERTEX
  5
69
330
66
100
AcDbEntity
  8
Layer 1
 62
    22
420
 14951456
370
     9
100
AcDbVertex
100
AcDb2dVertex
 10
64.87149848659986
 20
-125.9197564118015
 30
0.0
  0
VERTEX
  5
6A
330
66
100
AcDbEntity
  8
Layer 1
 62
    22
420
 14951456
370
     9
100
AcDbVertex
100
AcDb2dVertex
 10
64.87149848659986
 20
-111.9198759810654
 30
0.0
  0
VERTEX
  5
6B
330
66
100
AcDbEntity
  8
Layer 1
 62
    22
420
 14951456
370
     9
100
AcDbVertex
100
AcDb2dVertex
 10
50.87161805586468
 20
-111.9198759810654
 30
0.0
  0
SEQEND
  5
6C
330
66
100
AcDbEntity
  8
Layer 1
 62
    22
420
 14951456
370
     9
  0
ENDBLK
  5
65
330
62
100
AcDbEntity
  8
0
100
AcDbBlockEnd
  0
BLOCK
  5
6F
330
6D
100
AcDbEntity
  8
0
100
AcDbBlockBegin
  2
block 10
 70
     0
 10
0.0
 20
0.0
 30
0.0
  3
block 10
  1

  0
POLYLINE
  5
71
330
6D
100
AcDbEntity
  8
Layer 1
 62
    22
420
 14951456
370
     9
100
AcDb2dPolyline
 66
     1
 10
0.0
 20
0.0
 30
0.0
  0
VERTEX
  5
72
330
71
100
AcDbEntity
  8
Layer 1
 62
    22
420
 14951456
370
     9
100
AcDbVertex
100
AcDb2dVertex
 10
50.87161805586468
 20
-130.9212236370085
 30
0.0
  0
VERTEX
  5
73
330
71
100
AcDbEntity
  8
Layer 1
 62
    22
420
 14951456
370
     9
100
AcDbVertex
100
AcDb2dVertex
 10
50.87161805586468
 20
-144.9211040677484
 30
0.0
  0
VERTEX
  5
74
330
71
100
AcDbEntity
  8
Layer 1
 62
    22
420
 14951456
370
     9
100
AcDbVertex
100
AcDb2dVertex
 10
64.87149848659986
 20
-144.9211040677484
 30
0.0
  0
VERTEX
  5
75
330
71
100
AcDbEntity
  8
Layer 1
 62
    22
420
 14951456
370
     9
100
AcDbVertex
100
AcDb2dVertex
 10
64.87149848659986
 20
-130.9212236370085
 30
0.0
  0
VERTEX
  5
76
330
71
100
AcDbEntity
  8
Layer 1
 62
    22
420
 14951456
370
     9
100
AcDbVertex
100
AcDb2dVertex
 10
50.87161805586468
 20
-130.9212236370085
 30
0.0
  0
SEQEND
  5
77
330
71
100
AcDbEntity
  8
Layer 1
 62
    22
420
 14951456
370
     9
  0
ENDBLK
  5
70
330
6D
100
AcDbEntity
  8
0
100
AcDbBlockEnd
  0
BLOCK
  5
7A
330
78
100
AcDbEntity
  8
0
100
AcDbBlockBegin
  2
block 11
 70
     0
 10
0.0
 20
0.0
 30
0.0
  3
block 11
  1

  0
POLYLINE
  5
7C
330
78
100
AcDbEntity
  8
Layer 1
 62
    22
420
 14951456
370
     9
100
AcDb2dPolyline
 66
     1
 10
0.0
 20
0.0
 30
0.0
  0
VERTEX
  5
7D
330
7C
100
AcDbEntity
  8
Layer 1
 62
    22
420
 14951456
370
     9
100
AcDbVertex
100
AcDb2dVertex
 10
50.87161805586468
 20
-149.9225712929554
 30
0.0
  0
VERTEX
  5
7E
330
7C
100
AcDbEntity
  8
Layer 1
 62
    22
420
 14951456
370
     9
100
AcDbVertex
100
AcDb2dVertex
 10
50.87161805586468
 20
-163.9224517236902
 30
0.0
  0
VERTEX
  5
7F
330
7C
100
AcDbEntity
  8
Layer 1
 62
    22
420
 14951456
370
     9
100
AcDbVertex
100
AcDb2dVertex
 10
64.87149848659986
 20
-163.9224517236902
 30
0.0
  0
VERTEX
  5
80
330
7C
100
AcDbEntity
  8
Layer 1
 62
    22
420
 14951456
370
     9
100
AcDbVertex
100
AcDb2dVertex
 10
64.87149848659986
 20
-149.9225712929554
 30
0.0
  0
VERTEX
  5
81
330
7C
100
AcDbEntity
  8
Layer 1
 62
    22
420
 14951456
370
     9
100
AcDbVertex
100
AcDb2dVertex
 10
50.87161805586468
 20
-149.9225712929554
 30
0.0
  0
SEQEND
  5
82
330
7C
100
AcDbEntity
  8
Layer 1
 62
    22
420
 14951456
370
     9
  0
ENDBLK
  5
7B
330
78
100
AcDbEntity
  8
0
100
AcDbBlockEnd
  0
BLOCK
  5
85
330
83
100
AcDbEntity
  8
0
100
AcDbBlockBegin
  2
block 12
 70
     0
 10
0.0
 20
0.0
 30
0.0
  3
block 12
  1

  0
POLYLINE
  5
87
330
83
100
AcDbEntity
  8
Layer 1
 62
    22
420
 14951456
370
     9
100
AcDb2dPolyline
 66
     1
 10
0.0
 20
0.0
 30
0.0
  0
VERTEX
  5
88
330
87
100
AcDbEntity
  8
Layer 1
 62
    22
420
 14951456
370
     9
100
AcDbVertex
100
AcDb2dVertex
 10
69.94792277807774
 20
-111.9943250113054
 30
0.0
  0
VERTEX
  5
89
330
87
100
AcDbEntity
  8
Layer 1
 62
    22
420
 14951456
370
     9
100
AcDbVertex
100
AcDb2dVertex
 10
69.94792277807774
 20
-125.8453073815615
 30
0.0
  0
VERTEX
  5
8A
330
87
100
AcDbEntity
  8
Layer 1
 62
    22
420
 14951456
370
     9
100
AcDbVertex
100
AcDb2dVertex
 10
83.7989051483339
 20
-125.8453073815615
 30
0.0
  0
VERTEX
  5
8B
330
87
100
AcDbEntity
  8
Layer 1
 62
    22
420
 14951456
370
     9
100
AcDbVertex
100
AcDb2dVertex
 10
83.7989051483339
 20
-111.9943250113054
 30
0.0
  0
VERTEX
  5
8C
330
87
100
AcDbEntity
  8
Layer 1
 62
    22
420
 14951456
370
     9
100
AcDbVertex
100
AcDb2dVertex
 10
69.94792277807774
 20
-111.9943250113054
 30
0.0
  0
SEQEND
  5
8D
330
87
100
AcDbEntity
  8
Layer 1
 62
    22
420
 14951456
370
     9
  0
ENDBLK
  5
86
330
83
100
AcDbEntity
  8
0
100
AcDbBlockEnd
  0
BLOCK
  5
90
330
8E
100
AcDbEntity
  8
0
100
AcDbBlockBegin
  2
block 13
 70
     0
 10
0.0
 20
0.0
 30
0.0
  3
block 13
  1

  0
POLYLINE
  5
92
330
8E
100
AcDbEntity
  8
Layer 1
 62
    22
420
 14951456
370
     9
100
AcDb2dPolyline
 66
     1
 10
0.0
 20
0.0
 30
0.0
  0
VERTEX
  5
93
330
92
100
AcDbEntity
  8
Layer 1
 62
    22
420
 14951456
370
     9
100
AcDbVertex
100
AcDb2dVertex
 10
69.87347374783742
 20
-111.9198759810654
 30
0.0
  0
VERTEX
  5
94
330
92
100
AcDbEntity
  8
Layer 1
 62
    22
420
 14951456
370
     9
100
AcDbVertex
100
AcDb2dVertex
 10
69.87347374783742
 20
-125.9197564118015
 30
0.0
  0
VERTEX
  5
95
330
92
100
AcDbEntity
  8
Layer 1
 62
    22
420
 14951456
370
     9
100
AcDbVertex
100
AcDb2dVertex
 10
83.87335417857389
 20
-125.9197564118015
 30
0.0
  0
VERTEX
  5
96
330
92
100
AcDbEntity
  8
Layer 1
 62
    22
420
 14951456
370
     9
100
AcDbVertex
100
AcDb2dVertex
 10
83.87335417857389
 20
-111.9198759810654
 30
0.0
  0
VERTEX
  5
97
330
92
100
AcDbEntity
  8
Layer 1
 62
    22
420
 14951456
370
     9
100
AcDbVertex
100
AcDb2dVertex
 10
69.87347374783742
 20
-111.9198759810654
 30
0.0
  0
SEQEND
  5
98
330
92
100
AcDbEntity
  8
Layer 1
 62
    22
420
 14951456
370
     9
  0
ENDBLK
  5
91
330
8E
100
AcDbEntity
  8
0
100
AcDbBlockEnd
  0
BLOCK
  5
9B
330
99
100
AcDbEntity
  8
0
100
AcDbBlockBegin
  2
block 14
 70
     0
 10
0.0
 20
0.0
 30
0.0
  3
block 14
  1

  0
POLYLINE
  5
9D
330
99
100
AcDbEntity
  8
Layer 1
 62
    22
420
 14951456
370
     9
100
AcDb2dPolyline
 66
     1
 10
0.0
 20
0.0
 30
0.0
  0
VERTEX
  5
9E
330
9D
100
AcDbEntity
  8
Layer 1
 62
    22
420
 14951456
370
     9
100
AcDbVertex
100
AcDb2dVertex
 10
69.87347374783742
 20
-130.9212236370085
 30
0.0
  0
VERTEX
  5
9F
330
9D
100
AcDbEntity
  8
Layer 1
 62
    22
420
 14951456
370
     9
100
AcDbVertex
100
AcDb2dVertex
 10
69.87347374783742
 20
-144.9211040677484
 30
0.0
  0
VERTEX
  5
A0
330
9D
100
AcDbEntity
  8
Layer 1
 62
    22
420
 14951456
370
     9
100
AcDbVertex
100
AcDb2dVertex
 10
83.87335417857389
 20
-144.9211040677484
 30
0.0
  0
VERTEX
  5
A1
330
9D
100
AcDbEntity
  8
Layer 1
 62
    22
420
 14951456
370
     9
100
AcDbVertex
100
AcDb2dVertex
 10
83.87335417857389
 20
-130.9212236370085
 30
0.0
  0
VERTEX
  5
A2
330
9D
100
AcDbEntity
  8
Layer 1
 62
    22
420
 14951456
370
     9
100
AcDbVertex
100
AcDb2dVertex
 10
69.87347374783742
 20
-130.9212236370085
 30
0.0
  0
SEQEND
  5
A3
330
9D
100
AcDbEntity
  8
Layer 1
 62
    22
420
 14951456
370
     9
  0
ENDBLK
  5
9C
330
99
100
AcDbEntity
  8
0
100
AcDbBlockEnd
  0
BLOCK
  5
A6
330
A4
100
AcDbEntity
  8
0
100
AcDbBlockBegin
  2
block 15
 70
     0
 10
0.0
 20
0.0
 30
0.0
  3
block 15
  1

  0
POLYLINE
  5
A8
330
A4
100
AcDbEntity
  8
Layer 1
 62
    22
420
 14951456
370
     9
100
AcDb2dPolyline
 66
     1
 10
0.0
 20
0.0
 30
0.0
  0
VERTEX
  5
A9
330
A8
100
AcDbEntity
  8
Layer 1
 62
    22
420
 14951456
370
     9
100
AcDbVertex
100
AcDb2dVertex
 10
69.87347374783742
 20
-149.9225712929554
 30
0.0
  0
VERTEX
  5
AA
330
A8
100
AcDbEntity
  8
Layer 1
 62
    22
420
 14951456
370
     9
100
AcDbVertex
100
AcDb2dVertex
 10
69.87347374783742
 20
-163.9224517236902
 30
0.0
  0
VERTEX
  5
AB
330
A8
100
AcDbEntity
  8
Layer 1
 62
    22
420
 14951456
370
     9
100
AcDbVertex
100
AcDb2dVertex
 10
83.87335417857389
 20
-163.9224517236902
 30
0.0
  0
VERTEX
  5
AC
330
A8
100
AcDbEntity
  8
Layer 1
 62
    22
420
 14951456
370
     9
100
AcDbVertex
100
AcDb2dVertex
 10
83.87335417857389
 20
-149.9225712929554
 30
0.0
  0
VERTEX
  5
AD
330
A8
100
AcDbEntity
  8
Layer 1
 62
    22
420
 14951456
370
     9
100
AcDbVertex
100
AcDb2dVertex
 10
69.87347374783742
 20
-149.9225712929554
 30
0.0
  0
SEQEND
  5
AE
330
A8
100
AcDbEntity
  8
Layer 1
 62
    22
420
 14951456
370
     9
  0
ENDBLK
  5
A7
330
A4
100
AcDbEntity
  8
0
100
AcDbBlockEnd
  0
BLOCK
  5
B1
330
AF
100
AcDbEntity
  8
0
100
AcDbBlockBegin
  2
block 16
 70
     0
 10
0.0
 20
0.0
 30
0.0
  3
block 16
  1

  0
POLYLINE
  5
B3
330
AF
100
AcDbEntity
  8
Layer 1
 62
    22
420
 14951456
370
     9
100
AcDb2dPolyline
 66
     1
 10
0.0
 20
0.0
 30
0.0
  0
VERTEX
  5
B4
330
B3
100
AcDbEntity
  8
Layer 1
 62
    22
420
 14951456
370
     9
100
AcDbVertex
100
AcDb2dVertex
 10
88.8748214037898
 20
-107.1695390670799
 30
0.0
  0
VERTEX
  5
B5
330
B3
100
AcDbEntity
  8
Layer 1
 62
    22
420
 14951456
370
     9
100
AcDbVertex
100
AcDb2dVertex
 10
88.8748214037898
 20
-121.1694194978122
 30
0.0
  0
VERTEX
  5
B6
330
B3
100
AcDbEntity
  8
Layer 1
 62
    22
420
 14951456
370
     9
100
AcDbVertex
100
AcDb2dVertex
 10
102.8747018345234
 20
-121.1694194978122
 30
0.0
  0
VERTEX
  5
B7
330
B3
100
AcDbEntity
  8
Layer 1
 62
    22
420
 14951456
370
     9
100
AcDbVertex
100
AcDb2dVertex
 10
102.8747018345234
 20
-107.1695390670799
 30
0.0
  0
VERTEX
  5
B8
330
B3
100
AcDbEntity
  8
Layer 1
 62
    22
420
 14951456
370
     9
100
AcDbVertex
100
AcDb2dVertex
 10
88.8748214037898
 20
-107.1695390670799
 30
0.0
  0
SEQEND
  5
B9
330
B3
100
AcDbEntity
  8
Layer 1
 62
    22
420
 14951456
370
     9
  0
ENDBLK
  5
B2
330
AF
100
AcDbEntity
  8
0
100
AcDbBlockEnd
  0
BLOCK
  5
BC
330
BA
100
AcDbEntity
  8
0
100
AcDbBlockBegin
  2
block 17
 70
     0
 10
0.0
 20
0.0
 30
0.0
  3
block 17
  1

  0
POLYLINE
  5
BE
330
BA
100
AcDbEntity
  8
Layer 1
 62
    22
420
 14951456
370
     9
100
AcDb2dPolyline
 66
     1
 10
0.0
 20
0.0
 30
0.0
  0
VERTEX
  5
BF
330
BE
100
AcDbEntity
  8
Layer 1
 62
    22
420
 14951456
370
     9
100
AcDbVertex
100
AcDb2dVertex
 10
88.8748214037898
 20
-126.1708867230224
 30
0.0
  0
VERTEX
  5
C0
330
BE
100
AcDbEntity
  8
Layer 1
 62
    22
420
 14951456
370
     9
100
AcDbVertex
100
AcDb2dVertex
 10
88.8748214037898
 20
-140.1707671537553
 30
0.0
  0
VERTEX
  5
C1
330
BE
100
AcDbEntity
  8
Layer 1
 62
    22
420
 14951456
370
     9
100
AcDbVertex
100
AcDb2dVertex
 10
102.8747018345234
 20
-140.1707671537553
 30
0.0
  0
VERTEX
  5
C2
330
BE
100
AcDbEntity
  8
Layer 1
 62
    22
420
 14951456
370
     9
100
AcDbVertex
100
AcDb2dVertex
 10
102.8747018345234
 20
-126.1708867230224
 30
0.0
  0
VERTEX
  5
C3
330
BE
100
AcDbEntity
  8
Layer 1
 62
    22
420
 14951456
370
     9
100
AcDbVertex
100
AcDb2dVertex
 10
88.8748214037898
 20
-126.1708867230224
 30
0.0
  0
SEQEND
  5
C4
330
BE
100
AcDbEntity
  8
Layer 1
 62
    22
420
 14951456
370
     9
  0
ENDBLK
  5
BD
330
BA
100
AcDbEntity
  8
0
100
AcDbBlockEnd
  0
BLOCK
  5
C7
330
C5
100
AcDbEntity
  8
0
100
AcDbBlockBegin
  2
block 18
 70
     0
 10
0.0
 20
0.0
 30
0.0
  3
block 18
  1

  0
POLYLINE
  5
C9
330
C5
100
AcDbEntity
  8
Layer 1
 62
    22
420
 14951456
370
     9
100
AcDb2dPolyline
 66
     1
 10
0.0
 20
0.0
 30
0.0
  0
VERTEX
  5
CA
330
C9
100
AcDbEntity
  8
Layer 1
 62
    22
420
 14951456
370
     9
100
AcDbVertex
100
AcDb2dVertex
 10
88.8748214037898
 20
-145.1722343789738
 30
0.0
  0
VERTEX
  5
CB
330
C9
100
AcDbEntity
  8
Layer 1
 62
    22
420
 14951456
370
     9
100
AcDbVertex
100
AcDb2dVertex
 10
88.8748214037898
 20
-159.1721148097048
 30
0.0
  0
VERTEX
  5
CC
330
C9
100
AcDbEntity
  8
Layer 1
 62
    22
420
 14951456
370
     9
100
AcDbVertex
100
AcDb2dVertex
 10
102.8747018345234
 20
-159.1721148097048
 30
0.0
  0
VERTEX
  5
CD
330
C9
100
AcDbEntity
  8
Layer 1
 62
    22
420
 14951456
370
     9
100
AcDbVertex
100
AcDb2dVertex
 10
102.8747018345234
 20
-145.1722343789738
 30
0.0
  0
VERTEX
  5
CE
330
C9
100
AcDbEntity
  8
Layer 1
 62
    22
420
 14951456
370
     9
100
AcDbVertex
100
AcDb2dVertex
 10
88.8748214037898
 20
-145.1722343789738
 30
0.0
  0
SEQEND
  5
CF
330
C9
100
AcDbEntity
  8
Layer 1
 62
    22
420
 14951456
370
     9
  0
ENDBLK
  5
C8
330
C5
100
AcDbEntity
  8
0
100
AcDbBlockEnd
  0
BLOCK
  5
D2
330
D0
100
AcDbEntity
  8
0
100
AcDbBlockBegin
  2
block 19
 70
     0
 10
0.0
 20
0.0
 30
0.0
  3
block 19
  1

  0
POLYLINE
  5
D4
330
D0
100
AcDbEntity
  8
Layer 1
 62
    22
420
 14951456
370
     9
100
AcDb2dPolyline
 66
     1
 10
0.0
 20
0.0
 30
0.0
  0
VERTEX
  5
D5
330
D4
100
AcDbEntity
  8
Layer 1
 62
    22
420
 14951456
370
     9
100
AcDbVertex
100
AcDb2dVertex
 10
107.8761690597316
 20
-104.7943706100891
 30
0.0
  0
VERTEX
  5
D6
330
D4
100
AcDbEntity
  8
Layer 1
 62
    22
420
 14951456
370
     9
100
AcDbVertex
100
AcDb2dVertex
 10
107.8761690597316
 20
-118.7942510408205
 30
0.0
  0
VERTEX
  5
D7
330
D4
100
AcDbEntity
  8
Layer 1
 62
    22
420
 14951456
370
     9
100
AcDbVertex
100
AcDb2dVertex
 10
121.8760494904665
 20
-118.7942510408205
 30
0.0
  0
VERTEX
  5
D8
330
D4
100
AcDbEntity
  8
Layer 1
 62
    22
420
 14951456
370
     9
100
AcDbVertex
100
AcDb2dVertex
 10
121.8760494904665
 20
-104.7943706100891
 30
0.0
  0
VERTEX
  5
D9
330
D4
100
AcDbEntity
  8
Layer 1
 62
    22
420
 14951456
370
     9
100
AcDbVertex
100
AcDb2dVertex
 10
107.8761690597316
 20
-104.7943706100891
 30
0.0
  0
SEQEND
  5
DA
330
D4
100
AcDbEntity
  8
Layer 1
 62
    22
420
 14951456
370
     9
  0
ENDBLK
  5
D3
330
D0
100
AcDbEntity
  8
0
100
AcDbBlockEnd
  0
BLOCK
  5
DD
330
DB
100
AcDbEntity
  8
0
100
AcDbBlockBegin
  2
block 20
 70
     0
 10
0.0
 20
0.0
 30
0.0
  3
block 20
  1

  0
POLYLINE
  5
DF
330
DB
100
AcDbEntity
  8
Layer 1
 62
    22
420
 14951456
370
     9
100
AcDb2dPolyline
 66
     1
 10
0.0
 20
0.0
 30
0.0
  0
VERTEX
  5
E0
330
DF
100
AcDbEntity
  8
Layer 1
 62
    22
420
 14951456
370
     9
100
AcDbVertex
100
AcDb2dVertex
 10
107.8761690597316
 20
-123.7957182660284
 30
0.0
  0
VERTEX
  5
E1
330
DF
100
AcDbEntity
  8
Layer 1
 62
    22
420
 14951456
370
     9
100
AcDbVertex
100
AcDb2dVertex
 10
107.8761690597316
 20
-137.7955986967632
 30
0.0
  0
VERTEX
  5
E2
330
DF
100
AcDbEntity
  8
Layer 1
 62
    22
420
 14951456
370
     9
100
AcDbVertex
100
AcDb2dVertex
 10
121.8760494904665
 20
-137.7955986967632
 30
0.0
  0
VERTEX
  5
E3
330
DF
100
AcDbEntity
  8
Layer 1
 62
    22
420
 14951456
370
     9
100
AcDbVertex
100
AcDb2dVertex
 10
121.8760494904665
 20
-123.7957182660284
 30
0.0
  0
VERTEX
  5
E4
330
DF
100
AcDbEntity
  8
Layer 1
 62
    22
420
 14951456
370
     9
100
AcDbVertex
100
AcDb2dVertex
 10
107.8761690597316
 20
-123.7957182660284
 30
0.0
  0
SEQEND
  5
E5
330
DF
100
AcDbEntity
  8
Layer 1
 62
    22
420
 14951456
370
     9
  0
ENDBLK
  5
DE
330
DB
100
AcDbEntity
  8
0
100
AcDbBlockEnd
  0
BLOCK
  5
E8
330
E6
100
AcDbEntity
  8
0
100
AcDbBlockBegin
  2
block 21
 70
     0
 10
0.0
 20
0.0
 30
0.0
  3
block 21
  1

  0
POLYLINE
  5
EA
330
E6
100
AcDbEntity
  8
Layer 1
 62
    22
420
 14951456
370
     9
100
AcDb2dPolyline
 66
     1
 10
0.0
 20
0.0
 30
0.0
  0
VERTEX
  5
EB
330
EA
100
AcDbEntity
  8
Layer 1
 62
    22
420
 14951456
370
     9
100
AcDbVertex
100
AcDb2dVertex
 10
107.8761690597316
 20
-142.7970659219708
 30
0.0
  0
VERTEX
  5
EC
330
EA
100
AcDbEntity
  8
Layer 1
 62
    22
420
 14951456
370
     9
100
AcDbVertex
100
AcDb2dVertex
 10
107.8761690597316
 20
-156.7969463527102
 30
0.0
  0
VERTEX
  5
ED
330
EA
100
AcDbEntity
  8
Layer 1
 62
    22
420
 14951456
370
     9
100
AcDbVertex
100
AcDb2dVertex
 10
121.8760494904665
 20
-156.7969463527102
 30
0.0
  0
VERTEX
  5
EE
330
EA
100
AcDbEntity
  8
Layer 1
 62
    22
420
 14951456
370
     9
100
AcDbVertex
100
AcDb2dVertex
 10
121.8760494904665
 20
-142.7970659219708
 30
0.0
  0
VERTEX
  5
EF
330
EA
100
AcDbEntity
  8
Layer 1
 62
    22
420
 14951456
370
     9
100
AcDbVertex
100
AcDb2dVertex
 10
107.8761690597316
 20
-142.7970659219708
 30
0.0
  0
SEQEND
  5
F0
330
EA
100
AcDbEntity
  8
Layer 1
 62
    22
420
 14951456
370
     9
  0
ENDBLK
  5
E9
330
E6
100
AcDbEntity
  8
0
100
AcDbBlockEnd
  0
BLOCK
  5
F3
330
F1
100
AcDbEntity
  8
0
100
AcDbBlockBegin
  2
block 22
 70
     0
 10
0.0
 20
0.0
 30
0.0
  3
block 22
  1

  0
POLYLINE
  5
F5
330
F1
100
AcDbEntity
  8
Layer 1
 62
    22
420
 14951456
370
     9
100
AcDb2dPolyline
 66
     1
 10
0.0
 20
0.0
 30
0.0
  0
VERTEX
  5
F6
330
F5
100
AcDbEntity
  8
Layer 1
 62
    22
420
 14951456
370
     9
100
AcDbVertex
100
AcDb2dVertex
 10
126.877516715676
 20
-107.1695390670799
 30
0.0
  0
VERTEX
  5
F7
330
F5
100
AcDbEntity
  8
Layer 1
 62
    22
420
 14951456
370
     9
100
AcDbVertex
100
AcDb2dVertex
 10
126.877516715676
 20
-121.1694194978122
 30
0.0
  0
VERTEX
  5
F8
330
F5
100
AcDbEntity
  8
Layer 1
 62
    22
420
 14951456
370
     9
100
AcDbVertex
100
AcDb2dVertex
 10
140.8773971464121
 20
-121.1694194978122
 30
0.0
  0
VERTEX
  5
F9
330
F5
100
AcDbEntity
  8
Layer 1
 62
    22
420
 14951456
370
     9
100
AcDbVertex
100
AcDb2dVertex
 10
140.8773971464121
 20
-107.1695390670799
 30
0.0
  0
VERTEX
  5
FA
330
F5
100
AcDbEntity
  8
Layer 1
 62
    22
420
 14951456
370
     9
100
AcDbVertex
100
AcDb2dVertex
 10
126.877516715676
 20
-107.1695390670799
 30
0.0
  0
SEQEND
  5
FB
330
F5
100
AcDbEntity
  8
Layer 1
 62
    22
420
 14951456
370
     9
  0
ENDBLK
  5
F4
330
F1
100
AcDbEntity
  8
0
100
AcDbBlockEnd
  0
BLOCK
  5
FE
330
FC
100
AcDbEntity
  8
0
100
AcDbBlockBegin
  2
block 23
 70
     0
 10
0.0
 20
0.0
 30
0.0
  3
block 23
  1

  0
POLYLINE
  5
100
330
FC
100
AcDbEntity
  8
Layer 1
 62
    22
420
 14951456
370
     9
100
AcDb2dPolyline
 66
     1
 10
0.0
 20
0.0
 30
0.0
  0
VERTEX
  5
101
330
100
100
AcDbEntity
  8
Layer 1
 62
    22
420
 14951456
370
     9
100
AcDbVertex
100
AcDb2dVertex
 10
126.877516715676
 20
-126.1708867230224
 30
0.0
  0
VERTEX
  5
102
330
100
100
AcDbEntity
  8
Layer 1
 62
    22
420
 14951456
370
     9
100
AcDbVertex
100
AcDb2dVertex
 10
126.877516715676
 20
-140.1707671537553
 30
0.0
  0
VERTEX
  5
103
330
100
100
AcDbEntity
  8
Layer 1
 62
    22
420
 14951456
370
     9
100
AcDbVertex
100
AcDb2dVertex
 10
140.8773971464121
 20
-140.1707671537553
 30
0.0
  0
VERTEX
  5
104
330
100
100
AcDbEntity
  8
Layer 1
 62
    22
420
 14951456
370
     9
100
AcDbVertex
100
AcDb2dVertex
 10
140.8773971464121
 20
-126.1708867230224
 30
0.0
  0
VERTEX
  5
105
330
100
100
AcDbEntity
  8
Layer 1
 62
    22
420
 14951456
370
     9
100
AcDbVertex
100
AcDb2dVertex
 10
126.877516715676
 20
-126.1708867230224
 30
0.0
  0
SEQEND
  5
106
330
100
100
AcDbEntity
  8
Layer 1
 62
    22
420
 14951456
370
     9
  0
ENDBLK
  5
FF
330
FC
100
AcDbEntity
  8
0
100
AcDbBlockEnd
  0
BLOCK
  5
109
330
107
100
AcDbEntity
  8
0
100
AcDbBlockBegin
  2
block 24
 70
     0
 10
0.0
 20
0.0
 30
0.0
  3
block 24
  1

  0
POLYLINE
  5
10B
330
107
100
AcDbEntity
  8
Layer 1
 62
    22
420
 14951456
370
     9
100
AcDb2dPolyline
 66
     1
 10
0.0
 20
0.0
 30
0.0
  0
VERTEX
  5
10C
330
10B
100
AcDbEntity
  8
Layer 1
 62
    22
420
 14951456
370
     9
100
AcDbVertex
100
AcDb2dVertex
 10
126.877516715676
 20
-145.1722343789738
 30
0.0
  0
VERTEX
  5
10D
330
10B
100
AcDbEntity
  8
Layer 1
 62
    22
420
 14951456
370
     9
100
AcDbVertex
100
AcDb2dVertex
 10
126.877516715676
 20
-159.1721148097048
 30
0.0
  0
VERTEX
  5
10E
330
10B
100
AcDbEntity
  8
Layer 1
 62
    22
420
 14951456
370
     9
100
AcDbVertex
100
AcDb2dVertex
 10
140.8773971464121
 20
-159.1721148097048
 30
0.0
  0
VERTEX
  5
10F
330
10B
100
AcDbEntity
  8
Layer 1
 62
    22
420
 14951456
370
     9
100
AcDbVertex
100
AcDb2dVertex
 10
140.8773971464121
 20
-145.1722343789738
 30
0.0
  0
VERTEX
  5
110
330
10B
100
AcDbEntity
  8
Layer 1
 62
    22
420
 14951456
370
     9
100
AcDbVertex
100
AcDb2dVertex
 10
126.877516715676
 20
-145.1722343789738
 30
0.0
  0
SEQEND
  5
111
330
10B
100
AcDbEntity
  8
Layer 1
 62
    22
420
 14951456
370
     9
  0
ENDBLK
  5
10A
330
107
100
AcDbEntity
  8
0
100
AcDbBlockEnd
  0
BLOCK
  5
114
330
112
100
AcDbEntity
  8
0
100
AcDbBlockBegin
  2
block 25
 70
     0
 10
0.0
 20
0.0
 30
0.0
  3
block 25
  1

  0
POLYLINE
  5
116
330
112
100
AcDbEntity
  8
Layer 1
 62
    22
420
 14951456
370
     9
100
AcDb2dPolyline
 66
     1
 10
0.0
 20
0.0
 30
0.0
  0
VERTEX
  5
117
330
116
100
AcDbEntity
  8
Layer 1
 62
    22
420
 14951456
370
     9
100
AcDbVertex
100
AcDb2dVertex
 10
145.8788643716242
 20
-109.5447075240707
 30
0.0
  0
VERTEX
  5
118
330
116
100
AcDbEntity
  8
Layer 1
 62
    22
420
 14951456
370
     9
100
AcDbVertex
100
AcDb2dVertex
 10
145.8788643716242
 20
-123.5445879548034
 30
0.0
  0
VERTEX
  5
119
330
116
100
AcDbEntity
  8
Layer 1
 62
    22
420
 14951456
370
     9
100
AcDbVertex
100
AcDb2dVertex
 10
159.8787448023616
 20
-123.5445879548034
 30
0.0
  0
VERTEX
  5
11A
330
116
100
AcDbEntity
  8
Layer 1
 62
    22
420
 14951456
370
     9
100
AcDbVertex
100
AcDb2dVertex
 10
159.8787448023616
 20
-109.5447075240707
 30
0.0
  0
VERTEX
  5
11B
330
116
100
AcDbEntity
  8
Layer 1
 62
    22
420
 14951456
370
     9
100
AcDbVertex
100
AcDb2dVertex
 10
145.8788643716242
 20
-109.5447075240707
 30
0.0
  0
SEQEND
  5
11C
330
116
100
AcDbEntity
  8
Layer 1
 62
    22
420
 14951456
370
     9
  0
ENDBLK
  5
115
330
112
100
AcDbEntity
  8
0
100
AcDbBlockEnd
  0
BLOCK
  5
11F
330
11D
100
AcDbEntity
  8
0
100
AcDbBlockBegin
  2
block 26
 70
     0
 10
0.0
 20
0.0
 30
0.0
  3
block 26
  1

  0
POLYLINE
  5
121
330
11D
100
AcDbEntity
  8
Layer 1
 62
    22
420
 14951456
370
     9
100
AcDb2dPolyline
 66
     1
 10
0.0
 20
0.0
 30
0.0
  0
VERTEX
  5
122
330
121
100
AcDbEntity
  8
Layer 1
 62
    22
420
 14951456
370
     9
100
AcDbVertex
100
AcDb2dVertex
 10
145.8788643716242
 20
-128.5460551800176
 30
0.0
  0
VERTEX
  5
123
330
121
100
AcDbEntity
  8
Layer 1
 62
    22
420
 14951456
370
     9
100
AcDbVertex
100
AcDb2dVertex
 10
145.8788643716242
 20
-142.5459356107564
 30
0.0
  0
VERTEX
  5
124
330
121
100
AcDbEntity
  8
Layer 1
 62
    22
420
 14951456
370
     9
100
AcDbVertex
100
AcDb2dVertex
 10
159.8787448023616
 20
-142.5459356107564
 30
0.0
  0
VERTEX
  5
125
330
121
100
AcDbEntity
  8
Layer 1
 62
    22
420
 14951456
370
     9
100
AcDbVertex
100
AcDb2dVertex
 10
159.8787448023616
 20
-128.5460551800176
 30
0.0
  0
VERTEX
  5
126
330
121
100
AcDbEntity
  8
Layer 1
 62
    22
420
 14951456
370
     9
100
AcDbVertex
100
AcDb2dVertex
 10
145.8788643716242
 20
-128.5460551800176
 30
0.0
  0
SEQEND
  5
127
330
121
100
AcDbEntity
  8
Layer 1
 62
    22
420
 14951456
370
     9
  0
ENDBLK
  5
120
330
11D
100
AcDbEntity
  8
0
100
AcDbBlockEnd
  0
BLOCK
  5
12A
330
128
100
AcDbEntity
  8
0
100
AcDbBlockBegin
  2
block 27
 70
     0
 10
0.0
 20
0.0
 30
0.0
  3
block 27
  1

  0
POLYLINE
  5
12C
330
128
100
AcDbEntity
  8
Layer 1
 62
    22
420
 14951456
370
     9
100
AcDb2dPolyline
 66
     1
 10
0.0
 20
0.0
 30
0.0
  0
VERTEX
  5
12D
330
12C
100
AcDbEntity
  8
Layer 1
 62
    22
420
 14951456
370
     9
100
AcDbVertex
100
AcDb2dVertex
 10
145.8788643716242
 20
-147.5474028359646
 30
0.0
  0
VERTEX
  5
12E
330
12C
100
AcDbEntity
  8
Layer 1
 62
    22
420
 14951456
370
     9
100
AcDbVertex
100
AcDb2dVertex
 10
145.8788643716242
 20
-161.5472832666956
 30
0.0
  0
VERTEX
  5
12F
330
12C
100
AcDbEntity
  8
Layer 1
 62
    22
420
 14951456
370
     9
100
AcDbVertex
100
AcDb2dVertex
 10
159.8787448023616
 20
-161.5472832666956
 30
0.0
  0
VERTEX
  5
130
330
12C
100
AcDbEntity
  8
Layer 1
 62
    22
420
 14951456
370
     9
100
AcDbVertex
100
AcDb2dVertex
 10
159.8787448023616
 20
-147.5474028359646
 30
0.0
  0
VERTEX
  5
131
330
12C
100
AcDbEntity
  8
Layer 1
 62
    22
420
 14951456
370
     9
100
AcDbVertex
100
AcDb2dVertex
 10
145.8788643716242
 20
-147.5474028359646
 30
0.0
  0
SEQEND
  5
132
330
12C
100
AcDbEntity
  8
Layer 1
 62
    22
420
 14951456
370
     9
  0
ENDBLK
  5
12B
330
128
100
AcDbEntity
  8
0
100
AcDbBlockEnd
  0
BLOCK
  5
135
330
133
100
AcDbEntity
  8
0
100
AcDbBlockBegin
  2
block 28
 70
     0
 10
0.0
 20
0.0
 30
0.0
  3
block 28
  1

  0
POLYLINE
  5
137
330
133
100
AcDbEntity
  8
Layer 1
 62
    22
420
 14951456
370
     9
100
AcDb2dPolyline
 66
     1
 10
0.0
 20
0.0
 30
0.0
  0
VERTEX
  5
138
330
137
100
AcDbEntity
  8
Layer 1
 62
    22
420
 14951456
370
     9
100
AcDbVertex
100
AcDb2dVertex
 10
117.3768428877051
 20
-164.7986263657005
 30
0.0
  0
VERTEX
  5
139
330
137
100
AcDbEntity
  8
Layer 1
 62
    22
420
 14951456
370
     9
100
AcDbVertex
100
AcDb2dVertex
 10
117.3768428877051
 20
-178.7985067964373
 30
0.0
  0
VERTEX
  5
13A
330
137
100
AcDbEntity
  8
Layer 1
 62
    22
420
 14951456
370
     9
100
AcDbVertex
100
AcDb2dVertex
 10
131.3767233184399
 20
-178.7985067964373
 30
0.0
  0
VERTEX
  5
13B
330
137
100
AcDbEntity
  8
Layer 1
 62
    22
420
 14951456
370
     9
100
AcDbVertex
100
AcDb2dVertex
 10
131.3767233184399
 20
-164.7986263657005
 30
0.0
  0
VERTEX
  5
13C
330
137
100
AcDbEntity
  8
Layer 1
 62
    22
420
 14951456
370
     9
100
AcDbVertex
100
AcDb2dVertex
 10
117.3768428877051
 20
-164.7986263657005
 30
0.0
  0
SEQEND
  5
13D
330
137
100
AcDbEntity
  8
Layer 1
 62
    22
420
 14951456
370
     9
  0
ENDBLK
  5
136
330
133
100
AcDbEntity
  8
0
100
AcDbBlockEnd
  0
BLOCK
  5
140
330
13E
100
AcDbEntity
  8
0
100
AcDbBlockBegin
  2
block 29
 70
     0
 10
0.0
 20
0.0
 30
0.0
  3
block 29
  1

  0
POLYLINE
  5
142
330
13E
100
AcDbEntity
  8
Layer 1
 62
    22
420
 14951456
370
     9
100
AcDb2dPolyline
 66
     1
 10
0.0
 20
0.0
 30
0.0
  0
VERTEX
  5
143
330
142
100
AcDbEntity
  8
Layer 1
 62
    22
420
 14951456
370
     9
100
AcDbVertex
100
AcDb2dVertex
 10
140.4276989442433
 20
-165.9814892107245
 30
0.0
  0
VERTEX
  5
144
330
142
100
AcDbEntity
  8
Layer 1
 62
    22
420
 14951456
370
     9
100
AcDbVertex
100
AcDb2dVertex
 10
136.8180041546878
 20
-179.5080096650471
 30
0.0
  0
VERTEX
  5
145
330
142
100
AcDbEntity
  8
Layer 1
 62
    22
420
 14951456
370
     9
100
AcDbVertex
100
AcDb2dVertex
 10
150.3445246090072
 20
-183.1177044546046
 30
0.0
  0
VERTEX
  5
146
330
142
100
AcDbEntity
  8
Layer 1
 62
    22
420
 14951456
370
     9
100
AcDbVertex
100
AcDb2dVertex
 10
153.9542193985614
 20
-169.5911840002813
 30
0.0
  0
VERTEX
  5
147
330
142
100
AcDbEntity
  8
Layer 1
 62
    22
420
 14951456
370
     9
100
AcDbVertex
100
AcDb2dVertex
 10
140.4276989442433
 20
-165.9814892107245
 30
0.0
  0
SEQEND
  5
148
330
142
100
AcDbEntity
  8
Layer 1
 62
    22
420
 14951456
370
     9
  0
ENDBLK
  5
141
330
13E
100
AcDbEntity
  8
0
100
AcDbBlockEnd
  0
BLOCK
  5
14B
330
149
100
AcDbEntity
  8
0
100
AcDbBlockBegin
  2
block 30
 70
     0
 10
0.0
 20
0.0
 30
0.0
  3
block 30
  1

  0
POLYLINE
  5
14D
330
149
100
AcDbEntity
  8
Layer 1
 62
    22
420
 14951456
370
     9
100
AcDb2dPolyline
 66
     1
 10
0.0
 20
0.0
 30
0.0
  0
VERTEX
  5
14E
330
14D
100
AcDbEntity
  8
Layer 1
 62
    22
420
 14951456
370
     9
100
AcDbVertex
100
AcDb2dVertex
 10
165.0930269271704
 20
-168.8342537883829
 30
0.0
  0
VERTEX
  5
14F
330
14D
100
AcDbEntity
  8
Layer 1
 62
    22
420
 14951456
370
     9
100
AcDbVertex
100
AcDb2dVertex
 10
158.1757222791158
 20
-180.8342791644848
 30
0.0
  0
VERTEX
  5
150
330
14D
100
AcDbEntity
  8
Layer 1
 62
    22
420
 14951456
370
     9
100
AcDbVertex
100
AcDb2dVertex
 10
170.1757476552254
 20
-187.7515838125368
 30
0.0
  0
VERTEX
  5
151
330
14D
100
AcDbEntity
  8
Layer 1
 62
    22
420
 14951456
370
     9
100
AcDbVertex
100
AcDb2dVertex
 10
177.0930523032774
 20
-175.7515584364272
 30
0.0
  0
VERTEX
  5
152
330
14D
100
AcDbEntity
  8
Layer 1
 62
    22
420
 14951456
370
     9
100
AcDbVertex
100
AcDb2dVertex
 10
165.0930269271704
 20
-168.8342537883829
 30
0.0
  0
SEQEND
  5
153
330
14D
100
AcDbEntity
  8
Layer 1
 62
    22
420
 14951456
370
     9
  0
ENDBLK
  5
14C
330
149
100
AcDbEntity
  8
0
100
AcDbBlockEnd
  0
ENDSEC
  0
SECTION
  2
ENTITIES
  0
INSERT
  5
42
330
1F
100
AcDbEntity
  8
Layer 1
100
AcDbBlockReference
  2
block 2
 10
0.0
 20
0.0
 30
0.0
  0
ENDSEC
  0
SECTION
  2
OBJECTS
  0
DICTIONARY
  5
C
330
0
100
AcDbDictionary
281
     1
  3
ACAD_GROUP
350
D
  3
ACAD_LAYOUT
350
1A
  3
ACAD_MATERIAL
350
3B
  3
ACAD_MLEADERSTYLE
350
15D
  3
ACAD_MLINESTYLE
350
17
  3
ACAD_PLOTSETTINGS
350
19
  3
ACAD_PLOTSTYLENAME
350
E
  3
ACAD_TABLESTYLE
350
15C
  3
ACAD_VISUALSTYLE
350
2A
  0
SUN
  5
3F
330
29
100
AcDbSun
 90
        1
290
     0
 63
     7
421
 16777215
 40
1.0
291
     1
 91
  2455826
 92
 54000000
292
     0
 70
     2
 71
   256
280
     1
  0
DICTIONARY
  5
D
102
{ACAD_REACTORS
330
C
102
}
330
C
100
AcDbDictionary
281
     1
  0
DICTIONARY
  5
1A
102
{ACAD_REACTORS
330
C
102
}
330
C
100
AcDbDictionary
281
     1
  3
Layout1
350
1E
  3
Layout2
350
26
  3
Model
350
22
  0
DICTIONARY
  5
3B
102
{ACAD_REACTORS
330
C
102
}
330
C
100
AcDbDictionary
281
     1
  3
ByBlock
350
3D
  3
ByLayer
350
3C
  3
Global
350
3E
  0
DICTIONARY
  5
15D
102
{ACAD_REACTORS
330
C
102
}
330
C
100
AcDbDictionary
281
     1
  0
DICTIONARY
  5
17
102
{ACAD_REACTORS
330
C
102
}
330
C
100
AcDbDictionary
281
     1
  3
Standard
350
18
  0
DICTIONARY
  5
19
102
{ACAD_REACTORS
330
C
102
}
330
C
100
AcDbDictionary
281
     1
  0
ACDBDICTIONARYWDFLT
  5
E
102
{ACAD_REACTORS
330
C
102
}
330
C
100
AcDbDictionary
281
     1
  3
Normal
350
F
100
AcDbDictionaryWithDefault
340
F
  0
DICTIONARY
  5
15C
102
{ACAD_REACTORS
330
C
102
}
330
C
100
AcDbDictionary
281
     1
  0
DICTIONARY
  5
2A
102
{ACAD_REACTORS
330
C
102
}
330
C
100
AcDbDictionary
281
     1
  3
2dWireframe
350
2F
  3
3D Hidden
350
31
  3
3dWireframe
350
30
  3
Basic
350
32
  3
Brighten
350
36
  3
ColorChange
350
3A
  3
Conceptual
350
34
  3
Dim
350
35
  3
Facepattern
350
39
  3
Flat
350
2B
  3
FlatWithEdges
350
2C
  3
Gouraud
350
2D
  3
GouraudWithEdges
350
2E
  3
Linepattern
350
38
  3
Realistic
350
33
  3
Thicken
350
37
  0
LAYOUT
  5
1E
102
{ACAD_REACTORS
330
1A
102
}
330
1A
100
AcDbPlotSettings
  1

  2
none_device
  4

  6

 40
0.0
 41
0.0
 42
0.0
 43
0.0
 44
0.0
 45
0.0
 46
0.0
 47
0.0
 48
0.0
 49
0.0
140
0.0
141
0.0
142
1.0
143
1.0
 70
   688
 72
     0
 73
     0
 74
     5
  7

 75
    16
 76
     0
 77
     2
 78
   300
147
1.0
148
0.0
149
0.0
100
AcDbLayout
  1
Layout1
 70
     1
 71
     1
 10
0.0
 20
0.0
 11
12.0
 21
9.0
 12
0.0
 22
0.0
 32
0.0
 14
1.000000000000000E+20
 24
1.000000000000000E+20
 34
1.000000000000000E+20
 15
-1.000000000000000E+20
 25
-1.000000000000000E+20
 35
-1.000000000000000E+20
146
0.0
 13
0.0
 23
0.0
 33
0.0
 16
1.0
 26
0.0
 36
0.0
 17
0.0
 27
1.0
 37
0.0
 76
     0
330
1B
  0
LAYOUT
  5
26
102
{ACAD_REACTORS
330
1A
102
}
330
1A
100
AcDbPlotSettings
  1

  2
none_device
  4

  6

 40
0.0
 41
0.0
 42
0.0
 43
0.0
 44
0.0
 45
0.0
 46
0.0
 47
0.0
 48
0.0
 49
0.0
140
0.0
141
0.0
142
1.0
143
1.0
 70
   688
 72
     0
 73
     0
 74
     5
  7

 75
    16
 76
     0
 77
     2
 78
   300
147
1.0
148
0.0
149
0.0
100
AcDbLayout
  1
Layout2
 70
     1
 71
     2
 10
0.0
 20
0.0
 11
0.0
 21
0.0
 12
0.0
 22
0.0
 32
0.0
 14
0.0
 24
0.0
 34
0.0
 15
0.0
 25
0.0
 35
0.0
146
0.0
 13
0.0
 23
0.0
 33
0.0
 16
1.0
 26
0.0
 36
0.0
 17
0.0
 27
1.0
 37
0.0
 76
     0
330
23
  0
LAYOUT
  5
22
102
{ACAD_REACTORS
330
1A
102
}
330
1A
100
AcDbPlotSettings
  1

  2
none_device
  4

  6

 40
0.0
 41
0.0
 42
0.0
 43
0.0
 44
0.0
 45
0.0
 46
0.0
 47
0.0
 48
0.0
 49
0.0
140
0.0
141
0.0
142
1.0
143
1.0
 70
  1712
 72
     0
 73
     0
 74
     0
  7

 75
     0
 76
     0
 77
     2
 78
   300
147
1.0
148
0.0
149
0.0
100
AcDbLayout
  1
Model
 70
     1
 71
     0
 10
0.0
 20
0.0
 11
12.0
 21
9.0
 12
0.0
 22
0.0
 32
0.0
 14
1.000000000000000E+20
 24
1.000000000000000E+20
 34
1.000000000000000E+20
 15
-1.000000000000000E+20
 25
-1.000000000000000E+20
 35
-1.000000000000000E+20
146
0.0
 13
0.0
 23
0.0
 33
0.0
 16
1.0
 26
0.0
 36
0.0
 17
0.0
 27
1.0
 37
0.0
 76
     0
330
1F
331
29
  0
MATERIAL
  5
3D
102
{ACAD_REACTORS
330
3B
102
}
330
3B
100
AcDbMaterial
  1
ByBlock
 72
     1
 94
      127
  0
MATERIAL
  5
3C
102
{ACAD_REACTORS
330
3B
102
}
330
3B
100
AcDbMaterial
  1
ByLayer
 72
     1
 94
      127
  0
MATERIAL
  5
3E
102
{ACAD_REACTORS
330
3B
102
}
330
3B
100
AcDbMaterial
  1
Global
 72
     1
 94
      127
  0
MLINESTYLE
  5
18
102
{ACAD_REACTORS
330
17
102
}
330
17
100
AcDbMlineStyle
  2
Standard
 70
     0
  3

 62
   256
 51
90.0
 52
90.0
 71
     2
 49
0.5
 62
   256
  6
BYLAYER
 49
-0.5
 62
   256
  6
BYLAYER
  0
ACDBPLACEHOLDER
  5
F
102
{ACAD_REACTORS
330
E
102
}
330
E
  0
VISUALSTYLE
  5
2F
102
{ACAD_REACTORS
330
2A
102
}
330
2A
100
AcDbVisualStyle
  2
2dWireframe
 70
     4
177
     2
291
     0
 71
     0
176
     1
 72
     2
176
     1
 73
     0
176
     1
 90
        0
176
     1
 40
-0.6
176
     1
 41
-30.0
176
     1
 62
     5
 63
     7
421
 16777215
176
     1
 74
     1
176
     1
 91
        4
176
     1
 64
     7
176
     1
 65
   257
176
     1
 75
     1
176
     1
175
     1
176
     1
 42
1.0
176
     1
 92
        0
176
     1
 66
   257
176
     1
 43
1.0
176
     1
 76
     1
176
     1
 77
     6
176
     1
 78
     2
176
     1
 67
     7
176
     1
 79
     5
176
     1
170
     0
176
     1
171
     0
176
     1
290
     0
176
     1
 93
        1
176
     1
 44
0.0
176
     1
173
     0
176
     1
  0
VISUALSTYLE
  5
31
102
{ACAD_REACTORS
330
2A
102
}
330
2A
100
AcDbVisualStyle
  2
3D Hidden
 70
     6
177
     2
291
     0
 71
     1
176
     1
 72
     2
176
     1
 73
     2
176
     1
 90
        0
176
     1
 40
-0.6
176
     1
 41
-30.0
176
     1
 62
     5
 63
     7
421
 16777215
176
     1
 74
     2
176
     1
 91
        2
176
     1
 64
     7
176
     1
 65
   257
176
     1
 75
     2
176
     1
175
     1
176
     1
 42
40.0
176
     1
 92
        0
176
     1
 66
   257
176
     1
 43
1.0
176
     1
 76
     1
176
     1
 77
     6
176
     1
 78
     2
176
     1
 67
     7
176
     1
 79
     3
176
     1
170
     0
176
     1
171
     0
176
     1
290
     0
176
     1
 93
        1
176
     1
 44
0.0
176
     1
173
     0
176
     1
  0
VISUALSTYLE
  5
30
102
{ACAD_REACTORS
330
2A
102
}
330
2A
100
AcDbVisualStyle
  2
3dWireframe
 70
     5
177
     2
291
     0
 71
     0
176
     1
 72
     2
176
     1
 73
     0
176
     1
 90
        0
176
     1
 40
-0.6
176
     1
 41
-30.0
176
     1
 62
     5
 63
     7
421
 16777215
176
     1
 74
     1
176
     1
 91
        4
176
     1
 64
     7
176
     1
 65
   257
176
     1
 75
     1
176
     1
175
     1
176
     1
 42
1.0
176
     1
 92
        0
176
     1
 66
   257
176
     1
 43
1.0
176
     1
 76
     1
176
     1
 77
     6
176
     1
 78
     2
176
     1
 67
     7
176
     1
 79
     5
176
     1
170
     0
176
     1
171
     0
176
     1
290
     0
176
     1
 93
        1
176
     1
 44
0.0
176
     1
173
     0
176
     1
  0
VISUALSTYLE
  5
32
102
{ACAD_REACTORS
330
2A
102
}
330
2A
100
AcDbVisualStyle
  2
Basic
 70
     7
177
     2
291
     1
 71
     1
176
     1
 72
     0
176
     1
 73
     1
176
     1
 90
        0
176
     1
 40
-0.6
176
     1
 41
-30.0
176
     1
 62
     5
 63
     7
421
 16777215
176
     1
 74
     0
176
     1
 91
        4
176
     1
 64
     7
176
     1
 65
   257
176
     1
 75
     1
176
     1
175
     1
176
     1
 42
1.0
176
     1
 92
        8
176
     1
 66
     7
176
     1
 43
1.0
176
     1
 76
     1
176
     1
 77
     6
176
     1
 78
     2
176
     1
 67
     7
176
     1
 79
     5
176
     1
170
     0
176
     1
171
     0
176
     1
290
     0
176
     1
 93
        1
176
     1
 44
0.0
176
     1
173
     0
176
     1
  0
VISUALSTYLE
  5
36
102
{ACAD_REACTORS
330
2A
102
}
330
2A
100
AcDbVisualStyle
  2
Brighten
 70
    12
177
     2
291
     1
 71
     2
176
     1
 72
     2
176
     1
 73
     0
176
     1
 90
        0
176
     1
 40
-0.6
176
     1
 41
-30.0
176
     1
 62
     5
 63
     7
421
 16777215
176
     1
 74
     1
176
     1
 91
        4
176
     1
 64
     7
176
     1
 65
   257
176
     1
 75
     1
176
     1
175
     1
176
     1
 42
1.0
176
     1
 92
        8
176
     1
 66
     7
176
     1
 43
1.0
176
     1
 76
     1
176
     1
 77
     6
176
     1
 78
     2
176
     1
 67
     7
176
     1
 79
     5
176
     1
170
     0
176
     1
171
     0
176
     1
290
     0
176
     1
 93
        1
176
     1
 44
50.0
176
     1
173
     0
176
     1
  0
VISUALSTYLE
  5
3A
102
{ACAD_REACTORS
330
2A
102
}
330
2A
100
AcDbVisualStyle
  2
ColorChange
 70
    16
177
     2
291
     1
 71
     2
176
     1
 72
     2
176
     1
 73
     3
176
     1
 90
        0
176
     1
 40
-0.6
176
     1
 41
-30.0
176
     1
 62
     5
 63
     8
421
  8421504
176
     1
 74
     1
176
     1
 91
        4
176
     1
 64
     7
176
     1
 65
   257
176
     1
 75
     1
176
     1
175
     1
176
     1
 42
1.0
176
     1
 92
        8
176
     1
 66
     8
424
  8421504
176
     1
 43
1.0
176
     1
 76
     1
176
     1
 77
     6
176
     1
 78
     2
176
     1
 67
     7
176
     1
 79
     5
176
     1
170
     0
176
     1
171
     0
176
     1
290
     0
176
     1
 93
        1
176
     1
 44
0.0
176
     1
173
     0
176
     1
  0
VISUALSTYLE
  5
34
102
{ACAD_REACTORS
330
2A
102
}
330
2A
100
AcDbVisualStyle
  2
Conceptual
 70
     9
177
     2
291
     0
 71
     3
176
     1
 72
     2
176
     1
 73
     0
176
     1
 90
        0
176
     1
 40
-0.6
176
     1
 41
-30.0
176
     1
 62
     5
 63
     7
421
 16777215
176
     1
 74
     2
176
     1
 91
        2
176
     1
 64
     7
176
     1
 65
   257
176
     1
 75
     1
176
     1
175
     1
176
     1
 42
40.0
176
     1
 92
        8
176
     1
 66
     7
176
     1
 43
1.0
176
     1
 76
     1
176
     1
 77
     6
176
     1
 78
     2
176
     1
 67
     7
176
     1
 79
     3
176
     1
170
     0
176
     1
171
     0
176
     1
290
     0
176
     1
 93
        1
176
     1
 44
0.0
176
     1
173
     0
176
     1
  0
VISUALSTYLE
  5
35
102
{ACAD_REACTORS
330
2A
102
}
330
2A
100
AcDbVisualStyle
  2
Dim
 70
    11
177
     2
291
     1
 71
     2
176
     1
 72
     2
176
     1
 73
     0
176
     1
 90
        0
176
     1
 40
-0.6
176
     1
 41
-30.0
176
     1
 62
     5
 63
     7
421
 16777215
176
     1
 74
     1
176
     1
 91
        4
176
     1
 64
     7
176
     1
 65
   257
176
     1
 75
     1
176
     1
175
     1
176
     1
 42
1.0
176
     1
 92
        8
176
     1
 66
     7
176
     1
 43
1.0
176
     1
 76
     1
176
     1
 77
     6
176
     1
 78
     2
176
     1
 67
     7
176
     1
 79
     5
176
     1
170
     0
176
     1
171
     0
176
     1
290
     0
176
     1
 93
        1
176
     1
 44
-50.0
176
     1
173
     0
176
     1
  0
VISUALSTYLE
  5
39
102
{ACAD_REACTORS
330
2A
102
}
330
2A
100
AcDbVisualStyle
  2
Facepattern
 70
    15
177
     2
291
     1
 71
     2
176
     1
 72
     2
176
     1
 73
     0
176
     1
 90
        0
176
     1
 40
-0.6
176
     1
 41
-30.0
176
     1
 62
     5
 63
     7
421
 16777215
176
     1
 74
     1
176
     1
 91
        4
176
     1
 64
     7
176
     1
 65
   257
176
     1
 75
     1
176
     1
175
     1
176
     1
 42
1.0
176
     1
 92
        8
176
     1
 66
     7
176
     1
 43
1.0
176
     1
 76
     1
176
     1
 77
     6
176
     1
 78
     2
176
     1
 67
     7
176
     1
 79
     5
176
     1
170
     0
176
     1
171
     0
176
     1
290
     0
176
     1
 93
        1
176
     1
 44
0.0
176
     1
173
     0
176
     1
  0
VISUALSTYLE
  5
2B
102
{ACAD_REACTORS
330
2A
102
}
330
2A
100
AcDbVisualStyle
  2
Flat
 70
     0
177
     2
291
     1
 71
     2
176
     1
 72
     1
176
     1
 73
     1
176
     1
 90
        2
176
     1
 40
-0.6
176
     1
 41
30.0
176
     1
 62
     5
 63
     7
421
 16777215
176
     1
 74
     0
176
     1
 91
        4
176
     1
 64
     7
176
     1
 65
   257
176
     1
 75
     1
176
     1
175
     1
176
     1
 42
1.0
176
     1
 92
        8
176
     1
 66
     7
176
     1
 43
1.0
176
     1
 76
     1
176
     1
 77
     6
176
     1
 78
     2
176
     1
 67
     7
176
     1
 79
     5
176
     1
170
     0
176
     1
171
     0
176
     1
290
     0
176
     1
 93
       13
176
     1
 44
0.0
176
     1
173
     0
176
     1
  0
VISUALSTYLE
  5
2C
102
{ACAD_REACTORS
330
2A
102
}
330
2A
100
AcDbVisualStyle
  2
FlatWithEdges
 70
     1
177
     2
291
     1
 71
     2
176
     1
 72
     1
176
     1
 73
     1
176
     1
 90
        2
176
     1
 40
-0.6
176
     1
 41
30.0
176
     1
 62
     5
 63
     7
421
 16777215
176
     1
 74
     1
176
     1
 91
        4
176
     1
 64
     7
176
     1
 65
   257
176
     1
 75
     1
176
     1
175
     1
176
     1
 42
1.0
176
     1
 92
        0
176
     1
 66
   257
176
     1
 43
1.0
176
     1
 76
     1
176
     1
 77
     6
176
     1
 78
     2
176
     1
 67
     7
176
     1
 79
     5
176
     1
170
     0
176
     1
171
     0
176
     1
290
     0
176
     1
 93
       13
176
     1
 44
0.0
176
     1
173
     0
176
     1
  0
VISUALSTYLE
  5
2D
102
{ACAD_REACTORS
330
2A
102
}
330
2A
100
AcDbVisualStyle
  2
Gouraud
 70
     2
177
     2
291
     1
 71
     2
176
     1
 72
     2
176
     1
 73
     1
176
     1
 90
        2
176
     1
 40
-0.6
176
     1
 41
30.0
176
     1
 62
     5
 63
     7
421
 16777215
176
     1
 74
     0
176
     1
 91
        4
176
     1
 64
     7
176
     1
 65
   257
176
     1
 75
     1
176
     1
175
     1
176
     1
 42
1.0
176
     1
 92
        0
176
     1
 66
     7
176
     1
 43
1.0
176
     1
 76
     1
176
     1
 77
     6
176
     1
 78
     2
176
     1
 67
     7
176
     1
 79
     5
176
     1
170
     0
176
     1
171
     0
176
     1
290
     0
176
     1
 93
       13
176
     1
 44
0.0
176
     1
173
     0
176
     1
  0
VISUALSTYLE
  5
2E
102
{ACAD_REACTORS
330
2A
102
}
330
2A
100
AcDbVisualStyle
  2
GouraudWithEdges
 70
     3
177
     2
291
     1
 71
     2
176
     1
 72
     2
176
     1
 73
     1
176
     1
 90
        2
176
     1
 40
-0.6
176
     1
 41
30.0
176
     1
 62
     5
 63
     7
421
 16777215
176
     1
 74
     1
176
     1
 91
        4
176
     1
 64
     7
176
     1
 65
   257
176
     1
 75
     1
176
     1
175
     1
176
     1
 42
1.0
176
     1
 92
        0
176
     1
 66
   257
176
     1
 43
1.0
176
     1
 76
     1
176
     1
 77
     6
176
     1
 78
     2
176
     1
 67
     7
176
     1
 79
     5
176
     1
170
     0
176
     1
171
     0
176
     1
290
     0
176
     1
 93
       13
176
     1
 44
0.0
176
     1
173
     0
176
     1
  0
VISUALSTYLE
  5
38
102
{ACAD_REACTORS
330
2A
102
}
330
2A
100
AcDbVisualStyle
  2
Linepattern
 70
    14
177
     2
291
     1
 71
     2
176
     1
 72
     2
176
     1
 73
     0
176
     1
 90
        0
176
     1
 40
-0.6
176
     1
 41
-30.0
176
     1
 62
     5
 63
     7
421
 16777215
176
     1
 74
     1
176
     1
 91
        4
176
     1
 64
     7
176
     1
 65
   257
176
     1
 75
     7
176
     1
175
     7
176
     1
 42
1.0
176
     1
 92
        8
176
     1
 66
     7
176
     1
 43
1.0
176
     1
 76
     1
176
     1
 77
     6
176
     1
 78
     2
176
     1
 67
     7
176
     1
 79
     5
176
     1
170
     0
176
     1
171
     0
176
     1
290
     0
176
     1
 93
        1
176
     1
 44
0.0
176
     1
173
     0
176
     1
  0
VISUALSTYLE
  5
33
102
{ACAD_REACTORS
330
2A
102
}
330
2A
100
AcDbVisualStyle
  2
Realistic
 70
     8
177
     2
291
     0
 71
     2
176
     1
 72
     2
176
     1
 73
     0
176
     1
 90
        0
176
     1
 40
-0.6
176
     1
 41
-30.0
176
     1
 62
     5
 63
     7
421
 16777215
176
     1
 74
     1
176
     1
 91
        0
176
     1
 64
     7
176
     1
 65
   257
176
     1
 75
     1
176
     1
175
     1
176
     1
 42
1.0
176
     1
 92
        8
176
     1
 66
     8
424
  7895160
176
     1
 43
1.0
176
     1
 76
     1
176
     1
 77
     6
176
     1
 78
     2
176
     1
 67
     7
176
     1
 79
     5
176
     1
170
     0
176
     1
171
     0
176
     1
290
     0
176
     1
 93
       13
176
     1
 44
0.0
176
     1
173
     0
176
     1
  0
VISUALSTYLE
  5
37
102
{ACAD_REACTORS
330
2A
102
}
330
2A
100
AcDbVisualStyle
  2
Thicken
 70
    13
177
     2
291
     1
 71
     2
176
     1
 72
     2
176
     1
 73
     0
176
     1
 90
        0
176
     1
 40
-0.6
176
     1
 41
-30.0
176
     1
 62
     5
 63
     7
421
 16777215
176
     1
 74
     1
176
     1
 91
        4
176
     1
 64
     7
176
     1
 65
   257
176
     1
 75
     1
176
     1
175
     1
176
     1
 42
1.0
176
     1
 92
       12
176
     1
 66
     7
176
     1
 43
1.0
176
     1
 76
     1
176
     1
 77
     6
176
     1
 78
     2
176
     1
 67
     7
176
     1
 79
     5
176
     1
170
     0
176
     1
171
     0
176
     1
290
     0
176
     1
 93
        1
176
     1
 44
0.0
176
     1
173
     0
176
     1
  0
ENDSEC
  0
EOF
