M48
; DRILL file {KiCad (6.0.9)} date Sun Dec  4 20:33:57 2022
; FORMAT={-:-/ absolute / inch / decimal}
; #@! TF.CreationDate,2022-12-04T20:33:57+01:00
; #@! TF.GenerationSoftware,Kicad,Pcbnew,(6.0.9)
; #@! TF.FileFunction,Plated,1,2,PTH
FMAT,2
INCH
; #@! TA.AperFunction,Plated,PTH,ViaDrill
T1C0.0157
; #@! TA.AperFunction,Plated,PTH,ComponentDrill
T2C0.0157
; #@! TA.AperFunction,Plated,PTH,ComponentDrill
T3C0.0320
; #@! TA.AperFunction,Plated,PTH,ComponentDrill
T4C0.0394
; #@! TA.AperFunction,Plated,PTH,ComponentDrill
T5C0.0512
%
G90
G05
T1
X2.4311Y-2.9262
X2.4311Y-3.0561
X2.4311Y-4.2412
X2.4351Y-3.3357
X2.4351Y-4.0719
X2.4351Y-4.1546
X2.4351Y-4.2963
X2.4351Y-4.4538
X2.439Y-3.5207
X2.439Y-3.6939
X2.439Y-3.9617
X2.441Y-2.7215
X2.441Y-2.7904
X2.441Y-3.2333
X2.441Y-3.44
X2.441Y-3.6073
X2.441Y-3.7845
X2.441Y-4.0109
X2.441Y-4.375
X2.441Y-4.5325
X2.441Y-4.7392
X2.4508Y-4.2077
X2.4606Y-4.8475
X2.4705Y-2.9282
X2.4705Y-4.1093
X2.4803Y-3.3613
X2.5197Y-2.7215
X2.5197Y-2.8002
X2.5295Y-4.7372
X2.5295Y-4.8475
X2.5315Y-3.238
X2.5335Y-3.9892
X2.5394Y-3.44
X2.5492Y-4.1093
X2.5689Y-2.7609
X2.5788Y-3.3219
X2.5807Y-2.8199
X2.5886Y-3.4991
X2.5886Y-4.2372
X2.5925Y-3.564
X2.5965Y-4.3278
X2.5965Y-4.4302
X2.6083Y-2.9735
X2.6162Y-2.8987
X2.6437Y-3.0168
X2.6477Y-2.7117
X2.6477Y-3.4498
X2.6477Y-4.1683
X2.6477Y-4.2274
X2.6477Y-4.4735
X2.6575Y-3.3416
X2.7166Y-4.0601
X2.7362Y-3.2825
X2.7559Y-3.3514
X2.7815Y-4.7727
X2.7855Y-3.4498
X2.7855Y-4.1683
X2.7933Y-4.8475
X2.8012Y-3.1428
X2.8051Y-3.9026
X2.8189Y-3.3573
X2.874Y-2.7215
X2.874Y-2.9774
X2.874Y-3.0365
X2.874Y-3.4794
X2.874Y-3.7746
X2.874Y-4.4833
X2.874Y-4.5227
X2.8937Y-3.3317
X2.9036Y-4.0601
X2.9311Y-2.8838
X2.9351Y-3.6073
X2.9351Y-4.3396
X2.9429Y-4.2333
X2.9488Y-3.4872
X2.9528Y-4.1585
X2.9547Y-2.816
X2.9823Y-3.4302
X2.9823Y-3.6172
X2.9823Y-4.3554
X2.9981Y-2.7176
X3.002Y-2.9676
X3.002Y-4.1979
X3.0118Y-3.5187
X3.0217Y-3.4577
X3.0315Y-3.0365
X3.0315Y-4.4833
X3.0315Y-4.5424
X3.0374Y-3.7609
X3.0453Y-2.7845
X3.0453Y-4.6388
X3.0492Y-3.8908
X3.0512Y-2.9085
X3.0571Y-3.1349
X3.0709Y-4.2569
X3.0906Y-2.9676
X3.0906Y-3.312
X3.0906Y-3.6644
X3.0965Y-3.0365
X3.1004Y-3.2235
X3.1004Y-3.9813
X3.1004Y-4.0601
X3.1004Y-4.7294
X3.1083Y-3.568
X3.1103Y-2.7904
X3.1103Y-4.4931
X3.1122Y-3.7609
X3.1201Y-4.316
X3.1201Y-4.6408
X3.1299Y-3.8829
X3.1299Y-4.7589
X3.1378Y-4.4124
X3.1398Y-3.6172
X3.1496Y-2.9085
X3.1496Y-3.0365
X3.1496Y-3.5187
X3.1792Y-4.2372
X3.1792Y-4.3554
X3.1792Y-4.4931
X3.1792Y-4.5424
X3.1792Y-4.7195
X3.189Y-3.2235
X3.189Y-3.3219
X3.189Y-3.9813
X3.189Y-4.0699
X3.191Y-3.8042
X3.1969Y-3.6329
X3.1969Y-3.7195
X3.1988Y-4.7983
X3.2087Y-2.7609
X3.2185Y-4.1191
X3.2303Y-4.3888
X3.2303Y-4.4656
X3.2382Y-3.3593
X3.2382Y-3.4991
X3.2382Y-3.5778
X3.2481Y-3.627
X3.2579Y-4.3239
X3.2677Y-3.7254
X3.2776Y-2.938
X3.2776Y-3.2412
X3.2776Y-4.0798
X3.2815Y-3.438
X3.2815Y-3.5325
X3.2815Y-4.7372
X3.2973Y-4.2569
X3.3091Y-3.9931
X3.3169Y-3.5788
X3.3248Y-2.7569
X3.3288Y-3.3632
X3.3357Y-4.2815
X3.3366Y-3.7294
X3.3366Y-4.3711
X3.3445Y-2.8317
X3.3465Y-3.4892
X3.3494Y-3.4331
X3.3563Y-3.568
X3.376Y-3.0168
X3.376Y-4.5128
X3.3878Y-3.4853
X3.3918Y-4.2372
X3.3957Y-2.9085
X3.3957Y-3.7294
X3.4646Y-4.6506
X3.4744Y-3.1644
X3.4823Y-3.2766
X3.4981Y-3.375
X3.4981Y-4.1113
X3.502Y-3.4341
X3.504Y-4.7589
X3.5177Y-4.1939
X3.5217Y-4.0246
X3.5433Y-4.6506
X3.6043Y-2.7057
X3.6122Y-4.503
X3.624Y-2.9735
X3.6319Y-3.7943
X3.6437Y-3.7294
X3.6516Y-3.4794
X3.6614Y-2.9872
X3.6713Y-2.8987
X3.6713Y-4.3475
X3.6831Y-2.7845
X3.687Y-3.5994
X3.7106Y-3.4794
X3.7185Y-4.1152
X3.7195Y-4.1851
X3.7215Y-4.3386
X3.7264Y-3.3987
X3.7343Y-3.6152
X3.7402Y-3.44
X3.7402Y-3.4991
X3.7402Y-3.7156
X3.7658Y-4.1467
X3.7658Y-4.2136
X3.7795Y-2.9971
X3.7894Y-3.0463
X3.7933Y-3.8987
X3.7933Y-4.6388
X3.7992Y-3.6565
X3.8012Y-3.1388
X3.8189Y-4.4243
X3.8248Y-4.1428
X3.8288Y-2.8987
X3.8288Y-3.7943
X3.8386Y-3.9715
X3.8386Y-4.7884
X3.8484Y-3.2431
X3.8484Y-4.0207
X3.8484Y-4.5522
X3.8524Y-3.316
X3.8583Y-2.8298
X3.8681Y-2.7609
X3.8681Y-3.7254
X3.8681Y-3.8928
X3.8681Y-4.6998
X3.878Y-3.1349
X3.878Y-4.2746
X3.8799Y-4.3908
X3.8878Y-2.9872
X3.8878Y-3.6565
X3.9075Y-4.562
X3.9114Y-4.7924
X3.9232Y-4.1231
X3.9232Y-4.2176
X3.9272Y-3.312
X3.9272Y-3.7845
X3.9272Y-4.0207
X3.937Y-3.0758
X3.937Y-3.5778
X3.9429Y-4.0719
X3.9567Y-2.7806
X3.9567Y-3.1447
X3.9567Y-4.6408
X3.9744Y-4.2727
X3.9744Y-4.3593
X3.9764Y-3.942
X3.9823Y-2.6585
X3.9823Y-3.4538
X3.9823Y-3.5286
X3.9981Y-4.8002
X4.0138Y-2.6113
X4.0217Y-4.0719
X4.0217Y-4.6664
X4.0256Y-4.0207
X4.0295Y-4.5522
X4.0335Y-3.0522
X4.0355Y-3.2727
X4.0355Y-3.4302
X4.0355Y-3.8928
X4.0374Y-4.1703
X4.0414Y-3.3829
X4.0492Y-3.1861
X4.0492Y-3.8002
X4.063Y-3.1329
X4.0847Y-3.312
X4.0847Y-4.0325
X4.0925Y-2.7097
X4.0965Y-3.4183
X4.0965Y-3.5325
X4.1043Y-4.2963
X4.1142Y-3.2136
X4.1142Y-3.9321
X4.128Y-3.2648
X4.1339Y-4.3455
X4.1437Y-4.2963
X4.1477Y-2.7845
X4.1477Y-3.5404
X4.1516Y-2.7254
X4.1634Y-4.001
X4.2028Y-3.2038
X4.2028Y-3.253
X4.2028Y-4.4538
X4.2225Y-3.9321
X4.25Y-4.8042
X4.252Y-4.5719
X4.2579Y-3.0876
X4.2579Y-3.8396
X4.2618Y-4.6821
X4.2638Y-3.188
X4.2717Y-3.253
X4.2736Y-3.9144
X4.2914Y-2.9577
X4.2914Y-4.001
X4.3012Y-3.7057
X4.3012Y-4.4538
X4.3307Y-3.9223
X4.3484Y-2.5286
X4.3504Y-4.2865
X4.3603Y-2.7215
X4.3603Y-3.2038
X4.3701Y-2.7904
X4.3701Y-2.8298
X4.3799Y-3.5561
X4.3799Y-4.3455
X4.3996Y-4.0404
X4.3996Y-4.2865
X4.4193Y-3.2924
X4.4351Y-3.3908
X4.439Y-2.7117
X4.4469Y-4.1585
X4.4488Y-3.44
X4.4587Y-2.5955
X4.4587Y-2.5955
X4.4784Y-4.0601
X4.4882Y-2.7806
X4.4882Y-4.2865
X4.4902Y-4.1428
X4.4981Y-2.6821
X4.4981Y-3.5483
X4.5276Y-3.9223
X4.5276Y-4.69
X4.5414Y-4.4498
X4.5453Y-2.9538
X4.5453Y-4.7963
X4.5473Y-3.2333
X4.5473Y-3.2924
X4.5492Y-3.7136
X4.5571Y-4.2077
X4.5669Y-2.7313
X4.5669Y-3.5187
X4.5768Y-4.3652
X4.5807Y-2.5955
X4.5866Y-3.8632
X4.5965Y-3.0365
X4.5965Y-3.1447
X4.5965Y-3.7746
X4.5965Y-4.6408
X4.6063Y-3.6467
X4.6063Y-4.1979
X4.6063Y-4.2668
X4.6162Y-4.0404
X4.6162Y-4.4243
X4.6162Y-4.5128
X4.624Y-4.5876
X4.626Y-2.6821
X4.626Y-2.879
X4.626Y-3.4991
X4.628Y-3.3868
X4.6457Y-4.3652
X4.6654Y-2.6034
X4.6654Y-3.1447
X4.6654Y-3.2333
X4.6654Y-3.3317
X4.6654Y-4.7983
X4.6752Y-2.9479
X4.6752Y-3.0365
X4.6752Y-3.4498
X4.6752Y-4.6191
X4.6851Y-3.5187
X4.6851Y-3.6861
X4.6851Y-3.9026
X4.6851Y-4.0896
X4.6851Y-4.1979
X4.6851Y-4.2668
X4.6851Y-4.4439
X4.6851Y-4.5128
X4.6851Y-4.7294
X4.7244Y-3.3593
X4.7244Y-3.435
X4.7244Y-4.1053
X4.7244Y-4.1831
X4.7244Y-2.7609
X4.7244Y-3.1132
X4.7244Y-4.8376
X4.7264Y-3.0561
X4.7343Y-2.5246
X4.7343Y-4.5837
X4.748Y-3.1381
X4.7638Y-5.0542
X4.7736Y-2.4754
X4.7776Y-2.9617
X4.7776Y-4.4577
X4.7815Y-3.3396
X4.7835Y-2.5148
X4.7835Y-2.6821
X4.7855Y-2.5758
X4.7933Y-3.7943
X4.7933Y-4.0325
X4.7973Y-4.0916
X4.8012Y-3.1506
X4.8012Y-3.7136
X4.8032Y-3.9518
X4.8042Y-3.0886
X4.811Y-3.2668
X4.813Y-2.4754
X4.8229Y-4.9459
X4.8327Y-2.6034
X4.8327Y-4.7392
X4.8445Y-3.9302
X4.8445Y-4.5837
X4.8721Y-3.4794
X4.8721Y-4.2274
X4.8819Y-2.751
X4.8819Y-3.9321
X4.8819Y-4.2569
X4.8918Y-5.0148
X4.9016Y-3.4498
X4.9016Y-3.8632
X4.9114Y-2.6821
X4.9114Y-5.2609
X4.9213Y-5.2018
X4.9508Y-3.6073
X4.9508Y-4.8376
X4.9508Y-4.9656
X4.9606Y-2.879
X4.9606Y-4.3652
X4.9902Y-3.7451
X4.9902Y-3.8199
X5.002Y-2.9853
X5.002Y-4.5916
X5.002Y-4.8278
X5.0099Y-4.4853
X5.0099Y-5.1329
X5.0591Y-3.8435
X5.0591Y-4.9557
X5.0886Y-3.9124
X5.0965Y-2.4262
X5.1083Y-2.692
X5.1181Y-4.7491
X5.1201Y-3.4459
X5.124Y-4.1939
X5.1477Y-5.005
X5.1575Y-2.4656
X5.1713Y-2.5089
X5.1713Y-3.3239
X5.1713Y-4.8002
X5.1713Y-5.3278
X5.1831Y-2.6231
X5.1831Y-4.064
X5.187Y-4.6605
X5.2067Y-3.2136
X5.2166Y-2.4656
X5.2264Y-3.9813
X5.2362Y-2.6428
X5.2362Y-2.692
X5.2377Y-4.0567
X5.2431Y-3.1575
X5.2461Y-4.188
X5.254Y-3.379
X5.2559Y-3.4597
X5.2559Y-5.064
X5.2559Y-5.1231
X5.2579Y-4.7806
X5.2776Y-4.5286
X5.2776Y-4.5876
X5.2855Y-2.8593
X5.2855Y-3.8337
X5.2855Y-4.69
X5.2914Y-4.3573
X5.2933Y-3.6191
X5.2953Y-2.6526
X5.315Y-3.4203
X5.315Y-4.1388
X5.315Y-4.4439
X5.3248Y-3.1054
X5.3248Y-5.2215
X5.3288Y-4.6939
X5.3327Y-4.6113
X5.3347Y-4.5227
X5.3445Y-3.2333
X5.3543Y-3.7451
X5.3642Y-2.6585
X5.3642Y-3.9617
X5.3642Y-4.2963
X5.3651Y-2.6103
X5.374Y-3.6565
X5.374Y-4.4636
X5.374Y-4.7687
X5.374Y-5.3494
X5.3839Y-3.0463
X5.3839Y-3.0857
X5.3839Y-4.1979
X5.3937Y-4.5227
X5.3996Y-2.7569
X5.4134Y-3.2235
X5.4134Y-3.5286
X5.4232Y-2.692
X5.4232Y-3.3416
X5.4232Y-3.6073
X5.4232Y-4.2372
X5.4232Y-4.3554
X5.4232Y-5.2215
X5.4232Y-5.4931
X5.4331Y-2.5837
X5.4331Y-3.1054
X5.4331Y-3.7943
X5.4331Y-4.0109
X5.4331Y-4.0798
X5.4351Y-2.5561
X5.4429Y-3.8731
X5.4469Y-4.4695
X5.4469Y-4.6073
X5.4528Y-2.8298
X5.4528Y-4.6605
X5.4705Y-4.2608
X5.4747Y-3.4456
X5.4747Y-3.5288
X5.4761Y-4.1607
X5.4882Y-3.1811
X5.4921Y-4.7983
X5.4921Y-5.064
X5.4921Y-5.1132
X5.5059Y-2.627
X5.5217Y-3.0561
X5.5217Y-3.3613
X5.5217Y-4.0306
X5.5217Y-4.1388
X5.5217Y-4.7294
X5.5217Y-5.4971
X5.5315Y-3.8928
X5.5414Y-3.1309
X5.5414Y-3.2333
X5.5453Y-2.6743
X5.5492Y-4.5561
X5.5512Y-5.005
X5.5532Y-2.6113
X5.5532Y-3.8081
X5.5729Y-4.1624
X5.5807Y-3.3829
X5.5847Y-2.5601
X5.5847Y-3.442
X5.5886Y-5.5089
X5.5925Y-4.2806
X5.5925Y-4.9026
X5.6103Y-4.8081
X5.6162Y-3.5365
X5.6299Y-3.9321
X5.6299Y-4.0207
X5.6299Y-5.0542
X5.6398Y-2.7136
X5.6398Y-2.7963
X5.6398Y-2.7963
X5.6398Y-4.2963
X5.6496Y-5.1231
X5.6673Y-5.2333
X5.6752Y-5.5246
X5.6792Y-4.7491
X5.689Y-3.9321
X5.7087Y-5.3691
X5.7087Y-5.4971
X5.7185Y-3.2333
X5.7185Y-5.005
X5.7382Y-5.2707
X5.7386Y-4.9345
X5.7421Y-4.879
X5.7461Y-4.5916
X5.7481Y-5.1624
X5.75Y-3.0955
X5.75Y-3.8435
X5.754Y-3.9105
X5.7618Y-3.1821
X5.7658Y-4.9813
X5.7677Y-4.001
X5.7677Y-5.3298
X5.7776Y-2.9676
X5.7874Y-3.6959
X5.7874Y-4.4636
X5.7874Y-4.8573
X5.7973Y-5.5365
X5.8071Y-4.7786
X5.8071Y-5.005
X5.8169Y-5.0837
X5.8169Y-5.2313
X5.8268Y-5.3691
X5.8445Y-2.5207
X5.8563Y-3.2136
X5.8563Y-3.9321
X5.8662Y-2.8199
X5.8662Y-4.2865
X5.8662Y-4.3455
X5.8662Y-4.7392
X5.8662Y-5.1428
X5.876Y-3.5581
X5.876Y-4.8081
X5.876Y-5.005
X5.8858Y-5.4971
X5.8957Y-4.0306
X5.9154Y-3.2825
X5.9173Y-2.5975
X5.9193Y-4.1388
X5.9311Y-3.4026
X5.9351Y-3.2235
X5.9351Y-5.5463
X5.9429Y-4.8554
X5.9646Y-2.692
X5.9646Y-5.3888
X5.9744Y-3.9715
X5.9744Y-4.0601
X5.9744Y-4.8081
X5.9784Y-4.1388
X5.9843Y-2.7904
X5.9974Y-4.6613
X6.002Y-3.4656
X6.004Y-4.2865
X6.004Y-4.7392
X6.004Y-5.0935
X6.0059Y-5.568
X6.0138Y-3.2038
X6.0236Y-3.3416
X6.0236Y-4.6368
X6.0295Y-4.8908
X6.0335Y-4.9557
X6.0374Y-2.9459
X6.0374Y-4.4656
X6.0414Y-3.7136
X6.0453Y-4.9892
X6.063Y-3.5187
X6.063Y-3.9026
X6.063Y-3.9715
X6.063Y-4.2274
X6.0729Y-5.5758
X6.0827Y-3.0365
X6.0827Y-3.1054
X6.0827Y-5.1821
X6.0847Y-4.9459
X6.0886Y-4.7018
X6.0906Y-4.627
X6.0965Y-4.8987
X6.1122Y-2.6624
X6.1122Y-2.8002
X6.1122Y-2.8888
X6.1122Y-4.375
X6.1122Y-4.562
X6.1132Y-4.6576
X6.1221Y-4.2766
X6.1221Y-5.0837
X6.1319Y-3.0365
X6.1319Y-4.503
X6.1319Y-5.3199
X6.1418Y-4.6113
X6.1418Y-5.438
X6.1516Y-4.7786
X6.1713Y-3.7057
X6.1713Y-3.9715
X6.1713Y-4.0798
X6.1811Y-2.9577
X6.1811Y-3.1349
X6.1811Y-4.7491
X6.191Y-4.0207
X6.191Y-4.7057
X6.1929Y-4.566
X6.2106Y-3.3514
X6.2205Y-4.0798
X6.2205Y-5.3396
X6.2264Y-3.2806
X6.2303Y-2.8888
X6.2303Y-4.7983
X6.2402Y-4.7294
X6.25Y-2.6624
X6.25Y-4.001
X6.2618Y-2.7057
X6.2618Y-4.8514
X6.2658Y-4.312
X6.2658Y-3.5699
X6.2668Y-3.2737
X6.2677Y-3.4597
X6.2697Y-4.1152
X6.2736Y-3.1428
X6.2855Y-3.2333
X6.2894Y-4.7786
X6.2973Y-2.6546
X6.2973Y-4.6467
X6.2992Y-4.3652
X6.3051Y-3.9105
X6.3169Y-4.8564
X6.3189Y-5.251
X6.3209Y-3.3868
X6.3248Y-3.505
X6.3288Y-5.1821
X6.3327Y-2.7254
X6.3327Y-4.1861
X6.3386Y-2.7904
X6.3425Y-4.9203
X6.3435Y-3.622
X6.3484Y-4.8002
X6.3583Y-3.566
X6.378Y-4.3947
X6.378Y-4.4439
X6.3878Y-2.8888
X6.4016Y-4.066
X6.4114Y-4.9341
X6.4272Y-5.0522
X6.439Y-5.4144
X6.4469Y-3.0463
X6.4469Y-4.5424
X6.4567Y-4.0896
X6.4567Y-5.2313
X6.4666Y-5.3002
X6.4764Y-4.0404
X6.4862Y-5.4971
X6.4862Y-5.6152
X6.4941Y-3.9402
X6.4961Y-3.1743
X6.4961Y-4.6703
X6.4961Y-4.9853
X6.5043Y-5.0774
X6.5158Y-4.8967
X6.5177Y-3.8239
X6.5256Y-4.7884
X6.5256Y-5.4479
X6.5355Y-5.1624
X6.5355Y-5.3002
X6.5453Y-3.0463
X6.5453Y-4.5424
X6.5551Y-5.6447
X6.5571Y-3.812
X6.5748Y-5.4971
X6.5768Y-5.0404
X6.5886Y-5.1309
X6.5906Y-2.6172
X6.5925Y-3.6349
X6.5945Y-4.3849
X6.5945Y-5.4479
X6.6142Y-2.8987
X6.6142Y-2.938
X6.6142Y-4.129
X6.624Y-4.4439
X6.628Y-3.69
X6.628Y-5.2412
X6.6299Y-5.3239
X6.6378Y-4.9715
X6.6378Y-5.1624
X6.6477Y-5.3672
X6.6595Y-5.2806
X6.6713Y-4.2569
X6.6732Y-3.3908
X6.6732Y-5.0542
X6.6792Y-3.438
X6.6792Y-4.7766
X6.6929Y-4.8573
X6.6949Y-2.6861
X6.7126Y-4.3652
X6.7146Y-5.6113
X6.7185Y-3.3032
X6.7303Y-3.5128
X6.7421Y-2.7806
X6.7618Y-5.3691
X6.7658Y-3.6467
X6.7658Y-3.7097
X6.7658Y-4.2412
X6.7658Y-4.8435
X6.7717Y-2.8987
X6.7717Y-2.9479
X6.7717Y-4.4538
X6.7776Y-5.2865
X6.7815Y-3.816
X6.7815Y-4.0306
X6.7855Y-3.0404
X6.7914Y-2.7412
X6.7914Y-4.3652
X6.8012Y-3.3514
X6.8051Y-3.2687
X6.8051Y-4.564
X6.811Y-2.7707
X6.811Y-3.3908
X6.811Y-4.2668
X6.811Y-5.0443
X6.8209Y-2.6861
X6.8209Y-3.8928
X6.8209Y-4.4538
X6.8209Y-4.7589
X6.8307Y-2.8987
X6.8307Y-2.9479
X6.8307Y-3.1447
X6.8307Y-3.2136
X6.8445Y-5.3613
X6.8504Y-3.9715
X6.8504Y-4.1782
X6.8524Y-3.3672
X6.8603Y-3.6467
X6.8681Y-4.6388
X6.8681Y-4.7176
X6.8701Y-2.7806
X6.8701Y-3.7451
X6.8701Y-3.8632
X6.879Y-3.439
X6.8799Y-2.7313
X6.8799Y-4.9754
X6.8799Y-5.1152
X6.8799Y-5.7038
X6.8957Y-3.6506
X6.8996Y-4.5916
X6.9075Y-3.2609
X6.9095Y-4.7392
X6.9193Y-3.1841
X6.9193Y-4.8672
X6.9292Y-3.8928
X6.9292Y-4.2471
X6.9292Y-4.375
X6.9292Y-4.4931
X6.9292Y-4.6408
X6.939Y-3.312
X6.939Y-4.0994
X6.9449Y-5.2313
X6.9587Y-3.3672
X6.9587Y-5.0542
X6.9784Y-4.9164
X6.9862Y-4.2609
X6.9862Y-4.316
X6.9862Y-4.3711
X6.9981Y-3.2628
X6.9981Y-3.9715
X7.0079Y-3.3908
X7.0177Y-2.7609
X7.0177Y-2.8691
X7.0177Y-4.5817
X7.0256Y-3.4931
X7.0256Y-4.2136
X7.0256Y-4.4183
X7.0355Y-2.6959
X7.0374Y-4.0109
X7.0374Y-4.1388
X7.0453Y-3.3435
X7.0492Y-3.8987
X7.0492Y-5.0857
X7.0492Y-5.1447
X7.0571Y-2.7845
X7.0571Y-3.1664
X7.0669Y-2.8593
X7.0729Y-2.6585
X7.0729Y-3.4735
X7.0768Y-4.7195
X7.0866Y-5.5857
X7.0886Y-5.9735
X7.0965Y-4.2136
X7.0965Y-4.4183
X7.0965Y-4.6211
X7.0965Y-4.9577
X7.1063Y-5.8022
X7.1162Y-2.9026
X7.1162Y-3.6467
X7.1162Y-4.0502
X7.1162Y-4.1388
X7.1162Y-4.7491
X7.126Y-2.8199
X7.126Y-2.938
X7.126Y-5.9794
X7.1358Y-3.3809
X7.1555Y-4.7097
X7.1595Y-6.0246
X7.1634Y-5.7609
X7.1673Y-4.2136
X7.1673Y-4.4183
X7.1752Y-2.8494
X7.1792Y-5.1546
X7.1851Y-3.3317
X7.1949Y-6.0601
X7.2047Y-3.0758
X7.2047Y-5.2313
X7.2146Y-4.0502
X7.2146Y-4.1388
X7.2146Y-4.6211
X7.2146Y-5.8514
X7.2244Y-5.4676
X7.2244Y-5.6743
X7.2343Y-5.5561
X7.2343Y-6.1034
X7.2382Y-4.2136
X7.2382Y-4.4183
X7.2441Y-3.814
X7.2441Y-3.9026
X7.2441Y-5.9695
X7.25Y-3.1979
X7.25Y-3.3081
X7.25Y-5.2727
X7.254Y-6.0778
X7.2638Y-4.8081
X7.2638Y-5.3888
X7.2815Y-6.1467
X7.2835Y-3.3514
X7.2835Y-5.2904
X7.2855Y-4.5522
X7.3012Y-4.9931
X7.3091Y-4.2136
X7.3091Y-4.4183
X7.3229Y-3.629
X7.3229Y-5.4676
X7.3229Y-5.6349
X7.3288Y-6.19
X7.3327Y-2.627
X7.3327Y-4.0502
X7.3327Y-4.1388
X7.3327Y-4.7195
X7.3327Y-5.3475
X7.3366Y-2.8317
X7.3484Y-6.0207
X7.3524Y-5.7235
X7.3681Y-6.2333
X7.3711Y-5.4823
X7.3721Y-3.6861
X7.3721Y-4.4813
X7.3799Y-4.2136
X7.3799Y-4.4183
X7.3819Y-2.9282
X7.3819Y-3.3317
X7.3849Y-3.6121
X7.4016Y-2.8199
X7.4016Y-5.5561
X7.4036Y-3.4341
X7.4154Y-6.2766
X7.4232Y-2.8593
X7.4311Y-4.0502
X7.4311Y-4.1388
X7.4311Y-4.5522
X7.4331Y-5.6683
X7.437Y-2.7117
X7.441Y-5.2806
X7.4508Y-3.3317
X7.4508Y-4.2136
X7.4508Y-4.4183
X7.4508Y-5.438
X7.4508Y-5.6152
X7.4606Y-2.6723
X7.4626Y-6.3239
X7.4705Y-3.3829
X7.4754Y-5.4823
X7.4803Y-6.1959
X7.4823Y-3.5325
X7.4902Y-5.438
X7.5Y-2.8101
X7.5Y-2.8888
X7.502Y-6.3672
X7.5059Y-5.6349
X7.5099Y-2.692
X7.5197Y-5.812
X7.5217Y-4.2136
X7.5217Y-4.4183
X7.5295Y-3.3317
X7.5295Y-4.0502
X7.5295Y-4.1388
X7.5295Y-5.3593
X7.5295Y-6.0876
X7.5374Y-3.8002
X7.5394Y-3.6861
X7.5394Y-4.5719
X7.5453Y-3.068
X7.5453Y-5.1113
X7.5492Y-6.4105
X7.5512Y-3.3061
X7.5591Y-3.253
X7.5591Y-3.4498
X7.5591Y-5.9498
X7.561Y-5.5798
X7.5689Y-3.5286
X7.5689Y-5.7727
X7.5788Y-5.2117
X7.5847Y-2.7963
X7.5886Y-3.1841
X7.5886Y-6.1467
X7.5925Y-3.3947
X7.5925Y-4.2136
X7.5925Y-4.4183
X7.5984Y-2.9183
X7.6083Y-3.8593
X7.6083Y-5.9105
X7.6142Y-3.3691
X7.6181Y-3.0463
X7.6181Y-3.7451
X7.6181Y-4.6506
X7.6181Y-5.5266
X7.624Y-3.9735
X7.628Y-2.7707
X7.6299Y-5.6132
X7.6358Y-4.7687
X7.6378Y-5.1526
X7.6378Y-5.3593
X7.6457Y-5.5542
X7.6477Y-5.0542
X7.6477Y-6.4715
X7.6575Y-3.1743
X7.6575Y-3.5286
X7.6634Y-4.2136
X7.6634Y-4.4183
X7.6634Y-5.7077
X7.6752Y-4.8514
X7.6772Y-5.6644
X7.6792Y-3.8593
X7.6831Y-4.9538
X7.687Y-3.3514
X7.687Y-3.6861
X7.687Y-5.4479
X7.7106Y-4.2609
X7.7106Y-4.316
X7.7106Y-4.3711
X7.7146Y-5.6368
X7.7166Y-4.7294
X7.7166Y-4.9951
X7.7215Y-6.1221
X7.7264Y-3.0955
X7.7264Y-3.8042
X7.7343Y-3.9656
X7.7461Y-2.9774
X7.7461Y-4.8278
X7.7461Y-5.7038
X7.7559Y-2.7806
X7.7559Y-3.2727
X7.7559Y-6.0778
X7.7638Y-4.8731
X7.7638Y-6.3219
X7.7658Y-3.4302
X7.7658Y-5.0542
X7.7756Y-5.2707
X7.7756Y-5.3987
X7.7756Y-5.566
X7.7855Y-5.753
X7.7862Y-3.7916
X7.7953Y-3.3416
X7.7998Y-5.6178
X7.8051Y-4.0601
X7.8051Y-4.1585
X7.8051Y-4.2569
X7.815Y-3.2038
X7.815Y-5.2018
X7.8248Y-5.1034
X7.8347Y-2.8101
X7.8347Y-3.6526
X7.8406Y-6.0561
X7.8445Y-2.879
X7.8445Y-3.4302
X7.8445Y-3.8632
X7.8445Y-3.9912
X7.8543Y-3.2333
X7.8637Y-5.2417
X7.8642Y-3.3317
X7.8642Y-3.9321
X7.8642Y-4.3258
X7.8642Y-5.3002
X7.8724Y-4.1533
X7.874Y-6.1073
X7.8799Y-5.4813
X7.8839Y-6.1762
X7.8937Y-5.7727
X7.9134Y-2.7806
X7.9193Y-5.9971
X7.9232Y-5.2117
X7.9331Y-4.3061
X7.9331Y-6.127
X7.9429Y-5.0148
X7.9429Y-5.7235
X7.9488Y-6.0266
X7.9528Y-4.3849
X7.9862Y-4.1349
X7.9941Y-4.2254
X8.0217Y-4.3947
X8.0217Y-5.9105
X8.022Y-2.8816
X8.0295Y-4.8357
X8.0315Y-2.7806
X8.0335Y-6.0601
X8.0351Y-2.9826
X8.0453Y-5.6034
X8.061Y-5.1329
X8.0681Y-2.9309
X8.0709Y-5.5463
X8.0847Y-5.1821
X8.0925Y-3.1309
X8.1043Y-5.064
X8.1083Y-6.0404
X8.1103Y-4.4636
X8.1103Y-5.3987
X8.1119Y-4.2061
X8.1201Y-4.4046
X8.1201Y-4.6388
X8.124Y-4.5365
X8.124Y-4.7412
X8.1293Y-3.9113
X8.1299Y-4.8672
X8.1319Y-2.7806
X8.1429Y-2.9309
X8.1477Y-6.001
X8.1595Y-3.1841
X8.1634Y-4.8987
X8.1693Y-5.9597
X8.1713Y-5.2136
X8.1792Y-4.4538
X8.1988Y-4.9361
X8.2062Y-3.2367
X8.2185Y-5.1231
X8.2267Y-3.9383
X8.2284Y-2.7806
X8.229Y-3.0131
X8.2335Y-2.9309
X8.2349Y-3.379
X8.2388Y-3.2845
X8.2425Y-3.9698
X8.2481Y-4.1979
X8.2661Y-3.232
X8.2661Y-3.9068
X8.2677Y-4.2963
X8.2677Y-4.9853
X8.2677Y-5.5955
X8.2693Y-2.8263
X8.2874Y-4.3652
X8.2894Y-3.0365
X8.2936Y-2.8856
X8.3051Y-5.7806
X8.3071Y-3.3908
X8.3169Y-2.7845
X8.3243Y-2.9261
X8.3268Y-5.2018
X8.3327Y-5.5286
X8.333Y-3.4305
X8.3366Y-3.3711
X8.3465Y-4.2569
X8.3465Y-4.3652
X8.3543Y-4.5817
X8.3603Y-4.9931
X8.3662Y-4.4636
X8.3662Y-5.6939
X8.3681Y-3.7963
X8.376Y-3.3908
X8.376Y-5.6054
X8.3763Y-3.4974
X8.3763Y-3.6037
X8.3842Y-3.6982
X8.3858Y-2.7806
X8.3897Y-2.9863
X8.3897Y-3.0346
X8.3952Y-3.3037
X8.4039Y-3.6628
X8.4039Y-3.8635
X8.405Y-3.7702
X8.4078Y-3.4659
X8.4078Y-3.5683
X8.409Y-3.3647
X8.4272Y-5.564
X8.4301Y-3.1309
X8.4449Y-4.7491
X8.4449Y-4.9951
X8.4469Y-5.4735
X8.4472Y-3.0809
X8.4623Y-3.9029
X8.4626Y-4.4617
X8.4646Y-3.9597
X8.4684Y-5.5897
X8.4823Y-4.501
X8.4843Y-5.3593
X8.504Y-2.7806
X8.5236Y-4.1683
X8.5236Y-4.2471
X8.5295Y-4.9892
X8.5433Y-4.6998
X8.5433Y-4.8081
X8.5433Y-5.4577
X8.5729Y-4.442
X8.5807Y-5.4302
X8.5827Y-4.0109
X8.5925Y-5.379
X8.6122Y-4.9951
X8.6162Y-4.438
X8.6221Y-4.3061
X8.6221Y-5.5168
X8.6319Y-2.8691
X8.6319Y-2.9774
X8.6319Y-3.0561
X8.6319Y-3.2825
X8.6319Y-3.5384
X8.6319Y-3.627
X8.6319Y-3.7353
X8.6319Y-3.8239
X8.6319Y-4.0404
X8.6319Y-4.1388
X8.6418Y-3.9223
X8.6516Y-5.0345
X8.6516Y-5.1723
X8.6516Y-5.2412
X8.6516Y-5.3101
X8.6555Y-3.1073
X8.6555Y-5.1073
X8.6614Y-5.4676
X8.6713Y-4.503
X8.6752Y-3.253
X8.6988Y-4.564
X8.7008Y-5.4282
X8.7067Y-3.1782
X8.7126Y-4.8967
T2
X2.4784Y-2.8514
X2.4784Y-3.0089
X2.5335Y-3.5246
X2.5335Y-3.6821
X2.5374Y-4.2963
X2.5374Y-4.4538
X3.2225Y-2.8475
X3.2225Y-3.005
X3.7973Y-3.5837
X3.7973Y-3.7412
X3.8012Y-4.3475
X3.8012Y-4.505
X4.5532Y-4.1349
X4.5532Y-4.2924
X4.5571Y-2.6585
X4.5571Y-2.816
X4.5669Y-3.44
X4.5669Y-3.5974
X5.0847Y-4.875
X5.0847Y-5.0325
X5.3012Y-2.568
X5.3012Y-2.7254
X5.315Y-3.3465
X5.315Y-3.5039
X5.315Y-4.0601
X5.315Y-4.2176
X5.9351Y-4.9577
X5.9351Y-5.1152
X6.0453Y-2.6585
X6.0453Y-2.816
X6.063Y-3.44
X6.063Y-3.5974
X6.063Y-4.1506
X6.063Y-4.3081
X6.1811Y-2.6919
X6.1811Y-2.8494
X6.1811Y-3.44
X6.1811Y-3.5974
X6.1811Y-4.1506
X6.1811Y-4.3081
X6.7106Y-5.1624
X6.7106Y-5.3199
X6.9587Y-2.7491
X6.9587Y-2.9065
X6.9587Y-3.5089
X6.9587Y-3.6664
X6.9606Y-4.7908
X7.0394Y-4.6544
X7.4502Y-5.7929
X7.5616Y-5.6816
X7.8637Y-5.1541
X7.9751Y-5.2654
T3
X7.9181Y-2.8809
X7.9181Y-2.9809
X7.9181Y-3.0809
X7.9181Y-3.1809
X7.9181Y-3.2809
X7.9181Y-3.3809
X7.9181Y-3.4809
X7.9181Y-3.5809
X7.9181Y-3.6809
X7.9181Y-3.7809
X7.9181Y-3.8809
X7.9181Y-3.9809
X7.9703Y-2.8309
X7.9703Y-2.9309
X7.9703Y-3.0309
X7.9703Y-3.1309
X7.9703Y-3.2309
X7.9703Y-3.3309
X7.9703Y-3.4309
X7.9703Y-3.5309
X7.9703Y-3.6309
X7.9703Y-3.7309
X7.9703Y-3.8309
X7.9703Y-3.9309
X8.081Y-4.2572
X8.081Y-4.3478
X8.0929Y-4.1509
X8.1929Y-4.1509
X8.2173Y-4.2572
X8.2173Y-4.3478
X8.2929Y-4.1509
X8.3929Y-4.1509
X8.4173Y-4.2572
X8.4173Y-4.3478
X8.5181Y-2.8809
X8.5181Y-2.9809
X8.5181Y-3.0809
X8.5181Y-3.1809
X8.5181Y-3.2809
X8.5181Y-3.3809
X8.5181Y-3.4809
X8.5181Y-3.5809
X8.5181Y-3.6809
X8.5181Y-3.7809
X8.5181Y-3.8809
X8.5181Y-3.9809
X8.5695Y-2.8309
X8.5695Y-2.9309
X8.5695Y-3.0309
X8.5695Y-3.1309
X8.5695Y-3.2309
X8.5695Y-3.3309
X8.5695Y-3.4309
X8.5695Y-3.5309
X8.5695Y-3.6309
X8.5695Y-3.7309
X8.5695Y-3.8309
X8.5695Y-3.9309
T5
X8.5495Y-4.0899
X8.5495Y-4.3458
T4
G00X8.2795Y-4.6998
M15
G01X8.2599Y-4.6998
M16
G05
G00X8.2795Y-4.7963
M15
G01X8.2599Y-4.7963
M16
G05
G00X8.3386Y-4.6309
M15
G01X8.3189Y-4.6309
M16
G05
G00X8.3386Y-4.8652
M15
G01X8.3189Y-4.8652
M16
G05
G00X8.4961Y-4.6309
M15
G01X8.4764Y-4.6309
M16
G05
G00X8.4961Y-4.8652
M15
G01X8.4764Y-4.8652
M16
G05
G00X8.6142Y-4.6309
M15
G01X8.5945Y-4.6309
M16
G05
G00X8.6142Y-4.8652
M15
G01X8.5945Y-4.8652
M16
G05
T0
M30
