G04 #@! TF.GenerationSoftware,KiCad,Pcbnew,(6.0.9)*
G04 #@! TF.CreationDate,2022-12-04T20:33:54+01:00*
G04 #@! TF.ProjectId,corne-cherry,636f726e-652d-4636-9865-7272792e6b69,2.1*
G04 #@! TF.SameCoordinates,Original*
G04 #@! TF.FileFunction,AssemblyDrawing,Top*
%FSLAX46Y46*%
G04 Gerber Fmt 4.6, Leading zero omitted, Abs format (unit mm)*
G04 Created by KiCad (PCBNEW (6.0.9)) date 2022-12-04 20:33:54*
%MOMM*%
%LPD*%
G01*
G04 APERTURE LIST*
%ADD10C,0.100000*%
%ADD11C,0.150000*%
G04 APERTURE END LIST*
D10*
X77050000Y-86750000D02*
X81950000Y-86750000D01*
X79500000Y-84300000D02*
X79500000Y-89200063D01*
X77050000Y-105500000D02*
X81950000Y-105500000D01*
X79500000Y-103050000D02*
X79500000Y-107950063D01*
X120300000Y-122750000D02*
X125200000Y-122750000D01*
X122750000Y-120300000D02*
X122750000Y-125200063D01*
X155500000Y-80550000D02*
X155500000Y-85450063D01*
X153050000Y-83000000D02*
X157950000Y-83000000D01*
D11*
X203131099Y-72814932D02*
X203131099Y-72338741D01*
X204131099Y-72338741D01*
X203131099Y-73291122D02*
X203178718Y-73195884D01*
X203226337Y-73148265D01*
X203321575Y-73100646D01*
X203607289Y-73100646D01*
X203702527Y-73148265D01*
X203750146Y-73195884D01*
X203797765Y-73291122D01*
X203797765Y-73433980D01*
X203750146Y-73529218D01*
X203702527Y-73576837D01*
X203607289Y-73624456D01*
X203321575Y-73624456D01*
X203226337Y-73576837D01*
X203178718Y-73529218D01*
X203131099Y-73433980D01*
X203131099Y-73291122D01*
X203797765Y-74481599D02*
X202988241Y-74481599D01*
X202893003Y-74433980D01*
X202845384Y-74386360D01*
X202797765Y-74291122D01*
X202797765Y-74148265D01*
X202845384Y-74053027D01*
X203178718Y-74481599D02*
X203131099Y-74386360D01*
X203131099Y-74195884D01*
X203178718Y-74100646D01*
X203226337Y-74053027D01*
X203321575Y-74005408D01*
X203607289Y-74005408D01*
X203702527Y-74053027D01*
X203750146Y-74100646D01*
X203797765Y-74195884D01*
X203797765Y-74386360D01*
X203750146Y-74481599D01*
X203131099Y-75100646D02*
X203178718Y-75005408D01*
X203226337Y-74957789D01*
X203321575Y-74910170D01*
X203607289Y-74910170D01*
X203702527Y-74957789D01*
X203750146Y-75005408D01*
X203797765Y-75100646D01*
X203797765Y-75243503D01*
X203750146Y-75338741D01*
X203702527Y-75386360D01*
X203607289Y-75433980D01*
X203321575Y-75433980D01*
X203226337Y-75386360D01*
X203178718Y-75338741D01*
X203131099Y-75243503D01*
X203131099Y-75100646D01*
X203035860Y-75624456D02*
X203035860Y-76386360D01*
X204131099Y-76814932D02*
X204131099Y-77005408D01*
X204083480Y-77100646D01*
X203988241Y-77195884D01*
X203797765Y-77243503D01*
X203464432Y-77243503D01*
X203273956Y-77195884D01*
X203178718Y-77100646D01*
X203131099Y-77005408D01*
X203131099Y-76814932D01*
X203178718Y-76719694D01*
X203273956Y-76624456D01*
X203464432Y-76576837D01*
X203797765Y-76576837D01*
X203988241Y-76624456D01*
X204083480Y-76719694D01*
X204131099Y-76814932D01*
X203797765Y-77672075D02*
X202797765Y-77672075D01*
X203750146Y-77672075D02*
X203797765Y-77767313D01*
X203797765Y-77957789D01*
X203750146Y-78053027D01*
X203702527Y-78100646D01*
X203607289Y-78148265D01*
X203321575Y-78148265D01*
X203226337Y-78100646D01*
X203178718Y-78053027D01*
X203131099Y-77957789D01*
X203131099Y-77767313D01*
X203178718Y-77672075D01*
X203178718Y-78957789D02*
X203131099Y-78862551D01*
X203131099Y-78672075D01*
X203178718Y-78576837D01*
X203273956Y-78529218D01*
X203654908Y-78529218D01*
X203750146Y-78576837D01*
X203797765Y-78672075D01*
X203797765Y-78862551D01*
X203750146Y-78957789D01*
X203654908Y-79005408D01*
X203559670Y-79005408D01*
X203464432Y-78529218D01*
X203797765Y-79433980D02*
X203131099Y-79433980D01*
X203702527Y-79433980D02*
X203750146Y-79481599D01*
X203797765Y-79576837D01*
X203797765Y-79719694D01*
X203750146Y-79814932D01*
X203654908Y-79862551D01*
X203131099Y-79862551D01*
X203035860Y-80100646D02*
X203035860Y-80862551D01*
X203131099Y-81100646D02*
X204131099Y-81100646D01*
X203654908Y-81100646D02*
X203654908Y-81672075D01*
X203131099Y-81672075D02*
X204131099Y-81672075D01*
X203131099Y-82576837D02*
X203654908Y-82576837D01*
X203750146Y-82529218D01*
X203797765Y-82433980D01*
X203797765Y-82243503D01*
X203750146Y-82148265D01*
X203178718Y-82576837D02*
X203131099Y-82481599D01*
X203131099Y-82243503D01*
X203178718Y-82148265D01*
X203273956Y-82100646D01*
X203369194Y-82100646D01*
X203464432Y-82148265D01*
X203512051Y-82243503D01*
X203512051Y-82481599D01*
X203559670Y-82576837D01*
X203131099Y-83053027D02*
X203797765Y-83053027D01*
X203607289Y-83053027D02*
X203702527Y-83100646D01*
X203750146Y-83148265D01*
X203797765Y-83243503D01*
X203797765Y-83338741D01*
X203131099Y-84100646D02*
X204131099Y-84100646D01*
X203178718Y-84100646D02*
X203131099Y-84005408D01*
X203131099Y-83814932D01*
X203178718Y-83719694D01*
X203226337Y-83672075D01*
X203321575Y-83624456D01*
X203607289Y-83624456D01*
X203702527Y-83672075D01*
X203750146Y-83719694D01*
X203797765Y-83814932D01*
X203797765Y-84005408D01*
X203750146Y-84100646D01*
X203797765Y-84481599D02*
X203131099Y-84672075D01*
X203607289Y-84862551D01*
X203131099Y-85053027D01*
X203797765Y-85243503D01*
X203131099Y-86053027D02*
X203654908Y-86053027D01*
X203750146Y-86005408D01*
X203797765Y-85910170D01*
X203797765Y-85719694D01*
X203750146Y-85624456D01*
X203178718Y-86053027D02*
X203131099Y-85957789D01*
X203131099Y-85719694D01*
X203178718Y-85624456D01*
X203273956Y-85576837D01*
X203369194Y-85576837D01*
X203464432Y-85624456D01*
X203512051Y-85719694D01*
X203512051Y-85957789D01*
X203559670Y-86053027D01*
X203131099Y-86529218D02*
X203797765Y-86529218D01*
X203607289Y-86529218D02*
X203702527Y-86576837D01*
X203750146Y-86624456D01*
X203797765Y-86719694D01*
X203797765Y-86814932D01*
X203178718Y-87529218D02*
X203131099Y-87433980D01*
X203131099Y-87243503D01*
X203178718Y-87148265D01*
X203273956Y-87100646D01*
X203654908Y-87100646D01*
X203750146Y-87148265D01*
X203797765Y-87243503D01*
X203797765Y-87433980D01*
X203750146Y-87529218D01*
X203654908Y-87576837D01*
X203559670Y-87576837D01*
X203464432Y-87100646D01*
X203035860Y-87767313D02*
X203035860Y-88529218D01*
X203178718Y-88719694D02*
X203131099Y-88862551D01*
X203131099Y-89100646D01*
X203178718Y-89195884D01*
X203226337Y-89243503D01*
X203321575Y-89291122D01*
X203416813Y-89291122D01*
X203512051Y-89243503D01*
X203559670Y-89195884D01*
X203607289Y-89100646D01*
X203654908Y-88910170D01*
X203702527Y-88814932D01*
X203750146Y-88767313D01*
X203845384Y-88719694D01*
X203940622Y-88719694D01*
X204035860Y-88767313D01*
X204083480Y-88814932D01*
X204131099Y-88910170D01*
X204131099Y-89148265D01*
X204083480Y-89291122D01*
X203131099Y-89719694D02*
X203797765Y-89719694D01*
X203702527Y-89719694D02*
X203750146Y-89767313D01*
X203797765Y-89862551D01*
X203797765Y-90005408D01*
X203750146Y-90100646D01*
X203654908Y-90148265D01*
X203131099Y-90148265D01*
X203654908Y-90148265D02*
X203750146Y-90195884D01*
X203797765Y-90291122D01*
X203797765Y-90433980D01*
X203750146Y-90529218D01*
X203654908Y-90576837D01*
X203131099Y-90576837D01*
X203131099Y-91481599D02*
X203654908Y-91481599D01*
X203750146Y-91433980D01*
X203797765Y-91338741D01*
X203797765Y-91148265D01*
X203750146Y-91053027D01*
X203178718Y-91481599D02*
X203131099Y-91386360D01*
X203131099Y-91148265D01*
X203178718Y-91053027D01*
X203273956Y-91005408D01*
X203369194Y-91005408D01*
X203464432Y-91053027D01*
X203512051Y-91148265D01*
X203512051Y-91386360D01*
X203559670Y-91481599D01*
X203131099Y-92100646D02*
X203178718Y-92005408D01*
X203273956Y-91957789D01*
X204131099Y-91957789D01*
X203131099Y-92624456D02*
X203178718Y-92529218D01*
X203273956Y-92481599D01*
X204131099Y-92481599D01*
X99086398Y-121738994D02*
X98610207Y-121738994D01*
X98610207Y-120738994D01*
X99562588Y-121738994D02*
X99467350Y-121691375D01*
X99419731Y-121643756D01*
X99372112Y-121548518D01*
X99372112Y-121262804D01*
X99419731Y-121167566D01*
X99467350Y-121119947D01*
X99562588Y-121072328D01*
X99705446Y-121072328D01*
X99800684Y-121119947D01*
X99848303Y-121167566D01*
X99895922Y-121262804D01*
X99895922Y-121548518D01*
X99848303Y-121643756D01*
X99800684Y-121691375D01*
X99705446Y-121738994D01*
X99562588Y-121738994D01*
X100753065Y-121072328D02*
X100753065Y-121881852D01*
X100705446Y-121977090D01*
X100657826Y-122024709D01*
X100562588Y-122072328D01*
X100419731Y-122072328D01*
X100324493Y-122024709D01*
X100753065Y-121691375D02*
X100657826Y-121738994D01*
X100467350Y-121738994D01*
X100372112Y-121691375D01*
X100324493Y-121643756D01*
X100276874Y-121548518D01*
X100276874Y-121262804D01*
X100324493Y-121167566D01*
X100372112Y-121119947D01*
X100467350Y-121072328D01*
X100657826Y-121072328D01*
X100753065Y-121119947D01*
X101372112Y-121738994D02*
X101276874Y-121691375D01*
X101229255Y-121643756D01*
X101181636Y-121548518D01*
X101181636Y-121262804D01*
X101229255Y-121167566D01*
X101276874Y-121119947D01*
X101372112Y-121072328D01*
X101514969Y-121072328D01*
X101610207Y-121119947D01*
X101657826Y-121167566D01*
X101705446Y-121262804D01*
X101705446Y-121548518D01*
X101657826Y-121643756D01*
X101610207Y-121691375D01*
X101514969Y-121738994D01*
X101372112Y-121738994D01*
X101895922Y-121834233D02*
X102657826Y-121834233D01*
X103086398Y-120738994D02*
X103276874Y-120738994D01*
X103372112Y-120786614D01*
X103467350Y-120881852D01*
X103514969Y-121072328D01*
X103514969Y-121405661D01*
X103467350Y-121596137D01*
X103372112Y-121691375D01*
X103276874Y-121738994D01*
X103086398Y-121738994D01*
X102991160Y-121691375D01*
X102895922Y-121596137D01*
X102848303Y-121405661D01*
X102848303Y-121072328D01*
X102895922Y-120881852D01*
X102991160Y-120786614D01*
X103086398Y-120738994D01*
X103943541Y-121072328D02*
X103943541Y-122072328D01*
X103943541Y-121119947D02*
X104038779Y-121072328D01*
X104229255Y-121072328D01*
X104324493Y-121119947D01*
X104372112Y-121167566D01*
X104419731Y-121262804D01*
X104419731Y-121548518D01*
X104372112Y-121643756D01*
X104324493Y-121691375D01*
X104229255Y-121738994D01*
X104038779Y-121738994D01*
X103943541Y-121691375D01*
X105229255Y-121691375D02*
X105134017Y-121738994D01*
X104943541Y-121738994D01*
X104848303Y-121691375D01*
X104800684Y-121596137D01*
X104800684Y-121215185D01*
X104848303Y-121119947D01*
X104943541Y-121072328D01*
X105134017Y-121072328D01*
X105229255Y-121119947D01*
X105276874Y-121215185D01*
X105276874Y-121310423D01*
X104800684Y-121405661D01*
X105705446Y-121072328D02*
X105705446Y-121738994D01*
X105705446Y-121167566D02*
X105753065Y-121119947D01*
X105848303Y-121072328D01*
X105991160Y-121072328D01*
X106086398Y-121119947D01*
X106134017Y-121215185D01*
X106134017Y-121738994D01*
X106372112Y-121834233D02*
X107134017Y-121834233D01*
X107372112Y-121738994D02*
X107372112Y-120738994D01*
X107372112Y-121215185D02*
X107943541Y-121215185D01*
X107943541Y-121738994D02*
X107943541Y-120738994D01*
X108848303Y-121738994D02*
X108848303Y-121215185D01*
X108800684Y-121119947D01*
X108705446Y-121072328D01*
X108514969Y-121072328D01*
X108419731Y-121119947D01*
X108848303Y-121691375D02*
X108753065Y-121738994D01*
X108514969Y-121738994D01*
X108419731Y-121691375D01*
X108372112Y-121596137D01*
X108372112Y-121500899D01*
X108419731Y-121405661D01*
X108514969Y-121358042D01*
X108753065Y-121358042D01*
X108848303Y-121310423D01*
X109324493Y-121738994D02*
X109324493Y-121072328D01*
X109324493Y-121262804D02*
X109372112Y-121167566D01*
X109419731Y-121119947D01*
X109514969Y-121072328D01*
X109610207Y-121072328D01*
X110372112Y-121738994D02*
X110372112Y-120738994D01*
X110372112Y-121691375D02*
X110276874Y-121738994D01*
X110086398Y-121738994D01*
X109991160Y-121691375D01*
X109943541Y-121643756D01*
X109895922Y-121548518D01*
X109895922Y-121262804D01*
X109943541Y-121167566D01*
X109991160Y-121119947D01*
X110086398Y-121072328D01*
X110276874Y-121072328D01*
X110372112Y-121119947D01*
X110753065Y-121072328D02*
X110943541Y-121738994D01*
X111134017Y-121262804D01*
X111324493Y-121738994D01*
X111514969Y-121072328D01*
X112324493Y-121738994D02*
X112324493Y-121215185D01*
X112276874Y-121119947D01*
X112181636Y-121072328D01*
X111991160Y-121072328D01*
X111895922Y-121119947D01*
X112324493Y-121691375D02*
X112229255Y-121738994D01*
X111991160Y-121738994D01*
X111895922Y-121691375D01*
X111848303Y-121596137D01*
X111848303Y-121500899D01*
X111895922Y-121405661D01*
X111991160Y-121358042D01*
X112229255Y-121358042D01*
X112324493Y-121310423D01*
X112800684Y-121738994D02*
X112800684Y-121072328D01*
X112800684Y-121262804D02*
X112848303Y-121167566D01*
X112895922Y-121119947D01*
X112991160Y-121072328D01*
X113086398Y-121072328D01*
X113800684Y-121691375D02*
X113705446Y-121738994D01*
X113514969Y-121738994D01*
X113419731Y-121691375D01*
X113372112Y-121596137D01*
X113372112Y-121215185D01*
X113419731Y-121119947D01*
X113514969Y-121072328D01*
X113705446Y-121072328D01*
X113800684Y-121119947D01*
X113848303Y-121215185D01*
X113848303Y-121310423D01*
X113372112Y-121405661D01*
X114038779Y-121834233D02*
X114800684Y-121834233D01*
X114991160Y-121691375D02*
X115134017Y-121738994D01*
X115372112Y-121738994D01*
X115467350Y-121691375D01*
X115514969Y-121643756D01*
X115562588Y-121548518D01*
X115562588Y-121453280D01*
X115514969Y-121358042D01*
X115467350Y-121310423D01*
X115372112Y-121262804D01*
X115181636Y-121215185D01*
X115086398Y-121167566D01*
X115038779Y-121119947D01*
X114991160Y-121024709D01*
X114991160Y-120929471D01*
X115038779Y-120834233D01*
X115086398Y-120786614D01*
X115181636Y-120738994D01*
X115419731Y-120738994D01*
X115562588Y-120786614D01*
X115991160Y-121738994D02*
X115991160Y-121072328D01*
X115991160Y-121167566D02*
X116038779Y-121119947D01*
X116134017Y-121072328D01*
X116276874Y-121072328D01*
X116372112Y-121119947D01*
X116419731Y-121215185D01*
X116419731Y-121738994D01*
X116419731Y-121215185D02*
X116467350Y-121119947D01*
X116562588Y-121072328D01*
X116705446Y-121072328D01*
X116800684Y-121119947D01*
X116848303Y-121215185D01*
X116848303Y-121738994D01*
X117753065Y-121738994D02*
X117753065Y-121215185D01*
X117705446Y-121119947D01*
X117610207Y-121072328D01*
X117419731Y-121072328D01*
X117324493Y-121119947D01*
X117753065Y-121691375D02*
X117657826Y-121738994D01*
X117419731Y-121738994D01*
X117324493Y-121691375D01*
X117276874Y-121596137D01*
X117276874Y-121500899D01*
X117324493Y-121405661D01*
X117419731Y-121358042D01*
X117657826Y-121358042D01*
X117753065Y-121310423D01*
X118372112Y-121738994D02*
X118276874Y-121691375D01*
X118229255Y-121596137D01*
X118229255Y-120738994D01*
X118895922Y-121738994D02*
X118800684Y-121691375D01*
X118753065Y-121596137D01*
X118753065Y-120738994D01*
X108491160Y-122286614D02*
X108395922Y-122238994D01*
X108253065Y-122238994D01*
X108110207Y-122286614D01*
X108014969Y-122381852D01*
X107967350Y-122477090D01*
X107919731Y-122667566D01*
X107919731Y-122810423D01*
X107967350Y-123000899D01*
X108014969Y-123096137D01*
X108110207Y-123191375D01*
X108253065Y-123238994D01*
X108348303Y-123238994D01*
X108491160Y-123191375D01*
X108538779Y-123143756D01*
X108538779Y-122810423D01*
X108348303Y-122810423D01*
X109110207Y-122667566D02*
X109014969Y-122619947D01*
X108967350Y-122572328D01*
X108919731Y-122477090D01*
X108919731Y-122429471D01*
X108967350Y-122334233D01*
X109014969Y-122286614D01*
X109110207Y-122238994D01*
X109300684Y-122238994D01*
X109395922Y-122286614D01*
X109443541Y-122334233D01*
X109491160Y-122429471D01*
X109491160Y-122477090D01*
X109443541Y-122572328D01*
X109395922Y-122619947D01*
X109300684Y-122667566D01*
X109110207Y-122667566D01*
X109014969Y-122715185D01*
X108967350Y-122762804D01*
X108919731Y-122858042D01*
X108919731Y-123048518D01*
X108967350Y-123143756D01*
X109014969Y-123191375D01*
X109110207Y-123238994D01*
X109300684Y-123238994D01*
X109395922Y-123191375D01*
X109443541Y-123143756D01*
X109491160Y-123048518D01*
X109491160Y-122858042D01*
X109443541Y-122762804D01*
X109395922Y-122715185D01*
X109300684Y-122667566D01*
X191731432Y-121078360D02*
X191255241Y-121078360D01*
X191255241Y-120078360D01*
X192207622Y-121078360D02*
X192112384Y-121030741D01*
X192064765Y-120983122D01*
X192017146Y-120887884D01*
X192017146Y-120602170D01*
X192064765Y-120506932D01*
X192112384Y-120459313D01*
X192207622Y-120411694D01*
X192350480Y-120411694D01*
X192445718Y-120459313D01*
X192493337Y-120506932D01*
X192540956Y-120602170D01*
X192540956Y-120887884D01*
X192493337Y-120983122D01*
X192445718Y-121030741D01*
X192350480Y-121078360D01*
X192207622Y-121078360D01*
X193398099Y-120411694D02*
X193398099Y-121221218D01*
X193350480Y-121316456D01*
X193302860Y-121364075D01*
X193207622Y-121411694D01*
X193064765Y-121411694D01*
X192969527Y-121364075D01*
X193398099Y-121030741D02*
X193302860Y-121078360D01*
X193112384Y-121078360D01*
X193017146Y-121030741D01*
X192969527Y-120983122D01*
X192921908Y-120887884D01*
X192921908Y-120602170D01*
X192969527Y-120506932D01*
X193017146Y-120459313D01*
X193112384Y-120411694D01*
X193302860Y-120411694D01*
X193398099Y-120459313D01*
X194017146Y-121078360D02*
X193921908Y-121030741D01*
X193874289Y-120983122D01*
X193826670Y-120887884D01*
X193826670Y-120602170D01*
X193874289Y-120506932D01*
X193921908Y-120459313D01*
X194017146Y-120411694D01*
X194160003Y-120411694D01*
X194255241Y-120459313D01*
X194302860Y-120506932D01*
X194350480Y-120602170D01*
X194350480Y-120887884D01*
X194302860Y-120983122D01*
X194255241Y-121030741D01*
X194160003Y-121078360D01*
X194017146Y-121078360D01*
X194540956Y-121173599D02*
X195302860Y-121173599D01*
X195731432Y-120078360D02*
X195921908Y-120078360D01*
X196017146Y-120125980D01*
X196112384Y-120221218D01*
X196160003Y-120411694D01*
X196160003Y-120745027D01*
X196112384Y-120935503D01*
X196017146Y-121030741D01*
X195921908Y-121078360D01*
X195731432Y-121078360D01*
X195636194Y-121030741D01*
X195540956Y-120935503D01*
X195493337Y-120745027D01*
X195493337Y-120411694D01*
X195540956Y-120221218D01*
X195636194Y-120125980D01*
X195731432Y-120078360D01*
X196588575Y-120411694D02*
X196588575Y-121411694D01*
X196588575Y-120459313D02*
X196683813Y-120411694D01*
X196874289Y-120411694D01*
X196969527Y-120459313D01*
X197017146Y-120506932D01*
X197064765Y-120602170D01*
X197064765Y-120887884D01*
X197017146Y-120983122D01*
X196969527Y-121030741D01*
X196874289Y-121078360D01*
X196683813Y-121078360D01*
X196588575Y-121030741D01*
X197874289Y-121030741D02*
X197779051Y-121078360D01*
X197588575Y-121078360D01*
X197493337Y-121030741D01*
X197445718Y-120935503D01*
X197445718Y-120554551D01*
X197493337Y-120459313D01*
X197588575Y-120411694D01*
X197779051Y-120411694D01*
X197874289Y-120459313D01*
X197921908Y-120554551D01*
X197921908Y-120649789D01*
X197445718Y-120745027D01*
X198350480Y-120411694D02*
X198350480Y-121078360D01*
X198350480Y-120506932D02*
X198398099Y-120459313D01*
X198493337Y-120411694D01*
X198636194Y-120411694D01*
X198731432Y-120459313D01*
X198779051Y-120554551D01*
X198779051Y-121078360D01*
X199017146Y-121173599D02*
X199779051Y-121173599D01*
X200017146Y-121078360D02*
X200017146Y-120078360D01*
X200017146Y-120554551D02*
X200588575Y-120554551D01*
X200588575Y-121078360D02*
X200588575Y-120078360D01*
X201493337Y-121078360D02*
X201493337Y-120554551D01*
X201445718Y-120459313D01*
X201350480Y-120411694D01*
X201160003Y-120411694D01*
X201064765Y-120459313D01*
X201493337Y-121030741D02*
X201398099Y-121078360D01*
X201160003Y-121078360D01*
X201064765Y-121030741D01*
X201017146Y-120935503D01*
X201017146Y-120840265D01*
X201064765Y-120745027D01*
X201160003Y-120697408D01*
X201398099Y-120697408D01*
X201493337Y-120649789D01*
X201969527Y-121078360D02*
X201969527Y-120411694D01*
X201969527Y-120602170D02*
X202017146Y-120506932D01*
X202064765Y-120459313D01*
X202160003Y-120411694D01*
X202255241Y-120411694D01*
X203017146Y-121078360D02*
X203017146Y-120078360D01*
X203017146Y-121030741D02*
X202921908Y-121078360D01*
X202731432Y-121078360D01*
X202636194Y-121030741D01*
X202588575Y-120983122D01*
X202540956Y-120887884D01*
X202540956Y-120602170D01*
X202588575Y-120506932D01*
X202636194Y-120459313D01*
X202731432Y-120411694D01*
X202921908Y-120411694D01*
X203017146Y-120459313D01*
X203398099Y-120411694D02*
X203588575Y-121078360D01*
X203779051Y-120602170D01*
X203969527Y-121078360D01*
X204160003Y-120411694D01*
X204969527Y-121078360D02*
X204969527Y-120554551D01*
X204921908Y-120459313D01*
X204826670Y-120411694D01*
X204636194Y-120411694D01*
X204540956Y-120459313D01*
X204969527Y-121030741D02*
X204874289Y-121078360D01*
X204636194Y-121078360D01*
X204540956Y-121030741D01*
X204493337Y-120935503D01*
X204493337Y-120840265D01*
X204540956Y-120745027D01*
X204636194Y-120697408D01*
X204874289Y-120697408D01*
X204969527Y-120649789D01*
X205445718Y-121078360D02*
X205445718Y-120411694D01*
X205445718Y-120602170D02*
X205493337Y-120506932D01*
X205540956Y-120459313D01*
X205636194Y-120411694D01*
X205731432Y-120411694D01*
X206445718Y-121030741D02*
X206350480Y-121078360D01*
X206160003Y-121078360D01*
X206064765Y-121030741D01*
X206017146Y-120935503D01*
X206017146Y-120554551D01*
X206064765Y-120459313D01*
X206160003Y-120411694D01*
X206350480Y-120411694D01*
X206445718Y-120459313D01*
X206493337Y-120554551D01*
X206493337Y-120649789D01*
X206017146Y-120745027D01*
X206683813Y-121173599D02*
X207445718Y-121173599D01*
X207636194Y-121030741D02*
X207779051Y-121078360D01*
X208017146Y-121078360D01*
X208112384Y-121030741D01*
X208160003Y-120983122D01*
X208207622Y-120887884D01*
X208207622Y-120792646D01*
X208160003Y-120697408D01*
X208112384Y-120649789D01*
X208017146Y-120602170D01*
X207826670Y-120554551D01*
X207731432Y-120506932D01*
X207683813Y-120459313D01*
X207636194Y-120364075D01*
X207636194Y-120268837D01*
X207683813Y-120173599D01*
X207731432Y-120125980D01*
X207826670Y-120078360D01*
X208064765Y-120078360D01*
X208207622Y-120125980D01*
X208636194Y-121078360D02*
X208636194Y-120411694D01*
X208636194Y-120506932D02*
X208683813Y-120459313D01*
X208779051Y-120411694D01*
X208921908Y-120411694D01*
X209017146Y-120459313D01*
X209064765Y-120554551D01*
X209064765Y-121078360D01*
X209064765Y-120554551D02*
X209112384Y-120459313D01*
X209207622Y-120411694D01*
X209350480Y-120411694D01*
X209445718Y-120459313D01*
X209493337Y-120554551D01*
X209493337Y-121078360D01*
X210398099Y-121078360D02*
X210398099Y-120554551D01*
X210350480Y-120459313D01*
X210255241Y-120411694D01*
X210064765Y-120411694D01*
X209969527Y-120459313D01*
X210398099Y-121030741D02*
X210302860Y-121078360D01*
X210064765Y-121078360D01*
X209969527Y-121030741D01*
X209921908Y-120935503D01*
X209921908Y-120840265D01*
X209969527Y-120745027D01*
X210064765Y-120697408D01*
X210302860Y-120697408D01*
X210398099Y-120649789D01*
X211017146Y-121078360D02*
X210921908Y-121030741D01*
X210874289Y-120935503D01*
X210874289Y-120078360D01*
X211540956Y-121078360D02*
X211445718Y-121030741D01*
X211398099Y-120935503D01*
X211398099Y-120078360D01*
X201136194Y-121625980D02*
X201040956Y-121578360D01*
X200898099Y-121578360D01*
X200755241Y-121625980D01*
X200660003Y-121721218D01*
X200612384Y-121816456D01*
X200564765Y-122006932D01*
X200564765Y-122149789D01*
X200612384Y-122340265D01*
X200660003Y-122435503D01*
X200755241Y-122530741D01*
X200898099Y-122578360D01*
X200993337Y-122578360D01*
X201136194Y-122530741D01*
X201183813Y-122483122D01*
X201183813Y-122149789D01*
X200993337Y-122149789D01*
X202088575Y-121578360D02*
X201612384Y-121578360D01*
X201564765Y-122054551D01*
X201612384Y-122006932D01*
X201707622Y-121959313D01*
X201945718Y-121959313D01*
X202040956Y-122006932D01*
X202088575Y-122054551D01*
X202136194Y-122149789D01*
X202136194Y-122387884D01*
X202088575Y-122483122D01*
X202040956Y-122530741D01*
X201945718Y-122578360D01*
X201707622Y-122578360D01*
X201612384Y-122530741D01*
X201564765Y-122483122D01*
X178131432Y-110978360D02*
X177655241Y-110978360D01*
X177655241Y-109978360D01*
X178607622Y-110978360D02*
X178512384Y-110930741D01*
X178464765Y-110883122D01*
X178417146Y-110787884D01*
X178417146Y-110502170D01*
X178464765Y-110406932D01*
X178512384Y-110359313D01*
X178607622Y-110311694D01*
X178750480Y-110311694D01*
X178845718Y-110359313D01*
X178893337Y-110406932D01*
X178940956Y-110502170D01*
X178940956Y-110787884D01*
X178893337Y-110883122D01*
X178845718Y-110930741D01*
X178750480Y-110978360D01*
X178607622Y-110978360D01*
X179798099Y-110311694D02*
X179798099Y-111121218D01*
X179750480Y-111216456D01*
X179702860Y-111264075D01*
X179607622Y-111311694D01*
X179464765Y-111311694D01*
X179369527Y-111264075D01*
X179798099Y-110930741D02*
X179702860Y-110978360D01*
X179512384Y-110978360D01*
X179417146Y-110930741D01*
X179369527Y-110883122D01*
X179321908Y-110787884D01*
X179321908Y-110502170D01*
X179369527Y-110406932D01*
X179417146Y-110359313D01*
X179512384Y-110311694D01*
X179702860Y-110311694D01*
X179798099Y-110359313D01*
X180417146Y-110978360D02*
X180321908Y-110930741D01*
X180274289Y-110883122D01*
X180226670Y-110787884D01*
X180226670Y-110502170D01*
X180274289Y-110406932D01*
X180321908Y-110359313D01*
X180417146Y-110311694D01*
X180560003Y-110311694D01*
X180655241Y-110359313D01*
X180702860Y-110406932D01*
X180750480Y-110502170D01*
X180750480Y-110787884D01*
X180702860Y-110883122D01*
X180655241Y-110930741D01*
X180560003Y-110978360D01*
X180417146Y-110978360D01*
X180940956Y-111073599D02*
X181702860Y-111073599D01*
X182131432Y-109978360D02*
X182321908Y-109978360D01*
X182417146Y-110025980D01*
X182512384Y-110121218D01*
X182560003Y-110311694D01*
X182560003Y-110645027D01*
X182512384Y-110835503D01*
X182417146Y-110930741D01*
X182321908Y-110978360D01*
X182131432Y-110978360D01*
X182036194Y-110930741D01*
X181940956Y-110835503D01*
X181893337Y-110645027D01*
X181893337Y-110311694D01*
X181940956Y-110121218D01*
X182036194Y-110025980D01*
X182131432Y-109978360D01*
X182988575Y-110311694D02*
X182988575Y-111311694D01*
X182988575Y-110359313D02*
X183083813Y-110311694D01*
X183274289Y-110311694D01*
X183369527Y-110359313D01*
X183417146Y-110406932D01*
X183464765Y-110502170D01*
X183464765Y-110787884D01*
X183417146Y-110883122D01*
X183369527Y-110930741D01*
X183274289Y-110978360D01*
X183083813Y-110978360D01*
X182988575Y-110930741D01*
X184274289Y-110930741D02*
X184179051Y-110978360D01*
X183988575Y-110978360D01*
X183893337Y-110930741D01*
X183845718Y-110835503D01*
X183845718Y-110454551D01*
X183893337Y-110359313D01*
X183988575Y-110311694D01*
X184179051Y-110311694D01*
X184274289Y-110359313D01*
X184321908Y-110454551D01*
X184321908Y-110549789D01*
X183845718Y-110645027D01*
X184750480Y-110311694D02*
X184750480Y-110978360D01*
X184750480Y-110406932D02*
X184798099Y-110359313D01*
X184893337Y-110311694D01*
X185036194Y-110311694D01*
X185131432Y-110359313D01*
X185179051Y-110454551D01*
X185179051Y-110978360D01*
X185417146Y-111073599D02*
X186179051Y-111073599D01*
X186417146Y-110978360D02*
X186417146Y-109978360D01*
X186417146Y-110454551D02*
X186988575Y-110454551D01*
X186988575Y-110978360D02*
X186988575Y-109978360D01*
X187893337Y-110978360D02*
X187893337Y-110454551D01*
X187845718Y-110359313D01*
X187750480Y-110311694D01*
X187560003Y-110311694D01*
X187464765Y-110359313D01*
X187893337Y-110930741D02*
X187798099Y-110978360D01*
X187560003Y-110978360D01*
X187464765Y-110930741D01*
X187417146Y-110835503D01*
X187417146Y-110740265D01*
X187464765Y-110645027D01*
X187560003Y-110597408D01*
X187798099Y-110597408D01*
X187893337Y-110549789D01*
X188369527Y-110978360D02*
X188369527Y-110311694D01*
X188369527Y-110502170D02*
X188417146Y-110406932D01*
X188464765Y-110359313D01*
X188560003Y-110311694D01*
X188655241Y-110311694D01*
X189417146Y-110978360D02*
X189417146Y-109978360D01*
X189417146Y-110930741D02*
X189321908Y-110978360D01*
X189131432Y-110978360D01*
X189036194Y-110930741D01*
X188988575Y-110883122D01*
X188940956Y-110787884D01*
X188940956Y-110502170D01*
X188988575Y-110406932D01*
X189036194Y-110359313D01*
X189131432Y-110311694D01*
X189321908Y-110311694D01*
X189417146Y-110359313D01*
X189798099Y-110311694D02*
X189988575Y-110978360D01*
X190179051Y-110502170D01*
X190369527Y-110978360D01*
X190560003Y-110311694D01*
X191369527Y-110978360D02*
X191369527Y-110454551D01*
X191321908Y-110359313D01*
X191226670Y-110311694D01*
X191036194Y-110311694D01*
X190940956Y-110359313D01*
X191369527Y-110930741D02*
X191274289Y-110978360D01*
X191036194Y-110978360D01*
X190940956Y-110930741D01*
X190893337Y-110835503D01*
X190893337Y-110740265D01*
X190940956Y-110645027D01*
X191036194Y-110597408D01*
X191274289Y-110597408D01*
X191369527Y-110549789D01*
X191845718Y-110978360D02*
X191845718Y-110311694D01*
X191845718Y-110502170D02*
X191893337Y-110406932D01*
X191940956Y-110359313D01*
X192036194Y-110311694D01*
X192131432Y-110311694D01*
X192845718Y-110930741D02*
X192750480Y-110978360D01*
X192560003Y-110978360D01*
X192464765Y-110930741D01*
X192417146Y-110835503D01*
X192417146Y-110454551D01*
X192464765Y-110359313D01*
X192560003Y-110311694D01*
X192750480Y-110311694D01*
X192845718Y-110359313D01*
X192893337Y-110454551D01*
X192893337Y-110549789D01*
X192417146Y-110645027D01*
X193083813Y-111073599D02*
X193845718Y-111073599D01*
X194036194Y-110930741D02*
X194179051Y-110978360D01*
X194417146Y-110978360D01*
X194512384Y-110930741D01*
X194560003Y-110883122D01*
X194607622Y-110787884D01*
X194607622Y-110692646D01*
X194560003Y-110597408D01*
X194512384Y-110549789D01*
X194417146Y-110502170D01*
X194226670Y-110454551D01*
X194131432Y-110406932D01*
X194083813Y-110359313D01*
X194036194Y-110264075D01*
X194036194Y-110168837D01*
X194083813Y-110073599D01*
X194131432Y-110025980D01*
X194226670Y-109978360D01*
X194464765Y-109978360D01*
X194607622Y-110025980D01*
X195036194Y-110978360D02*
X195036194Y-110311694D01*
X195036194Y-110406932D02*
X195083813Y-110359313D01*
X195179051Y-110311694D01*
X195321908Y-110311694D01*
X195417146Y-110359313D01*
X195464765Y-110454551D01*
X195464765Y-110978360D01*
X195464765Y-110454551D02*
X195512384Y-110359313D01*
X195607622Y-110311694D01*
X195750480Y-110311694D01*
X195845718Y-110359313D01*
X195893337Y-110454551D01*
X195893337Y-110978360D01*
X196798099Y-110978360D02*
X196798099Y-110454551D01*
X196750480Y-110359313D01*
X196655241Y-110311694D01*
X196464765Y-110311694D01*
X196369527Y-110359313D01*
X196798099Y-110930741D02*
X196702860Y-110978360D01*
X196464765Y-110978360D01*
X196369527Y-110930741D01*
X196321908Y-110835503D01*
X196321908Y-110740265D01*
X196369527Y-110645027D01*
X196464765Y-110597408D01*
X196702860Y-110597408D01*
X196798099Y-110549789D01*
X197417146Y-110978360D02*
X197321908Y-110930741D01*
X197274289Y-110835503D01*
X197274289Y-109978360D01*
X197940956Y-110978360D02*
X197845718Y-110930741D01*
X197798099Y-110835503D01*
X197798099Y-109978360D01*
X187536194Y-111525980D02*
X187440956Y-111478360D01*
X187298099Y-111478360D01*
X187155241Y-111525980D01*
X187060003Y-111621218D01*
X187012384Y-111716456D01*
X186964765Y-111906932D01*
X186964765Y-112049789D01*
X187012384Y-112240265D01*
X187060003Y-112335503D01*
X187155241Y-112430741D01*
X187298099Y-112478360D01*
X187393337Y-112478360D01*
X187536194Y-112430741D01*
X187583813Y-112383122D01*
X187583813Y-112049789D01*
X187393337Y-112049789D01*
X188060003Y-112478360D02*
X188250480Y-112478360D01*
X188345718Y-112430741D01*
X188393337Y-112383122D01*
X188488575Y-112240265D01*
X188536194Y-112049789D01*
X188536194Y-111668837D01*
X188488575Y-111573599D01*
X188440956Y-111525980D01*
X188345718Y-111478360D01*
X188155241Y-111478360D01*
X188060003Y-111525980D01*
X188012384Y-111573599D01*
X187964765Y-111668837D01*
X187964765Y-111906932D01*
X188012384Y-112002170D01*
X188060003Y-112049789D01*
X188155241Y-112097408D01*
X188345718Y-112097408D01*
X188440956Y-112049789D01*
X188488575Y-112002170D01*
X188536194Y-111906932D01*
X199848480Y-69365980D02*
X217628480Y-69365980D01*
X217628480Y-69365980D02*
X217628480Y-102385980D01*
X218943480Y-101115980D02*
X201163480Y-101115980D01*
X201163480Y-101115980D02*
X201163480Y-68095980D01*
X201163480Y-68095980D02*
X218943480Y-68095980D01*
X217628480Y-102385980D02*
X199848480Y-102385980D01*
X218943480Y-68095980D02*
X218943480Y-101115980D01*
X199848480Y-102385980D02*
X199848480Y-69365980D01*
X87210480Y-84575980D02*
X87210480Y-88075980D01*
X90710480Y-84575980D02*
X90710480Y-88075980D01*
X90710480Y-88075980D02*
X87210480Y-88075980D01*
X87210480Y-84575980D02*
X90710480Y-84575980D01*
X128800480Y-77575980D02*
X128800480Y-81075980D01*
X125300480Y-77575980D02*
X125300480Y-81075980D01*
X128800480Y-81075980D02*
X125300480Y-81075980D01*
X125300480Y-77575980D02*
X128800480Y-77575980D01*
X163310480Y-82275980D02*
X166810480Y-82275980D01*
X163310480Y-82275980D02*
X163310480Y-85775980D01*
X166810480Y-82275980D02*
X166810480Y-85775980D01*
X166810480Y-85775980D02*
X163310480Y-85775980D01*
X87250000Y-103675980D02*
X90750000Y-103675980D01*
X87250000Y-107175980D02*
X87250000Y-103675980D01*
X90750000Y-107175980D02*
X87250000Y-107175980D01*
X90750000Y-107175980D02*
X90750000Y-103675980D01*
X125250000Y-116575980D02*
X128750000Y-116575980D01*
X128750000Y-120075980D02*
X128750000Y-116575980D01*
X128750000Y-120075980D02*
X125250000Y-120075980D01*
X125250000Y-120075980D02*
X125250000Y-116575980D01*
X167190480Y-124975980D02*
X163690480Y-124975980D01*
X167190480Y-124975980D02*
X167190480Y-121475980D01*
X163690480Y-124975980D02*
X163690480Y-121475980D01*
X163690480Y-121475980D02*
X167190480Y-121475980D01*
X201050480Y-148700854D02*
X198575606Y-146225980D01*
X201050480Y-143751106D02*
X203525354Y-146225980D01*
X203525354Y-146225980D02*
X201050480Y-148700854D01*
X201050480Y-143751106D02*
X198575606Y-146225980D01*
M02*
