M48
; DRILL file {KiCad (6.0.9)} date Sun Dec  4 20:33:57 2022
; FORMAT={-:-/ absolute / inch / decimal}
; #@! TF.CreationDate,2022-12-04T20:33:57+01:00
; #@! TF.GenerationSoftware,Kicad,Pcbnew,(6.0.9)
; #@! TF.FileFunction,NonPlated,1,2,NPTH
FMAT,2
INCH
; #@! TA.AperFunction,NonPlated,NPTH,ComponentDrill
T1C0.0472
; #@! TA.AperFunction,NonPlated,NPTH,ComponentDrill
T2C0.0709
; #@! TA.AperFunction,NonPlated,NPTH,ComponentDrill
T3C0.1181
; #@! TA.AperFunction,NonPlated,NPTH,ComponentDrill
T4C0.1260
; #@! TA.AperFunction,NonPlated,NPTH,ComponentDrill
T5C0.1575
%
G90
G05
T1
X8.3996Y-4.7136
X8.3996Y-4.7825
X8.6752Y-4.7136
X8.6752Y-4.7825
T2
X2.5559Y-3.0364
X2.5559Y-3.7844
X2.5559Y-4.5325
X2.9559Y-3.0364
X2.9559Y-3.7844
X2.9559Y-4.5325
X3.3039Y-3.0364
X3.3039Y-3.7844
X3.3039Y-4.5325
X3.7039Y-3.0364
X3.7039Y-3.7844
X3.7039Y-4.5325
X4.052Y-2.8494
X4.052Y-3.5974
X4.052Y-4.3455
X4.452Y-2.8494
X4.452Y-3.5974
X4.452Y-4.3455
X4.8Y-2.7559
X4.8Y-3.5039
X4.8Y-4.252
X5.174Y-5.1181
X5.2Y-2.7559
X5.2Y-3.5039
X5.2Y-4.252
X5.548Y-2.8494
X5.548Y-3.5974
X5.548Y-4.3455
X5.574Y-5.1181
X5.948Y-2.8494
X5.948Y-3.5974
X5.948Y-4.3455
X6.0076Y-5.1746
X6.2961Y-2.9429
X6.2961Y-3.6909
X6.2961Y-4.439
X6.394Y-5.2781
X6.6961Y-2.9429
X6.6961Y-3.6909
X6.6961Y-4.439
X6.809Y-5.4292
X7.0461Y-2.9451
X7.0461Y-3.69
X7.1554Y-5.6292
X7.191Y-4.775
X7.4461Y-2.9451
X7.4461Y-3.69
X7.5023Y-5.8911
X7.5374Y-4.975
X7.7851Y-6.1739
X8.0397Y-5.3561
X8.3226Y-5.6389
T3
X2.6059Y-3.1364
X2.6059Y-3.8844
X2.6059Y-4.6325
X2.6559Y-3.2364
X2.6559Y-3.9844
X2.6559Y-4.7325
X2.8559Y-3.2364
X2.8559Y-3.9844
X2.8559Y-4.7325
X2.9059Y-3.1364
X2.9059Y-3.8844
X2.9059Y-4.6325
X3.3539Y-3.1364
X3.3539Y-3.8844
X3.3539Y-4.6325
X3.4039Y-3.2364
X3.4039Y-3.9844
X3.4039Y-4.7325
X3.6039Y-3.2364
X3.6039Y-3.9844
X3.6039Y-4.7325
X3.6539Y-3.1364
X3.6539Y-3.8844
X3.6539Y-4.6325
X4.102Y-2.9494
X4.102Y-3.6974
X4.102Y-4.4455
X4.152Y-3.0494
X4.152Y-3.7974
X4.152Y-4.5455
X4.352Y-3.0494
X4.352Y-3.7974
X4.352Y-4.5455
X4.402Y-2.9494
X4.402Y-3.6974
X4.402Y-4.4455
X4.85Y-2.8559
X4.85Y-3.6039
X4.85Y-4.352
X4.9Y-2.9559
X4.9Y-3.7039
X4.9Y-4.452
X5.1Y-2.9559
X5.1Y-3.7039
X5.1Y-4.452
X5.15Y-2.8559
X5.15Y-3.6039
X5.15Y-4.352
X5.224Y-5.2181
X5.274Y-5.3181
X5.474Y-5.3181
X5.524Y-5.2181
X5.598Y-2.9494
X5.598Y-3.6974
X5.598Y-4.4455
X5.648Y-3.0494
X5.648Y-3.7974
X5.648Y-4.5455
X5.848Y-3.0494
X5.848Y-3.7974
X5.848Y-4.5455
X5.898Y-2.9494
X5.898Y-3.6974
X5.898Y-4.4455
X6.03Y-5.2841
X6.0524Y-5.3937
X6.2456Y-5.4454
X6.3198Y-5.3618
X6.3461Y-3.0429
X6.3461Y-3.7909
X6.3461Y-4.539
X6.3961Y-3.1429
X6.3961Y-3.8909
X6.3961Y-4.639
X6.5961Y-3.1429
X6.5961Y-3.8909
X6.5961Y-4.639
X6.6461Y-3.0429
X6.6461Y-3.7909
X6.6461Y-4.539
X6.7956Y-5.6524
X6.8023Y-5.5408
X6.9688Y-5.7524
X7.0621Y-5.6908
X7.0961Y-3.0451
X7.0961Y-3.79
X7.1461Y-3.1451
X7.1461Y-3.89
X7.1776Y-4.9982
X7.1843Y-4.8866
X7.3461Y-3.1451
X7.3461Y-3.89
X7.3508Y-5.0982
X7.3961Y-3.0451
X7.3961Y-3.79
X7.4316Y-6.1032
X7.4441Y-5.0366
X7.4669Y-5.9972
X7.573Y-6.2447
X7.6791Y-6.2093
X7.969Y-5.5682
X8.0044Y-5.4621
X8.1104Y-5.7096
X8.2165Y-5.6743
T4
X3.1299Y-3.4154
X3.1299Y-4.1535
X4.8327Y-4.8327
X6.122Y-3.2677
X6.7697Y-4.9656
X7.5847Y-5.438
X7.6988Y-2.875
T5
X2.7559Y-3.0364
X2.7559Y-3.7844
X2.7559Y-4.5325
X3.5039Y-3.0364
X3.5039Y-3.7844
X3.5039Y-4.5325
X4.252Y-2.8494
X4.252Y-3.5974
X4.252Y-4.3455
X5.0Y-2.7559
X5.0Y-3.5039
X5.0Y-4.252
X5.374Y-5.1181
X5.748Y-2.8494
X5.748Y-3.5974
X5.748Y-4.3455
X6.2008Y-5.2264
X6.4961Y-2.9429
X6.4961Y-3.6909
X6.4961Y-4.439
X6.9822Y-5.5292
X7.2461Y-2.9451
X7.2461Y-3.69
X7.3642Y-4.875
X7.6437Y-6.0325
X8.1812Y-5.4975
T0
M30
