G04 #@! TF.GenerationSoftware,KiCad,Pcbnew,(6.0.9)*
G04 #@! TF.CreationDate,2022-12-04T20:33:54+01:00*
G04 #@! TF.ProjectId,corne-cherry,636f726e-652d-4636-9865-7272792e6b69,2.1*
G04 #@! TF.SameCoordinates,Original*
G04 #@! TF.FileFunction,AssemblyDrawing,Bot*
%FSLAX46Y46*%
G04 Gerber Fmt 4.6, Leading zero omitted, Abs format (unit mm)*
G04 Created by KiCad (PCBNEW (6.0.9)) date 2022-12-04 20:33:54*
%MOMM*%
%LPD*%
G01*
G04 APERTURE LIST*
%ADD10C,0.150000*%
G04 APERTURE END LIST*
D10*
X214110860Y-72639932D02*
X214110860Y-72163741D01*
X213110860Y-72163741D01*
X214110860Y-73116122D02*
X214063241Y-73020884D01*
X214015622Y-72973265D01*
X213920384Y-72925646D01*
X213634670Y-72925646D01*
X213539432Y-72973265D01*
X213491813Y-73020884D01*
X213444194Y-73116122D01*
X213444194Y-73258980D01*
X213491813Y-73354218D01*
X213539432Y-73401837D01*
X213634670Y-73449456D01*
X213920384Y-73449456D01*
X214015622Y-73401837D01*
X214063241Y-73354218D01*
X214110860Y-73258980D01*
X214110860Y-73116122D01*
X213444194Y-74306599D02*
X214253718Y-74306599D01*
X214348956Y-74258980D01*
X214396575Y-74211360D01*
X214444194Y-74116122D01*
X214444194Y-73973265D01*
X214396575Y-73878027D01*
X214063241Y-74306599D02*
X214110860Y-74211360D01*
X214110860Y-74020884D01*
X214063241Y-73925646D01*
X214015622Y-73878027D01*
X213920384Y-73830408D01*
X213634670Y-73830408D01*
X213539432Y-73878027D01*
X213491813Y-73925646D01*
X213444194Y-74020884D01*
X213444194Y-74211360D01*
X213491813Y-74306599D01*
X214110860Y-74925646D02*
X214063241Y-74830408D01*
X214015622Y-74782789D01*
X213920384Y-74735170D01*
X213634670Y-74735170D01*
X213539432Y-74782789D01*
X213491813Y-74830408D01*
X213444194Y-74925646D01*
X213444194Y-75068503D01*
X213491813Y-75163741D01*
X213539432Y-75211360D01*
X213634670Y-75258980D01*
X213920384Y-75258980D01*
X214015622Y-75211360D01*
X214063241Y-75163741D01*
X214110860Y-75068503D01*
X214110860Y-74925646D01*
X214206099Y-75449456D02*
X214206099Y-76211360D01*
X213110860Y-76639932D02*
X213110860Y-76830408D01*
X213158480Y-76925646D01*
X213253718Y-77020884D01*
X213444194Y-77068503D01*
X213777527Y-77068503D01*
X213968003Y-77020884D01*
X214063241Y-76925646D01*
X214110860Y-76830408D01*
X214110860Y-76639932D01*
X214063241Y-76544694D01*
X213968003Y-76449456D01*
X213777527Y-76401837D01*
X213444194Y-76401837D01*
X213253718Y-76449456D01*
X213158480Y-76544694D01*
X213110860Y-76639932D01*
X213444194Y-77497075D02*
X214444194Y-77497075D01*
X213491813Y-77497075D02*
X213444194Y-77592313D01*
X213444194Y-77782789D01*
X213491813Y-77878027D01*
X213539432Y-77925646D01*
X213634670Y-77973265D01*
X213920384Y-77973265D01*
X214015622Y-77925646D01*
X214063241Y-77878027D01*
X214110860Y-77782789D01*
X214110860Y-77592313D01*
X214063241Y-77497075D01*
X214063241Y-78782789D02*
X214110860Y-78687551D01*
X214110860Y-78497075D01*
X214063241Y-78401837D01*
X213968003Y-78354218D01*
X213587051Y-78354218D01*
X213491813Y-78401837D01*
X213444194Y-78497075D01*
X213444194Y-78687551D01*
X213491813Y-78782789D01*
X213587051Y-78830408D01*
X213682289Y-78830408D01*
X213777527Y-78354218D01*
X213444194Y-79258980D02*
X214110860Y-79258980D01*
X213539432Y-79258980D02*
X213491813Y-79306599D01*
X213444194Y-79401837D01*
X213444194Y-79544694D01*
X213491813Y-79639932D01*
X213587051Y-79687551D01*
X214110860Y-79687551D01*
X214206099Y-79925646D02*
X214206099Y-80687551D01*
X214110860Y-80925646D02*
X213110860Y-80925646D01*
X213587051Y-80925646D02*
X213587051Y-81497075D01*
X214110860Y-81497075D02*
X213110860Y-81497075D01*
X214110860Y-82401837D02*
X213587051Y-82401837D01*
X213491813Y-82354218D01*
X213444194Y-82258980D01*
X213444194Y-82068503D01*
X213491813Y-81973265D01*
X214063241Y-82401837D02*
X214110860Y-82306599D01*
X214110860Y-82068503D01*
X214063241Y-81973265D01*
X213968003Y-81925646D01*
X213872765Y-81925646D01*
X213777527Y-81973265D01*
X213729908Y-82068503D01*
X213729908Y-82306599D01*
X213682289Y-82401837D01*
X214110860Y-82878027D02*
X213444194Y-82878027D01*
X213634670Y-82878027D02*
X213539432Y-82925646D01*
X213491813Y-82973265D01*
X213444194Y-83068503D01*
X213444194Y-83163741D01*
X214110860Y-83925646D02*
X213110860Y-83925646D01*
X214063241Y-83925646D02*
X214110860Y-83830408D01*
X214110860Y-83639932D01*
X214063241Y-83544694D01*
X214015622Y-83497075D01*
X213920384Y-83449456D01*
X213634670Y-83449456D01*
X213539432Y-83497075D01*
X213491813Y-83544694D01*
X213444194Y-83639932D01*
X213444194Y-83830408D01*
X213491813Y-83925646D01*
X213444194Y-84306599D02*
X214110860Y-84497075D01*
X213634670Y-84687551D01*
X214110860Y-84878027D01*
X213444194Y-85068503D01*
X214110860Y-85878027D02*
X213587051Y-85878027D01*
X213491813Y-85830408D01*
X213444194Y-85735170D01*
X213444194Y-85544694D01*
X213491813Y-85449456D01*
X214063241Y-85878027D02*
X214110860Y-85782789D01*
X214110860Y-85544694D01*
X214063241Y-85449456D01*
X213968003Y-85401837D01*
X213872765Y-85401837D01*
X213777527Y-85449456D01*
X213729908Y-85544694D01*
X213729908Y-85782789D01*
X213682289Y-85878027D01*
X214110860Y-86354218D02*
X213444194Y-86354218D01*
X213634670Y-86354218D02*
X213539432Y-86401837D01*
X213491813Y-86449456D01*
X213444194Y-86544694D01*
X213444194Y-86639932D01*
X214063241Y-87354218D02*
X214110860Y-87258980D01*
X214110860Y-87068503D01*
X214063241Y-86973265D01*
X213968003Y-86925646D01*
X213587051Y-86925646D01*
X213491813Y-86973265D01*
X213444194Y-87068503D01*
X213444194Y-87258980D01*
X213491813Y-87354218D01*
X213587051Y-87401837D01*
X213682289Y-87401837D01*
X213777527Y-86925646D01*
X214206099Y-87592313D02*
X214206099Y-88354218D01*
X214063241Y-88544694D02*
X214110860Y-88687551D01*
X214110860Y-88925646D01*
X214063241Y-89020884D01*
X214015622Y-89068503D01*
X213920384Y-89116122D01*
X213825146Y-89116122D01*
X213729908Y-89068503D01*
X213682289Y-89020884D01*
X213634670Y-88925646D01*
X213587051Y-88735170D01*
X213539432Y-88639932D01*
X213491813Y-88592313D01*
X213396575Y-88544694D01*
X213301337Y-88544694D01*
X213206099Y-88592313D01*
X213158480Y-88639932D01*
X213110860Y-88735170D01*
X213110860Y-88973265D01*
X213158480Y-89116122D01*
X214110860Y-89544694D02*
X213444194Y-89544694D01*
X213539432Y-89544694D02*
X213491813Y-89592313D01*
X213444194Y-89687551D01*
X213444194Y-89830408D01*
X213491813Y-89925646D01*
X213587051Y-89973265D01*
X214110860Y-89973265D01*
X213587051Y-89973265D02*
X213491813Y-90020884D01*
X213444194Y-90116122D01*
X213444194Y-90258980D01*
X213491813Y-90354218D01*
X213587051Y-90401837D01*
X214110860Y-90401837D01*
X214110860Y-91306599D02*
X213587051Y-91306599D01*
X213491813Y-91258980D01*
X213444194Y-91163741D01*
X213444194Y-90973265D01*
X213491813Y-90878027D01*
X214063241Y-91306599D02*
X214110860Y-91211360D01*
X214110860Y-90973265D01*
X214063241Y-90878027D01*
X213968003Y-90830408D01*
X213872765Y-90830408D01*
X213777527Y-90878027D01*
X213729908Y-90973265D01*
X213729908Y-91211360D01*
X213682289Y-91306599D01*
X214110860Y-91925646D02*
X214063241Y-91830408D01*
X213968003Y-91782789D01*
X213110860Y-91782789D01*
X214110860Y-92449456D02*
X214063241Y-92354218D01*
X213968003Y-92306599D01*
X213110860Y-92306599D01*
X195169527Y-110978360D02*
X195645718Y-110978360D01*
X195645718Y-109978360D01*
X194693337Y-110978360D02*
X194788575Y-110930741D01*
X194836194Y-110883122D01*
X194883813Y-110787884D01*
X194883813Y-110502170D01*
X194836194Y-110406932D01*
X194788575Y-110359313D01*
X194693337Y-110311694D01*
X194550480Y-110311694D01*
X194455241Y-110359313D01*
X194407622Y-110406932D01*
X194360003Y-110502170D01*
X194360003Y-110787884D01*
X194407622Y-110883122D01*
X194455241Y-110930741D01*
X194550480Y-110978360D01*
X194693337Y-110978360D01*
X193502860Y-110311694D02*
X193502860Y-111121218D01*
X193550480Y-111216456D01*
X193598099Y-111264075D01*
X193693337Y-111311694D01*
X193836194Y-111311694D01*
X193931432Y-111264075D01*
X193502860Y-110930741D02*
X193598099Y-110978360D01*
X193788575Y-110978360D01*
X193883813Y-110930741D01*
X193931432Y-110883122D01*
X193979051Y-110787884D01*
X193979051Y-110502170D01*
X193931432Y-110406932D01*
X193883813Y-110359313D01*
X193788575Y-110311694D01*
X193598099Y-110311694D01*
X193502860Y-110359313D01*
X192883813Y-110978360D02*
X192979051Y-110930741D01*
X193026670Y-110883122D01*
X193074289Y-110787884D01*
X193074289Y-110502170D01*
X193026670Y-110406932D01*
X192979051Y-110359313D01*
X192883813Y-110311694D01*
X192740956Y-110311694D01*
X192645718Y-110359313D01*
X192598099Y-110406932D01*
X192550480Y-110502170D01*
X192550480Y-110787884D01*
X192598099Y-110883122D01*
X192645718Y-110930741D01*
X192740956Y-110978360D01*
X192883813Y-110978360D01*
X192360003Y-111073599D02*
X191598099Y-111073599D01*
X191169527Y-109978360D02*
X190979051Y-109978360D01*
X190883813Y-110025980D01*
X190788575Y-110121218D01*
X190740956Y-110311694D01*
X190740956Y-110645027D01*
X190788575Y-110835503D01*
X190883813Y-110930741D01*
X190979051Y-110978360D01*
X191169527Y-110978360D01*
X191264765Y-110930741D01*
X191360003Y-110835503D01*
X191407622Y-110645027D01*
X191407622Y-110311694D01*
X191360003Y-110121218D01*
X191264765Y-110025980D01*
X191169527Y-109978360D01*
X190312384Y-110311694D02*
X190312384Y-111311694D01*
X190312384Y-110359313D02*
X190217146Y-110311694D01*
X190026670Y-110311694D01*
X189931432Y-110359313D01*
X189883813Y-110406932D01*
X189836194Y-110502170D01*
X189836194Y-110787884D01*
X189883813Y-110883122D01*
X189931432Y-110930741D01*
X190026670Y-110978360D01*
X190217146Y-110978360D01*
X190312384Y-110930741D01*
X189026670Y-110930741D02*
X189121908Y-110978360D01*
X189312384Y-110978360D01*
X189407622Y-110930741D01*
X189455241Y-110835503D01*
X189455241Y-110454551D01*
X189407622Y-110359313D01*
X189312384Y-110311694D01*
X189121908Y-110311694D01*
X189026670Y-110359313D01*
X188979051Y-110454551D01*
X188979051Y-110549789D01*
X189455241Y-110645027D01*
X188550480Y-110311694D02*
X188550480Y-110978360D01*
X188550480Y-110406932D02*
X188502860Y-110359313D01*
X188407622Y-110311694D01*
X188264765Y-110311694D01*
X188169527Y-110359313D01*
X188121908Y-110454551D01*
X188121908Y-110978360D01*
X187883813Y-111073599D02*
X187121908Y-111073599D01*
X186883813Y-110978360D02*
X186883813Y-109978360D01*
X186883813Y-110454551D02*
X186312384Y-110454551D01*
X186312384Y-110978360D02*
X186312384Y-109978360D01*
X185407622Y-110978360D02*
X185407622Y-110454551D01*
X185455241Y-110359313D01*
X185550480Y-110311694D01*
X185740956Y-110311694D01*
X185836194Y-110359313D01*
X185407622Y-110930741D02*
X185502860Y-110978360D01*
X185740956Y-110978360D01*
X185836194Y-110930741D01*
X185883813Y-110835503D01*
X185883813Y-110740265D01*
X185836194Y-110645027D01*
X185740956Y-110597408D01*
X185502860Y-110597408D01*
X185407622Y-110549789D01*
X184931432Y-110978360D02*
X184931432Y-110311694D01*
X184931432Y-110502170D02*
X184883813Y-110406932D01*
X184836194Y-110359313D01*
X184740956Y-110311694D01*
X184645718Y-110311694D01*
X183883813Y-110978360D02*
X183883813Y-109978360D01*
X183883813Y-110930741D02*
X183979051Y-110978360D01*
X184169527Y-110978360D01*
X184264765Y-110930741D01*
X184312384Y-110883122D01*
X184360003Y-110787884D01*
X184360003Y-110502170D01*
X184312384Y-110406932D01*
X184264765Y-110359313D01*
X184169527Y-110311694D01*
X183979051Y-110311694D01*
X183883813Y-110359313D01*
X183502860Y-110311694D02*
X183312384Y-110978360D01*
X183121908Y-110502170D01*
X182931432Y-110978360D01*
X182740956Y-110311694D01*
X181931432Y-110978360D02*
X181931432Y-110454551D01*
X181979051Y-110359313D01*
X182074289Y-110311694D01*
X182264765Y-110311694D01*
X182360003Y-110359313D01*
X181931432Y-110930741D02*
X182026670Y-110978360D01*
X182264765Y-110978360D01*
X182360003Y-110930741D01*
X182407622Y-110835503D01*
X182407622Y-110740265D01*
X182360003Y-110645027D01*
X182264765Y-110597408D01*
X182026670Y-110597408D01*
X181931432Y-110549789D01*
X181455241Y-110978360D02*
X181455241Y-110311694D01*
X181455241Y-110502170D02*
X181407622Y-110406932D01*
X181360003Y-110359313D01*
X181264765Y-110311694D01*
X181169527Y-110311694D01*
X180455241Y-110930741D02*
X180550480Y-110978360D01*
X180740956Y-110978360D01*
X180836194Y-110930741D01*
X180883813Y-110835503D01*
X180883813Y-110454551D01*
X180836194Y-110359313D01*
X180740956Y-110311694D01*
X180550480Y-110311694D01*
X180455241Y-110359313D01*
X180407622Y-110454551D01*
X180407622Y-110549789D01*
X180883813Y-110645027D01*
X180217146Y-111073599D02*
X179455241Y-111073599D01*
X179264765Y-110930741D02*
X179121908Y-110978360D01*
X178883813Y-110978360D01*
X178788575Y-110930741D01*
X178740956Y-110883122D01*
X178693337Y-110787884D01*
X178693337Y-110692646D01*
X178740956Y-110597408D01*
X178788575Y-110549789D01*
X178883813Y-110502170D01*
X179074289Y-110454551D01*
X179169527Y-110406932D01*
X179217146Y-110359313D01*
X179264765Y-110264075D01*
X179264765Y-110168837D01*
X179217146Y-110073599D01*
X179169527Y-110025980D01*
X179074289Y-109978360D01*
X178836194Y-109978360D01*
X178693337Y-110025980D01*
X178264765Y-110978360D02*
X178264765Y-110311694D01*
X178264765Y-110406932D02*
X178217146Y-110359313D01*
X178121908Y-110311694D01*
X177979051Y-110311694D01*
X177883813Y-110359313D01*
X177836194Y-110454551D01*
X177836194Y-110978360D01*
X177836194Y-110454551D02*
X177788575Y-110359313D01*
X177693337Y-110311694D01*
X177550480Y-110311694D01*
X177455241Y-110359313D01*
X177407622Y-110454551D01*
X177407622Y-110978360D01*
X176502860Y-110978360D02*
X176502860Y-110454551D01*
X176550480Y-110359313D01*
X176645718Y-110311694D01*
X176836194Y-110311694D01*
X176931432Y-110359313D01*
X176502860Y-110930741D02*
X176598099Y-110978360D01*
X176836194Y-110978360D01*
X176931432Y-110930741D01*
X176979051Y-110835503D01*
X176979051Y-110740265D01*
X176931432Y-110645027D01*
X176836194Y-110597408D01*
X176598099Y-110597408D01*
X176502860Y-110549789D01*
X175883813Y-110978360D02*
X175979051Y-110930741D01*
X176026670Y-110835503D01*
X176026670Y-109978360D01*
X175360003Y-110978360D02*
X175455241Y-110930741D01*
X175502860Y-110835503D01*
X175502860Y-109978360D01*
X186240956Y-111525980D02*
X186336194Y-111478360D01*
X186479051Y-111478360D01*
X186621908Y-111525980D01*
X186717146Y-111621218D01*
X186764765Y-111716456D01*
X186812384Y-111906932D01*
X186812384Y-112049789D01*
X186764765Y-112240265D01*
X186717146Y-112335503D01*
X186621908Y-112430741D01*
X186479051Y-112478360D01*
X186383813Y-112478360D01*
X186240956Y-112430741D01*
X186193337Y-112383122D01*
X186193337Y-112049789D01*
X186383813Y-112049789D01*
X185240956Y-112478360D02*
X185812384Y-112478360D01*
X185526670Y-112478360D02*
X185526670Y-111478360D01*
X185621908Y-111621218D01*
X185717146Y-111716456D01*
X185812384Y-111764075D01*
X184621908Y-111478360D02*
X184526670Y-111478360D01*
X184431432Y-111525980D01*
X184383813Y-111573599D01*
X184336194Y-111668837D01*
X184288575Y-111859313D01*
X184288575Y-112097408D01*
X184336194Y-112287884D01*
X184383813Y-112383122D01*
X184431432Y-112430741D01*
X184526670Y-112478360D01*
X184621908Y-112478360D01*
X184717146Y-112430741D01*
X184764765Y-112383122D01*
X184812384Y-112287884D01*
X184860003Y-112097408D01*
X184860003Y-111859313D01*
X184812384Y-111668837D01*
X184764765Y-111573599D01*
X184717146Y-111525980D01*
X184621908Y-111478360D01*
X116714561Y-121738994D02*
X117190752Y-121738994D01*
X117190752Y-120738994D01*
X116238371Y-121738994D02*
X116333609Y-121691375D01*
X116381228Y-121643756D01*
X116428847Y-121548518D01*
X116428847Y-121262804D01*
X116381228Y-121167566D01*
X116333609Y-121119947D01*
X116238371Y-121072328D01*
X116095514Y-121072328D01*
X116000275Y-121119947D01*
X115952656Y-121167566D01*
X115905037Y-121262804D01*
X115905037Y-121548518D01*
X115952656Y-121643756D01*
X116000275Y-121691375D01*
X116095514Y-121738994D01*
X116238371Y-121738994D01*
X115047894Y-121072328D02*
X115047894Y-121881852D01*
X115095514Y-121977090D01*
X115143133Y-122024709D01*
X115238371Y-122072328D01*
X115381228Y-122072328D01*
X115476466Y-122024709D01*
X115047894Y-121691375D02*
X115143133Y-121738994D01*
X115333609Y-121738994D01*
X115428847Y-121691375D01*
X115476466Y-121643756D01*
X115524085Y-121548518D01*
X115524085Y-121262804D01*
X115476466Y-121167566D01*
X115428847Y-121119947D01*
X115333609Y-121072328D01*
X115143133Y-121072328D01*
X115047894Y-121119947D01*
X114428847Y-121738994D02*
X114524085Y-121691375D01*
X114571704Y-121643756D01*
X114619323Y-121548518D01*
X114619323Y-121262804D01*
X114571704Y-121167566D01*
X114524085Y-121119947D01*
X114428847Y-121072328D01*
X114285990Y-121072328D01*
X114190752Y-121119947D01*
X114143133Y-121167566D01*
X114095514Y-121262804D01*
X114095514Y-121548518D01*
X114143133Y-121643756D01*
X114190752Y-121691375D01*
X114285990Y-121738994D01*
X114428847Y-121738994D01*
X113905037Y-121834233D02*
X113143133Y-121834233D01*
X112714561Y-120738994D02*
X112524085Y-120738994D01*
X112428847Y-120786614D01*
X112333609Y-120881852D01*
X112285990Y-121072328D01*
X112285990Y-121405661D01*
X112333609Y-121596137D01*
X112428847Y-121691375D01*
X112524085Y-121738994D01*
X112714561Y-121738994D01*
X112809799Y-121691375D01*
X112905037Y-121596137D01*
X112952656Y-121405661D01*
X112952656Y-121072328D01*
X112905037Y-120881852D01*
X112809799Y-120786614D01*
X112714561Y-120738994D01*
X111857418Y-121072328D02*
X111857418Y-122072328D01*
X111857418Y-121119947D02*
X111762180Y-121072328D01*
X111571704Y-121072328D01*
X111476466Y-121119947D01*
X111428847Y-121167566D01*
X111381228Y-121262804D01*
X111381228Y-121548518D01*
X111428847Y-121643756D01*
X111476466Y-121691375D01*
X111571704Y-121738994D01*
X111762180Y-121738994D01*
X111857418Y-121691375D01*
X110571704Y-121691375D02*
X110666942Y-121738994D01*
X110857418Y-121738994D01*
X110952656Y-121691375D01*
X111000275Y-121596137D01*
X111000275Y-121215185D01*
X110952656Y-121119947D01*
X110857418Y-121072328D01*
X110666942Y-121072328D01*
X110571704Y-121119947D01*
X110524085Y-121215185D01*
X110524085Y-121310423D01*
X111000275Y-121405661D01*
X110095514Y-121072328D02*
X110095514Y-121738994D01*
X110095514Y-121167566D02*
X110047894Y-121119947D01*
X109952656Y-121072328D01*
X109809799Y-121072328D01*
X109714561Y-121119947D01*
X109666942Y-121215185D01*
X109666942Y-121738994D01*
X109428847Y-121834233D02*
X108666942Y-121834233D01*
X108428847Y-121738994D02*
X108428847Y-120738994D01*
X108428847Y-121215185D02*
X107857418Y-121215185D01*
X107857418Y-121738994D02*
X107857418Y-120738994D01*
X106952656Y-121738994D02*
X106952656Y-121215185D01*
X107000275Y-121119947D01*
X107095514Y-121072328D01*
X107285990Y-121072328D01*
X107381228Y-121119947D01*
X106952656Y-121691375D02*
X107047894Y-121738994D01*
X107285990Y-121738994D01*
X107381228Y-121691375D01*
X107428847Y-121596137D01*
X107428847Y-121500899D01*
X107381228Y-121405661D01*
X107285990Y-121358042D01*
X107047894Y-121358042D01*
X106952656Y-121310423D01*
X106476466Y-121738994D02*
X106476466Y-121072328D01*
X106476466Y-121262804D02*
X106428847Y-121167566D01*
X106381228Y-121119947D01*
X106285990Y-121072328D01*
X106190752Y-121072328D01*
X105428847Y-121738994D02*
X105428847Y-120738994D01*
X105428847Y-121691375D02*
X105524085Y-121738994D01*
X105714561Y-121738994D01*
X105809799Y-121691375D01*
X105857418Y-121643756D01*
X105905037Y-121548518D01*
X105905037Y-121262804D01*
X105857418Y-121167566D01*
X105809799Y-121119947D01*
X105714561Y-121072328D01*
X105524085Y-121072328D01*
X105428847Y-121119947D01*
X105047894Y-121072328D02*
X104857418Y-121738994D01*
X104666942Y-121262804D01*
X104476466Y-121738994D01*
X104285990Y-121072328D01*
X103476466Y-121738994D02*
X103476466Y-121215185D01*
X103524085Y-121119947D01*
X103619323Y-121072328D01*
X103809799Y-121072328D01*
X103905037Y-121119947D01*
X103476466Y-121691375D02*
X103571704Y-121738994D01*
X103809799Y-121738994D01*
X103905037Y-121691375D01*
X103952656Y-121596137D01*
X103952656Y-121500899D01*
X103905037Y-121405661D01*
X103809799Y-121358042D01*
X103571704Y-121358042D01*
X103476466Y-121310423D01*
X103000275Y-121738994D02*
X103000275Y-121072328D01*
X103000275Y-121262804D02*
X102952656Y-121167566D01*
X102905037Y-121119947D01*
X102809799Y-121072328D01*
X102714561Y-121072328D01*
X102000275Y-121691375D02*
X102095514Y-121738994D01*
X102285990Y-121738994D01*
X102381228Y-121691375D01*
X102428847Y-121596137D01*
X102428847Y-121215185D01*
X102381228Y-121119947D01*
X102285990Y-121072328D01*
X102095514Y-121072328D01*
X102000275Y-121119947D01*
X101952656Y-121215185D01*
X101952656Y-121310423D01*
X102428847Y-121405661D01*
X101762180Y-121834233D02*
X101000275Y-121834233D01*
X100809799Y-121691375D02*
X100666942Y-121738994D01*
X100428847Y-121738994D01*
X100333609Y-121691375D01*
X100285990Y-121643756D01*
X100238371Y-121548518D01*
X100238371Y-121453280D01*
X100285990Y-121358042D01*
X100333609Y-121310423D01*
X100428847Y-121262804D01*
X100619323Y-121215185D01*
X100714561Y-121167566D01*
X100762180Y-121119947D01*
X100809799Y-121024709D01*
X100809799Y-120929471D01*
X100762180Y-120834233D01*
X100714561Y-120786614D01*
X100619323Y-120738994D01*
X100381228Y-120738994D01*
X100238371Y-120786614D01*
X99809799Y-121738994D02*
X99809799Y-121072328D01*
X99809799Y-121167566D02*
X99762180Y-121119947D01*
X99666942Y-121072328D01*
X99524085Y-121072328D01*
X99428847Y-121119947D01*
X99381228Y-121215185D01*
X99381228Y-121738994D01*
X99381228Y-121215185D02*
X99333609Y-121119947D01*
X99238371Y-121072328D01*
X99095514Y-121072328D01*
X99000275Y-121119947D01*
X98952656Y-121215185D01*
X98952656Y-121738994D01*
X98047894Y-121738994D02*
X98047894Y-121215185D01*
X98095514Y-121119947D01*
X98190752Y-121072328D01*
X98381228Y-121072328D01*
X98476466Y-121119947D01*
X98047894Y-121691375D02*
X98143133Y-121738994D01*
X98381228Y-121738994D01*
X98476466Y-121691375D01*
X98524085Y-121596137D01*
X98524085Y-121500899D01*
X98476466Y-121405661D01*
X98381228Y-121358042D01*
X98143133Y-121358042D01*
X98047894Y-121310423D01*
X97428847Y-121738994D02*
X97524085Y-121691375D01*
X97571704Y-121596137D01*
X97571704Y-120738994D01*
X96905037Y-121738994D02*
X97000275Y-121691375D01*
X97047894Y-121596137D01*
X97047894Y-120738994D01*
X107309799Y-122286614D02*
X107405037Y-122238994D01*
X107547894Y-122238994D01*
X107690752Y-122286614D01*
X107785990Y-122381852D01*
X107833609Y-122477090D01*
X107881228Y-122667566D01*
X107881228Y-122810423D01*
X107833609Y-123000899D01*
X107785990Y-123096137D01*
X107690752Y-123191375D01*
X107547894Y-123238994D01*
X107452656Y-123238994D01*
X107309799Y-123191375D01*
X107262180Y-123143756D01*
X107262180Y-122810423D01*
X107452656Y-122810423D01*
X106928847Y-122238994D02*
X106262180Y-122238994D01*
X106690752Y-123238994D01*
X210769527Y-120978360D02*
X211245718Y-120978360D01*
X211245718Y-119978360D01*
X210293337Y-120978360D02*
X210388575Y-120930741D01*
X210436194Y-120883122D01*
X210483813Y-120787884D01*
X210483813Y-120502170D01*
X210436194Y-120406932D01*
X210388575Y-120359313D01*
X210293337Y-120311694D01*
X210150480Y-120311694D01*
X210055241Y-120359313D01*
X210007622Y-120406932D01*
X209960003Y-120502170D01*
X209960003Y-120787884D01*
X210007622Y-120883122D01*
X210055241Y-120930741D01*
X210150480Y-120978360D01*
X210293337Y-120978360D01*
X209102860Y-120311694D02*
X209102860Y-121121218D01*
X209150480Y-121216456D01*
X209198099Y-121264075D01*
X209293337Y-121311694D01*
X209436194Y-121311694D01*
X209531432Y-121264075D01*
X209102860Y-120930741D02*
X209198099Y-120978360D01*
X209388575Y-120978360D01*
X209483813Y-120930741D01*
X209531432Y-120883122D01*
X209579051Y-120787884D01*
X209579051Y-120502170D01*
X209531432Y-120406932D01*
X209483813Y-120359313D01*
X209388575Y-120311694D01*
X209198099Y-120311694D01*
X209102860Y-120359313D01*
X208483813Y-120978360D02*
X208579051Y-120930741D01*
X208626670Y-120883122D01*
X208674289Y-120787884D01*
X208674289Y-120502170D01*
X208626670Y-120406932D01*
X208579051Y-120359313D01*
X208483813Y-120311694D01*
X208340956Y-120311694D01*
X208245718Y-120359313D01*
X208198099Y-120406932D01*
X208150480Y-120502170D01*
X208150480Y-120787884D01*
X208198099Y-120883122D01*
X208245718Y-120930741D01*
X208340956Y-120978360D01*
X208483813Y-120978360D01*
X207960003Y-121073599D02*
X207198099Y-121073599D01*
X206769527Y-119978360D02*
X206579051Y-119978360D01*
X206483813Y-120025980D01*
X206388575Y-120121218D01*
X206340956Y-120311694D01*
X206340956Y-120645027D01*
X206388575Y-120835503D01*
X206483813Y-120930741D01*
X206579051Y-120978360D01*
X206769527Y-120978360D01*
X206864765Y-120930741D01*
X206960003Y-120835503D01*
X207007622Y-120645027D01*
X207007622Y-120311694D01*
X206960003Y-120121218D01*
X206864765Y-120025980D01*
X206769527Y-119978360D01*
X205912384Y-120311694D02*
X205912384Y-121311694D01*
X205912384Y-120359313D02*
X205817146Y-120311694D01*
X205626670Y-120311694D01*
X205531432Y-120359313D01*
X205483813Y-120406932D01*
X205436194Y-120502170D01*
X205436194Y-120787884D01*
X205483813Y-120883122D01*
X205531432Y-120930741D01*
X205626670Y-120978360D01*
X205817146Y-120978360D01*
X205912384Y-120930741D01*
X204626670Y-120930741D02*
X204721908Y-120978360D01*
X204912384Y-120978360D01*
X205007622Y-120930741D01*
X205055241Y-120835503D01*
X205055241Y-120454551D01*
X205007622Y-120359313D01*
X204912384Y-120311694D01*
X204721908Y-120311694D01*
X204626670Y-120359313D01*
X204579051Y-120454551D01*
X204579051Y-120549789D01*
X205055241Y-120645027D01*
X204150480Y-120311694D02*
X204150480Y-120978360D01*
X204150480Y-120406932D02*
X204102860Y-120359313D01*
X204007622Y-120311694D01*
X203864765Y-120311694D01*
X203769527Y-120359313D01*
X203721908Y-120454551D01*
X203721908Y-120978360D01*
X203483813Y-121073599D02*
X202721908Y-121073599D01*
X202483813Y-120978360D02*
X202483813Y-119978360D01*
X202483813Y-120454551D02*
X201912384Y-120454551D01*
X201912384Y-120978360D02*
X201912384Y-119978360D01*
X201007622Y-120978360D02*
X201007622Y-120454551D01*
X201055241Y-120359313D01*
X201150480Y-120311694D01*
X201340956Y-120311694D01*
X201436194Y-120359313D01*
X201007622Y-120930741D02*
X201102860Y-120978360D01*
X201340956Y-120978360D01*
X201436194Y-120930741D01*
X201483813Y-120835503D01*
X201483813Y-120740265D01*
X201436194Y-120645027D01*
X201340956Y-120597408D01*
X201102860Y-120597408D01*
X201007622Y-120549789D01*
X200531432Y-120978360D02*
X200531432Y-120311694D01*
X200531432Y-120502170D02*
X200483813Y-120406932D01*
X200436194Y-120359313D01*
X200340956Y-120311694D01*
X200245718Y-120311694D01*
X199483813Y-120978360D02*
X199483813Y-119978360D01*
X199483813Y-120930741D02*
X199579051Y-120978360D01*
X199769527Y-120978360D01*
X199864765Y-120930741D01*
X199912384Y-120883122D01*
X199960003Y-120787884D01*
X199960003Y-120502170D01*
X199912384Y-120406932D01*
X199864765Y-120359313D01*
X199769527Y-120311694D01*
X199579051Y-120311694D01*
X199483813Y-120359313D01*
X199102860Y-120311694D02*
X198912384Y-120978360D01*
X198721908Y-120502170D01*
X198531432Y-120978360D01*
X198340956Y-120311694D01*
X197531432Y-120978360D02*
X197531432Y-120454551D01*
X197579051Y-120359313D01*
X197674289Y-120311694D01*
X197864765Y-120311694D01*
X197960003Y-120359313D01*
X197531432Y-120930741D02*
X197626670Y-120978360D01*
X197864765Y-120978360D01*
X197960003Y-120930741D01*
X198007622Y-120835503D01*
X198007622Y-120740265D01*
X197960003Y-120645027D01*
X197864765Y-120597408D01*
X197626670Y-120597408D01*
X197531432Y-120549789D01*
X197055241Y-120978360D02*
X197055241Y-120311694D01*
X197055241Y-120502170D02*
X197007622Y-120406932D01*
X196960003Y-120359313D01*
X196864765Y-120311694D01*
X196769527Y-120311694D01*
X196055241Y-120930741D02*
X196150480Y-120978360D01*
X196340956Y-120978360D01*
X196436194Y-120930741D01*
X196483813Y-120835503D01*
X196483813Y-120454551D01*
X196436194Y-120359313D01*
X196340956Y-120311694D01*
X196150480Y-120311694D01*
X196055241Y-120359313D01*
X196007622Y-120454551D01*
X196007622Y-120549789D01*
X196483813Y-120645027D01*
X195817146Y-121073599D02*
X195055241Y-121073599D01*
X194864765Y-120930741D02*
X194721908Y-120978360D01*
X194483813Y-120978360D01*
X194388575Y-120930741D01*
X194340956Y-120883122D01*
X194293337Y-120787884D01*
X194293337Y-120692646D01*
X194340956Y-120597408D01*
X194388575Y-120549789D01*
X194483813Y-120502170D01*
X194674289Y-120454551D01*
X194769527Y-120406932D01*
X194817146Y-120359313D01*
X194864765Y-120264075D01*
X194864765Y-120168837D01*
X194817146Y-120073599D01*
X194769527Y-120025980D01*
X194674289Y-119978360D01*
X194436194Y-119978360D01*
X194293337Y-120025980D01*
X193864765Y-120978360D02*
X193864765Y-120311694D01*
X193864765Y-120406932D02*
X193817146Y-120359313D01*
X193721908Y-120311694D01*
X193579051Y-120311694D01*
X193483813Y-120359313D01*
X193436194Y-120454551D01*
X193436194Y-120978360D01*
X193436194Y-120454551D02*
X193388575Y-120359313D01*
X193293337Y-120311694D01*
X193150480Y-120311694D01*
X193055241Y-120359313D01*
X193007622Y-120454551D01*
X193007622Y-120978360D01*
X192102860Y-120978360D02*
X192102860Y-120454551D01*
X192150480Y-120359313D01*
X192245718Y-120311694D01*
X192436194Y-120311694D01*
X192531432Y-120359313D01*
X192102860Y-120930741D02*
X192198099Y-120978360D01*
X192436194Y-120978360D01*
X192531432Y-120930741D01*
X192579051Y-120835503D01*
X192579051Y-120740265D01*
X192531432Y-120645027D01*
X192436194Y-120597408D01*
X192198099Y-120597408D01*
X192102860Y-120549789D01*
X191483813Y-120978360D02*
X191579051Y-120930741D01*
X191626670Y-120835503D01*
X191626670Y-119978360D01*
X190960003Y-120978360D02*
X191055241Y-120930741D01*
X191102860Y-120835503D01*
X191102860Y-119978360D01*
X201364765Y-121525980D02*
X201460003Y-121478360D01*
X201602860Y-121478360D01*
X201745718Y-121525980D01*
X201840956Y-121621218D01*
X201888575Y-121716456D01*
X201936194Y-121906932D01*
X201936194Y-122049789D01*
X201888575Y-122240265D01*
X201840956Y-122335503D01*
X201745718Y-122430741D01*
X201602860Y-122478360D01*
X201507622Y-122478360D01*
X201364765Y-122430741D01*
X201317146Y-122383122D01*
X201317146Y-122049789D01*
X201507622Y-122049789D01*
X200460003Y-121478360D02*
X200650480Y-121478360D01*
X200745718Y-121525980D01*
X200793337Y-121573599D01*
X200888575Y-121716456D01*
X200936194Y-121906932D01*
X200936194Y-122287884D01*
X200888575Y-122383122D01*
X200840956Y-122430741D01*
X200745718Y-122478360D01*
X200555241Y-122478360D01*
X200460003Y-122430741D01*
X200412384Y-122383122D01*
X200364765Y-122287884D01*
X200364765Y-122049789D01*
X200412384Y-121954551D01*
X200460003Y-121906932D01*
X200555241Y-121859313D01*
X200745718Y-121859313D01*
X200840956Y-121906932D01*
X200888575Y-121954551D01*
X200936194Y-122049789D01*
M02*
