G04 #@! TF.GenerationSoftware,KiCad,Pcbnew,(6.0.9)*
G04 #@! TF.CreationDate,2022-12-04T20:33:53+01:00*
G04 #@! TF.ProjectId,corne-cherry,636f726e-652d-4636-9865-7272792e6b69,2.1*
G04 #@! TF.SameCoordinates,Original*
G04 #@! TF.FileFunction,Legend,Bot*
G04 #@! TF.FilePolarity,Positive*
%FSLAX46Y46*%
G04 Gerber Fmt 4.6, Leading zero omitted, Abs format (unit mm)*
G04 Created by KiCad (PCBNEW (6.0.9)) date 2022-12-04 20:33:53*
%MOMM*%
%LPD*%
G01*
G04 APERTURE LIST*
%ADD10C,0.125000*%
%ADD11C,0.150000*%
%ADD12C,0.300000*%
%ADD13C,0.195791*%
G04 APERTURE END LIST*
D10*
X197800480Y-106142646D02*
X198133813Y-106142646D01*
X198133813Y-105442646D01*
X197567146Y-105775980D02*
X197333813Y-105775980D01*
X197233813Y-106142646D02*
X197567146Y-106142646D01*
X197567146Y-105442646D01*
X197233813Y-105442646D01*
X196933813Y-106142646D02*
X196933813Y-105442646D01*
X196767146Y-105442646D01*
X196667146Y-105475980D01*
X196600480Y-105542646D01*
X196567146Y-105609313D01*
X196533813Y-105742646D01*
X196533813Y-105842646D01*
X196567146Y-105975980D01*
X196600480Y-106042646D01*
X196667146Y-106109313D01*
X196767146Y-106142646D01*
X196933813Y-106142646D01*
X198283813Y-107942646D02*
X198050480Y-108642646D01*
X197817146Y-107942646D01*
X197183813Y-108575980D02*
X197217146Y-108609313D01*
X197317146Y-108642646D01*
X197383813Y-108642646D01*
X197483813Y-108609313D01*
X197550480Y-108542646D01*
X197583813Y-108475980D01*
X197617146Y-108342646D01*
X197617146Y-108242646D01*
X197583813Y-108109313D01*
X197550480Y-108042646D01*
X197483813Y-107975980D01*
X197383813Y-107942646D01*
X197317146Y-107942646D01*
X197217146Y-107975980D01*
X197183813Y-108009313D01*
X196483813Y-108575980D02*
X196517146Y-108609313D01*
X196617146Y-108642646D01*
X196683813Y-108642646D01*
X196783813Y-108609313D01*
X196850480Y-108542646D01*
X196883813Y-108475980D01*
X196917146Y-108342646D01*
X196917146Y-108242646D01*
X196883813Y-108109313D01*
X196850480Y-108042646D01*
X196783813Y-107975980D01*
X196683813Y-107942646D01*
X196617146Y-107942646D01*
X196517146Y-107975980D01*
X196483813Y-108009313D01*
X197783813Y-102775980D02*
X197850480Y-102742646D01*
X197950480Y-102742646D01*
X198050480Y-102775980D01*
X198117146Y-102842646D01*
X198150480Y-102909313D01*
X198183813Y-103042646D01*
X198183813Y-103142646D01*
X198150480Y-103275980D01*
X198117146Y-103342646D01*
X198050480Y-103409313D01*
X197950480Y-103442646D01*
X197883813Y-103442646D01*
X197783813Y-103409313D01*
X197750480Y-103375980D01*
X197750480Y-103142646D01*
X197883813Y-103142646D01*
X197450480Y-103442646D02*
X197450480Y-102742646D01*
X197050480Y-103442646D01*
X197050480Y-102742646D01*
X196717146Y-103442646D02*
X196717146Y-102742646D01*
X196550480Y-102742646D01*
X196450480Y-102775980D01*
X196383813Y-102842646D01*
X196350480Y-102909313D01*
X196317146Y-103042646D01*
X196317146Y-103142646D01*
X196350480Y-103275980D01*
X196383813Y-103342646D01*
X196450480Y-103409313D01*
X196550480Y-103442646D01*
X196717146Y-103442646D01*
D11*
X210538975Y-102988875D02*
X210384156Y-102988875D01*
X210306746Y-103027580D01*
X210229337Y-103104989D01*
X210190632Y-103259808D01*
X210190632Y-103530741D01*
X210229337Y-103685560D01*
X210306746Y-103762970D01*
X210384156Y-103801675D01*
X210538975Y-103801675D01*
X210616384Y-103762970D01*
X210693794Y-103685560D01*
X210732499Y-103530741D01*
X210732499Y-103259808D01*
X210693794Y-103104989D01*
X210616384Y-103027580D01*
X210538975Y-102988875D01*
X209455241Y-103801675D02*
X209842289Y-103801675D01*
X209842289Y-102988875D01*
X209184308Y-103375922D02*
X208913375Y-103375922D01*
X208797260Y-103801675D02*
X209184308Y-103801675D01*
X209184308Y-102988875D01*
X208797260Y-102988875D01*
X208448918Y-103801675D02*
X208448918Y-102988875D01*
X208255394Y-102988875D01*
X208139280Y-103027580D01*
X208061870Y-103104989D01*
X208023165Y-103182399D01*
X207984460Y-103337218D01*
X207984460Y-103453332D01*
X208023165Y-103608151D01*
X208061870Y-103685560D01*
X208139280Y-103762970D01*
X208255394Y-103801675D01*
X208448918Y-103801675D01*
D10*
X214719360Y-98458908D02*
X214647932Y-98494622D01*
X214624122Y-98530337D01*
X214600313Y-98601765D01*
X214600313Y-98708908D01*
X214624122Y-98780337D01*
X214647932Y-98816051D01*
X214695551Y-98851765D01*
X214886027Y-98851765D01*
X214886027Y-98101765D01*
X214719360Y-98101765D01*
X214671741Y-98137480D01*
X214647932Y-98173194D01*
X214624122Y-98244622D01*
X214624122Y-98316051D01*
X214647932Y-98387480D01*
X214671741Y-98423194D01*
X214719360Y-98458908D01*
X214886027Y-98458908D01*
X214409837Y-98173194D02*
X214386027Y-98137480D01*
X214338408Y-98101765D01*
X214219360Y-98101765D01*
X214171741Y-98137480D01*
X214147932Y-98173194D01*
X214124122Y-98244622D01*
X214124122Y-98316051D01*
X214147932Y-98423194D01*
X214433646Y-98851765D01*
X214124122Y-98851765D01*
X214544718Y-73578765D02*
X214711384Y-73221622D01*
X214830432Y-73578765D02*
X214830432Y-72828765D01*
X214639956Y-72828765D01*
X214592337Y-72864480D01*
X214568527Y-72900194D01*
X214544718Y-72971622D01*
X214544718Y-73078765D01*
X214568527Y-73150194D01*
X214592337Y-73185908D01*
X214639956Y-73221622D01*
X214830432Y-73221622D01*
X214354241Y-73364480D02*
X214116146Y-73364480D01*
X214401860Y-73578765D02*
X214235194Y-72828765D01*
X214068527Y-73578765D01*
X213949480Y-72828765D02*
X213830432Y-73578765D01*
X213735194Y-73043051D01*
X213639956Y-73578765D01*
X213520908Y-72828765D01*
X214802646Y-80448765D02*
X214635980Y-81198765D01*
X214469313Y-80448765D01*
X214016932Y-81127337D02*
X214040741Y-81163051D01*
X214112170Y-81198765D01*
X214159789Y-81198765D01*
X214231218Y-81163051D01*
X214278837Y-81091622D01*
X214302646Y-81020194D01*
X214326456Y-80877337D01*
X214326456Y-80770194D01*
X214302646Y-80627337D01*
X214278837Y-80555908D01*
X214231218Y-80484480D01*
X214159789Y-80448765D01*
X214112170Y-80448765D01*
X214040741Y-80484480D01*
X214016932Y-80520194D01*
X213516932Y-81127337D02*
X213540741Y-81163051D01*
X213612170Y-81198765D01*
X213659789Y-81198765D01*
X213731218Y-81163051D01*
X213778837Y-81091622D01*
X213802646Y-81020194D01*
X213826456Y-80877337D01*
X213826456Y-80770194D01*
X213802646Y-80627337D01*
X213778837Y-80555908D01*
X213731218Y-80484480D01*
X213659789Y-80448765D01*
X213612170Y-80448765D01*
X213540741Y-80484480D01*
X213516932Y-80520194D01*
X214556099Y-86207337D02*
X214579908Y-86243051D01*
X214651337Y-86278765D01*
X214698956Y-86278765D01*
X214770384Y-86243051D01*
X214818003Y-86171622D01*
X214841813Y-86100194D01*
X214865622Y-85957337D01*
X214865622Y-85850194D01*
X214841813Y-85707337D01*
X214818003Y-85635908D01*
X214770384Y-85564480D01*
X214698956Y-85528765D01*
X214651337Y-85528765D01*
X214579908Y-85564480D01*
X214556099Y-85600194D01*
X214246575Y-85528765D02*
X214151337Y-85528765D01*
X214103718Y-85564480D01*
X214056099Y-85635908D01*
X214032289Y-85778765D01*
X214032289Y-86028765D01*
X214056099Y-86171622D01*
X214103718Y-86243051D01*
X214151337Y-86278765D01*
X214246575Y-86278765D01*
X214294194Y-86243051D01*
X214341813Y-86171622D01*
X214365622Y-86028765D01*
X214365622Y-85778765D01*
X214341813Y-85635908D01*
X214294194Y-85564480D01*
X214246575Y-85528765D01*
X213579908Y-86278765D02*
X213818003Y-86278765D01*
X213818003Y-85528765D01*
X213151337Y-86278765D02*
X213437051Y-86278765D01*
X213294194Y-86278765D02*
X213294194Y-85528765D01*
X213341813Y-85635908D01*
X213389432Y-85707337D01*
X213437051Y-85743051D01*
X199566622Y-83703051D02*
X199495194Y-83738765D01*
X199376146Y-83738765D01*
X199328527Y-83703051D01*
X199304718Y-83667337D01*
X199280908Y-83595908D01*
X199280908Y-83524480D01*
X199304718Y-83453051D01*
X199328527Y-83417337D01*
X199376146Y-83381622D01*
X199471384Y-83345908D01*
X199519003Y-83310194D01*
X199542813Y-83274480D01*
X199566622Y-83203051D01*
X199566622Y-83131622D01*
X199542813Y-83060194D01*
X199519003Y-83024480D01*
X199471384Y-82988765D01*
X199352337Y-82988765D01*
X199280908Y-83024480D01*
X199066622Y-83738765D02*
X199066622Y-82988765D01*
X198947575Y-82988765D01*
X198876146Y-83024480D01*
X198828527Y-83095908D01*
X198804718Y-83167337D01*
X198780908Y-83310194D01*
X198780908Y-83417337D01*
X198804718Y-83560194D01*
X198828527Y-83631622D01*
X198876146Y-83703051D01*
X198947575Y-83738765D01*
X199066622Y-83738765D01*
X198590432Y-83524480D02*
X198352337Y-83524480D01*
X198638051Y-83738765D02*
X198471384Y-82988765D01*
X198304718Y-83738765D01*
X214556099Y-88751837D02*
X214579908Y-88787551D01*
X214651337Y-88823265D01*
X214698956Y-88823265D01*
X214770384Y-88787551D01*
X214818003Y-88716122D01*
X214841813Y-88644694D01*
X214865622Y-88501837D01*
X214865622Y-88394694D01*
X214841813Y-88251837D01*
X214818003Y-88180408D01*
X214770384Y-88108980D01*
X214698956Y-88073265D01*
X214651337Y-88073265D01*
X214579908Y-88108980D01*
X214556099Y-88144694D01*
X214246575Y-88073265D02*
X214151337Y-88073265D01*
X214103718Y-88108980D01*
X214056099Y-88180408D01*
X214032289Y-88323265D01*
X214032289Y-88573265D01*
X214056099Y-88716122D01*
X214103718Y-88787551D01*
X214151337Y-88823265D01*
X214246575Y-88823265D01*
X214294194Y-88787551D01*
X214341813Y-88716122D01*
X214365622Y-88573265D01*
X214365622Y-88323265D01*
X214341813Y-88180408D01*
X214294194Y-88108980D01*
X214246575Y-88073265D01*
X213579908Y-88823265D02*
X213818003Y-88823265D01*
X213818003Y-88073265D01*
X213437051Y-88144694D02*
X213413241Y-88108980D01*
X213365622Y-88073265D01*
X213246575Y-88073265D01*
X213198956Y-88108980D01*
X213175146Y-88144694D01*
X213151337Y-88216122D01*
X213151337Y-88287551D01*
X213175146Y-88394694D01*
X213460860Y-88823265D01*
X213151337Y-88823265D01*
X214506099Y-93763837D02*
X214529908Y-93799551D01*
X214601337Y-93835265D01*
X214648956Y-93835265D01*
X214720384Y-93799551D01*
X214768003Y-93728122D01*
X214791813Y-93656694D01*
X214815622Y-93513837D01*
X214815622Y-93406694D01*
X214791813Y-93263837D01*
X214768003Y-93192408D01*
X214720384Y-93120980D01*
X214648956Y-93085265D01*
X214601337Y-93085265D01*
X214529908Y-93120980D01*
X214506099Y-93156694D01*
X214196575Y-93085265D02*
X214101337Y-93085265D01*
X214053718Y-93120980D01*
X214006099Y-93192408D01*
X213982289Y-93335265D01*
X213982289Y-93585265D01*
X214006099Y-93728122D01*
X214053718Y-93799551D01*
X214101337Y-93835265D01*
X214196575Y-93835265D01*
X214244194Y-93799551D01*
X214291813Y-93728122D01*
X214315622Y-93585265D01*
X214315622Y-93335265D01*
X214291813Y-93192408D01*
X214244194Y-93120980D01*
X214196575Y-93085265D01*
X213529908Y-93835265D02*
X213768003Y-93835265D01*
X213768003Y-93085265D01*
X213148956Y-93335265D02*
X213148956Y-93835265D01*
X213268003Y-93049551D02*
X213387051Y-93585265D01*
X213077527Y-93585265D01*
X199340432Y-80484480D02*
X199388051Y-80448765D01*
X199459480Y-80448765D01*
X199530908Y-80484480D01*
X199578527Y-80555908D01*
X199602337Y-80627337D01*
X199626146Y-80770194D01*
X199626146Y-80877337D01*
X199602337Y-81020194D01*
X199578527Y-81091622D01*
X199530908Y-81163051D01*
X199459480Y-81198765D01*
X199411860Y-81198765D01*
X199340432Y-81163051D01*
X199316622Y-81127337D01*
X199316622Y-80877337D01*
X199411860Y-80877337D01*
X199102337Y-81198765D02*
X199102337Y-80448765D01*
X198816622Y-81198765D01*
X198816622Y-80448765D01*
X198578527Y-81198765D02*
X198578527Y-80448765D01*
X198459480Y-80448765D01*
X198388051Y-80484480D01*
X198340432Y-80555908D01*
X198316622Y-80627337D01*
X198292813Y-80770194D01*
X198292813Y-80877337D01*
X198316622Y-81020194D01*
X198340432Y-81091622D01*
X198388051Y-81163051D01*
X198459480Y-81198765D01*
X198578527Y-81198765D01*
X214556099Y-91251837D02*
X214579908Y-91287551D01*
X214651337Y-91323265D01*
X214698956Y-91323265D01*
X214770384Y-91287551D01*
X214818003Y-91216122D01*
X214841813Y-91144694D01*
X214865622Y-91001837D01*
X214865622Y-90894694D01*
X214841813Y-90751837D01*
X214818003Y-90680408D01*
X214770384Y-90608980D01*
X214698956Y-90573265D01*
X214651337Y-90573265D01*
X214579908Y-90608980D01*
X214556099Y-90644694D01*
X214246575Y-90573265D02*
X214151337Y-90573265D01*
X214103718Y-90608980D01*
X214056099Y-90680408D01*
X214032289Y-90823265D01*
X214032289Y-91073265D01*
X214056099Y-91216122D01*
X214103718Y-91287551D01*
X214151337Y-91323265D01*
X214246575Y-91323265D01*
X214294194Y-91287551D01*
X214341813Y-91216122D01*
X214365622Y-91073265D01*
X214365622Y-90823265D01*
X214341813Y-90680408D01*
X214294194Y-90608980D01*
X214246575Y-90573265D01*
X213579908Y-91323265D02*
X213818003Y-91323265D01*
X213818003Y-90573265D01*
X213460860Y-90573265D02*
X213151337Y-90573265D01*
X213318003Y-90858980D01*
X213246575Y-90858980D01*
X213198956Y-90894694D01*
X213175146Y-90930408D01*
X213151337Y-91001837D01*
X213151337Y-91180408D01*
X213175146Y-91251837D01*
X213198956Y-91287551D01*
X213246575Y-91323265D01*
X213389432Y-91323265D01*
X213437051Y-91287551D01*
X213460860Y-91251837D01*
X199340432Y-77944480D02*
X199388051Y-77908765D01*
X199459480Y-77908765D01*
X199530908Y-77944480D01*
X199578527Y-78015908D01*
X199602337Y-78087337D01*
X199626146Y-78230194D01*
X199626146Y-78337337D01*
X199602337Y-78480194D01*
X199578527Y-78551622D01*
X199530908Y-78623051D01*
X199459480Y-78658765D01*
X199411860Y-78658765D01*
X199340432Y-78623051D01*
X199316622Y-78587337D01*
X199316622Y-78337337D01*
X199411860Y-78337337D01*
X199102337Y-78658765D02*
X199102337Y-77908765D01*
X198816622Y-78658765D01*
X198816622Y-77908765D01*
X198578527Y-78658765D02*
X198578527Y-77908765D01*
X198459480Y-77908765D01*
X198388051Y-77944480D01*
X198340432Y-78015908D01*
X198316622Y-78087337D01*
X198292813Y-78230194D01*
X198292813Y-78337337D01*
X198316622Y-78480194D01*
X198340432Y-78551622D01*
X198388051Y-78623051D01*
X198459480Y-78658765D01*
X198578527Y-78658765D01*
X199339432Y-88755265D02*
X199506099Y-88398122D01*
X199625146Y-88755265D02*
X199625146Y-88005265D01*
X199434670Y-88005265D01*
X199387051Y-88040980D01*
X199363241Y-88076694D01*
X199339432Y-88148122D01*
X199339432Y-88255265D01*
X199363241Y-88326694D01*
X199387051Y-88362408D01*
X199434670Y-88398122D01*
X199625146Y-88398122D01*
X199029908Y-88005265D02*
X198934670Y-88005265D01*
X198887051Y-88040980D01*
X198839432Y-88112408D01*
X198815622Y-88255265D01*
X198815622Y-88505265D01*
X198839432Y-88648122D01*
X198887051Y-88719551D01*
X198934670Y-88755265D01*
X199029908Y-88755265D01*
X199077527Y-88719551D01*
X199125146Y-88648122D01*
X199148956Y-88505265D01*
X199148956Y-88255265D01*
X199125146Y-88112408D01*
X199077527Y-88040980D01*
X199029908Y-88005265D01*
X198648956Y-88005265D02*
X198529908Y-88755265D01*
X198434670Y-88219551D01*
X198339432Y-88755265D01*
X198220384Y-88005265D01*
X197934670Y-88005265D02*
X197887051Y-88005265D01*
X197839432Y-88040980D01*
X197815622Y-88076694D01*
X197791813Y-88148122D01*
X197768003Y-88290980D01*
X197768003Y-88469551D01*
X197791813Y-88612408D01*
X197815622Y-88683837D01*
X197839432Y-88719551D01*
X197887051Y-88755265D01*
X197934670Y-88755265D01*
X197982289Y-88719551D01*
X198006099Y-88683837D01*
X198029908Y-88612408D01*
X198053718Y-88469551D01*
X198053718Y-88290980D01*
X198029908Y-88148122D01*
X198006099Y-88076694D01*
X197982289Y-88040980D01*
X197934670Y-88005265D01*
X199558480Y-76223265D02*
X199558480Y-75473265D01*
X199439432Y-75473265D01*
X199368003Y-75508980D01*
X199320384Y-75580408D01*
X199296575Y-75651837D01*
X199272765Y-75794694D01*
X199272765Y-75901837D01*
X199296575Y-76044694D01*
X199320384Y-76116122D01*
X199368003Y-76187551D01*
X199439432Y-76223265D01*
X199558480Y-76223265D01*
X199082289Y-76008980D02*
X198844194Y-76008980D01*
X199129908Y-76223265D02*
X198963241Y-75473265D01*
X198796575Y-76223265D01*
X198701337Y-75473265D02*
X198415622Y-75473265D01*
X198558480Y-76223265D02*
X198558480Y-75473265D01*
X198272765Y-76008980D02*
X198034670Y-76008980D01*
X198320384Y-76223265D02*
X198153718Y-75473265D01*
X197987051Y-76223265D01*
X214655860Y-101062408D02*
X214584432Y-101098122D01*
X214560622Y-101133837D01*
X214536813Y-101205265D01*
X214536813Y-101312408D01*
X214560622Y-101383837D01*
X214584432Y-101419551D01*
X214632051Y-101455265D01*
X214822527Y-101455265D01*
X214822527Y-100705265D01*
X214655860Y-100705265D01*
X214608241Y-100740980D01*
X214584432Y-100776694D01*
X214560622Y-100848122D01*
X214560622Y-100919551D01*
X214584432Y-100990980D01*
X214608241Y-101026694D01*
X214655860Y-101062408D01*
X214822527Y-101062408D01*
X214108241Y-100705265D02*
X214203480Y-100705265D01*
X214251099Y-100740980D01*
X214274908Y-100776694D01*
X214322527Y-100883837D01*
X214346337Y-101026694D01*
X214346337Y-101312408D01*
X214322527Y-101383837D01*
X214298718Y-101419551D01*
X214251099Y-101455265D01*
X214155860Y-101455265D01*
X214108241Y-101419551D01*
X214084432Y-101383837D01*
X214060622Y-101312408D01*
X214060622Y-101133837D01*
X214084432Y-101062408D01*
X214108241Y-101026694D01*
X214155860Y-100990980D01*
X214251099Y-100990980D01*
X214298718Y-101026694D01*
X214322527Y-101062408D01*
X214346337Y-101133837D01*
X214473289Y-78658765D02*
X214639956Y-78301622D01*
X214759003Y-78658765D02*
X214759003Y-77908765D01*
X214568527Y-77908765D01*
X214520908Y-77944480D01*
X214497099Y-77980194D01*
X214473289Y-78051622D01*
X214473289Y-78158765D01*
X214497099Y-78230194D01*
X214520908Y-78265908D01*
X214568527Y-78301622D01*
X214759003Y-78301622D01*
X214282813Y-78623051D02*
X214211384Y-78658765D01*
X214092337Y-78658765D01*
X214044718Y-78623051D01*
X214020908Y-78587337D01*
X213997099Y-78515908D01*
X213997099Y-78444480D01*
X214020908Y-78373051D01*
X214044718Y-78337337D01*
X214092337Y-78301622D01*
X214187575Y-78265908D01*
X214235194Y-78230194D01*
X214259003Y-78194480D01*
X214282813Y-78123051D01*
X214282813Y-78051622D01*
X214259003Y-77980194D01*
X214235194Y-77944480D01*
X214187575Y-77908765D01*
X214068527Y-77908765D01*
X213997099Y-77944480D01*
X213854241Y-77908765D02*
X213568527Y-77908765D01*
X213711384Y-78658765D02*
X213711384Y-77908765D01*
X214516932Y-75340980D02*
X214564551Y-75305265D01*
X214635980Y-75305265D01*
X214707408Y-75340980D01*
X214755027Y-75412408D01*
X214778837Y-75483837D01*
X214802646Y-75626694D01*
X214802646Y-75733837D01*
X214778837Y-75876694D01*
X214755027Y-75948122D01*
X214707408Y-76019551D01*
X214635980Y-76055265D01*
X214588360Y-76055265D01*
X214516932Y-76019551D01*
X214493122Y-75983837D01*
X214493122Y-75733837D01*
X214588360Y-75733837D01*
X214278837Y-76055265D02*
X214278837Y-75305265D01*
X213993122Y-76055265D01*
X213993122Y-75305265D01*
X213755027Y-76055265D02*
X213755027Y-75305265D01*
X213635980Y-75305265D01*
X213564551Y-75340980D01*
X213516932Y-75412408D01*
X213493122Y-75483837D01*
X213469313Y-75626694D01*
X213469313Y-75733837D01*
X213493122Y-75876694D01*
X213516932Y-75948122D01*
X213564551Y-76019551D01*
X213635980Y-76055265D01*
X213755027Y-76055265D01*
X199161860Y-101125908D02*
X199090432Y-101161622D01*
X199066622Y-101197337D01*
X199042813Y-101268765D01*
X199042813Y-101375908D01*
X199066622Y-101447337D01*
X199090432Y-101483051D01*
X199138051Y-101518765D01*
X199328527Y-101518765D01*
X199328527Y-100768765D01*
X199161860Y-100768765D01*
X199114241Y-100804480D01*
X199090432Y-100840194D01*
X199066622Y-100911622D01*
X199066622Y-100983051D01*
X199090432Y-101054480D01*
X199114241Y-101090194D01*
X199161860Y-101125908D01*
X199328527Y-101125908D01*
X198590432Y-100768765D02*
X198828527Y-100768765D01*
X198852337Y-101125908D01*
X198828527Y-101090194D01*
X198780908Y-101054480D01*
X198661860Y-101054480D01*
X198614241Y-101090194D01*
X198590432Y-101125908D01*
X198566622Y-101197337D01*
X198566622Y-101375908D01*
X198590432Y-101447337D01*
X198614241Y-101483051D01*
X198661860Y-101518765D01*
X198780908Y-101518765D01*
X198828527Y-101483051D01*
X198852337Y-101447337D01*
X199161860Y-98585908D02*
X199090432Y-98621622D01*
X199066622Y-98657337D01*
X199042813Y-98728765D01*
X199042813Y-98835908D01*
X199066622Y-98907337D01*
X199090432Y-98943051D01*
X199138051Y-98978765D01*
X199328527Y-98978765D01*
X199328527Y-98228765D01*
X199161860Y-98228765D01*
X199114241Y-98264480D01*
X199090432Y-98300194D01*
X199066622Y-98371622D01*
X199066622Y-98443051D01*
X199090432Y-98514480D01*
X199114241Y-98550194D01*
X199161860Y-98585908D01*
X199328527Y-98585908D01*
X198614241Y-98478765D02*
X198614241Y-98978765D01*
X198733289Y-98193051D02*
X198852337Y-98728765D01*
X198542813Y-98728765D01*
X214556099Y-83701837D02*
X214579908Y-83737551D01*
X214651337Y-83773265D01*
X214698956Y-83773265D01*
X214770384Y-83737551D01*
X214818003Y-83666122D01*
X214841813Y-83594694D01*
X214865622Y-83451837D01*
X214865622Y-83344694D01*
X214841813Y-83201837D01*
X214818003Y-83130408D01*
X214770384Y-83058980D01*
X214698956Y-83023265D01*
X214651337Y-83023265D01*
X214579908Y-83058980D01*
X214556099Y-83094694D01*
X214246575Y-83023265D02*
X214151337Y-83023265D01*
X214103718Y-83058980D01*
X214056099Y-83130408D01*
X214032289Y-83273265D01*
X214032289Y-83523265D01*
X214056099Y-83666122D01*
X214103718Y-83737551D01*
X214151337Y-83773265D01*
X214246575Y-83773265D01*
X214294194Y-83737551D01*
X214341813Y-83666122D01*
X214365622Y-83523265D01*
X214365622Y-83273265D01*
X214341813Y-83130408D01*
X214294194Y-83058980D01*
X214246575Y-83023265D01*
X213579908Y-83773265D02*
X213818003Y-83773265D01*
X213818003Y-83023265D01*
X213318003Y-83023265D02*
X213270384Y-83023265D01*
X213222765Y-83058980D01*
X213198956Y-83094694D01*
X213175146Y-83166122D01*
X213151337Y-83308980D01*
X213151337Y-83487551D01*
X213175146Y-83630408D01*
X213198956Y-83701837D01*
X213222765Y-83737551D01*
X213270384Y-83773265D01*
X213318003Y-83773265D01*
X213365622Y-83737551D01*
X213389432Y-83701837D01*
X213413241Y-83630408D01*
X213437051Y-83487551D01*
X213437051Y-83308980D01*
X213413241Y-83166122D01*
X213389432Y-83094694D01*
X213365622Y-83058980D01*
X213318003Y-83023265D01*
X199339432Y-91358765D02*
X199506099Y-91001622D01*
X199625146Y-91358765D02*
X199625146Y-90608765D01*
X199434670Y-90608765D01*
X199387051Y-90644480D01*
X199363241Y-90680194D01*
X199339432Y-90751622D01*
X199339432Y-90858765D01*
X199363241Y-90930194D01*
X199387051Y-90965908D01*
X199434670Y-91001622D01*
X199625146Y-91001622D01*
X199029908Y-90608765D02*
X198934670Y-90608765D01*
X198887051Y-90644480D01*
X198839432Y-90715908D01*
X198815622Y-90858765D01*
X198815622Y-91108765D01*
X198839432Y-91251622D01*
X198887051Y-91323051D01*
X198934670Y-91358765D01*
X199029908Y-91358765D01*
X199077527Y-91323051D01*
X199125146Y-91251622D01*
X199148956Y-91108765D01*
X199148956Y-90858765D01*
X199125146Y-90715908D01*
X199077527Y-90644480D01*
X199029908Y-90608765D01*
X198648956Y-90608765D02*
X198529908Y-91358765D01*
X198434670Y-90823051D01*
X198339432Y-91358765D01*
X198220384Y-90608765D01*
X197768003Y-91358765D02*
X198053718Y-91358765D01*
X197910860Y-91358765D02*
X197910860Y-90608765D01*
X197958480Y-90715908D01*
X198006099Y-90787337D01*
X198053718Y-90823051D01*
X199339432Y-96473265D02*
X199506099Y-96116122D01*
X199625146Y-96473265D02*
X199625146Y-95723265D01*
X199434670Y-95723265D01*
X199387051Y-95758980D01*
X199363241Y-95794694D01*
X199339432Y-95866122D01*
X199339432Y-95973265D01*
X199363241Y-96044694D01*
X199387051Y-96080408D01*
X199434670Y-96116122D01*
X199625146Y-96116122D01*
X199029908Y-95723265D02*
X198934670Y-95723265D01*
X198887051Y-95758980D01*
X198839432Y-95830408D01*
X198815622Y-95973265D01*
X198815622Y-96223265D01*
X198839432Y-96366122D01*
X198887051Y-96437551D01*
X198934670Y-96473265D01*
X199029908Y-96473265D01*
X199077527Y-96437551D01*
X199125146Y-96366122D01*
X199148956Y-96223265D01*
X199148956Y-95973265D01*
X199125146Y-95830408D01*
X199077527Y-95758980D01*
X199029908Y-95723265D01*
X198648956Y-95723265D02*
X198529908Y-96473265D01*
X198434670Y-95937551D01*
X198339432Y-96473265D01*
X198220384Y-95723265D01*
X198077527Y-95723265D02*
X197768003Y-95723265D01*
X197934670Y-96008980D01*
X197863241Y-96008980D01*
X197815622Y-96044694D01*
X197791813Y-96080408D01*
X197768003Y-96151837D01*
X197768003Y-96330408D01*
X197791813Y-96401837D01*
X197815622Y-96437551D01*
X197863241Y-96473265D01*
X198006099Y-96473265D01*
X198053718Y-96437551D01*
X198077527Y-96401837D01*
X214556099Y-96401837D02*
X214579908Y-96437551D01*
X214651337Y-96473265D01*
X214698956Y-96473265D01*
X214770384Y-96437551D01*
X214818003Y-96366122D01*
X214841813Y-96294694D01*
X214865622Y-96151837D01*
X214865622Y-96044694D01*
X214841813Y-95901837D01*
X214818003Y-95830408D01*
X214770384Y-95758980D01*
X214698956Y-95723265D01*
X214651337Y-95723265D01*
X214579908Y-95758980D01*
X214556099Y-95794694D01*
X214246575Y-95723265D02*
X214151337Y-95723265D01*
X214103718Y-95758980D01*
X214056099Y-95830408D01*
X214032289Y-95973265D01*
X214032289Y-96223265D01*
X214056099Y-96366122D01*
X214103718Y-96437551D01*
X214151337Y-96473265D01*
X214246575Y-96473265D01*
X214294194Y-96437551D01*
X214341813Y-96366122D01*
X214365622Y-96223265D01*
X214365622Y-95973265D01*
X214341813Y-95830408D01*
X214294194Y-95758980D01*
X214246575Y-95723265D01*
X213579908Y-96473265D02*
X213818003Y-96473265D01*
X213818003Y-95723265D01*
X213175146Y-95723265D02*
X213413241Y-95723265D01*
X213437051Y-96080408D01*
X213413241Y-96044694D01*
X213365622Y-96008980D01*
X213246575Y-96008980D01*
X213198956Y-96044694D01*
X213175146Y-96080408D01*
X213151337Y-96151837D01*
X213151337Y-96330408D01*
X213175146Y-96401837D01*
X213198956Y-96437551D01*
X213246575Y-96473265D01*
X213365622Y-96473265D01*
X213413241Y-96437551D01*
X213437051Y-96401837D01*
X199554718Y-86243051D02*
X199483289Y-86278765D01*
X199364241Y-86278765D01*
X199316622Y-86243051D01*
X199292813Y-86207337D01*
X199269003Y-86135908D01*
X199269003Y-86064480D01*
X199292813Y-85993051D01*
X199316622Y-85957337D01*
X199364241Y-85921622D01*
X199459480Y-85885908D01*
X199507099Y-85850194D01*
X199530908Y-85814480D01*
X199554718Y-85743051D01*
X199554718Y-85671622D01*
X199530908Y-85600194D01*
X199507099Y-85564480D01*
X199459480Y-85528765D01*
X199340432Y-85528765D01*
X199269003Y-85564480D01*
X198769003Y-86207337D02*
X198792813Y-86243051D01*
X198864241Y-86278765D01*
X198911860Y-86278765D01*
X198983289Y-86243051D01*
X199030908Y-86171622D01*
X199054718Y-86100194D01*
X199078527Y-85957337D01*
X199078527Y-85850194D01*
X199054718Y-85707337D01*
X199030908Y-85635908D01*
X198983289Y-85564480D01*
X198911860Y-85528765D01*
X198864241Y-85528765D01*
X198792813Y-85564480D01*
X198769003Y-85600194D01*
X198316622Y-86278765D02*
X198554718Y-86278765D01*
X198554718Y-85528765D01*
X199339432Y-93962265D02*
X199506099Y-93605122D01*
X199625146Y-93962265D02*
X199625146Y-93212265D01*
X199434670Y-93212265D01*
X199387051Y-93247980D01*
X199363241Y-93283694D01*
X199339432Y-93355122D01*
X199339432Y-93462265D01*
X199363241Y-93533694D01*
X199387051Y-93569408D01*
X199434670Y-93605122D01*
X199625146Y-93605122D01*
X199029908Y-93212265D02*
X198934670Y-93212265D01*
X198887051Y-93247980D01*
X198839432Y-93319408D01*
X198815622Y-93462265D01*
X198815622Y-93712265D01*
X198839432Y-93855122D01*
X198887051Y-93926551D01*
X198934670Y-93962265D01*
X199029908Y-93962265D01*
X199077527Y-93926551D01*
X199125146Y-93855122D01*
X199148956Y-93712265D01*
X199148956Y-93462265D01*
X199125146Y-93319408D01*
X199077527Y-93247980D01*
X199029908Y-93212265D01*
X198648956Y-93212265D02*
X198529908Y-93962265D01*
X198434670Y-93426551D01*
X198339432Y-93962265D01*
X198220384Y-93212265D01*
X198053718Y-93283694D02*
X198029908Y-93247980D01*
X197982289Y-93212265D01*
X197863241Y-93212265D01*
X197815622Y-93247980D01*
X197791813Y-93283694D01*
X197768003Y-93355122D01*
X197768003Y-93426551D01*
X197791813Y-93533694D01*
X198077527Y-93962265D01*
X197768003Y-93962265D01*
D11*
D10*
X199280908Y-73578765D02*
X199519003Y-73578765D01*
X199519003Y-72828765D01*
X199114241Y-73185908D02*
X198947575Y-73185908D01*
X198876146Y-73578765D02*
X199114241Y-73578765D01*
X199114241Y-72828765D01*
X198876146Y-72828765D01*
X198661860Y-73578765D02*
X198661860Y-72828765D01*
X198542813Y-72828765D01*
X198471384Y-72864480D01*
X198423765Y-72935908D01*
X198399956Y-73007337D01*
X198376146Y-73150194D01*
X198376146Y-73257337D01*
X198399956Y-73400194D01*
X198423765Y-73471622D01*
X198471384Y-73543051D01*
X198542813Y-73578765D01*
X198661860Y-73578765D01*
D11*
X214889360Y-118888575D02*
X214889360Y-119460003D01*
X215889360Y-119174289D02*
X214889360Y-119174289D01*
X215889360Y-120364765D02*
X215413170Y-120031432D01*
X215889360Y-119793337D02*
X214889360Y-119793337D01*
X214889360Y-120174289D01*
X214936980Y-120269527D01*
X214984599Y-120317146D01*
X215079837Y-120364765D01*
X215222694Y-120364765D01*
X215317932Y-120317146D01*
X215365551Y-120269527D01*
X215413170Y-120174289D01*
X215413170Y-119793337D01*
X215889360Y-121364765D02*
X215413170Y-121031432D01*
X215889360Y-120793337D02*
X214889360Y-120793337D01*
X214889360Y-121174289D01*
X214936980Y-121269527D01*
X214984599Y-121317146D01*
X215079837Y-121364765D01*
X215222694Y-121364765D01*
X215317932Y-121317146D01*
X215365551Y-121269527D01*
X215413170Y-121174289D01*
X215413170Y-120793337D01*
X215841741Y-121745718D02*
X215889360Y-121888575D01*
X215889360Y-122126670D01*
X215841741Y-122221908D01*
X215794122Y-122269527D01*
X215698884Y-122317146D01*
X215603646Y-122317146D01*
X215508408Y-122269527D01*
X215460789Y-122221908D01*
X215413170Y-122126670D01*
X215365551Y-121936194D01*
X215317932Y-121840956D01*
X215270313Y-121793337D01*
X215175075Y-121745718D01*
X215079837Y-121745718D01*
X214984599Y-121793337D01*
X214936980Y-121840956D01*
X214889360Y-121936194D01*
X214889360Y-122174289D01*
X214936980Y-122317146D01*
X217610860Y-105768884D02*
X217134670Y-105435551D01*
X217610860Y-105197456D02*
X216610860Y-105197456D01*
X216610860Y-105578408D01*
X216658480Y-105673646D01*
X216706099Y-105721265D01*
X216801337Y-105768884D01*
X216944194Y-105768884D01*
X217039432Y-105721265D01*
X217087051Y-105673646D01*
X217134670Y-105578408D01*
X217134670Y-105197456D01*
X217563241Y-106578408D02*
X217610860Y-106483170D01*
X217610860Y-106292694D01*
X217563241Y-106197456D01*
X217468003Y-106149837D01*
X217087051Y-106149837D01*
X216991813Y-106197456D01*
X216944194Y-106292694D01*
X216944194Y-106483170D01*
X216991813Y-106578408D01*
X217087051Y-106626027D01*
X217182289Y-106626027D01*
X217277527Y-106149837D01*
X217563241Y-107006980D02*
X217610860Y-107102218D01*
X217610860Y-107292694D01*
X217563241Y-107387932D01*
X217468003Y-107435551D01*
X217420384Y-107435551D01*
X217325146Y-107387932D01*
X217277527Y-107292694D01*
X217277527Y-107149837D01*
X217229908Y-107054599D01*
X217134670Y-107006980D01*
X217087051Y-107006980D01*
X216991813Y-107054599D01*
X216944194Y-107149837D01*
X216944194Y-107292694D01*
X216991813Y-107387932D01*
X217563241Y-108245075D02*
X217610860Y-108149837D01*
X217610860Y-107959360D01*
X217563241Y-107864122D01*
X217468003Y-107816503D01*
X217087051Y-107816503D01*
X216991813Y-107864122D01*
X216944194Y-107959360D01*
X216944194Y-108149837D01*
X216991813Y-108245075D01*
X217087051Y-108292694D01*
X217182289Y-108292694D01*
X217277527Y-107816503D01*
X216944194Y-108578408D02*
X216944194Y-108959360D01*
X216610860Y-108721265D02*
X217468003Y-108721265D01*
X217563241Y-108768884D01*
X217610860Y-108864122D01*
X217610860Y-108959360D01*
X211393946Y-110865175D02*
X211664880Y-110478127D01*
X211858403Y-110865175D02*
X211858403Y-110052375D01*
X211548765Y-110052375D01*
X211471356Y-110091080D01*
X211432651Y-110129784D01*
X211393946Y-110207194D01*
X211393946Y-110323308D01*
X211432651Y-110400718D01*
X211471356Y-110439422D01*
X211548765Y-110478127D01*
X211858403Y-110478127D01*
X211084308Y-110129784D02*
X211045603Y-110091080D01*
X210968194Y-110052375D01*
X210774670Y-110052375D01*
X210697260Y-110091080D01*
X210658556Y-110129784D01*
X210619851Y-110207194D01*
X210619851Y-110284603D01*
X210658556Y-110400718D01*
X211123013Y-110865175D01*
X210619851Y-110865175D01*
X211393946Y-108565175D02*
X211664880Y-108178127D01*
X211858403Y-108565175D02*
X211858403Y-107752375D01*
X211548765Y-107752375D01*
X211471356Y-107791080D01*
X211432651Y-107829784D01*
X211393946Y-107907194D01*
X211393946Y-108023308D01*
X211432651Y-108100718D01*
X211471356Y-108139422D01*
X211548765Y-108178127D01*
X211858403Y-108178127D01*
X210619851Y-108565175D02*
X211084308Y-108565175D01*
X210852080Y-108565175D02*
X210852080Y-107752375D01*
X210929489Y-107868489D01*
X211006899Y-107945899D01*
X211084308Y-107984603D01*
X207658403Y-108601675D02*
X207658403Y-107788875D01*
X207348765Y-107788875D01*
X207271356Y-107827580D01*
X207232651Y-107866284D01*
X207193946Y-107943694D01*
X207193946Y-108059808D01*
X207232651Y-108137218D01*
X207271356Y-108175922D01*
X207348765Y-108214627D01*
X207658403Y-108214627D01*
X206419851Y-108601675D02*
X206884308Y-108601675D01*
X206652080Y-108601675D02*
X206652080Y-107788875D01*
X206729489Y-107904989D01*
X206806899Y-107982399D01*
X206884308Y-108021103D01*
X207658403Y-110801675D02*
X207658403Y-109988875D01*
X207348765Y-109988875D01*
X207271356Y-110027580D01*
X207232651Y-110066284D01*
X207193946Y-110143694D01*
X207193946Y-110259808D01*
X207232651Y-110337218D01*
X207271356Y-110375922D01*
X207348765Y-110414627D01*
X207658403Y-110414627D01*
X206884308Y-110066284D02*
X206845603Y-110027580D01*
X206768194Y-109988875D01*
X206574670Y-109988875D01*
X206497260Y-110027580D01*
X206458556Y-110066284D01*
X206419851Y-110143694D01*
X206419851Y-110221103D01*
X206458556Y-110337218D01*
X206923013Y-110801675D01*
X206419851Y-110801675D01*
X63650480Y-73925980D02*
X62250480Y-73925980D01*
X62950480Y-73925980D02*
X63650480Y-74825980D01*
X62250480Y-74825980D02*
X62950480Y-73925980D01*
X63650480Y-74825980D02*
X62250480Y-74825980D01*
X81150480Y-74725980D02*
X81850480Y-73825980D01*
X82550480Y-74725980D02*
X81150480Y-74725980D01*
X81850480Y-73825980D02*
X82550480Y-74725980D01*
X82550480Y-73825980D02*
X81150480Y-73825980D01*
X115750480Y-69025980D02*
X116450480Y-69925980D01*
X115050480Y-69925980D02*
X115750480Y-69025980D01*
X116450480Y-69925980D02*
X115050480Y-69925980D01*
X116450480Y-69025980D02*
X115050480Y-69025980D01*
X135350480Y-67625980D02*
X133950480Y-67625980D01*
X135350480Y-66725980D02*
X133950480Y-66725980D01*
X134650480Y-66725980D02*
X135350480Y-67625980D01*
X133950480Y-67625980D02*
X134650480Y-66725980D01*
X154250480Y-69925980D02*
X152850480Y-69925980D01*
X154250480Y-69025980D02*
X152850480Y-69025980D01*
X152850480Y-69925980D02*
X153550480Y-69025980D01*
X153550480Y-69025980D02*
X154250480Y-69925980D01*
X157700000Y-70775000D02*
X156300000Y-70775000D01*
X156300000Y-70775000D02*
X157000000Y-69875000D01*
X157700000Y-69875000D02*
X156300000Y-69875000D01*
X157000000Y-69875000D02*
X157700000Y-70775000D01*
X65050480Y-91025980D02*
X63650480Y-91025980D01*
X63650480Y-91925980D02*
X64350480Y-91025980D01*
X65050480Y-91925980D02*
X63650480Y-91925980D01*
X64350480Y-91025980D02*
X65050480Y-91925980D01*
X97150480Y-93425980D02*
X95750480Y-93425980D01*
X96450480Y-92525980D02*
X97150480Y-93425980D01*
X95750480Y-93425980D02*
X96450480Y-92525980D01*
X97150480Y-92525980D02*
X95750480Y-92525980D01*
X116700000Y-88875000D02*
X115300000Y-88875000D01*
X115300000Y-89775000D02*
X116000000Y-88875000D01*
X116000000Y-88875000D02*
X116700000Y-89775000D01*
X116700000Y-89775000D02*
X115300000Y-89775000D01*
X135700000Y-86500000D02*
X134300000Y-86500000D01*
X135000000Y-86500000D02*
X135700000Y-87400000D01*
X134300000Y-87400000D02*
X135000000Y-86500000D01*
X135700000Y-87400000D02*
X134300000Y-87400000D01*
X154700000Y-88875000D02*
X153300000Y-88875000D01*
X153300000Y-89775000D02*
X154000000Y-88875000D01*
X154700000Y-89775000D02*
X153300000Y-89775000D01*
X154000000Y-88875000D02*
X154700000Y-89775000D01*
X156300000Y-89775000D02*
X157000000Y-88875000D01*
X157700000Y-88875000D02*
X156300000Y-88875000D01*
X157700000Y-89775000D02*
X156300000Y-89775000D01*
X157000000Y-88875000D02*
X157700000Y-89775000D01*
X64450480Y-110625980D02*
X65150480Y-111525980D01*
X65150480Y-110625980D02*
X63750480Y-110625980D01*
X65150480Y-111525980D02*
X63750480Y-111525980D01*
X63750480Y-111525980D02*
X64450480Y-110625980D01*
X97250480Y-111925980D02*
X95850480Y-111925980D01*
X96550480Y-111925980D02*
X97250480Y-112825980D01*
X97250480Y-112825980D02*
X95850480Y-112825980D01*
X95850480Y-112825980D02*
X96550480Y-111925980D01*
X114950480Y-107425980D02*
X115650480Y-106525980D01*
X116350480Y-106525980D02*
X114950480Y-106525980D01*
X115650480Y-106525980D02*
X116350480Y-107425980D01*
X116350480Y-107425980D02*
X114950480Y-107425980D01*
X135000000Y-104625980D02*
X135700000Y-105525980D01*
X135700000Y-104625980D02*
X134300000Y-104625980D01*
X134300000Y-105525980D02*
X135000000Y-104625980D01*
X135700000Y-105525980D02*
X134300000Y-105525980D01*
X154000000Y-106925980D02*
X154700000Y-107825980D01*
X154700000Y-106925980D02*
X153300000Y-106925980D01*
X154700000Y-107825980D02*
X153300000Y-107825980D01*
X153300000Y-107825980D02*
X154000000Y-106925980D01*
X156300000Y-107825980D02*
X157000000Y-106925980D01*
X157700000Y-107825980D02*
X156300000Y-107825980D01*
X157000000Y-106925980D02*
X157700000Y-107825980D01*
X157700000Y-106925980D02*
X156300000Y-106925980D01*
X129150480Y-125325980D02*
X129850480Y-126225980D01*
X128450480Y-126225980D02*
X129150480Y-125325980D01*
X129850480Y-125325980D02*
X128450480Y-125325980D01*
X129850480Y-126225980D02*
X128450480Y-126225980D01*
X151450480Y-128325980D02*
X150050480Y-128325980D01*
X151450480Y-127425980D02*
X150050480Y-127425980D01*
X150750480Y-127425980D02*
X151450480Y-128325980D01*
X150050480Y-128325980D02*
X150750480Y-127425980D01*
X169750480Y-133525980D02*
X170450480Y-132625980D01*
X170450480Y-132625980D02*
X171150480Y-133525980D01*
X171150480Y-133525980D02*
X169750480Y-133525980D01*
X171150480Y-132625980D02*
X169750480Y-132625980D01*
D12*
X73430000Y-70025000D02*
X73430000Y-71475000D01*
X71380000Y-71475000D02*
X71380000Y-70025000D01*
X71380000Y-70025000D02*
X73430000Y-70025000D01*
X73430000Y-71475000D02*
X71380000Y-71475000D01*
X90380000Y-71475000D02*
X90380000Y-70025000D01*
X90380000Y-70025000D02*
X92430000Y-70025000D01*
X92430000Y-70025000D02*
X92430000Y-71475000D01*
X92430000Y-71475000D02*
X90380000Y-71475000D01*
X111430000Y-65275000D02*
X111430000Y-66725000D01*
X109380000Y-66725000D02*
X109380000Y-65275000D01*
X111430000Y-66725000D02*
X109380000Y-66725000D01*
X109380000Y-65275000D02*
X111430000Y-65275000D01*
X130430000Y-64350000D02*
X128380000Y-64350000D01*
X128380000Y-64350000D02*
X128380000Y-62900000D01*
X128380000Y-62900000D02*
X130430000Y-62900000D01*
X130430000Y-62900000D02*
X130430000Y-64350000D01*
X147380000Y-65275000D02*
X149430000Y-65275000D01*
X149430000Y-66725000D02*
X147380000Y-66725000D01*
X147380000Y-66725000D02*
X147380000Y-65275000D01*
X149430000Y-65275000D02*
X149430000Y-66725000D01*
X166380000Y-67650000D02*
X168430000Y-67650000D01*
X166380000Y-69100000D02*
X166380000Y-67650000D01*
X168430000Y-69100000D02*
X166380000Y-69100000D01*
X168430000Y-67650000D02*
X168430000Y-69100000D01*
X73430000Y-90475000D02*
X71380000Y-90475000D01*
X71380000Y-90475000D02*
X71380000Y-89025000D01*
X71380000Y-89025000D02*
X73430000Y-89025000D01*
X73430000Y-89025000D02*
X73430000Y-90475000D01*
X92430000Y-89025000D02*
X92430000Y-90475000D01*
X90380000Y-89025000D02*
X92430000Y-89025000D01*
X92430000Y-90475000D02*
X90380000Y-90475000D01*
X90380000Y-90475000D02*
X90380000Y-89025000D01*
X111430000Y-85725000D02*
X109380000Y-85725000D01*
X111430000Y-84275000D02*
X111430000Y-85725000D01*
X109380000Y-85725000D02*
X109380000Y-84275000D01*
X109380000Y-84275000D02*
X111430000Y-84275000D01*
X130430000Y-81900000D02*
X130430000Y-83350000D01*
X128380000Y-83350000D02*
X128380000Y-81900000D01*
X130430000Y-83350000D02*
X128380000Y-83350000D01*
X128380000Y-81900000D02*
X130430000Y-81900000D01*
X149430000Y-84275000D02*
X149430000Y-85725000D01*
X147380000Y-85725000D02*
X147380000Y-84275000D01*
X147380000Y-84275000D02*
X149430000Y-84275000D01*
X149430000Y-85725000D02*
X147380000Y-85725000D01*
X161570000Y-89850000D02*
X161570000Y-88400000D01*
X163620000Y-88400000D02*
X163620000Y-89850000D01*
X163620000Y-89850000D02*
X161570000Y-89850000D01*
X161570000Y-88400000D02*
X163620000Y-88400000D01*
X71380000Y-109475000D02*
X71380000Y-108025000D01*
X73430000Y-108025000D02*
X73430000Y-109475000D01*
X73430000Y-109475000D02*
X71380000Y-109475000D01*
X71380000Y-108025000D02*
X73430000Y-108025000D01*
X92430000Y-108025000D02*
X92430000Y-109475000D01*
X90380000Y-109475000D02*
X90380000Y-108025000D01*
X90380000Y-108025000D02*
X92430000Y-108025000D01*
X92430000Y-109475000D02*
X90380000Y-109475000D01*
X111430000Y-103275000D02*
X111430000Y-104725000D01*
X111430000Y-104725000D02*
X109380000Y-104725000D01*
X109380000Y-103275000D02*
X111430000Y-103275000D01*
X109380000Y-104725000D02*
X109380000Y-103275000D01*
X128380000Y-102350000D02*
X128380000Y-100900000D01*
X128380000Y-100900000D02*
X130430000Y-100900000D01*
X130430000Y-102350000D02*
X128380000Y-102350000D01*
X130430000Y-100900000D02*
X130430000Y-102350000D01*
X147380000Y-103275000D02*
X149430000Y-103275000D01*
X149430000Y-104725000D02*
X147380000Y-104725000D01*
X149430000Y-103275000D02*
X149430000Y-104725000D01*
X147380000Y-104725000D02*
X147380000Y-103275000D01*
X166380000Y-105650000D02*
X168430000Y-105650000D01*
X166380000Y-107100000D02*
X166380000Y-105650000D01*
X168430000Y-107100000D02*
X166380000Y-107100000D01*
X168430000Y-105650000D02*
X168430000Y-107100000D01*
X137880000Y-124350000D02*
X137880000Y-122900000D01*
X139930000Y-124350000D02*
X137880000Y-124350000D01*
X139930000Y-122900000D02*
X139930000Y-124350000D01*
X137880000Y-122900000D02*
X139930000Y-122900000D01*
X160371800Y-127712281D02*
X160747088Y-126311689D01*
X162351948Y-128242860D02*
X160371800Y-127712281D01*
X162727236Y-126842268D02*
X162351948Y-128242860D01*
X160747088Y-126311689D02*
X162727236Y-126842268D01*
X177051997Y-134106062D02*
X178827349Y-135131062D01*
X176326997Y-135361799D02*
X177051997Y-134106062D01*
X178827349Y-135131062D02*
X178102349Y-136386799D01*
X178102349Y-136386799D02*
X176326997Y-135361799D01*
D11*
X215088480Y-71905980D02*
X217628480Y-71905980D01*
X217628480Y-71905980D02*
X217628480Y-102385980D01*
X199848480Y-71905980D02*
X202388480Y-71905980D01*
X202388480Y-71905980D02*
X202388480Y-102385980D01*
X215088480Y-102385980D02*
X215088480Y-71905980D01*
X202388480Y-102385980D02*
X199848480Y-102385980D01*
X199848480Y-102385980D02*
X199848480Y-71905980D01*
X217628480Y-102385980D02*
X215088480Y-102385980D01*
X204288480Y-106703980D02*
X204288480Y-104163980D01*
X204288480Y-104163980D02*
X214448480Y-104163980D01*
X214448480Y-106703980D02*
X204288480Y-106703980D01*
X214448480Y-104163980D02*
X214448480Y-106703980D01*
X221850480Y-116725980D02*
X221850480Y-122725980D01*
X221850480Y-122725980D02*
X209850480Y-122725980D01*
X209850480Y-122725980D02*
X209850480Y-116725980D01*
X209850480Y-116725980D02*
X221850480Y-116725980D01*
X218908480Y-104133980D02*
X218908480Y-110133980D01*
X218658480Y-104133980D02*
X218908480Y-104133980D01*
X215408480Y-104133980D02*
X215658480Y-104133980D01*
X215408480Y-110133980D02*
X215408480Y-104133980D01*
X215658480Y-110133980D02*
X215408480Y-110133980D01*
X218908480Y-110133980D02*
X218658480Y-110133980D01*
D12*
X89940480Y-87925980D02*
X89940480Y-86475980D01*
X92390480Y-87925980D02*
X89940480Y-87925980D01*
X89940480Y-86475980D02*
X92360480Y-86475980D01*
X92390480Y-86475980D02*
X92390480Y-87925980D01*
X128030480Y-80925980D02*
X128030480Y-79475980D01*
X130480480Y-80925980D02*
X128030480Y-80925980D01*
X130480480Y-79475980D02*
X130480480Y-80925980D01*
X128030480Y-79475980D02*
X130450480Y-79475980D01*
X168490480Y-85625980D02*
X166040480Y-85625980D01*
X168490480Y-84175980D02*
X168490480Y-85625980D01*
X166040480Y-85625980D02*
X166040480Y-84175980D01*
X166040480Y-84175980D02*
X168460480Y-84175980D01*
X85570000Y-105275980D02*
X85570000Y-103825980D01*
X88020000Y-105275980D02*
X85600000Y-105275980D01*
X85570000Y-103825980D02*
X88020000Y-103825980D01*
X88020000Y-103825980D02*
X88020000Y-105275980D01*
X126020000Y-118175980D02*
X123600000Y-118175980D01*
X123570000Y-118175980D02*
X123570000Y-116725980D01*
X126020000Y-116725980D02*
X126020000Y-118175980D01*
X123570000Y-116725980D02*
X126020000Y-116725980D01*
X162010480Y-121625980D02*
X164460480Y-121625980D01*
X162010480Y-123075980D02*
X162010480Y-121625980D01*
X164460480Y-123075980D02*
X162040480Y-123075980D01*
X164460480Y-121625980D02*
X164460480Y-123075980D01*
D11*
X212758480Y-109433980D02*
X212758480Y-111433980D01*
X209758480Y-111433980D02*
X209758480Y-109433980D01*
X209758480Y-109433980D02*
X212758480Y-109433980D01*
X212758480Y-111433980D02*
X209758480Y-111433980D01*
X212758480Y-107133980D02*
X212758480Y-109133980D01*
X212758480Y-109133980D02*
X209758480Y-109133980D01*
X209758480Y-107133980D02*
X212758480Y-107133980D01*
X209758480Y-109133980D02*
X209758480Y-107133980D01*
X204258480Y-107133980D02*
X206258480Y-107133980D01*
X206258480Y-109133980D02*
X204258480Y-109133980D01*
X206258480Y-107133980D02*
X206258480Y-109133980D01*
X204258480Y-109133980D02*
X204258480Y-107133980D01*
X206258480Y-111433980D02*
X204258480Y-111433980D01*
X206258480Y-109433980D02*
X206258480Y-111433980D01*
X204258480Y-111433980D02*
X204258480Y-109433980D01*
X204258480Y-109433980D02*
X206258480Y-109433980D01*
X191499008Y-145867401D02*
X190509059Y-144877452D01*
X190862612Y-146503797D02*
X189872663Y-145513848D01*
X189872663Y-145513848D02*
X191004033Y-145372427D01*
X191004033Y-145372427D02*
X190862612Y-146503797D01*
D12*
X200571010Y-151656203D02*
X199121441Y-150206634D01*
X201596315Y-150630898D02*
X200571010Y-151656203D01*
X200146746Y-149181330D02*
X201596315Y-150630898D01*
X199121441Y-150206634D02*
X200146746Y-149181330D01*
D11*
X176994262Y-119950147D02*
X178050480Y-119520724D01*
X178656698Y-119870724D02*
X177444262Y-119170724D01*
X178206698Y-120650147D02*
X176994262Y-119950147D01*
X178050480Y-119520724D02*
X178206698Y-120650147D01*
X176750480Y-71325980D02*
X177450480Y-72225980D01*
X177450480Y-72225980D02*
X176050480Y-72225980D01*
X176050480Y-72225980D02*
X176750480Y-71325980D01*
X177450480Y-71325980D02*
X176050480Y-71325980D01*
X177450480Y-91525980D02*
X176050480Y-91525980D01*
X176750480Y-90625980D02*
X177450480Y-91525980D01*
X176050480Y-91525980D02*
X176750480Y-90625980D01*
X177450480Y-90625980D02*
X176050480Y-90625980D01*
D12*
X212772336Y-136616756D02*
X213797641Y-135591452D01*
X213797641Y-135591452D02*
X215247210Y-137041020D01*
X215247210Y-137041020D02*
X214221905Y-138066325D01*
X214221905Y-138066325D02*
X212772336Y-136616756D01*
D11*
X200940430Y-133105879D02*
X200799009Y-131974509D01*
X200799009Y-131974509D02*
X201930379Y-132115930D01*
X201930379Y-132115930D02*
X200940430Y-133105879D01*
X201293983Y-131479534D02*
X200304034Y-132469483D01*
D12*
X193570947Y-119392199D02*
X192845947Y-120647936D01*
X191795595Y-118367199D02*
X193570947Y-119392199D01*
X191070595Y-119622936D02*
X191795595Y-118367199D01*
X192845947Y-120647936D02*
X191070595Y-119622936D01*
X200612074Y-148050315D02*
X201637379Y-147025011D01*
X202344485Y-149782727D02*
X200612074Y-148050315D01*
X201637379Y-147025011D02*
X203348577Y-148736209D01*
X203369790Y-148757422D02*
X202344485Y-149782727D01*
X185330480Y-69155980D02*
X185330480Y-67705980D01*
X187380480Y-69155980D02*
X185330480Y-69155980D01*
X187380480Y-67705980D02*
X187380480Y-69155980D01*
X185330480Y-67705980D02*
X187380480Y-67705980D01*
X180620480Y-89825980D02*
X180620480Y-88375980D01*
X180620480Y-88375980D02*
X182670480Y-88375980D01*
X182670480Y-89825980D02*
X180620480Y-89825980D01*
X182670480Y-88375980D02*
X182670480Y-89825980D01*
D11*
X214022480Y-100240980D02*
X212244480Y-100240980D01*
X212244480Y-100240980D02*
X212244480Y-102526980D01*
X214022480Y-102526980D02*
X214022480Y-100240980D01*
X212244480Y-102526980D02*
X214022480Y-102526980D01*
X211522480Y-100240980D02*
X209744480Y-100240980D01*
X209744480Y-102526980D02*
X211522480Y-102526980D01*
X209744480Y-100240980D02*
X209744480Y-102526980D01*
X211522480Y-102526980D02*
X211522480Y-100240980D01*
X209022480Y-100240980D02*
X207244480Y-100240980D01*
X207244480Y-100240980D02*
X207244480Y-102526980D01*
X209022480Y-102526980D02*
X209022480Y-100240980D01*
X207244480Y-102526980D02*
X209022480Y-102526980D01*
X206522480Y-102526980D02*
X206522480Y-100240980D01*
X204744480Y-102526980D02*
X206522480Y-102526980D01*
X206522480Y-100240980D02*
X204744480Y-100240980D01*
X204744480Y-100240980D02*
X204744480Y-102526980D01*
D13*
X209859986Y-93182941D02*
X209969423Y-93114670D01*
X206965782Y-92370186D02*
X206965688Y-92370737D01*
X206965688Y-92370737D02*
X206964440Y-92371683D01*
X208160988Y-94466707D02*
X208269915Y-94480489D01*
X207647157Y-93146593D02*
X207704709Y-93187958D01*
X205010429Y-93347012D02*
X205049698Y-93483654D01*
X206176963Y-92976961D02*
X206172879Y-92969925D01*
X206589231Y-91038034D02*
X206588288Y-91079681D01*
X208671627Y-92082765D02*
X208794633Y-91993542D01*
X208910697Y-91899144D02*
X209019590Y-91801250D01*
X208894860Y-94511727D02*
X209024209Y-94510004D01*
X205985450Y-92894322D02*
X205977401Y-92896587D01*
X205859112Y-93074224D02*
X205860191Y-93082632D01*
X205363730Y-95246207D02*
X205407598Y-95205254D01*
X205896965Y-92950174D02*
X205891930Y-92956521D01*
X207122113Y-92505487D02*
X207131651Y-92526325D01*
X206710724Y-90217537D02*
X206695148Y-90259152D01*
X205961820Y-93211853D02*
X205969521Y-93214861D01*
X206819794Y-89988489D02*
X206796685Y-90031712D01*
X206796685Y-90031712D02*
X206773850Y-90076564D01*
X205858458Y-93048400D02*
X205858237Y-93057046D01*
X208541905Y-92165135D02*
X208607591Y-92124912D01*
X208541905Y-92165135D02*
X208541905Y-92165135D01*
X206853142Y-92242264D02*
X206914540Y-92274323D01*
X206101362Y-93208488D02*
X206108675Y-93204778D01*
X206196557Y-93074224D02*
X206197212Y-93065691D01*
X209383936Y-94475826D02*
X209494545Y-94455882D01*
X206158705Y-92950174D02*
X206153374Y-92944078D01*
X207474401Y-88703444D02*
X207388409Y-88776614D01*
X206340160Y-90204333D02*
X206302928Y-90322728D01*
X206594164Y-92490662D02*
X206576842Y-92492897D01*
X205797118Y-94825522D02*
X205797118Y-94825522D01*
X206964440Y-92371683D02*
X206958664Y-92374680D01*
X207117389Y-94284712D02*
X207117389Y-94284712D01*
X206355174Y-92484569D02*
X206302312Y-92482358D01*
X207131651Y-92526325D02*
X207142445Y-92548397D01*
X205950312Y-94059552D02*
X205950312Y-94059552D01*
X206985362Y-89716680D02*
X206887036Y-89871958D01*
X206383435Y-90091859D02*
X206383435Y-90091859D01*
X205907911Y-92938243D02*
X205902295Y-92944078D01*
X206603369Y-89674545D02*
X206554900Y-89753838D01*
X206070220Y-93219767D02*
X206078268Y-93217503D01*
X205860191Y-93031459D02*
X205859112Y-93039867D01*
X205585461Y-95036066D02*
X205657852Y-94965593D01*
X206002007Y-93223120D02*
X206010494Y-93224189D01*
X206523521Y-94339284D02*
X206580374Y-94323892D01*
X206053663Y-93223120D02*
X206062015Y-93221643D01*
X205620753Y-92876360D02*
X205598308Y-92933034D01*
X204933831Y-92601666D02*
X204934047Y-92754229D01*
X206180708Y-93129885D02*
X206184105Y-93122442D01*
X206164470Y-94505426D02*
X206194522Y-94486327D01*
X209605170Y-91093722D02*
X209683847Y-90964986D01*
X210309653Y-92833307D02*
X210371380Y-92767521D01*
X206132324Y-92491655D02*
X206102742Y-92496769D01*
X205865862Y-93107006D02*
X205868528Y-93114813D01*
X206187141Y-92999277D02*
X206184105Y-92991648D01*
X210773926Y-93752963D02*
X210859706Y-93649932D01*
X205633834Y-92848455D02*
X205620753Y-92876360D01*
X206002007Y-92890969D02*
X205993655Y-92892446D01*
X207463646Y-94329650D02*
X207568106Y-94349999D01*
X209469799Y-93361581D02*
X209541428Y-93335500D01*
X205946994Y-92909311D02*
X205939892Y-92913357D01*
X206623090Y-92079497D02*
X206678017Y-92125498D01*
X206734913Y-92453083D02*
X206672347Y-92471269D01*
X205000711Y-92017054D02*
X204974347Y-92156486D01*
X206115777Y-92913357D02*
X206108675Y-92909311D01*
X205479764Y-93457484D02*
X205470932Y-93476641D01*
X205470932Y-93476641D02*
X205461097Y-93494666D01*
X205799533Y-92640764D02*
X205769337Y-92667050D01*
X208410176Y-93460137D02*
X208546580Y-93476738D01*
X206975878Y-89183650D02*
X206866151Y-89311933D01*
X206754346Y-94291857D02*
X206813464Y-94285643D01*
X205033074Y-91884497D02*
X205000711Y-92017054D01*
X205874961Y-92984205D02*
X205871565Y-92991648D01*
X205919955Y-92927399D02*
X205913801Y-92932680D01*
X207191637Y-88958087D02*
X207085076Y-89065563D01*
X205886708Y-94734273D02*
X205932370Y-94690199D01*
X206013112Y-90389945D02*
X205913138Y-90490421D01*
X205860308Y-92595622D02*
X205829870Y-92616994D01*
X206554900Y-89753838D02*
X206508408Y-89835268D01*
X209148810Y-94503222D02*
X209268705Y-94491718D01*
X205308561Y-93660050D02*
X205284521Y-93679543D01*
X205863576Y-93099034D02*
X205865862Y-93107006D01*
X210142927Y-94230976D02*
X210288981Y-94149358D01*
X206626950Y-90530406D02*
X206617999Y-90590206D01*
X206793170Y-92206816D02*
X206853142Y-92242264D01*
X207940243Y-94429970D02*
X208051886Y-94449935D01*
X207142445Y-92548397D02*
X207154574Y-92571710D01*
X210371380Y-92767521D02*
X210424196Y-92706207D01*
X206226966Y-91223464D02*
X206244699Y-91349018D01*
X209121083Y-91701539D02*
X209214948Y-91601690D01*
X206213858Y-90964429D02*
X206216747Y-91094895D01*
X204941557Y-92906483D02*
X204956618Y-93056989D01*
X206078268Y-93217503D02*
X206086148Y-93214861D01*
X205874961Y-93129885D02*
X205878706Y-93137129D01*
X210550540Y-92532177D02*
X210565703Y-92506447D01*
X205526185Y-94261164D02*
X205526185Y-94261164D01*
X207238039Y-92707116D02*
X207259855Y-92738014D01*
X206197212Y-93065691D02*
X206197433Y-93057046D01*
X206101362Y-92905601D02*
X206093850Y-92902236D01*
X205878706Y-92976961D02*
X205874961Y-92984205D01*
X205363730Y-95246207D02*
X205363730Y-95246207D01*
X206187141Y-93114813D02*
X206189808Y-93107006D01*
X205407598Y-95205254D02*
X205516825Y-95101943D01*
X209676690Y-93278410D02*
X209740376Y-93247732D01*
X206751663Y-90122710D02*
X206730497Y-90169813D01*
X205526185Y-94261164D02*
X205363730Y-95246207D01*
X210068899Y-93044247D02*
X210158622Y-92972995D01*
X206036562Y-92889252D02*
X206027835Y-92889033D01*
X206730497Y-90169813D02*
X206710724Y-90217537D01*
X206163739Y-92956521D02*
X206158705Y-92950174D01*
X210531013Y-93980415D02*
X210627666Y-93898453D01*
X205863576Y-93015057D02*
X205861682Y-93023185D01*
X205969521Y-93214861D02*
X205977401Y-93217503D01*
X206865343Y-89908276D02*
X206842805Y-89947232D01*
X208607591Y-92124912D02*
X208671627Y-92082765D01*
X207353934Y-94311279D02*
X207463646Y-94329650D01*
X206850722Y-92415496D02*
X206795315Y-92434079D01*
X206247339Y-92482172D02*
X206190572Y-92484955D01*
X206464157Y-89918782D02*
X206422412Y-90004330D01*
X206914540Y-92274323D02*
X206977238Y-92303061D01*
X205887201Y-92963108D02*
X205882790Y-92969925D01*
X205425354Y-93545217D02*
X205404126Y-93569876D01*
X205913801Y-92932680D02*
X205907911Y-92938243D01*
X205985450Y-93219767D02*
X205993655Y-93221643D01*
X205913801Y-93181410D02*
X205919955Y-93186690D01*
X206195478Y-93031459D02*
X206193987Y-93023185D01*
X206612460Y-90636636D02*
X206608860Y-90677382D01*
X206107476Y-94544504D02*
X206135481Y-94524819D01*
X205598308Y-92933034D02*
X205580162Y-92990444D01*
X206193987Y-93090905D02*
X206195478Y-93082632D01*
X205383839Y-94091665D02*
X205454747Y-94202956D01*
X209346949Y-93399934D02*
X209469799Y-93361581D01*
X208820039Y-93483090D02*
X208955478Y-93473665D01*
X206012642Y-92520586D02*
X205982287Y-92531744D01*
X206641137Y-92479668D02*
X206610447Y-92487397D01*
X206042862Y-92511116D02*
X206012642Y-92520586D01*
X205285381Y-91305884D02*
X205239247Y-91388100D01*
X206122658Y-92917727D02*
X206115777Y-92913357D01*
X208546580Y-93476738D02*
X208683470Y-93484252D01*
X207259855Y-92738014D02*
X207283564Y-92770199D01*
X205859112Y-93039867D02*
X205858458Y-93048400D01*
X206668803Y-90342110D02*
X206657861Y-90382703D01*
X205681701Y-92767224D02*
X205664209Y-92793825D01*
X206302312Y-92482358D02*
X206247339Y-92482172D01*
X206271924Y-90445928D02*
X206247331Y-90572814D01*
X205871565Y-92991648D02*
X205868528Y-92999277D01*
X205896965Y-93163916D02*
X205902295Y-93170012D01*
X207168118Y-92596270D02*
X207183157Y-92622083D01*
X206637798Y-94310907D02*
X206695790Y-94300253D01*
X206758006Y-89450001D02*
X206705186Y-89522575D01*
X205865862Y-93007084D02*
X205863576Y-93015057D01*
X205071176Y-91760253D02*
X205033074Y-91884497D01*
X206003716Y-94626096D02*
X206028574Y-94605276D01*
X210627666Y-93898453D02*
X210708524Y-93821742D01*
X206086148Y-92899228D02*
X206078268Y-92896587D01*
X206640008Y-90460238D02*
X206626950Y-90530406D01*
X205486266Y-90997160D02*
X205434106Y-91071185D01*
X206093850Y-93211853D02*
X206101362Y-93208488D01*
X205841834Y-94779389D02*
X205886708Y-94734273D01*
X207549317Y-88642534D02*
X207474401Y-88703444D01*
X207283564Y-92770199D02*
X207309246Y-92803679D01*
X206958664Y-92374680D02*
X206935227Y-92384556D01*
X205939892Y-92913357D02*
X205933011Y-92917727D01*
X208011950Y-93351683D02*
X208142053Y-93398022D01*
X207305789Y-92399185D02*
X207373622Y-92409352D01*
X207433301Y-92950682D02*
X207433301Y-92950682D01*
X206102742Y-92496769D02*
X206072909Y-92503217D01*
X206027835Y-93225056D02*
X206027835Y-93225056D01*
X206773850Y-90076564D02*
X206751663Y-90122710D01*
X205913138Y-90490421D02*
X205808414Y-90601920D01*
X208683470Y-93484252D02*
X208820039Y-93483090D01*
X207510394Y-92421152D02*
X207647796Y-92422003D01*
X206080375Y-94564477D02*
X206107476Y-94544504D01*
X207106028Y-92350827D02*
X207171865Y-92369987D01*
X205284521Y-93679543D02*
X205239780Y-93713561D01*
X209979733Y-94307114D02*
X210142927Y-94230976D01*
X206678017Y-92125498D02*
X206734753Y-92167916D01*
X206192093Y-93015057D02*
X206189808Y-93007084D01*
X206710724Y-90217537D02*
X206710724Y-90217537D01*
X206811749Y-89379770D02*
X206758006Y-89450001D01*
X207568106Y-94349999D02*
X207940243Y-94429970D01*
X209024209Y-94510004D02*
X209148810Y-94503222D01*
X208955478Y-93473665D02*
X209088981Y-93456389D01*
X206653552Y-89597440D02*
X206603369Y-89674545D01*
X205861682Y-93090905D02*
X205863576Y-93099034D01*
X206422401Y-91846758D02*
X206452495Y-91892477D01*
X206247331Y-90572814D02*
X206229334Y-90702271D01*
X205114758Y-91645758D02*
X205071176Y-91760253D01*
X206062015Y-93221643D02*
X206070220Y-93219767D01*
X206588487Y-91018165D02*
X206588896Y-91019878D01*
X205381329Y-93593876D02*
X205357468Y-93617030D01*
X208894860Y-94511727D02*
X208894860Y-94511727D01*
X206216747Y-91094895D02*
X206226966Y-91223464D01*
X207388409Y-88776614D02*
X207293452Y-88861633D01*
X204979489Y-93204311D02*
X205010429Y-93347012D01*
X207336981Y-92838461D02*
X207366848Y-92874551D01*
X206705186Y-89522575D02*
X206653552Y-89597440D01*
X206453313Y-92491283D02*
X206355174Y-92484569D01*
X206589144Y-91023991D02*
X206589231Y-91038034D01*
X205539291Y-90925353D02*
X205486266Y-90997160D01*
X205979449Y-94647192D02*
X206003716Y-94626096D01*
X208051886Y-94449935D02*
X208160988Y-94466707D01*
X206580374Y-94323892D02*
X206637798Y-94310907D01*
X206129308Y-93191678D02*
X206135715Y-93186690D01*
X206106284Y-90301030D02*
X206013112Y-90389945D01*
X210288981Y-94149358D02*
X210418231Y-94064944D01*
X210158622Y-92972995D02*
X210238803Y-92902240D01*
X206657861Y-90382703D02*
X206648292Y-90422203D01*
X209740376Y-93247732D02*
X209859986Y-93182941D01*
X207309246Y-92803679D02*
X207336981Y-92838461D01*
X205700992Y-90723902D02*
X205592925Y-90855829D01*
X207647796Y-92422003D02*
X207784812Y-92412426D01*
X207293452Y-88861633D02*
X207191637Y-88958087D01*
X205729803Y-94894190D02*
X205797118Y-94825522D01*
X206070220Y-92894322D02*
X206062015Y-92892446D01*
X205186004Y-93789322D02*
X205220062Y-93842858D01*
X205878706Y-93137129D02*
X205882790Y-93144165D01*
X209610383Y-93307721D02*
X209676690Y-93278410D01*
X205357468Y-93617030D02*
X205333045Y-93639150D01*
X205664209Y-92793825D02*
X205648287Y-92820923D01*
X205333045Y-93639150D02*
X205308561Y-93660050D01*
X207218038Y-92677500D02*
X207238039Y-92707116D01*
X205977401Y-93217503D02*
X205985450Y-93219767D01*
X206062015Y-92892446D02*
X206053663Y-92890969D01*
X207696033Y-88529760D02*
X207549317Y-88642534D01*
X206344815Y-91696424D02*
X206394439Y-91798750D01*
X205657852Y-94965593D02*
X205729803Y-94894190D01*
X206153374Y-93170012D02*
X206158705Y-93163916D01*
X206539243Y-92494748D02*
X206497961Y-92493894D01*
X205808414Y-90601920D02*
X205700992Y-90723902D01*
X207171865Y-92369987D02*
X207238494Y-92386085D01*
X205860191Y-93082632D02*
X205861682Y-93090905D01*
X207154574Y-92571710D02*
X207168118Y-92596270D01*
X207117389Y-94284712D02*
X207178772Y-94289751D01*
X206795315Y-92434079D02*
X206734913Y-92453083D01*
X206027835Y-92889033D02*
X206027835Y-92889033D01*
X206194522Y-94486327D02*
X206194522Y-94486327D01*
X206190600Y-90224217D02*
X206106284Y-90301030D01*
X206873141Y-94281538D02*
X206933375Y-94279467D01*
X205516825Y-95101943D02*
X205585461Y-95036066D01*
X206135715Y-93186690D02*
X206141868Y-93181410D01*
X208381038Y-94491487D02*
X208496725Y-94499905D01*
X209088981Y-93456389D02*
X209219740Y-93431674D01*
X205932370Y-94690199D02*
X205955693Y-94668561D01*
X207591140Y-93102235D02*
X207647157Y-93146593D01*
X209600574Y-94432221D02*
X209702065Y-94405179D01*
X205858237Y-93057046D02*
X205858237Y-93057046D01*
X206141868Y-93181410D02*
X206147758Y-93175847D01*
X207536757Y-93054831D02*
X207591140Y-93102235D01*
X205954307Y-92905601D02*
X205946994Y-92909311D01*
X205951837Y-92544708D02*
X205921331Y-92559597D01*
X205921331Y-92559597D02*
X205890808Y-92576529D01*
X210418231Y-94064944D02*
X210531013Y-93980415D01*
X206356407Y-94400638D02*
X206411534Y-94377582D01*
X205220062Y-93842858D02*
X205308970Y-93976476D01*
X206588288Y-91079681D02*
X206586106Y-91139609D01*
X206189808Y-93107006D02*
X206192093Y-93099034D01*
X206027835Y-92889033D02*
X206019107Y-92889252D01*
X209509564Y-91234494D02*
X209605170Y-91093722D01*
X207079611Y-92372336D02*
X207083802Y-92393590D01*
X205507054Y-93370782D02*
X205494820Y-93416022D01*
X206176963Y-93137129D02*
X206180708Y-93129885D01*
X206010494Y-93224189D02*
X206019107Y-93224838D01*
X206189808Y-93007084D02*
X206187141Y-92999277D01*
X205961820Y-92902236D02*
X205954307Y-92905601D01*
X209378881Y-91408294D02*
X209448493Y-91318105D01*
X206519166Y-91976487D02*
X206519166Y-91976487D01*
X207094921Y-92434334D02*
X207100234Y-92450306D01*
X207074791Y-92333409D02*
X207079611Y-92372336D01*
X206108675Y-93204778D02*
X206115777Y-93200733D01*
X206141868Y-92932680D02*
X206135715Y-92927399D01*
X207178772Y-94289751D02*
X207238629Y-94295946D01*
X209541428Y-93335500D02*
X209610383Y-93307721D01*
X205926362Y-92922411D02*
X205919955Y-92927399D01*
X206617999Y-90590206D02*
X206612460Y-90636636D01*
X206193987Y-93023185D02*
X206192093Y-93015057D01*
X208142053Y-93398022D02*
X208275064Y-93434036D01*
X206027835Y-93225056D02*
X206036562Y-93224838D01*
X205553602Y-93105464D02*
X205517259Y-93322265D01*
X207373622Y-92409352D02*
X207510394Y-92421152D01*
X205434106Y-91071185D02*
X205383067Y-91147358D01*
X206383435Y-90091859D02*
X206340160Y-90204333D01*
X205049698Y-93483654D02*
X205097554Y-93612800D01*
X205919955Y-93186690D02*
X205926362Y-93191678D01*
X205517259Y-93322265D02*
X205507054Y-93370782D01*
X205887201Y-93150982D02*
X205891930Y-93157569D01*
X205861682Y-93023185D02*
X205860191Y-93031459D01*
X207920426Y-92392943D02*
X208053621Y-92364072D01*
X204956618Y-93056989D02*
X204979489Y-93204311D01*
X207398929Y-92911956D02*
X207433301Y-92950682D01*
X206168468Y-93150982D02*
X206172879Y-93144165D01*
X208269915Y-94480489D02*
X208381038Y-94491487D01*
X205950312Y-94059552D02*
X205526185Y-94261164D01*
X206036562Y-93224838D02*
X206045175Y-93224189D01*
X205858458Y-93065691D02*
X205859112Y-93074224D01*
X205954307Y-93208488D02*
X205961820Y-93211853D01*
X206407512Y-90040530D02*
X206264009Y-90160043D01*
X205993655Y-93221643D02*
X206002007Y-93223120D01*
X207238494Y-92386085D02*
X207305789Y-92399185D01*
X206264009Y-90160043D02*
X206190600Y-90224217D01*
X205461097Y-93494666D02*
X205453158Y-93507399D01*
X206086148Y-93214861D02*
X206093850Y-93211853D01*
X209019590Y-91801250D02*
X209121083Y-91701539D01*
X205891930Y-93157569D02*
X205896965Y-93163916D01*
X210708524Y-93821742D02*
X210773926Y-93752963D01*
X208183382Y-92326336D02*
X208308694Y-92280254D01*
X206247898Y-94454936D02*
X206301861Y-94426398D01*
X206072909Y-92503217D02*
X206042862Y-92511116D01*
X205946994Y-93204778D02*
X205954307Y-93208488D01*
X205239780Y-93713561D02*
X205202843Y-93739710D01*
X206610447Y-92487397D02*
X206594164Y-92490662D01*
X205239247Y-91388100D02*
X205195260Y-91472197D01*
X206161613Y-92487757D02*
X206132324Y-92491655D01*
X206158705Y-93163916D02*
X206163739Y-93157569D01*
X207948240Y-93324513D02*
X208011950Y-93351683D01*
X206734753Y-92167916D02*
X206793170Y-92206816D01*
X206977238Y-92303061D02*
X207041110Y-92328540D01*
X205648287Y-92820923D02*
X205633834Y-92848455D01*
X205797118Y-94825522D02*
X205841834Y-94779389D01*
X206935227Y-92384556D02*
X206898303Y-92398575D01*
X209969423Y-93114670D02*
X210068899Y-93044247D01*
X206172879Y-93144165D02*
X206176963Y-93137129D01*
X206108675Y-92909311D02*
X206101362Y-92905601D01*
X205890808Y-92576529D02*
X205860308Y-92595622D01*
X205592925Y-90855829D02*
X205539291Y-90925353D01*
X207100234Y-92450306D02*
X207106484Y-92467484D01*
X207433301Y-92950682D02*
X207484111Y-93004331D01*
X206129308Y-92922411D02*
X206122658Y-92917727D01*
X206019107Y-92889252D02*
X206010494Y-92889900D01*
X206019107Y-93224838D02*
X206027835Y-93225056D01*
X204954239Y-92301357D02*
X204940647Y-92450230D01*
X206197433Y-93057046D02*
X206197212Y-93048400D01*
X206168468Y-92963108D02*
X206163739Y-92956521D01*
X206010494Y-92889900D02*
X206002007Y-92890969D01*
X208619345Y-94505948D02*
X208751267Y-94509820D01*
X207366848Y-92874551D02*
X207398929Y-92911956D01*
X206411534Y-94377582D02*
X206467240Y-94357156D01*
X209702065Y-94405179D02*
X209799061Y-94375090D01*
X205871565Y-93122442D02*
X205874961Y-93129885D01*
X206519166Y-91976487D02*
X206570097Y-92029849D01*
X205154255Y-93733014D02*
X205186004Y-93789322D01*
X206866151Y-89311933D02*
X206811749Y-89379770D01*
X205969521Y-92899228D02*
X205961820Y-92902236D01*
X205858237Y-93057046D02*
X205858458Y-93065691D01*
X207704709Y-93187958D02*
X207763694Y-93226381D01*
X208428540Y-92226347D02*
X208541905Y-92165135D01*
X207763694Y-93226381D02*
X207824012Y-93261914D01*
X205114758Y-91645758D02*
X205114758Y-91645758D01*
X206218115Y-90833182D02*
X206213858Y-90964429D01*
X205829870Y-92616994D02*
X205799533Y-92640764D01*
X206045175Y-93224189D02*
X206053663Y-93223120D01*
X206184105Y-92991648D02*
X206180708Y-92984205D01*
X209448493Y-91318105D02*
X209509564Y-91234494D01*
X205333407Y-91225614D02*
X205285381Y-91305884D01*
X207199770Y-92649158D02*
X207218038Y-92677500D01*
X206192093Y-93099034D02*
X206193987Y-93090905D01*
X208751267Y-94509820D02*
X208894860Y-94511727D01*
X209214948Y-91601690D02*
X209300957Y-91503382D01*
X205453158Y-93507399D02*
X205444512Y-93520084D01*
X205926362Y-93191678D02*
X205933011Y-93196362D01*
X210424196Y-92706207D02*
X210468309Y-92650691D01*
X206197433Y-93057046D02*
X206197433Y-93057046D01*
X207085076Y-89065563D02*
X206975878Y-89183650D01*
X206197212Y-93048400D02*
X206196557Y-93039867D01*
X206497961Y-92493894D02*
X206453313Y-92491283D01*
X205097554Y-93612800D02*
X205154255Y-93733014D01*
X206994163Y-94279355D02*
X207055501Y-94281128D01*
X205933011Y-92917727D02*
X205926362Y-92922411D01*
X207083802Y-92393590D02*
X207090464Y-92419562D01*
X207183157Y-92622083D02*
X207199770Y-92649158D01*
X206887036Y-89871958D02*
X206865343Y-89908276D01*
X204934047Y-92754229D02*
X204941557Y-92906483D01*
X205902295Y-93170012D02*
X205907911Y-93175847D01*
X206147758Y-92938243D02*
X206141868Y-92932680D01*
X206648292Y-90422203D02*
X206640008Y-90460238D01*
X207940243Y-94429970D02*
X207940243Y-94429970D01*
X205977401Y-92896587D02*
X205969521Y-92899228D01*
X206508408Y-89835268D02*
X206464157Y-89918782D01*
X205580162Y-92990444D02*
X205565524Y-93048088D01*
X205769337Y-92667050D02*
X205744580Y-92691034D01*
X206028574Y-94605276D02*
X206054101Y-94584735D01*
X206229334Y-90702271D02*
X206218115Y-90833182D01*
X206153374Y-92944078D02*
X206147758Y-92938243D01*
X205907911Y-93175847D02*
X205913801Y-93181410D01*
X208308694Y-92280254D02*
X208428540Y-92226347D01*
X206147758Y-93175847D02*
X206153374Y-93170012D01*
X206078268Y-92896587D02*
X206070220Y-92894322D01*
X206484742Y-91935766D02*
X206519166Y-91976487D01*
X207784812Y-92412426D02*
X207920426Y-92392943D01*
X205195260Y-91472197D02*
X205153678Y-91558105D01*
X205308970Y-93976476D02*
X205383839Y-94091665D01*
X207238629Y-94295946D02*
X207353934Y-94311279D01*
X209799061Y-94375090D02*
X209979733Y-94307114D01*
X206194522Y-94486327D02*
X206247898Y-94454936D01*
X207484111Y-93004331D02*
X207536757Y-93054831D01*
X206467240Y-94357156D02*
X206523521Y-94339284D01*
X210859706Y-93649932D02*
X210887701Y-93610819D01*
X206135715Y-92927399D02*
X206129308Y-92922411D01*
X206180708Y-92984205D02*
X206176963Y-92976961D01*
X206184105Y-93122442D02*
X206187141Y-93114813D01*
X209494545Y-94455882D02*
X209600574Y-94432221D01*
X210468309Y-92650691D02*
X210503931Y-92602297D01*
X205383067Y-91147358D02*
X205333407Y-91225614D01*
X206695148Y-90259152D02*
X206681203Y-90300802D01*
X205721788Y-92715766D02*
X205700861Y-92741184D01*
X207041110Y-92328540D02*
X207106028Y-92350827D01*
X207090464Y-92419562D02*
X207094921Y-92434334D01*
X206576842Y-92492897D02*
X206539243Y-92494748D01*
X206452495Y-91892477D02*
X206484742Y-91935766D01*
X208794633Y-91993542D02*
X208910697Y-91899144D01*
X205955693Y-94668561D02*
X205979449Y-94647192D01*
X206898303Y-92398575D02*
X206850722Y-92415496D01*
X205933011Y-93196362D02*
X205939892Y-93200733D01*
X206122658Y-93196362D02*
X206129308Y-93191678D01*
X205882790Y-93144165D02*
X205887201Y-93150982D01*
X206155628Y-94511195D02*
X205950312Y-94059552D01*
X208496725Y-94499905D02*
X208619345Y-94505948D01*
X205153678Y-91558105D02*
X205114758Y-91645758D01*
X205882790Y-92969925D02*
X205878706Y-92976961D01*
X209268705Y-94491718D02*
X209383936Y-94475826D01*
X207824012Y-93261914D02*
X207885561Y-93294607D01*
X205769337Y-92667050D02*
X205769337Y-92667050D01*
X206842805Y-89947232D02*
X206819794Y-89988489D01*
X206163739Y-93157569D02*
X206168468Y-93150982D01*
X206190572Y-92484955D02*
X206161613Y-92487757D01*
X207113751Y-92485875D02*
X207122113Y-92505487D01*
X205404126Y-93569876D02*
X205381329Y-93593876D01*
X205444512Y-93520084D02*
X205425354Y-93545217D01*
X206570097Y-92029849D02*
X206623090Y-92079497D01*
X210503931Y-92602297D02*
X210550540Y-92532177D01*
X209219740Y-93431674D02*
X209346949Y-93399934D01*
X206681203Y-90300802D02*
X206668803Y-90342110D01*
X205891930Y-92956521D02*
X205887201Y-92963108D01*
X206610447Y-92487397D02*
X206610447Y-92487397D01*
X205982287Y-92531744D02*
X205951837Y-92544708D01*
X207106484Y-92467484D02*
X207113751Y-92485875D01*
X206115777Y-93200733D02*
X206122658Y-93196362D01*
X206695790Y-94300253D02*
X206754346Y-94291857D01*
X205868528Y-92999277D02*
X205865862Y-93007084D01*
X206270129Y-91470441D02*
X206303440Y-91586615D01*
X205868528Y-93114813D02*
X205871565Y-93122442D01*
X207055501Y-94281128D02*
X207117389Y-94284712D01*
X205993655Y-92892446D02*
X205985450Y-92894322D01*
X205220062Y-93842858D02*
X205220062Y-93842858D01*
X206135481Y-94524819D02*
X206164470Y-94505426D01*
X205565524Y-93048088D02*
X205553602Y-93105464D01*
X206588896Y-91019878D02*
X206589144Y-91023991D01*
X204974347Y-92156486D02*
X204954239Y-92301357D01*
X206301861Y-94426398D02*
X206356407Y-94400638D01*
X209300957Y-91503382D02*
X209378881Y-91408294D01*
X206053663Y-92890969D02*
X206045175Y-92889900D01*
X205744580Y-92691034D02*
X205721788Y-92715766D01*
X206302928Y-90322728D02*
X206271924Y-90445928D01*
X209469799Y-93361581D02*
X209469799Y-93361581D01*
X205902295Y-92944078D02*
X205896965Y-92950174D01*
X206672347Y-92471269D02*
X206641137Y-92479668D01*
X207885561Y-93294607D02*
X207948240Y-93324513D01*
X206054101Y-94584735D02*
X206080375Y-94564477D01*
X206027835Y-93225056D02*
X206027835Y-93225056D01*
X206195478Y-93082632D02*
X206196557Y-93074224D01*
X205461097Y-93494666D02*
X205461097Y-93494666D01*
X206394439Y-91798750D02*
X206422401Y-91846758D01*
X206422412Y-90004330D02*
X206383435Y-90091859D01*
X205939892Y-93200733D02*
X205946994Y-93204778D01*
X206093850Y-92902236D02*
X206086148Y-92899228D01*
X205202843Y-93739710D02*
X205168468Y-93762423D01*
X208053621Y-92364072D02*
X208183382Y-92326336D01*
X206813464Y-94285643D02*
X206873141Y-94281538D01*
X205494820Y-93416022D02*
X205479764Y-93457484D01*
X206196557Y-93039867D02*
X206195478Y-93031459D01*
X206303440Y-91586615D02*
X206344815Y-91696424D01*
X206172879Y-92969925D02*
X206168468Y-92963108D01*
X210238803Y-92902240D02*
X210309653Y-92833307D01*
X204940647Y-92450230D02*
X204933831Y-92601666D01*
X206933375Y-94279467D02*
X206994163Y-94279355D01*
X206244699Y-91349018D02*
X206270129Y-91470441D01*
X208275064Y-93434036D02*
X208410176Y-93460137D01*
X205700861Y-92741184D02*
X205681701Y-92767224D01*
X206045175Y-92889900D02*
X206036562Y-92889252D01*
G36*
X209186531Y-80508520D02*
G01*
X209253915Y-80512851D01*
X209319994Y-80520000D01*
X209384706Y-80529909D01*
X209447990Y-80542523D01*
X209509784Y-80557783D01*
X209570029Y-80575634D01*
X209628661Y-80596017D01*
X209685620Y-80618877D01*
X209740844Y-80644156D01*
X209794273Y-80671798D01*
X209845845Y-80701745D01*
X209895498Y-80733940D01*
X209943172Y-80768327D01*
X209988805Y-80804849D01*
X210032336Y-80843448D01*
X210073704Y-80884068D01*
X210112847Y-80926652D01*
X210149703Y-80971144D01*
X210184213Y-81017485D01*
X210216314Y-81065619D01*
X210245945Y-81115489D01*
X210273045Y-81167039D01*
X210297552Y-81220211D01*
X210319406Y-81274948D01*
X210338545Y-81331194D01*
X210354907Y-81388891D01*
X210368432Y-81447983D01*
X210379058Y-81508413D01*
X210386724Y-81570124D01*
X210391369Y-81633058D01*
X210392930Y-81697159D01*
X210391369Y-81761284D01*
X210386724Y-81824239D01*
X210379058Y-81885967D01*
X210368432Y-81946411D01*
X210354907Y-82005516D01*
X210338545Y-82063223D01*
X210319406Y-82119477D01*
X210297552Y-82174220D01*
X210273045Y-82227396D01*
X210245945Y-82278947D01*
X210216314Y-82328818D01*
X210184213Y-82376951D01*
X210149703Y-82423289D01*
X210112847Y-82467776D01*
X210073704Y-82510356D01*
X210032336Y-82550970D01*
X209988805Y-82589563D01*
X209943172Y-82626078D01*
X209895498Y-82660457D01*
X209845845Y-82692644D01*
X209794273Y-82722583D01*
X209740844Y-82750216D01*
X209685620Y-82775487D01*
X209628661Y-82798339D01*
X209570029Y-82818715D01*
X209509784Y-82836559D01*
X209447990Y-82851813D01*
X209384706Y-82864421D01*
X209319994Y-82874326D01*
X209253915Y-82881471D01*
X209186531Y-82885800D01*
X209117903Y-82887256D01*
X209064503Y-82886383D01*
X209011871Y-82883782D01*
X208960034Y-82879479D01*
X208909015Y-82873502D01*
X208858839Y-82865876D01*
X208809531Y-82856630D01*
X208761117Y-82845789D01*
X208713620Y-82833380D01*
X208667066Y-82819430D01*
X208621479Y-82803966D01*
X208576884Y-82787015D01*
X208533306Y-82768602D01*
X208490771Y-82748756D01*
X208449301Y-82727503D01*
X208408923Y-82704869D01*
X208369662Y-82680881D01*
X208491105Y-82683526D01*
X208525186Y-82700354D01*
X208560046Y-82716200D01*
X208595663Y-82731050D01*
X208632017Y-82744889D01*
X208669084Y-82757704D01*
X208706846Y-82769479D01*
X208745279Y-82780202D01*
X208784363Y-82789856D01*
X208824076Y-82798428D01*
X208864398Y-82805904D01*
X208905306Y-82812269D01*
X208946780Y-82817509D01*
X208988798Y-82821609D01*
X209031338Y-82824556D01*
X209074381Y-82826335D01*
X209117903Y-82826931D01*
X209184042Y-82825551D01*
X209248971Y-82821449D01*
X209312631Y-82814677D01*
X209374964Y-82805288D01*
X209435913Y-82793337D01*
X209495417Y-82778876D01*
X209553420Y-82761959D01*
X209609863Y-82742640D01*
X209664687Y-82720972D01*
X209717834Y-82697008D01*
X209769246Y-82670802D01*
X209818865Y-82642407D01*
X209866632Y-82611877D01*
X209912489Y-82579265D01*
X209956377Y-82544624D01*
X209998238Y-82508008D01*
X210038014Y-82469471D01*
X210075647Y-82429066D01*
X210111078Y-82386846D01*
X210144249Y-82342864D01*
X210175101Y-82297175D01*
X210203577Y-82249832D01*
X210229617Y-82200887D01*
X210253164Y-82150395D01*
X210274159Y-82098409D01*
X210292544Y-82044982D01*
X210308261Y-81990168D01*
X210321251Y-81934020D01*
X210331456Y-81876592D01*
X210338817Y-81817937D01*
X210343276Y-81758108D01*
X210344776Y-81697159D01*
X210343276Y-81636212D01*
X210338817Y-81576385D01*
X210331456Y-81517734D01*
X210321251Y-81460310D01*
X210308261Y-81404169D01*
X210292544Y-81349362D01*
X210274159Y-81295943D01*
X210253164Y-81243965D01*
X210229617Y-81193483D01*
X210203577Y-81144549D01*
X210175101Y-81097216D01*
X210144249Y-81051538D01*
X210111078Y-81007569D01*
X210075647Y-80965361D01*
X210038014Y-80924968D01*
X209998238Y-80886443D01*
X209956376Y-80849840D01*
X209912488Y-80815212D01*
X209866632Y-80782612D01*
X209818865Y-80752093D01*
X209769246Y-80723710D01*
X209717834Y-80697515D01*
X209664687Y-80673561D01*
X209609862Y-80651902D01*
X209553420Y-80632592D01*
X209495417Y-80615684D01*
X209435912Y-80601230D01*
X209374964Y-80589285D01*
X209312631Y-80579901D01*
X209248970Y-80573132D01*
X209184042Y-80569032D01*
X209117903Y-80567653D01*
X209051740Y-80569025D01*
X208986791Y-80573106D01*
X208923114Y-80579844D01*
X208860765Y-80589187D01*
X208799805Y-80601083D01*
X208740290Y-80615479D01*
X208682280Y-80632325D01*
X208625831Y-80651568D01*
X208571004Y-80673155D01*
X208517854Y-80697035D01*
X208466442Y-80723156D01*
X208416825Y-80751465D01*
X208369060Y-80781912D01*
X208323207Y-80814442D01*
X208279324Y-80849006D01*
X208237469Y-80885550D01*
X208197699Y-80924023D01*
X208160073Y-80964372D01*
X208124650Y-81006546D01*
X208091487Y-81050492D01*
X208060643Y-81096159D01*
X208032176Y-81143494D01*
X208006144Y-81192445D01*
X207982605Y-81242961D01*
X207961617Y-81294989D01*
X207943239Y-81348477D01*
X207927529Y-81403374D01*
X207914544Y-81459627D01*
X207904344Y-81517184D01*
X207896986Y-81575993D01*
X207892529Y-81636002D01*
X207891030Y-81697159D01*
X207892830Y-81748881D01*
X207898155Y-81798197D01*
X207902101Y-81821913D01*
X207906885Y-81844981D01*
X207912492Y-81867386D01*
X207918906Y-81889111D01*
X207926114Y-81910141D01*
X207934101Y-81930460D01*
X207942851Y-81950054D01*
X207952352Y-81968906D01*
X207962587Y-81987001D01*
X207973543Y-82004323D01*
X207985205Y-82020857D01*
X207997558Y-82036587D01*
X208010587Y-82051498D01*
X208024279Y-82065574D01*
X208038619Y-82078799D01*
X208053591Y-82091159D01*
X208069182Y-82102637D01*
X208085376Y-82113218D01*
X208102160Y-82122886D01*
X208119518Y-82131626D01*
X208137437Y-82139423D01*
X208155900Y-82146260D01*
X208174895Y-82152122D01*
X208194406Y-82156994D01*
X208214419Y-82160860D01*
X208234919Y-82163704D01*
X208255891Y-82165511D01*
X208277322Y-82166266D01*
X208291694Y-82165868D01*
X208305702Y-82164709D01*
X208319367Y-82162839D01*
X208332708Y-82160309D01*
X208345744Y-82157169D01*
X208358494Y-82153472D01*
X208370979Y-82149266D01*
X208383217Y-82144603D01*
X208407033Y-82134110D01*
X208430098Y-82122399D01*
X208452569Y-82109875D01*
X208474601Y-82096945D01*
X208517976Y-82071491D01*
X208539631Y-82059780D01*
X208561472Y-82049287D01*
X208583655Y-82040419D01*
X208594924Y-82036721D01*
X208606338Y-82033582D01*
X208617915Y-82031051D01*
X208629675Y-82029181D01*
X208641638Y-82028022D01*
X208653824Y-82027624D01*
X208669144Y-82027929D01*
X208684142Y-82028837D01*
X208698807Y-82030338D01*
X208713129Y-82032423D01*
X208727095Y-82035084D01*
X208740696Y-82038310D01*
X208753921Y-82042093D01*
X208766759Y-82046422D01*
X208779200Y-82051289D01*
X208791232Y-82056684D01*
X208802845Y-82062598D01*
X208814028Y-82069022D01*
X208824770Y-82075946D01*
X208835061Y-82083360D01*
X208844890Y-82091256D01*
X208854246Y-82099624D01*
X208863118Y-82108455D01*
X208871495Y-82117739D01*
X208879368Y-82127468D01*
X208886724Y-82137631D01*
X208893554Y-82148219D01*
X208899846Y-82159224D01*
X208905591Y-82170635D01*
X208910776Y-82182443D01*
X208915391Y-82194639D01*
X208919426Y-82207214D01*
X208922870Y-82220158D01*
X208925711Y-82233463D01*
X208927940Y-82247117D01*
X208929545Y-82261113D01*
X208930517Y-82275441D01*
X208930843Y-82290091D01*
X208930347Y-82308104D01*
X208928869Y-82325720D01*
X208926425Y-82342929D01*
X208923030Y-82359719D01*
X208918698Y-82376078D01*
X208913445Y-82391995D01*
X208907287Y-82407459D01*
X208900238Y-82422457D01*
X208892313Y-82436979D01*
X208883528Y-82451012D01*
X208873898Y-82464546D01*
X208863438Y-82477568D01*
X208852162Y-82490067D01*
X208840087Y-82502032D01*
X208827228Y-82513452D01*
X208813599Y-82524313D01*
X208799216Y-82534606D01*
X208784094Y-82544319D01*
X208768248Y-82553439D01*
X208751694Y-82561956D01*
X208734445Y-82569857D01*
X208716519Y-82577132D01*
X208697929Y-82583769D01*
X208678691Y-82589756D01*
X208658820Y-82595083D01*
X208638331Y-82599736D01*
X208617240Y-82603705D01*
X208595561Y-82606978D01*
X208573311Y-82609544D01*
X208550503Y-82611391D01*
X208527153Y-82612508D01*
X208503276Y-82612883D01*
X208466533Y-82611605D01*
X208430584Y-82608241D01*
X208395455Y-82602822D01*
X208361170Y-82595380D01*
X208327752Y-82585949D01*
X208295227Y-82574560D01*
X208263618Y-82561245D01*
X208232951Y-82546038D01*
X208203248Y-82528970D01*
X208174536Y-82510073D01*
X208146838Y-82489380D01*
X208120179Y-82466924D01*
X208094582Y-82442736D01*
X208070073Y-82416849D01*
X208046675Y-82389295D01*
X208024413Y-82360106D01*
X208003312Y-82329315D01*
X207983396Y-82296955D01*
X207964688Y-82263056D01*
X207947215Y-82227653D01*
X207930999Y-82190776D01*
X207916065Y-82152459D01*
X207902438Y-82112733D01*
X207890142Y-82071632D01*
X207879201Y-82029186D01*
X207869640Y-81985430D01*
X207861483Y-81940394D01*
X207854754Y-81894111D01*
X207849478Y-81846614D01*
X207845680Y-81797935D01*
X207843383Y-81748106D01*
X207842612Y-81697159D01*
X207844173Y-81632825D01*
X207848818Y-81569688D01*
X207856484Y-81507802D01*
X207867110Y-81447224D01*
X207880636Y-81388009D01*
X207896999Y-81330212D01*
X207916139Y-81273888D01*
X207937994Y-81219095D01*
X207962503Y-81165886D01*
X207989605Y-81114317D01*
X208019239Y-81064444D01*
X208051343Y-81016322D01*
X208085856Y-80970007D01*
X208122717Y-80925554D01*
X208161865Y-80883018D01*
X208203239Y-80842456D01*
X208246776Y-80803922D01*
X208292417Y-80767473D01*
X208340099Y-80733162D01*
X208389762Y-80701047D01*
X208441344Y-80671182D01*
X208494784Y-80643623D01*
X208550020Y-80618426D01*
X208606993Y-80595645D01*
X208665639Y-80575337D01*
X208725899Y-80557556D01*
X208787711Y-80542359D01*
X208851013Y-80529801D01*
X208915744Y-80519936D01*
X208981844Y-80512822D01*
X209049251Y-80508512D01*
X209117903Y-80507064D01*
X209186531Y-80508520D01*
G37*
G36*
X210381024Y-76926458D02*
G01*
X210342130Y-76926458D01*
X210342130Y-76654466D01*
X210341460Y-76604509D01*
X210339491Y-76560092D01*
X210336293Y-76520896D01*
X210331932Y-76486600D01*
X210326474Y-76456886D01*
X210319988Y-76431433D01*
X210312539Y-76409922D01*
X210304196Y-76392033D01*
X210295025Y-76377445D01*
X210285093Y-76365840D01*
X210274467Y-76356898D01*
X210263215Y-76350299D01*
X210251402Y-76345722D01*
X210239098Y-76342850D01*
X210226367Y-76341360D01*
X210213279Y-76340935D01*
X210189202Y-76340935D01*
X206788248Y-76603402D01*
X209892604Y-78068135D01*
X209899759Y-78071172D01*
X209908258Y-78073940D01*
X209917853Y-78076450D01*
X209928293Y-78078710D01*
X209939331Y-78080732D01*
X209950716Y-78082525D01*
X209973533Y-78085465D01*
X209994750Y-78087612D01*
X210012373Y-78089045D01*
X210028864Y-78090095D01*
X210028864Y-78158093D01*
X210013043Y-78159474D01*
X209996005Y-78161247D01*
X209975319Y-78163782D01*
X209952809Y-78167111D01*
X209941441Y-78169083D01*
X209930303Y-78171265D01*
X209919621Y-78173660D01*
X209909625Y-78176274D01*
X209900543Y-78179109D01*
X209892604Y-78182170D01*
X206810208Y-79615418D01*
X209700781Y-79838991D01*
X209902437Y-79858110D01*
X210095262Y-79883870D01*
X210278680Y-79916648D01*
X210452115Y-79956821D01*
X210614988Y-80004768D01*
X210766725Y-80060866D01*
X210906747Y-80125491D01*
X211034479Y-80199023D01*
X211093556Y-80239246D01*
X211149343Y-80281837D01*
X211201770Y-80326843D01*
X211250763Y-80374312D01*
X211296252Y-80424290D01*
X211338163Y-80476825D01*
X211376424Y-80531964D01*
X211410965Y-80589754D01*
X211441711Y-80650243D01*
X211468592Y-80713476D01*
X211491535Y-80779503D01*
X211510469Y-80848369D01*
X211525320Y-80920122D01*
X211536017Y-80994810D01*
X211542489Y-81072479D01*
X211544662Y-81153176D01*
X211542728Y-81204403D01*
X211537056Y-81254134D01*
X211527837Y-81302118D01*
X211515264Y-81348108D01*
X211499530Y-81391853D01*
X211480828Y-81433103D01*
X211459351Y-81471610D01*
X211435290Y-81507123D01*
X211408838Y-81539392D01*
X211394776Y-81554233D01*
X211380188Y-81568169D01*
X211365100Y-81581170D01*
X211349534Y-81593204D01*
X211333514Y-81604239D01*
X211317066Y-81614246D01*
X211300213Y-81623192D01*
X211282979Y-81631047D01*
X211265388Y-81637779D01*
X211247464Y-81643356D01*
X211229231Y-81647749D01*
X211210714Y-81650925D01*
X211191936Y-81652854D01*
X211172922Y-81653504D01*
X211158649Y-81653108D01*
X211144565Y-81651936D01*
X211130688Y-81650006D01*
X211117035Y-81647338D01*
X211103624Y-81643951D01*
X211090470Y-81639865D01*
X211077593Y-81635100D01*
X211065009Y-81629675D01*
X211052735Y-81623609D01*
X211040789Y-81616923D01*
X211029188Y-81609636D01*
X211017950Y-81601767D01*
X211007091Y-81593336D01*
X210996629Y-81584363D01*
X210986581Y-81574867D01*
X210976965Y-81564868D01*
X210967797Y-81554385D01*
X210959096Y-81543438D01*
X210950878Y-81532047D01*
X210943161Y-81520230D01*
X210935961Y-81508008D01*
X210929297Y-81495400D01*
X210923186Y-81482426D01*
X210917644Y-81469105D01*
X210912690Y-81455458D01*
X210908340Y-81441502D01*
X210904612Y-81427259D01*
X210901523Y-81412747D01*
X210899090Y-81397987D01*
X210897331Y-81382997D01*
X210896263Y-81367797D01*
X210895903Y-81352408D01*
X210896203Y-81338478D01*
X210897077Y-81324942D01*
X210898486Y-81311765D01*
X210900394Y-81298912D01*
X210902760Y-81286347D01*
X210905548Y-81274036D01*
X210912233Y-81250031D01*
X210920142Y-81226614D01*
X210928971Y-81203505D01*
X210948158Y-81157079D01*
X210957905Y-81133198D01*
X210967346Y-81108495D01*
X210976174Y-81082688D01*
X210984084Y-81055496D01*
X210990769Y-81026635D01*
X210993556Y-81011491D01*
X210995923Y-80995824D01*
X210997830Y-80979599D01*
X210999240Y-80962780D01*
X211000114Y-80945333D01*
X211000414Y-80927222D01*
X210998556Y-80862016D01*
X210993043Y-80799369D01*
X210983960Y-80739239D01*
X210971397Y-80681579D01*
X210955441Y-80626346D01*
X210936179Y-80573496D01*
X210913700Y-80522983D01*
X210888090Y-80474764D01*
X210859438Y-80428794D01*
X210827831Y-80385029D01*
X210793356Y-80343424D01*
X210756103Y-80303935D01*
X210716158Y-80266517D01*
X210673609Y-80231126D01*
X210628543Y-80197718D01*
X210581049Y-80166248D01*
X210531214Y-80136671D01*
X210479126Y-80108944D01*
X210424872Y-80083021D01*
X210368540Y-80058859D01*
X210310218Y-80036413D01*
X210249994Y-80015639D01*
X210187954Y-79996491D01*
X210124188Y-79978927D01*
X209991825Y-79948368D01*
X209853605Y-79923607D01*
X209710231Y-79904288D01*
X209562403Y-79890056D01*
X207004412Y-79688443D01*
X206982848Y-79687120D01*
X206964451Y-79686211D01*
X206955845Y-79685911D01*
X206948585Y-79685797D01*
X206930624Y-79686106D01*
X206913634Y-79687042D01*
X206897588Y-79688621D01*
X206882460Y-79690858D01*
X206868224Y-79693767D01*
X206854854Y-79697364D01*
X206842323Y-79701664D01*
X206830605Y-79706683D01*
X206819674Y-79712435D01*
X206809503Y-79718935D01*
X206800067Y-79726199D01*
X206791338Y-79734241D01*
X206783292Y-79743077D01*
X206775900Y-79752722D01*
X206769138Y-79763191D01*
X206762979Y-79774499D01*
X206757397Y-79786661D01*
X206752365Y-79799693D01*
X206747857Y-79813609D01*
X206743848Y-79828425D01*
X206740310Y-79844155D01*
X206737217Y-79860815D01*
X206734543Y-79878420D01*
X206732263Y-79896985D01*
X206728775Y-79937055D01*
X206726544Y-79981147D01*
X206725360Y-80029381D01*
X206725012Y-80081879D01*
X206688764Y-80081879D01*
X206688764Y-79632352D01*
X206688820Y-79630983D01*
X206688987Y-79629564D01*
X206689268Y-79628105D01*
X206689661Y-79626617D01*
X206690167Y-79625113D01*
X206690787Y-79623603D01*
X206691521Y-79622098D01*
X206692369Y-79620610D01*
X206693331Y-79619150D01*
X206694409Y-79617730D01*
X206695603Y-79616359D01*
X206696912Y-79615050D01*
X206697610Y-79614422D01*
X206698338Y-79613814D01*
X206699094Y-79613227D01*
X206699880Y-79612662D01*
X206700695Y-79612121D01*
X206701539Y-79611605D01*
X206702413Y-79611116D01*
X206703316Y-79610655D01*
X209788357Y-78177408D01*
X209794931Y-78174230D01*
X209801061Y-78171051D01*
X209806749Y-78167874D01*
X209812000Y-78164704D01*
X209816815Y-78161544D01*
X209821197Y-78158400D01*
X209825149Y-78155275D01*
X209828673Y-78152173D01*
X209831772Y-78149100D01*
X209834450Y-78146058D01*
X209836708Y-78143053D01*
X209838549Y-78140089D01*
X209839977Y-78137170D01*
X209840993Y-78134300D01*
X209841601Y-78131483D01*
X209841803Y-78128724D01*
X209841752Y-78127360D01*
X209841601Y-78125995D01*
X209841348Y-78124630D01*
X209840993Y-78123263D01*
X209840536Y-78121894D01*
X209839977Y-78120523D01*
X209839315Y-78119150D01*
X209838549Y-78117773D01*
X209837680Y-78116393D01*
X209836708Y-78115009D01*
X209835631Y-78113621D01*
X209834450Y-78112228D01*
X209833164Y-78110830D01*
X209831772Y-78109426D01*
X209830276Y-78108015D01*
X209828673Y-78106599D01*
X209826964Y-78105175D01*
X209825149Y-78103744D01*
X209821197Y-78100858D01*
X209816815Y-78097937D01*
X209812000Y-78094978D01*
X209806749Y-78091977D01*
X209801061Y-78088930D01*
X209794931Y-78085835D01*
X209788357Y-78082687D01*
X206703316Y-76627743D01*
X206702412Y-76627258D01*
X206701539Y-76626747D01*
X206700695Y-76626210D01*
X206699880Y-76625649D01*
X206699094Y-76625066D01*
X206698337Y-76624462D01*
X206697610Y-76623838D01*
X206696912Y-76623196D01*
X206696243Y-76622536D01*
X206695603Y-76621861D01*
X206694991Y-76621172D01*
X206694409Y-76620469D01*
X206693331Y-76619031D01*
X206692368Y-76617557D01*
X206691520Y-76616058D01*
X206690787Y-76614545D01*
X206690167Y-76613029D01*
X206689661Y-76611521D01*
X206689267Y-76610031D01*
X206688987Y-76608571D01*
X206688819Y-76607152D01*
X206688763Y-76605783D01*
X206688763Y-76146731D01*
X206725012Y-76146731D01*
X206725333Y-76198763D01*
X206726442Y-76246589D01*
X206728556Y-76290328D01*
X206731891Y-76330095D01*
X206736665Y-76366009D01*
X206743094Y-76398185D01*
X206751397Y-76426742D01*
X206756318Y-76439699D01*
X206761789Y-76451795D01*
X206767836Y-76463045D01*
X206774488Y-76473463D01*
X206781770Y-76483064D01*
X206789711Y-76491862D01*
X206798336Y-76499872D01*
X206807674Y-76507109D01*
X206817752Y-76513588D01*
X206828596Y-76519322D01*
X206840234Y-76524327D01*
X206852693Y-76528617D01*
X206866000Y-76532207D01*
X206880182Y-76535111D01*
X206911280Y-76538922D01*
X206946204Y-76540166D01*
X206953464Y-76540064D01*
X206962070Y-76539794D01*
X206980467Y-76538975D01*
X207002031Y-76537785D01*
X210184174Y-76292516D01*
X210198375Y-76291312D01*
X210212611Y-76289322D01*
X210219702Y-76287908D01*
X210226752Y-76286150D01*
X210233746Y-76283997D01*
X210240667Y-76281399D01*
X210247498Y-76278309D01*
X210254223Y-76274676D01*
X210260826Y-76270450D01*
X210267290Y-76265583D01*
X210273599Y-76260024D01*
X210279736Y-76253725D01*
X210285685Y-76246636D01*
X210291430Y-76238706D01*
X210296953Y-76229888D01*
X210302240Y-76220132D01*
X210307272Y-76209387D01*
X210312035Y-76197605D01*
X210316510Y-76184735D01*
X210320683Y-76170730D01*
X210324536Y-76155538D01*
X210328054Y-76139112D01*
X210331219Y-76121400D01*
X210334015Y-76102354D01*
X210336426Y-76081924D01*
X210338436Y-76060062D01*
X210340028Y-76036716D01*
X210341185Y-76011839D01*
X210341891Y-75985379D01*
X210342130Y-75957289D01*
X210342130Y-75903843D01*
X210381024Y-75903843D01*
X210381024Y-76926458D01*
G37*
G36*
X209185639Y-88340136D02*
G01*
X209252477Y-88344322D01*
X209318086Y-88351235D01*
X209382402Y-88360822D01*
X209445359Y-88373033D01*
X209506892Y-88387815D01*
X209566935Y-88405116D01*
X209625424Y-88424885D01*
X209682292Y-88447068D01*
X209737475Y-88471616D01*
X209790908Y-88498474D01*
X209842525Y-88527593D01*
X209892260Y-88558918D01*
X209940049Y-88592400D01*
X209985825Y-88627985D01*
X210029525Y-88665622D01*
X210071082Y-88705259D01*
X210110432Y-88746844D01*
X210147508Y-88790325D01*
X210182245Y-88835650D01*
X210214580Y-88882767D01*
X210244445Y-88931625D01*
X210271775Y-88982170D01*
X210296506Y-89034352D01*
X210318572Y-89088119D01*
X210337908Y-89143418D01*
X210354448Y-89200197D01*
X210368128Y-89258405D01*
X210378881Y-89317989D01*
X210386643Y-89378899D01*
X210391347Y-89441081D01*
X210392930Y-89504484D01*
X210390067Y-89607743D01*
X210381630Y-89706222D01*
X210367850Y-89799977D01*
X210348960Y-89889064D01*
X210325189Y-89973541D01*
X210296769Y-90053465D01*
X210263930Y-90128890D01*
X210226904Y-90199875D01*
X210185922Y-90266476D01*
X210141214Y-90328749D01*
X210093012Y-90386751D01*
X210041547Y-90440538D01*
X209987049Y-90490168D01*
X209929750Y-90535696D01*
X209869881Y-90577180D01*
X209807672Y-90614675D01*
X209783331Y-90571019D01*
X209842871Y-90535031D01*
X209900196Y-90495370D01*
X209927958Y-90474134D01*
X209955082Y-90451946D01*
X209981541Y-90428795D01*
X210007305Y-90404670D01*
X210032347Y-90379560D01*
X210056639Y-90353454D01*
X210080152Y-90326340D01*
X210102860Y-90298208D01*
X210124733Y-90269045D01*
X210145744Y-90238842D01*
X210165865Y-90207587D01*
X210185067Y-90175268D01*
X210203323Y-90141875D01*
X210220604Y-90107397D01*
X210236883Y-90071822D01*
X210252131Y-90035139D01*
X210266321Y-89997338D01*
X210279424Y-89958406D01*
X210291412Y-89918333D01*
X210302257Y-89877108D01*
X210311931Y-89834719D01*
X210320407Y-89791155D01*
X210327655Y-89746406D01*
X210333649Y-89700460D01*
X210338359Y-89653306D01*
X210341759Y-89604933D01*
X210343819Y-89555329D01*
X210344512Y-89504484D01*
X210343006Y-89444025D01*
X210338527Y-89384768D01*
X210331134Y-89326760D01*
X210320889Y-89270048D01*
X210307850Y-89214679D01*
X210292076Y-89160701D01*
X210273628Y-89108160D01*
X210252565Y-89057103D01*
X210228947Y-89007577D01*
X210202833Y-88959629D01*
X210174283Y-88913307D01*
X210143357Y-88868658D01*
X210110114Y-88825728D01*
X210074614Y-88784564D01*
X210036916Y-88745214D01*
X209997081Y-88707724D01*
X209955168Y-88672142D01*
X209911236Y-88638515D01*
X209865345Y-88606890D01*
X209817555Y-88577313D01*
X209767925Y-88549832D01*
X209716515Y-88524494D01*
X209663385Y-88501346D01*
X209608594Y-88480435D01*
X209552202Y-88461808D01*
X209494269Y-88445511D01*
X209434854Y-88431593D01*
X209374017Y-88420100D01*
X209311817Y-88411079D01*
X209248315Y-88404577D01*
X209183569Y-88400642D01*
X209117639Y-88399319D01*
X209058498Y-88400344D01*
X209001053Y-88403396D01*
X208945190Y-88408444D01*
X208890792Y-88415459D01*
X208837747Y-88424408D01*
X208785939Y-88435261D01*
X208735253Y-88447986D01*
X208685575Y-88462554D01*
X208603026Y-88428423D01*
X208632267Y-88417824D01*
X208661773Y-88407857D01*
X208691569Y-88398531D01*
X208721682Y-88389852D01*
X208752139Y-88381827D01*
X208782967Y-88374464D01*
X208814193Y-88367769D01*
X208845846Y-88361748D01*
X208877951Y-88356410D01*
X208910535Y-88351761D01*
X208943627Y-88347808D01*
X208977253Y-88344559D01*
X209011440Y-88342019D01*
X209046215Y-88340196D01*
X209081606Y-88339097D01*
X209117639Y-88338730D01*
X209185639Y-88340136D01*
G37*
G36*
X210380759Y-84187153D02*
G01*
X210344776Y-84187153D01*
X210344776Y-84053538D01*
X210344049Y-83994548D01*
X210341921Y-83942233D01*
X210338476Y-83896195D01*
X210333796Y-83856039D01*
X210327962Y-83821370D01*
X210321056Y-83791791D01*
X210313162Y-83766908D01*
X210304361Y-83746324D01*
X210294735Y-83729643D01*
X210284366Y-83716471D01*
X210273337Y-83706411D01*
X210261730Y-83699067D01*
X210249626Y-83694044D01*
X210237109Y-83690946D01*
X210224260Y-83689377D01*
X210211161Y-83688943D01*
X209032707Y-83688943D01*
X208919819Y-83693156D01*
X208809313Y-83705563D01*
X208701864Y-83725809D01*
X208598150Y-83753542D01*
X208498846Y-83788410D01*
X208404629Y-83830059D01*
X208316176Y-83878138D01*
X208234162Y-83932293D01*
X208159264Y-83992172D01*
X208124694Y-84024147D01*
X208092157Y-84057421D01*
X208061738Y-84091950D01*
X208033520Y-84127689D01*
X208007588Y-84164595D01*
X207984027Y-84202623D01*
X207962921Y-84241729D01*
X207944355Y-84281869D01*
X207928414Y-84323000D01*
X207915181Y-84365076D01*
X207904742Y-84408054D01*
X207897181Y-84451890D01*
X207892582Y-84496540D01*
X207891030Y-84541959D01*
X207891257Y-84549156D01*
X207891932Y-84556208D01*
X207893047Y-84563110D01*
X207894595Y-84569856D01*
X207896569Y-84576440D01*
X207898960Y-84582857D01*
X207901762Y-84589102D01*
X207904966Y-84595169D01*
X207908565Y-84601053D01*
X207912552Y-84606748D01*
X207916918Y-84612249D01*
X207921656Y-84617550D01*
X207926759Y-84622645D01*
X207932219Y-84627530D01*
X207938028Y-84632199D01*
X207944178Y-84636646D01*
X207950663Y-84640867D01*
X207957474Y-84644854D01*
X207964604Y-84648604D01*
X207972046Y-84652109D01*
X207979791Y-84655366D01*
X207987832Y-84658369D01*
X207996162Y-84661111D01*
X208004772Y-84663588D01*
X208013656Y-84665794D01*
X208022805Y-84667724D01*
X208032212Y-84669372D01*
X208041870Y-84670732D01*
X208051771Y-84671800D01*
X208061906Y-84672570D01*
X208072270Y-84673035D01*
X208082853Y-84673192D01*
X208097249Y-84672794D01*
X208111281Y-84671635D01*
X208124966Y-84669765D01*
X208138326Y-84667234D01*
X208151380Y-84664095D01*
X208164146Y-84660397D01*
X208176646Y-84656192D01*
X208188897Y-84651529D01*
X208212735Y-84641036D01*
X208235816Y-84629325D01*
X208258296Y-84616801D01*
X208280331Y-84603871D01*
X208323694Y-84578418D01*
X208345333Y-84566707D01*
X208367152Y-84556214D01*
X208389308Y-84547346D01*
X208400560Y-84543648D01*
X208411956Y-84540508D01*
X208423514Y-84537978D01*
X208435253Y-84536108D01*
X208447194Y-84534949D01*
X208459355Y-84534551D01*
X208474699Y-84534856D01*
X208489717Y-84535763D01*
X208504400Y-84537265D01*
X208518736Y-84539350D01*
X208532715Y-84542010D01*
X208546326Y-84545236D01*
X208559559Y-84549017D01*
X208572403Y-84553345D01*
X208584847Y-84558210D01*
X208596881Y-84563603D01*
X208608494Y-84569514D01*
X208619676Y-84575935D01*
X208630415Y-84582855D01*
X208640703Y-84590265D01*
X208650526Y-84598156D01*
X208659876Y-84606518D01*
X208668742Y-84615342D01*
X208677112Y-84624619D01*
X208684977Y-84634339D01*
X208692326Y-84644493D01*
X208699147Y-84655071D01*
X208705431Y-84666064D01*
X208711167Y-84677463D01*
X208716344Y-84689258D01*
X208720952Y-84701440D01*
X208724980Y-84713999D01*
X208728417Y-84726926D01*
X208731254Y-84740212D01*
X208733478Y-84753847D01*
X208735080Y-84767822D01*
X208736049Y-84782127D01*
X208736374Y-84796754D01*
X208735878Y-84814767D01*
X208734401Y-84832386D01*
X208731957Y-84849598D01*
X208728561Y-84866393D01*
X208724230Y-84882758D01*
X208718977Y-84898682D01*
X208712819Y-84914154D01*
X208705769Y-84929161D01*
X208697845Y-84943692D01*
X208689060Y-84957736D01*
X208679429Y-84971281D01*
X208668969Y-84984314D01*
X208657694Y-84996825D01*
X208645619Y-85008803D01*
X208632760Y-85020234D01*
X208619131Y-85031108D01*
X208604748Y-85041413D01*
X208589626Y-85051138D01*
X208573780Y-85060270D01*
X208557225Y-85068799D01*
X208539977Y-85076712D01*
X208522050Y-85083998D01*
X208503460Y-85090645D01*
X208484222Y-85096642D01*
X208464351Y-85101977D01*
X208443863Y-85106638D01*
X208422772Y-85110615D01*
X208401093Y-85113894D01*
X208378842Y-85116465D01*
X208356034Y-85118315D01*
X208332684Y-85119434D01*
X208308808Y-85119810D01*
X208282888Y-85119137D01*
X208257528Y-85117134D01*
X208232746Y-85113821D01*
X208208557Y-85109218D01*
X208184981Y-85103348D01*
X208162033Y-85096230D01*
X208139731Y-85087886D01*
X208118093Y-85078336D01*
X208097135Y-85067602D01*
X208076875Y-85055705D01*
X208057330Y-85042665D01*
X208038517Y-85028503D01*
X208020454Y-85013241D01*
X208003158Y-84996899D01*
X207986645Y-84979498D01*
X207970935Y-84961059D01*
X207956042Y-84941604D01*
X207941986Y-84921152D01*
X207928782Y-84899725D01*
X207916449Y-84877344D01*
X207905003Y-84854029D01*
X207894462Y-84829802D01*
X207884844Y-84804684D01*
X207876164Y-84778696D01*
X207868441Y-84751857D01*
X207861692Y-84724190D01*
X207855934Y-84695716D01*
X207851184Y-84666455D01*
X207847459Y-84636427D01*
X207844778Y-84605655D01*
X207843156Y-84574159D01*
X207842612Y-84541960D01*
X207843642Y-84503274D01*
X207846704Y-84465164D01*
X207851748Y-84427650D01*
X207858728Y-84390753D01*
X207867598Y-84354492D01*
X207878309Y-84318888D01*
X207890816Y-84283960D01*
X207905070Y-84249728D01*
X207921025Y-84216213D01*
X207938633Y-84183433D01*
X207957848Y-84151410D01*
X207978622Y-84120163D01*
X208000908Y-84089712D01*
X208024660Y-84060077D01*
X208049830Y-84031278D01*
X208076371Y-84003335D01*
X208104236Y-83976268D01*
X208133378Y-83950096D01*
X208195303Y-83900521D01*
X208261771Y-83854769D01*
X208332405Y-83813000D01*
X208406828Y-83775373D01*
X208484663Y-83742048D01*
X208565533Y-83713185D01*
X208649062Y-83688944D01*
X207847639Y-83688944D01*
X207854783Y-83373561D01*
X207854783Y-83312707D01*
X207854782Y-83312705D01*
X207891030Y-83312705D01*
X207891030Y-83373559D01*
X207891406Y-83407250D01*
X207892559Y-83438226D01*
X207894529Y-83466560D01*
X207897356Y-83492328D01*
X207901078Y-83515605D01*
X207905736Y-83536466D01*
X207911370Y-83554985D01*
X207918018Y-83571236D01*
X207925720Y-83585296D01*
X207929979Y-83591527D01*
X207934516Y-83597238D01*
X207939337Y-83602439D01*
X207944445Y-83607138D01*
X207949847Y-83611346D01*
X207955547Y-83615070D01*
X207961551Y-83618322D01*
X207967862Y-83621110D01*
X207974486Y-83623443D01*
X207981428Y-83625331D01*
X207996286Y-83627809D01*
X208012474Y-83628618D01*
X210211161Y-83628618D01*
X210224260Y-83628180D01*
X210230721Y-83627559D01*
X210237109Y-83626604D01*
X210243414Y-83625266D01*
X210249627Y-83623495D01*
X210255735Y-83621243D01*
X210261730Y-83618460D01*
X210267601Y-83615097D01*
X210273337Y-83611104D01*
X210278929Y-83606433D01*
X210284366Y-83601033D01*
X210289638Y-83594857D01*
X210294735Y-83587853D01*
X210299646Y-83579974D01*
X210304361Y-83571170D01*
X210308870Y-83561391D01*
X210313162Y-83550589D01*
X210317228Y-83538714D01*
X210321057Y-83525717D01*
X210324638Y-83511548D01*
X210327962Y-83496159D01*
X210331018Y-83479499D01*
X210333796Y-83461521D01*
X210336285Y-83442173D01*
X210338476Y-83421409D01*
X210340358Y-83399177D01*
X210341921Y-83375428D01*
X210343155Y-83350114D01*
X210344049Y-83323185D01*
X210344592Y-83294593D01*
X210344776Y-83264286D01*
X210344776Y-83166919D01*
X210380759Y-83166919D01*
X210380759Y-84187153D01*
G37*
G36*
X208603024Y-88428424D02*
G01*
X208603025Y-88428423D01*
X208603026Y-88428423D01*
X208603024Y-88428424D01*
G37*
G36*
X210380759Y-86329485D02*
G01*
X210344776Y-86329485D01*
X210344776Y-86195869D01*
X210344049Y-86136926D01*
X210341921Y-86084651D01*
X210338476Y-86038649D01*
X210333796Y-85998523D01*
X210327962Y-85963880D01*
X210321056Y-85934323D01*
X210313162Y-85909457D01*
X210304361Y-85888887D01*
X210294735Y-85872217D01*
X210284366Y-85859053D01*
X210273337Y-85848999D01*
X210261730Y-85841659D01*
X210249626Y-85836638D01*
X210237109Y-85833542D01*
X210224260Y-85831974D01*
X210211161Y-85831539D01*
X209258662Y-85831539D01*
X209192791Y-85833152D01*
X209127314Y-85837928D01*
X209062342Y-85845765D01*
X208997986Y-85856567D01*
X208934357Y-85870234D01*
X208871568Y-85886667D01*
X208809728Y-85905768D01*
X208748950Y-85927438D01*
X208631023Y-85978088D01*
X208518679Y-86037828D01*
X208412806Y-86105868D01*
X208314297Y-86181417D01*
X208224042Y-86263685D01*
X208142931Y-86351881D01*
X208106083Y-86397956D01*
X208071855Y-86445216D01*
X208040359Y-86493564D01*
X208011705Y-86542900D01*
X207986005Y-86593125D01*
X207963371Y-86644141D01*
X207943914Y-86695849D01*
X207927744Y-86748150D01*
X207914974Y-86800945D01*
X207905715Y-86854136D01*
X207900078Y-86907623D01*
X207898174Y-86961309D01*
X207900758Y-87050467D01*
X207908480Y-87133980D01*
X207921293Y-87211832D01*
X207929595Y-87248631D01*
X207939151Y-87284010D01*
X207949957Y-87317966D01*
X207962007Y-87350498D01*
X207975295Y-87381604D01*
X207989815Y-87411282D01*
X208005561Y-87439530D01*
X208022528Y-87466346D01*
X208040709Y-87491730D01*
X208060099Y-87515677D01*
X208080692Y-87538188D01*
X208102482Y-87559260D01*
X208125464Y-87578891D01*
X208149632Y-87597079D01*
X208174979Y-87613823D01*
X208201500Y-87629120D01*
X208229189Y-87642970D01*
X208258040Y-87655369D01*
X208288048Y-87666317D01*
X208319207Y-87675810D01*
X208351511Y-87683849D01*
X208384954Y-87690429D01*
X208419530Y-87695551D01*
X208455233Y-87699212D01*
X208492058Y-87701409D01*
X208529999Y-87702142D01*
X210392930Y-87702142D01*
X210464687Y-87704085D01*
X210533184Y-87709832D01*
X210598234Y-87719262D01*
X210659647Y-87732255D01*
X210717234Y-87748690D01*
X210770805Y-87768445D01*
X210820172Y-87791401D01*
X210865145Y-87817435D01*
X210905536Y-87846427D01*
X210923954Y-87861994D01*
X210941155Y-87878256D01*
X210957116Y-87895196D01*
X210971813Y-87912801D01*
X210985223Y-87931054D01*
X210997321Y-87949941D01*
X211008085Y-87969447D01*
X211017490Y-87989556D01*
X211025513Y-88010254D01*
X211032131Y-88031524D01*
X211037319Y-88053353D01*
X211041054Y-88075725D01*
X211043312Y-88098624D01*
X211044070Y-88122037D01*
X211042603Y-88166621D01*
X211038266Y-88209212D01*
X211031150Y-88249686D01*
X211021349Y-88287922D01*
X211008956Y-88323799D01*
X211001816Y-88340814D01*
X210994064Y-88357195D01*
X210985710Y-88372924D01*
X210976766Y-88387987D01*
X210967243Y-88402369D01*
X210957154Y-88416055D01*
X210946510Y-88429029D01*
X210935323Y-88441277D01*
X210923604Y-88452782D01*
X210911365Y-88463530D01*
X210898617Y-88473506D01*
X210885373Y-88482694D01*
X210871643Y-88491079D01*
X210857439Y-88498647D01*
X210842774Y-88505381D01*
X210827658Y-88511266D01*
X210812104Y-88516288D01*
X210796122Y-88520430D01*
X210779725Y-88523679D01*
X210762924Y-88526018D01*
X210745731Y-88527433D01*
X210728157Y-88527908D01*
X210715544Y-88527610D01*
X210703208Y-88526723D01*
X210691159Y-88525255D01*
X210679403Y-88523216D01*
X210667949Y-88520613D01*
X210656805Y-88517457D01*
X210645979Y-88513756D01*
X210635479Y-88509519D01*
X210625313Y-88504755D01*
X210615489Y-88499473D01*
X210606016Y-88493681D01*
X210596900Y-88487389D01*
X210588151Y-88480606D01*
X210579776Y-88473340D01*
X210571784Y-88465600D01*
X210564182Y-88457396D01*
X210556978Y-88448736D01*
X210550181Y-88439629D01*
X210543798Y-88430084D01*
X210537838Y-88420110D01*
X210532309Y-88409716D01*
X210527218Y-88398911D01*
X210522574Y-88387704D01*
X210518384Y-88376103D01*
X210514657Y-88364117D01*
X210511402Y-88351756D01*
X210508624Y-88339029D01*
X210506334Y-88325943D01*
X210504539Y-88312509D01*
X210503247Y-88298735D01*
X210502465Y-88284630D01*
X210502203Y-88270203D01*
X210502538Y-88257055D01*
X210503514Y-88244424D01*
X210505088Y-88232276D01*
X210507217Y-88220575D01*
X210509859Y-88209285D01*
X210512971Y-88198371D01*
X210516511Y-88187798D01*
X210520435Y-88177529D01*
X210529266Y-88157765D01*
X210539122Y-88138793D01*
X210549662Y-88120331D01*
X210560544Y-88102094D01*
X210571426Y-88083799D01*
X210581966Y-88065160D01*
X210591822Y-88045894D01*
X210600653Y-88025717D01*
X210604577Y-88015198D01*
X210608116Y-88004344D01*
X210611229Y-87993121D01*
X210613871Y-87981493D01*
X210616000Y-87969423D01*
X210617574Y-87956877D01*
X210618550Y-87943820D01*
X210618884Y-87930215D01*
X210618403Y-87922471D01*
X210616967Y-87914730D01*
X210614591Y-87907006D01*
X210611288Y-87899317D01*
X210607071Y-87891678D01*
X210601953Y-87884105D01*
X210595948Y-87876613D01*
X210589069Y-87869220D01*
X210581330Y-87861940D01*
X210572744Y-87854791D01*
X210563324Y-87847787D01*
X210553084Y-87840945D01*
X210542037Y-87834282D01*
X210530196Y-87827812D01*
X210517575Y-87821552D01*
X210504187Y-87815518D01*
X210490046Y-87809725D01*
X210475165Y-87804191D01*
X210459557Y-87798930D01*
X210443236Y-87793959D01*
X210426215Y-87789294D01*
X210408507Y-87784951D01*
X210390126Y-87780945D01*
X210371085Y-87777293D01*
X210351398Y-87774011D01*
X210331078Y-87771115D01*
X210310138Y-87768621D01*
X210288591Y-87766544D01*
X210266452Y-87764901D01*
X210243733Y-87763707D01*
X210220447Y-87762979D01*
X210196609Y-87762733D01*
X208522591Y-87762733D01*
X208481742Y-87761910D01*
X208442096Y-87759445D01*
X208403658Y-87755346D01*
X208366437Y-87749621D01*
X208330436Y-87742279D01*
X208295664Y-87733326D01*
X208262124Y-87722772D01*
X208229825Y-87710623D01*
X208198772Y-87696887D01*
X208168971Y-87681574D01*
X208140429Y-87664690D01*
X208113151Y-87646243D01*
X208087143Y-87626241D01*
X208062413Y-87604693D01*
X208038965Y-87581605D01*
X208016807Y-87556987D01*
X207995944Y-87530845D01*
X207976382Y-87503188D01*
X207958128Y-87474024D01*
X207941187Y-87443360D01*
X207925566Y-87411205D01*
X207911272Y-87377566D01*
X207898309Y-87342451D01*
X207886685Y-87305868D01*
X207876406Y-87267825D01*
X207867477Y-87228331D01*
X207859905Y-87187392D01*
X207853696Y-87145016D01*
X207848856Y-87101213D01*
X207845391Y-87055988D01*
X207843307Y-87009352D01*
X207842612Y-86961310D01*
X207843727Y-86918781D01*
X207847040Y-86876448D01*
X207852499Y-86834350D01*
X207860055Y-86792525D01*
X207869656Y-86751011D01*
X207881252Y-86709846D01*
X207894792Y-86669069D01*
X207910225Y-86628717D01*
X207927501Y-86588829D01*
X207946570Y-86549443D01*
X207989882Y-86472331D01*
X208039755Y-86397686D01*
X208095785Y-86325814D01*
X208157566Y-86257021D01*
X208224694Y-86191613D01*
X208296764Y-86129895D01*
X208373370Y-86072174D01*
X208454108Y-86018754D01*
X208538572Y-85969943D01*
X208626358Y-85926045D01*
X208717060Y-85887366D01*
X208724935Y-85884246D01*
X208732197Y-85881235D01*
X208738863Y-85878328D01*
X208744944Y-85875522D01*
X208750457Y-85872814D01*
X208755416Y-85870200D01*
X208759834Y-85867677D01*
X208763726Y-85865240D01*
X208767106Y-85862888D01*
X208769989Y-85860616D01*
X208772390Y-85858420D01*
X208774321Y-85856298D01*
X208775799Y-85854246D01*
X208776836Y-85852260D01*
X208777448Y-85850336D01*
X208777649Y-85848472D01*
X208777551Y-85847353D01*
X208777259Y-85846276D01*
X208776778Y-85845242D01*
X208776113Y-85844250D01*
X208775270Y-85843300D01*
X208774252Y-85842390D01*
X208773064Y-85841521D01*
X208771713Y-85840692D01*
X208770201Y-85839902D01*
X208768535Y-85839152D01*
X208766718Y-85838440D01*
X208764757Y-85837766D01*
X208762655Y-85837130D01*
X208760418Y-85836531D01*
X208755556Y-85835442D01*
X208750211Y-85834496D01*
X208744421Y-85833688D01*
X208738225Y-85833016D01*
X208731661Y-85832474D01*
X208724769Y-85832059D01*
X208717587Y-85831768D01*
X208710153Y-85831596D01*
X208702507Y-85831540D01*
X207847639Y-85831540D01*
X207854783Y-85515892D01*
X207854783Y-85455302D01*
X207854782Y-85455301D01*
X207891030Y-85455301D01*
X207891030Y-85515891D01*
X207891406Y-85549582D01*
X207892559Y-85580557D01*
X207894529Y-85608891D01*
X207897356Y-85634660D01*
X207901078Y-85657937D01*
X207905736Y-85678797D01*
X207911370Y-85697316D01*
X207918018Y-85713568D01*
X207925720Y-85727627D01*
X207929979Y-85733858D01*
X207934516Y-85739570D01*
X207939337Y-85744770D01*
X207944445Y-85749469D01*
X207949847Y-85753677D01*
X207955547Y-85757402D01*
X207961551Y-85760653D01*
X207967862Y-85763441D01*
X207974486Y-85765774D01*
X207981428Y-85767662D01*
X207996286Y-85770140D01*
X208012474Y-85770949D01*
X210211161Y-85770949D01*
X210224260Y-85770514D01*
X210230721Y-85769896D01*
X210237109Y-85768946D01*
X210243414Y-85767613D01*
X210249627Y-85765849D01*
X210255735Y-85763604D01*
X210261730Y-85760829D01*
X210267601Y-85757473D01*
X210273337Y-85753489D01*
X210278929Y-85748826D01*
X210284366Y-85743434D01*
X210289638Y-85737266D01*
X210294735Y-85730270D01*
X210299646Y-85722398D01*
X210304361Y-85713601D01*
X210308870Y-85703828D01*
X210313162Y-85693030D01*
X210317228Y-85681159D01*
X210321057Y-85668165D01*
X210324638Y-85653997D01*
X210327962Y-85638607D01*
X210331018Y-85621946D01*
X210333796Y-85603964D01*
X210336285Y-85584611D01*
X210338476Y-85563838D01*
X210340358Y-85541596D01*
X210341921Y-85517836D01*
X210343155Y-85492507D01*
X210344049Y-85465561D01*
X210344592Y-85436947D01*
X210344776Y-85406618D01*
X210344776Y-85309516D01*
X210380759Y-85309516D01*
X210380759Y-86329485D01*
G37*
G36*
X208584310Y-88533910D02*
G01*
X208613631Y-88536819D01*
X208642285Y-88541630D01*
X208670251Y-88548314D01*
X208697510Y-88556839D01*
X208724041Y-88567177D01*
X208749825Y-88579297D01*
X208774842Y-88593168D01*
X208799071Y-88608761D01*
X208822494Y-88626045D01*
X208845089Y-88644991D01*
X208866838Y-88665567D01*
X208887720Y-88687745D01*
X208907715Y-88711494D01*
X208926803Y-88736784D01*
X208944965Y-88763584D01*
X208962180Y-88791865D01*
X208978429Y-88821596D01*
X208993692Y-88852748D01*
X209007949Y-88885289D01*
X209021179Y-88919191D01*
X209033363Y-88954422D01*
X209044482Y-88990953D01*
X209054515Y-89028754D01*
X209063442Y-89067794D01*
X209071243Y-89108044D01*
X209077899Y-89149473D01*
X209083389Y-89192050D01*
X209087694Y-89235747D01*
X209090793Y-89280533D01*
X209092668Y-89326377D01*
X209093297Y-89373250D01*
X209093297Y-90646161D01*
X209093212Y-90648001D01*
X209092957Y-90649930D01*
X209092526Y-90651919D01*
X209091916Y-90653941D01*
X209091123Y-90655965D01*
X209090143Y-90657964D01*
X209089582Y-90658945D01*
X209088973Y-90659909D01*
X209088315Y-90660852D01*
X209087608Y-90661771D01*
X209086852Y-90662662D01*
X209086045Y-90663521D01*
X209085188Y-90664346D01*
X209084279Y-90665131D01*
X209083319Y-90665875D01*
X209082307Y-90666572D01*
X209081243Y-90667220D01*
X209080125Y-90667815D01*
X209078955Y-90668354D01*
X209077730Y-90668832D01*
X209076450Y-90669247D01*
X209075116Y-90669594D01*
X209073726Y-90669871D01*
X209072281Y-90670072D01*
X209070779Y-90670196D01*
X209069220Y-90670238D01*
X209003733Y-90668936D01*
X208939376Y-90665053D01*
X208876210Y-90658626D01*
X208814297Y-90649691D01*
X208753700Y-90638284D01*
X208694481Y-90624442D01*
X208636703Y-90608201D01*
X208580427Y-90589598D01*
X208525716Y-90568669D01*
X208472633Y-90545449D01*
X208421239Y-90519976D01*
X208371597Y-90492286D01*
X208323770Y-90462415D01*
X208277819Y-90430400D01*
X208233806Y-90396276D01*
X208191795Y-90360080D01*
X208151848Y-90321849D01*
X208114026Y-90281619D01*
X208078392Y-90239425D01*
X208045009Y-90195306D01*
X208013938Y-90149296D01*
X207985242Y-90101432D01*
X207958983Y-90051751D01*
X207935224Y-90000288D01*
X207914027Y-89947081D01*
X207895454Y-89892165D01*
X207879567Y-89835577D01*
X207866429Y-89777353D01*
X207856102Y-89717529D01*
X207848649Y-89656143D01*
X207844131Y-89593229D01*
X207842612Y-89528825D01*
X207843543Y-89479484D01*
X207846316Y-89430798D01*
X207850899Y-89382796D01*
X207857263Y-89335506D01*
X207865375Y-89288957D01*
X207875205Y-89243178D01*
X207886722Y-89198197D01*
X207899894Y-89154043D01*
X207914691Y-89110745D01*
X207931082Y-89068331D01*
X207949035Y-89026831D01*
X207968520Y-88986272D01*
X207989506Y-88946684D01*
X208011962Y-88908095D01*
X208035856Y-88870534D01*
X208061158Y-88834030D01*
X208061158Y-88926105D01*
X208041196Y-88958846D01*
X208022398Y-88992362D01*
X208004782Y-89026627D01*
X207988364Y-89061617D01*
X207973162Y-89097306D01*
X207959192Y-89133669D01*
X207946471Y-89170681D01*
X207935018Y-89208316D01*
X207924847Y-89246550D01*
X207915978Y-89285357D01*
X207908426Y-89324712D01*
X207902209Y-89364590D01*
X207897344Y-89404965D01*
X207893848Y-89445813D01*
X207891738Y-89487108D01*
X207891031Y-89528825D01*
X207892120Y-89582459D01*
X207895364Y-89634950D01*
X207900725Y-89686280D01*
X207908164Y-89736432D01*
X207917645Y-89785387D01*
X207929128Y-89833126D01*
X207942577Y-89879632D01*
X207957954Y-89924886D01*
X207975220Y-89968870D01*
X207994338Y-90011566D01*
X208015271Y-90052955D01*
X208037980Y-90093019D01*
X208062427Y-90131740D01*
X208088576Y-90169099D01*
X208116387Y-90205079D01*
X208145824Y-90239661D01*
X208176849Y-90272827D01*
X208209423Y-90304559D01*
X208243509Y-90334837D01*
X208279069Y-90363645D01*
X208316065Y-90390964D01*
X208354460Y-90416774D01*
X208394216Y-90441060D01*
X208435295Y-90463801D01*
X208477659Y-90484979D01*
X208521270Y-90504578D01*
X208612084Y-90538959D01*
X208707434Y-90566800D01*
X208807018Y-90587952D01*
X208815353Y-90589714D01*
X208823893Y-90591230D01*
X208832644Y-90592505D01*
X208841612Y-90593541D01*
X208850803Y-90594342D01*
X208860224Y-90594910D01*
X208869880Y-90595248D01*
X208879778Y-90595360D01*
X208894847Y-90595066D01*
X208909901Y-90594149D01*
X208924809Y-90592554D01*
X208939438Y-90590230D01*
X208953656Y-90587123D01*
X208967331Y-90583180D01*
X208980331Y-90578348D01*
X208992524Y-90572573D01*
X208998276Y-90569316D01*
X209003777Y-90565804D01*
X209009010Y-90562029D01*
X209013959Y-90557985D01*
X209018606Y-90553667D01*
X209022937Y-90549066D01*
X209026933Y-90544176D01*
X209030578Y-90538992D01*
X209033857Y-90533505D01*
X209036752Y-90527710D01*
X209039247Y-90521600D01*
X209041326Y-90515167D01*
X209042971Y-90508407D01*
X209044167Y-90501311D01*
X209044896Y-90493873D01*
X209045143Y-90486087D01*
X209045143Y-89380394D01*
X209043790Y-89336258D01*
X209039792Y-89294118D01*
X209033238Y-89254093D01*
X209024216Y-89216298D01*
X209012816Y-89180853D01*
X208999127Y-89147873D01*
X208983238Y-89117477D01*
X208974497Y-89103285D01*
X208965239Y-89089782D01*
X208955475Y-89076984D01*
X208945218Y-89064905D01*
X208934477Y-89053561D01*
X208923264Y-89042965D01*
X208911590Y-89033132D01*
X208899467Y-89024077D01*
X208886905Y-89015815D01*
X208873916Y-89008361D01*
X208860511Y-89001728D01*
X208846700Y-88995932D01*
X208832496Y-88990988D01*
X208817908Y-88986909D01*
X208802949Y-88983712D01*
X208787629Y-88981409D01*
X208771960Y-88980017D01*
X208755953Y-88979550D01*
X208737911Y-88980059D01*
X208720666Y-88981544D01*
X208704172Y-88983939D01*
X208688387Y-88987179D01*
X208673266Y-88991199D01*
X208658764Y-88995934D01*
X208644839Y-89001319D01*
X208631446Y-89007290D01*
X208618541Y-89013781D01*
X208606080Y-89020727D01*
X208582313Y-89035724D01*
X208559793Y-89051761D01*
X208538168Y-89068318D01*
X208496194Y-89100913D01*
X208475140Y-89115909D01*
X208453572Y-89129346D01*
X208442485Y-89135317D01*
X208431137Y-89140702D01*
X208419484Y-89145437D01*
X208407483Y-89149458D01*
X208395089Y-89152697D01*
X208382258Y-89155092D01*
X208368946Y-89156577D01*
X208355109Y-89157086D01*
X208342489Y-89156788D01*
X208330134Y-89155902D01*
X208318052Y-89154437D01*
X208306253Y-89152404D01*
X208294745Y-89149811D01*
X208283537Y-89146669D01*
X208272639Y-89142987D01*
X208262059Y-89138776D01*
X208251806Y-89134045D01*
X208241889Y-89128805D01*
X208232317Y-89123064D01*
X208223099Y-89116833D01*
X208214244Y-89110121D01*
X208205760Y-89102939D01*
X208197657Y-89095297D01*
X208189943Y-89087203D01*
X208182628Y-89078668D01*
X208175720Y-89069703D01*
X208169229Y-89060315D01*
X208163163Y-89050516D01*
X208157530Y-89040316D01*
X208152341Y-89029723D01*
X208147604Y-89018749D01*
X208143327Y-89007402D01*
X208139520Y-88995693D01*
X208136192Y-88983632D01*
X208133352Y-88971227D01*
X208131007Y-88958490D01*
X208129169Y-88945430D01*
X208127844Y-88932056D01*
X208127043Y-88918379D01*
X208126774Y-88904409D01*
X208127269Y-88883696D01*
X208128745Y-88863437D01*
X208131185Y-88843645D01*
X208134576Y-88824333D01*
X208138902Y-88805515D01*
X208144149Y-88787204D01*
X208150300Y-88769414D01*
X208157342Y-88752157D01*
X208165258Y-88735448D01*
X208174035Y-88719300D01*
X208183657Y-88703725D01*
X208194109Y-88688738D01*
X208205377Y-88674351D01*
X208217444Y-88660579D01*
X208230296Y-88647434D01*
X208243918Y-88634930D01*
X208258296Y-88623081D01*
X208273413Y-88611899D01*
X208289255Y-88601397D01*
X208305807Y-88591590D01*
X208323054Y-88582491D01*
X208340981Y-88574113D01*
X208359573Y-88566470D01*
X208378814Y-88559574D01*
X208398691Y-88553439D01*
X208419187Y-88548079D01*
X208440288Y-88543507D01*
X208461979Y-88539736D01*
X208484245Y-88536780D01*
X208507071Y-88534652D01*
X208530441Y-88533366D01*
X208554341Y-88532934D01*
X208584310Y-88533910D01*
G37*
M02*
