G04 #@! TF.GenerationSoftware,KiCad,Pcbnew,(6.0.9)*
G04 #@! TF.CreationDate,2022-12-04T20:33:53+01:00*
G04 #@! TF.ProjectId,corne-cherry,636f726e-652d-4636-9865-7272792e6b69,2.1*
G04 #@! TF.SameCoordinates,Original*
G04 #@! TF.FileFunction,Legend,Top*
G04 #@! TF.FilePolarity,Positive*
%FSLAX46Y46*%
G04 Gerber Fmt 4.6, Leading zero omitted, Abs format (unit mm)*
G04 Created by KiCad (PCBNEW (6.0.9)) date 2022-12-04 20:33:53*
%MOMM*%
%LPD*%
G01*
G04 APERTURE LIST*
%ADD10C,0.125000*%
%ADD11C,0.300000*%
%ADD12C,0.150000*%
%ADD13C,0.152400*%
%ADD14C,0.195791*%
%ADD15C,1.800000*%
%ADD16C,4.000000*%
%ADD17C,1.524000*%
%ADD18C,1.397000*%
%ADD19C,1.200000*%
%ADD20O,2.500000X1.700000*%
%ADD21C,2.000000*%
G04 APERTURE END LIST*
D10*
X196800480Y-106142646D02*
X196467146Y-106142646D01*
X196467146Y-105442646D01*
X197033813Y-105775980D02*
X197267146Y-105775980D01*
X197367146Y-106142646D02*
X197033813Y-106142646D01*
X197033813Y-105442646D01*
X197367146Y-105442646D01*
X197667146Y-106142646D02*
X197667146Y-105442646D01*
X197833813Y-105442646D01*
X197933813Y-105475980D01*
X198000480Y-105542646D01*
X198033813Y-105609313D01*
X198067146Y-105742646D01*
X198067146Y-105842646D01*
X198033813Y-105975980D01*
X198000480Y-106042646D01*
X197933813Y-106109313D01*
X197833813Y-106142646D01*
X197667146Y-106142646D01*
X196817146Y-107975980D02*
X196750480Y-107942646D01*
X196650480Y-107942646D01*
X196550480Y-107975980D01*
X196483813Y-108042646D01*
X196450480Y-108109313D01*
X196417146Y-108242646D01*
X196417146Y-108342646D01*
X196450480Y-108475980D01*
X196483813Y-108542646D01*
X196550480Y-108609313D01*
X196650480Y-108642646D01*
X196717146Y-108642646D01*
X196817146Y-108609313D01*
X196850480Y-108575980D01*
X196850480Y-108342646D01*
X196717146Y-108342646D01*
X197150480Y-108642646D02*
X197150480Y-107942646D01*
X197550480Y-108642646D01*
X197550480Y-107942646D01*
X197883813Y-108642646D02*
X197883813Y-107942646D01*
X198050480Y-107942646D01*
X198150480Y-107975980D01*
X198217146Y-108042646D01*
X198250480Y-108109313D01*
X198283813Y-108242646D01*
X198283813Y-108342646D01*
X198250480Y-108475980D01*
X198217146Y-108542646D01*
X198150480Y-108609313D01*
X198050480Y-108642646D01*
X197883813Y-108642646D01*
X196317146Y-102742646D02*
X196550480Y-103442646D01*
X196783813Y-102742646D01*
X197417146Y-103375980D02*
X197383813Y-103409313D01*
X197283813Y-103442646D01*
X197217146Y-103442646D01*
X197117146Y-103409313D01*
X197050480Y-103342646D01*
X197017146Y-103275980D01*
X196983813Y-103142646D01*
X196983813Y-103042646D01*
X197017146Y-102909313D01*
X197050480Y-102842646D01*
X197117146Y-102775980D01*
X197217146Y-102742646D01*
X197283813Y-102742646D01*
X197383813Y-102775980D01*
X197417146Y-102809313D01*
X198117146Y-103375980D02*
X198083813Y-103409313D01*
X197983813Y-103442646D01*
X197917146Y-103442646D01*
X197817146Y-103409313D01*
X197750480Y-103342646D01*
X197717146Y-103275980D01*
X197683813Y-103142646D01*
X197683813Y-103042646D01*
X197717146Y-102909313D01*
X197750480Y-102842646D01*
X197817146Y-102775980D01*
X197917146Y-102742646D01*
X197983813Y-102742646D01*
X198083813Y-102775980D01*
X198117146Y-102809313D01*
D11*
X191593337Y-82604551D02*
X192093337Y-84104551D01*
X192593337Y-82604551D01*
X195021908Y-84104551D02*
X194164765Y-84104551D01*
X194593337Y-84104551D02*
X194593337Y-82604551D01*
X194450480Y-82818837D01*
X194307622Y-82961694D01*
X194164765Y-83033122D01*
X195664765Y-83961694D02*
X195736194Y-84033122D01*
X195664765Y-84104551D01*
X195593337Y-84033122D01*
X195664765Y-83961694D01*
X195664765Y-84104551D01*
X196664765Y-82604551D02*
X196807622Y-82604551D01*
X196950480Y-82675980D01*
X197021908Y-82747408D01*
X197093337Y-82890265D01*
X197164765Y-83175980D01*
X197164765Y-83533122D01*
X197093337Y-83818837D01*
X197021908Y-83961694D01*
X196950480Y-84033122D01*
X196807622Y-84104551D01*
X196664765Y-84104551D01*
X196521908Y-84033122D01*
X196450480Y-83961694D01*
X196379051Y-83818837D01*
X196307622Y-83533122D01*
X196307622Y-83175980D01*
X196379051Y-82890265D01*
X196450480Y-82747408D01*
X196521908Y-82675980D01*
X196664765Y-82604551D01*
D12*
X65602860Y-75064075D02*
X64602860Y-75064075D01*
X64602860Y-74825980D01*
X64650480Y-74683122D01*
X64745718Y-74587884D01*
X64840956Y-74540265D01*
X65031432Y-74492646D01*
X65174289Y-74492646D01*
X65364765Y-74540265D01*
X65460003Y-74587884D01*
X65555241Y-74683122D01*
X65602860Y-74825980D01*
X65602860Y-75064075D01*
X65602860Y-73540265D02*
X65602860Y-74111694D01*
X65602860Y-73825980D02*
X64602860Y-73825980D01*
X64745718Y-73921218D01*
X64840956Y-74016456D01*
X64888575Y-74111694D01*
X80802860Y-75064075D02*
X79802860Y-75064075D01*
X79802860Y-74825980D01*
X79850480Y-74683122D01*
X79945718Y-74587884D01*
X80040956Y-74540265D01*
X80231432Y-74492646D01*
X80374289Y-74492646D01*
X80564765Y-74540265D01*
X80660003Y-74587884D01*
X80755241Y-74683122D01*
X80802860Y-74825980D01*
X80802860Y-75064075D01*
X79898099Y-74111694D02*
X79850480Y-74064075D01*
X79802860Y-73968837D01*
X79802860Y-73730741D01*
X79850480Y-73635503D01*
X79898099Y-73587884D01*
X79993337Y-73540265D01*
X80088575Y-73540265D01*
X80231432Y-73587884D01*
X80802860Y-74159313D01*
X80802860Y-73540265D01*
X114702860Y-70264075D02*
X113702860Y-70264075D01*
X113702860Y-70025980D01*
X113750480Y-69883122D01*
X113845718Y-69787884D01*
X113940956Y-69740265D01*
X114131432Y-69692646D01*
X114274289Y-69692646D01*
X114464765Y-69740265D01*
X114560003Y-69787884D01*
X114655241Y-69883122D01*
X114702860Y-70025980D01*
X114702860Y-70264075D01*
X113702860Y-69359313D02*
X113702860Y-68740265D01*
X114083813Y-69073599D01*
X114083813Y-68930741D01*
X114131432Y-68835503D01*
X114179051Y-68787884D01*
X114274289Y-68740265D01*
X114512384Y-68740265D01*
X114607622Y-68787884D01*
X114655241Y-68835503D01*
X114702860Y-68930741D01*
X114702860Y-69216456D01*
X114655241Y-69311694D01*
X114607622Y-69359313D01*
X133602860Y-67964075D02*
X132602860Y-67964075D01*
X132602860Y-67725980D01*
X132650480Y-67583122D01*
X132745718Y-67487884D01*
X132840956Y-67440265D01*
X133031432Y-67392646D01*
X133174289Y-67392646D01*
X133364765Y-67440265D01*
X133460003Y-67487884D01*
X133555241Y-67583122D01*
X133602860Y-67725980D01*
X133602860Y-67964075D01*
X132936194Y-66535503D02*
X133602860Y-66535503D01*
X132555241Y-66773599D02*
X133269527Y-67011694D01*
X133269527Y-66392646D01*
X152502860Y-70264075D02*
X151502860Y-70264075D01*
X151502860Y-70025980D01*
X151550480Y-69883122D01*
X151645718Y-69787884D01*
X151740956Y-69740265D01*
X151931432Y-69692646D01*
X152074289Y-69692646D01*
X152264765Y-69740265D01*
X152360003Y-69787884D01*
X152455241Y-69883122D01*
X152502860Y-70025980D01*
X152502860Y-70264075D01*
X151502860Y-68787884D02*
X151502860Y-69264075D01*
X151979051Y-69311694D01*
X151931432Y-69264075D01*
X151883813Y-69168837D01*
X151883813Y-68930741D01*
X151931432Y-68835503D01*
X151979051Y-68787884D01*
X152074289Y-68740265D01*
X152312384Y-68740265D01*
X152407622Y-68787884D01*
X152455241Y-68835503D01*
X152502860Y-68930741D01*
X152502860Y-69168837D01*
X152455241Y-69264075D01*
X152407622Y-69311694D01*
X159602860Y-71113095D02*
X158602860Y-71113095D01*
X158602860Y-70875000D01*
X158650480Y-70732142D01*
X158745718Y-70636904D01*
X158840956Y-70589285D01*
X159031432Y-70541666D01*
X159174289Y-70541666D01*
X159364765Y-70589285D01*
X159460003Y-70636904D01*
X159555241Y-70732142D01*
X159602860Y-70875000D01*
X159602860Y-71113095D01*
X158602860Y-69684523D02*
X158602860Y-69875000D01*
X158650480Y-69970238D01*
X158698099Y-70017857D01*
X158840956Y-70113095D01*
X159031432Y-70160714D01*
X159412384Y-70160714D01*
X159507622Y-70113095D01*
X159555241Y-70065476D01*
X159602860Y-69970238D01*
X159602860Y-69779761D01*
X159555241Y-69684523D01*
X159507622Y-69636904D01*
X159412384Y-69589285D01*
X159174289Y-69589285D01*
X159079051Y-69636904D01*
X159031432Y-69684523D01*
X158983813Y-69779761D01*
X158983813Y-69970238D01*
X159031432Y-70065476D01*
X159079051Y-70113095D01*
X159174289Y-70160714D01*
X63302860Y-92264075D02*
X62302860Y-92264075D01*
X62302860Y-92025980D01*
X62350480Y-91883122D01*
X62445718Y-91787884D01*
X62540956Y-91740265D01*
X62731432Y-91692646D01*
X62874289Y-91692646D01*
X63064765Y-91740265D01*
X63160003Y-91787884D01*
X63255241Y-91883122D01*
X63302860Y-92025980D01*
X63302860Y-92264075D01*
X62302860Y-91359313D02*
X62302860Y-90692646D01*
X63302860Y-91121218D01*
X94902860Y-93864075D02*
X93902860Y-93864075D01*
X93902860Y-93625980D01*
X93950480Y-93483122D01*
X94045718Y-93387884D01*
X94140956Y-93340265D01*
X94331432Y-93292646D01*
X94474289Y-93292646D01*
X94664765Y-93340265D01*
X94760003Y-93387884D01*
X94855241Y-93483122D01*
X94902860Y-93625980D01*
X94902860Y-93864075D01*
X94331432Y-92721218D02*
X94283813Y-92816456D01*
X94236194Y-92864075D01*
X94140956Y-92911694D01*
X94093337Y-92911694D01*
X93998099Y-92864075D01*
X93950480Y-92816456D01*
X93902860Y-92721218D01*
X93902860Y-92530741D01*
X93950480Y-92435503D01*
X93998099Y-92387884D01*
X94093337Y-92340265D01*
X94140956Y-92340265D01*
X94236194Y-92387884D01*
X94283813Y-92435503D01*
X94331432Y-92530741D01*
X94331432Y-92721218D01*
X94379051Y-92816456D01*
X94426670Y-92864075D01*
X94521908Y-92911694D01*
X94712384Y-92911694D01*
X94807622Y-92864075D01*
X94855241Y-92816456D01*
X94902860Y-92721218D01*
X94902860Y-92530741D01*
X94855241Y-92435503D01*
X94807622Y-92387884D01*
X94712384Y-92340265D01*
X94521908Y-92340265D01*
X94426670Y-92387884D01*
X94379051Y-92435503D01*
X94331432Y-92530741D01*
X114702860Y-89764075D02*
X113702860Y-89764075D01*
X113702860Y-89525980D01*
X113750480Y-89383122D01*
X113845718Y-89287884D01*
X113940956Y-89240265D01*
X114131432Y-89192646D01*
X114274289Y-89192646D01*
X114464765Y-89240265D01*
X114560003Y-89287884D01*
X114655241Y-89383122D01*
X114702860Y-89525980D01*
X114702860Y-89764075D01*
X114702860Y-88716456D02*
X114702860Y-88525980D01*
X114655241Y-88430741D01*
X114607622Y-88383122D01*
X114464765Y-88287884D01*
X114274289Y-88240265D01*
X113893337Y-88240265D01*
X113798099Y-88287884D01*
X113750480Y-88335503D01*
X113702860Y-88430741D01*
X113702860Y-88621218D01*
X113750480Y-88716456D01*
X113798099Y-88764075D01*
X113893337Y-88811694D01*
X114131432Y-88811694D01*
X114226670Y-88764075D01*
X114274289Y-88716456D01*
X114321908Y-88621218D01*
X114321908Y-88430741D01*
X114274289Y-88335503D01*
X114226670Y-88287884D01*
X114131432Y-88240265D01*
X137502860Y-88240265D02*
X136502860Y-88240265D01*
X136502860Y-88002170D01*
X136550480Y-87859313D01*
X136645718Y-87764075D01*
X136740956Y-87716456D01*
X136931432Y-87668837D01*
X137074289Y-87668837D01*
X137264765Y-87716456D01*
X137360003Y-87764075D01*
X137455241Y-87859313D01*
X137502860Y-88002170D01*
X137502860Y-88240265D01*
X137502860Y-86716456D02*
X137502860Y-87287884D01*
X137502860Y-87002170D02*
X136502860Y-87002170D01*
X136645718Y-87097408D01*
X136740956Y-87192646D01*
X136788575Y-87287884D01*
X136502860Y-86097408D02*
X136502860Y-86002170D01*
X136550480Y-85906932D01*
X136598099Y-85859313D01*
X136693337Y-85811694D01*
X136883813Y-85764075D01*
X137121908Y-85764075D01*
X137312384Y-85811694D01*
X137407622Y-85859313D01*
X137455241Y-85906932D01*
X137502860Y-86002170D01*
X137502860Y-86097408D01*
X137455241Y-86192646D01*
X137407622Y-86240265D01*
X137312384Y-86287884D01*
X137121908Y-86335503D01*
X136883813Y-86335503D01*
X136693337Y-86287884D01*
X136598099Y-86240265D01*
X136550480Y-86192646D01*
X136502860Y-86097408D01*
X152952380Y-90589285D02*
X151952380Y-90589285D01*
X151952380Y-90351190D01*
X152000000Y-90208333D01*
X152095238Y-90113095D01*
X152190476Y-90065476D01*
X152380952Y-90017857D01*
X152523809Y-90017857D01*
X152714285Y-90065476D01*
X152809523Y-90113095D01*
X152904761Y-90208333D01*
X152952380Y-90351190D01*
X152952380Y-90589285D01*
X152952380Y-89065476D02*
X152952380Y-89636904D01*
X152952380Y-89351190D02*
X151952380Y-89351190D01*
X152095238Y-89446428D01*
X152190476Y-89541666D01*
X152238095Y-89636904D01*
X152952380Y-88113095D02*
X152952380Y-88684523D01*
X152952380Y-88398809D02*
X151952380Y-88398809D01*
X152095238Y-88494047D01*
X152190476Y-88589285D01*
X152238095Y-88684523D01*
X159602860Y-90589285D02*
X158602860Y-90589285D01*
X158602860Y-90351190D01*
X158650480Y-90208333D01*
X158745718Y-90113095D01*
X158840956Y-90065476D01*
X159031432Y-90017857D01*
X159174289Y-90017857D01*
X159364765Y-90065476D01*
X159460003Y-90113095D01*
X159555241Y-90208333D01*
X159602860Y-90351190D01*
X159602860Y-90589285D01*
X159602860Y-89065476D02*
X159602860Y-89636904D01*
X159602860Y-89351190D02*
X158602860Y-89351190D01*
X158745718Y-89446428D01*
X158840956Y-89541666D01*
X158888575Y-89636904D01*
X158698099Y-88684523D02*
X158650480Y-88636904D01*
X158602860Y-88541666D01*
X158602860Y-88303571D01*
X158650480Y-88208333D01*
X158698099Y-88160714D01*
X158793337Y-88113095D01*
X158888575Y-88113095D01*
X159031432Y-88160714D01*
X159602860Y-88732142D01*
X159602860Y-88113095D01*
X63402860Y-112340265D02*
X62402860Y-112340265D01*
X62402860Y-112102170D01*
X62450480Y-111959313D01*
X62545718Y-111864075D01*
X62640956Y-111816456D01*
X62831432Y-111768837D01*
X62974289Y-111768837D01*
X63164765Y-111816456D01*
X63260003Y-111864075D01*
X63355241Y-111959313D01*
X63402860Y-112102170D01*
X63402860Y-112340265D01*
X63402860Y-110816456D02*
X63402860Y-111387884D01*
X63402860Y-111102170D02*
X62402860Y-111102170D01*
X62545718Y-111197408D01*
X62640956Y-111292646D01*
X62688575Y-111387884D01*
X62402860Y-110483122D02*
X62402860Y-109864075D01*
X62783813Y-110197408D01*
X62783813Y-110054551D01*
X62831432Y-109959313D01*
X62879051Y-109911694D01*
X62974289Y-109864075D01*
X63212384Y-109864075D01*
X63307622Y-109911694D01*
X63355241Y-109959313D01*
X63402860Y-110054551D01*
X63402860Y-110340265D01*
X63355241Y-110435503D01*
X63307622Y-110483122D01*
X95502860Y-113640265D02*
X94502860Y-113640265D01*
X94502860Y-113402170D01*
X94550480Y-113259313D01*
X94645718Y-113164075D01*
X94740956Y-113116456D01*
X94931432Y-113068837D01*
X95074289Y-113068837D01*
X95264765Y-113116456D01*
X95360003Y-113164075D01*
X95455241Y-113259313D01*
X95502860Y-113402170D01*
X95502860Y-113640265D01*
X95502860Y-112116456D02*
X95502860Y-112687884D01*
X95502860Y-112402170D02*
X94502860Y-112402170D01*
X94645718Y-112497408D01*
X94740956Y-112592646D01*
X94788575Y-112687884D01*
X94836194Y-111259313D02*
X95502860Y-111259313D01*
X94455241Y-111497408D02*
X95169527Y-111735503D01*
X95169527Y-111116456D01*
X114602860Y-108240265D02*
X113602860Y-108240265D01*
X113602860Y-108002170D01*
X113650480Y-107859313D01*
X113745718Y-107764075D01*
X113840956Y-107716456D01*
X114031432Y-107668837D01*
X114174289Y-107668837D01*
X114364765Y-107716456D01*
X114460003Y-107764075D01*
X114555241Y-107859313D01*
X114602860Y-108002170D01*
X114602860Y-108240265D01*
X114602860Y-106716456D02*
X114602860Y-107287884D01*
X114602860Y-107002170D02*
X113602860Y-107002170D01*
X113745718Y-107097408D01*
X113840956Y-107192646D01*
X113888575Y-107287884D01*
X113602860Y-105811694D02*
X113602860Y-106287884D01*
X114079051Y-106335503D01*
X114031432Y-106287884D01*
X113983813Y-106192646D01*
X113983813Y-105954551D01*
X114031432Y-105859313D01*
X114079051Y-105811694D01*
X114174289Y-105764075D01*
X114412384Y-105764075D01*
X114507622Y-105811694D01*
X114555241Y-105859313D01*
X114602860Y-105954551D01*
X114602860Y-106192646D01*
X114555241Y-106287884D01*
X114507622Y-106335503D01*
X133952380Y-106340265D02*
X132952380Y-106340265D01*
X132952380Y-106102170D01*
X133000000Y-105959313D01*
X133095238Y-105864075D01*
X133190476Y-105816456D01*
X133380952Y-105768837D01*
X133523809Y-105768837D01*
X133714285Y-105816456D01*
X133809523Y-105864075D01*
X133904761Y-105959313D01*
X133952380Y-106102170D01*
X133952380Y-106340265D01*
X133952380Y-104816456D02*
X133952380Y-105387884D01*
X133952380Y-105102170D02*
X132952380Y-105102170D01*
X133095238Y-105197408D01*
X133190476Y-105292646D01*
X133238095Y-105387884D01*
X132952380Y-103959313D02*
X132952380Y-104149789D01*
X133000000Y-104245027D01*
X133047619Y-104292646D01*
X133190476Y-104387884D01*
X133380952Y-104435503D01*
X133761904Y-104435503D01*
X133857142Y-104387884D01*
X133904761Y-104340265D01*
X133952380Y-104245027D01*
X133952380Y-104054551D01*
X133904761Y-103959313D01*
X133857142Y-103911694D01*
X133761904Y-103864075D01*
X133523809Y-103864075D01*
X133428571Y-103911694D01*
X133380952Y-103959313D01*
X133333333Y-104054551D01*
X133333333Y-104245027D01*
X133380952Y-104340265D01*
X133428571Y-104387884D01*
X133523809Y-104435503D01*
X152952380Y-108640265D02*
X151952380Y-108640265D01*
X151952380Y-108402170D01*
X152000000Y-108259313D01*
X152095238Y-108164075D01*
X152190476Y-108116456D01*
X152380952Y-108068837D01*
X152523809Y-108068837D01*
X152714285Y-108116456D01*
X152809523Y-108164075D01*
X152904761Y-108259313D01*
X152952380Y-108402170D01*
X152952380Y-108640265D01*
X152952380Y-107116456D02*
X152952380Y-107687884D01*
X152952380Y-107402170D02*
X151952380Y-107402170D01*
X152095238Y-107497408D01*
X152190476Y-107592646D01*
X152238095Y-107687884D01*
X151952380Y-106783122D02*
X151952380Y-106116456D01*
X152952380Y-106545027D01*
X155952380Y-108640265D02*
X154952380Y-108640265D01*
X154952380Y-108402170D01*
X155000000Y-108259313D01*
X155095238Y-108164075D01*
X155190476Y-108116456D01*
X155380952Y-108068837D01*
X155523809Y-108068837D01*
X155714285Y-108116456D01*
X155809523Y-108164075D01*
X155904761Y-108259313D01*
X155952380Y-108402170D01*
X155952380Y-108640265D01*
X155952380Y-107116456D02*
X155952380Y-107687884D01*
X155952380Y-107402170D02*
X154952380Y-107402170D01*
X155095238Y-107497408D01*
X155190476Y-107592646D01*
X155238095Y-107687884D01*
X155380952Y-106545027D02*
X155333333Y-106640265D01*
X155285714Y-106687884D01*
X155190476Y-106735503D01*
X155142857Y-106735503D01*
X155047619Y-106687884D01*
X155000000Y-106640265D01*
X154952380Y-106545027D01*
X154952380Y-106354551D01*
X155000000Y-106259313D01*
X155047619Y-106211694D01*
X155142857Y-106164075D01*
X155190476Y-106164075D01*
X155285714Y-106211694D01*
X155333333Y-106259313D01*
X155380952Y-106354551D01*
X155380952Y-106545027D01*
X155428571Y-106640265D01*
X155476190Y-106687884D01*
X155571428Y-106735503D01*
X155761904Y-106735503D01*
X155857142Y-106687884D01*
X155904761Y-106640265D01*
X155952380Y-106545027D01*
X155952380Y-106354551D01*
X155904761Y-106259313D01*
X155857142Y-106211694D01*
X155761904Y-106164075D01*
X155571428Y-106164075D01*
X155476190Y-106211694D01*
X155428571Y-106259313D01*
X155380952Y-106354551D01*
X128102860Y-127040265D02*
X127102860Y-127040265D01*
X127102860Y-126802170D01*
X127150480Y-126659313D01*
X127245718Y-126564075D01*
X127340956Y-126516456D01*
X127531432Y-126468837D01*
X127674289Y-126468837D01*
X127864765Y-126516456D01*
X127960003Y-126564075D01*
X128055241Y-126659313D01*
X128102860Y-126802170D01*
X128102860Y-127040265D01*
X128102860Y-125516456D02*
X128102860Y-126087884D01*
X128102860Y-125802170D02*
X127102860Y-125802170D01*
X127245718Y-125897408D01*
X127340956Y-125992646D01*
X127388575Y-126087884D01*
X128102860Y-125040265D02*
X128102860Y-124849789D01*
X128055241Y-124754551D01*
X128007622Y-124706932D01*
X127864765Y-124611694D01*
X127674289Y-124564075D01*
X127293337Y-124564075D01*
X127198099Y-124611694D01*
X127150480Y-124659313D01*
X127102860Y-124754551D01*
X127102860Y-124945027D01*
X127150480Y-125040265D01*
X127198099Y-125087884D01*
X127293337Y-125135503D01*
X127531432Y-125135503D01*
X127626670Y-125087884D01*
X127674289Y-125040265D01*
X127721908Y-124945027D01*
X127721908Y-124754551D01*
X127674289Y-124659313D01*
X127626670Y-124611694D01*
X127531432Y-124564075D01*
X149702860Y-129140265D02*
X148702860Y-129140265D01*
X148702860Y-128902170D01*
X148750480Y-128759313D01*
X148845718Y-128664075D01*
X148940956Y-128616456D01*
X149131432Y-128568837D01*
X149274289Y-128568837D01*
X149464765Y-128616456D01*
X149560003Y-128664075D01*
X149655241Y-128759313D01*
X149702860Y-128902170D01*
X149702860Y-129140265D01*
X148798099Y-128187884D02*
X148750480Y-128140265D01*
X148702860Y-128045027D01*
X148702860Y-127806932D01*
X148750480Y-127711694D01*
X148798099Y-127664075D01*
X148893337Y-127616456D01*
X148988575Y-127616456D01*
X149131432Y-127664075D01*
X149702860Y-128235503D01*
X149702860Y-127616456D01*
X148702860Y-126997408D02*
X148702860Y-126902170D01*
X148750480Y-126806932D01*
X148798099Y-126759313D01*
X148893337Y-126711694D01*
X149083813Y-126664075D01*
X149321908Y-126664075D01*
X149512384Y-126711694D01*
X149607622Y-126759313D01*
X149655241Y-126806932D01*
X149702860Y-126902170D01*
X149702860Y-126997408D01*
X149655241Y-127092646D01*
X149607622Y-127140265D01*
X149512384Y-127187884D01*
X149321908Y-127235503D01*
X149083813Y-127235503D01*
X148893337Y-127187884D01*
X148798099Y-127140265D01*
X148750480Y-127092646D01*
X148702860Y-126997408D01*
X169402860Y-134340265D02*
X168402860Y-134340265D01*
X168402860Y-134102170D01*
X168450480Y-133959313D01*
X168545718Y-133864075D01*
X168640956Y-133816456D01*
X168831432Y-133768837D01*
X168974289Y-133768837D01*
X169164765Y-133816456D01*
X169260003Y-133864075D01*
X169355241Y-133959313D01*
X169402860Y-134102170D01*
X169402860Y-134340265D01*
X168498099Y-133387884D02*
X168450480Y-133340265D01*
X168402860Y-133245027D01*
X168402860Y-133006932D01*
X168450480Y-132911694D01*
X168498099Y-132864075D01*
X168593337Y-132816456D01*
X168688575Y-132816456D01*
X168831432Y-132864075D01*
X169402860Y-133435503D01*
X169402860Y-132816456D01*
X169402860Y-131864075D02*
X169402860Y-132435503D01*
X169402860Y-132149789D02*
X168402860Y-132149789D01*
X168545718Y-132245027D01*
X168640956Y-132340265D01*
X168688575Y-132435503D01*
D10*
X199460860Y-90001837D02*
X199437051Y-90037551D01*
X199365622Y-90073265D01*
X199318003Y-90073265D01*
X199246575Y-90037551D01*
X199198956Y-89966122D01*
X199175146Y-89894694D01*
X199151337Y-89751837D01*
X199151337Y-89644694D01*
X199175146Y-89501837D01*
X199198956Y-89430408D01*
X199246575Y-89358980D01*
X199318003Y-89323265D01*
X199365622Y-89323265D01*
X199437051Y-89358980D01*
X199460860Y-89394694D01*
X199770384Y-89323265D02*
X199865622Y-89323265D01*
X199913241Y-89358980D01*
X199960860Y-89430408D01*
X199984670Y-89573265D01*
X199984670Y-89823265D01*
X199960860Y-89966122D01*
X199913241Y-90037551D01*
X199865622Y-90073265D01*
X199770384Y-90073265D01*
X199722765Y-90037551D01*
X199675146Y-89966122D01*
X199651337Y-89823265D01*
X199651337Y-89573265D01*
X199675146Y-89430408D01*
X199722765Y-89358980D01*
X199770384Y-89323265D01*
X200437051Y-90073265D02*
X200198956Y-90073265D01*
X200198956Y-89323265D01*
X200556099Y-89323265D02*
X200865622Y-89323265D01*
X200698956Y-89608980D01*
X200770384Y-89608980D01*
X200818003Y-89644694D01*
X200841813Y-89680408D01*
X200865622Y-89751837D01*
X200865622Y-89930408D01*
X200841813Y-90001837D01*
X200818003Y-90037551D01*
X200770384Y-90073265D01*
X200627527Y-90073265D01*
X200579908Y-90037551D01*
X200556099Y-90001837D01*
X199610860Y-84873837D02*
X199587051Y-84909551D01*
X199515622Y-84945265D01*
X199468003Y-84945265D01*
X199396575Y-84909551D01*
X199348956Y-84838122D01*
X199325146Y-84766694D01*
X199301337Y-84623837D01*
X199301337Y-84516694D01*
X199325146Y-84373837D01*
X199348956Y-84302408D01*
X199396575Y-84230980D01*
X199468003Y-84195265D01*
X199515622Y-84195265D01*
X199587051Y-84230980D01*
X199610860Y-84266694D01*
X199920384Y-84195265D02*
X200015622Y-84195265D01*
X200063241Y-84230980D01*
X200110860Y-84302408D01*
X200134670Y-84445265D01*
X200134670Y-84695265D01*
X200110860Y-84838122D01*
X200063241Y-84909551D01*
X200015622Y-84945265D01*
X199920384Y-84945265D01*
X199872765Y-84909551D01*
X199825146Y-84838122D01*
X199801337Y-84695265D01*
X199801337Y-84445265D01*
X199825146Y-84302408D01*
X199872765Y-84230980D01*
X199920384Y-84195265D01*
X200587051Y-84945265D02*
X200348956Y-84945265D01*
X200348956Y-84195265D01*
X201015622Y-84945265D02*
X200729908Y-84945265D01*
X200872765Y-84945265D02*
X200872765Y-84195265D01*
X200825146Y-84302408D01*
X200777527Y-84373837D01*
X200729908Y-84409551D01*
X199626313Y-79115265D02*
X199792980Y-79865265D01*
X199959646Y-79115265D01*
X200412027Y-79793837D02*
X200388218Y-79829551D01*
X200316789Y-79865265D01*
X200269170Y-79865265D01*
X200197741Y-79829551D01*
X200150122Y-79758122D01*
X200126313Y-79686694D01*
X200102503Y-79543837D01*
X200102503Y-79436694D01*
X200126313Y-79293837D01*
X200150122Y-79222408D01*
X200197741Y-79150980D01*
X200269170Y-79115265D01*
X200316789Y-79115265D01*
X200388218Y-79150980D01*
X200412027Y-79186694D01*
X200912027Y-79793837D02*
X200888218Y-79829551D01*
X200816789Y-79865265D01*
X200769170Y-79865265D01*
X200697741Y-79829551D01*
X200650122Y-79758122D01*
X200626313Y-79686694D01*
X200602503Y-79543837D01*
X200602503Y-79436694D01*
X200626313Y-79293837D01*
X200650122Y-79222408D01*
X200697741Y-79150980D01*
X200769170Y-79115265D01*
X200816789Y-79115265D01*
X200888218Y-79150980D01*
X200912027Y-79186694D01*
X199912027Y-74070980D02*
X199864408Y-74035265D01*
X199792980Y-74035265D01*
X199721551Y-74070980D01*
X199673932Y-74142408D01*
X199650122Y-74213837D01*
X199626313Y-74356694D01*
X199626313Y-74463837D01*
X199650122Y-74606694D01*
X199673932Y-74678122D01*
X199721551Y-74749551D01*
X199792980Y-74785265D01*
X199840599Y-74785265D01*
X199912027Y-74749551D01*
X199935837Y-74713837D01*
X199935837Y-74463837D01*
X199840599Y-74463837D01*
X200150122Y-74785265D02*
X200150122Y-74035265D01*
X200435837Y-74785265D01*
X200435837Y-74035265D01*
X200673932Y-74785265D02*
X200673932Y-74035265D01*
X200792980Y-74035265D01*
X200864408Y-74070980D01*
X200912027Y-74142408D01*
X200935837Y-74213837D01*
X200959646Y-74356694D01*
X200959646Y-74463837D01*
X200935837Y-74606694D01*
X200912027Y-74678122D01*
X200864408Y-74749551D01*
X200792980Y-74785265D01*
X200673932Y-74785265D01*
X215006099Y-97252408D02*
X215077527Y-97288122D01*
X215101337Y-97323837D01*
X215125146Y-97395265D01*
X215125146Y-97502408D01*
X215101337Y-97573837D01*
X215077527Y-97609551D01*
X215029908Y-97645265D01*
X214839432Y-97645265D01*
X214839432Y-96895265D01*
X215006099Y-96895265D01*
X215053718Y-96930980D01*
X215077527Y-96966694D01*
X215101337Y-97038122D01*
X215101337Y-97109551D01*
X215077527Y-97180980D01*
X215053718Y-97216694D01*
X215006099Y-97252408D01*
X214839432Y-97252408D01*
X215553718Y-97145265D02*
X215553718Y-97645265D01*
X215434670Y-96859551D02*
X215315622Y-97395265D01*
X215625146Y-97395265D01*
X214862337Y-82369551D02*
X214933765Y-82405265D01*
X215052813Y-82405265D01*
X215100432Y-82369551D01*
X215124241Y-82333837D01*
X215148051Y-82262408D01*
X215148051Y-82190980D01*
X215124241Y-82119551D01*
X215100432Y-82083837D01*
X215052813Y-82048122D01*
X214957575Y-82012408D01*
X214909956Y-81976694D01*
X214886146Y-81940980D01*
X214862337Y-81869551D01*
X214862337Y-81798122D01*
X214886146Y-81726694D01*
X214909956Y-81690980D01*
X214957575Y-81655265D01*
X215076622Y-81655265D01*
X215148051Y-81690980D01*
X215362337Y-82405265D02*
X215362337Y-81655265D01*
X215481384Y-81655265D01*
X215552813Y-81690980D01*
X215600432Y-81762408D01*
X215624241Y-81833837D01*
X215648051Y-81976694D01*
X215648051Y-82083837D01*
X215624241Y-82226694D01*
X215600432Y-82298122D01*
X215552813Y-82369551D01*
X215481384Y-82405265D01*
X215362337Y-82405265D01*
X215838527Y-82190980D02*
X216076622Y-82190980D01*
X215790908Y-82405265D02*
X215957575Y-81655265D01*
X216124241Y-82405265D01*
X199560860Y-82351837D02*
X199537051Y-82387551D01*
X199465622Y-82423265D01*
X199418003Y-82423265D01*
X199346575Y-82387551D01*
X199298956Y-82316122D01*
X199275146Y-82244694D01*
X199251337Y-82101837D01*
X199251337Y-81994694D01*
X199275146Y-81851837D01*
X199298956Y-81780408D01*
X199346575Y-81708980D01*
X199418003Y-81673265D01*
X199465622Y-81673265D01*
X199537051Y-81708980D01*
X199560860Y-81744694D01*
X199870384Y-81673265D02*
X199965622Y-81673265D01*
X200013241Y-81708980D01*
X200060860Y-81780408D01*
X200084670Y-81923265D01*
X200084670Y-82173265D01*
X200060860Y-82316122D01*
X200013241Y-82387551D01*
X199965622Y-82423265D01*
X199870384Y-82423265D01*
X199822765Y-82387551D01*
X199775146Y-82316122D01*
X199751337Y-82173265D01*
X199751337Y-81923265D01*
X199775146Y-81780408D01*
X199822765Y-81708980D01*
X199870384Y-81673265D01*
X200537051Y-82423265D02*
X200298956Y-82423265D01*
X200298956Y-81673265D01*
X200798956Y-81673265D02*
X200846575Y-81673265D01*
X200894194Y-81708980D01*
X200918003Y-81744694D01*
X200941813Y-81816122D01*
X200965622Y-81958980D01*
X200965622Y-82137551D01*
X200941813Y-82280408D01*
X200918003Y-82351837D01*
X200894194Y-82387551D01*
X200846575Y-82423265D01*
X200798956Y-82423265D01*
X200751337Y-82387551D01*
X200727527Y-82351837D01*
X200703718Y-82280408D01*
X200679908Y-82137551D01*
X200679908Y-81958980D01*
X200703718Y-81816122D01*
X200727527Y-81744694D01*
X200751337Y-81708980D01*
X200798956Y-81673265D01*
X200019170Y-77388765D02*
X199852503Y-77031622D01*
X199733456Y-77388765D02*
X199733456Y-76638765D01*
X199923932Y-76638765D01*
X199971551Y-76674480D01*
X199995360Y-76710194D01*
X200019170Y-76781622D01*
X200019170Y-76888765D01*
X199995360Y-76960194D01*
X199971551Y-76995908D01*
X199923932Y-77031622D01*
X199733456Y-77031622D01*
X200209646Y-77353051D02*
X200281075Y-77388765D01*
X200400122Y-77388765D01*
X200447741Y-77353051D01*
X200471551Y-77317337D01*
X200495360Y-77245908D01*
X200495360Y-77174480D01*
X200471551Y-77103051D01*
X200447741Y-77067337D01*
X200400122Y-77031622D01*
X200304884Y-76995908D01*
X200257265Y-76960194D01*
X200233456Y-76924480D01*
X200209646Y-76853051D01*
X200209646Y-76781622D01*
X200233456Y-76710194D01*
X200257265Y-76674480D01*
X200304884Y-76638765D01*
X200423932Y-76638765D01*
X200495360Y-76674480D01*
X200638218Y-76638765D02*
X200923932Y-76638765D01*
X200781075Y-77388765D02*
X200781075Y-76638765D01*
X214608480Y-74773265D02*
X214608480Y-74023265D01*
X214727527Y-74023265D01*
X214798956Y-74058980D01*
X214846575Y-74130408D01*
X214870384Y-74201837D01*
X214894194Y-74344694D01*
X214894194Y-74451837D01*
X214870384Y-74594694D01*
X214846575Y-74666122D01*
X214798956Y-74737551D01*
X214727527Y-74773265D01*
X214608480Y-74773265D01*
X215084670Y-74558980D02*
X215322765Y-74558980D01*
X215037051Y-74773265D02*
X215203718Y-74023265D01*
X215370384Y-74773265D01*
X215465622Y-74023265D02*
X215751337Y-74023265D01*
X215608480Y-74773265D02*
X215608480Y-74023265D01*
X215894194Y-74558980D02*
X216132289Y-74558980D01*
X215846575Y-74773265D02*
X216013241Y-74023265D01*
X216179908Y-74773265D01*
X215187051Y-72245265D02*
X214948956Y-72245265D01*
X214948956Y-71495265D01*
X215353718Y-71852408D02*
X215520384Y-71852408D01*
X215591813Y-72245265D02*
X215353718Y-72245265D01*
X215353718Y-71495265D01*
X215591813Y-71495265D01*
X215806099Y-72245265D02*
X215806099Y-71495265D01*
X215925146Y-71495265D01*
X215996575Y-71530980D01*
X216044194Y-71602408D01*
X216068003Y-71673837D01*
X216091813Y-71816694D01*
X216091813Y-71923837D01*
X216068003Y-72066694D01*
X216044194Y-72138122D01*
X215996575Y-72209551D01*
X215925146Y-72245265D01*
X215806099Y-72245265D01*
X199947741Y-72245265D02*
X199781075Y-71888122D01*
X199662027Y-72245265D02*
X199662027Y-71495265D01*
X199852503Y-71495265D01*
X199900122Y-71530980D01*
X199923932Y-71566694D01*
X199947741Y-71638122D01*
X199947741Y-71745265D01*
X199923932Y-71816694D01*
X199900122Y-71852408D01*
X199852503Y-71888122D01*
X199662027Y-71888122D01*
X200138218Y-72030980D02*
X200376313Y-72030980D01*
X200090599Y-72245265D02*
X200257265Y-71495265D01*
X200423932Y-72245265D01*
X200542980Y-71495265D02*
X200662027Y-72245265D01*
X200757265Y-71709551D01*
X200852503Y-72245265D01*
X200971551Y-71495265D01*
X214577527Y-95168765D02*
X214410860Y-94811622D01*
X214291813Y-95168765D02*
X214291813Y-94418765D01*
X214482289Y-94418765D01*
X214529908Y-94454480D01*
X214553718Y-94490194D01*
X214577527Y-94561622D01*
X214577527Y-94668765D01*
X214553718Y-94740194D01*
X214529908Y-94775908D01*
X214482289Y-94811622D01*
X214291813Y-94811622D01*
X214887051Y-94418765D02*
X214982289Y-94418765D01*
X215029908Y-94454480D01*
X215077527Y-94525908D01*
X215101337Y-94668765D01*
X215101337Y-94918765D01*
X215077527Y-95061622D01*
X215029908Y-95133051D01*
X214982289Y-95168765D01*
X214887051Y-95168765D01*
X214839432Y-95133051D01*
X214791813Y-95061622D01*
X214768003Y-94918765D01*
X214768003Y-94668765D01*
X214791813Y-94525908D01*
X214839432Y-94454480D01*
X214887051Y-94418765D01*
X215268003Y-94418765D02*
X215387051Y-95168765D01*
X215482289Y-94633051D01*
X215577527Y-95168765D01*
X215696575Y-94418765D01*
X215839432Y-94418765D02*
X216148956Y-94418765D01*
X215982289Y-94704480D01*
X216053718Y-94704480D01*
X216101337Y-94740194D01*
X216125146Y-94775908D01*
X216148956Y-94847337D01*
X216148956Y-95025908D01*
X216125146Y-95097337D01*
X216101337Y-95133051D01*
X216053718Y-95168765D01*
X215910860Y-95168765D01*
X215863241Y-95133051D01*
X215839432Y-95097337D01*
X199510860Y-92501837D02*
X199487051Y-92537551D01*
X199415622Y-92573265D01*
X199368003Y-92573265D01*
X199296575Y-92537551D01*
X199248956Y-92466122D01*
X199225146Y-92394694D01*
X199201337Y-92251837D01*
X199201337Y-92144694D01*
X199225146Y-92001837D01*
X199248956Y-91930408D01*
X199296575Y-91858980D01*
X199368003Y-91823265D01*
X199415622Y-91823265D01*
X199487051Y-91858980D01*
X199510860Y-91894694D01*
X199820384Y-91823265D02*
X199915622Y-91823265D01*
X199963241Y-91858980D01*
X200010860Y-91930408D01*
X200034670Y-92073265D01*
X200034670Y-92323265D01*
X200010860Y-92466122D01*
X199963241Y-92537551D01*
X199915622Y-92573265D01*
X199820384Y-92573265D01*
X199772765Y-92537551D01*
X199725146Y-92466122D01*
X199701337Y-92323265D01*
X199701337Y-92073265D01*
X199725146Y-91930408D01*
X199772765Y-91858980D01*
X199820384Y-91823265D01*
X200487051Y-92573265D02*
X200248956Y-92573265D01*
X200248956Y-91823265D01*
X200868003Y-92073265D02*
X200868003Y-92573265D01*
X200748956Y-91787551D02*
X200629908Y-92323265D01*
X200939432Y-92323265D01*
X215006099Y-99855908D02*
X215077527Y-99891622D01*
X215101337Y-99927337D01*
X215125146Y-99998765D01*
X215125146Y-100105908D01*
X215101337Y-100177337D01*
X215077527Y-100213051D01*
X215029908Y-100248765D01*
X214839432Y-100248765D01*
X214839432Y-99498765D01*
X215006099Y-99498765D01*
X215053718Y-99534480D01*
X215077527Y-99570194D01*
X215101337Y-99641622D01*
X215101337Y-99713051D01*
X215077527Y-99784480D01*
X215053718Y-99820194D01*
X215006099Y-99855908D01*
X214839432Y-99855908D01*
X215577527Y-99498765D02*
X215339432Y-99498765D01*
X215315622Y-99855908D01*
X215339432Y-99820194D01*
X215387051Y-99784480D01*
X215506099Y-99784480D01*
X215553718Y-99820194D01*
X215577527Y-99855908D01*
X215601337Y-99927337D01*
X215601337Y-100105908D01*
X215577527Y-100177337D01*
X215553718Y-100213051D01*
X215506099Y-100248765D01*
X215387051Y-100248765D01*
X215339432Y-100213051D01*
X215315622Y-100177337D01*
X214627527Y-90025265D02*
X214460860Y-89668122D01*
X214341813Y-90025265D02*
X214341813Y-89275265D01*
X214532289Y-89275265D01*
X214579908Y-89310980D01*
X214603718Y-89346694D01*
X214627527Y-89418122D01*
X214627527Y-89525265D01*
X214603718Y-89596694D01*
X214579908Y-89632408D01*
X214532289Y-89668122D01*
X214341813Y-89668122D01*
X214937051Y-89275265D02*
X215032289Y-89275265D01*
X215079908Y-89310980D01*
X215127527Y-89382408D01*
X215151337Y-89525265D01*
X215151337Y-89775265D01*
X215127527Y-89918122D01*
X215079908Y-89989551D01*
X215032289Y-90025265D01*
X214937051Y-90025265D01*
X214889432Y-89989551D01*
X214841813Y-89918122D01*
X214818003Y-89775265D01*
X214818003Y-89525265D01*
X214841813Y-89382408D01*
X214889432Y-89310980D01*
X214937051Y-89275265D01*
X215318003Y-89275265D02*
X215437051Y-90025265D01*
X215532289Y-89489551D01*
X215627527Y-90025265D01*
X215746575Y-89275265D01*
X216198956Y-90025265D02*
X215913241Y-90025265D01*
X216056099Y-90025265D02*
X216056099Y-89275265D01*
X216008480Y-89382408D01*
X215960860Y-89453837D01*
X215913241Y-89489551D01*
X214577527Y-87523265D02*
X214410860Y-87166122D01*
X214291813Y-87523265D02*
X214291813Y-86773265D01*
X214482289Y-86773265D01*
X214529908Y-86808980D01*
X214553718Y-86844694D01*
X214577527Y-86916122D01*
X214577527Y-87023265D01*
X214553718Y-87094694D01*
X214529908Y-87130408D01*
X214482289Y-87166122D01*
X214291813Y-87166122D01*
X214887051Y-86773265D02*
X214982289Y-86773265D01*
X215029908Y-86808980D01*
X215077527Y-86880408D01*
X215101337Y-87023265D01*
X215101337Y-87273265D01*
X215077527Y-87416122D01*
X215029908Y-87487551D01*
X214982289Y-87523265D01*
X214887051Y-87523265D01*
X214839432Y-87487551D01*
X214791813Y-87416122D01*
X214768003Y-87273265D01*
X214768003Y-87023265D01*
X214791813Y-86880408D01*
X214839432Y-86808980D01*
X214887051Y-86773265D01*
X215268003Y-86773265D02*
X215387051Y-87523265D01*
X215482289Y-86987551D01*
X215577527Y-87523265D01*
X215696575Y-86773265D01*
X215982289Y-86773265D02*
X216029908Y-86773265D01*
X216077527Y-86808980D01*
X216101337Y-86844694D01*
X216125146Y-86916122D01*
X216148956Y-87058980D01*
X216148956Y-87237551D01*
X216125146Y-87380408D01*
X216101337Y-87451837D01*
X216077527Y-87487551D01*
X216029908Y-87523265D01*
X215982289Y-87523265D01*
X215934670Y-87487551D01*
X215910860Y-87451837D01*
X215887051Y-87380408D01*
X215863241Y-87237551D01*
X215863241Y-87058980D01*
X215887051Y-86916122D01*
X215910860Y-86844694D01*
X215934670Y-86808980D01*
X215982289Y-86773265D01*
X214874241Y-84909551D02*
X214945670Y-84945265D01*
X215064718Y-84945265D01*
X215112337Y-84909551D01*
X215136146Y-84873837D01*
X215159956Y-84802408D01*
X215159956Y-84730980D01*
X215136146Y-84659551D01*
X215112337Y-84623837D01*
X215064718Y-84588122D01*
X214969480Y-84552408D01*
X214921860Y-84516694D01*
X214898051Y-84480980D01*
X214874241Y-84409551D01*
X214874241Y-84338122D01*
X214898051Y-84266694D01*
X214921860Y-84230980D01*
X214969480Y-84195265D01*
X215088527Y-84195265D01*
X215159956Y-84230980D01*
X215659956Y-84873837D02*
X215636146Y-84909551D01*
X215564718Y-84945265D01*
X215517099Y-84945265D01*
X215445670Y-84909551D01*
X215398051Y-84838122D01*
X215374241Y-84766694D01*
X215350432Y-84623837D01*
X215350432Y-84516694D01*
X215374241Y-84373837D01*
X215398051Y-84302408D01*
X215445670Y-84230980D01*
X215517099Y-84195265D01*
X215564718Y-84195265D01*
X215636146Y-84230980D01*
X215659956Y-84266694D01*
X216112337Y-84945265D02*
X215874241Y-84945265D01*
X215874241Y-84195265D01*
X198002860Y-94993837D02*
X197979051Y-95029551D01*
X197907622Y-95065265D01*
X197860003Y-95065265D01*
X197788575Y-95029551D01*
X197740956Y-94958122D01*
X197717146Y-94886694D01*
X197693337Y-94743837D01*
X197693337Y-94636694D01*
X197717146Y-94493837D01*
X197740956Y-94422408D01*
X197788575Y-94350980D01*
X197860003Y-94315265D01*
X197907622Y-94315265D01*
X197979051Y-94350980D01*
X198002860Y-94386694D01*
X198312384Y-94315265D02*
X198407622Y-94315265D01*
X198455241Y-94350980D01*
X198502860Y-94422408D01*
X198526670Y-94565265D01*
X198526670Y-94815265D01*
X198502860Y-94958122D01*
X198455241Y-95029551D01*
X198407622Y-95065265D01*
X198312384Y-95065265D01*
X198264765Y-95029551D01*
X198217146Y-94958122D01*
X198193337Y-94815265D01*
X198193337Y-94565265D01*
X198217146Y-94422408D01*
X198264765Y-94350980D01*
X198312384Y-94315265D01*
X198979051Y-95065265D02*
X198740956Y-95065265D01*
X198740956Y-94315265D01*
X199383813Y-94315265D02*
X199145718Y-94315265D01*
X199121908Y-94672408D01*
X199145718Y-94636694D01*
X199193337Y-94600980D01*
X199312384Y-94600980D01*
X199360003Y-94636694D01*
X199383813Y-94672408D01*
X199407622Y-94743837D01*
X199407622Y-94922408D01*
X199383813Y-94993837D01*
X199360003Y-95029551D01*
X199312384Y-95065265D01*
X199193337Y-95065265D01*
X199145718Y-95029551D01*
X199121908Y-94993837D01*
X215088527Y-79214480D02*
X215040908Y-79178765D01*
X214969480Y-79178765D01*
X214898051Y-79214480D01*
X214850432Y-79285908D01*
X214826622Y-79357337D01*
X214802813Y-79500194D01*
X214802813Y-79607337D01*
X214826622Y-79750194D01*
X214850432Y-79821622D01*
X214898051Y-79893051D01*
X214969480Y-79928765D01*
X215017099Y-79928765D01*
X215088527Y-79893051D01*
X215112337Y-79857337D01*
X215112337Y-79607337D01*
X215017099Y-79607337D01*
X215326622Y-79928765D02*
X215326622Y-79178765D01*
X215612337Y-79928765D01*
X215612337Y-79178765D01*
X215850432Y-79928765D02*
X215850432Y-79178765D01*
X215969480Y-79178765D01*
X216040908Y-79214480D01*
X216088527Y-79285908D01*
X216112337Y-79357337D01*
X216136146Y-79500194D01*
X216136146Y-79607337D01*
X216112337Y-79750194D01*
X216088527Y-79821622D01*
X216040908Y-79893051D01*
X215969480Y-79928765D01*
X215850432Y-79928765D01*
X199856099Y-97280408D02*
X199927527Y-97316122D01*
X199951337Y-97351837D01*
X199975146Y-97423265D01*
X199975146Y-97530408D01*
X199951337Y-97601837D01*
X199927527Y-97637551D01*
X199879908Y-97673265D01*
X199689432Y-97673265D01*
X199689432Y-96923265D01*
X199856099Y-96923265D01*
X199903718Y-96958980D01*
X199927527Y-96994694D01*
X199951337Y-97066122D01*
X199951337Y-97137551D01*
X199927527Y-97208980D01*
X199903718Y-97244694D01*
X199856099Y-97280408D01*
X199689432Y-97280408D01*
X200165622Y-96994694D02*
X200189432Y-96958980D01*
X200237051Y-96923265D01*
X200356099Y-96923265D01*
X200403718Y-96958980D01*
X200427527Y-96994694D01*
X200451337Y-97066122D01*
X200451337Y-97137551D01*
X200427527Y-97244694D01*
X200141813Y-97673265D01*
X200451337Y-97673265D01*
X214577527Y-92573265D02*
X214410860Y-92216122D01*
X214291813Y-92573265D02*
X214291813Y-91823265D01*
X214482289Y-91823265D01*
X214529908Y-91858980D01*
X214553718Y-91894694D01*
X214577527Y-91966122D01*
X214577527Y-92073265D01*
X214553718Y-92144694D01*
X214529908Y-92180408D01*
X214482289Y-92216122D01*
X214291813Y-92216122D01*
X214887051Y-91823265D02*
X214982289Y-91823265D01*
X215029908Y-91858980D01*
X215077527Y-91930408D01*
X215101337Y-92073265D01*
X215101337Y-92323265D01*
X215077527Y-92466122D01*
X215029908Y-92537551D01*
X214982289Y-92573265D01*
X214887051Y-92573265D01*
X214839432Y-92537551D01*
X214791813Y-92466122D01*
X214768003Y-92323265D01*
X214768003Y-92073265D01*
X214791813Y-91930408D01*
X214839432Y-91858980D01*
X214887051Y-91823265D01*
X215268003Y-91823265D02*
X215387051Y-92573265D01*
X215482289Y-92037551D01*
X215577527Y-92573265D01*
X215696575Y-91823265D01*
X215863241Y-91894694D02*
X215887051Y-91858980D01*
X215934670Y-91823265D01*
X216053718Y-91823265D01*
X216101337Y-91858980D01*
X216125146Y-91894694D01*
X216148956Y-91966122D01*
X216148956Y-92037551D01*
X216125146Y-92144694D01*
X215839432Y-92573265D01*
X216148956Y-92573265D01*
X215152027Y-76674480D02*
X215104408Y-76638765D01*
X215032980Y-76638765D01*
X214961551Y-76674480D01*
X214913932Y-76745908D01*
X214890122Y-76817337D01*
X214866313Y-76960194D01*
X214866313Y-77067337D01*
X214890122Y-77210194D01*
X214913932Y-77281622D01*
X214961551Y-77353051D01*
X215032980Y-77388765D01*
X215080599Y-77388765D01*
X215152027Y-77353051D01*
X215175837Y-77317337D01*
X215175837Y-77067337D01*
X215080599Y-77067337D01*
X215390122Y-77388765D02*
X215390122Y-76638765D01*
X215675837Y-77388765D01*
X215675837Y-76638765D01*
X215913932Y-77388765D02*
X215913932Y-76638765D01*
X216032980Y-76638765D01*
X216104408Y-76674480D01*
X216152027Y-76745908D01*
X216175837Y-76817337D01*
X216199646Y-76960194D01*
X216199646Y-77067337D01*
X216175837Y-77210194D01*
X216152027Y-77281622D01*
X216104408Y-77353051D01*
X216032980Y-77388765D01*
X215913932Y-77388765D01*
X199756099Y-99830408D02*
X199827527Y-99866122D01*
X199851337Y-99901837D01*
X199875146Y-99973265D01*
X199875146Y-100080408D01*
X199851337Y-100151837D01*
X199827527Y-100187551D01*
X199779908Y-100223265D01*
X199589432Y-100223265D01*
X199589432Y-99473265D01*
X199756099Y-99473265D01*
X199803718Y-99508980D01*
X199827527Y-99544694D01*
X199851337Y-99616122D01*
X199851337Y-99687551D01*
X199827527Y-99758980D01*
X199803718Y-99794694D01*
X199756099Y-99830408D01*
X199589432Y-99830408D01*
X200303718Y-99473265D02*
X200208480Y-99473265D01*
X200160860Y-99508980D01*
X200137051Y-99544694D01*
X200089432Y-99651837D01*
X200065622Y-99794694D01*
X200065622Y-100080408D01*
X200089432Y-100151837D01*
X200113241Y-100187551D01*
X200160860Y-100223265D01*
X200256099Y-100223265D01*
X200303718Y-100187551D01*
X200327527Y-100151837D01*
X200351337Y-100080408D01*
X200351337Y-99901837D01*
X200327527Y-99830408D01*
X200303718Y-99794694D01*
X200256099Y-99758980D01*
X200160860Y-99758980D01*
X200113241Y-99794694D01*
X200089432Y-99830408D01*
X200065622Y-99901837D01*
X199560860Y-87413837D02*
X199537051Y-87449551D01*
X199465622Y-87485265D01*
X199418003Y-87485265D01*
X199346575Y-87449551D01*
X199298956Y-87378122D01*
X199275146Y-87306694D01*
X199251337Y-87163837D01*
X199251337Y-87056694D01*
X199275146Y-86913837D01*
X199298956Y-86842408D01*
X199346575Y-86770980D01*
X199418003Y-86735265D01*
X199465622Y-86735265D01*
X199537051Y-86770980D01*
X199560860Y-86806694D01*
X199870384Y-86735265D02*
X199965622Y-86735265D01*
X200013241Y-86770980D01*
X200060860Y-86842408D01*
X200084670Y-86985265D01*
X200084670Y-87235265D01*
X200060860Y-87378122D01*
X200013241Y-87449551D01*
X199965622Y-87485265D01*
X199870384Y-87485265D01*
X199822765Y-87449551D01*
X199775146Y-87378122D01*
X199751337Y-87235265D01*
X199751337Y-86985265D01*
X199775146Y-86842408D01*
X199822765Y-86770980D01*
X199870384Y-86735265D01*
X200537051Y-87485265D02*
X200298956Y-87485265D01*
X200298956Y-86735265D01*
X200679908Y-86806694D02*
X200703718Y-86770980D01*
X200751337Y-86735265D01*
X200870384Y-86735265D01*
X200918003Y-86770980D01*
X200941813Y-86806694D01*
X200965622Y-86878122D01*
X200965622Y-86949551D01*
X200941813Y-87056694D01*
X200656099Y-87485265D01*
X200965622Y-87485265D01*
D13*
X200073146Y-109380875D02*
X200073146Y-109961446D01*
X200034441Y-110077560D01*
X199957032Y-110154970D01*
X199840918Y-110193675D01*
X199763508Y-110193675D01*
X200460194Y-110193675D02*
X200460194Y-109380875D01*
X200769832Y-109380875D01*
X200847241Y-109419580D01*
X200885946Y-109458284D01*
X200924651Y-109535694D01*
X200924651Y-109651808D01*
X200885946Y-109729218D01*
X200847241Y-109767922D01*
X200769832Y-109806627D01*
X200460194Y-109806627D01*
X201698746Y-110193675D02*
X201234289Y-110193675D01*
X201466518Y-110193675D02*
X201466518Y-109380875D01*
X201389108Y-109496989D01*
X201311699Y-109574399D01*
X201234289Y-109613103D01*
D12*
X208987546Y-102988875D02*
X208987546Y-103569446D01*
X208948841Y-103685560D01*
X208871432Y-103762970D01*
X208755318Y-103801675D01*
X208677908Y-103801675D01*
X209335889Y-103066284D02*
X209374594Y-103027580D01*
X209452003Y-102988875D01*
X209645527Y-102988875D01*
X209722937Y-103027580D01*
X209761641Y-103066284D01*
X209800346Y-103143694D01*
X209800346Y-103221103D01*
X209761641Y-103337218D01*
X209297184Y-103801675D01*
X209800346Y-103801675D01*
X214889360Y-120920313D02*
X215603646Y-120920313D01*
X215746503Y-120967932D01*
X215841741Y-121063170D01*
X215889360Y-121206027D01*
X215889360Y-121301265D01*
X215889360Y-119920313D02*
X215889360Y-120491741D01*
X215889360Y-120206027D02*
X214889360Y-120206027D01*
X215032218Y-120301265D01*
X215127456Y-120396503D01*
X215175075Y-120491741D01*
X217563241Y-110395884D02*
X217610860Y-110253027D01*
X217610860Y-110014932D01*
X217563241Y-109919694D01*
X217515622Y-109872075D01*
X217420384Y-109824456D01*
X217325146Y-109824456D01*
X217229908Y-109872075D01*
X217182289Y-109919694D01*
X217134670Y-110014932D01*
X217087051Y-110205408D01*
X217039432Y-110300646D01*
X216991813Y-110348265D01*
X216896575Y-110395884D01*
X216801337Y-110395884D01*
X216706099Y-110348265D01*
X216658480Y-110300646D01*
X216610860Y-110205408D01*
X216610860Y-109967313D01*
X216658480Y-109824456D01*
X216610860Y-109491122D02*
X217610860Y-109253027D01*
X216896575Y-109062551D01*
X217610860Y-108872075D01*
X216610860Y-108633980D01*
X217706099Y-108491122D02*
X217706099Y-107729218D01*
X217610860Y-107491122D02*
X216610860Y-107491122D01*
X216610860Y-107110170D01*
X216658480Y-107014932D01*
X216706099Y-106967313D01*
X216801337Y-106919694D01*
X216944194Y-106919694D01*
X217039432Y-106967313D01*
X217087051Y-107014932D01*
X217134670Y-107110170D01*
X217134670Y-107491122D01*
X216610860Y-106491122D02*
X217420384Y-106491122D01*
X217515622Y-106443503D01*
X217563241Y-106395884D01*
X217610860Y-106300646D01*
X217610860Y-106110170D01*
X217563241Y-106014932D01*
X217515622Y-105967313D01*
X217420384Y-105919694D01*
X216610860Y-105919694D01*
X217563241Y-105491122D02*
X217610860Y-105348265D01*
X217610860Y-105110170D01*
X217563241Y-105014932D01*
X217515622Y-104967313D01*
X217420384Y-104919694D01*
X217325146Y-104919694D01*
X217229908Y-104967313D01*
X217182289Y-105014932D01*
X217134670Y-105110170D01*
X217087051Y-105300646D01*
X217039432Y-105395884D01*
X216991813Y-105443503D01*
X216896575Y-105491122D01*
X216801337Y-105491122D01*
X216706099Y-105443503D01*
X216658480Y-105395884D01*
X216610860Y-105300646D01*
X216610860Y-105062551D01*
X216658480Y-104919694D01*
X217610860Y-104491122D02*
X216610860Y-104491122D01*
X217087051Y-104491122D02*
X217087051Y-103919694D01*
X217610860Y-103919694D02*
X216610860Y-103919694D01*
X211073013Y-110881675D02*
X210802080Y-110494627D01*
X210608556Y-110881675D02*
X210608556Y-110068875D01*
X210918194Y-110068875D01*
X210995603Y-110107580D01*
X211034308Y-110146284D01*
X211073013Y-110223694D01*
X211073013Y-110339808D01*
X211034308Y-110417218D01*
X210995603Y-110455922D01*
X210918194Y-110494627D01*
X210608556Y-110494627D01*
X211382651Y-110146284D02*
X211421356Y-110107580D01*
X211498765Y-110068875D01*
X211692289Y-110068875D01*
X211769699Y-110107580D01*
X211808403Y-110146284D01*
X211847108Y-110223694D01*
X211847108Y-110301103D01*
X211808403Y-110417218D01*
X211343946Y-110881675D01*
X211847108Y-110881675D01*
X211073013Y-108581675D02*
X210802080Y-108194627D01*
X210608556Y-108581675D02*
X210608556Y-107768875D01*
X210918194Y-107768875D01*
X210995603Y-107807580D01*
X211034308Y-107846284D01*
X211073013Y-107923694D01*
X211073013Y-108039808D01*
X211034308Y-108117218D01*
X210995603Y-108155922D01*
X210918194Y-108194627D01*
X210608556Y-108194627D01*
X211847108Y-108581675D02*
X211382651Y-108581675D01*
X211614880Y-108581675D02*
X211614880Y-107768875D01*
X211537470Y-107884989D01*
X211460060Y-107962399D01*
X211382651Y-108001103D01*
X206558556Y-108601675D02*
X206558556Y-107788875D01*
X206868194Y-107788875D01*
X206945603Y-107827580D01*
X206984308Y-107866284D01*
X207023013Y-107943694D01*
X207023013Y-108059808D01*
X206984308Y-108137218D01*
X206945603Y-108175922D01*
X206868194Y-108214627D01*
X206558556Y-108214627D01*
X207797108Y-108601675D02*
X207332651Y-108601675D01*
X207564880Y-108601675D02*
X207564880Y-107788875D01*
X207487470Y-107904989D01*
X207410060Y-107982399D01*
X207332651Y-108021103D01*
X206458556Y-110801675D02*
X206458556Y-109988875D01*
X206768194Y-109988875D01*
X206845603Y-110027580D01*
X206884308Y-110066284D01*
X206923013Y-110143694D01*
X206923013Y-110259808D01*
X206884308Y-110337218D01*
X206845603Y-110375922D01*
X206768194Y-110414627D01*
X206458556Y-110414627D01*
X207232651Y-110066284D02*
X207271356Y-110027580D01*
X207348765Y-109988875D01*
X207542289Y-109988875D01*
X207619699Y-110027580D01*
X207658403Y-110066284D01*
X207697108Y-110143694D01*
X207697108Y-110221103D01*
X207658403Y-110337218D01*
X207193946Y-110801675D01*
X207697108Y-110801675D01*
X188911731Y-145704491D02*
X188204625Y-144997384D01*
X188372983Y-144829025D01*
X188507670Y-144761682D01*
X188642357Y-144761682D01*
X188743373Y-144795354D01*
X188911731Y-144896369D01*
X189012747Y-144997384D01*
X189113762Y-145165743D01*
X189147434Y-145266758D01*
X189147434Y-145401445D01*
X189080090Y-145536132D01*
X188911731Y-145704491D01*
X188945403Y-144391292D02*
X188945403Y-144323949D01*
X188979075Y-144222934D01*
X189147434Y-144054575D01*
X189248449Y-144020903D01*
X189315792Y-144020903D01*
X189416808Y-144054575D01*
X189484151Y-144121918D01*
X189551495Y-144256605D01*
X189551495Y-145064728D01*
X189989228Y-144626995D01*
X189618838Y-143717857D02*
X189618838Y-143650514D01*
X189652510Y-143549499D01*
X189820869Y-143381140D01*
X189921884Y-143347468D01*
X189989228Y-143347468D01*
X190090243Y-143381140D01*
X190157586Y-143448483D01*
X190224930Y-143583170D01*
X190224930Y-144391292D01*
X190662663Y-143953560D01*
X175646237Y-119589756D02*
X176347305Y-119994518D01*
X176453593Y-120000898D01*
X176518642Y-119983468D01*
X176607501Y-119924799D01*
X176702739Y-119759841D01*
X176709118Y-119653553D01*
X176691689Y-119588504D01*
X176633020Y-119499646D01*
X175931951Y-119094884D01*
X176408142Y-118270098D02*
X176170047Y-118682491D01*
X176558630Y-118961826D01*
X176541200Y-118896777D01*
X176547580Y-118790489D01*
X176666628Y-118584292D01*
X176755486Y-118525623D01*
X176820535Y-118508193D01*
X176926823Y-118514573D01*
X177133020Y-118633621D01*
X177191689Y-118722479D01*
X177209118Y-118787528D01*
X177202739Y-118893816D01*
X177083691Y-119100013D01*
X176994833Y-119158682D01*
X176929784Y-119176111D01*
X175702860Y-73040265D02*
X174702860Y-73040265D01*
X174702860Y-72802170D01*
X174750480Y-72659313D01*
X174845718Y-72564075D01*
X174940956Y-72516456D01*
X175131432Y-72468837D01*
X175274289Y-72468837D01*
X175464765Y-72516456D01*
X175560003Y-72564075D01*
X175655241Y-72659313D01*
X175702860Y-72802170D01*
X175702860Y-73040265D01*
X174798099Y-72087884D02*
X174750480Y-72040265D01*
X174702860Y-71945027D01*
X174702860Y-71706932D01*
X174750480Y-71611694D01*
X174798099Y-71564075D01*
X174893337Y-71516456D01*
X174988575Y-71516456D01*
X175131432Y-71564075D01*
X175702860Y-72135503D01*
X175702860Y-71516456D01*
X174702860Y-71183122D02*
X174702860Y-70564075D01*
X175083813Y-70897408D01*
X175083813Y-70754551D01*
X175131432Y-70659313D01*
X175179051Y-70611694D01*
X175274289Y-70564075D01*
X175512384Y-70564075D01*
X175607622Y-70611694D01*
X175655241Y-70659313D01*
X175702860Y-70754551D01*
X175702860Y-71040265D01*
X175655241Y-71135503D01*
X175607622Y-71183122D01*
X175702860Y-92340265D02*
X174702860Y-92340265D01*
X174702860Y-92102170D01*
X174750480Y-91959313D01*
X174845718Y-91864075D01*
X174940956Y-91816456D01*
X175131432Y-91768837D01*
X175274289Y-91768837D01*
X175464765Y-91816456D01*
X175560003Y-91864075D01*
X175655241Y-91959313D01*
X175702860Y-92102170D01*
X175702860Y-92340265D01*
X174798099Y-91387884D02*
X174750480Y-91340265D01*
X174702860Y-91245027D01*
X174702860Y-91006932D01*
X174750480Y-90911694D01*
X174798099Y-90864075D01*
X174893337Y-90816456D01*
X174988575Y-90816456D01*
X175131432Y-90864075D01*
X175702860Y-91435503D01*
X175702860Y-90816456D01*
X175036194Y-89959313D02*
X175702860Y-89959313D01*
X174655241Y-90197408D02*
X175369527Y-90435503D01*
X175369527Y-89816456D01*
X200243424Y-134314695D02*
X200815844Y-133742275D01*
X200849516Y-133641260D01*
X200849516Y-133573916D01*
X200815844Y-133472901D01*
X200681157Y-133338214D01*
X200580142Y-133304542D01*
X200512798Y-133304542D01*
X200411783Y-133338214D01*
X199839363Y-133910634D01*
X199569989Y-133641260D02*
X199132257Y-133203527D01*
X199637333Y-133169855D01*
X199536318Y-133068840D01*
X199502646Y-132967825D01*
X199502646Y-132900481D01*
X199536318Y-132799466D01*
X199704676Y-132631107D01*
X199805692Y-132597435D01*
X199873035Y-132597435D01*
X199974050Y-132631107D01*
X200176081Y-132833138D01*
X200209753Y-132934153D01*
X200209753Y-133001496D01*
X62950480Y-73925980D02*
X63650480Y-74825980D01*
X63650480Y-73925980D02*
X62250480Y-73925980D01*
X63650480Y-74825980D02*
X62250480Y-74825980D01*
X62250480Y-74825980D02*
X62950480Y-73925980D01*
X81850480Y-73825980D02*
X82550480Y-74725980D01*
X81150480Y-74725980D02*
X81850480Y-73825980D01*
X82550480Y-73825980D02*
X81150480Y-73825980D01*
X82550480Y-74725980D02*
X81150480Y-74725980D01*
X115050480Y-69925980D02*
X115750480Y-69025980D01*
X116450480Y-69925980D02*
X115050480Y-69925980D01*
X116450480Y-69025980D02*
X115050480Y-69025980D01*
X115750480Y-69025980D02*
X116450480Y-69925980D01*
X135350480Y-66725980D02*
X133950480Y-66725980D01*
X134650480Y-66725980D02*
X135350480Y-67625980D01*
X133950480Y-67625980D02*
X134650480Y-66725980D01*
X135350480Y-67625980D02*
X133950480Y-67625980D01*
X152850480Y-69925980D02*
X153550480Y-69025980D01*
X153550480Y-69025980D02*
X154250480Y-69925980D01*
X154250480Y-69025980D02*
X152850480Y-69025980D01*
X154250480Y-69925980D02*
X152850480Y-69925980D01*
X157000000Y-69875000D02*
X157700000Y-70775000D01*
X157700000Y-69875000D02*
X156300000Y-69875000D01*
X157700000Y-70775000D02*
X156300000Y-70775000D01*
X156300000Y-70775000D02*
X157000000Y-69875000D01*
X64350480Y-91025980D02*
X65050480Y-91925980D01*
X65050480Y-91025980D02*
X63650480Y-91025980D01*
X65050480Y-91925980D02*
X63650480Y-91925980D01*
X63650480Y-91925980D02*
X64350480Y-91025980D01*
X97150480Y-92525980D02*
X95750480Y-92525980D01*
X97150480Y-93425980D02*
X95750480Y-93425980D01*
X96450480Y-92525980D02*
X97150480Y-93425980D01*
X95750480Y-93425980D02*
X96450480Y-92525980D01*
X116700000Y-89775000D02*
X115300000Y-89775000D01*
X115300000Y-89775000D02*
X116000000Y-88875000D01*
X116000000Y-88875000D02*
X116700000Y-89775000D01*
X116700000Y-88875000D02*
X115300000Y-88875000D01*
X135000000Y-86500000D02*
X135700000Y-87400000D01*
X134300000Y-87400000D02*
X135000000Y-86500000D01*
X135700000Y-86500000D02*
X134300000Y-86500000D01*
X135700000Y-87400000D02*
X134300000Y-87400000D01*
X154700000Y-89775000D02*
X153300000Y-89775000D01*
X154700000Y-88875000D02*
X153300000Y-88875000D01*
X154000000Y-88875000D02*
X154700000Y-89775000D01*
X153300000Y-89775000D02*
X154000000Y-88875000D01*
X156300000Y-89775000D02*
X157000000Y-88875000D01*
X157700000Y-89775000D02*
X156300000Y-89775000D01*
X157700000Y-88875000D02*
X156300000Y-88875000D01*
X157000000Y-88875000D02*
X157700000Y-89775000D01*
X65150480Y-111525980D02*
X63750480Y-111525980D01*
X63750480Y-111525980D02*
X64450480Y-110625980D01*
X65150480Y-110625980D02*
X63750480Y-110625980D01*
X64450480Y-110625980D02*
X65150480Y-111525980D01*
X95850480Y-112825980D02*
X96550480Y-111925980D01*
X97250480Y-112825980D02*
X95850480Y-112825980D01*
X96550480Y-111925980D02*
X97250480Y-112825980D01*
X97250480Y-111925980D02*
X95850480Y-111925980D01*
X114950480Y-107425980D02*
X115650480Y-106525980D01*
X116350480Y-107425980D02*
X114950480Y-107425980D01*
X116350480Y-106525980D02*
X114950480Y-106525980D01*
X115650480Y-106525980D02*
X116350480Y-107425980D01*
X134300000Y-105525980D02*
X135000000Y-104625980D01*
X135700000Y-104625980D02*
X134300000Y-104625980D01*
X135000000Y-104625980D02*
X135700000Y-105525980D01*
X135700000Y-105525980D02*
X134300000Y-105525980D01*
X154700000Y-107825980D02*
X153300000Y-107825980D01*
X153300000Y-107825980D02*
X154000000Y-106925980D01*
X154000000Y-106925980D02*
X154700000Y-107825980D01*
X154700000Y-106925980D02*
X153300000Y-106925980D01*
X157700000Y-106925980D02*
X156300000Y-106925980D01*
X156300000Y-107825980D02*
X157000000Y-106925980D01*
X157700000Y-107825980D02*
X156300000Y-107825980D01*
X157000000Y-106925980D02*
X157700000Y-107825980D01*
X129850480Y-125325980D02*
X128450480Y-125325980D01*
X129850480Y-126225980D02*
X128450480Y-126225980D01*
X129150480Y-125325980D02*
X129850480Y-126225980D01*
X128450480Y-126225980D02*
X129150480Y-125325980D01*
X150050480Y-128325980D02*
X150750480Y-127425980D01*
X151450480Y-127425980D02*
X150050480Y-127425980D01*
X151450480Y-128325980D02*
X150050480Y-128325980D01*
X150750480Y-127425980D02*
X151450480Y-128325980D01*
X171150480Y-132625980D02*
X169750480Y-132625980D01*
X169750480Y-133525980D02*
X170450480Y-132625980D01*
X171150480Y-133525980D02*
X169750480Y-133525980D01*
X170450480Y-132625980D02*
X171150480Y-133525980D01*
D11*
X71380000Y-73225000D02*
X71380000Y-71775000D01*
X71380000Y-71775000D02*
X73430000Y-71775000D01*
X73430000Y-73225000D02*
X71380000Y-73225000D01*
X73430000Y-71775000D02*
X73430000Y-73225000D01*
X90380000Y-73225000D02*
X90380000Y-71775000D01*
X90380000Y-71775000D02*
X92430000Y-71775000D01*
X92430000Y-71775000D02*
X92430000Y-73225000D01*
X92430000Y-73225000D02*
X90380000Y-73225000D01*
X111430000Y-67025000D02*
X111430000Y-68475000D01*
X109380000Y-67025000D02*
X111430000Y-67025000D01*
X111430000Y-68475000D02*
X109380000Y-68475000D01*
X109380000Y-68475000D02*
X109380000Y-67025000D01*
X128380000Y-66100000D02*
X128380000Y-64650000D01*
X130430000Y-64650000D02*
X130430000Y-66100000D01*
X130430000Y-66100000D02*
X128380000Y-66100000D01*
X128380000Y-64650000D02*
X130430000Y-64650000D01*
X147380000Y-67025000D02*
X149430000Y-67025000D01*
X149430000Y-67025000D02*
X149430000Y-68475000D01*
X147380000Y-68475000D02*
X147380000Y-67025000D01*
X149430000Y-68475000D02*
X147380000Y-68475000D01*
X168430000Y-70850000D02*
X166380000Y-70850000D01*
X166380000Y-69400000D02*
X168430000Y-69400000D01*
X168430000Y-69400000D02*
X168430000Y-70850000D01*
X166380000Y-70850000D02*
X166380000Y-69400000D01*
X73430000Y-90775000D02*
X73430000Y-92225000D01*
X71380000Y-90775000D02*
X73430000Y-90775000D01*
X71380000Y-92225000D02*
X71380000Y-90775000D01*
X73430000Y-92225000D02*
X71380000Y-92225000D01*
X90380000Y-90775000D02*
X92430000Y-90775000D01*
X92430000Y-92225000D02*
X90380000Y-92225000D01*
X92430000Y-90775000D02*
X92430000Y-92225000D01*
X90380000Y-92225000D02*
X90380000Y-90775000D01*
X111430000Y-86025000D02*
X111430000Y-87475000D01*
X109380000Y-87475000D02*
X109380000Y-86025000D01*
X111430000Y-87475000D02*
X109380000Y-87475000D01*
X109380000Y-86025000D02*
X111430000Y-86025000D01*
X130430000Y-83650000D02*
X130430000Y-85100000D01*
X128380000Y-85100000D02*
X128380000Y-83650000D01*
X130430000Y-85100000D02*
X128380000Y-85100000D01*
X128380000Y-83650000D02*
X130430000Y-83650000D01*
X149430000Y-87475000D02*
X147380000Y-87475000D01*
X149430000Y-86025000D02*
X149430000Y-87475000D01*
X147380000Y-87475000D02*
X147380000Y-86025000D01*
X147380000Y-86025000D02*
X149430000Y-86025000D01*
X161570000Y-88100000D02*
X161570000Y-86650000D01*
X163620000Y-86650000D02*
X163620000Y-88100000D01*
X161570000Y-86650000D02*
X163620000Y-86650000D01*
X163620000Y-88100000D02*
X161570000Y-88100000D01*
X71380000Y-109775000D02*
X73430000Y-109775000D01*
X71380000Y-111225000D02*
X71380000Y-109775000D01*
X73430000Y-111225000D02*
X71380000Y-111225000D01*
X73430000Y-109775000D02*
X73430000Y-111225000D01*
X92430000Y-109775000D02*
X92430000Y-111225000D01*
X90380000Y-109775000D02*
X92430000Y-109775000D01*
X92430000Y-111225000D02*
X90380000Y-111225000D01*
X90380000Y-111225000D02*
X90380000Y-109775000D01*
X111430000Y-105025000D02*
X111430000Y-106475000D01*
X111430000Y-106475000D02*
X109380000Y-106475000D01*
X109380000Y-105025000D02*
X111430000Y-105025000D01*
X109380000Y-106475000D02*
X109380000Y-105025000D01*
X130430000Y-104100000D02*
X128380000Y-104100000D01*
X128380000Y-102650000D02*
X130430000Y-102650000D01*
X130430000Y-102650000D02*
X130430000Y-104100000D01*
X128380000Y-104100000D02*
X128380000Y-102650000D01*
X149430000Y-106475000D02*
X147380000Y-106475000D01*
X147380000Y-106475000D02*
X147380000Y-105025000D01*
X147380000Y-105025000D02*
X149430000Y-105025000D01*
X149430000Y-105025000D02*
X149430000Y-106475000D01*
X166380000Y-107400000D02*
X168430000Y-107400000D01*
X168430000Y-107400000D02*
X168430000Y-108850000D01*
X166380000Y-108850000D02*
X166380000Y-107400000D01*
X168430000Y-108850000D02*
X166380000Y-108850000D01*
X137880000Y-124650000D02*
X139930000Y-124650000D01*
X137880000Y-126100000D02*
X137880000Y-124650000D01*
X139930000Y-126100000D02*
X137880000Y-126100000D01*
X139930000Y-124650000D02*
X139930000Y-126100000D01*
X161899015Y-129933231D02*
X159918867Y-129402652D01*
X162274303Y-128532638D02*
X161899015Y-129933231D01*
X159918867Y-129402652D02*
X160294155Y-128002059D01*
X160294155Y-128002059D02*
X162274303Y-128532638D01*
X179702349Y-133615517D02*
X178977349Y-134871254D01*
X177201997Y-133846254D02*
X177926997Y-132590517D01*
X177926997Y-132590517D02*
X179702349Y-133615517D01*
X178977349Y-134871254D02*
X177201997Y-133846254D01*
D12*
X212244480Y-100240980D02*
X214022480Y-100240980D01*
X212244480Y-102526980D02*
X212244480Y-100240980D01*
X214022480Y-102526980D02*
X212244480Y-102526980D01*
X214022480Y-100240980D02*
X214022480Y-102526980D01*
X209744480Y-102526980D02*
X209744480Y-100240980D01*
X211522480Y-102526980D02*
X209744480Y-102526980D01*
X211522480Y-100240980D02*
X211522480Y-102526980D01*
X209744480Y-100240980D02*
X211522480Y-100240980D01*
X209022480Y-102526980D02*
X207244480Y-102526980D01*
X209022480Y-100240980D02*
X209022480Y-102526980D01*
X207244480Y-100240980D02*
X209022480Y-100240980D01*
X207244480Y-102526980D02*
X207244480Y-100240980D01*
X204744480Y-100240980D02*
X206522480Y-100240980D01*
X206522480Y-100240980D02*
X206522480Y-102526980D01*
X206522480Y-102526980D02*
X204744480Y-102526980D01*
X204744480Y-102526980D02*
X204744480Y-100240980D01*
X203714880Y-101115980D02*
X201174880Y-101115980D01*
X216394880Y-70635980D02*
X218934880Y-70635980D01*
X201174880Y-70635980D02*
X203714880Y-70635980D01*
X203714880Y-70635980D02*
X203714880Y-101115980D01*
X218934880Y-70635980D02*
X218934880Y-101115980D01*
X218934880Y-101115980D02*
X216394880Y-101115980D01*
X201174880Y-101115980D02*
X201174880Y-70635980D01*
X216394880Y-101115980D02*
X216394880Y-70635980D01*
X202161480Y-111068980D02*
X202161480Y-108782980D01*
X203939480Y-108782980D02*
X203939480Y-111068980D01*
X202161480Y-108782980D02*
X203939480Y-108782980D01*
X203939480Y-111068980D02*
X202161480Y-111068980D01*
X204288480Y-106703980D02*
X204288480Y-104163980D01*
X204288480Y-106703980D02*
X214448480Y-106703980D01*
X204288480Y-104163980D02*
X214448480Y-104163980D01*
X214448480Y-104163980D02*
X214448480Y-106703980D01*
X221850480Y-118475980D02*
X221850480Y-124475980D01*
X209850480Y-124475980D02*
X209850480Y-118475980D01*
X209850480Y-118475980D02*
X221850480Y-118475980D01*
X221850480Y-124475980D02*
X209850480Y-124475980D01*
X215408480Y-110133980D02*
X215658480Y-110133980D01*
X215408480Y-110133980D02*
X215408480Y-104133980D01*
X215408480Y-104133980D02*
X215658480Y-104133980D01*
X218908480Y-104133980D02*
X218658480Y-104133980D01*
X218908480Y-110133980D02*
X218658480Y-110133980D01*
X218908480Y-110133980D02*
X218908480Y-104133980D01*
D11*
X92390480Y-86175980D02*
X89940480Y-86175980D01*
X89940480Y-86175980D02*
X89940480Y-84725980D01*
X89940480Y-84725980D02*
X92360480Y-84725980D01*
X92390480Y-84725980D02*
X92390480Y-86175980D01*
X128030480Y-77725980D02*
X130450480Y-77725980D01*
X130480480Y-79175980D02*
X128030480Y-79175980D01*
X130480480Y-77725980D02*
X130480480Y-79175980D01*
X128030480Y-79175980D02*
X128030480Y-77725980D01*
X168490480Y-83875980D02*
X166040480Y-83875980D01*
X166040480Y-83875980D02*
X166040480Y-82425980D01*
X168490480Y-82425980D02*
X168490480Y-83875980D01*
X166040480Y-82425980D02*
X168460480Y-82425980D01*
X85570000Y-105575980D02*
X88020000Y-105575980D01*
X85570000Y-107025980D02*
X85570000Y-105575980D01*
X88020000Y-107025980D02*
X85600000Y-107025980D01*
X88020000Y-105575980D02*
X88020000Y-107025980D01*
X123570000Y-119925980D02*
X123570000Y-118475980D01*
X126020000Y-119925980D02*
X123600000Y-119925980D01*
X123570000Y-118475980D02*
X126020000Y-118475980D01*
X126020000Y-118475980D02*
X126020000Y-119925980D01*
X162010480Y-123375980D02*
X164460480Y-123375980D01*
X164460480Y-123375980D02*
X164460480Y-124825980D01*
X162010480Y-124825980D02*
X162010480Y-123375980D01*
X164460480Y-124825980D02*
X162040480Y-124825980D01*
D14*
X211541099Y-92916184D02*
X211560259Y-92942224D01*
X211046482Y-93206459D02*
X211047973Y-93198185D01*
X211119302Y-93092727D02*
X211126183Y-93088357D01*
X211884492Y-93792030D02*
X211908915Y-93814150D01*
X210652729Y-91213034D02*
X210653672Y-91254681D01*
X207941003Y-91678382D02*
X207863079Y-91583294D01*
X211351152Y-92751529D02*
X211381652Y-92770622D01*
X211290123Y-92719708D02*
X211320629Y-92734597D01*
X211382848Y-93249224D02*
X211381769Y-93257632D01*
X211061252Y-93304885D02*
X211057855Y-93297442D01*
X210653473Y-91193165D02*
X210653064Y-91194878D01*
X211083255Y-93125174D02*
X211088586Y-93119078D01*
X206823729Y-94239944D02*
X206710947Y-94155415D01*
X210939032Y-90497728D02*
X210970036Y-90620928D01*
X210994062Y-94629936D02*
X210940099Y-94601398D01*
X211302068Y-93088357D02*
X211308949Y-93092727D01*
X209932714Y-92978679D02*
X209904979Y-93013461D01*
X210593668Y-90597203D02*
X210601952Y-90635238D01*
X210604162Y-94485907D02*
X210546170Y-94475253D01*
X206952979Y-94324358D02*
X206823729Y-94239944D01*
X210186459Y-94456128D02*
X210124571Y-94459712D01*
X210306733Y-92559556D02*
X210343657Y-92573575D01*
X210124571Y-94459712D02*
X210124571Y-94459712D01*
X211044748Y-93240691D02*
X211044527Y-93232046D01*
X207442899Y-94550090D02*
X207262227Y-94482114D01*
X212192262Y-93658654D02*
X212144406Y-93787800D01*
X210448790Y-92381816D02*
X210388818Y-92417264D01*
X212300403Y-93081483D02*
X212285342Y-93231989D01*
X211188297Y-93398120D02*
X211179945Y-93396643D01*
X211214125Y-93064033D02*
X211222853Y-93064252D01*
X211359170Y-93144925D02*
X211363254Y-93151961D01*
X210430211Y-89554770D02*
X210483954Y-89625001D01*
X211080347Y-92662757D02*
X211109636Y-92666655D01*
X211834362Y-95380254D02*
X211725135Y-95276943D01*
X210588408Y-89772440D02*
X210638591Y-89849545D01*
X211047438Y-94661327D02*
X211047438Y-94661327D01*
X211702669Y-91100353D02*
X211755694Y-91172160D01*
X211196785Y-93399189D02*
X211188297Y-93398120D01*
X210531236Y-90392537D02*
X210531236Y-90392537D01*
X210003331Y-94470946D02*
X209888026Y-94486279D01*
X210003921Y-92882116D02*
X209982105Y-92913014D01*
X209650820Y-93277235D02*
X209594803Y-93321593D01*
X211171740Y-93394767D02*
X211163692Y-93392503D01*
X211214125Y-93400056D02*
X211214125Y-93400056D01*
X211381652Y-92770622D02*
X211412090Y-92791994D01*
X210368819Y-94456538D02*
X210308585Y-94454467D01*
X211308949Y-93092727D02*
X211315598Y-93097411D01*
X211354759Y-93138108D02*
X211359170Y-93144925D01*
X211228848Y-90564945D02*
X211328822Y-90665421D01*
X206533436Y-93996742D02*
X206468034Y-93927963D01*
X212285342Y-93231989D02*
X212262471Y-93379311D01*
X211264559Y-93071587D02*
X211272439Y-93074228D01*
X211724701Y-93497265D02*
X211734906Y-93545782D01*
X209778314Y-94504650D02*
X209673854Y-94524999D01*
X211262511Y-94822192D02*
X211238244Y-94801096D01*
X210994621Y-92657172D02*
X211051388Y-92659955D01*
X210569613Y-92646269D02*
X210600823Y-92654668D01*
X211046482Y-93257632D02*
X211045403Y-93249224D01*
X210584099Y-90557703D02*
X210593668Y-90597203D01*
X208022220Y-93606674D02*
X207895011Y-93574934D01*
X211045403Y-93214867D02*
X211046482Y-93206459D01*
X210003466Y-92561085D02*
X209936171Y-92574185D01*
X211171740Y-93069322D02*
X211179945Y-93067446D01*
X210266082Y-89358650D02*
X210375809Y-89486933D01*
X211308949Y-93371362D02*
X211302068Y-93375733D01*
X211302068Y-93375733D02*
X211294966Y-93379778D01*
X209808659Y-93125682D02*
X209808659Y-93125682D01*
X211291648Y-94234552D02*
X211715775Y-94436164D01*
X211239953Y-93398120D02*
X211231466Y-93399189D01*
X209982105Y-92913014D02*
X209958396Y-92945199D01*
X210573157Y-90517110D02*
X210584099Y-90557703D01*
X211715775Y-94436164D02*
X211878230Y-95421207D01*
X210128209Y-92660875D02*
X210119847Y-92680487D01*
X210615010Y-90705406D02*
X210623961Y-90765206D01*
X208222370Y-91976250D02*
X208120877Y-91876539D01*
X211497380Y-92866034D02*
X211520172Y-92890766D01*
X208622615Y-94680948D02*
X208490693Y-94684820D01*
X211054819Y-93174277D02*
X211057855Y-93166648D01*
X210468110Y-90251564D02*
X210490297Y-90297710D01*
X208813420Y-92401347D02*
X208700055Y-92340135D01*
X211878230Y-95421207D02*
X211878230Y-95421207D01*
X210446645Y-92609079D02*
X210507047Y-92628083D01*
X207262227Y-94482114D02*
X207099033Y-94405976D01*
X211755694Y-91172160D02*
X211807854Y-91246185D01*
X210445275Y-90206712D02*
X210468110Y-90251564D01*
X211472623Y-92842050D02*
X211497380Y-92866034D01*
X210939648Y-92657358D02*
X210994621Y-92657172D01*
X212208886Y-92059497D02*
X212241249Y-92192054D01*
X211577751Y-92968825D02*
X211593673Y-92995923D01*
X212241249Y-92192054D02*
X212267613Y-92331486D01*
X208490693Y-94684820D02*
X208347100Y-94686727D01*
X211238244Y-94801096D02*
X211213386Y-94780276D01*
X211047438Y-94661327D02*
X210994062Y-94629936D01*
X210718439Y-94514284D02*
X210661586Y-94498892D01*
X211334049Y-93113243D02*
X211339665Y-93119078D01*
X208831784Y-93635137D02*
X208695380Y-93651738D01*
X208745235Y-94674905D02*
X208622615Y-94680948D01*
X211057855Y-93166648D02*
X211061252Y-93159205D01*
X211957439Y-93854543D02*
X212002180Y-93888561D01*
X211205398Y-93399838D02*
X211196785Y-93399189D01*
X211320629Y-92734597D02*
X211351152Y-92751529D01*
X207565270Y-93453410D02*
X207501584Y-93422732D01*
X210653064Y-91194878D02*
X210652816Y-91198991D01*
X211052152Y-93182084D02*
X211054819Y-93174277D01*
X212127202Y-91820758D02*
X212127202Y-91820758D01*
X210058803Y-92797083D02*
X210042190Y-92824158D01*
X210147039Y-92609334D02*
X210141726Y-92625306D01*
X211044748Y-93223400D02*
X211045403Y-93214867D01*
X211350030Y-93332569D02*
X211344995Y-93338916D01*
X210629500Y-90811636D02*
X210633100Y-90852382D01*
X211816606Y-93720217D02*
X211837834Y-93744876D01*
X210652816Y-91198991D02*
X210652729Y-91213034D01*
X210073842Y-92771270D02*
X210058803Y-92797083D01*
X211286267Y-94843561D02*
X211262511Y-94822192D01*
X210687060Y-89928838D02*
X210733552Y-90010268D01*
X207772161Y-93536581D02*
X207700532Y-93510500D01*
X207501584Y-93422732D02*
X207381974Y-93357941D01*
X211280140Y-93077236D02*
X211287653Y-93080601D01*
X211656499Y-95211066D02*
X211584108Y-95140593D01*
X211078221Y-93332569D02*
X211073492Y-93325982D01*
X211112652Y-93097411D02*
X211119302Y-93092727D01*
X209673854Y-94524999D02*
X209301717Y-94604970D01*
X211593673Y-92995923D02*
X211608126Y-93023455D01*
X210422166Y-90163489D02*
X210445275Y-90206712D01*
X211231466Y-93064900D02*
X211239953Y-93065969D01*
X212301313Y-92625230D02*
X212308129Y-92776666D01*
X210702717Y-92669748D02*
X210743999Y-92668894D01*
X211051360Y-90399217D02*
X211135676Y-90476030D01*
X211797448Y-93695084D02*
X211816606Y-93720217D01*
X211328822Y-90665421D02*
X211433546Y-90776920D01*
X209058578Y-92501336D02*
X208933266Y-92455254D01*
X209757849Y-93179331D02*
X209705203Y-93229831D01*
X211272439Y-93074228D02*
X211280140Y-93077236D01*
X211315598Y-93366678D02*
X211308949Y-93371362D01*
X211259673Y-92706744D02*
X211290123Y-92719708D01*
X207863079Y-91583294D02*
X207793467Y-91493105D01*
X210308585Y-94454467D02*
X210247797Y-94454355D01*
X208093150Y-94678222D02*
X207973255Y-94666718D01*
X211044527Y-93232046D02*
X211044748Y-93223400D01*
X211264559Y-93392503D02*
X211256510Y-93394767D01*
X211272439Y-93389861D02*
X211264559Y-93392503D01*
X210327420Y-92449323D02*
X210264722Y-92478061D01*
X211025213Y-91269895D02*
X211014994Y-91398464D01*
X207173061Y-93219247D02*
X207083338Y-93147995D01*
X211139218Y-92671769D02*
X211169051Y-92678217D01*
X209080972Y-94641707D02*
X208972045Y-94655489D01*
X207636790Y-91268722D02*
X207558113Y-91139986D01*
X210376617Y-90083276D02*
X210399155Y-90122232D01*
X211366999Y-93159205D02*
X211370395Y-93166648D01*
X211280140Y-93386853D02*
X211272439Y-93389861D01*
X210665118Y-92667897D02*
X210702717Y-92669748D01*
X209594803Y-93321593D02*
X209537251Y-93362958D01*
X210200850Y-92503540D02*
X210135932Y-92525827D01*
X210354924Y-90046958D02*
X210376617Y-90083276D01*
X207003157Y-93077240D02*
X206932307Y-93008307D01*
X210546812Y-90434152D02*
X210560757Y-90475802D01*
X211334049Y-93350847D02*
X211328159Y-93356410D01*
X210247797Y-94454355D02*
X210186459Y-94456128D01*
X212287721Y-92476357D02*
X212301313Y-92625230D01*
X210661586Y-94498892D02*
X210604162Y-94485907D01*
X211291648Y-94234552D02*
X211291648Y-94234552D01*
X210399155Y-90122232D02*
X210422166Y-90163489D01*
X211161585Y-94739477D02*
X211134484Y-94719504D01*
X207641386Y-94607221D02*
X207539895Y-94580179D01*
X211376098Y-93282006D02*
X211373432Y-93289813D01*
X211359170Y-93319165D02*
X211354759Y-93325982D01*
X211163692Y-93392503D02*
X211155812Y-93389861D01*
X210819559Y-92021758D02*
X210789465Y-92067477D01*
X212262471Y-93379311D02*
X212231531Y-93522012D01*
X211878230Y-95421207D02*
X211834362Y-95380254D01*
X211069081Y-93144925D02*
X211073492Y-93138108D01*
X206738029Y-92777297D02*
X206691420Y-92707177D01*
X210563943Y-92300498D02*
X210507207Y-92342916D01*
X210050323Y-89133087D02*
X210156884Y-89240563D01*
X211382848Y-93214867D02*
X211383502Y-93223400D01*
X211179945Y-93396643D02*
X211171740Y-93394767D01*
X211788802Y-93682399D02*
X211797448Y-93695084D01*
X210743999Y-92668894D02*
X210788647Y-92666283D01*
X210264722Y-92478061D02*
X210200850Y-92503540D01*
X211229318Y-92695586D02*
X211259673Y-92706744D01*
X211584108Y-95140593D02*
X211512157Y-95069190D01*
X211057855Y-93297442D02*
X211054819Y-93289813D01*
X211354759Y-93325982D02*
X211350030Y-93332569D01*
X211045403Y-93249224D02*
X211044748Y-93240691D01*
X208695380Y-93651738D02*
X208558490Y-93659252D01*
X208700055Y-92340135D02*
X208700055Y-92340135D01*
X209188339Y-92539072D02*
X209058578Y-92501336D01*
X210042190Y-92824158D02*
X210023922Y-92852500D01*
X208152979Y-93631389D02*
X208022220Y-93606674D01*
X211073492Y-93325982D02*
X211069081Y-93319165D01*
X210897145Y-91871424D02*
X210847521Y-91973750D01*
X212267613Y-92331486D02*
X212287721Y-92476357D01*
X210167169Y-92508409D02*
X210162349Y-92547336D01*
X206468034Y-93927963D02*
X206382254Y-93824932D01*
X211661798Y-93165444D02*
X211676436Y-93223088D01*
X211608126Y-93023455D02*
X211621207Y-93051360D01*
X210653672Y-91254681D02*
X210655854Y-91314609D01*
X210507047Y-92628083D02*
X210569613Y-92646269D01*
X212170784Y-91935253D02*
X212208886Y-92059497D01*
X211054819Y-93289813D02*
X211052152Y-93282006D01*
X211315598Y-93097411D02*
X211322005Y-93102399D01*
X209936171Y-92574185D02*
X209868338Y-92584352D01*
X211287653Y-93080601D02*
X211294966Y-93084311D01*
X207895011Y-93574934D02*
X207772161Y-93536581D01*
X208634369Y-92299912D02*
X208570333Y-92257765D01*
X211049867Y-93274034D02*
X211047973Y-93265905D01*
X210671863Y-92204849D02*
X210618870Y-92254497D01*
X211350030Y-93131521D02*
X211354759Y-93138108D01*
X211061252Y-93159205D02*
X211064997Y-93151961D01*
X208347100Y-94686727D02*
X208347100Y-94686727D01*
X211858121Y-94266665D02*
X211787213Y-94377956D01*
X209731566Y-92596152D02*
X209594164Y-92597003D01*
X211222853Y-93064252D02*
X211231466Y-93064900D01*
X211148110Y-93386853D02*
X211140598Y-93383488D01*
X210638591Y-89849545D02*
X210687060Y-89928838D01*
X209692643Y-88817534D02*
X209767559Y-88878444D01*
X208966896Y-93609036D02*
X208831784Y-93635137D01*
X211339665Y-93345012D02*
X211334049Y-93350847D01*
X210375809Y-89486933D02*
X210430211Y-89554770D01*
X210256598Y-89891680D02*
X210354924Y-90046958D01*
X210110309Y-92701325D02*
X210099515Y-92723397D01*
X209478266Y-93401381D02*
X209417948Y-93436914D01*
X207747415Y-94630882D02*
X207641386Y-94607221D01*
X207272537Y-93289670D02*
X207173061Y-93219247D01*
X211064997Y-93312129D02*
X211061252Y-93304885D01*
X211044527Y-93232046D02*
X211044527Y-93232046D01*
X209301717Y-94604970D02*
X209301717Y-94604970D01*
X209301717Y-94604970D02*
X209190074Y-94624935D01*
X211179945Y-93067446D02*
X211188297Y-93065969D01*
X208700055Y-92340135D02*
X208634369Y-92299912D01*
X211112652Y-93366678D02*
X211106245Y-93361690D01*
X210722794Y-92151487D02*
X210671863Y-92204849D01*
X211135676Y-90476030D02*
X211228848Y-90564945D01*
X211381769Y-93257632D02*
X211380278Y-93265905D01*
X210087386Y-92746710D02*
X210073842Y-92771270D01*
X211077490Y-94680426D02*
X211047438Y-94661327D01*
X210135476Y-92642484D02*
X210128209Y-92660875D01*
X211205398Y-93064252D02*
X211214125Y-93064033D01*
X211400126Y-94954389D02*
X211355252Y-94909273D01*
X211433546Y-90776920D02*
X211540968Y-90898902D01*
X208421921Y-93658090D02*
X208286482Y-93648665D01*
X211908553Y-91400614D02*
X211956579Y-91480884D01*
X209417948Y-93436914D02*
X209356399Y-93469607D01*
X210834448Y-90215530D02*
X210977951Y-90335043D01*
X210970036Y-90620928D02*
X210994629Y-90747814D01*
X211199098Y-92686116D02*
X211229318Y-92695586D01*
X210490297Y-90297710D02*
X210511463Y-90344813D01*
X211444842Y-95000522D02*
X211400126Y-94954389D01*
X211328159Y-93107680D02*
X211334049Y-93113243D01*
X211381769Y-93206459D02*
X211382848Y-93214867D01*
X207973255Y-94666718D02*
X207858024Y-94650826D01*
X211214125Y-93400056D02*
X211214125Y-93400056D01*
X211621207Y-93051360D02*
X211643652Y-93108034D01*
X211520172Y-92890766D02*
X211541099Y-92916184D01*
X211376098Y-93182084D02*
X211378384Y-93190057D01*
X212021898Y-94017858D02*
X212021898Y-94017858D01*
X211807854Y-91246185D02*
X211858893Y-91322358D01*
X211344995Y-93125174D02*
X211350030Y-93131521D01*
X210997261Y-91524018D02*
X210971831Y-91645441D01*
X211106245Y-93361690D02*
X211100092Y-93356410D01*
X206710947Y-94155415D02*
X206614294Y-94073453D01*
X206870580Y-92942521D02*
X206817764Y-92881207D01*
X209293720Y-93499513D02*
X209230010Y-93526683D01*
X208570333Y-92257765D02*
X208447327Y-92168542D01*
X211676436Y-93223088D02*
X211688358Y-93280464D01*
X207381974Y-93357941D02*
X207272537Y-93289670D01*
X211049867Y-93190057D02*
X211052152Y-93182084D01*
X210487614Y-94466857D02*
X210428496Y-94460643D01*
X211780863Y-93669666D02*
X211780863Y-93669666D01*
X206773651Y-92825691D02*
X206738029Y-92777297D01*
X211725135Y-95276943D02*
X211656499Y-95211066D01*
X211643652Y-93108034D02*
X211661798Y-93165444D01*
X206382254Y-93824932D02*
X206354259Y-93785819D01*
X210119847Y-92680487D02*
X210110309Y-92701325D01*
X210483954Y-89625001D02*
X210536774Y-89697575D01*
X211239953Y-93065969D02*
X211248305Y-93067446D01*
X212087705Y-93908014D02*
X212055956Y-93964322D01*
X211380278Y-93198185D02*
X211381769Y-93206459D01*
X210774720Y-94532156D02*
X210718439Y-94514284D01*
X210099515Y-92723397D02*
X210087386Y-92746710D01*
X212021898Y-94017858D02*
X211932990Y-94151476D01*
X209888026Y-94486279D02*
X209778314Y-94504650D01*
X208972045Y-94655489D02*
X208860922Y-94666487D01*
X211771028Y-93651641D02*
X211780863Y-93669666D01*
X212055956Y-93964322D02*
X212021898Y-94017858D01*
X206691420Y-92707177D02*
X206676257Y-92681447D01*
X210819548Y-90179330D02*
X210858525Y-90266859D01*
X211762196Y-93632484D02*
X211771028Y-93651641D01*
X212127202Y-91820758D02*
X212170784Y-91935253D01*
X211248305Y-93396643D02*
X211239953Y-93398120D01*
X211012626Y-90877271D02*
X211023845Y-91008182D01*
X209868338Y-92584352D02*
X209731566Y-92596152D01*
X210511463Y-90344813D02*
X210531236Y-90392537D01*
X211126183Y-93375733D02*
X211119302Y-93371362D01*
X207772161Y-93536581D02*
X207772161Y-93536581D01*
X210847521Y-91973750D02*
X210819559Y-92021758D01*
X211109636Y-92666655D02*
X211139218Y-92671769D01*
X207793467Y-91493105D02*
X207732396Y-91409494D01*
X211231466Y-93399189D02*
X211222853Y-93399838D01*
X209356399Y-93469607D02*
X209293720Y-93499513D01*
X210901800Y-90379333D02*
X210939032Y-90497728D01*
X211472623Y-92842050D02*
X211472623Y-92842050D01*
X211064997Y-93151961D02*
X211069081Y-93144925D01*
X208331263Y-92074144D02*
X208222370Y-91976250D01*
X212046700Y-91647197D02*
X212088282Y-91733105D01*
X211155812Y-93389861D02*
X211148110Y-93386853D01*
X207700532Y-93510500D02*
X207631577Y-93482721D01*
X208120877Y-91876539D02*
X208027012Y-91776690D01*
X211086332Y-94686195D02*
X211291648Y-94234552D01*
X208860922Y-94666487D02*
X208745235Y-94674905D01*
X210623961Y-90765206D02*
X210629500Y-90811636D01*
X210156884Y-89240563D02*
X210266082Y-89358650D01*
X210830426Y-94552582D02*
X210774720Y-94532156D01*
X210971831Y-91645441D02*
X210938520Y-91761615D01*
X211560259Y-92942224D02*
X211577751Y-92968825D01*
X207732396Y-91409494D02*
X207636790Y-91268722D01*
X209537251Y-93362958D02*
X209478266Y-93401381D01*
X210858525Y-90266859D02*
X210901800Y-90379333D01*
X207083338Y-93147995D02*
X207003157Y-93077240D01*
X211322005Y-93102399D02*
X211328159Y-93107680D01*
X211512157Y-95069190D02*
X211444842Y-95000522D01*
X211412090Y-92791994D02*
X211442427Y-92815764D01*
X211370395Y-93166648D02*
X211373432Y-93174277D01*
X208286482Y-93648665D02*
X208152979Y-93631389D01*
X211248305Y-93067446D02*
X211256510Y-93069322D01*
X211094202Y-93113243D02*
X211100092Y-93107680D01*
X211932990Y-94151476D02*
X211858121Y-94266665D01*
X208347100Y-94686727D02*
X208217751Y-94685004D01*
X211078221Y-93131521D02*
X211083255Y-93125174D01*
X211688358Y-93280464D02*
X211724701Y-93497265D01*
X211073492Y-93138108D02*
X211078221Y-93131521D01*
X211540968Y-90898902D02*
X211649035Y-91030829D01*
X211339665Y-93119078D02*
X211344995Y-93125174D01*
X210938520Y-91761615D02*
X210897145Y-91871424D01*
X211355252Y-94909273D02*
X211309590Y-94865199D01*
X209767559Y-88878444D02*
X209853551Y-88951614D01*
X210722794Y-92151487D02*
X210722794Y-92151487D01*
X209190074Y-94624935D02*
X209080972Y-94641707D01*
X206932307Y-93008307D02*
X206870580Y-92942521D01*
X210994629Y-90747814D02*
X211012626Y-90877271D01*
X212002713Y-91563100D02*
X212046700Y-91647197D01*
X212307913Y-92929229D02*
X212300403Y-93081483D01*
X211140598Y-93383488D02*
X211133285Y-93379778D01*
X211133285Y-93084311D02*
X211140598Y-93080601D01*
X211363254Y-93151961D02*
X211366999Y-93159205D01*
X209808659Y-93125682D02*
X209757849Y-93179331D01*
X210507207Y-92342916D02*
X210448790Y-92381816D01*
X208447327Y-92168542D02*
X208331263Y-92074144D01*
X211908915Y-93814150D02*
X211933399Y-93835050D01*
X210141726Y-92625306D02*
X210135476Y-92642484D01*
X211933399Y-93835050D02*
X211957439Y-93854543D01*
X210124571Y-94459712D02*
X210063188Y-94464751D01*
X211088586Y-93345012D02*
X211083255Y-93338916D01*
X207539895Y-94580179D02*
X207442899Y-94550090D01*
X211256510Y-93394767D02*
X211248305Y-93396643D01*
X209904979Y-93013461D02*
X209875112Y-93049551D01*
X212144406Y-93787800D02*
X212087705Y-93908014D01*
X211373432Y-93289813D02*
X211370395Y-93297442D01*
X211322005Y-93361690D02*
X211315598Y-93366678D01*
X208933266Y-92455254D02*
X208813420Y-92401347D01*
X210618870Y-92254497D02*
X210563943Y-92300498D01*
X211100092Y-93356410D02*
X211094202Y-93350847D01*
X209457148Y-92587426D02*
X209321534Y-92567943D01*
X209321534Y-92567943D02*
X209188339Y-92539072D01*
X212039117Y-93914710D02*
X212073492Y-93937423D01*
X210546170Y-94475253D02*
X210487614Y-94466857D01*
X211148110Y-93077236D02*
X211155812Y-93074228D01*
X211100092Y-93107680D02*
X211106245Y-93102399D01*
X211780863Y-93669666D02*
X211788802Y-93682399D01*
X211383723Y-93232046D02*
X211383502Y-93240691D01*
X209594164Y-92597003D02*
X209457148Y-92587426D01*
X209948508Y-89036633D02*
X210050323Y-89133087D01*
X208027012Y-91776690D02*
X207941003Y-91678382D01*
X207631577Y-93482721D02*
X207565270Y-93453410D01*
X211344995Y-93338916D02*
X211339665Y-93345012D01*
X207858024Y-94650826D02*
X207747415Y-94630882D01*
X211094202Y-93350847D02*
X211088586Y-93345012D01*
X210343657Y-92573575D02*
X210391238Y-92590496D01*
X211383502Y-93240691D02*
X211382848Y-93249224D01*
X208558490Y-93659252D02*
X208421921Y-93658090D01*
X211294966Y-93084311D02*
X211302068Y-93088357D01*
X211366999Y-93304885D02*
X211363254Y-93312129D01*
X210388818Y-92417264D02*
X210327420Y-92449323D01*
X209853551Y-88951614D02*
X209948508Y-89036633D01*
X211860631Y-93768876D02*
X211884492Y-93792030D01*
X209958396Y-92945199D02*
X209932714Y-92978679D01*
X212088282Y-91733105D02*
X212127202Y-91820758D01*
X211444842Y-95000522D02*
X211444842Y-95000522D01*
X211383502Y-93223400D02*
X211383723Y-93232046D01*
X210885553Y-94575638D02*
X210830426Y-94552582D01*
X210070095Y-92544987D02*
X210003466Y-92561085D01*
X210428496Y-94460643D02*
X210368819Y-94456538D01*
X210151496Y-92594562D02*
X210147039Y-92609334D01*
X211858893Y-91322358D02*
X211908553Y-91400614D01*
X209843031Y-93086956D02*
X209808659Y-93125682D01*
X211383723Y-93232046D02*
X211383723Y-93232046D01*
X211715775Y-94436164D02*
X211715775Y-94436164D01*
X209099907Y-93573022D02*
X208966896Y-93609036D01*
X211214125Y-93400056D02*
X211205398Y-93399838D01*
X211370395Y-93297442D02*
X211366999Y-93304885D01*
X211649035Y-91030829D02*
X211702669Y-91100353D01*
X209875112Y-93049551D02*
X209843031Y-93086956D01*
X210531236Y-90392537D02*
X210546812Y-90434152D01*
X211747140Y-93591022D02*
X211762196Y-93632484D01*
X210788647Y-92666283D02*
X210886786Y-92659569D01*
X210063188Y-94464751D02*
X210003331Y-94470946D01*
X211106245Y-93102399D02*
X211112652Y-93097411D01*
X210276272Y-92545737D02*
X210277520Y-92546683D01*
X207099033Y-94405976D02*
X206952979Y-94324358D01*
X211734906Y-93545782D02*
X211747140Y-93591022D01*
X212231531Y-93522012D02*
X212192262Y-93658654D01*
X210158158Y-92568590D02*
X210151496Y-92594562D01*
X210886786Y-92659569D02*
X210939648Y-92657358D01*
X211169051Y-92678217D02*
X211199098Y-92686116D01*
X211256510Y-93069322D02*
X211264559Y-93071587D01*
X211155812Y-93074228D02*
X211163692Y-93071587D01*
X210631513Y-92662397D02*
X210631513Y-92662397D01*
X211196785Y-93064900D02*
X211205398Y-93064252D01*
X211069081Y-93319165D02*
X211064997Y-93312129D01*
X210277520Y-92546683D02*
X210283296Y-92549680D01*
X211088586Y-93119078D02*
X211094202Y-93113243D01*
X210276178Y-92545186D02*
X210276272Y-92545737D01*
X211106479Y-94699819D02*
X211077490Y-94680426D01*
X210777803Y-90093782D02*
X210819548Y-90179330D01*
X212308129Y-92776666D02*
X212307913Y-92929229D01*
X211363254Y-93312129D02*
X211359170Y-93319165D01*
X210858525Y-90266859D02*
X210858525Y-90266859D01*
X208217751Y-94685004D02*
X208093150Y-94678222D01*
X210757218Y-92110766D02*
X210722794Y-92151487D01*
X209545927Y-88704760D02*
X209692643Y-88817534D01*
X211214125Y-93064033D02*
X211214125Y-93064033D01*
X210600823Y-92654668D02*
X210631513Y-92662397D01*
X211213386Y-94780276D02*
X211187859Y-94759735D01*
X211047973Y-93198185D02*
X211049867Y-93190057D01*
X211380278Y-93265905D02*
X211378384Y-93274034D01*
X210283296Y-92549680D02*
X210306733Y-92559556D01*
X209230010Y-93526683D02*
X209099907Y-93573022D01*
X210162349Y-92547336D02*
X210158158Y-92568590D01*
X210135932Y-92525827D02*
X210070095Y-92544987D01*
X211083255Y-93338916D02*
X211078221Y-93332569D01*
X210647796Y-92665662D02*
X210665118Y-92667897D01*
X210391238Y-92590496D02*
X210446645Y-92609079D01*
X210733552Y-90010268D02*
X210777803Y-90093782D01*
X211014994Y-91398464D02*
X210997261Y-91524018D01*
X211051388Y-92659955D02*
X211080347Y-92662757D01*
X211163692Y-93071587D02*
X211171740Y-93069322D01*
X210977951Y-90335043D02*
X211051360Y-90399217D01*
X211028102Y-91139429D02*
X211025213Y-91269895D01*
X211188297Y-93065969D02*
X211196785Y-93064900D01*
X211052152Y-93282006D02*
X211049867Y-93274034D01*
X210536774Y-89697575D02*
X210588408Y-89772440D01*
X211294966Y-93379778D02*
X211287653Y-93383488D01*
X209705203Y-93229831D02*
X209650820Y-93277235D01*
X211222853Y-93399838D02*
X211214125Y-93400056D01*
X211126183Y-93088357D02*
X211133285Y-93084311D01*
X211956579Y-91480884D02*
X212002713Y-91563100D01*
X211373432Y-93174277D02*
X211376098Y-93182084D01*
X210631513Y-92662397D02*
X210647796Y-92665662D01*
X210940099Y-94601398D02*
X210885553Y-94575638D01*
X211119302Y-93371362D02*
X211112652Y-93366678D01*
X211133285Y-93379778D02*
X211126183Y-93375733D01*
X211378384Y-93274034D02*
X211376098Y-93282006D01*
X211047973Y-93265905D02*
X211046482Y-93257632D01*
X206817764Y-92881207D02*
X206773651Y-92825691D01*
X211140598Y-93080601D02*
X211148110Y-93077236D01*
X211378384Y-93190057D02*
X211380278Y-93198185D01*
X211328159Y-93356410D02*
X211322005Y-93361690D01*
X211287653Y-93383488D02*
X211280140Y-93386853D01*
X211023845Y-91008182D02*
X211028102Y-91139429D01*
X210023922Y-92852500D02*
X210003921Y-92882116D01*
X211134484Y-94719504D02*
X211106479Y-94699819D01*
X206614294Y-94073453D02*
X206533436Y-93996742D01*
X210789465Y-92067477D02*
X210757218Y-92110766D01*
X210560757Y-90475802D02*
X210573157Y-90517110D01*
X211837834Y-93744876D02*
X211860631Y-93768876D01*
X211309590Y-94865199D02*
X211286267Y-94843561D01*
X212002180Y-93888561D02*
X212039117Y-93914710D01*
X210601952Y-90635238D02*
X210615010Y-90705406D01*
X211442427Y-92815764D02*
X211472623Y-92842050D01*
X211187859Y-94759735D02*
X211161585Y-94739477D01*
G36*
X208711519Y-88708366D02*
G01*
X208734889Y-88709652D01*
X208757715Y-88711780D01*
X208779981Y-88714736D01*
X208801672Y-88718507D01*
X208822773Y-88723079D01*
X208843269Y-88728439D01*
X208863146Y-88734574D01*
X208882387Y-88741470D01*
X208900979Y-88749113D01*
X208918906Y-88757491D01*
X208936153Y-88766590D01*
X208952705Y-88776397D01*
X208968547Y-88786899D01*
X208983664Y-88798081D01*
X208998042Y-88809930D01*
X209011664Y-88822434D01*
X209024516Y-88835579D01*
X209036583Y-88849351D01*
X209047851Y-88863738D01*
X209058303Y-88878725D01*
X209067925Y-88894300D01*
X209076702Y-88910448D01*
X209084618Y-88927157D01*
X209091660Y-88944414D01*
X209097811Y-88962204D01*
X209103058Y-88980515D01*
X209107384Y-88999333D01*
X209110775Y-89018645D01*
X209113215Y-89038437D01*
X209114691Y-89058696D01*
X209115186Y-89079409D01*
X209114917Y-89093379D01*
X209114116Y-89107056D01*
X209112791Y-89120430D01*
X209110953Y-89133490D01*
X209108608Y-89146227D01*
X209105768Y-89158632D01*
X209102440Y-89170693D01*
X209098633Y-89182402D01*
X209094356Y-89193749D01*
X209089619Y-89204723D01*
X209084430Y-89215316D01*
X209078797Y-89225516D01*
X209072731Y-89235315D01*
X209066240Y-89244703D01*
X209059332Y-89253668D01*
X209052017Y-89262203D01*
X209044303Y-89270297D01*
X209036200Y-89277939D01*
X209027716Y-89285121D01*
X209018861Y-89291833D01*
X209009643Y-89298064D01*
X209000071Y-89303805D01*
X208990154Y-89309045D01*
X208979901Y-89313776D01*
X208969321Y-89317987D01*
X208958423Y-89321669D01*
X208947215Y-89324811D01*
X208935707Y-89327404D01*
X208923908Y-89329437D01*
X208911826Y-89330902D01*
X208899471Y-89331788D01*
X208886851Y-89332086D01*
X208873014Y-89331577D01*
X208859702Y-89330092D01*
X208846871Y-89327697D01*
X208834477Y-89324458D01*
X208822476Y-89320437D01*
X208810823Y-89315702D01*
X208799475Y-89310317D01*
X208788388Y-89304346D01*
X208766820Y-89290909D01*
X208745766Y-89275913D01*
X208703792Y-89243318D01*
X208682167Y-89226761D01*
X208659647Y-89210724D01*
X208635880Y-89195727D01*
X208623419Y-89188781D01*
X208610514Y-89182290D01*
X208597121Y-89176319D01*
X208583196Y-89170934D01*
X208568694Y-89166199D01*
X208553573Y-89162179D01*
X208537788Y-89158939D01*
X208521294Y-89156544D01*
X208504049Y-89155059D01*
X208486007Y-89154550D01*
X208470000Y-89155017D01*
X208454331Y-89156409D01*
X208439011Y-89158712D01*
X208424052Y-89161909D01*
X208409464Y-89165988D01*
X208395260Y-89170932D01*
X208381449Y-89176728D01*
X208368044Y-89183361D01*
X208355055Y-89190815D01*
X208342493Y-89199077D01*
X208330370Y-89208132D01*
X208318696Y-89217965D01*
X208307483Y-89228561D01*
X208296742Y-89239905D01*
X208286485Y-89251984D01*
X208276721Y-89264782D01*
X208267463Y-89278285D01*
X208258722Y-89292477D01*
X208242833Y-89322873D01*
X208229144Y-89355853D01*
X208217744Y-89391298D01*
X208208722Y-89429093D01*
X208202168Y-89469118D01*
X208198170Y-89511258D01*
X208196817Y-89555394D01*
X208196817Y-90661087D01*
X208197064Y-90668873D01*
X208197793Y-90676311D01*
X208198989Y-90683407D01*
X208200634Y-90690167D01*
X208202713Y-90696600D01*
X208205208Y-90702710D01*
X208208103Y-90708505D01*
X208211382Y-90713992D01*
X208215027Y-90719176D01*
X208219023Y-90724066D01*
X208223354Y-90728667D01*
X208228001Y-90732985D01*
X208232950Y-90737029D01*
X208238183Y-90740804D01*
X208243684Y-90744316D01*
X208249436Y-90747573D01*
X208261629Y-90753348D01*
X208274629Y-90758180D01*
X208288304Y-90762123D01*
X208302522Y-90765230D01*
X208317151Y-90767554D01*
X208332059Y-90769149D01*
X208347113Y-90770066D01*
X208362182Y-90770360D01*
X208372080Y-90770248D01*
X208381736Y-90769910D01*
X208391157Y-90769342D01*
X208400348Y-90768541D01*
X208409316Y-90767505D01*
X208418067Y-90766230D01*
X208426607Y-90764714D01*
X208434942Y-90762952D01*
X208534526Y-90741800D01*
X208629876Y-90713959D01*
X208720690Y-90679578D01*
X208764301Y-90659979D01*
X208806665Y-90638801D01*
X208847744Y-90616060D01*
X208887500Y-90591774D01*
X208925895Y-90565964D01*
X208962891Y-90538645D01*
X208998451Y-90509837D01*
X209032537Y-90479559D01*
X209065111Y-90447827D01*
X209096136Y-90414661D01*
X209125573Y-90380079D01*
X209153384Y-90344099D01*
X209179533Y-90306740D01*
X209203980Y-90268019D01*
X209226689Y-90227955D01*
X209247622Y-90186566D01*
X209266740Y-90143870D01*
X209284006Y-90099886D01*
X209299383Y-90054632D01*
X209312832Y-90008126D01*
X209324315Y-89960387D01*
X209333796Y-89911432D01*
X209341235Y-89861280D01*
X209346596Y-89809950D01*
X209349840Y-89757459D01*
X209350929Y-89703825D01*
X209350222Y-89662108D01*
X209348112Y-89620813D01*
X209344616Y-89579965D01*
X209339751Y-89539590D01*
X209333534Y-89499712D01*
X209325982Y-89460357D01*
X209317113Y-89421550D01*
X209306942Y-89383316D01*
X209295489Y-89345681D01*
X209282768Y-89308669D01*
X209268798Y-89272306D01*
X209253596Y-89236617D01*
X209237178Y-89201627D01*
X209219562Y-89167362D01*
X209200764Y-89133846D01*
X209180802Y-89101105D01*
X209180802Y-89009030D01*
X209206104Y-89045534D01*
X209229998Y-89083095D01*
X209252454Y-89121684D01*
X209273440Y-89161272D01*
X209292925Y-89201831D01*
X209310878Y-89243331D01*
X209327269Y-89285745D01*
X209342066Y-89329043D01*
X209355238Y-89373197D01*
X209366755Y-89418178D01*
X209376585Y-89463957D01*
X209384697Y-89510506D01*
X209391061Y-89557796D01*
X209395644Y-89605798D01*
X209398417Y-89654484D01*
X209399348Y-89703825D01*
X209397829Y-89768229D01*
X209393311Y-89831143D01*
X209385858Y-89892529D01*
X209375531Y-89952353D01*
X209362393Y-90010577D01*
X209346506Y-90067165D01*
X209327933Y-90122081D01*
X209306736Y-90175288D01*
X209282977Y-90226751D01*
X209256718Y-90276432D01*
X209228022Y-90324296D01*
X209196951Y-90370306D01*
X209163568Y-90414425D01*
X209127934Y-90456619D01*
X209090112Y-90496849D01*
X209050165Y-90535080D01*
X209008154Y-90571276D01*
X208964141Y-90605400D01*
X208918190Y-90637415D01*
X208870363Y-90667286D01*
X208820721Y-90694976D01*
X208769327Y-90720449D01*
X208716244Y-90743669D01*
X208661533Y-90764598D01*
X208605257Y-90783201D01*
X208547479Y-90799442D01*
X208488260Y-90813284D01*
X208427663Y-90824691D01*
X208365750Y-90833626D01*
X208302584Y-90840053D01*
X208238227Y-90843936D01*
X208172740Y-90845238D01*
X208171181Y-90845196D01*
X208169679Y-90845072D01*
X208168234Y-90844871D01*
X208166844Y-90844594D01*
X208165510Y-90844247D01*
X208164230Y-90843832D01*
X208163005Y-90843354D01*
X208161835Y-90842815D01*
X208160717Y-90842220D01*
X208159653Y-90841572D01*
X208158641Y-90840875D01*
X208157681Y-90840131D01*
X208156772Y-90839346D01*
X208155915Y-90838521D01*
X208155108Y-90837662D01*
X208154352Y-90836771D01*
X208153645Y-90835852D01*
X208152987Y-90834909D01*
X208152378Y-90833945D01*
X208151817Y-90832964D01*
X208150837Y-90830965D01*
X208150044Y-90828941D01*
X208149434Y-90826919D01*
X208149003Y-90824930D01*
X208148748Y-90823001D01*
X208148663Y-90821161D01*
X208148663Y-89548250D01*
X208149292Y-89501377D01*
X208151167Y-89455533D01*
X208154266Y-89410747D01*
X208158571Y-89367050D01*
X208164061Y-89324473D01*
X208170717Y-89283044D01*
X208178518Y-89242794D01*
X208187445Y-89203754D01*
X208197478Y-89165953D01*
X208208597Y-89129422D01*
X208220781Y-89094191D01*
X208234011Y-89060289D01*
X208248268Y-89027748D01*
X208263531Y-88996596D01*
X208279780Y-88966865D01*
X208296995Y-88938584D01*
X208315157Y-88911784D01*
X208334245Y-88886494D01*
X208354240Y-88862745D01*
X208375122Y-88840567D01*
X208396871Y-88819991D01*
X208419466Y-88801045D01*
X208442889Y-88783761D01*
X208467118Y-88768168D01*
X208492135Y-88754297D01*
X208517919Y-88742177D01*
X208544450Y-88731839D01*
X208571709Y-88723314D01*
X208599675Y-88716630D01*
X208628329Y-88711819D01*
X208657650Y-88708910D01*
X208687619Y-88707934D01*
X208711519Y-88708366D01*
G37*
G36*
X206899830Y-76132289D02*
G01*
X206900069Y-76160379D01*
X206900775Y-76186839D01*
X206901932Y-76211716D01*
X206903524Y-76235062D01*
X206905534Y-76256924D01*
X206907945Y-76277354D01*
X206910741Y-76296400D01*
X206913906Y-76314112D01*
X206917424Y-76330538D01*
X206921277Y-76345730D01*
X206925450Y-76359735D01*
X206929925Y-76372605D01*
X206934688Y-76384387D01*
X206939720Y-76395132D01*
X206945007Y-76404888D01*
X206950530Y-76413706D01*
X206956275Y-76421636D01*
X206962224Y-76428725D01*
X206968361Y-76435024D01*
X206974670Y-76440583D01*
X206981134Y-76445450D01*
X206987737Y-76449676D01*
X206994462Y-76453309D01*
X207001293Y-76456399D01*
X207008214Y-76458997D01*
X207015208Y-76461150D01*
X207022258Y-76462908D01*
X207029349Y-76464322D01*
X207043585Y-76466312D01*
X207057786Y-76467516D01*
X210239929Y-76712785D01*
X210261493Y-76713975D01*
X210279890Y-76714794D01*
X210288496Y-76715064D01*
X210295756Y-76715166D01*
X210330680Y-76713922D01*
X210361778Y-76710111D01*
X210375960Y-76707207D01*
X210389267Y-76703617D01*
X210401726Y-76699327D01*
X210413364Y-76694322D01*
X210424208Y-76688588D01*
X210434286Y-76682109D01*
X210443624Y-76674872D01*
X210452249Y-76666862D01*
X210460190Y-76658064D01*
X210467472Y-76648463D01*
X210474124Y-76638045D01*
X210480171Y-76626795D01*
X210485642Y-76614699D01*
X210490563Y-76601742D01*
X210498866Y-76573185D01*
X210505295Y-76541009D01*
X210510069Y-76505095D01*
X210513404Y-76465328D01*
X210515518Y-76421589D01*
X210516627Y-76373763D01*
X210516948Y-76321731D01*
X210553197Y-76321731D01*
X210553197Y-76780783D01*
X210553141Y-76782152D01*
X210552973Y-76783571D01*
X210552693Y-76785031D01*
X210552299Y-76786521D01*
X210551793Y-76788029D01*
X210551173Y-76789545D01*
X210550440Y-76791058D01*
X210549592Y-76792557D01*
X210548629Y-76794031D01*
X210547551Y-76795469D01*
X210546969Y-76796172D01*
X210546357Y-76796861D01*
X210545717Y-76797536D01*
X210545048Y-76798196D01*
X210544350Y-76798838D01*
X210543623Y-76799462D01*
X210542866Y-76800066D01*
X210542080Y-76800649D01*
X210541265Y-76801210D01*
X210540421Y-76801747D01*
X210539548Y-76802258D01*
X210538644Y-76802743D01*
X207453603Y-78257687D01*
X207447029Y-78260835D01*
X207440899Y-78263930D01*
X207435211Y-78266977D01*
X207429960Y-78269978D01*
X207425145Y-78272937D01*
X207420763Y-78275858D01*
X207416811Y-78278744D01*
X207414996Y-78280175D01*
X207413287Y-78281599D01*
X207411684Y-78283015D01*
X207410188Y-78284426D01*
X207408796Y-78285830D01*
X207407510Y-78287228D01*
X207406329Y-78288621D01*
X207405252Y-78290009D01*
X207404280Y-78291393D01*
X207403411Y-78292773D01*
X207402645Y-78294150D01*
X207401983Y-78295523D01*
X207401424Y-78296894D01*
X207400967Y-78298263D01*
X207400612Y-78299630D01*
X207400359Y-78300995D01*
X207400208Y-78302360D01*
X207400157Y-78303724D01*
X207400359Y-78306483D01*
X207400967Y-78309300D01*
X207401983Y-78312170D01*
X207403411Y-78315089D01*
X207405252Y-78318053D01*
X207407510Y-78321058D01*
X207410188Y-78324100D01*
X207413287Y-78327173D01*
X207416811Y-78330275D01*
X207420763Y-78333400D01*
X207425145Y-78336544D01*
X207429960Y-78339704D01*
X207435211Y-78342874D01*
X207440899Y-78346051D01*
X207447029Y-78349230D01*
X207453603Y-78352408D01*
X210538644Y-79785655D01*
X210539547Y-79786116D01*
X210540421Y-79786605D01*
X210541265Y-79787121D01*
X210542080Y-79787662D01*
X210542866Y-79788227D01*
X210543622Y-79788814D01*
X210544350Y-79789422D01*
X210545048Y-79790050D01*
X210546357Y-79791359D01*
X210547551Y-79792730D01*
X210548629Y-79794150D01*
X210549591Y-79795610D01*
X210550439Y-79797098D01*
X210551173Y-79798603D01*
X210551793Y-79800113D01*
X210552299Y-79801617D01*
X210552692Y-79803105D01*
X210552973Y-79804564D01*
X210553140Y-79805983D01*
X210553196Y-79807352D01*
X210553196Y-80256879D01*
X210516948Y-80256879D01*
X210516600Y-80204381D01*
X210515416Y-80156147D01*
X210513185Y-80112055D01*
X210509697Y-80071985D01*
X210507417Y-80053420D01*
X210504743Y-80035815D01*
X210501650Y-80019155D01*
X210498112Y-80003425D01*
X210494103Y-79988609D01*
X210489595Y-79974693D01*
X210484563Y-79961661D01*
X210478981Y-79949499D01*
X210472822Y-79938191D01*
X210466060Y-79927722D01*
X210458668Y-79918077D01*
X210450622Y-79909241D01*
X210441893Y-79901199D01*
X210432457Y-79893935D01*
X210422286Y-79887435D01*
X210411355Y-79881683D01*
X210399637Y-79876664D01*
X210387106Y-79872364D01*
X210373736Y-79868767D01*
X210359500Y-79865858D01*
X210344372Y-79863621D01*
X210328326Y-79862042D01*
X210311336Y-79861106D01*
X210293375Y-79860797D01*
X210286115Y-79860911D01*
X210277509Y-79861211D01*
X210259112Y-79862120D01*
X210237548Y-79863443D01*
X207679557Y-80065056D01*
X207531729Y-80079288D01*
X207388355Y-80098607D01*
X207250135Y-80123368D01*
X207117772Y-80153927D01*
X207054006Y-80171491D01*
X206991966Y-80190639D01*
X206931742Y-80211413D01*
X206873420Y-80233859D01*
X206817088Y-80258021D01*
X206762834Y-80283944D01*
X206710746Y-80311671D01*
X206660911Y-80341248D01*
X206613417Y-80372718D01*
X206568351Y-80406126D01*
X206525802Y-80441517D01*
X206485857Y-80478935D01*
X206448604Y-80518424D01*
X206414129Y-80560029D01*
X206382522Y-80603794D01*
X206353870Y-80649764D01*
X206328260Y-80697983D01*
X206305781Y-80748496D01*
X206286519Y-80801346D01*
X206270563Y-80856579D01*
X206258000Y-80914239D01*
X206248917Y-80974369D01*
X206243404Y-81037016D01*
X206241546Y-81102222D01*
X206241846Y-81120333D01*
X206242720Y-81137780D01*
X206244130Y-81154599D01*
X206246037Y-81170824D01*
X206248404Y-81186491D01*
X206251191Y-81201635D01*
X206257876Y-81230496D01*
X206265786Y-81257688D01*
X206274614Y-81283495D01*
X206284055Y-81308198D01*
X206293802Y-81332079D01*
X206312989Y-81378505D01*
X206321818Y-81401614D01*
X206329727Y-81425031D01*
X206336412Y-81449036D01*
X206339200Y-81461347D01*
X206341566Y-81473912D01*
X206343474Y-81486765D01*
X206344883Y-81499942D01*
X206345757Y-81513478D01*
X206346057Y-81527408D01*
X206345697Y-81542797D01*
X206344629Y-81557997D01*
X206342870Y-81572987D01*
X206340437Y-81587747D01*
X206337348Y-81602259D01*
X206333620Y-81616502D01*
X206329270Y-81630458D01*
X206324316Y-81644105D01*
X206318774Y-81657426D01*
X206312663Y-81670400D01*
X206305999Y-81683008D01*
X206298799Y-81695230D01*
X206291082Y-81707047D01*
X206282864Y-81718438D01*
X206274163Y-81729385D01*
X206264995Y-81739868D01*
X206255379Y-81749867D01*
X206245331Y-81759363D01*
X206234869Y-81768336D01*
X206224010Y-81776767D01*
X206212772Y-81784636D01*
X206201171Y-81791923D01*
X206189225Y-81798609D01*
X206176951Y-81804675D01*
X206164367Y-81810100D01*
X206151490Y-81814865D01*
X206138336Y-81818951D01*
X206124925Y-81822338D01*
X206111272Y-81825006D01*
X206097395Y-81826936D01*
X206083311Y-81828108D01*
X206069038Y-81828504D01*
X206050024Y-81827854D01*
X206031246Y-81825925D01*
X206012729Y-81822749D01*
X205994496Y-81818356D01*
X205976572Y-81812779D01*
X205958981Y-81806047D01*
X205941747Y-81798192D01*
X205924894Y-81789246D01*
X205908446Y-81779239D01*
X205892426Y-81768204D01*
X205876860Y-81756170D01*
X205861772Y-81743169D01*
X205847184Y-81729233D01*
X205833122Y-81714392D01*
X205806670Y-81682123D01*
X205782609Y-81646610D01*
X205761132Y-81608103D01*
X205742430Y-81566853D01*
X205726696Y-81523108D01*
X205714123Y-81477118D01*
X205704904Y-81429134D01*
X205699232Y-81379403D01*
X205697298Y-81328176D01*
X205699471Y-81247479D01*
X205705943Y-81169810D01*
X205716640Y-81095122D01*
X205731491Y-81023369D01*
X205750425Y-80954503D01*
X205773368Y-80888476D01*
X205800249Y-80825243D01*
X205830995Y-80764754D01*
X205865536Y-80706964D01*
X205903797Y-80651825D01*
X205945708Y-80599290D01*
X205991197Y-80549312D01*
X206040190Y-80501843D01*
X206092617Y-80456837D01*
X206148404Y-80414246D01*
X206207481Y-80374023D01*
X206335213Y-80300491D01*
X206475235Y-80235866D01*
X206626972Y-80179768D01*
X206789845Y-80131821D01*
X206963280Y-80091648D01*
X207146698Y-80058870D01*
X207339523Y-80033110D01*
X207541179Y-80013991D01*
X210431752Y-79790418D01*
X207349356Y-78357170D01*
X207341417Y-78354109D01*
X207332335Y-78351274D01*
X207322339Y-78348660D01*
X207311657Y-78346265D01*
X207300519Y-78344083D01*
X207289151Y-78342111D01*
X207266641Y-78338782D01*
X207245955Y-78336247D01*
X207228917Y-78334474D01*
X207213096Y-78333093D01*
X207213096Y-78265095D01*
X207229587Y-78264045D01*
X207247210Y-78262612D01*
X207268427Y-78260465D01*
X207291244Y-78257525D01*
X207302629Y-78255732D01*
X207313667Y-78253710D01*
X207324107Y-78251450D01*
X207333702Y-78248940D01*
X207342201Y-78246172D01*
X207349356Y-78243135D01*
X210453712Y-76778402D01*
X207052758Y-76515935D01*
X207028681Y-76515935D01*
X207015593Y-76516360D01*
X207002862Y-76517850D01*
X206990558Y-76520722D01*
X206978745Y-76525299D01*
X206967493Y-76531898D01*
X206956867Y-76540840D01*
X206946935Y-76552445D01*
X206937764Y-76567033D01*
X206929421Y-76584922D01*
X206921972Y-76606433D01*
X206915486Y-76631886D01*
X206910028Y-76661600D01*
X206905667Y-76695896D01*
X206902469Y-76735092D01*
X206900500Y-76779509D01*
X206899830Y-76829466D01*
X206899830Y-77101458D01*
X206860936Y-77101458D01*
X206860936Y-76078843D01*
X206899830Y-76078843D01*
X206899830Y-76132289D01*
G37*
G36*
X208638936Y-88603424D02*
G01*
X208638934Y-88603423D01*
X208638935Y-88603423D01*
X208638936Y-88603424D01*
G37*
G36*
X208160354Y-88514097D02*
G01*
X208195745Y-88515196D01*
X208230520Y-88517019D01*
X208264707Y-88519559D01*
X208298333Y-88522808D01*
X208331425Y-88526761D01*
X208364009Y-88531410D01*
X208396114Y-88536748D01*
X208427767Y-88542769D01*
X208458993Y-88549464D01*
X208489821Y-88556827D01*
X208520278Y-88564852D01*
X208550391Y-88573531D01*
X208580187Y-88582857D01*
X208609693Y-88592824D01*
X208638934Y-88603423D01*
X208556385Y-88637554D01*
X208506707Y-88622986D01*
X208456021Y-88610261D01*
X208404213Y-88599408D01*
X208351168Y-88590459D01*
X208296770Y-88583444D01*
X208240907Y-88578396D01*
X208183462Y-88575344D01*
X208124321Y-88574319D01*
X208058391Y-88575642D01*
X207993645Y-88579577D01*
X207930143Y-88586079D01*
X207867943Y-88595100D01*
X207807106Y-88606593D01*
X207747691Y-88620511D01*
X207689758Y-88636808D01*
X207633366Y-88655435D01*
X207578575Y-88676346D01*
X207525445Y-88699494D01*
X207474035Y-88724832D01*
X207424405Y-88752313D01*
X207376615Y-88781890D01*
X207330724Y-88813515D01*
X207286792Y-88847142D01*
X207244879Y-88882724D01*
X207205044Y-88920214D01*
X207167346Y-88959564D01*
X207131846Y-89000728D01*
X207098603Y-89043658D01*
X207067677Y-89088307D01*
X207039127Y-89134629D01*
X207013013Y-89182577D01*
X206989395Y-89232103D01*
X206968332Y-89283160D01*
X206949884Y-89335701D01*
X206934110Y-89389679D01*
X206921071Y-89445048D01*
X206910826Y-89501760D01*
X206903433Y-89559768D01*
X206898954Y-89619025D01*
X206897448Y-89679484D01*
X206898141Y-89730329D01*
X206900201Y-89779933D01*
X206903601Y-89828306D01*
X206908311Y-89875460D01*
X206914305Y-89921406D01*
X206921553Y-89966155D01*
X206930029Y-90009719D01*
X206939703Y-90052108D01*
X206950548Y-90093333D01*
X206962536Y-90133406D01*
X206975639Y-90172338D01*
X206989829Y-90210139D01*
X207005077Y-90246822D01*
X207021356Y-90282397D01*
X207038637Y-90316875D01*
X207056893Y-90350268D01*
X207076095Y-90382587D01*
X207096216Y-90413842D01*
X207117227Y-90444045D01*
X207139100Y-90473208D01*
X207161808Y-90501340D01*
X207185321Y-90528454D01*
X207209613Y-90554560D01*
X207234655Y-90579670D01*
X207260419Y-90603795D01*
X207286878Y-90626946D01*
X207314002Y-90649134D01*
X207341764Y-90670370D01*
X207399089Y-90710031D01*
X207458629Y-90746019D01*
X207434288Y-90789675D01*
X207372079Y-90752180D01*
X207312210Y-90710696D01*
X207254911Y-90665168D01*
X207200413Y-90615538D01*
X207148948Y-90561751D01*
X207100746Y-90503749D01*
X207056038Y-90441476D01*
X207015056Y-90374875D01*
X206978030Y-90303890D01*
X206945191Y-90228465D01*
X206916771Y-90148541D01*
X206893000Y-90064064D01*
X206874110Y-89974977D01*
X206860330Y-89881222D01*
X206851893Y-89782743D01*
X206849030Y-89679484D01*
X206850613Y-89616081D01*
X206855317Y-89553899D01*
X206863079Y-89492989D01*
X206873832Y-89433405D01*
X206887512Y-89375197D01*
X206904052Y-89318418D01*
X206923388Y-89263119D01*
X206945454Y-89209352D01*
X206970185Y-89157170D01*
X206997515Y-89106625D01*
X207027380Y-89057767D01*
X207059715Y-89010650D01*
X207094452Y-88965325D01*
X207131528Y-88921844D01*
X207170878Y-88880259D01*
X207212435Y-88840622D01*
X207256135Y-88802985D01*
X207301911Y-88767400D01*
X207349700Y-88733918D01*
X207399435Y-88702593D01*
X207451052Y-88673474D01*
X207504485Y-88646616D01*
X207559668Y-88622068D01*
X207616536Y-88599885D01*
X207675025Y-88580116D01*
X207735068Y-88562815D01*
X207796601Y-88548033D01*
X207859558Y-88535822D01*
X207923874Y-88526235D01*
X207989483Y-88519322D01*
X208056321Y-88515136D01*
X208124321Y-88513730D01*
X208160354Y-88514097D01*
G37*
G36*
X208192709Y-80683512D02*
G01*
X208260116Y-80687822D01*
X208326216Y-80694936D01*
X208390947Y-80704801D01*
X208454249Y-80717359D01*
X208516061Y-80732556D01*
X208576321Y-80750337D01*
X208634967Y-80770645D01*
X208691940Y-80793426D01*
X208747176Y-80818623D01*
X208800616Y-80846182D01*
X208852198Y-80876047D01*
X208901861Y-80908162D01*
X208949543Y-80942473D01*
X208995184Y-80978922D01*
X209038721Y-81017456D01*
X209080095Y-81058018D01*
X209119243Y-81100554D01*
X209156104Y-81145007D01*
X209190617Y-81191322D01*
X209222721Y-81239444D01*
X209252355Y-81289317D01*
X209279457Y-81340886D01*
X209303966Y-81394095D01*
X209325821Y-81448888D01*
X209344961Y-81505212D01*
X209361324Y-81563009D01*
X209374850Y-81622224D01*
X209385476Y-81682802D01*
X209393142Y-81744688D01*
X209397787Y-81807825D01*
X209399348Y-81872159D01*
X209398577Y-81923106D01*
X209396280Y-81972935D01*
X209392482Y-82021614D01*
X209387206Y-82069111D01*
X209380477Y-82115394D01*
X209372320Y-82160430D01*
X209362759Y-82204186D01*
X209351818Y-82246632D01*
X209339522Y-82287733D01*
X209325895Y-82327459D01*
X209310961Y-82365776D01*
X209294745Y-82402653D01*
X209277272Y-82438056D01*
X209258564Y-82471955D01*
X209238648Y-82504315D01*
X209217547Y-82535106D01*
X209195285Y-82564295D01*
X209171887Y-82591849D01*
X209147378Y-82617736D01*
X209121781Y-82641924D01*
X209095122Y-82664380D01*
X209067424Y-82685073D01*
X209038712Y-82703970D01*
X209009009Y-82721038D01*
X208978342Y-82736245D01*
X208946733Y-82749560D01*
X208914208Y-82760949D01*
X208880790Y-82770380D01*
X208846505Y-82777822D01*
X208811376Y-82783241D01*
X208775427Y-82786605D01*
X208738684Y-82787883D01*
X208714807Y-82787508D01*
X208691457Y-82786391D01*
X208668649Y-82784544D01*
X208646399Y-82781978D01*
X208624720Y-82778705D01*
X208603629Y-82774736D01*
X208583140Y-82770083D01*
X208563269Y-82764756D01*
X208544031Y-82758769D01*
X208525441Y-82752132D01*
X208507515Y-82744857D01*
X208490266Y-82736956D01*
X208473712Y-82728439D01*
X208457866Y-82719319D01*
X208442744Y-82709606D01*
X208428361Y-82699313D01*
X208414732Y-82688452D01*
X208401873Y-82677032D01*
X208389798Y-82665067D01*
X208378522Y-82652568D01*
X208368062Y-82639546D01*
X208358432Y-82626012D01*
X208349647Y-82611979D01*
X208341722Y-82597457D01*
X208334673Y-82582459D01*
X208328515Y-82566995D01*
X208323262Y-82551078D01*
X208318930Y-82534719D01*
X208315535Y-82517929D01*
X208313091Y-82500720D01*
X208311613Y-82483104D01*
X208311117Y-82465091D01*
X208311443Y-82450441D01*
X208312415Y-82436113D01*
X208314020Y-82422117D01*
X208316249Y-82408463D01*
X208319090Y-82395158D01*
X208322534Y-82382214D01*
X208326569Y-82369639D01*
X208331184Y-82357443D01*
X208336369Y-82345635D01*
X208342114Y-82334224D01*
X208348406Y-82323219D01*
X208355236Y-82312631D01*
X208362592Y-82302468D01*
X208370465Y-82292739D01*
X208378842Y-82283455D01*
X208387714Y-82274624D01*
X208397070Y-82266256D01*
X208406899Y-82258360D01*
X208417190Y-82250946D01*
X208427932Y-82244022D01*
X208439115Y-82237598D01*
X208450728Y-82231684D01*
X208462760Y-82226289D01*
X208475201Y-82221422D01*
X208488039Y-82217093D01*
X208501264Y-82213310D01*
X208514865Y-82210084D01*
X208528831Y-82207423D01*
X208543153Y-82205338D01*
X208557818Y-82203837D01*
X208572816Y-82202929D01*
X208588136Y-82202624D01*
X208600322Y-82203022D01*
X208612285Y-82204181D01*
X208624045Y-82206051D01*
X208635622Y-82208582D01*
X208647036Y-82211721D01*
X208658305Y-82215419D01*
X208680488Y-82224287D01*
X208702329Y-82234780D01*
X208723984Y-82246491D01*
X208767359Y-82271945D01*
X208789391Y-82284875D01*
X208811862Y-82297399D01*
X208834927Y-82309110D01*
X208858743Y-82319603D01*
X208870981Y-82324266D01*
X208883466Y-82328472D01*
X208896216Y-82332169D01*
X208909252Y-82335309D01*
X208922593Y-82337839D01*
X208936258Y-82339709D01*
X208950266Y-82340868D01*
X208964638Y-82341266D01*
X208986069Y-82340511D01*
X209007041Y-82338704D01*
X209027541Y-82335860D01*
X209047554Y-82331994D01*
X209067065Y-82327122D01*
X209086060Y-82321260D01*
X209104523Y-82314423D01*
X209122442Y-82306626D01*
X209139800Y-82297886D01*
X209156584Y-82288218D01*
X209172778Y-82277637D01*
X209188369Y-82266159D01*
X209203341Y-82253799D01*
X209217681Y-82240574D01*
X209231373Y-82226498D01*
X209244402Y-82211587D01*
X209256755Y-82195857D01*
X209268417Y-82179323D01*
X209279373Y-82162001D01*
X209289608Y-82143906D01*
X209299109Y-82125054D01*
X209307859Y-82105460D01*
X209315846Y-82085141D01*
X209323054Y-82064111D01*
X209329468Y-82042386D01*
X209335075Y-82019981D01*
X209339859Y-81996913D01*
X209343805Y-81973197D01*
X209349130Y-81923881D01*
X209350930Y-81872159D01*
X209349431Y-81811002D01*
X209344974Y-81750993D01*
X209337616Y-81692184D01*
X209327416Y-81634627D01*
X209314431Y-81578374D01*
X209298721Y-81523477D01*
X209280343Y-81469989D01*
X209259355Y-81417961D01*
X209235816Y-81367445D01*
X209209784Y-81318494D01*
X209181317Y-81271159D01*
X209150473Y-81225492D01*
X209117310Y-81181546D01*
X209081887Y-81139372D01*
X209044261Y-81099023D01*
X209004491Y-81060550D01*
X208962636Y-81024006D01*
X208918753Y-80989442D01*
X208872900Y-80956912D01*
X208825135Y-80926465D01*
X208775518Y-80898156D01*
X208724106Y-80872035D01*
X208670956Y-80848155D01*
X208616129Y-80826568D01*
X208559680Y-80807325D01*
X208501670Y-80790479D01*
X208442155Y-80776083D01*
X208381195Y-80764187D01*
X208318846Y-80754844D01*
X208255169Y-80748106D01*
X208190220Y-80744025D01*
X208124057Y-80742653D01*
X208057918Y-80744032D01*
X207992990Y-80748132D01*
X207929329Y-80754901D01*
X207866996Y-80764285D01*
X207806048Y-80776230D01*
X207746543Y-80790684D01*
X207688540Y-80807592D01*
X207632098Y-80826902D01*
X207577273Y-80848561D01*
X207524126Y-80872515D01*
X207472714Y-80898710D01*
X207423095Y-80927093D01*
X207375328Y-80957612D01*
X207329472Y-80990212D01*
X207285584Y-81024840D01*
X207243722Y-81061443D01*
X207203946Y-81099968D01*
X207166313Y-81140361D01*
X207130882Y-81182569D01*
X207097711Y-81226538D01*
X207066859Y-81272216D01*
X207038383Y-81319549D01*
X207012343Y-81368483D01*
X206988796Y-81418965D01*
X206967801Y-81470943D01*
X206949416Y-81524362D01*
X206933699Y-81579169D01*
X206920709Y-81635310D01*
X206910504Y-81692734D01*
X206903143Y-81751385D01*
X206898684Y-81811212D01*
X206897184Y-81872159D01*
X206898684Y-81933108D01*
X206903143Y-81992937D01*
X206910504Y-82051592D01*
X206920709Y-82109020D01*
X206933699Y-82165168D01*
X206949416Y-82219982D01*
X206967801Y-82273409D01*
X206988796Y-82325395D01*
X207012343Y-82375887D01*
X207038383Y-82424832D01*
X207066859Y-82472175D01*
X207097711Y-82517864D01*
X207130882Y-82561846D01*
X207166313Y-82604066D01*
X207203946Y-82644471D01*
X207243722Y-82683008D01*
X207285583Y-82719624D01*
X207329471Y-82754265D01*
X207375328Y-82786877D01*
X207423095Y-82817407D01*
X207472714Y-82845802D01*
X207524126Y-82872008D01*
X207577273Y-82895972D01*
X207632097Y-82917640D01*
X207688540Y-82936959D01*
X207746543Y-82953876D01*
X207806047Y-82968337D01*
X207866996Y-82980288D01*
X207929329Y-82989677D01*
X207992989Y-82996449D01*
X208057918Y-83000551D01*
X208124057Y-83001931D01*
X208167579Y-83001335D01*
X208210622Y-82999556D01*
X208253162Y-82996609D01*
X208295180Y-82992509D01*
X208336654Y-82987269D01*
X208377562Y-82980904D01*
X208417884Y-82973428D01*
X208457597Y-82964856D01*
X208496681Y-82955202D01*
X208535114Y-82944479D01*
X208572876Y-82932704D01*
X208609943Y-82919889D01*
X208646297Y-82906050D01*
X208681914Y-82891200D01*
X208716774Y-82875354D01*
X208750855Y-82858526D01*
X208872298Y-82855881D01*
X208833037Y-82879869D01*
X208792659Y-82902503D01*
X208751189Y-82923756D01*
X208708654Y-82943602D01*
X208665076Y-82962015D01*
X208620481Y-82978966D01*
X208574894Y-82994430D01*
X208528340Y-83008380D01*
X208480843Y-83020789D01*
X208432429Y-83031630D01*
X208383121Y-83040876D01*
X208332945Y-83048502D01*
X208281926Y-83054479D01*
X208230089Y-83058782D01*
X208177457Y-83061383D01*
X208124057Y-83062256D01*
X208055429Y-83060800D01*
X207988045Y-83056471D01*
X207921966Y-83049326D01*
X207857254Y-83039421D01*
X207793970Y-83026813D01*
X207732176Y-83011559D01*
X207671931Y-82993715D01*
X207613299Y-82973339D01*
X207556340Y-82950487D01*
X207501116Y-82925216D01*
X207447687Y-82897583D01*
X207396115Y-82867644D01*
X207346462Y-82835457D01*
X207298788Y-82801078D01*
X207253155Y-82764563D01*
X207209624Y-82725970D01*
X207168256Y-82685356D01*
X207129113Y-82642776D01*
X207092257Y-82598289D01*
X207057747Y-82551951D01*
X207025646Y-82503818D01*
X206996015Y-82453947D01*
X206968915Y-82402396D01*
X206944408Y-82349220D01*
X206922554Y-82294477D01*
X206903415Y-82238223D01*
X206887053Y-82180516D01*
X206873528Y-82121411D01*
X206862902Y-82060967D01*
X206855236Y-81999239D01*
X206850591Y-81936284D01*
X206849030Y-81872159D01*
X206850591Y-81808058D01*
X206855236Y-81745124D01*
X206862902Y-81683413D01*
X206873528Y-81622983D01*
X206887053Y-81563891D01*
X206903415Y-81506194D01*
X206922554Y-81449948D01*
X206944408Y-81395211D01*
X206968915Y-81342039D01*
X206996015Y-81290489D01*
X207025646Y-81240619D01*
X207057747Y-81192485D01*
X207092257Y-81146144D01*
X207129113Y-81101652D01*
X207168256Y-81059068D01*
X207209624Y-81018448D01*
X207253155Y-80979849D01*
X207298788Y-80943327D01*
X207346462Y-80908940D01*
X207396115Y-80876745D01*
X207447687Y-80846798D01*
X207501116Y-80819156D01*
X207556340Y-80793877D01*
X207613299Y-80771017D01*
X207671931Y-80750634D01*
X207732176Y-80732783D01*
X207793970Y-80717523D01*
X207857254Y-80704909D01*
X207921966Y-80695000D01*
X207988045Y-80687851D01*
X208055429Y-80683520D01*
X208124057Y-80682064D01*
X208192709Y-80683512D01*
G37*
G36*
X206897184Y-85581618D02*
G01*
X206897368Y-85611947D01*
X206897911Y-85640561D01*
X206898805Y-85667507D01*
X206900039Y-85692836D01*
X206901602Y-85716596D01*
X206903484Y-85738838D01*
X206905675Y-85759611D01*
X206908164Y-85778964D01*
X206910942Y-85796946D01*
X206913998Y-85813607D01*
X206917322Y-85828997D01*
X206920903Y-85843165D01*
X206924732Y-85856159D01*
X206928798Y-85868030D01*
X206933090Y-85878828D01*
X206937599Y-85888601D01*
X206942314Y-85897398D01*
X206947225Y-85905270D01*
X206952322Y-85912266D01*
X206957594Y-85918434D01*
X206963031Y-85923826D01*
X206968623Y-85928489D01*
X206974359Y-85932473D01*
X206980230Y-85935829D01*
X206986225Y-85938604D01*
X206992333Y-85940849D01*
X206998546Y-85942613D01*
X207004851Y-85943946D01*
X207011239Y-85944896D01*
X207017700Y-85945514D01*
X207030799Y-85945949D01*
X209229486Y-85945949D01*
X209245674Y-85945140D01*
X209260532Y-85942662D01*
X209267474Y-85940774D01*
X209274098Y-85938441D01*
X209280409Y-85935653D01*
X209286413Y-85932402D01*
X209292113Y-85928677D01*
X209297515Y-85924469D01*
X209302623Y-85919770D01*
X209307444Y-85914570D01*
X209311981Y-85908858D01*
X209316240Y-85902627D01*
X209323942Y-85888568D01*
X209330590Y-85872316D01*
X209336224Y-85853797D01*
X209340882Y-85832937D01*
X209344604Y-85809660D01*
X209347431Y-85783891D01*
X209349401Y-85755557D01*
X209350554Y-85724582D01*
X209350930Y-85690891D01*
X209350930Y-85630301D01*
X209387178Y-85630301D01*
X209387177Y-85630302D01*
X209387177Y-85690892D01*
X209394321Y-86006540D01*
X208539453Y-86006540D01*
X208531807Y-86006596D01*
X208524373Y-86006768D01*
X208517191Y-86007059D01*
X208510299Y-86007474D01*
X208503735Y-86008016D01*
X208497539Y-86008688D01*
X208491749Y-86009496D01*
X208486404Y-86010442D01*
X208481542Y-86011531D01*
X208479305Y-86012130D01*
X208477203Y-86012766D01*
X208475242Y-86013440D01*
X208473425Y-86014152D01*
X208471759Y-86014902D01*
X208470247Y-86015692D01*
X208468896Y-86016521D01*
X208467708Y-86017390D01*
X208466690Y-86018300D01*
X208465847Y-86019250D01*
X208465182Y-86020242D01*
X208464701Y-86021276D01*
X208464409Y-86022353D01*
X208464311Y-86023472D01*
X208464512Y-86025336D01*
X208465124Y-86027260D01*
X208466161Y-86029246D01*
X208467639Y-86031298D01*
X208469570Y-86033420D01*
X208471971Y-86035616D01*
X208474854Y-86037888D01*
X208478234Y-86040240D01*
X208482126Y-86042677D01*
X208486544Y-86045200D01*
X208491503Y-86047814D01*
X208497016Y-86050522D01*
X208503097Y-86053328D01*
X208509763Y-86056235D01*
X208517025Y-86059246D01*
X208524900Y-86062366D01*
X208615602Y-86101045D01*
X208703388Y-86144943D01*
X208787852Y-86193754D01*
X208868590Y-86247174D01*
X208945196Y-86304895D01*
X209017266Y-86366613D01*
X209084394Y-86432021D01*
X209146175Y-86500814D01*
X209202205Y-86572686D01*
X209252078Y-86647331D01*
X209295390Y-86724443D01*
X209314459Y-86763829D01*
X209331735Y-86803717D01*
X209347168Y-86844069D01*
X209360708Y-86884846D01*
X209372304Y-86926011D01*
X209381905Y-86967525D01*
X209389461Y-87009350D01*
X209394920Y-87051448D01*
X209398233Y-87093781D01*
X209399348Y-87136310D01*
X209398653Y-87184352D01*
X209396569Y-87230988D01*
X209393104Y-87276213D01*
X209388264Y-87320016D01*
X209382055Y-87362392D01*
X209374483Y-87403331D01*
X209365554Y-87442825D01*
X209355275Y-87480868D01*
X209343651Y-87517451D01*
X209330688Y-87552566D01*
X209316394Y-87586205D01*
X209300773Y-87618360D01*
X209283832Y-87649024D01*
X209265578Y-87678188D01*
X209246016Y-87705845D01*
X209225153Y-87731987D01*
X209202995Y-87756605D01*
X209179547Y-87779693D01*
X209154817Y-87801241D01*
X209128809Y-87821243D01*
X209101531Y-87839690D01*
X209072989Y-87856574D01*
X209043188Y-87871887D01*
X209012135Y-87885623D01*
X208979836Y-87897772D01*
X208946296Y-87908326D01*
X208911524Y-87917279D01*
X208875523Y-87924621D01*
X208838302Y-87930346D01*
X208799864Y-87934445D01*
X208760218Y-87936910D01*
X208719369Y-87937733D01*
X207045351Y-87937733D01*
X207021513Y-87937979D01*
X206998227Y-87938707D01*
X206975508Y-87939901D01*
X206953369Y-87941544D01*
X206931822Y-87943621D01*
X206910882Y-87946115D01*
X206890562Y-87949011D01*
X206870875Y-87952293D01*
X206851834Y-87955945D01*
X206833453Y-87959951D01*
X206815745Y-87964294D01*
X206798724Y-87968959D01*
X206782403Y-87973930D01*
X206766795Y-87979191D01*
X206751914Y-87984725D01*
X206737773Y-87990518D01*
X206724385Y-87996552D01*
X206711764Y-88002812D01*
X206699923Y-88009282D01*
X206688876Y-88015945D01*
X206678636Y-88022787D01*
X206669216Y-88029791D01*
X206660630Y-88036940D01*
X206652891Y-88044220D01*
X206646012Y-88051613D01*
X206640007Y-88059105D01*
X206634889Y-88066678D01*
X206630672Y-88074317D01*
X206627369Y-88082006D01*
X206624993Y-88089730D01*
X206623557Y-88097471D01*
X206623076Y-88105215D01*
X206623410Y-88118820D01*
X206624386Y-88131877D01*
X206625960Y-88144423D01*
X206628089Y-88156493D01*
X206630731Y-88168121D01*
X206633844Y-88179344D01*
X206637383Y-88190198D01*
X206641307Y-88200717D01*
X206650138Y-88220894D01*
X206659994Y-88240160D01*
X206670534Y-88258799D01*
X206681416Y-88277094D01*
X206692298Y-88295331D01*
X206702838Y-88313793D01*
X206712694Y-88332765D01*
X206721525Y-88352529D01*
X206725449Y-88362798D01*
X206728989Y-88373371D01*
X206732101Y-88384285D01*
X206734743Y-88395575D01*
X206736872Y-88407276D01*
X206738446Y-88419424D01*
X206739422Y-88432055D01*
X206739757Y-88445203D01*
X206739495Y-88459630D01*
X206738713Y-88473735D01*
X206737421Y-88487509D01*
X206735626Y-88500943D01*
X206733336Y-88514029D01*
X206730558Y-88526756D01*
X206727303Y-88539117D01*
X206723576Y-88551103D01*
X206719386Y-88562704D01*
X206714742Y-88573911D01*
X206709651Y-88584716D01*
X206704122Y-88595110D01*
X206698162Y-88605084D01*
X206691779Y-88614629D01*
X206684982Y-88623736D01*
X206677778Y-88632396D01*
X206670176Y-88640600D01*
X206662184Y-88648340D01*
X206653809Y-88655606D01*
X206645060Y-88662389D01*
X206635944Y-88668681D01*
X206626471Y-88674473D01*
X206616647Y-88679755D01*
X206606481Y-88684519D01*
X206595981Y-88688756D01*
X206585155Y-88692457D01*
X206574011Y-88695613D01*
X206562557Y-88698216D01*
X206550801Y-88700255D01*
X206538752Y-88701723D01*
X206526416Y-88702610D01*
X206513803Y-88702908D01*
X206496229Y-88702433D01*
X206479036Y-88701018D01*
X206462235Y-88698679D01*
X206445838Y-88695430D01*
X206429856Y-88691288D01*
X206414302Y-88686266D01*
X206399186Y-88680381D01*
X206384521Y-88673647D01*
X206370317Y-88666079D01*
X206356587Y-88657694D01*
X206343343Y-88648506D01*
X206330595Y-88638530D01*
X206318356Y-88627782D01*
X206306637Y-88616277D01*
X206295450Y-88604029D01*
X206284806Y-88591055D01*
X206274717Y-88577369D01*
X206265194Y-88562987D01*
X206256250Y-88547924D01*
X206247896Y-88532195D01*
X206240144Y-88515814D01*
X206233004Y-88498799D01*
X206220611Y-88462922D01*
X206210810Y-88424686D01*
X206203694Y-88384212D01*
X206199357Y-88341621D01*
X206197890Y-88297037D01*
X206198648Y-88273624D01*
X206200906Y-88250725D01*
X206204641Y-88228353D01*
X206209829Y-88206524D01*
X206216447Y-88185254D01*
X206224470Y-88164556D01*
X206233875Y-88144447D01*
X206244639Y-88124941D01*
X206256737Y-88106054D01*
X206270147Y-88087801D01*
X206284844Y-88070196D01*
X206300805Y-88053256D01*
X206318006Y-88036994D01*
X206336424Y-88021427D01*
X206376815Y-87992435D01*
X206421788Y-87966401D01*
X206471155Y-87943445D01*
X206524726Y-87923690D01*
X206582313Y-87907255D01*
X206643726Y-87894262D01*
X206708776Y-87884832D01*
X206777273Y-87879085D01*
X206849030Y-87877142D01*
X208711961Y-87877142D01*
X208749902Y-87876409D01*
X208786727Y-87874212D01*
X208822430Y-87870551D01*
X208857006Y-87865429D01*
X208890449Y-87858849D01*
X208922753Y-87850810D01*
X208953912Y-87841317D01*
X208983920Y-87830369D01*
X209012771Y-87817970D01*
X209040460Y-87804120D01*
X209066981Y-87788823D01*
X209092328Y-87772079D01*
X209116496Y-87753891D01*
X209139478Y-87734260D01*
X209161268Y-87713188D01*
X209181861Y-87690677D01*
X209201251Y-87666730D01*
X209219432Y-87641346D01*
X209236399Y-87614530D01*
X209252145Y-87586282D01*
X209266665Y-87556604D01*
X209279953Y-87525498D01*
X209292003Y-87492966D01*
X209302809Y-87459010D01*
X209312365Y-87423631D01*
X209320667Y-87386832D01*
X209333480Y-87308980D01*
X209341202Y-87225467D01*
X209343786Y-87136309D01*
X209341882Y-87082623D01*
X209336245Y-87029136D01*
X209326986Y-86975945D01*
X209314216Y-86923150D01*
X209298046Y-86870849D01*
X209278589Y-86819141D01*
X209255955Y-86768125D01*
X209230255Y-86717900D01*
X209201601Y-86668564D01*
X209170105Y-86620216D01*
X209135877Y-86572956D01*
X209099029Y-86526881D01*
X209017918Y-86438685D01*
X208927663Y-86356417D01*
X208829154Y-86280868D01*
X208723281Y-86212828D01*
X208610937Y-86153088D01*
X208493010Y-86102438D01*
X208432232Y-86080768D01*
X208370392Y-86061667D01*
X208307603Y-86045234D01*
X208243974Y-86031567D01*
X208179618Y-86020765D01*
X208114646Y-86012928D01*
X208049169Y-86008152D01*
X207983298Y-86006539D01*
X207030799Y-86006539D01*
X207017700Y-86006974D01*
X207004851Y-86008542D01*
X206992334Y-86011638D01*
X206980230Y-86016659D01*
X206968623Y-86023999D01*
X206957594Y-86034053D01*
X206947225Y-86047217D01*
X206937599Y-86063887D01*
X206928798Y-86084457D01*
X206920904Y-86109323D01*
X206913998Y-86138880D01*
X206908164Y-86173523D01*
X206903484Y-86213649D01*
X206900039Y-86259651D01*
X206897911Y-86311926D01*
X206897184Y-86370869D01*
X206897184Y-86504485D01*
X206861201Y-86504485D01*
X206861201Y-85484516D01*
X206897184Y-85484516D01*
X206897184Y-85581618D01*
G37*
G36*
X206897184Y-83439286D02*
G01*
X206897368Y-83469593D01*
X206897911Y-83498185D01*
X206898805Y-83525114D01*
X206900039Y-83550428D01*
X206901602Y-83574177D01*
X206903484Y-83596409D01*
X206905675Y-83617173D01*
X206908164Y-83636521D01*
X206910942Y-83654499D01*
X206913998Y-83671159D01*
X206917322Y-83686548D01*
X206920903Y-83700717D01*
X206924732Y-83713714D01*
X206928798Y-83725589D01*
X206933090Y-83736391D01*
X206937599Y-83746170D01*
X206942314Y-83754974D01*
X206947225Y-83762853D01*
X206952322Y-83769857D01*
X206957594Y-83776033D01*
X206963031Y-83781433D01*
X206968623Y-83786104D01*
X206974359Y-83790097D01*
X206980230Y-83793460D01*
X206986225Y-83796243D01*
X206992333Y-83798495D01*
X206998546Y-83800266D01*
X207004851Y-83801604D01*
X207011239Y-83802559D01*
X207017700Y-83803180D01*
X207030799Y-83803618D01*
X209229486Y-83803618D01*
X209245674Y-83802809D01*
X209260532Y-83800331D01*
X209267474Y-83798443D01*
X209274098Y-83796110D01*
X209280409Y-83793322D01*
X209286413Y-83790070D01*
X209292113Y-83786346D01*
X209297515Y-83782138D01*
X209302623Y-83777439D01*
X209307444Y-83772238D01*
X209311981Y-83766527D01*
X209316240Y-83760296D01*
X209323942Y-83746236D01*
X209330590Y-83729985D01*
X209336224Y-83711466D01*
X209340882Y-83690605D01*
X209344604Y-83667328D01*
X209347431Y-83641560D01*
X209349401Y-83613226D01*
X209350554Y-83582250D01*
X209350930Y-83548559D01*
X209350930Y-83487705D01*
X209387178Y-83487705D01*
X209387177Y-83487707D01*
X209387177Y-83548561D01*
X209394321Y-83863944D01*
X208592898Y-83863944D01*
X208676427Y-83888185D01*
X208757297Y-83917048D01*
X208835132Y-83950373D01*
X208909555Y-83988000D01*
X208980189Y-84029769D01*
X209046657Y-84075521D01*
X209108582Y-84125096D01*
X209137724Y-84151268D01*
X209165589Y-84178335D01*
X209192130Y-84206278D01*
X209217300Y-84235077D01*
X209241052Y-84264712D01*
X209263338Y-84295163D01*
X209284112Y-84326410D01*
X209303327Y-84358433D01*
X209320935Y-84391213D01*
X209336890Y-84424728D01*
X209351144Y-84458960D01*
X209363651Y-84493888D01*
X209374362Y-84529492D01*
X209383232Y-84565753D01*
X209390212Y-84602650D01*
X209395256Y-84640164D01*
X209398318Y-84678274D01*
X209399348Y-84716960D01*
X209398804Y-84749159D01*
X209397182Y-84780655D01*
X209394501Y-84811427D01*
X209390776Y-84841455D01*
X209386026Y-84870716D01*
X209380268Y-84899190D01*
X209373519Y-84926857D01*
X209365796Y-84953696D01*
X209357116Y-84979684D01*
X209347498Y-85004802D01*
X209336957Y-85029029D01*
X209325511Y-85052344D01*
X209313178Y-85074725D01*
X209299974Y-85096152D01*
X209285918Y-85116604D01*
X209271025Y-85136059D01*
X209255315Y-85154498D01*
X209238802Y-85171899D01*
X209221506Y-85188241D01*
X209203443Y-85203503D01*
X209184630Y-85217665D01*
X209165085Y-85230705D01*
X209144825Y-85242602D01*
X209123867Y-85253336D01*
X209102229Y-85262886D01*
X209079927Y-85271230D01*
X209056979Y-85278348D01*
X209033403Y-85284218D01*
X209009214Y-85288821D01*
X208984432Y-85292134D01*
X208959072Y-85294137D01*
X208933152Y-85294810D01*
X208909276Y-85294434D01*
X208885926Y-85293315D01*
X208863118Y-85291465D01*
X208840867Y-85288894D01*
X208819188Y-85285615D01*
X208798097Y-85281638D01*
X208777609Y-85276977D01*
X208757738Y-85271642D01*
X208738500Y-85265645D01*
X208719910Y-85258998D01*
X208701983Y-85251712D01*
X208684735Y-85243799D01*
X208668180Y-85235270D01*
X208652334Y-85226138D01*
X208637212Y-85216413D01*
X208622829Y-85206108D01*
X208609200Y-85195234D01*
X208596341Y-85183803D01*
X208584266Y-85171825D01*
X208572991Y-85159314D01*
X208562531Y-85146281D01*
X208552900Y-85132736D01*
X208544115Y-85118692D01*
X208536191Y-85104161D01*
X208529141Y-85089154D01*
X208522983Y-85073682D01*
X208517730Y-85057758D01*
X208513399Y-85041393D01*
X208510003Y-85024598D01*
X208507559Y-85007386D01*
X208506082Y-84989767D01*
X208505586Y-84971754D01*
X208505911Y-84957127D01*
X208506880Y-84942822D01*
X208508482Y-84928847D01*
X208510706Y-84915212D01*
X208513543Y-84901926D01*
X208516980Y-84888999D01*
X208521008Y-84876440D01*
X208525616Y-84864258D01*
X208530793Y-84852463D01*
X208536529Y-84841064D01*
X208542813Y-84830071D01*
X208549634Y-84819493D01*
X208556983Y-84809339D01*
X208564848Y-84799619D01*
X208573218Y-84790342D01*
X208582084Y-84781518D01*
X208591434Y-84773156D01*
X208601257Y-84765265D01*
X208611545Y-84757855D01*
X208622284Y-84750935D01*
X208633466Y-84744514D01*
X208645079Y-84738603D01*
X208657113Y-84733210D01*
X208669557Y-84728345D01*
X208682401Y-84724017D01*
X208695634Y-84720236D01*
X208709245Y-84717010D01*
X208723224Y-84714350D01*
X208737560Y-84712265D01*
X208752243Y-84710763D01*
X208767261Y-84709856D01*
X208782605Y-84709551D01*
X208794766Y-84709949D01*
X208806707Y-84711108D01*
X208818446Y-84712978D01*
X208830004Y-84715508D01*
X208841400Y-84718648D01*
X208852652Y-84722346D01*
X208874808Y-84731214D01*
X208896627Y-84741707D01*
X208918266Y-84753418D01*
X208961629Y-84778871D01*
X208983664Y-84791801D01*
X209006144Y-84804325D01*
X209029225Y-84816036D01*
X209053063Y-84826529D01*
X209065314Y-84831192D01*
X209077814Y-84835397D01*
X209090580Y-84839095D01*
X209103634Y-84842234D01*
X209116994Y-84844765D01*
X209130679Y-84846635D01*
X209144711Y-84847794D01*
X209159107Y-84848192D01*
X209169690Y-84848035D01*
X209180054Y-84847570D01*
X209190189Y-84846800D01*
X209200090Y-84845732D01*
X209209748Y-84844372D01*
X209219155Y-84842724D01*
X209228304Y-84840794D01*
X209237188Y-84838588D01*
X209245798Y-84836111D01*
X209254128Y-84833369D01*
X209262169Y-84830366D01*
X209269914Y-84827109D01*
X209277356Y-84823604D01*
X209284486Y-84819854D01*
X209291297Y-84815867D01*
X209297782Y-84811646D01*
X209303932Y-84807199D01*
X209309741Y-84802530D01*
X209315201Y-84797645D01*
X209320304Y-84792550D01*
X209325042Y-84787249D01*
X209329408Y-84781748D01*
X209333395Y-84776053D01*
X209336994Y-84770169D01*
X209340198Y-84764102D01*
X209343000Y-84757857D01*
X209345391Y-84751440D01*
X209347365Y-84744856D01*
X209348913Y-84738110D01*
X209350028Y-84731208D01*
X209350703Y-84724156D01*
X209350930Y-84716959D01*
X209349378Y-84671540D01*
X209344779Y-84626890D01*
X209337218Y-84583054D01*
X209326779Y-84540076D01*
X209313546Y-84498000D01*
X209297605Y-84456869D01*
X209279039Y-84416729D01*
X209257933Y-84377623D01*
X209234372Y-84339595D01*
X209208440Y-84302689D01*
X209180222Y-84266950D01*
X209149803Y-84232421D01*
X209117266Y-84199147D01*
X209082696Y-84167172D01*
X209007798Y-84107293D01*
X208925784Y-84053138D01*
X208837331Y-84005059D01*
X208743114Y-83963410D01*
X208643810Y-83928542D01*
X208540096Y-83900809D01*
X208432647Y-83880563D01*
X208322141Y-83868156D01*
X208209253Y-83863943D01*
X207030799Y-83863943D01*
X207017700Y-83864377D01*
X207004851Y-83865946D01*
X206992334Y-83869044D01*
X206980230Y-83874067D01*
X206968623Y-83881411D01*
X206957594Y-83891471D01*
X206947225Y-83904643D01*
X206937599Y-83921324D01*
X206928798Y-83941908D01*
X206920904Y-83966791D01*
X206913998Y-83996370D01*
X206908164Y-84031039D01*
X206903484Y-84071195D01*
X206900039Y-84117233D01*
X206897911Y-84169548D01*
X206897184Y-84228538D01*
X206897184Y-84362153D01*
X206861201Y-84362153D01*
X206861201Y-83341919D01*
X206897184Y-83341919D01*
X206897184Y-83439286D01*
G37*
D12*
X212759620Y-111434740D02*
X212759620Y-109433220D01*
X209757340Y-111434740D02*
X212759620Y-111434740D01*
X209757340Y-109433220D02*
X209757340Y-111434740D01*
X212759620Y-109433220D02*
X209757340Y-109433220D01*
X209757340Y-107133220D02*
X209757340Y-109134740D01*
X212759620Y-107133220D02*
X209757340Y-107133220D01*
X212759620Y-109134740D02*
X212759620Y-107133220D01*
X209757340Y-109134740D02*
X212759620Y-109134740D01*
X204258480Y-107133980D02*
X204258480Y-109133980D01*
X206258480Y-109133980D02*
X206258480Y-107133980D01*
X204258480Y-109133980D02*
X206258480Y-109133980D01*
X206258480Y-107133980D02*
X204258480Y-107133980D01*
X204258480Y-111433980D02*
X206258480Y-111433980D01*
X204258480Y-109433980D02*
X204258480Y-111433980D01*
X206258480Y-111433980D02*
X206258480Y-109433980D01*
X206258480Y-109433980D02*
X204258480Y-109433980D01*
X191004033Y-145372427D02*
X190862612Y-146503797D01*
X191499008Y-145867401D02*
X190509059Y-144877452D01*
X189872663Y-145513848D02*
X191004033Y-145372427D01*
X190862612Y-146503797D02*
X189872663Y-145513848D01*
D11*
X199333573Y-152893640D02*
X197884005Y-151444071D01*
X197884005Y-151444071D02*
X198909309Y-150418766D01*
X198909309Y-150418766D02*
X200358878Y-151868335D01*
X200358878Y-151868335D02*
X199333573Y-152893640D01*
D12*
X178050480Y-119520724D02*
X178206698Y-120650147D01*
X178206698Y-120650147D02*
X176994262Y-119950147D01*
X178656698Y-119870724D02*
X177444262Y-119170724D01*
X176994262Y-119950147D02*
X178050480Y-119520724D01*
X176050480Y-72225980D02*
X176750480Y-71325980D01*
X176750480Y-71325980D02*
X177450480Y-72225980D01*
X177450480Y-71325980D02*
X176050480Y-71325980D01*
X177450480Y-72225980D02*
X176050480Y-72225980D01*
X176750480Y-90625980D02*
X177450480Y-91525980D01*
X177450480Y-91525980D02*
X176050480Y-91525980D01*
X176050480Y-91525980D02*
X176750480Y-90625980D01*
X177450480Y-90625980D02*
X176050480Y-90625980D01*
D11*
X214009773Y-138278457D02*
X212984468Y-139303762D01*
X212984468Y-139303762D02*
X211534900Y-137854193D01*
X212560204Y-136828888D02*
X214009773Y-138278457D01*
X211534900Y-137854193D02*
X212560204Y-136828888D01*
D12*
X201930379Y-132115930D02*
X200940430Y-133105879D01*
X201293983Y-131479534D02*
X200304034Y-132469483D01*
X200940430Y-133105879D02*
X200799009Y-131974509D01*
X200799009Y-131974509D02*
X201930379Y-132115930D01*
D11*
X191970947Y-122163481D02*
X190195595Y-121138481D01*
X190920595Y-119882744D02*
X192695947Y-120907744D01*
X192695947Y-120907744D02*
X191970947Y-122163481D01*
X190195595Y-121138481D02*
X190920595Y-119882744D01*
X201849511Y-146812879D02*
X202874815Y-145787574D01*
X202874815Y-145787574D02*
X204586014Y-147498772D01*
X203581922Y-148545290D02*
X201849511Y-146812879D01*
X204607227Y-147519985D02*
X203581922Y-148545290D01*
X185330480Y-69455980D02*
X187380480Y-69455980D01*
X185330480Y-70905980D02*
X185330480Y-69455980D01*
X187380480Y-69455980D02*
X187380480Y-70905980D01*
X187380480Y-70905980D02*
X185330480Y-70905980D01*
X180620480Y-86625980D02*
X182670480Y-86625980D01*
X182670480Y-88075980D02*
X180620480Y-88075980D01*
X180620480Y-88075980D02*
X180620480Y-86625980D01*
X182670480Y-86625980D02*
X182670480Y-88075980D01*
D15*
X64920000Y-77125000D03*
X75080000Y-77125000D03*
D16*
X70000000Y-77125000D03*
X89000000Y-77125000D03*
D15*
X94080000Y-77125000D03*
X83920000Y-77125000D03*
D16*
X108000000Y-72375000D03*
D15*
X113080000Y-72375000D03*
X102920000Y-72375000D03*
X121920000Y-70000000D03*
D16*
X127000000Y-70000000D03*
D15*
X132080000Y-70000000D03*
X151080000Y-72375000D03*
D16*
X146000000Y-72375000D03*
D15*
X140920000Y-72375000D03*
X170080000Y-74750000D03*
D16*
X165000000Y-74750000D03*
D15*
X159920000Y-74750000D03*
X64920000Y-96125000D03*
D16*
X70000000Y-96125000D03*
D15*
X75080000Y-96125000D03*
X83920000Y-96125000D03*
X94080000Y-96125000D03*
D16*
X89000000Y-96125000D03*
D15*
X102920000Y-91375000D03*
X113080000Y-91375000D03*
D16*
X108000000Y-91375000D03*
D15*
X132080000Y-89000000D03*
D16*
X127000000Y-89000000D03*
D15*
X121920000Y-89000000D03*
X151080000Y-91375000D03*
D16*
X146000000Y-91375000D03*
D15*
X140920000Y-91375000D03*
X170080000Y-93750000D03*
D16*
X165000000Y-93750000D03*
D15*
X159920000Y-93750000D03*
X64920000Y-115125000D03*
X75080000Y-115125000D03*
D16*
X70000000Y-115125000D03*
X89000000Y-115125000D03*
D15*
X94080000Y-115125000D03*
X83920000Y-115125000D03*
X102920000Y-110375000D03*
X113080000Y-110375000D03*
D16*
X108000000Y-110375000D03*
D15*
X121920000Y-108000000D03*
X132080000Y-108000000D03*
D16*
X127000000Y-108000000D03*
D15*
X151080000Y-110375000D03*
X140920000Y-110375000D03*
D16*
X146000000Y-110375000D03*
D15*
X159920000Y-112750000D03*
X170080000Y-112750000D03*
D16*
X165000000Y-112750000D03*
D15*
X131420000Y-130000000D03*
X141580000Y-130000000D03*
D16*
X136500000Y-130000000D03*
D15*
X152593097Y-131435199D03*
X162406903Y-134064801D03*
D16*
X157500000Y-132750000D03*
D17*
X201118480Y-73175980D03*
X217664880Y-71905980D03*
X217664880Y-74445980D03*
X201118480Y-75715980D03*
X201118480Y-78255980D03*
X217664880Y-76985980D03*
X201118480Y-80795980D03*
X217664880Y-79525980D03*
X201118480Y-83335980D03*
X217664880Y-82065980D03*
X217664880Y-84605980D03*
X201118480Y-85875980D03*
X217664880Y-87145980D03*
X201118480Y-88415980D03*
X217664880Y-89685980D03*
X201118480Y-90955980D03*
X201118480Y-93495980D03*
X217664880Y-92225980D03*
X217664880Y-94765980D03*
X201118480Y-96035980D03*
X217664880Y-97305980D03*
X201118480Y-98575980D03*
X217664880Y-99845980D03*
X201118480Y-101115980D03*
X202444880Y-99845980D03*
X216358480Y-101115980D03*
X202444880Y-97305980D03*
X216358480Y-98575980D03*
X216358480Y-96035980D03*
X202444880Y-94765980D03*
X216358480Y-93495980D03*
X202444880Y-92225980D03*
X202444880Y-89685980D03*
X216358480Y-90955980D03*
X202444880Y-87145980D03*
X216358480Y-88415980D03*
X216358480Y-85875980D03*
X202444880Y-84605980D03*
X202444880Y-82065980D03*
X216358480Y-83335980D03*
X216358480Y-80795980D03*
X202444880Y-79525980D03*
X202444880Y-76985980D03*
X216358480Y-78255980D03*
X216358480Y-75715980D03*
X202444880Y-74445980D03*
X216358480Y-73175980D03*
X202444880Y-71905980D03*
D18*
X205558480Y-105433980D03*
X208098480Y-105433980D03*
X210638480Y-105433980D03*
X213178480Y-105433980D03*
D19*
X220350480Y-119725980D03*
X220350480Y-121475980D03*
X213350480Y-119725980D03*
X213350480Y-121475980D03*
D20*
X210050480Y-121825980D03*
X210050480Y-119375980D03*
X218550480Y-123575980D03*
X218550480Y-117625980D03*
X215550480Y-123575980D03*
X215550480Y-117625980D03*
X211550480Y-123575980D03*
X211550480Y-117625980D03*
D21*
X217158480Y-103883980D03*
X217158480Y-110383980D03*
D15*
X181746872Y-142981158D03*
X172948054Y-137901158D03*
D16*
X177347463Y-140441158D03*
D18*
X213798480Y-110433980D03*
X208718480Y-110433980D03*
X213798480Y-108133980D03*
X208718480Y-108133980D03*
X205258480Y-108133980D03*
X205258480Y-110433980D03*
D15*
X190558378Y-149633878D03*
D16*
X194150480Y-153225980D03*
D15*
X197742582Y-156818082D03*
X189130480Y-74805980D03*
X178970480Y-74805980D03*
D16*
X184050480Y-74805980D03*
D15*
X191449889Y-126365980D03*
D16*
X187050480Y-123825980D03*
D15*
X182651071Y-121285980D03*
D16*
X207801375Y-139636102D03*
D15*
X204209273Y-136044000D03*
X211393477Y-143228204D03*
D16*
X184050480Y-93725980D03*
D15*
X178970480Y-93725980D03*
X189130480Y-93725980D03*
M02*
