  0
SECTION
  2
HEADER
  9
$ACADVER
  1
AC1014
  9
$HANDSEED
  5
FFFF
  9
$MEASUREMENT
 70
     1
  0
ENDSEC
  0
SECTION
  2
TABLES
  0
TABLE
  2
VPORT
  5
8
330
0
100
AcDbSymbolTable
 70
     4
  0
VPORT
  5
2E
330
8
100
AcDbSymbolTableRecord
100
AcDbViewportTableRecord
  2
*ACTIVE
 70
     0
 10
0.0
 20
0.0
 11
1.0
 21
1.0
 12
210.0
 22
148.5
 13
0.0
 23
0.0
 14
10.0
 24
10.0
 15
10.0
 25
10.0
 16
0.0
 26
0.0
 36
1.0
 17
0.0
 27
0.0
 37
0.0
 40
341.0
 41
1.24
 42
50.0
 43
0.0
 44
0.0
 50
0.0
 51
0.0
 71
     0
 72
   100
 73
     1
 74
     3
 75
     0
 76
     0
 77
     0
 78
     0
  0
ENDTAB
  0
TABLE
  2
LTYPE
  5
5
330
0
100
AcDbSymbolTable
 70
     1
  0
LTYPE
  5
14
330
5
100
AcDbSymbolTableRecord
100
AcDbLinetypeTableRecord
  2
BYBLOCK
 70
     0
  3

 72
    65
 73
     0
 40
0.0
  0
LTYPE
  5
15
330
5
100
AcDbSymbolTableRecord
100
AcDbLinetypeTableRecord
  2
BYLAYER
 70
     0
  3

 72
    65
 73
     0
 40
0.0
  0
LTYPE
  5
16
330
5
100
AcDbSymbolTableRecord
100
AcDbLinetypeTableRecord
  2
CONTINUOUS
 70
     0
  3
Solid line
 72
    65
 73
     0
 40
0.0
  0
ENDTAB
  0
TABLE
  2
LAYER
  5
2
100
AcDbSymbolTable
 70
1
  0
LAYER
  5
50
100
AcDbSymbolTableRecord
100
AcDbLayerTableRecord
  2
0
 70
0
  6
CONTINUOUS
  0
ENDTAB
  0
TABLE
  2
STYLE
  5
3
330
0
100
AcDbSymbolTable
 70
     1
  0
STYLE
  5
11
330
3
100
AcDbSymbolTableRecord
100
AcDbTextStyleTableRecord
  2
STANDARD
 70
     0
 40
0.0
 41
1.0
 50
0.0
 71
     0
 42
2.5
  3
txt
  4

  0
ENDTAB
  0
TABLE
  2
VIEW
  5
6
330
0
100
AcDbSymbolTable
 70
     0
  0
ENDTAB
  0
TABLE
  2
UCS
  5
7
330
0
100
AcDbSymbolTable
 70
     0
  0
ENDTAB
  0
TABLE
  2
APPID
  5
9
330
0
100
AcDbSymbolTable
 70
     2
  0
APPID
  5
12
330
9
100
AcDbSymbolTableRecord
100
AcDbRegAppTableRecord
  2
ACAD
 70
     0
  0
ENDTAB
  0
TABLE
  2
DIMSTYLE
  5
A
330
0
100
AcDbSymbolTable
 70
     1
  0
DIMSTYLE
105
27
330
A
100
AcDbSymbolTableRecord
100
AcDbDimStyleTableRecord
  2
ISO-25
 70
     0
  3

  4

  5

  6

  7

 40
1.0
 41
2.5
 42
0.625
 43
3.75
 44
1.25
 45
0.0
 46
0.0
 47
0.0
 48
0.0
140
2.5
141
2.5
142
0.0
143
0.03937007874016
144
1.0
145
0.0
146
1.0
147
0.625
 71
     0
 72
     0
 73
     0
 74
     0
 75
     0
 76
     0
 77
     1
 78
     8
170
     0
171
     3
172
     1
173
     0
174
     0
175
     0
176
     0
177
     0
178
     0
270
     2
271
     2
272
     2
273
     2
274
     3
340
11
275
     0
280
     0
281
     0
282
     0
283
     0
284
     8
285
     0
286
     0
287
     3
288
     0
  0
ENDTAB
  0
TABLE
  2
BLOCK_RECORD
  5
1
330
0
100
AcDbSymbolTable
 70
     1
  0
BLOCK_RECORD
  5
1F
330
1
100
AcDbSymbolTableRecord
100
AcDbBlockTableRecord
  2
*MODEL_SPACE
  0
BLOCK_RECORD
  5
1B
330
1
100
AcDbSymbolTableRecord
100
AcDbBlockTableRecord
  2
*PAPER_SPACE
  0
ENDTAB
  0
ENDSEC
  0
SECTION
  2
BLOCKS
  0
BLOCK
  5
20
330
1F
100
AcDbEntity
  8
0
100
AcDbBlockBegin
  2
*MODEL_SPACE
 70
     0
 10
0.0
 20
0.0
 30
0.0
  3
*MODEL_SPACE
  1

  0
ENDBLK
  5
21
330
1F
100
AcDbEntity
  8
0
100
AcDbBlockEnd
  0
BLOCK
  5
1C
330
1B
100
AcDbEntity
 67
     1
  8
0
100
AcDbBlockBegin
  2
*PAPER_SPACE
  1

  0
ENDBLK
  5
1D
330
1B
100
AcDbEntity
 67
     1
  8
0
100
AcDbBlockEnd
  0
ENDSEC
  0
SECTION
  2
ENTITIES
  0
LWPOLYLINE
  5
100
100
AcDbEntity
  8
0
 62
1
100
AcDbPolyline
 90
2
 70
0
 10
163.186335
 20
229.068776
 30
0.0
 10
163.186335
 20
181.713073
 30
0.0
  0
SPLINE
  5
101
100
AcDbEntity
  8
0
 62
1
100
AcDbSpline
 70
0
 71
3
 72
10
 73
6
 74
4
 40
0.000000
 40
0.000000
 40
0.000000
 40
0.000000
 40
0.430552
 40
0.857050
 40
1.287601
 40
1.287601
 40
1.287601
 40
1.287601
 10
163.186335
 20
181.713073
 30
0.0
 10
163.214680
 20
181.571731
 30
0.0
 10
163.271102
 20
181.290378
 30
0.0
 10
163.495231
 20
180.911465
 30
0.0
 10
163.714629
 20
180.726513
 30
0.0
 10
163.824846
 20
180.633599
 30
0.0
 11
163.186335
 21
181.713073
 31
0.0
 11
163.294779
 21
181.296401
 31
0.0
 11
163.511913
 21
180.929314
 31
0.0
 11
163.824846
 21
180.633599
 31
0.0
  0
LWPOLYLINE
  5
102
100
AcDbEntity
  8
0
 62
1
100
AcDbPolyline
 90
2
 70
0
 10
163.824846
 20
180.633599
 30
0.0
 10
182.666238
 20
169.775372
 30
0.0
  0
SPLINE
  5
103
100
AcDbEntity
  8
0
 62
1
100
AcDbSpline
 70
0
 71
3
 72
10
 73
6
 74
4
 40
0.000000
 40
0.000000
 40
0.000000
 40
0.000000
 40
0.452232
 40
0.949804
 40
1.423940
 40
1.423940
 40
1.423940
 40
1.423940
 10
182.666238
 20
169.775372
 30
0.0
 10
182.815630
 20
169.743070
 30
0.0
 10
183.129391
 20
169.675229
 30
0.0
 10
183.611147
 20
169.910671
 30
0.0
 10
183.711067
 20
170.229898
 30
0.0
 10
183.759822
 20
170.385662
 30
0.0
 11
182.666238
 21
169.775372
 31
0.0
 11
183.116133
 21
169.729450
 31
0.0
 11
183.559075
 21
169.956121
 31
0.0
 11
183.759822
 21
170.385662
 31
0.0
  0
LWPOLYLINE
  5
104
100
AcDbEntity
  8
0
 62
1
100
AcDbPolyline
 90
2
 70
0
 10
183.759822
 20
170.385662
 30
0.0
 10
183.759822
 20
229.058196
 30
0.0
  0
SPLINE
  5
105
100
AcDbEntity
  8
0
 62
1
100
AcDbSpline
 70
0
 71
3
 72
10
 73
6
 74
4
 40
0.000000
 40
0.000000
 40
0.000000
 40
0.000000
 40
0.262430
 40
0.516924
 40
0.779314
 40
0.779314
 40
0.779314
 40
0.779314
 10
183.759822
 20
229.058196
 30
0.0
 10
183.746492
 20
229.146247
 30
0.0
 10
183.720237
 20
229.319686
 30
0.0
 10
183.520380
 20
229.519611
 30
0.0
 10
183.346936
 20
229.545821
 30
0.0
 10
183.258889
 20
229.559126
 30
0.0
 11
183.759822
 21
229.058196
 31
0.0
 11
183.692434
 21
229.311826
 31
0.0
 11
183.512492
 21
229.491794
 31
0.0
 11
183.258889
 21
229.559126
 31
0.0
  0
SPLINE
  5
106
100
AcDbEntity
  8
0
 62
1
100
AcDbSpline
 70
0
 71
3
 72
10
 73
6
 74
4
 40
0.000000
 40
0.000000
 40
0.000000
 40
0.000000
 40
0.261917
 40
0.516065
 40
0.777981
 40
0.777981
 40
0.777981
 40
0.777981
 10
163.687268
 20
229.559126
 30
0.0
 10
163.599492
 20
229.545348
 30
0.0
 10
163.426543
 20
229.518200
 30
0.0
 10
163.227262
 20
229.318921
 30
0.0
 10
163.200114
 20
229.145972
 30
0.0
 10
163.186335
 20
229.058196
 30
0.0
 11
163.687268
 21
229.559126
 31
0.0
 11
163.434438
 21
229.490734
 31
0.0
 11
163.254728
 21
229.311025
 31
0.0
 11
163.186335
 21
229.058196
 31
0.0
  0
LWPOLYLINE
  5
107
100
AcDbEntity
  8
0
 62
1
100
AcDbPolyline
 90
2
 70
0
 10
183.258889
 20
229.559126
 30
0.0
 10
163.687268
 20
229.559126
 30
0.0
  0
SPLINE
  5
108
100
AcDbEntity
  8
0
 62
1
100
AcDbSpline
 70
0
 71
3
 72
22
 73
18
 74
16
 40
0.000000
 40
0.000000
 40
0.000000
 40
0.000000
 40
0.432020
 40
0.856347
 40
1.288367
 40
1.720387
 40
2.144714
 40
2.576734
 40
3.008754
 40
3.433081
 40
3.865101
 40
4.297121
 40
4.721448
 40
5.153468
 40
5.728947
 40
6.287358
 40
6.862837
 40
6.862837
 40
6.862837
 40
6.862837
 10
165.662773
 20
182.097591
 30
0.0
 10
165.679498
 20
182.242528
 30
0.0
 10
165.712649
 20
182.529820
 30
0.0
 10
165.966954
 20
182.895931
 30
0.0
 10
166.330560
 20
183.141244
 30
0.0
 10
166.763689
 20
183.226744
 30
0.0
 10
167.195360
 20
183.140842
 30
0.0
 10
167.562200
 20
182.896368
 30
0.0
 10
167.806661
 20
182.529579
 30
0.0
 10
167.892566
 20
182.097720
 30
0.0
 10
167.807067
 20
181.665303
 30
0.0
 10
167.561744
 20
181.299044
 30
0.0
 10
167.195671
 20
181.054528
 30
0.0
 10
166.715154
 20
180.957938
 30
0.0
 10
166.190604
 20
181.100283
 30
0.0
 10
165.752682
 20
181.521302
 30
0.0
 10
165.693042
 20
181.903577
 30
0.0
 10
165.662773
 20
182.097591
 30
0.0
 11
165.662773
 21
182.097591
 31
0.0
 11
165.747530
 21
182.521216
 31
0.0
 11
165.983273
 21
182.874031
 31
0.0
 11
166.342216
 21
183.114449
 31
0.0
 11
166.766029
 21
183.198259
 31
0.0
 11
167.182203
 21
183.115477
 31
0.0
 11
167.541682
 21
182.875861
 31
0.0
 11
167.781298
 21
182.516381
 31
0.0
 11
167.864080
 21
182.100208
 31
0.0
 11
167.780271
 21
181.676395
 31
0.0
 11
167.539852
 21
181.317452
 31
0.0
 11
167.187037
 21
181.081708
 31
0.0
 11
166.763413
 21
180.996952
 31
0.0
 11
166.207899
 21
181.147222
 31
0.0
 11
165.813043
 21
181.542078
 31
0.0
 11
165.662773
 21
182.097591
 31
0.0
  0
LWPOLYLINE
  5
109
100
AcDbEntity
  8
0
 62
1
100
AcDbPolyline
 90
1
 70
1
 10
165.662773
 20
182.097591
 30
0.0
  0
SPLINE
  5
10a
100
AcDbEntity
  8
0
 62
1
100
AcDbSpline
 70
0
 71
3
 72
22
 73
18
 74
16
 40
0.000000
 40
0.000000
 40
0.000000
 40
0.000000
 40
0.432313
 40
0.856918
 40
1.289231
 40
1.721544
 40
2.146149
 40
2.578461
 40
3.010774
 40
3.435379
 40
3.867692
 40
4.300005
 40
4.724610
 40
5.156923
 40
5.731236
 40
6.288574
 40
6.862887
 40
6.862887
 40
6.862887
 40
6.862887
 10
180.165105
 20
173.595860
 30
0.0
 10
180.181388
 20
173.740949
 30
0.0
 10
180.213663
 20
174.028540
 30
0.0
 10
180.467125
 20
174.395624
 30
0.0
 10
180.830361
 20
174.642032
 30
0.0
 10
181.263601
 20
174.728577
 30
0.0
 10
181.695747
 20
174.643481
 30
0.0
 10
182.063272
 20
174.399474
 30
0.0
 10
182.308444
 20
174.032786
 30
0.0
 10
182.394930
 20
173.600727
 30
0.0
 10
182.309778
 20
173.167924
 30
0.0
 10
182.064527
 20
172.801242
 30
0.0
 10
181.698297
 20
172.556405
 30
0.0
 10
181.217969
 20
172.459786
 30
0.0
 10
180.694096
 20
172.601657
 30
0.0
 10
180.256479
 20
173.021034
 30
0.0
 10
180.195866
 20
173.402344
 30
0.0
 10
180.165105
 20
173.595860
 30
0.0
 11
180.165105
 21
173.595860
 31
0.0
 11
180.248617
 21
174.020030
 31
0.0
 11
180.483524
 21
174.373736
 31
0.0
 11
180.842098
 21
174.615229
 31
0.0
 11
181.266006
 21
174.700058
 31
0.0
 11
181.682618
 21
174.618057
 31
0.0
 11
182.042758
 21
174.378905
 31
0.0
 11
182.283065
 21
174.019535
 31
0.0
 11
182.366403
 21
173.603188
 31
0.0
 11
182.282935
 21
173.179010
 31
0.0
 11
182.042594
 21
172.819662
 31
0.0
 11
181.689644
 21
172.583621
 31
0.0
 11
181.265744
 21
172.498748
 31
0.0
 11
180.711274
 21
172.648408
 31
0.0
 11
180.316544
 21
173.041872
 31
0.0
 11
180.165105
 21
173.595860
 31
0.0
  0
SPLINE
  5
10b
100
AcDbEntity
  8
0
 62
1
100
AcDbSpline
 70
0
 71
3
 72
13
 73
9
 74
7
 40
0.000000
 40
0.000000
 40
0.000000
 40
0.000000
 40
0.686768
 40
1.367738
 40
2.054506
 40
2.741274
 40
3.422243
 40
4.109011
 40
4.109011
 40
4.109011
 40
4.109011
 10
152.102335
 20
76.305710
 30
0.0
 10
152.119673
 20
76.535341
 30
0.0
 10
152.154203
 20
76.992665
 30
0.0
 10
152.431312
 20
77.631810
 30
0.0
 10
152.853112
 20
78.180169
 30
0.0
 10
153.407106
 20
78.594541
 30
0.0
 10
154.049927
 20
78.863011
 30
0.0
 10
154.507675
 20
78.891375
 30
0.0
 10
154.737519
 20
78.905617
 30
0.0
 11
152.102335
 21
76.305710
 31
0.0
 11
152.192155
 21
76.986579
 31
0.0
 11
152.454407
 21
77.615024
 31
0.0
 11
152.875207
 21
78.157775
 31
0.0
 11
153.423579
 21
78.571221
 31
0.0
 11
154.055501
 21
78.824980
 31
0.0
 11
154.737519
 21
78.905617
 31
0.0
  0
SPLINE
  5
10c
100
AcDbEntity
  8
0
 62
1
100
AcDbSpline
 70
0
 71
3
 72
10
 73
6
 74
4
 40
0.000000
 40
0.000000
 40
0.000000
 40
0.000000
 40
1.331267
 40
2.625394
 40
3.956661
 40
3.956661
 40
3.956661
 40
3.956661
 10
154.737519
 20
78.905617
 30
0.0
 10
155.181383
 20
78.825782
 30
0.0
 10
156.056727
 20
78.668338
 30
0.0
 10
157.064870
 20
77.660195
 30
0.0
 10
157.222314
 20
76.784850
 30
0.0
 10
157.302149
 20
76.340987
 30
0.0
 11
154.737519
 21
78.905617
 31
0.0
 11
156.016039
 21
78.534593
 31
0.0
 11
156.931125
 21
77.619506
 31
0.0
 11
157.302149
 21
76.340987
 31
0.0
  0
LWPOLYLINE
  5
10d
100
AcDbEntity
  8
0
 62
1
100
AcDbPolyline
 90
1
 70
1
 10
180.165105
 20
173.595860
 30
0.0
  0
SPLINE
  5
10e
100
AcDbEntity
  8
0
 62
1
100
AcDbSpline
 70
0
 71
3
 72
16
 73
12
 74
10
 40
0.000000
 40
0.000000
 40
0.000000
 40
0.000000
 40
0.907295
 40
1.801606
 40
2.708901
 40
3.616196
 40
4.510506
 40
5.417802
 40
6.325097
 40
7.219407
 40
8.126702
 40
8.126702
 40
8.126702
 40
8.126702
 10
157.302149
 20
76.340987
 30
0.0
 10
157.273148
 20
76.036809
 30
0.0
 10
157.215561
 20
75.432806
 30
0.0
 10
156.742410
 20
74.631914
 30
0.0
 10
156.045771
 20
74.034132
 30
0.0
 10
155.180142
 20
73.713722
 30
0.0
 10
154.259794
 20
73.707478
 30
0.0
 10
153.389897
 20
74.016113
 30
0.0
 10
152.685211
 20
74.604389
 30
0.0
 10
152.201237
 20
75.398788
 30
0.0
 10
152.135460
 20
76.001953
 30
0.0
 10
152.102335
 20
76.305710
 30
0.0
 11
157.302149
 21
76.340987
 31
0.0
 11
157.149944
 21
75.446549
 31
0.0
 11
156.708053
 21
74.669038
 31
0.0
 11
156.017471
 21
74.080582
 31
0.0
 11
155.166763
 21
73.765177
 31
0.0
 11
154.272473
 21
73.759110
 31
0.0
 11
153.417564
 21
74.062943
 31
0.0
 11
152.719061
 21
74.641976
 31
0.0
 11
152.266662
 21
75.413420
 31
0.0
 11
152.102335
 21
76.305710
 31
0.0
  0
SPLINE
  5
10f
100
AcDbEntity
  8
0
 62
1
100
AcDbSpline
 70
0
 71
3
 72
13
 73
9
 74
7
 40
0.000000
 40
0.000000
 40
0.000000
 40
0.000000
 40
0.180180
 40
0.357594
 40
0.537774
 40
0.717953
 40
0.895368
 40
1.075548
 40
1.075548
 40
1.075548
 40
1.075548
 10
159.810336
 20
71.973707
 30
0.0
 10
159.870783
 20
71.979603
 30
0.0
 10
159.990750
 20
71.991306
 30
0.0
 10
160.148267
 20
72.088342
 30
0.0
 10
160.262924
 20
72.230637
 30
0.0
 10
160.318040
 20
72.404868
 30
0.0
 10
160.311743
 20
72.589768
 30
0.0
 10
160.255129
 20
72.696181
 30
0.0
 10
160.226604
 20
72.749799
 30
0.0
 11
159.810336
 21
71.973707
 31
0.0
 11
159.987812
 21
72.004807
 31
0.0
 11
160.140442
 21
72.095251
 31
0.0
 11
160.252949
 21
72.235987
 31
0.0
 11
160.307956
 21
72.407565
 31
0.0
 11
160.298871
 21
72.584747
 31
0.0
 11
160.226604
 21
72.749799
 31
0.0
  0
LWPOLYLINE
  5
110
100
AcDbEntity
  8
0
 62
1
100
AcDbPolyline
 90
1
 70
1
 10
152.102335
 20
76.305710
 30
0.0
  0
SPLINE
  5
111
100
AcDbEntity
  8
0
 62
1
100
AcDbSpline
 70
0
 71
3
 72
13
 73
9
 74
7
 40
0.000000
 40
0.000000
 40
0.000000
 40
0.000000
 40
0.292014
 40
0.583628
 40
0.875641
 40
1.177692
 40
1.479340
 40
1.781391
 40
1.781391
 40
1.781391
 40
1.781391
 10
160.226604
 20
72.749799
 30
0.0
 10
160.172190
 20
72.830618
 30
0.0
 10
160.063436
 20
72.992145
 30
0.0
 10
159.933693
 20
73.254479
 30
0.0
 10
159.828610
 20
73.530897
 30
0.0
 10
159.754971
 20
73.820765
 30
0.0
 10
159.708104
 20
74.119808
 30
0.0
 10
159.703355
 20
74.321174
 30
0.0
 10
159.700978
 20
74.421924
 30
0.0
 11
160.226604
 21
72.749799
 31
0.0
 11
160.068939
 21
72.995591
 31
0.0
 11
159.938054
 21
73.256182
 31
0.0
 11
159.835030
 21
73.529418
 31
0.0
 11
159.759543
 21
73.821884
 31
0.0
 11
159.714738
 21
74.120186
 31
0.0
 11
159.700978
 21
74.421924
 31
0.0
  0
SPLINE
  5
112
100
AcDbEntity
  8
0
 62
1
100
AcDbSpline
 70
0
 71
3
 72
10
 73
6
 74
4
 40
0.000000
 40
0.000000
 40
0.000000
 40
0.000000
 40
2.459760
 40
4.855701
 40
7.315461
 40
7.315461
 40
7.315461
 40
7.315461
 10
159.700978
 20
76.185768
 30
0.0
 10
159.590545
 20
77.010463
 30
0.0
 10
159.372543
 20
78.638455
 30
0.0
 10
157.653245
 20
80.616469
 30
0.0
 10
156.071478
 20
81.059070
 30
0.0
 10
155.270200
 20
81.283280
 30
0.0
 11
159.700978
 21
76.185768
 31
0.0
 11
159.132772
 21
78.579000
 31
0.0
 11
157.560978
 21
80.387314
 31
0.0
 11
155.270200
 21
81.283280
 31
0.0
  0
LWPOLYLINE
  5
113
100
AcDbEntity
  8
0
 62
1
100
AcDbPolyline
 90
2
 70
0
 10
159.700978
 20
74.421924
 30
0.0
 10
159.700978
 20
76.185768
 30
0.0
  0
LWPOLYLINE
  5
114
100
AcDbEntity
  8
0
 62
1
100
AcDbPolyline
 90
1
 70
1
 10
149.103799
 20
72.640440
 30
0.0
  0
SPLINE
  5
115
100
AcDbEntity
  8
0
 62
1
100
AcDbSpline
 70
0
 71
3
 72
25
 73
21
 74
19
 40
0.000000
 40
0.000000
 40
0.000000
 40
0.000000
 40
1.404120
 40
2.794931
 40
4.199050
 40
5.603170
 40
6.993981
 40
8.398100
 40
8.886489
 40
9.793498
 40
10.281887
 40
10.922198
 40
11.558974
 40
12.199285
 40
12.349666
 40
12.497677
 40
12.648058
 40
12.798439
 40
12.946449
 40
13.096830
 40
13.096830
 40
13.096830
 40
13.096830
 10
155.270200
 20
81.283280
 30
0.0
 10
154.799293
 20
81.298786
 30
0.0
 10
153.861943
 20
81.329652
 30
0.0
 10
152.507779
 20
80.879119
 30
0.0
 10
151.327358
 20
80.099227
 30
0.0
 10
150.413182
 20
79.014151
 30
0.0
 10
149.827724
 20
77.721235
 30
0.0
 10
149.689212
 20
76.621116
 30
0.0
 10
149.703856
 20
75.688488
 30
0.0
 10
149.695111
 20
75.060458
 30
0.0
 10
149.709177
 20
74.381779
 30
0.0
 10
149.653295
 20
73.793851
 30
0.0
 10
149.456819
 20
73.175087
 30
0.0
 10
149.185817
 20
72.784277
 30
0.0
 10
149.027509
 20
72.509713
 30
0.0
 10
149.016762
 20
72.355726
 30
0.0
 10
149.058578
 20
72.208918
 30
0.0
 10
149.151437
 20
72.087867
 30
0.0
 10
149.281463
 20
72.004360
 30
0.0
 10
149.381472
 20
71.993361
 30
0.0
 10
149.431874
 20
71.987818
 30
0.0
 11
155.270200
 21
81.283280
 31
0.0
 11
153.866567
 21
81.246323
 31
0.0
 11
152.540708
 21
80.826261
 31
0.0
 11
151.371873
 21
80.048202
 31
0.0
 11
150.465506
 21
78.975797
 31
0.0
 11
149.896879
 21
77.706538
 31
0.0
 11
149.699978
 21
76.316293
 31
0.0
 11
149.699978
 21
75.827904
 31
0.0
 11
149.699978
 21
74.920896
 31
0.0
 11
149.699978
 21
74.432507
 31
0.0
 11
149.630448
 21
73.795982
 31
0.0
 11
149.429438
 21
73.191764
 31
0.0
 11
149.103799
 21
72.640440
 31
0.0
 11
149.038075
 21
72.505182
 31
0.0
 11
149.025418
 21
72.357714
 31
0.0
 11
149.067130
 21
72.213234
 31
0.0
 11
149.158204
 21
72.093568
 31
0.0
 11
149.284111
 21
72.015756
 31
0.0
 11
149.431874
 21
71.987818
 31
0.0
  0
SPLINE
  5
116
100
AcDbEntity
  8
0
 62
1
100
AcDbSpline
 70
0
 71
3
 72
13
 73
9
 74
7
 40
0.000000
 40
0.000000
 40
0.000000
 40
0.000000
 40
0.687103
 40
1.368415
 40
2.055518
 40
2.742622
 40
3.423933
 40
4.111037
 40
4.111037
 40
4.111037
 40
4.111037
 10
113.026118
 20
76.305710
 30
0.0
 10
113.043761
 20
76.535428
 30
0.0
 10
113.078899
 20
76.992929
 30
0.0
 10
113.356778
 20
77.632091
 30
0.0
 10
113.779210
 20
78.180379
 30
0.0
 10
114.333695
 20
78.594642
 30
0.0
 10
114.976904
 20
78.863022
 30
0.0
 10
115.434875
 20
78.891379
 30
0.0
 10
115.664830
 20
78.905617
 30
0.0
 11
113.026118
 21
76.305710
 31
0.0
 11
113.116829
 21
76.986799
 31
0.0
 11
113.379850
 21
77.615294
 31
0.0
 11
113.801281
 21
78.157978
 31
0.0
 11
114.350149
 21
78.571324
 31
0.0
 11
114.982471
 21
78.825006
 31
0.0
 11
115.664830
 21
78.905617
 31
0.0
  0
SPLINE
  5
117
100
AcDbEntity
  8
0
 62
1
100
AcDbSpline
 70
0
 71
3
 72
10
 73
6
 74
4
 40
0.000000
 40
0.000000
 40
0.000000
 40
0.000000
 40
1.330562
 40
2.623952
 40
3.954514
 40
3.954514
 40
3.954514
 40
3.954514
 10
115.664830
 20
78.905617
 30
0.0
 10
116.108456
 20
78.825736
 30
0.0
 10
116.983315
 20
78.668204
 30
0.0
 10
117.990335
 20
77.659798
 30
0.0
 10
118.146661
 20
76.784723
 30
0.0
 10
118.225932
 20
76.340987
 30
0.0
 11
115.664830
 21
78.905617
 31
0.0
 11
116.942567
 21
78.534428
 31
0.0
 11
117.856503
 21
77.619234
 31
0.0
 11
118.225932
 21
76.340987
 31
0.0
  0
LWPOLYLINE
  5
118
100
AcDbEntity
  8
0
 62
1
100
AcDbPolyline
 90
2
 70
0
 10
149.431874
 20
71.987818
 30
0.0
 10
159.810336
 20
71.973707
 30
0.0
  0
SPLINE
  5
119
100
AcDbEntity
  8
0
 62
1
100
AcDbSpline
 70
0
 71
3
 72
13
 73
9
 74
7
 40
0.000000
 40
0.000000
 40
0.000000
 40
0.000000
 40
1.359416
 40
2.678513
 40
4.037930
 40
5.397346
 40
6.716443
 40
8.075859
 40
8.075859
 40
8.075859
 40
8.075859
 10
118.225932
 20
76.340987
 30
0.0
 10
118.157531
 20
75.882181
 30
0.0
 10
118.022756
 20
74.978177
 30
0.0
 10
116.995206
 20
73.976978
 30
0.0
 10
115.644505
 20
73.599424
 30
0.0
 10
114.288805
 20
73.958617
 30
0.0
 10
113.247765
 20
74.945782
 30
0.0
 10
113.100738
 20
75.847874
 30
0.0
 10
113.026118
 20
76.305710
 30
0.0
 11
118.225932
 21
76.340987
 31
0.0
 11
117.879871
 21
75.026356
 31
0.0
 11
116.953478
 21
74.087307
 31
0.0
 11
115.643663
 21
73.723441
 31
0.0
 11
114.329032
 21
74.069502
 31
0.0
 11
113.389984
 21
74.995895
 31
0.0
 11
113.026118
 21
76.305710
 31
0.0
  0
SPLINE
  5
11a
100
AcDbEntity
  8
0
 62
1
100
AcDbSpline
 70
0
 71
3
 72
13
 73
9
 74
7
 40
0.000000
 40
0.000000
 40
0.000000
 40
0.000000
 40
0.180180
 40
0.357594
 40
0.537774
 40
0.717953
 40
0.895368
 40
1.075548
 40
1.075548
 40
1.075548
 40
1.075548
 10
120.734119
 20
71.973707
 30
0.0
 10
120.794566
 20
71.979603
 30
0.0
 10
120.914533
 20
71.991306
 30
0.0
 10
121.072050
 20
72.088342
 30
0.0
 10
121.186707
 20
72.230637
 30
0.0
 10
121.241823
 20
72.404868
 30
0.0
 10
121.235526
 20
72.589768
 30
0.0
 10
121.178912
 20
72.696181
 30
0.0
 10
121.150387
 20
72.749799
 30
0.0
 11
120.734119
 21
71.973707
 31
0.0
 11
120.911595
 21
72.004807
 31
0.0
 11
121.064225
 21
72.095251
 31
0.0
 11
121.176732
 21
72.235987
 31
0.0
 11
121.231739
 21
72.407565
 31
0.0
 11
121.222654
 21
72.584747
 31
0.0
 11
121.150387
 21
72.749799
 31
0.0
  0
SPLINE
  5
11b
100
AcDbEntity
  8
0
 62
1
100
AcDbSpline
 70
0
 71
3
 72
19
 73
15
 74
13
 40
0.000000
 40
0.000000
 40
0.000000
 40
0.000000
 40
0.291405
 40
0.582438
 40
0.873843
 40
1.176061
 40
1.477880
 40
1.780098
 40
2.237391
 40
3.086650
 40
3.543943
 40
6.003703
 40
8.399644
 40
10.859404
 40
10.859404
 40
10.859404
 40
10.859404
 10
121.150387
 20
72.749799
 30
0.0
 10
121.096732
 20
72.830872
 30
0.0
 10
120.989492
 20
72.992916
 30
0.0
 10
120.860908
 20
73.255103
 30
0.0
 10
120.756099
 20
73.531198
 30
0.0
 10
120.681068
 20
73.820640
 30
0.0
 10
120.633756
 20
74.119671
 30
0.0
 10
120.620936
 20
74.473688
 30
0.0
 10
120.627618
 20
75.009806
 30
0.0
 10
120.621404
 20
75.597956
 30
0.0
 10
120.640463
 20
76.852590
 30
0.0
 10
120.254641
 20
78.640252
 30
0.0
 10
118.587656
 20
80.616010
 30
0.0
 10
116.998835
 20
81.058916
 30
0.0
 10
116.193983
 20
81.283280
 30
0.0
 11
121.150387
 21
72.749799
 31
0.0
 11
120.994814
 21
72.996201
 31
0.0
 11
120.865132
 21
73.256744
 31
0.0
 11
120.762341
 21
73.529418
 31
0.0
 11
120.685811
 21
73.821786
 31
0.0
 11
120.639828
 21
74.120081
 31
0.0
 11
120.624761
 21
74.421924
 31
0.0
 11
120.624761
 21
74.879217
 31
0.0
 11
120.624761
 21
75.728475
 31
0.0
 11
120.624761
 21
76.185768
 31
0.0
 11
120.056555
 21
78.579000
 31
0.0
 11
118.484761
 21
80.387314
 31
0.0
 11
116.193983
 21
81.283280
 31
0.0
  0
LWPOLYLINE
  5
11c
100
AcDbEntity
  8
0
 62
1
100
AcDbPolyline
 90
1
 70
1
 10
113.026118
 20
76.305710
 30
0.0
  0
SPLINE
  5
11d
100
AcDbEntity
  8
0
 62
1
100
AcDbSpline
 70
0
 71
3
 72
28
 73
24
 74
22
 40
0.000000
 40
0.000000
 40
0.000000
 40
0.000000
 40
1.403461
 40
2.793631
 40
4.197092
 40
5.600553
 40
6.990723
 40
8.394184
 40
8.882573
 40
9.789581
 40
10.277970
 40
10.918099
 40
11.554752
 40
12.194881
 40
12.194881
 40
12.194881
 40
12.194881
 40
12.345729
 40
12.494147
 40
12.644995
 40
12.795843
 40
12.944261
 40
13.095109
 40
13.095109
 40
13.095109
 40
13.095109
 10
116.193983
 20
81.283280
 30
0.0
 10
115.723290
 20
81.298463
 30
0.0
 10
114.786363
 20
81.328686
 30
0.0
 10
113.433075
 20
80.877681
 30
0.0
 10
112.253543
 20
80.097722
 30
0.0
 10
111.339966
 20
79.012897
 30
0.0
 10
110.755345
 20
77.720687
 30
0.0
 10
110.615679
 20
76.620562
 30
0.0
 10
110.632466
 20
75.689007
 30
0.0
 10
110.614381
 20
75.057240
 30
0.0
 10
110.653283
 20
74.388562
 30
0.0
 10
110.494151
 20
73.759402
 30
0.0
 10
110.696468
 20
73.303871
 30
0.0
 10
109.462064
 20
72.547957
 30
0.0
 10
110.031109
 20
72.640440
 30
0.0
 10
110.031109
 20
72.640440
 30
0.0
 10
110.139250
 20
72.688687
 30
0.0
 10
109.890955
 20
72.468845
 30
0.0
 10
109.956694
 20
72.367393
 30
0.0
 10
109.976529
 20
72.205461
 30
0.0
 10
110.075126
 20
72.087635
 30
0.0
 10
110.204337
 20
72.003089
 30
0.0
 10
110.304945
 20
71.992936
 30
0.0
 10
110.355657
 20
71.987818
 30
0.0
 11
116.193983
 21
81.283280
 31
0.0
 11
114.791033
 21
81.245438
 31
0.0
 11
113.465999
 21
80.824890
 31
0.0
 11
112.298009
 21
80.046750
 31
0.0
 11
111.392334
 21
78.974624
 31
0.0
 11
110.824117
 21
77.705883
 31
0.0
 11
110.627289
 21
76.316293
 31
0.0
 11
110.627289
 21
75.827904
 31
0.0
 11
110.627289
 21
74.920896
 31
0.0
 11
110.627289
 21
74.432507
 31
0.0
 11
110.556643
 21
73.796288
 31
0.0
 11
110.355673
 21
73.192187
 31
0.0
 11
110.031109
 21
72.640440
 31
0.0
 11
110.031109
 21
72.640440
 31
0.0
 11
110.031109
 21
72.640440
 31
0.0
 11
110.031109
 21
72.640440
 31
0.0
 11
109.963130
 21
72.505778
 31
0.0
 11
109.948833
 21
72.358051
 31
0.0
 11
109.989727
 21
72.212852
 31
0.0
 11
110.080830
 21
72.092621
 31
0.0
 11
110.207255
 21
72.014874
 31
0.0
 11
110.355657
 21
71.987818
 31
0.0
  0
SPLINE
  5
11e
100
AcDbEntity
  8
0
 62
1
100
AcDbSpline
 70
0
 71
3
 72
13
 73
9
 74
7
 40
0.000000
 40
0.000000
 40
0.000000
 40
0.000000
 40
0.686507
 40
1.367238
 40
2.053745
 40
2.740252
 40
3.420982
 40
4.107489
 40
4.107489
 40
4.107489
 40
4.107489
 10
126.078569
 20
76.305710
 30
0.0
 10
126.096186
 20
76.535227
 30
0.0
 10
126.131271
 20
76.992331
 30
0.0
 10
126.408689
 20
77.631016
 30
0.0
 10
126.830447
 20
78.179054
 30
0.0
 10
127.384118
 20
78.593388
 30
0.0
 10
128.026484
 20
78.862173
 30
0.0
 10
128.484019
 20
78.891095
 30
0.0
 10
128.713753
 20
78.905617
 30
0.0
 11
126.078569
 21
76.305710
 31
0.0
 11
126.169136
 21
76.986217
 31
0.0
 11
126.431729
 21
77.614260
 31
0.0
 11
126.852494
 21
78.156707
 31
0.0
 11
127.400562
 21
78.570124
 31
0.0
 11
128.032088
 21
78.824229
 31
0.0
 11
128.713753
 21
78.905617
 31
0.0
  0
SPLINE
  5
11f
100
AcDbEntity
  8
0
 62
1
100
AcDbSpline
 70
0
 71
3
 72
10
 73
6
 74
4
 40
0.000000
 40
0.000000
 40
0.000000
 40
0.000000
 40
1.331267
 40
2.625394
 40
3.956661
 40
3.956661
 40
3.956661
 40
3.956661
 10
128.713753
 20
78.905617
 30
0.0
 10
129.157617
 20
78.825782
 30
0.0
 10
130.032961
 20
78.668338
 30
0.0
 10
131.041104
 20
77.660195
 30
0.0
 10
131.198548
 20
76.784850
 30
0.0
 10
131.278384
 20
76.340987
 30
0.0
 11
128.713753
 21
78.905617
 31
0.0
 11
129.992273
 21
78.534593
 31
0.0
 11
130.907359
 21
77.619506
 31
0.0
 11
131.278384
 21
76.340987
 31
0.0
  0
LWPOLYLINE
  5
120
100
AcDbEntity
  8
0
 62
1
100
AcDbPolyline
 90
2
 70
0
 10
110.355657
 20
71.987818
 30
0.0
 10
120.734119
 20
71.973707
 30
0.0
  0
SPLINE
  5
121
100
AcDbEntity
  8
0
 62
1
100
AcDbSpline
 70
0
 71
3
 72
16
 73
12
 74
10
 40
0.000000
 40
0.000000
 40
0.000000
 40
0.000000
 40
0.907295
 40
1.801606
 40
2.708901
 40
3.616196
 40
4.510506
 40
5.417802
 40
6.325097
 40
7.219407
 40
8.126702
 40
8.126702
 40
8.126702
 40
8.126702
 10
131.278384
 20
76.340987
 30
0.0
 10
131.249383
 20
76.036809
 30
0.0
 10
131.191796
 20
75.432806
 30
0.0
 10
130.718644
 20
74.631914
 30
0.0
 10
130.022005
 20
74.034132
 30
0.0
 10
129.156376
 20
73.713722
 30
0.0
 10
128.236028
 20
73.707478
 30
0.0
 10
127.366131
 20
74.016113
 30
0.0
 10
126.661445
 20
74.604389
 30
0.0
 10
126.177471
 20
75.398788
 30
0.0
 10
126.111694
 20
76.001953
 30
0.0
 10
126.078569
 20
76.305710
 30
0.0
 11
131.278384
 21
76.340987
 31
0.0
 11
131.126178
 21
75.446549
 31
0.0
 11
130.684287
 21
74.669038
 31
0.0
 11
129.993705
 21
74.080582
 31
0.0
 11
129.142997
 21
73.765177
 31
0.0
 11
128.248707
 21
73.759110
 31
0.0
 11
127.393798
 21
74.062943
 31
0.0
 11
126.695295
 21
74.641976
 31
0.0
 11
126.242896
 21
75.413420
 31
0.0
 11
126.078569
 21
76.305710
 31
0.0
  0
SPLINE
  5
122
100
AcDbEntity
  8
0
 62
1
100
AcDbSpline
 70
0
 71
3
 72
13
 73
9
 74
7
 40
0.000000
 40
0.000000
 40
0.000000
 40
0.000000
 40
0.180180
 40
0.357594
 40
0.537774
 40
0.717953
 40
0.895368
 40
1.075548
 40
1.075548
 40
1.075548
 40
1.075548
 10
133.786571
 20
71.973707
 30
0.0
 10
133.847018
 20
71.979603
 30
0.0
 10
133.966984
 20
71.991306
 30
0.0
 10
134.124501
 20
72.088342
 30
0.0
 10
134.239158
 20
72.230637
 30
0.0
 10
134.294274
 20
72.404868
 30
0.0
 10
134.287977
 20
72.589768
 30
0.0
 10
134.231364
 20
72.696181
 30
0.0
 10
134.202838
 20
72.749799
 30
0.0
 11
133.786571
 21
71.973707
 31
0.0
 11
133.964046
 21
72.004807
 31
0.0
 11
134.116676
 21
72.095251
 31
0.0
 11
134.229184
 21
72.235987
 31
0.0
 11
134.284190
 21
72.407565
 31
0.0
 11
134.275105
 21
72.584747
 31
0.0
 11
134.202838
 21
72.749799
 31
0.0
  0
LWPOLYLINE
  5
123
100
AcDbEntity
  8
0
 62
1
100
AcDbPolyline
 90
1
 70
1
 10
126.078569
 20
76.305710
 30
0.0
  0
SPLINE
  5
124
100
AcDbEntity
  8
0
 62
1
100
AcDbSpline
 70
0
 71
3
 72
13
 73
9
 74
7
 40
0.000000
 40
0.000000
 40
0.000000
 40
0.000000
 40
0.291405
 40
0.582438
 40
0.873843
 40
1.176158
 40
1.478041
 40
1.780355
 40
1.780355
 40
1.780355
 40
1.780355
 10
134.202838
 20
72.749799
 30
0.0
 10
134.149192
 20
72.830875
 30
0.0
 10
134.041967
 20
72.992923
 30
0.0
 10
133.913266
 20
73.255075
 30
0.0
 10
133.808894
 20
73.531337
 30
0.0
 10
133.732117
 20
73.820300
 30
0.0
 10
133.684253
 20
74.119550
 30
0.0
 10
133.679560
 20
74.321084
 30
0.0
 10
133.677212
 20
74.421924
 30
0.0
 11
134.202838
 21
72.749799
 31
0.0
 11
134.047266
 21
72.996201
 31
0.0
 11
133.917584
 21
73.256744
 31
0.0
 11
133.814792
 21
73.529418
 31
0.0
 11
133.737061
 21
73.821568
 31
0.0
 11
133.691069
 21
74.119927
 31
0.0
 11
133.677212
 21
74.421924
 31
0.0
  0
SPLINE
  5
125
100
AcDbEntity
  8
0
 62
1
100
AcDbSpline
 70
0
 71
3
 72
10
 73
6
 74
4
 40
0.000000
 40
0.000000
 40
0.000000
 40
0.000000
 40
2.459760
 40
4.855701
 40
7.315461
 40
7.315461
 40
7.315461
 40
7.315461
 10
133.677212
 20
76.185768
 30
0.0
 10
133.566779
 20
77.010463
 30
0.0
 10
133.348777
 20
78.638455
 30
0.0
 10
131.629479
 20
80.616469
 30
0.0
 10
130.047712
 20
81.059070
 30
0.0
 10
129.246434
 20
81.283280
 30
0.0
 11
133.677212
 21
76.185768
 31
0.0
 11
133.109006
 21
78.579000
 31
0.0
 11
131.537212
 21
80.387314
 31
0.0
 11
129.246434
 21
81.283280
 31
0.0
  0
LWPOLYLINE
  5
126
100
AcDbEntity
  8
0
 62
1
100
AcDbPolyline
 90
2
 70
0
 10
133.677212
 20
74.421924
 30
0.0
 10
133.677212
 20
76.185768
 30
0.0
  0
SPLINE
  5
127
100
AcDbEntity
  8
0
 62
1
100
AcDbSpline
 70
0
 71
3
 72
19
 73
15
 74
13
 40
0.000000
 40
0.000000
 40
0.000000
 40
0.000000
 40
1.403461
 40
2.793631
 40
4.197092
 40
5.600553
 40
6.990723
 40
8.394184
 40
8.882573
 40
9.789581
 40
10.277970
 40
10.918099
 40
11.554752
 40
12.194881
 40
12.194881
 40
12.194881
 40
12.194881
 10
129.246434
 20
81.283280
 30
0.0
 10
128.775741
 20
81.298463
 30
0.0
 10
127.838812
 20
81.328685
 30
0.0
 10
126.485532
 20
80.877683
 30
0.0
 10
125.305972
 20
80.097713
 30
0.0
 10
124.392499
 20
79.012930
 30
0.0
 10
123.807492
 20
77.720567
 30
0.0
 10
123.668962
 20
76.620892
 30
0.0
 10
123.683631
 20
75.688496
 30
0.0
 10
123.674807
 20
75.060405
 30
0.0
 10
123.689075
 20
74.381950
 30
0.0
 10
123.632373
 20
73.793443
 30
0.0
 10
123.432422
 20
73.178259
 30
0.0
 10
123.200059
 20
72.820038
 30
0.0
 10
123.083561
 20
72.640440
 30
0.0
 11
129.246434
 21
81.283280
 31
0.0
 11
127.843484
 21
81.245438
 31
0.0
 11
126.518451
 21
80.824890
 31
0.0
 11
125.350461
 21
80.046750
 31
0.0
 11
124.444786
 21
78.974624
 31
0.0
 11
123.876568
 21
77.705883
 31
0.0
 11
123.679740
 21
76.316293
 31
0.0
 11
123.679740
 21
75.827904
 31
0.0
 11
123.679740
 21
74.920896
 31
0.0
 11
123.679740
 21
74.432507
 31
0.0
 11
123.609095
 21
73.796288
 31
0.0
 11
123.408124
 21
73.192187
 31
0.0
 11
123.083561
 21
72.640440
 31
0.0
  0
LWPOLYLINE
  5
128
100
AcDbEntity
  8
0
 62
1
100
AcDbPolyline
 90
1
 70
1
 10
123.083561
 20
72.640440
 30
0.0
  0
SPLINE
  5
129
100
AcDbEntity
  8
0
 62
1
100
AcDbSpline
 70
0
 71
3
 72
13
 73
9
 74
7
 40
0.000000
 40
0.000000
 40
0.000000
 40
0.000000
 40
0.150848
 40
0.299266
 40
0.450114
 40
0.600962
 40
0.749380
 40
0.900228
 40
0.900228
 40
0.900228
 40
0.900228
 10
123.083561
 20
72.640440
 30
0.0
 10
123.057153
 20
72.596953
 30
0.0
 10
123.004764
 20
72.510678
 30
0.0
 10
122.992519
 20
72.356058
 30
0.0
 10
123.033467
 20
72.208519
 30
0.0
 10
123.126403
 20
72.086835
 30
0.0
 10
123.257086
 20
72.003292
 30
0.0
 10
123.357496
 20
71.993004
 30
0.0
 10
123.408108
 20
71.987818
 30
0.0
 11
123.083561
 21
72.640440
 31
0.0
 11
123.015581
 21
72.505778
 31
0.0
 11
123.001284
 21
72.358051
 31
0.0
 11
123.042178
 21
72.212852
 31
0.0
 11
123.133281
 21
72.092621
 31
0.0
 11
123.259706
 21
72.014874
 31
0.0
 11
123.408108
 21
71.987818
 31
0.0
  0
SPLINE
  5
12a
100
AcDbEntity
  8
0
 62
1
100
AcDbSpline
 70
0
 71
3
 72
13
 73
9
 74
7
 40
0.000000
 40
0.000000
 40
0.000000
 40
0.000000
 40
0.687103
 40
1.368415
 40
2.055518
 40
2.742622
 40
3.423933
 40
4.111037
 40
4.111037
 40
4.111037
 40
4.111037
 10
139.071050
 20
76.305710
 30
0.0
 10
139.088693
 20
76.535428
 30
0.0
 10
139.123831
 20
76.992929
 30
0.0
 10
139.401710
 20
77.632091
 30
0.0
 10
139.824142
 20
78.180379
 30
0.0
 10
140.378627
 20
78.594642
 30
0.0
 10
141.021836
 20
78.863022
 30
0.0
 10
141.479807
 20
78.891379
 30
0.0
 10
141.709761
 20
78.905617
 30
0.0
 11
139.071050
 21
76.305710
 31
0.0
 11
139.161761
 21
76.986799
 31
0.0
 11
139.424782
 21
77.615294
 31
0.0
 11
139.846213
 21
78.157978
 31
0.0
 11
140.395081
 21
78.571324
 31
0.0
 11
141.027403
 21
78.825006
 31
0.0
 11
141.709761
 21
78.905617
 31
0.0
  0
SPLINE
  5
12b
100
AcDbEntity
  8
0
 62
1
100
AcDbSpline
 70
0
 71
3
 72
10
 73
6
 74
4
 40
0.000000
 40
0.000000
 40
0.000000
 40
0.000000
 40
1.330562
 40
2.623952
 40
3.954514
 40
3.954514
 40
3.954514
 40
3.954514
 10
141.709761
 20
78.905617
 30
0.0
 10
142.153388
 20
78.825736
 30
0.0
 10
143.028247
 20
78.668204
 30
0.0
 10
144.035266
 20
77.659798
 30
0.0
 10
144.191593
 20
76.784723
 30
0.0
 10
144.270864
 20
76.340987
 30
0.0
 11
141.709761
 21
78.905617
 31
0.0
 11
142.987499
 21
78.534428
 31
0.0
 11
143.901435
 21
77.619234
 31
0.0
 11
144.270864
 21
76.340987
 31
0.0
  0
LWPOLYLINE
  5
12c
100
AcDbEntity
  8
0
 62
1
100
AcDbPolyline
 90
2
 70
0
 10
123.408108
 20
71.987818
 30
0.0
 10
133.786571
 20
71.973707
 30
0.0
  0
SPLINE
  5
12d
100
AcDbEntity
  8
0
 62
1
100
AcDbSpline
 70
0
 71
3
 72
13
 73
9
 74
7
 40
0.000000
 40
0.000000
 40
0.000000
 40
0.000000
 40
1.359416
 40
2.678513
 40
4.037930
 40
5.397346
 40
6.716443
 40
8.075859
 40
8.075859
 40
8.075859
 40
8.075859
 10
144.270864
 20
76.340987
 30
0.0
 10
144.202463
 20
75.882181
 30
0.0
 10
144.067688
 20
74.978177
 30
0.0
 10
143.040138
 20
73.976978
 30
0.0
 10
141.689437
 20
73.599424
 30
0.0
 10
140.333737
 20
73.958617
 30
0.0
 10
139.292697
 20
74.945782
 30
0.0
 10
139.145670
 20
75.847874
 30
0.0
 10
139.071050
 20
76.305710
 30
0.0
 11
144.270864
 21
76.340987
 31
0.0
 11
143.924803
 21
75.026356
 31
0.0
 11
142.998410
 21
74.087307
 31
0.0
 11
141.688595
 21
73.723441
 31
0.0
 11
140.373964
 21
74.069502
 31
0.0
 11
139.434916
 21
74.995895
 31
0.0
 11
139.071050
 21
76.305710
 31
0.0
  0
SPLINE
  5
12e
100
AcDbEntity
  8
0
 62
1
100
AcDbSpline
 70
0
 71
3
 72
13
 73
9
 74
7
 40
0.000000
 40
0.000000
 40
0.000000
 40
0.000000
 40
0.180780
 40
0.358769
 40
0.539549
 40
0.720329
 40
0.898318
 40
1.079098
 40
1.079098
 40
1.079098
 40
1.079098
 10
146.779051
 20
71.973707
 30
0.0
 10
146.839743
 20
71.979212
 30
0.0
 10
146.960189
 20
71.990135
 30
0.0
 10
147.118773
 20
72.086672
 30
0.0
 10
147.234413
 20
72.228979
 30
0.0
 10
147.290227
 20
72.403647
 30
0.0
 10
147.284232
 20
72.589206
 30
0.0
 10
147.227455
 20
72.695991
 30
0.0
 10
147.198846
 20
72.749799
 30
0.0
 11
146.779051
 21
71.973707
 31
0.0
 11
146.957319
 21
72.003745
 31
0.0
 11
147.110924
 21
72.093663
 31
0.0
 11
147.224390
 21
72.234401
 31
0.0
 11
147.280080
 21
72.406389
 31
0.0
 11
147.271270
 21
72.584160
 31
0.0
 11
147.198846
 21
72.749799
 31
0.0
  0
LWPOLYLINE
  5
12f
100
AcDbEntity
  8
0
 62
1
100
AcDbPolyline
 90
1
 70
1
 10
139.071050
 20
76.305710
 30
0.0
  0
SPLINE
  5
130
100
AcDbEntity
  8
0
 62
1
100
AcDbSpline
 70
0
 71
3
 72
10
 73
6
 74
4
 40
0.000000
 40
0.000000
 40
0.000000
 40
0.000000
 40
0.594064
 40
1.184911
 40
1.778975
 40
1.778975
 40
1.778975
 40
1.778975
 10
147.198846
 20
72.749799
 30
0.0
 10
147.093857
 20
72.918269
 30
0.0
 10
146.884447
 20
73.254296
 30
0.0
 10
146.704018
 20
73.828277
 30
0.0
 10
146.683505
 20
74.223683
 30
0.0
 10
146.673221
 20
74.421924
 30
0.0
 11
147.198846
 21
72.749799
 31
0.0
 11
146.906308
 21
73.266842
 31
0.0
 11
146.729125
 21
73.830496
 31
0.0
 11
146.673221
 21
74.421924
 31
0.0
  0
SPLINE
  5
131
100
AcDbEntity
  8
0
 62
1
100
AcDbSpline
 70
0
 71
3
 72
10
 73
6
 74
4
 40
0.000000
 40
0.000000
 40
0.000000
 40
0.000000
 40
2.459760
 40
4.855701
 40
7.315461
 40
7.315461
 40
7.315461
 40
7.315461
 10
146.673221
 20
76.185768
 30
0.0
 10
146.562787
 20
77.010463
 30
0.0
 10
146.344785
 20
78.638455
 30
0.0
 10
144.625487
 20
80.616469
 30
0.0
 10
143.043721
 20
81.059070
 30
0.0
 10
142.242443
 20
81.283280
 30
0.0
 11
146.673221
 21
76.185768
 31
0.0
 11
146.105014
 21
78.579000
 31
0.0
 11
144.533220
 21
80.387314
 31
0.0
 11
142.242443
 21
81.283280
 31
0.0
  0
LWPOLYLINE
  5
132
100
AcDbEntity
  8
0
 62
1
100
AcDbPolyline
 90
2
 70
0
 10
146.673221
 20
74.421924
 30
0.0
 10
146.673221
 20
76.185768
 30
0.0
  0
LWPOLYLINE
  5
133
100
AcDbEntity
  8
0
 62
1
100
AcDbPolyline
 90
1
 70
1
 10
136.076041
 20
72.640440
 30
0.0
  0
SPLINE
  5
134
100
AcDbEntity
  8
0
 62
1
100
AcDbSpline
 70
0
 71
3
 72
25
 73
21
 74
19
 40
0.000000
 40
0.000000
 40
0.000000
 40
0.000000
 40
1.404120
 40
2.794931
 40
4.199050
 40
5.603170
 40
6.993981
 40
8.398100
 40
8.886489
 40
9.793498
 40
10.281887
 40
10.922198
 40
11.558974
 40
12.199285
 40
12.349666
 40
12.497677
 40
12.648058
 40
12.798439
 40
12.946449
 40
13.096830
 40
13.096830
 40
13.096830
 40
13.096830
 10
142.242443
 20
81.283280
 30
0.0
 10
141.771536
 20
81.298786
 30
0.0
 10
140.834186
 20
81.329652
 30
0.0
 10
139.480022
 20
80.879119
 30
0.0
 10
138.299600
 20
80.099227
 30
0.0
 10
137.385425
 20
79.014151
 30
0.0
 10
136.799967
 20
77.721235
 30
0.0
 10
136.661455
 20
76.621116
 30
0.0
 10
136.676098
 20
75.688488
 30
0.0
 10
136.667354
 20
75.060458
 30
0.0
 10
136.681420
 20
74.381779
 30
0.0
 10
136.625537
 20
73.793851
 30
0.0
 10
136.429061
 20
73.175087
 30
0.0
 10
136.158060
 20
72.784277
 30
0.0
 10
135.999751
 20
72.509713
 30
0.0
 10
135.989004
 20
72.355726
 30
0.0
 10
136.030821
 20
72.208918
 30
0.0
 10
136.123680
 20
72.087867
 30
0.0
 10
136.253705
 20
72.004360
 30
0.0
 10
136.353715
 20
71.993361
 30
0.0
 10
136.404116
 20
71.987818
 30
0.0
 11
142.242443
 21
81.283280
 31
0.0
 11
140.838809
 21
81.246323
 31
0.0
 11
139.512950
 21
80.826261
 31
0.0
 11
138.344115
 21
80.048202
 31
0.0
 11
137.437749
 21
78.975797
 31
0.0
 11
136.869121
 21
77.706538
 31
0.0
 11
136.672221
 21
76.316293
 31
0.0
 11
136.672221
 21
75.827904
 31
0.0
 11
136.672221
 21
74.920896
 31
0.0
 11
136.672221
 21
74.432507
 31
0.0
 11
136.602690
 21
73.795982
 31
0.0
 11
136.401681
 21
73.191764
 31
0.0
 11
136.076041
 21
72.640440
 31
0.0
 11
136.010318
 21
72.505182
 31
0.0
 11
135.997660
 21
72.357714
 31
0.0
 11
136.039373
 21
72.213234
 31
0.0
 11
136.130447
 21
72.093568
 31
0.0
 11
136.256353
 21
72.015756
 31
0.0
 11
136.404116
 21
71.987818
 31
0.0
  0
LWPOLYLINE
  5
135
100
AcDbEntity
  8
0
 62
1
100
AcDbPolyline
 90
2
 70
0
 10
136.404116
 20
71.987818
 30
0.0
 10
146.779051
 20
71.973707
 30
0.0
  0
SPLINE
  5
136
100
AcDbEntity
  8
0
 62
1
100
AcDbSpline
 70
0
 71
3
 72
25
 73
21
 74
19
 40
0.000000
 40
0.000000
 40
0.000000
 40
0.000000
 40
0.432020
 40
0.856347
 40
1.288367
 40
1.720387
 40
2.144714
 40
2.576734
 40
3.008754
 40
3.433081
 40
3.865101
 40
4.297121
 40
4.721448
 40
5.153468
 40
5.441588
 40
5.727323
 40
6.015443
 40
6.303562
 40
6.589298
 40
6.877418
 40
6.877418
 40
6.877418
 40
6.877418
 10
141.632152
 20
212.566246
 30
0.0
 10
141.648877
 20
212.711182
 30
0.0
 10
141.682028
 20
212.998474
 30
0.0
 10
141.936333
 20
213.364585
 30
0.0
 10
142.299939
 20
213.609898
 30
0.0
 10
142.733068
 20
213.695399
 30
0.0
 10
143.164739
 20
213.609497
 30
0.0
 10
143.531579
 20
213.365023
 30
0.0
 10
143.776040
 20
212.998233
 30
0.0
 10
143.861942
 20
212.566377
 30
0.0
 10
143.776454
 20
212.133948
 30
0.0
 10
143.531093
 20
211.767734
 30
0.0
 10
143.165159
 20
211.523051
 30
0.0
 10
142.780613
 20
211.446407
 30
0.0
 10
142.444690
 20
211.490961
 30
0.0
 10
142.176229
 20
211.602125
 30
0.0
 10
141.945291
 20
211.778988
 30
0.0
 10
141.769587
 20
212.009635
 30
0.0
 10
141.654103
 20
212.278098
 30
0.0
 10
141.639490
 20
212.469931
 30
0.0
 10
141.632152
 20
212.566246
 30
0.0
 11
141.632152
 21
212.566246
 31
0.0
 11
141.716908
 21
212.989870
 31
0.0
 11
141.952652
 21
213.342685
 31
0.0
 11
142.311595
 21
213.583104
 31
0.0
 11
142.735408
 21
213.666913
 31
0.0
 11
143.151581
 21
213.584131
 31
0.0
 11
143.511061
 21
213.344515
 31
0.0
 11
143.750677
 21
212.985036
 31
0.0
 11
143.833459
 21
212.568862
 31
0.0
 11
143.749649
 21
212.145050
 31
0.0
 11
143.509231
 21
211.786106
 31
0.0
 11
143.156416
 21
211.550363
 31
0.0
 11
142.732791
 21
211.465607
 31
0.0
 11
142.447150
 21
211.503315
 31
0.0
 11
142.183165
 21
211.612661
 31
0.0
 11
141.954522
 21
211.787976
 31
0.0
 11
141.779207
 21
212.016619
 31
0.0
 11
141.669861
 21
212.280604
 31
0.0
 11
141.632152
 21
212.566246
 31
0.0
  0
LWPOLYLINE
  5
137
100
AcDbEntity
  8
0
 62
1
100
AcDbPolyline
 90
1
 70
1
 10
141.632152
 20
212.566246
 30
0.0
  0
SPLINE
  5
138
100
AcDbEntity
  8
0
 62
1
100
AcDbSpline
 70
0
 71
3
 72
25
 73
21
 74
19
 40
0.000000
 40
0.000000
 40
0.000000
 40
0.000000
 40
0.432020
 40
0.856347
 40
1.288367
 40
1.720387
 40
2.144714
 40
2.576734
 40
3.008754
 40
3.433081
 40
3.865101
 40
4.297121
 40
4.721448
 40
5.153468
 40
5.441588
 40
5.727323
 40
6.015443
 40
6.303562
 40
6.589298
 40
6.877418
 40
6.877418
 40
6.877418
 40
6.877418
 10
65.606915
 20
208.936253
 30
0.0
 10
65.623639
 20
209.081190
 30
0.0
 10
65.656790
 20
209.368482
 30
0.0
 10
65.911096
 20
209.734593
 30
0.0
 10
66.274701
 20
209.979906
 30
0.0
 10
66.707831
 20
210.065406
 30
0.0
 10
67.139502
 20
209.979504
 30
0.0
 10
67.506342
 20
209.735030
 30
0.0
 10
67.750803
 20
209.368241
 30
0.0
 10
67.836705
 20
208.936385
 30
0.0
 10
67.751217
 20
208.503955
 30
0.0
 10
67.505856
 20
208.137741
 30
0.0
 10
67.139922
 20
207.893059
 30
0.0
 10
66.755376
 20
207.816415
 30
0.0
 10
66.419452
 20
207.860969
 30
0.0
 10
66.150992
 20
207.972132
 30
0.0
 10
65.920054
 20
208.148995
 30
0.0
 10
65.744349
 20
208.379643
 30
0.0
 10
65.628866
 20
208.648105
 30
0.0
 10
65.614252
 20
208.839938
 30
0.0
 10
65.606915
 20
208.936253
 30
0.0
 11
65.606915
 21
208.936253
 31
0.0
 11
65.691671
 21
209.359878
 31
0.0
 11
65.927415
 21
209.712693
 31
0.0
 11
66.286358
 21
209.953111
 31
0.0
 11
66.710171
 21
210.036921
 31
0.0
 11
67.126344
 21
209.954139
 31
0.0
 11
67.485824
 21
209.714523
 31
0.0
 11
67.725440
 21
209.355043
 31
0.0
 11
67.808222
 21
208.938870
 31
0.0
 11
67.724412
 21
208.515057
 31
0.0
 11
67.483994
 21
208.156114
 31
0.0
 11
67.131179
 21
207.920370
 31
0.0
 11
66.707554
 21
207.835614
 31
0.0
 11
66.421913
 21
207.873323
 31
0.0
 11
66.157928
 21
207.982669
 31
0.0
 11
65.929285
 21
208.157984
 31
0.0
 11
65.753970
 21
208.386627
 31
0.0
 11
65.644624
 21
208.650612
 31
0.0
 11
65.606915
 21
208.936253
 31
0.0
  0
LWPOLYLINE
  5
139
100
AcDbEntity
  8
0
 62
1
100
AcDbPolyline
 90
1
 70
1
 10
65.606915
 20
208.936253
 30
0.0
  0
SPLINE
  5
13a
100
AcDbEntity
  8
0
 62
1
100
AcDbSpline
 70
0
 71
3
 72
22
 73
18
 74
16
 40
0.000000
 40
0.000000
 40
0.000000
 40
0.000000
 40
0.432020
 40
0.856347
 40
1.288367
 40
1.720387
 40
2.144714
 40
2.576734
 40
3.008754
 40
3.433081
 40
3.865101
 40
4.297121
 40
4.721448
 40
5.153468
 40
5.728947
 40
6.287358
 40
6.862837
 40
6.862837
 40
6.862837
 40
6.862837
 10
65.596332
 20
189.922007
 30
0.0
 10
65.613056
 20
190.066943
 30
0.0
 10
65.646207
 20
190.354235
 30
0.0
 10
65.900513
 20
190.720346
 30
0.0
 10
66.264118
 20
190.965659
 30
0.0
 10
66.697248
 20
191.051160
 30
0.0
 10
67.128919
 20
190.965258
 30
0.0
 10
67.495759
 20
190.720784
 30
0.0
 10
67.740220
 20
190.353995
 30
0.0
 10
67.826124
 20
189.922135
 30
0.0
 10
67.740626
 20
189.489718
 30
0.0
 10
67.495302
 20
189.123459
 30
0.0
 10
67.129230
 20
188.878943
 30
0.0
 10
66.648712
 20
188.782353
 30
0.0
 10
66.124162
 20
188.924698
 30
0.0
 10
65.686241
 20
189.345717
 30
0.0
 10
65.626601
 20
189.727992
 30
0.0
 10
65.596332
 20
189.922007
 30
0.0
 11
65.596332
 21
189.922007
 31
0.0
 11
65.681088
 21
190.345631
 31
0.0
 11
65.916832
 21
190.698446
 31
0.0
 11
66.275775
 21
190.938865
 31
0.0
 11
66.699588
 21
191.022674
 31
0.0
 11
67.115761
 21
190.939892
 31
0.0
 11
67.475241
 21
190.700276
 31
0.0
 11
67.714857
 21
190.340797
 31
0.0
 11
67.797639
 21
189.924623
 31
0.0
 11
67.713829
 21
189.500810
 31
0.0
 11
67.473411
 21
189.141867
 31
0.0
 11
67.120596
 21
188.906124
 31
0.0
 11
66.696971
 21
188.821368
 31
0.0
 11
66.141458
 21
188.971637
 31
0.0
 11
65.746602
 21
189.366493
 31
0.0
 11
65.596332
 21
189.922007
 31
0.0
  0
LWPOLYLINE
  5
13b
100
AcDbEntity
  8
0
 62
1
100
AcDbPolyline
 90
1
 70
1
 10
65.596332
 20
189.922007
 30
0.0
  0
SPLINE
  5
13c
100
AcDbEntity
  8
0
 62
1
100
AcDbSpline
 70
0
 71
3
 72
25
 73
21
 74
19
 40
0.000000
 40
0.000000
 40
0.000000
 40
0.000000
 40
0.432313
 40
0.856918
 40
1.289231
 40
1.721544
 40
2.146149
 40
2.578461
 40
3.010774
 40
3.435379
 40
3.867692
 40
4.300005
 40
4.724610
 40
5.156923
 40
5.444708
 40
5.730102
 40
6.017886
 40
6.305671
 40
6.591065
 40
6.878850
 40
6.878850
 40
6.878850
 40
6.878850
 10
155.368975
 20
165.058851
 30
0.0
 10
155.385724
 20
165.203887
 30
0.0
 10
155.418922
 20
165.491373
 30
0.0
 10
155.673561
 20
165.857642
 30
0.0
 10
156.037586
 20
166.102883
 30
0.0
 10
156.471102
 20
166.188036
 30
0.0
 10
156.902973
 20
166.101553
 30
0.0
 10
157.269712
 20
165.856368
 30
0.0
 10
157.513707
 20
165.488893
 30
0.0
 10
157.598802
 20
165.056564
 30
0.0
 10
157.512271
 20
164.624014
 30
0.0
 10
157.265810
 20
164.258207
 30
0.0
 10
156.898920
 20
164.014231
 30
0.0
 10
156.514090
 20
163.939250
 30
0.0
 10
156.178326
 20
163.983525
 30
0.0
 10
155.910249
 20
164.094858
 30
0.0
 10
155.679808
 20
164.271808
 30
0.0
 10
155.504736
 20
164.502529
 30
0.0
 10
155.390021
 20
164.770968
 30
0.0
 10
155.376010
 20
164.962623
 30
0.0
 10
155.368975
 20
165.058851
 30
0.0
 11
155.368975
 21
165.058851
 31
0.0
 11
155.453849
 21
165.482751
 31
0.0
 11
155.689889
 21
165.835701
 31
0.0
 11
156.049237
 21
166.076042
 31
0.0
 11
156.473416
 21
166.159509
 31
0.0
 11
156.889762
 21
166.076171
 31
0.0
 11
157.249132
 21
165.835864
 31
0.0
 11
157.488284
 21
165.475725
 31
0.0
 11
157.570285
 21
165.059113
 31
0.0
 11
157.485456
 21
164.635204
 31
0.0
 11
157.243963
 21
164.276630
 31
0.0
 11
156.890257
 21
164.041724
 31
0.0
 11
156.466087
 21
163.958212
 31
0.0
 11
156.180787
 21
163.995952
 31
0.0
 11
155.917205
 21
164.105379
 31
0.0
 11
155.689062
 21
164.280794
 31
0.0
 11
155.514379
 21
164.509500
 31
0.0
 11
155.405800
 21
164.773432
 31
0.0
 11
155.368975
 21
165.058851
 31
0.0
  0
LWPOLYLINE
  5
13d
100
AcDbEntity
  8
0
 62
1
100
AcDbPolyline
 90
1
 70
1
 10
155.368975
 20
165.058851
 30
0.0
  0
LWPOLYLINE
  5
13e
100
AcDbEntity
  8
0
 62
1
100
AcDbPolyline
 90
1
 70
1
 10
108.849333
 20
172.812712
 30
0.0
  0
LWPOLYLINE
  5
13f
100
AcDbEntity
  8
0
 62
1
100
AcDbPolyline
 90
4
 70
1
 10
50.272049
 20
225.368232
 30
0.0
 10
64.121757
 20
225.368232
 30
0.0
 10
64.121757
 20
211.518523
 30
0.0
 10
50.272049
 20
211.518523
 30
0.0
  0
LWPOLYLINE
  5
140
100
AcDbEntity
  8
0
 62
1
100
AcDbPolyline
 90
4
 70
1
 10
50.272049
 20
206.368095
 30
0.0
 10
64.121757
 20
206.368095
 30
0.0
 10
64.121757
 20
192.518387
 30
0.0
 10
50.272049
 20
192.518387
 30
0.0
  0
LWPOLYLINE
  5
141
100
AcDbEntity
  8
0
 62
1
100
AcDbPolyline
 90
4
 70
1
 10
50.272049
 20
187.367963
 30
0.0
 10
64.121757
 20
187.367963
 30
0.0
 10
64.121757
 20
173.518255
 30
0.0
 10
50.272049
 20
173.518255
 30
0.0
  0
LWPOLYLINE
  5
142
100
AcDbEntity
  8
0
 62
1
100
AcDbPolyline
 90
4
 70
1
 10
69.272185
 20
225.368232
 30
0.0
 10
83.121893
 20
225.368232
 30
0.0
 10
83.121893
 20
211.518523
 30
0.0
 10
69.272185
 20
211.518523
 30
0.0
  0
LWPOLYLINE
  5
143
100
AcDbEntity
  8
0
 62
1
100
AcDbPolyline
 90
4
 70
1
 10
69.272185
 20
206.368095
 30
0.0
 10
83.121893
 20
206.368095
 30
0.0
 10
83.121893
 20
192.518387
 30
0.0
 10
69.272185
 20
192.518387
 30
0.0
  0
LWPOLYLINE
  5
144
100
AcDbEntity
  8
0
 62
1
100
AcDbPolyline
 90
4
 70
1
 10
69.272185
 20
187.367963
 30
0.0
 10
83.121893
 20
187.367963
 30
0.0
 10
83.121893
 20
173.518255
 30
0.0
 10
69.272185
 20
173.518255
 30
0.0
  0
LWPOLYLINE
  5
145
100
AcDbEntity
  8
0
 62
1
100
AcDbPolyline
 90
4
 70
1
 10
88.275848
 20
230.120029
 30
0.0
 10
102.125556
 20
230.120029
 30
0.0
 10
102.125556
 20
216.270321
 30
0.0
 10
88.275848
 20
216.270321
 30
0.0
  0
LWPOLYLINE
  5
146
100
AcDbEntity
  8
0
 62
1
100
AcDbPolyline
 90
4
 70
1
 10
88.275848
 20
211.116365
 30
0.0
 10
102.125556
 20
211.116365
 30
0.0
 10
102.125556
 20
197.266657
 30
0.0
 10
88.275848
 20
197.266657
 30
0.0
  0
LWPOLYLINE
  5
147
100
AcDbEntity
  8
0
 62
1
100
AcDbPolyline
 90
4
 70
1
 10
88.275848
 20
192.116230
 30
0.0
 10
102.125556
 20
192.116230
 30
0.0
 10
102.125556
 20
178.266521
 30
0.0
 10
88.275848
 20
178.266521
 30
0.0
  0
LWPOLYLINE
  5
148
100
AcDbEntity
  8
0
 62
1
100
AcDbPolyline
 90
4
 70
1
 10
107.275984
 20
232.494164
 30
0.0
 10
121.125692
 20
232.494164
 30
0.0
 10
121.125692
 20
218.644456
 30
0.0
 10
107.275984
 20
218.644456
 30
0.0
  0
LWPOLYLINE
  5
149
100
AcDbEntity
  8
0
 62
1
100
AcDbPolyline
 90
4
 70
1
 10
107.275984
 20
213.494027
 30
0.0
 10
121.125692
 20
213.494027
 30
0.0
 10
121.125692
 20
199.644319
 30
0.0
 10
107.275984
 20
199.644319
 30
0.0
  0
LWPOLYLINE
  5
14a
100
AcDbEntity
  8
0
 62
1
100
AcDbPolyline
 90
4
 70
1
 10
107.275984
 20
194.493892
 30
0.0
 10
121.125692
 20
194.493892
 30
0.0
 10
121.125692
 20
180.644184
 30
0.0
 10
107.275984
 20
180.644184
 30
0.0
  0
LWPOLYLINE
  5
14b
100
AcDbEntity
  8
0
 62
1
100
AcDbPolyline
 90
4
 70
1
 10
126.276120
 20
230.120029
 30
0.0
 10
140.125828
 20
230.120029
 30
0.0
 10
140.125828
 20
216.270321
 30
0.0
 10
126.276120
 20
216.270321
 30
0.0
  0
LWPOLYLINE
  5
14c
100
AcDbEntity
  8
0
 62
1
100
AcDbPolyline
 90
4
 70
1
 10
126.276120
 20
211.116365
 30
0.0
 10
140.125828
 20
211.116365
 30
0.0
 10
140.125828
 20
197.266657
 30
0.0
 10
126.276120
 20
197.266657
 30
0.0
  0
LWPOLYLINE
  5
14d
100
AcDbEntity
  8
0
 62
1
100
AcDbPolyline
 90
4
 70
1
 10
126.276120
 20
192.116230
 30
0.0
 10
140.125828
 20
192.116230
 30
0.0
 10
140.125828
 20
178.266521
 30
0.0
 10
126.276120
 20
178.266521
 30
0.0
  0
LWPOLYLINE
  5
14e
100
AcDbEntity
  8
0
 62
1
100
AcDbPolyline
 90
4
 70
1
 10
145.276252
 20
227.742366
 30
0.0
 10
159.125960
 20
227.742366
 30
0.0
 10
159.125960
 20
213.892658
 30
0.0
 10
145.276252
 20
213.892658
 30
0.0
  0
LWPOLYLINE
  5
14f
100
AcDbEntity
  8
0
 62
1
100
AcDbPolyline
 90
4
 70
1
 10
145.276252
 20
208.742232
 30
0.0
 10
159.125960
 20
208.742232
 30
0.0
 10
159.125960
 20
194.892523
 30
0.0
 10
145.276252
 20
194.892523
 30
0.0
  0
LWPOLYLINE
  5
150
100
AcDbEntity
  8
0
 62
1
100
AcDbPolyline
 90
4
 70
1
 10
145.276252
 20
189.742095
 30
0.0
 10
159.125960
 20
189.742095
 30
0.0
 10
159.125960
 20
175.892386
 30
0.0
 10
145.276252
 20
175.892386
 30
0.0
  0
LWPOLYLINE
  5
151
100
AcDbEntity
  8
0
 62
1
100
AcDbPolyline
 90
4
 70
1
 10
116.776048
 20
172.491689
 30
0.0
 10
130.625757
 20
172.491689
 30
0.0
 10
130.625757
 20
158.641981
 30
0.0
 10
116.776048
 20
158.641981
 30
0.0
  0
LWPOLYLINE
  5
152
100
AcDbEntity
  8
0
 62
1
100
AcDbPolyline
 90
4
 70
1
 10
136.230915
 20
157.912684
 30
0.0
 10
139.801472
 20
171.294222
 30
0.0
 10
153.183009
 20
167.723664
 30
0.0
 10
149.612452
 20
154.342127
 30
0.0
  0
SPLINE
  5
153
100
AcDbEntity
  8
0
 62
1
100
AcDbSpline
 70
0
 71
3
 72
25
 73
21
 74
19
 40
0.000000
 40
0.000000
 40
0.000000
 40
0.000000
 40
0.432020
 40
0.856347
 40
1.288367
 40
1.720387
 40
2.144714
 40
2.576734
 40
3.008754
 40
3.433081
 40
3.865101
 40
4.297121
 40
4.721448
 40
5.153468
 40
5.441588
 40
5.727323
 40
6.015443
 40
6.303562
 40
6.589298
 40
6.877418
 40
6.877418
 40
6.877418
 40
6.877418
 10
108.849333
 20
172.812712
 30
0.0
 10
108.866058
 20
172.957649
 30
0.0
 10
108.899209
 20
173.244941
 30
0.0
 10
109.153514
 20
173.611052
 30
0.0
 10
109.517120
 20
173.856365
 30
0.0
 10
109.950249
 20
173.941865
 30
0.0
 10
110.381920
 20
173.855964
 30
0.0
 10
110.748760
 20
173.611490
 30
0.0
 10
110.993222
 20
173.244700
 30
0.0
 10
111.079123
 20
172.812844
 30
0.0
 10
110.993635
 20
172.380414
 30
0.0
 10
110.748274
 20
172.014200
 30
0.0
 10
110.382340
 20
171.769518
 30
0.0
 10
109.997794
 20
171.692874
 30
0.0
 10
109.661871
 20
171.737428
 30
0.0
 10
109.393410
 20
171.848591
 30
0.0
 10
109.162472
 20
172.025454
 30
0.0
 10
108.986768
 20
172.256102
 30
0.0
 10
108.871284
 20
172.524564
 30
0.0
 10
108.856671
 20
172.716397
 30
0.0
 10
108.849333
 20
172.812712
 30
0.0
 11
108.849333
 21
172.812712
 31
0.0
 11
108.934090
 21
173.236337
 31
0.0
 11
109.169833
 21
173.589152
 31
0.0
 11
109.528776
 21
173.829570
 31
0.0
 11
109.952589
 21
173.913380
 31
0.0
 11
110.368763
 21
173.830598
 31
0.0
 11
110.728242
 21
173.590982
 31
0.0
 11
110.967858
 21
173.231502
 31
0.0
 11
111.050640
 21
172.815329
 31
0.0
 11
110.966831
 21
172.391516
 31
0.0
 11
110.726412
 21
172.032573
 31
0.0
 11
110.373597
 21
171.796829
 31
0.0
 11
109.949973
 21
171.712073
 31
0.0
 11
109.664331
 21
171.749782
 31
0.0
 11
109.400346
 21
171.859128
 31
0.0
 11
109.171703
 21
172.034443
 31
0.0
 11
108.996388
 21
172.263086
 31
0.0
 11
108.887042
 21
172.527071
 31
0.0
 11
108.849333
 21
172.812712
 31
0.0
  0
SPLINE
  5
154
100
AcDbEntity
  8
0
 62
1
100
AcDbSpline
 70
0
 71
3
 72
16
 73
12
 74
10
 40
0.000000
 40
0.000000
 40
0.000000
 40
0.000000
 40
1.357824
 40
2.675454
 40
4.033278
 40
5.391101
 40
6.708731
 40
8.066555
 40
9.424379
 40
10.742009
 40
12.099833
 40
12.099833
 40
12.099833
 40
12.099833
 10
149.601203
 20
234.691915
 30
0.0
 10
149.672496
 20
235.149697
 30
0.0
 10
149.812973
 20
236.051711
 30
0.0
 10
150.845838
 20
237.045544
 30
0.0
 10
152.193830
 20
237.415545
 30
0.0
 10
153.557282
 20
237.050281
 30
0.0
 10
154.552139
 20
236.060793
 30
0.0
 10
154.924778
 20
234.699338
 30
0.0
 10
154.562079
 20
233.349364
 30
0.0
 10
153.573851
 20
232.311135
 30
0.0
 10
152.672611
 20
232.165778
 30
0.0
 10
152.215221
 20
232.092007
 30
0.0
 11
149.601203
 21
234.691915
 31
0.0
 11
149.955373
 21
236.002735
 31
0.0
 11
150.886246
 21
236.935271
 31
0.0
 11
152.196432
 21
237.291779
 31
0.0
 11
153.507892
 21
236.939988
 31
0.0
 11
154.442116
 21
236.010808
 31
0.0
 11
154.801000
 21
234.701271
 31
0.0
 11
154.451589
 21
233.389174
 31
0.0
 11
153.524105
 21
232.453267
 31
0.0
 11
152.215221
 21
232.092007
 31
0.0
  0
LWPOLYLINE
  5
155
100
AcDbEntity
  8
0
 62
1
100
AcDbPolyline
 90
4
 70
1
 10
157.498227
 20
156.532863
 30
0.0
 10
164.414706
 20
168.531894
 30
0.0
 10
176.413737
 20
161.615415
 30
0.0
 10
169.497258
 20
149.616384
 30
0.0
  0
SPLINE
  5
156
100
AcDbEntity
  8
0
 62
1
100
AcDbSpline
 70
0
 71
3
 72
13
 73
9
 74
7
 40
0.000000
 40
0.000000
 40
0.000000
 40
0.000000
 40
0.680843
 40
1.356033
 40
2.036876
 40
2.717719
 40
3.392909
 40
4.073752
 40
4.073752
 40
4.073752
 40
4.073752
 10
152.215221
 20
232.092007
 30
0.0
 10
151.987584
 20
232.109067
 30
0.0
 10
151.534202
 20
232.143044
 30
0.0
 10
150.899791
 20
232.415534
 30
0.0
 10
150.353911
 20
232.830605
 30
0.0
 10
149.938841
 20
233.376485
 30
0.0
 10
149.666350
 20
234.010895
 30
0.0
 10
149.632373
 20
234.464278
 30
0.0
 10
149.615314
 20
234.691915
 30
0.0
 11
152.215221
 21
232.092007
 31
0.0
 11
151.540134
 21
232.180351
 31
0.0
 11
150.916164
 21
232.438311
 31
0.0
 11
150.375773
 21
232.852467
 31
0.0
 11
149.961617
 21
233.392858
 31
0.0
 11
149.703657
 21
234.016827
 31
0.0
 11
149.615314
 21
234.691915
 31
0.0
  0
LWPOLYLINE
  5
157
100
AcDbEntity
  8
0
 62
1
100
AcDbPolyline
 90
2
 70
0
 10
149.615314
 20
234.691915
 30
0.0
 10
149.601203
 20
234.691915
 30
0.0
  0
SPLINE
  5
158
100
AcDbEntity
  8
0
 62
1
100
AcDbSpline
 70
0
 71
3
 72
25
 73
21
 74
19
 40
0.000000
 40
0.000000
 40
0.000000
 40
0.000000
 40
1.020509
 40
2.022845
 40
3.043354
 40
4.063863
 40
5.066199
 40
6.086708
 40
7.107217
 40
8.109553
 40
9.130062
 40
10.150571
 40
11.152908
 40
12.173416
 40
12.854007
 40
13.528965
 40
14.209556
 40
14.890146
 40
15.565104
 40
16.245695
 40
16.245695
 40
16.245695
 40
16.245695
 10
43.318973
 20
216.044548
 30
0.0
 10
42.976607
 20
216.084054
 30
0.0
 10
42.297971
 20
216.162362
 30
0.0
 10
41.433152
 20
216.763077
 30
0.0
 10
40.853678
 20
217.621979
 30
0.0
 10
40.651711
 20
218.645109
 30
0.0
 10
40.854626
 20
219.664793
 30
0.0
 10
41.432118
 20
220.531335
 30
0.0
 10
42.298541
 20
221.108796
 30
0.0
 10
43.318662
 20
221.311712
 30
0.0
 10
44.340139
 20
221.109773
 30
0.0
 10
45.205201
 20
220.530187
 30
0.0
 10
45.783186
 20
219.665785
 30
0.0
 10
45.964233
 20
218.757418
 30
0.0
 10
45.858987
 20
217.963907
 30
0.0
 10
45.596400
 20
217.329755
 30
0.0
 10
45.178618
 20
216.784237
 30
0.0
 10
44.633787
 20
216.369192
 30
0.0
 10
43.999630
 20
216.096400
 30
0.0
 10
43.546486
 20
216.061880
 30
0.0
 10
43.318973
 20
216.044548
 30
0.0
 11
43.318973
 21
216.044548
 31
0.0
 11
42.318296
 21
216.244757
 31
0.0
 11
41.484883
 21
216.801625
 31
0.0
 11
40.916972
 21
217.649514
 31
0.0
 11
40.718998
 21
218.650635
 31
0.0
 11
40.914544
 21
219.633712
 31
0.0
 11
41.480561
 21
220.482867
 31
0.0
 11
42.329715
 21
221.048883
 31
0.0
 11
43.312792
 21
221.244429
 31
0.0
 11
44.313914
 21
221.046456
 31
0.0
 11
45.161802
 21
220.478544
 31
0.0
 11
45.718671
 21
219.645132
 31
0.0
 11
45.918880
 21
218.644455
 31
0.0
 11
45.829806
 21
217.969719
 31
0.0
 11
45.571510
 21
217.346139
 31
0.0
 11
45.157385
 21
216.806043
 31
0.0
 11
44.617289
 21
216.391917
 31
0.0
 11
43.993709
 21
216.133622
 31
0.0
 11
43.318973
 21
216.044548
 31
0.0
  0
SPLINE
  5
159
100
AcDbEntity
  8
0
 62
1
100
AcDbSpline
 70
0
 71
3
 72
16
 73
12
 74
10
 40
0.000000
 40
0.000000
 40
0.000000
 40
0.000000
 40
1.359366
 40
2.678415
 40
4.037781
 40
5.397147
 40
6.716196
 40
8.075562
 40
9.434929
 40
10.753977
 40
12.113344
 40
12.113344
 40
12.113344
 40
12.113344
 10
180.055747
 20
153.897241
 30
0.0
 10
180.416699
 20
153.605913
 30
0.0
 10
181.127899
 20
153.031897
 30
0.0
 10
181.470238
 20
151.638172
 30
0.0
 10
181.113160
 20
150.284945
 30
0.0
 10
180.111013
 20
149.288448
 30
0.0
 10
178.753752
 20
148.925883
 30
0.0
 10
177.388173
 20
149.289889
 30
0.0
 10
176.403841
 20
150.284784
 30
0.0
 10
176.005560
 20
151.663566
 30
0.0
 10
176.335772
 20
152.515775
 30
0.0
 10
176.503363
 20
152.948293
 30
0.0
 11
180.055747
 21
153.897241
 31
0.0
 11
181.013905
 21
152.932975
 31
0.0
 11
181.354298
 21
151.658604
 31
0.0
 11
181.004575
 21
150.344994
 31
0.0
 11
180.040330
 21
149.386814
 31
0.0
 11
178.765966
 21
149.046393
 31
0.0
 11
177.452348
 21
149.396087
 31
0.0
 11
176.494148
 21
150.360311
 31
0.0
 11
176.153699
 21
151.634668
 31
0.0
 11
176.503363
 21
152.948293
 31
0.0
  0
LWPOLYLINE
  5
15a
100
AcDbEntity
  8
0
 62
1
100
AcDbPolyline
 90
1
 70
1
 10
43.318973
 20
216.044548
 30
0.0
  0
SPLINE
  5
15b
100
AcDbEntity
  8
0
 62
1
100
AcDbSpline
 70
0
 71
3
 72
13
 73
9
 74
7
 40
0.000000
 40
0.000000
 40
0.000000
 40
0.000000
 40
0.680872
 40
1.356090
 40
2.036962
 40
2.717834
 40
3.393052
 40
4.073923
 40
4.073923
 40
4.073923
 40
4.073923
 10
176.503363
 20
152.948293
 30
0.0
 10
176.632099
 20
153.136816
 30
0.0
 10
176.888502
 20
153.512296
 30
0.0
 10
177.442024
 20
153.925070
 30
0.0
 10
178.074654
 20
154.189812
 30
0.0
 10
178.755031
 20
154.275813
 30
0.0
 10
179.440658
 20
154.194054
 30
0.0
 10
179.850148
 20
153.996453
 30
0.0
 10
180.055747
 20
153.897241
 30
0.0
 11
176.503363
 21
152.948293
 31
0.0
 11
176.917830
 21
153.488481
 31
0.0
 11
177.453545
 21
153.899491
 31
0.0
 11
178.082634
 21
154.159939
 31
0.0
 11
178.757801
 21
154.247897
 31
0.0
 11
179.427113
 21
154.158786
 31
0.0
 11
180.055747
 21
153.897241
 31
0.0
  0
LWPOLYLINE
  5
15c
100
AcDbEntity
  8
0
 62
1
100
AcDbPolyline
 90
1
 70
1
 10
180.055747
 20
153.897241
 30
0.0
  0
SPLINE
  5
15d
100
AcDbEntity
  8
0
 62
1
100
AcDbSpline
 70
0
 71
3
 72
22
 73
18
 74
16
 40
0.000000
 40
0.000000
 40
0.000000
 40
0.000000
 40
1.020509
 40
2.022845
 40
3.043354
 40
4.063863
 40
5.066199
 40
6.086708
 40
7.107217
 40
8.109553
 40
9.130062
 40
10.150571
 40
11.152908
 40
12.173416
 40
13.532802
 40
14.851868
 40
16.211253
 40
16.211253
 40
16.211253
 40
16.211253
 10
43.308390
 20
178.019582
 30
0.0
 10
42.966024
 20
178.059088
 30
0.0
 10
42.287388
 20
178.137397
 30
0.0
 10
41.422569
 20
178.738111
 30
0.0
 10
40.843095
 20
179.597013
 30
0.0
 10
40.641128
 20
180.620143
 30
0.0
 10
40.844043
 20
181.639828
 30
0.0
 10
41.421535
 20
182.506369
 30
0.0
 10
42.287956
 20
183.083829
 30
0.0
 10
43.308085
 20
183.286751
 30
0.0
 10
44.329533
 20
183.084789
 30
0.0
 10
45.194703
 20
182.505291
 30
0.0
 10
45.772292
 20
181.640562
 30
0.0
 10
46.000456
 20
180.505494
 30
0.0
 10
45.664211
 20
179.266412
 30
0.0
 10
44.669689
 20
178.231962
 30
0.0
 10
43.766687
 20
178.091082
 30
0.0
 10
43.308390
 20
178.019582
 30
0.0
 11
43.308390
 21
178.019582
 31
0.0
 11
42.307712
 21
178.219791
 31
0.0
 11
41.474300
 21
178.776660
 31
0.0
 11
40.906389
 21
179.624548
 31
0.0
 11
40.708415
 21
180.625670
 31
0.0
 11
40.903961
 21
181.608747
 31
0.0
 11
41.469978
 21
182.457901
 31
0.0
 11
42.319132
 21
183.023918
 31
0.0
 11
43.302209
 21
183.219464
 31
0.0
 11
44.303331
 21
183.021490
 31
0.0
 11
45.151219
 21
182.453579
 31
0.0
 11
45.708088
 21
181.620167
 31
0.0
 11
45.908297
 21
180.619489
 31
0.0
 11
45.553333
 21
179.307266
 31
0.0
 11
44.620612
 21
178.374546
 31
0.0
 11
43.308390
 21
178.019582
 31
0.0
  0
LWPOLYLINE
  5
15e
100
AcDbEntity
  8
0
 62
1
100
AcDbPolyline
 90
1
 70
1
 10
43.308390
 20
178.019582
 30
0.0
  0
SPLINE
  5
15f
100
AcDbEntity
  8
0
 62
1
100
AcDbSpline
 70
0
 71
3
 72
10
 73
6
 74
4
 40
0.000000
 40
0.000000
 40
0.000000
 40
0.000000
 40
0.631682
 40
1.247793
 40
1.879476
 40
1.879476
 40
1.879476
 40
1.879476
 10
181.244579
 20
165.774972
 30
0.0
 10
181.316412
 20
165.976000
 30
0.0
 10
181.458306
 20
166.373101
 30
0.0
 10
181.310353
 20
167.027351
 30
0.0
 10
181.011401
 20
167.324758
 30
0.0
 10
180.860060
 20
167.475317
 30
0.0
 11
181.244579
 21
165.774972
 31
0.0
 11
181.398539
 21
166.387605
 31
0.0
 11
181.262642
 21
166.988542
 31
0.0
 11
180.860060
 21
167.475317
 31
0.0
  0
LWPOLYLINE
  5
160
100
AcDbEntity
  8
0
 62
1
100
AcDbPolyline
 90
2
 70
0
 10
180.860060
 20
167.475317
 30
0.0
 10
161.785843
 20
178.513459
 30
0.0
  0
SPLINE
  5
161
100
AcDbEntity
  8
0
 62
1
100
AcDbSpline
 70
0
 71
3
 72
10
 73
6
 74
4
 40
0.000000
 40
0.000000
 40
0.000000
 40
0.000000
 40
0.388087
 40
0.774034
 40
1.162120
 40
1.162120
 40
1.162120
 40
1.162120
 10
161.785843
 20
178.513459
 30
0.0
 10
161.694193
 20
178.605211
 30
0.0
 10
161.511399
 20
178.788211
 30
0.0
 10
161.312703
 20
179.127448
 30
0.0
 10
161.242500
 20
179.376395
 30
0.0
 10
161.207302
 20
179.501212
 30
0.0
 11
161.785843
 21
178.513459
 31
0.0
 11
161.523576
 21
178.799513
 31
0.0
 11
161.328518
 21
179.132541
 31
0.0
 11
161.207302
 21
179.501212
 31
0.0
  0
LWPOLYLINE
  5
162
100
AcDbEntity
  8
0
 62
1
100
AcDbPolyline
 90
2
 70
0
 10
161.207302
 20
179.501212
 30
0.0
 10
161.207302
 20
229.287494
 30
0.0
  0
SPLINE
  5
163
100
AcDbEntity
  8
0
 62
1
100
AcDbSpline
 70
0
 71
3
 72
10
 73
6
 74
4
 40
0.000000
 40
0.000000
 40
0.000000
 40
0.000000
 40
0.265606
 40
0.523333
 40
0.788939
 40
0.788939
 40
0.788939
 40
0.788939
 10
161.207302
 20
229.287494
 30
0.0
 10
161.193330
 20
229.376507
 30
0.0
 10
161.165800
 20
229.551891
 30
0.0
 10
160.963713
 20
229.753979
 30
0.0
 10
160.788328
 20
229.781509
 30
0.0
 10
160.699316
 20
229.795481
 30
0.0
 11
161.207302
 21
229.287494
 31
0.0
 11
161.137947
 21
229.543885
 31
0.0
 11
160.955706
 21
229.726126
 31
0.0
 11
160.699316
 21
229.795481
 31
0.0
  0
LWPOLYLINE
  5
164
100
AcDbEntity
  8
0
 62
1
100
AcDbPolyline
 90
2
 70
0
 10
160.699316
 20
229.795481
 30
0.0
 10
160.208966
 20
229.795481
 30
0.0
  0
SPLINE
  5
165
100
AcDbEntity
  8
0
 62
1
100
AcDbSpline
 70
0
 71
3
 72
10
 73
6
 74
4
 40
0.000000
 40
0.000000
 40
0.000000
 40
0.000000
 40
1.571501
 40
3.096393
 40
4.667894
 40
4.667894
 40
4.667894
 40
4.667894
 10
160.208966
 20
229.795481
 30
0.0
 10
159.682308
 20
229.878150
 30
0.0
 10
158.644614
 20
230.041037
 30
0.0
 10
157.448929
 20
231.236722
 30
0.0
 10
157.286043
 20
232.274416
 30
0.0
 10
157.203373
 20
232.801074
 30
0.0
 11
160.208966
 21
229.795481
 31
0.0
 11
158.691986
 21
230.205833
 31
0.0
 11
157.613725
 21
231.284093
 31
0.0
 11
157.203373
 21
232.801074
 31
0.0
  0
SPLINE
  5
166
100
AcDbEntity
  8
0
 62
1
100
AcDbSpline
 70
0
 71
3
 72
10
 73
6
 74
4
 40
0.000000
 40
0.000000
 40
0.000000
 40
0.000000
 40
2.798830
 40
5.504666
 40
8.303524
 40
8.303524
 40
8.303524
 40
8.303524
 10
157.203373
 20
234.681332
 30
0.0
 10
157.044726
 20
235.620325
 30
0.0
 10
156.732703
 20
237.467112
 30
0.0
 10
154.464745
 20
239.493268
 30
0.0
 10
152.594605
 20
239.596056
 30
0.0
 10
151.643734
 20
239.648318
 30
0.0
 11
157.203373
 21
234.681332
 31
0.0
 11
156.419413
 21
237.368125
 31
0.0
 11
154.401565
 21
239.170856
 31
0.0
 11
151.643734
 21
239.648318
 31
0.0
  0
LWPOLYLINE
  5
167
100
AcDbEntity
  8
0
 62
1
100
AcDbPolyline
 90
2
 70
0
 10
157.203373
 20
232.801074
 30
0.0
 10
157.203373
 20
234.681332
 30
0.0
  0
SPLINE
  5
168
100
AcDbEntity
  8
0
 62
1
100
AcDbSpline
 70
0
 71
3
 72
10
 73
6
 74
4
 40
0.000000
 40
0.000000
 40
0.000000
 40
0.000000
 40
2.464612
 40
4.865214
 40
7.329826
 40
7.329826
 40
7.329826
 40
7.329826
 10
151.643734
 20
239.648318
 30
0.0
 10
150.840837
 20
239.423745
 30
0.0
 10
149.255894
 20
238.980432
 30
0.0
 10
147.533559
 20
236.997967
 30
0.0
 10
147.316075
 20
235.366626
 30
0.0
 10
147.205902
 20
234.540225
 30
0.0
 11
151.643734
 21
239.648318
 31
0.0
 11
149.348400
 21
238.750682
 31
0.0
 11
147.773981
 21
236.938474
 31
0.0
 11
147.205902
 21
234.540225
 31
0.0
  0
LWPOLYLINE
  5
169
100
AcDbEntity
  8
0
 62
1
100
AcDbPolyline
 90
2
 70
0
 10
147.205902
 20
234.540225
 30
0.0
 10
147.205902
 20
232.804600
 30
0.0
  0
SPLINE
  5
16a
100
AcDbEntity
  8
0
 62
1
100
AcDbSpline
 70
0
 71
3
 72
16
 73
12
 74
10
 40
0.000000
 40
0.000000
 40
0.000000
 40
0.000000
 40
1.572682
 40
3.098632
 40
4.671281
 40
5.165158
 40
5.659034
 40
6.152911
 40
6.419029
 40
6.677102
 40
6.943180
 40
6.943180
 40
6.943180
 40
6.943180
 10
147.205902
 20
232.804600
 30
0.0
 10
147.123623
 20
232.275086
 30
0.0
 10
146.961509
 20
231.231792
 30
0.0
 10
145.766801
 20
230.068860
 30
0.0
 10
144.559110
 20
229.776630
 30
0.0
 10
143.706616
 20
229.796419
 30
0.0
 10
143.212205
 20
229.802243
 30
0.0
 10
142.795580
 20
229.772837
 30
0.0
 10
142.453426
 20
229.837734
 30
0.0
 10
142.250810
 20
230.037771
 30
0.0
 10
142.224201
 20
230.214005
 30
0.0
 10
142.210693
 20
230.303468
 30
0.0
 11
147.205902
 21
232.804600
 31
0.0
 11
146.796680
 21
231.286093
 31
0.0
 11
145.718314
 21
230.206439
 31
0.0
 11
144.200309
 21
229.795481
 31
0.0
 11
143.706433
 21
229.795481
 31
0.0
 11
143.212556
 21
229.795481
 31
0.0
 11
142.718680
 21
229.795481
 31
0.0
 11
142.461489
 21
229.863832
 31
0.0
 11
142.278990
 21
230.046304
 31
0.0
 11
142.210693
 21
230.303468
 31
0.0
  0
LWPOLYLINE
  5
16b
100
AcDbEntity
  8
0
 62
1
100
AcDbPolyline
 90
2
 70
0
 10
142.210693
 20
230.303468
 30
0.0
 10
142.210693
 20
231.788627
 30
0.0
  0
SPLINE
  5
16c
100
AcDbEntity
  8
0
 62
1
100
AcDbSpline
 70
0
 71
3
 72
10
 73
6
 74
4
 40
0.000000
 40
0.000000
 40
0.000000
 40
0.000000
 40
0.265606
 40
0.523333
 40
0.788939
 40
0.788939
 40
0.788939
 40
0.788939
 10
142.210693
 20
231.788627
 30
0.0
 10
142.196721
 20
231.877639
 30
0.0
 10
142.169191
 20
232.053024
 30
0.0
 10
141.967103
 20
232.255111
 30
0.0
 10
141.791719
 20
232.282641
 30
0.0
 10
141.702706
 20
232.296614
 30
0.0
 11
142.210693
 21
231.788627
 31
0.0
 11
142.141338
 21
232.045018
 31
0.0
 11
141.959097
 21
232.227259
 31
0.0
 11
141.702706
 21
232.296614
 31
0.0
  0
LWPOLYLINE
  5
16d
100
AcDbEntity
  8
0
 62
1
100
AcDbPolyline
 90
2
 70
0
 10
141.702706
 20
232.296614
 30
0.0
 10
123.711489
 20
232.296614
 30
0.0
  0
SPLINE
  5
16e
100
AcDbEntity
  8
0
 62
1
100
AcDbSpline
 70
0
 71
3
 72
10
 73
6
 74
4
 40
0.000000
 40
0.000000
 40
0.000000
 40
0.000000
 40
0.264945
 40
0.521944
 40
0.786855
 40
0.786855
 40
0.786855
 40
0.786855
 10
123.711489
 20
232.296614
 30
0.0
 10
123.622602
 20
232.310013
 30
0.0
 10
123.447493
 20
232.336410
 30
0.0
 10
123.245078
 20
232.537361
 30
0.0
 10
123.217500
 20
232.712285
 30
0.0
 10
123.203503
 20
232.801074
 30
0.0
 11
123.711489
 21
232.296614
 31
0.0
 11
123.455351
 21
232.364356
 31
0.0
 11
123.272981
 21
232.545436
 31
0.0
 11
123.203503
 21
232.801074
 31
0.0
  0
LWPOLYLINE
  5
16f
100
AcDbEntity
  8
0
 62
1
100
AcDbPolyline
 90
2
 70
0
 10
123.203503
 20
232.801074
 30
0.0
 10
123.203503
 20
234.039292
 30
0.0
  0
SPLINE
  5
170
100
AcDbEntity
  8
0
 62
1
100
AcDbSpline
 70
0
 71
3
 72
10
 73
6
 74
4
 40
0.000000
 40
0.000000
 40
0.000000
 40
0.000000
 40
0.264431
 40
0.521102
 40
0.785562
 40
0.785562
 40
0.785562
 40
0.785562
 10
123.203503
 20
234.039292
 30
0.0
 10
123.189056
 20
234.127811
 30
0.0
 10
123.160585
 20
234.302252
 30
0.0
 10
122.958769
 20
234.502619
 30
0.0
 10
122.784137
 20
234.529905
 30
0.0
 10
122.695516
 20
234.543752
 30
0.0
 11
123.203503
 21
234.039292
 31
0.0
 11
123.133019
 21
234.294157
 31
0.0
 11
122.950885
 21
234.475007
 31
0.0
 11
122.695516
 21
234.543752
 31
0.0
  0
LWPOLYLINE
  5
171
100
AcDbEntity
  8
0
 62
1
100
AcDbPolyline
 90
2
 70
0
 10
122.695516
 20
234.543752
 30
0.0
 10
105.716746
 20
234.543752
 30
0.0
  0
SPLINE
  5
172
100
AcDbEntity
  8
0
 62
1
100
AcDbSpline
 70
0
 71
3
 72
10
 73
6
 74
4
 40
0.000000
 40
0.000000
 40
0.000000
 40
0.000000
 40
0.264945
 40
0.521944
 40
0.786855
 40
0.786855
 40
0.786855
 40
0.786855
 10
105.716746
 20
234.543752
 30
0.0
 10
105.627859
 20
234.530352
 30
0.0
 10
105.452750
 20
234.503956
 30
0.0
 10
105.250334
 20
234.303005
 30
0.0
 10
105.222757
 20
234.128080
 30
0.0
 10
105.208759
 20
234.039292
 30
0.0
 11
105.716746
 21
234.543752
 31
0.0
 11
105.460607
 21
234.476009
 31
0.0
 11
105.278238
 21
234.294929
 31
0.0
 11
105.208759
 21
234.039292
 31
0.0
  0
LWPOLYLINE
  5
173
100
AcDbEntity
  8
0
 62
1
100
AcDbPolyline
 90
2
 70
0
 10
105.208759
 20
234.039292
 30
0.0
 10
105.208759
 20
232.801074
 30
0.0
  0
SPLINE
  5
174
100
AcDbEntity
  8
0
 62
1
100
AcDbSpline
 70
0
 71
3
 72
10
 73
6
 74
4
 40
0.000000
 40
0.000000
 40
0.000000
 40
0.000000
 40
0.264934
 40
0.521950
 40
0.786884
 40
0.786884
 40
0.786884
 40
0.786884
 10
105.208759
 20
232.801074
 30
0.0
 10
105.194761
 20
232.712279
 30
0.0
 10
105.167183
 20
232.537345
 30
0.0
 10
104.964782
 20
232.336351
 30
0.0
 10
104.789659
 20
232.309993
 30
0.0
 10
104.700770
 20
232.296614
 30
0.0
 11
105.208759
 21
232.801074
 31
0.0
 11
105.139280
 21
232.545413
 31
0.0
 11
104.956909
 21
232.364309
 31
0.0
 11
104.700770
 21
232.296614
 31
0.0
  0
LWPOLYLINE
  5
175
100
AcDbEntity
  8
0
 62
1
100
AcDbPolyline
 90
2
 70
0
 10
104.700770
 20
232.296614
 30
0.0
 10
86.709553
 20
232.296614
 30
0.0
  0
SPLINE
  5
176
100
AcDbEntity
  8
0
 62
1
100
AcDbSpline
 70
0
 71
3
 72
10
 73
6
 74
4
 40
0.000000
 40
0.000000
 40
0.000000
 40
0.000000
 40
0.265606
 40
0.523333
 40
0.788939
 40
0.788939
 40
0.788939
 40
0.788939
 10
86.709553
 20
232.296614
 30
0.0
 10
86.620541
 20
232.282641
 30
0.0
 10
86.445156
 20
232.255111
 30
0.0
 10
86.243069
 20
232.053024
 30
0.0
 10
86.215539
 20
231.877639
 30
0.0
 10
86.201566
 20
231.788627
 30
0.0
 11
86.709553
 21
232.296614
 31
0.0
 11
86.453162
 21
232.227259
 31
0.0
 11
86.270921
 21
232.045018
 31
0.0
 11
86.201566
 21
231.788627
 31
0.0
  0
LWPOLYLINE
  5
177
100
AcDbEntity
  8
0
 62
1
100
AcDbPolyline
 90
2
 70
0
 10
86.201566
 20
231.788627
 30
0.0
 10
86.201566
 20
228.052803
 30
0.0
  0
SPLINE
  5
178
100
AcDbEntity
  8
0
 62
1
100
AcDbSpline
 70
0
 71
3
 72
10
 73
6
 74
4
 40
0.000000
 40
0.000000
 40
0.000000
 40
0.000000
 40
0.265606
 40
0.523333
 40
0.788939
 40
0.788939
 40
0.788939
 40
0.788939
 10
86.201566
 20
228.052803
 30
0.0
 10
86.187594
 20
227.963790
 30
0.0
 10
86.160064
 20
227.788406
 30
0.0
 10
85.957977
 20
227.586318
 30
0.0
 10
85.782592
 20
227.558788
 30
0.0
 10
85.693580
 20
227.544816
 30
0.0
 11
86.201566
 21
228.052803
 31
0.0
 11
86.132211
 21
227.796412
 31
0.0
 11
85.949970
 21
227.614171
 31
0.0
 11
85.693580
 21
227.544816
 31
0.0
  0
LWPOLYLINE
  5
179
100
AcDbEntity
  8
0
 62
1
100
AcDbPolyline
 90
2
 70
0
 10
85.693580
 20
227.544816
 30
0.0
 10
48.712810
 20
227.544816
 30
0.0
  0
SPLINE
  5
17a
100
AcDbEntity
  8
0
 62
1
100
AcDbSpline
 70
0
 71
3
 72
10
 73
6
 74
4
 40
0.000000
 40
0.000000
 40
0.000000
 40
0.000000
 40
0.267957
 40
0.527847
 40
0.795805
 40
0.795805
 40
0.795805
 40
0.795805
 10
48.712810
 20
227.544816
 30
0.0
 10
48.622995
 20
227.530600
 30
0.0
 10
48.446070
 20
227.502597
 30
0.0
 10
48.243359
 20
227.297071
 30
0.0
 10
48.217799
 20
227.119775
 30
0.0
 10
48.204823
 20
227.029773
 30
0.0
 11
48.712810
 21
227.544816
 31
0.0
 11
48.454310
 21
227.474255
 31
0.0
 11
48.271812
 21
227.289222
 31
0.0
 11
48.204823
 21
227.029773
 31
0.0
  0
LWPOLYLINE
  5
17b
100
AcDbEntity
  8
0
 62
1
100
AcDbPolyline
 90
2
 70
0
 10
48.204823
 20
227.029773
 30
0.0
 10
48.204823
 20
226.631144
 30
0.0
  0
SPLINE
  5
17c
100
AcDbEntity
  8
0
 62
1
100
AcDbSpline
 70
0
 71
3
 72
10
 73
6
 74
4
 40
0.000000
 40
0.000000
 40
0.000000
 40
0.000000
 40
1.572682
 40
3.098632
 40
4.671281
 40
4.671281
 40
4.671281
 40
4.671281
 10
48.204823
 20
226.631144
 30
0.0
 10
48.122629
 20
226.103993
 30
0.0
 10
47.960684
 20
225.065356
 30
0.0
 10
46.764730
 20
223.867945
 30
0.0
 10
45.726281
 20
223.704817
 30
0.0
 10
45.199231
 20
223.622024
 30
0.0
 11
48.204823
 21
226.631144
 31
0.0
 11
47.795601
 21
225.112636
 31
0.0
 11
46.717235
 21
224.032983
 31
0.0
 11
45.199231
 21
223.622024
 31
0.0
  0
SPLINE
  5
17d
100
AcDbEntity
  8
0
 62
1
100
AcDbSpline
 70
0
 71
3
 72
10
 73
6
 74
4
 40
0.000000
 40
0.000000
 40
0.000000
 40
0.000000
 40
2.587064
 40
5.101299
 40
7.688361
 40
7.688361
 40
7.688361
 40
7.688361
 10
43.470663
 20
223.622024
 30
0.0
 10
42.602708
 20
223.499378
 30
0.0
 10
40.891233
 20
223.257537
 30
0.0
 10
38.864569
 20
221.365614
 30
0.0
 10
38.505741
 20
219.674793
 30
0.0
 10
38.323766
 20
218.817313
 30
0.0
 11
43.470663
 21
223.622024
 31
0.0
 11
40.961127
 21
222.993431
 31
0.0
 11
39.123250
 21
221.277743
 31
0.0
 11
38.323766
 21
218.817313
 31
0.0
  0
SPLINE
  5
17e
100
AcDbEntity
  8
0
 62
1
100
AcDbSpline
 70
0
 71
3
 72
10
 73
6
 74
4
 40
0.000000
 40
0.000000
 40
0.000000
 40
0.000000
 40
1.928146
 40
3.823044
 40
5.751191
 40
5.751191
 40
5.751191
 40
5.751191
 10
38.323766
 20
218.817313
 30
0.0
 10
38.374588
 20
218.170877
 30
0.0
 10
38.475356
 20
216.889152
 30
0.0
 10
39.512260
 20
215.167891
 30
0.0
 10
40.598215
 20
214.479652
 30
0.0
 10
41.145915
 20
214.132539
 30
0.0
 11
38.323766
 21
218.817313
 31
0.0
 11
38.625928
 21
216.912990
 31
0.0
 11
39.603719
 21
215.289856
 31
0.0
 11
41.145915
 21
214.132539
 31
0.0
  0
LWPOLYLINE
  5
17f
100
AcDbEntity
  8
0
 62
1
100
AcDbPolyline
 90
2
 70
0
 10
45.199231
 20
223.622024
 30
0.0
 10
43.470663
 20
223.622024
 30
0.0
  0
SPLINE
  5
180
100
AcDbEntity
  8
0
 62
1
100
AcDbSpline
 70
0
 71
3
 72
10
 73
6
 74
4
 40
0.000000
 40
0.000000
 40
0.000000
 40
0.000000
 40
0.259464
 40
0.504321
 40
0.763785
 40
0.763785
 40
0.763785
 40
0.763785
 10
41.145915
 20
214.132539
 30
0.0
 10
41.221412
 20
214.081900
 30
0.0
 10
41.368158
 20
213.983472
 30
0.0
 10
41.368158
 20
213.678373
 30
0.0
 10
41.221412
 20
213.579945
 30
0.0
 10
41.145915
 20
213.529305
 30
0.0
 11
41.145915
 21
214.132539
 31
0.0
 11
41.333566
 21
213.953351
 31
0.0
 11
41.333566
 21
213.708494
 31
0.0
 11
41.145915
 21
213.529305
 31
0.0
  0
SPLINE
  5
181
100
AcDbEntity
  8
0
 62
1
100
AcDbSpline
 70
0
 71
3
 72
10
 73
6
 74
4
 40
0.000000
 40
0.000000
 40
0.000000
 40
0.000000
 40
0.261026
 40
0.513876
 40
0.774905
 40
0.774905
 40
0.774905
 40
0.774905
 10
29.335211
 20
213.564582
 30
0.0
 10
29.247146
 20
213.554237
 30
0.0
 10
29.073775
 20
213.533871
 30
0.0
 10
28.870752
 20
213.337940
 30
0.0
 10
28.844225
 20
213.165403
 30
0.0
 10
28.830751
 20
213.077762
 30
0.0
 11
29.335211
 21
213.564582
 31
0.0
 11
29.081012
 21
213.505277
 31
0.0
 11
28.899068
 21
213.329693
 31
0.0
 11
28.830751
 21
213.077762
 31
0.0
  0
SPLINE
  5
182
100
AcDbEntity
  8
0
 62
1
100
AcDbSpline
 70
0
 71
3
 72
10
 73
6
 74
4
 40
0.000000
 40
0.000000
 40
0.000000
 40
0.000000
 40
5.755104
 40
13.491993
 40
17.469143
 40
17.469143
 40
17.469143
 40
17.469143
 10
28.830751
 20
213.077762
 30
0.0
 10
28.828519
 20
211.159395
 30
0.0
 10
28.823286
 20
206.662067
 30
0.0
 10
28.812098
 20
200.839030
 30
0.0
 10
28.804956
 20
196.934357
 30
0.0
 10
28.802531
 20
195.608643
 30
0.0
 11
28.830751
 21
213.077762
 31
0.0
 11
28.823435
 21
207.322663
 31
0.0
 11
28.809847
 21
199.585786
 31
0.0
 11
28.802531
 21
195.608643
 31
0.0
  0
LWPOLYLINE
  5
183
100
AcDbEntity
  8
0
 62
1
100
AcDbPolyline
 90
2
 70
0
 10
41.145915
 20
213.529305
 30
0.0
 10
29.335211
 20
213.564582
 30
0.0
  0
SPLINE
  5
184
100
AcDbEntity
  8
0
 62
1
100
AcDbSpline
 70
0
 71
3
 72
10
 73
6
 74
4
 40
0.000000
 40
0.000000
 40
0.000000
 40
0.000000
 40
0.263718
 40
0.520145
 40
0.783859
 40
0.783859
 40
0.783859
 40
0.783859
 10
28.802531
 20
195.608643
 30
0.0
 10
28.822889
 20
195.521674
 30
0.0
 10
28.863043
 20
195.350141
 30
0.0
 10
29.072059
 20
195.160497
 30
0.0
 10
29.246678
 20
195.137174
 30
0.0
 10
29.335211
 20
195.125349
 30
0.0
 11
28.802531
 21
195.608643
 31
0.0
 11
28.888937
 21
195.359482
 31
0.0
 11
29.078847
 21
195.187176
 31
0.0
 11
29.335211
 21
195.125349
 31
0.0
  0
SPLINE
  5
185
100
AcDbEntity
  8
0
 62
1
100
AcDbSpline
 70
0
 71
3
 72
10
 73
6
 74
4
 40
0.000000
 40
0.000000
 40
0.000000
 40
0.000000
 40
0.043900
 40
0.087801
 40
0.175601
 40
0.175601
 40
0.175601
 40
0.175601
 10
47.714474
 20
195.125349
 30
0.0
 10
47.701113
 20
195.125349
 30
0.0
 10
47.674391
 20
195.125349
 30
0.0
 10
47.590408
 20
195.125349
 30
0.0
 10
47.664847
 20
195.125349
 30
0.0
 10
47.714474
 20
195.125349
 30
0.0
 11
47.714474
 21
195.125349
 31
0.0
 11
47.670573
 21
195.125349
 31
0.0
 11
47.626673
 21
195.125349
 31
0.0
 11
47.714474
 21
195.125349
 31
0.0
  0
SPLINE
  5
186
100
AcDbEntity
  8
0
 62
1
100
AcDbSpline
 70
0
 71
3
 72
10
 73
6
 74
4
 40
0.000000
 40
0.000000
 40
0.000000
 40
0.000000
 40
0.234568
 40
0.463536
 40
0.698107
 40
0.698107
 40
0.698107
 40
0.698107
 10
47.714474
 20
195.125349
 30
0.0
 10
47.792371
 20
195.110883
 30
0.0
 10
47.946307
 20
195.082296
 30
0.0
 10
48.130008
 20
194.914798
 30
0.0
 10
48.172657
 20
194.764151
 30
0.0
 10
48.194240
 20
194.687916
 30
0.0
 11
47.714474
 21
195.125349
 31
0.0
 11
47.939983
 21
195.060791
 31
0.0
 11
48.109178
 21
194.906522
 31
0.0
 11
48.194240
 21
194.687916
 31
0.0
  0
LWPOLYLINE
  5
187
100
AcDbEntity
  8
0
 62
1
100
AcDbPolyline
 90
2
 70
0
 10
29.335211
 20
195.125349
 30
0.0
 10
47.714474
 20
195.125349
 30
0.0
  0
SPLINE
  5
188
100
AcDbEntity
  8
0
 62
1
100
AcDbSpline
 70
0
 71
3
 72
10
 73
6
 74
4
 40
0.000000
 40
0.000000
 40
0.000000
 40
0.000000
 40
0.167762
 40
0.251643
 40
0.335525
 40
0.335525
 40
0.335525
 40
0.335525
 10
48.194240
 20
194.687916
 30
0.0
 10
48.194240
 20
194.593094
 30
0.0
 10
48.194240
 20
194.450861
 30
0.0
 10
48.194240
 20
194.611329
 30
0.0
 10
48.194240
 20
194.662387
 30
0.0
 10
48.194240
 20
194.687916
 30
0.0
 11
48.194240
 21
194.687916
 31
0.0
 11
48.194240
 21
194.520154
 31
0.0
 11
48.194240
 21
194.604035
 31
0.0
 11
48.194240
 21
194.687916
 31
0.0
  0
LWPOLYLINE
  5
189
100
AcDbEntity
  8
0
 62
1
100
AcDbPolyline
 90
2
 70
0
 10
48.194240
 20
194.687916
 30
0.0
 10
48.194240
 20
188.609707
 30
0.0
  0
SPLINE
  5
18a
100
AcDbEntity
  8
0
 62
1
100
AcDbSpline
 70
0
 71
3
 72
10
 73
6
 74
4
 40
0.000000
 40
0.000000
 40
0.000000
 40
0.000000
 40
1.569657
 40
3.092758
 40
4.662415
 40
4.662415
 40
4.662415
 40
4.662415
 10
48.194240
 20
188.609707
 30
0.0
 10
48.111668
 20
188.083668
 30
0.0
 10
47.948973
 20
187.047191
 30
0.0
 10
46.754692
 20
185.852909
 30
0.0
 10
45.718216
 20
185.690214
 30
0.0
 10
45.192177
 20
185.607641
 30
0.0
 11
48.194240
 21
188.609707
 31
0.0
 11
47.784371
 21
187.094507
 31
0.0
 11
46.707376
 21
186.017511
 31
0.0
 11
45.192177
 21
185.607641
 31
0.0
  0
SPLINE
  5
18b
100
AcDbEntity
  8
0
 62
1
100
AcDbSpline
 70
0
 71
3
 72
10
 73
6
 74
4
 40
0.000000
 40
0.000000
 40
0.000000
 40
0.000000
 40
2.457533
 40
4.851561
 40
7.309094
 40
7.309094
 40
7.309094
 40
7.309094
 10
43.428332
 20
185.607641
 30
0.0
 10
42.604800
 20
185.494714
 30
0.0
 10
40.979017
 20
185.271776
 30
0.0
 10
39.006453
 20
183.550914
 30
0.0
 10
38.565012
 20
181.970407
 30
0.0
 10
38.341403
 20
181.169809
 30
0.0
 11
43.428332
 21
185.607641
 31
0.0
 11
41.038934
 21
185.032972
 31
0.0
 11
39.234921
 21
183.459153
 31
0.0
 11
38.341403
 21
181.169809
 31
0.0
  0
LWPOLYLINE
  5
18c
100
AcDbEntity
  8
0
 62
1
100
AcDbPolyline
 90
2
 70
0
 10
45.192177
 20
185.607641
 30
0.0
 10
43.428332
 20
185.607641
 30
0.0
  0
SPLINE
  5
18d
100
AcDbEntity
  8
0
 62
1
100
AcDbSpline
 70
0
 71
3
 72
10
 73
6
 74
4
 40
0.000000
 40
0.000000
 40
0.000000
 40
0.000000
 40
2.801308
 40
5.509383
 40
8.310692
 40
8.310692
 40
8.310692
 40
8.310692
 10
38.341403
 20
181.169809
 30
0.0
 10
38.393178
 20
180.218034
 30
0.0
 10
38.495004
 20
178.346162
 30
0.0
 10
40.523321
 20
176.076004
 30
0.0
 10
42.371958
 20
175.764852
 30
0.0
 10
43.311918
 20
175.606643
 30
0.0
 11
38.341403
 21
181.169809
 31
0.0
 11
38.818032
 21
178.409347
 31
0.0
 11
40.622340
 21
176.389906
 31
0.0
 11
43.311918
 21
175.606643
 31
0.0
  0
LWPOLYLINE
  5
18e
100
AcDbEntity
  8
0
 62
1
100
AcDbPolyline
 90
2
 70
0
 10
43.311918
 20
175.606643
 30
0.0
 10
45.195704
 20
175.606643
 30
0.0
  0
SPLINE
  5
18f
100
AcDbEntity
  8
0
 62
1
100
AcDbSpline
 70
0
 71
3
 72
16
 73
12
 74
10
 40
0.000000
 40
0.000000
 40
0.000000
 40
0.000000
 40
1.568478
 40
3.090520
 40
4.659029
 40
4.929486
 40
5.199942
 40
5.470398
 40
5.735854
 40
5.993256
 40
6.258714
 40
6.258714
 40
6.258714
 40
6.258714
 10
45.195704
 20
175.606643
 30
0.0
 10
45.724007
 20
175.523501
 30
0.0
 10
46.764972
 20
175.359680
 30
0.0
 10
47.917311
 20
174.167040
 30
0.0
 10
48.206779
 20
173.036835
 30
0.0
 10
48.192410
 20
172.334187
 30
0.0
 10
48.197864
 20
172.063540
 30
0.0
 10
48.181674
 20
171.795322
 30
0.0
 10
48.239367
 20
171.528844
 30
0.0
 10
48.439874
 20
171.328762
 30
0.0
 10
48.616221
 20
171.304564
 30
0.0
 10
48.705753
 20
171.292278
 30
0.0
 11
45.195704
 21
175.606643
 31
0.0
 11
46.709376
 21
175.195644
 31
0.0
 11
47.784979
 21
174.118755
 31
0.0
 11
48.194240
 21
172.604580
 31
0.0
 11
48.194240
 21
172.334123
 31
0.0
 11
48.194240
 21
172.063668
 31
0.0
 11
48.194240
 21
171.793211
 31
0.0
 11
48.264430
 21
171.537203
 31
0.0
 11
48.448333
 21
171.357104
 31
0.0
 11
48.705753
 21
171.292278
 31
0.0
  0
LWPOLYLINE
  5
190
100
AcDbEntity
  8
0
 62
1
100
AcDbPolyline
 90
2
 70
0
 10
48.705753
 20
171.292278
 30
0.0
 10
103.709490
 20
171.292278
 30
0.0
  0
SPLINE
  5
191
100
AcDbEntity
  8
0
 62
1
100
AcDbSpline
 70
0
 71
3
 72
10
 73
6
 74
4
 40
0.000000
 40
0.000000
 40
0.000000
 40
0.000000
 40
0.130853
 40
0.260624
 40
0.391472
 40
0.391472
 40
0.391472
 40
0.391472
 10
103.709490
 20
171.292278
 30
0.0
 10
103.753120
 20
171.288603
 30
0.0
 10
103.840020
 20
171.281282
 30
0.0
 10
103.963032
 20
171.229630
 30
0.0
 10
104.029092
 20
171.172698
 30
0.0
 10
104.062259
 20
171.144114
 30
0.0
 11
103.709490
 21
171.292278
 31
0.0
 11
103.839120
 21
171.274428
 31
0.0
 11
103.958768
 21
171.224182
 31
0.0
 11
104.062259
 21
171.144114
 31
0.0
  0
LWPOLYLINE
  5
192
100
AcDbEntity
  8
0
 62
1
100
AcDbPolyline
 90
2
 70
0
 10
104.062259
 20
171.144114
 30
0.0
 10
114.610050
 20
156.680587
 30
0.0
  0
SPLINE
  5
193
100
AcDbEntity
  8
0
 62
1
100
AcDbSpline
 70
0
 71
3
 72
10
 73
6
 74
4
 40
0.000000
 40
0.000000
 40
0.000000
 40
0.000000
 40
0.129722
 40
0.258727
 40
0.388448
 40
0.388448
 40
0.388448
 40
0.388448
 10
114.610050
 20
156.680587
 30
0.0
 10
114.644485
 20
156.654256
 30
0.0
 10
114.713165
 20
156.601738
 30
0.0
 10
114.834327
 20
156.550850
 30
0.0
 10
114.919910
 20
156.538578
 30
0.0
 10
114.962819
 20
156.532426
 30
0.0
 11
114.610050
 21
156.680587
 31
0.0
 11
114.716377
 21
156.606275
 31
0.0
 11
114.835317
 21
156.556319
 31
0.0
 11
114.962819
 21
156.532426
 31
0.0
  0
LWPOLYLINE
  5
194
100
AcDbEntity
  8
0
 62
1
100
AcDbPolyline
 90
2
 70
0
 10
114.962819
 20
156.532426
 30
0.0
 10
151.756621
 20
151.060980
 30
0.0
  0
SPLINE
  5
195
100
AcDbEntity
  8
0
 62
1
100
AcDbSpline
 70
0
 71
3
 72
10
 73
6
 74
4
 40
0.000000
 40
0.000000
 40
0.000000
 40
0.000000
 40
0.095967
 40
0.191887
 40
0.287854
 40
0.287854
 40
0.287854
 40
0.287854
 10
151.756621
 20
151.060980
 30
0.0
 10
151.788139
 20
151.055470
 30
0.0
 10
151.851159
 20
151.044454
 30
0.0
 10
151.944296
 20
151.020874
 30
0.0
 10
152.004967
 20
151.000577
 30
0.0
 10
152.035310
 20
150.990426
 30
0.0
 11
151.756621
 21
151.060980
 31
0.0
 11
151.850941
 21
151.043275
 31
0.0
 11
151.943927
 21
151.019734
 31
0.0
 11
152.035310
 21
150.990426
 31
0.0
  0
LWPOLYLINE
  5
196
100
AcDbEntity
  8
0
 62
1
100
AcDbPolyline
 90
2
 70
0
 10
152.035310
 20
150.990426
 30
0.0
 10
166.784579
 20
142.499275
 30
0.0
  0
SPLINE
  5
197
100
AcDbEntity
  8
0
 62
1
100
AcDbSpline
 70
0
 71
3
 72
10
 73
6
 74
4
 40
0.000000
 40
0.000000
 40
0.000000
 40
0.000000
 40
0.455767
 40
0.898193
 40
1.353961
 40
1.353961
 40
1.353961
 40
1.353961
 10
166.784579
 20
142.499275
 30
0.0
 10
166.923385
 20
142.431284
 30
0.0
 10
167.196936
 20
142.297293
 30
0.0
 10
167.679828
 20
142.379875
 30
0.0
 10
167.893306
 20
142.597156
 30
0.0
 10
168.001630
 20
142.707410
 30
0.0
 11
166.784579
 21
142.499275
 31
0.0
 11
167.213047
 21
142.343909
 31
0.0
 11
167.649141
 21
142.418488
 31
0.0
 11
168.001630
 21
142.707410
 31
0.0
  0
LWPOLYLINE
  5
198
100
AcDbEntity
  8
0
 62
1
100
AcDbPolyline
 90
2
 70
0
 10
168.001630
 20
142.707410
 30
0.0
 10
170.534513
 20
147.127605
 30
0.0
  0
SPLINE
  5
199
100
AcDbEntity
  8
0
 62
1
100
AcDbSpline
 70
0
 71
3
 72
10
 73
6
 74
4
 40
0.000000
 40
0.000000
 40
0.000000
 40
0.000000
 40
1.580394
 40
3.113651
 40
4.694045
 40
4.694045
 40
4.694045
 40
4.694045
 10
170.534513
 20
147.127605
 30
0.0
 10
170.871000
 20
147.545075
 30
0.0
 10
171.533938
 20
148.367564
 30
0.0
 10
173.177781
 20
148.805923
 30
0.0
 10
174.162232
 20
148.422738
 30
0.0
 10
174.661910
 20
148.228245
 30
0.0
 11
170.534513
 21
147.127605
 31
0.0
 11
171.654098
 21
148.243031
 31
0.0
 11
173.135584
 21
148.638094
 31
0.0
 11
174.661910
 21
148.228245
 31
0.0
  0
LWPOLYLINE
  5
19a
100
AcDbEntity
  8
0
 62
1
100
AcDbPolyline
 90
2
 70
0
 10
174.661910
 20
148.228245
 30
0.0
 10
176.259953
 20
147.293406
 30
0.0
  0
SPLINE
  5
19b
100
AcDbEntity
  8
0
 62
1
100
AcDbSpline
 70
0
 71
3
 72
13
 73
9
 74
7
 40
0.000000
 40
0.000000
 40
0.000000
 40
0.000000
 40
2.657364
 40
5.233755
 40
7.891118
 40
10.548481
 40
13.124872
 40
15.782236
 40
15.782236
 40
15.782236
 40
15.782236
 10
176.259953
 20
147.293406
 30
0.0
 10
177.098698
 20
146.946969
 30
0.0
 10
178.750629
 20
146.264652
 30
0.0
 10
181.458934
 20
147.010583
 30
0.0
 10
183.415675
 20
148.935170
 30
0.0
 10
184.105027
 20
151.591797
 30
0.0
 10
183.397875
 20
154.310486
 30
0.0
 10
181.981407
 20
155.400464
 30
0.0
 10
181.262216
 20
155.953885
 30
0.0
 11
176.259953
 21
147.293406
 31
0.0
 11
178.813397
 21
146.557534
 31
0.0
 11
181.310352
 21
147.192363
 31
0.0
 11
183.202276
 21
149.058428
 31
0.0
 11
183.873324
 21
151.629669
 31
0.0
 11
183.175541
 21
154.109767
 31
0.0
 11
181.262216
 21
155.953885
 31
0.0
  0
LWPOLYLINE
  5
19c
100
AcDbEntity
  8
0
 62
1
100
AcDbPolyline
 90
2
 70
0
 10
181.262216
 20
155.953885
 30
0.0
 10
179.614785
 20
156.916945
 30
0.0
  0
LWPOLYLINE
  5
19d
100
AcDbEntity
  8
0
 62
1
100
AcDbPolyline
 90
2
 70
0
 10
178.528258
 20
161.005535
 30
0.0
 10
181.251633
 20
165.767916
 30
0.0
  0
SPLINE
  5
19e
100
AcDbEntity
  8
0
 62
1
100
AcDbSpline
 70
0
 71
3
 72
10
 73
6
 74
4
 40
0.000000
 40
0.000000
 40
0.000000
 40
0.000000
 40
1.561655
 40
3.077578
 40
4.639234
 40
4.639234
 40
4.639234
 40
4.639234
 10
179.614785
 20
156.916945
 30
0.0
 10
179.205006
 20
157.252452
 30
0.0
 10
178.397448
 20
157.913642
 30
0.0
 10
177.966312
 20
159.536000
 30
0.0
 10
178.339096
 20
160.510861
 30
0.0
 10
178.528258
 20
161.005535
 30
0.0
 11
179.614785
 21
156.916945
 31
0.0
 11
178.519739
 21
158.030337
 31
0.0
 11
178.130401
 21
159.495409
 31
0.0
 11
178.528258
 21
161.005535
 31
0.0
  0
LWPOLYLINE
  5
19f
100
AcDbEntity
  8
0
 62
1
100
AcDbPolyline
 90
4
 70
1
 10
31.233108
 20
211.148116
 30
0.0
 10
45.082817
 20
211.148116
 30
0.0
 10
45.082817
 20
197.298407
 30
0.0
 10
31.233108
 20
197.298407
 30
0.0
  0
SPLINE
  5
1a0
100
AcDbEntity
  8
0
 62
1
100
AcDbSpline
 70
0
 71
3
 72
25
 73
21
 74
19
 40
0.000000
 40
0.000000
 40
0.000000
 40
0.000000
 40
1.020509
 40
2.022845
 40
3.043354
 40
4.063863
 40
5.066199
 40
6.086708
 40
7.107217
 40
8.109553
 40
9.130062
 40
10.150571
 40
11.152908
 40
12.173416
 40
12.854007
 40
13.528965
 40
14.209556
 40
14.890146
 40
15.565104
 40
16.245695
 40
16.245695
 40
16.245695
 40
16.245695
 10
62.964676
 20
147.374543
 30
0.0
 10
62.925170
 20
147.716909
 30
0.0
 10
62.846861
 20
148.395545
 30
0.0
 10
62.246147
 20
149.260364
 30
0.0
 10
61.387245
 20
149.839838
 30
0.0
 10
60.364114
 20
150.041805
 30
0.0
 10
59.344430
 20
149.838890
 30
0.0
 10
58.477889
 20
149.261398
 30
0.0
 10
57.900427
 20
148.394975
 30
0.0
 10
57.697511
 20
147.374853
 30
0.0
 10
57.899450
 20
146.353377
 30
0.0
 10
58.479037
 20
145.488314
 30
0.0
 10
59.343439
 20
144.910330
 30
0.0
 10
60.251805
 20
144.729283
 30
0.0
 10
61.045317
 20
144.834528
 30
0.0
 10
61.679469
 20
145.097116
 30
0.0
 10
62.224986
 20
145.514898
 30
0.0
 10
62.640031
 20
146.059729
 30
0.0
 10
62.912824
 20
146.693886
 30
0.0
 10
62.947344
 20
147.147030
 30
0.0
 10
62.964676
 20
147.374543
 30
0.0
 11
62.964676
 21
147.374543
 31
0.0
 11
62.764466
 21
148.375220
 31
0.0
 11
62.207598
 21
149.208633
 31
0.0
 11
61.359710
 21
149.776544
 31
0.0
 11
60.358588
 21
149.974518
 31
0.0
 11
59.375511
 21
149.778972
 31
0.0
 11
58.526356
 21
149.212955
 31
0.0
 11
57.960340
 21
148.363800
 31
0.0
 11
57.764794
 21
147.380724
 31
0.0
 11
57.962767
 21
146.379602
 31
0.0
 11
58.530679
 21
145.531713
 31
0.0
 11
59.364091
 21
144.974845
 31
0.0
 11
60.364768
 21
144.774636
 31
0.0
 11
61.039505
 21
144.863710
 31
0.0
 11
61.663085
 21
145.122006
 31
0.0
 11
62.203180
 21
145.536131
 31
0.0
 11
62.617306
 21
146.076227
 31
0.0
 11
62.875601
 21
146.699807
 31
0.0
 11
62.964676
 21
147.374543
 31
0.0
  0
LWPOLYLINE
  5
1a1
100
AcDbEntity
  8
0
 62
1
100
AcDbPolyline
 90
1
 70
1
 10
62.964676
 20
147.374543
 30
0.0
  0
SPLINE
  5
1a2
100
AcDbEntity
  8
0
 62
1
100
AcDbSpline
 70
0
 71
3
 72
25
 73
21
 74
19
 40
0.000000
 40
0.000000
 40
0.000000
 40
0.000000
 40
1.020509
 40
2.022845
 40
3.043354
 40
4.063863
 40
5.066199
 40
6.086708
 40
7.107217
 40
8.109553
 40
9.130062
 40
10.150571
 40
11.152908
 40
12.173416
 40
12.854007
 40
13.528965
 40
14.209556
 40
14.890146
 40
15.565104
 40
16.245695
 40
16.245695
 40
16.245695
 40
16.245695
 10
169.246906
 20
128.723649
 30
0.0
 10
169.589272
 20
128.763155
 30
0.0
 10
170.267908
 20
128.841463
 30
0.0
 10
171.132727
 20
129.442178
 30
0.0
 10
171.712200
 20
130.301080
 30
0.0
 10
171.914168
 20
131.324210
 30
0.0
 10
171.711252
 20
132.343894
 30
0.0
 10
171.133761
 20
133.210435
 30
0.0
 10
170.267338
 20
133.787897
 30
0.0
 10
169.247216
 20
133.990813
 30
0.0
 10
168.225740
 20
133.788874
 30
0.0
 10
167.360677
 20
133.209288
 30
0.0
 10
166.782693
 20
132.344886
 30
0.0
 10
166.601646
 20
131.436519
 30
0.0
 10
166.706891
 20
130.643007
 30
0.0
 10
166.969479
 20
130.008856
 30
0.0
 10
167.387260
 20
129.463338
 30
0.0
 10
167.932092
 20
129.048293
 30
0.0
 10
168.566249
 20
128.775501
 30
0.0
 10
169.019393
 20
128.740981
 30
0.0
 10
169.246906
 20
128.723649
 30
0.0
 11
169.246906
 21
128.723649
 31
0.0
 11
170.247583
 21
128.923858
 31
0.0
 11
171.080995
 21
129.480726
 31
0.0
 11
171.648907
 21
130.328614
 31
0.0
 11
171.846880
 21
131.329736
 31
0.0
 11
171.651334
 21
132.312813
 31
0.0
 11
171.085318
 21
133.161968
 31
0.0
 11
170.236163
 21
133.727984
 31
0.0
 11
169.253086
 21
133.923530
 31
0.0
 11
168.251965
 21
133.725557
 31
0.0
 11
167.404076
 21
133.157645
 31
0.0
 11
166.847208
 21
132.324233
 31
0.0
 11
166.646999
 21
131.323556
 31
0.0
 11
166.736073
 21
130.648820
 31
0.0
 11
166.994368
 21
130.025239
 31
0.0
 11
167.408494
 21
129.485144
 31
0.0
 11
167.948590
 21
129.071018
 31
0.0
 11
168.572170
 21
128.812723
 31
0.0
 11
169.246906
 21
128.723649
 31
0.0
  0
LWPOLYLINE
  5
1a3
100
AcDbEntity
  8
0
 62
1
100
AcDbPolyline
 90
1
 70
1
 10
169.246906
 20
128.723649
 30
0.0
  0
SPLINE
  5
1a4
100
AcDbEntity
  8
0
 62
1
100
AcDbSpline
 70
0
 71
3
 72
22
 73
18
 74
16
 40
0.000000
 40
0.000000
 40
0.000000
 40
0.000000
 40
1.359224
 40
2.678142
 40
4.037366
 40
5.396589
 40
6.715507
 40
8.074731
 40
9.433955
 40
10.752873
 40
12.112097
 40
12.792931
 40
13.468127
 40
14.148961
 40
14.829795
 40
15.504991
 40
16.185825
 40
16.185825
 40
16.185825
 40
16.185825
 10
32.510132
 20
66.579870
 30
0.0
 10
32.149017
 20
66.288825
 30
0.0
 10
31.437497
 20
65.715367
 30
0.0
 10
31.094123
 20
64.322055
 30
0.0
 10
31.450105
 20
62.968720
 30
0.0
 10
32.451090
 20
61.971349
 30
0.0
 10
33.808521
 20
61.607980
 30
0.0
 10
35.171785
 20
61.969028
 30
0.0
 10
36.166399
 20
62.968655
 30
0.0
 10
36.531867
 20
64.325374
 30
0.0
 10
36.227870
 20
65.462795
 30
0.0
 10
35.670436
 20
66.186995
 30
0.0
 10
35.125914
 20
66.605448
 30
0.0
 10
34.491161
 20
66.869154
 30
0.0
 10
33.811566
 20
66.956305
 30
0.0
 10
33.125719
 20
66.875455
 30
0.0
 10
32.715896
 20
66.678671
 30
0.0
 10
32.510132
 20
66.579870
 30
0.0
 11
32.510132
 21
66.579870
 31
0.0
 11
31.551393
 21
65.616382
 31
0.0
 11
31.210064
 21
64.342396
 31
0.0
 11
31.558678
 21
63.028639
 31
0.0
 11
32.521987
 21
62.069720
 31
0.0
 11
33.795908
 21
61.728152
 31
0.0
 11
35.109730
 21
62.076520
 31
0.0
 11
36.068831
 21
63.039649
 31
0.0
 11
36.410637
 21
64.313506
 31
0.0
 11
36.062515
 21
65.627394
 31
0.0
 11
35.648072
 21
66.167553
 31
0.0
 11
35.112528
 21
66.578748
 31
0.0
 11
34.483666
 21
66.839647
 31
0.0
 11
33.808636
 21
66.928352
 31
0.0
 11
33.139214
 21
66.840236
 31
0.0
 11
32.510132
 21
66.579870
 31
0.0
  0
LWPOLYLINE
  5
1a5
100
AcDbEntity
  8
0
 62
1
100
AcDbPolyline
 90
1
 70
1
 10
32.510132
 20
66.579870
 30
0.0
  0
SPLINE
  5
1a6
100
AcDbEntity
  8
0
 62
1
100
AcDbSpline
 70
0
 71
3
 72
25
 73
21
 74
19
 40
0.000000
 40
0.000000
 40
0.000000
 40
0.000000
 40
0.432020
 40
0.856347
 40
1.288367
 40
1.720387
 40
2.144714
 40
2.576734
 40
3.008754
 40
3.433081
 40
3.865101
 40
4.297121
 40
4.721448
 40
5.153468
 40
5.441588
 40
5.727323
 40
6.015443
 40
6.303562
 40
6.589298
 40
6.877418
 40
6.877418
 40
6.877418
 40
6.877418
 10
103.720073
 20
85.495341
 30
0.0
 10
103.703348
 20
85.640278
 30
0.0
 10
103.670198
 20
85.927570
 30
0.0
 10
103.415892
 20
86.293680
 30
0.0
 10
103.052287
 20
86.538994
 30
0.0
 10
102.619157
 20
86.624494
 30
0.0
 10
102.187486
 20
86.538592
 30
0.0
 10
101.820646
 20
86.294118
 30
0.0
 10
101.576185
 20
85.927328
 30
0.0
 10
101.490283
 20
85.495472
 30
0.0
 10
101.575771
 20
85.063043
 30
0.0
 10
101.821132
 20
84.696829
 30
0.0
 10
102.187066
 20
84.452146
 30
0.0
 10
102.571612
 20
84.375502
 30
0.0
 10
102.907536
 20
84.420057
 30
0.0
 10
103.175996
 20
84.531220
 30
0.0
 10
103.406934
 20
84.708083
 30
0.0
 10
103.582639
 20
84.938730
 30
0.0
 10
103.698122
 20
85.207193
 30
0.0
 10
103.712736
 20
85.399026
 30
0.0
 10
103.720073
 20
85.495341
 30
0.0
 11
103.720073
 21
85.495341
 31
0.0
 11
103.635317
 21
85.918966
 31
0.0
 11
103.399573
 21
86.271781
 31
0.0
 11
103.040630
 21
86.512199
 31
0.0
 11
102.616817
 21
86.596009
 31
0.0
 11
102.200644
 21
86.513227
 31
0.0
 11
101.841164
 21
86.273610
 31
0.0
 11
101.601548
 21
85.914131
 31
0.0
 11
101.518766
 21
85.497957
 31
0.0
 11
101.602576
 21
85.074145
 31
0.0
 11
101.842994
 21
84.715201
 31
0.0
 11
102.195809
 21
84.479458
 31
0.0
 11
102.619434
 21
84.394702
 31
0.0
 11
102.905075
 21
84.432410
 31
0.0
 11
103.169060
 21
84.541757
 31
0.0
 11
103.397703
 21
84.717072
 31
0.0
 11
103.573018
 21
84.945715
 31
0.0
 11
103.682364
 21
85.209700
 31
0.0
 11
103.720073
 21
85.495341
 31
0.0
  0
LWPOLYLINE
  5
1a7
100
AcDbEntity
  8
0
 62
1
100
AcDbPolyline
 90
1
 70
1
 10
103.720073
 20
85.495341
 30
0.0
  0
SPLINE
  5
1a8
100
AcDbEntity
  8
0
 62
1
100
AcDbSpline
 70
0
 71
3
 72
25
 73
21
 74
19
 40
0.000000
 40
0.000000
 40
0.000000
 40
0.000000
 40
0.432313
 40
0.856918
 40
1.289231
 40
1.721544
 40
2.146149
 40
2.578461
 40
3.010774
 40
3.435379
 40
3.867692
 40
4.300005
 40
4.724610
 40
5.156923
 40
5.444708
 40
5.730102
 40
6.017886
 40
6.305671
 40
6.591065
 40
6.878850
 40
6.878850
 40
6.878850
 40
6.878850
 10
70.940782
 20
125.241819
 30
0.0
 10
70.924033
 20
125.386855
 30
0.0
 10
70.890835
 20
125.674341
 30
0.0
 10
70.636196
 20
126.040610
 30
0.0
 10
70.272171
 20
126.285851
 30
0.0
 10
69.838655
 20
126.371005
 30
0.0
 10
69.406784
 20
126.284522
 30
0.0
 10
69.040045
 20
126.039336
 30
0.0
 10
68.796051
 20
125.671861
 30
0.0
 10
68.710955
 20
125.239533
 30
0.0
 10
68.797486
 20
124.806982
 30
0.0
 10
69.043947
 20
124.441175
 30
0.0
 10
69.410837
 20
124.197200
 30
0.0
 10
69.795667
 20
124.122218
 30
0.0
 10
70.131431
 20
124.166493
 30
0.0
 10
70.399508
 20
124.277826
 30
0.0
 10
70.629949
 20
124.454776
 30
0.0
 10
70.805021
 20
124.685497
 30
0.0
 10
70.919736
 20
124.953936
 30
0.0
 10
70.933747
 20
125.145592
 30
0.0
 10
70.940782
 20
125.241819
 30
0.0
 11
70.940782
 21
125.241819
 31
0.0
 11
70.855909
 21
125.665719
 31
0.0
 11
70.619868
 21
126.018669
 31
0.0
 11
70.260520
 21
126.259010
 31
0.0
 11
69.836341
 21
126.342478
 31
0.0
 11
69.419995
 21
126.259140
 31
0.0
 11
69.060625
 21
126.018833
 31
0.0
 11
68.821473
 21
125.658693
 31
0.0
 11
68.739472
 21
125.242081
 31
0.0
 11
68.824301
 21
124.818173
 31
0.0
 11
69.065794
 21
124.459598
 31
0.0
 11
69.419500
 21
124.224692
 31
0.0
 11
69.843670
 21
124.141180
 31
0.0
 11
70.128970
 21
124.178920
 31
0.0
 11
70.392552
 21
124.288347
 31
0.0
 11
70.620695
 21
124.463763
 31
0.0
 11
70.795378
 21
124.692468
 31
0.0
 11
70.903957
 21
124.956400
 31
0.0
 11
70.940782
 21
125.241819
 31
0.0
  0
LWPOLYLINE
  5
1a9
100
AcDbEntity
  8
0
 62
1
100
AcDbPolyline
 90
1
 70
1
 10
70.940782
 20
125.241819
 30
0.0
  0
SPLINE
  5
1aa
100
AcDbEntity
  8
0
 62
1
100
AcDbSpline
 70
0
 71
3
 72
25
 73
21
 74
19
 40
0.000000
 40
0.000000
 40
0.000000
 40
0.000000
 40
0.432020
 40
0.856347
 40
1.288367
 40
1.720387
 40
2.144714
 40
2.576734
 40
3.008754
 40
3.433081
 40
3.865101
 40
4.297121
 40
4.721448
 40
5.153468
 40
5.441588
 40
5.727323
 40
6.015443
 40
6.303562
 40
6.589298
 40
6.877418
 40
6.877418
 40
6.877418
 40
6.877418
 10
146.962491
 20
121.618882
 30
0.0
 10
146.945767
 20
121.763818
 30
0.0
 10
146.912616
 20
122.051111
 30
0.0
 10
146.658311
 20
122.417221
 30
0.0
 10
146.294705
 20
122.662534
 30
0.0
 10
145.861575
 20
122.748035
 30
0.0
 10
145.429904
 20
122.662133
 30
0.0
 10
145.063064
 20
122.417659
 30
0.0
 10
144.818603
 20
122.050869
 30
0.0
 10
144.732701
 20
121.619013
 30
0.0
 10
144.818190
 20
121.186584
 30
0.0
 10
145.063550
 20
120.820370
 30
0.0
 10
145.429485
 20
120.575687
 30
0.0
 10
145.814030
 20
120.499043
 30
0.0
 10
146.149954
 20
120.543598
 30
0.0
 10
146.418414
 20
120.654761
 30
0.0
 10
146.649353
 20
120.831624
 30
0.0
 10
146.825057
 20
121.062271
 30
0.0
 10
146.940540
 20
121.330734
 30
0.0
 10
146.955154
 20
121.522567
 30
0.0
 10
146.962491
 20
121.618882
 30
0.0
 11
146.962491
 21
121.618882
 31
0.0
 11
146.877735
 21
122.042506
 31
0.0
 11
146.641992
 21
122.395321
 31
0.0
 11
146.283048
 21
122.635740
 31
0.0
 11
145.859236
 21
122.719550
 31
0.0
 11
145.443062
 21
122.636767
 31
0.0
 11
145.083583
 21
122.397151
 31
0.0
 11
144.843967
 21
122.037672
 31
0.0
 11
144.761184
 21
121.621498
 31
0.0
 11
144.844994
 21
121.197686
 31
0.0
 11
145.085413
 21
120.838742
 31
0.0
 11
145.438228
 21
120.602999
 31
0.0
 11
145.861852
 21
120.518243
 31
0.0
 11
146.147493
 21
120.555951
 31
0.0
 11
146.411479
 21
120.665297
 31
0.0
 11
146.640121
 21
120.840613
 31
0.0
 11
146.815437
 21
121.069255
 31
0.0
 11
146.924783
 21
121.333241
 31
0.0
 11
146.962491
 21
121.618882
 31
0.0
  0
LWPOLYLINE
  5
1ab
100
AcDbEntity
  8
0
 62
1
100
AcDbPolyline
 90
1
 70
1
 10
146.962491
 20
121.618882
 30
0.0
  0
SPLINE
  5
1ac
100
AcDbEntity
  8
0
 62
1
100
AcDbSpline
 70
0
 71
3
 72
25
 73
21
 74
19
 40
0.000000
 40
0.000000
 40
0.000000
 40
0.000000
 40
0.432313
 40
0.856918
 40
1.289231
 40
1.721544
 40
2.146149
 40
2.578461
 40
3.010774
 40
3.435379
 40
3.867692
 40
4.300005
 40
4.724610
 40
5.156923
 40
5.444708
 40
5.730102
 40
6.017886
 40
6.305671
 40
6.591065
 40
6.878850
 40
6.878850
 40
6.878850
 40
6.878850
 10
146.969547
 20
102.604635
 30
0.0
 10
146.952798
 20
102.749671
 30
0.0
 10
146.919600
 20
103.037157
 30
0.0
 10
146.664961
 20
103.403426
 30
0.0
 10
146.300936
 20
103.648667
 30
0.0
 10
145.867420
 20
103.733821
 30
0.0
 10
145.435549
 20
103.647338
 30
0.0
 10
145.068810
 20
103.402152
 30
0.0
 10
144.824815
 20
103.034677
 30
0.0
 10
144.739720
 20
102.602349
 30
0.0
 10
144.826251
 20
102.169798
 30
0.0
 10
145.072712
 20
101.803991
 30
0.0
 10
145.439602
 20
101.560016
 30
0.0
 10
145.824432
 20
101.485034
 30
0.0
 10
146.160196
 20
101.529309
 30
0.0
 10
146.428273
 20
101.640642
 30
0.0
 10
146.658714
 20
101.817592
 30
0.0
 10
146.833786
 20
102.048313
 30
0.0
 10
146.948501
 20
102.316752
 30
0.0
 10
146.962512
 20
102.508408
 30
0.0
 10
146.969547
 20
102.604635
 30
0.0
 11
146.969547
 21
102.604635
 31
0.0
 11
146.884673
 21
103.028535
 31
0.0
 11
146.648633
 21
103.381486
 31
0.0
 11
146.289285
 21
103.621826
 31
0.0
 11
145.865106
 21
103.705294
 31
0.0
 11
145.448760
 21
103.621956
 31
0.0
 11
145.089390
 21
103.381649
 31
0.0
 11
144.850238
 21
103.021509
 31
0.0
 11
144.768237
 21
102.604897
 31
0.0
 11
144.853065
 21
102.180989
 31
0.0
 11
145.094559
 21
101.822415
 31
0.0
 11
145.448265
 21
101.587508
 31
0.0
 11
145.872435
 21
101.503996
 31
0.0
 11
146.157735
 21
101.541737
 31
0.0
 11
146.421317
 21
101.651163
 31
0.0
 11
146.649460
 21
101.826579
 31
0.0
 11
146.824143
 21
102.055284
 31
0.0
 11
146.932722
 21
102.319216
 31
0.0
 11
146.969547
 21
102.604635
 31
0.0
  0
LWPOLYLINE
  5
1ad
100
AcDbEntity
  8
0
 62
1
100
AcDbPolyline
 90
1
 70
1
 10
146.969547
 20
102.604635
 30
0.0
  0
SPLINE
  5
1ae
100
AcDbEntity
  8
0
 62
1
100
AcDbSpline
 70
0
 71
3
 72
22
 73
18
 74
16
 40
0.000000
 40
0.000000
 40
0.000000
 40
0.000000
 40
0.432313
 40
0.856918
 40
1.289231
 40
1.721544
 40
2.146149
 40
2.578461
 40
3.010774
 40
3.435379
 40
3.867692
 40
4.300005
 40
4.724610
 40
5.156923
 40
5.731236
 40
6.288574
 40
6.862887
 40
6.862887
 40
6.862887
 40
6.862887
 10
57.200431
 20
77.737952
 30
0.0
 10
57.184148
 20
77.883041
 30
0.0
 10
57.151873
 20
78.170632
 30
0.0
 10
56.898411
 20
78.537716
 30
0.0
 10
56.535176
 20
78.784125
 30
0.0
 10
56.101935
 20
78.870670
 30
0.0
 10
55.669789
 20
78.785574
 30
0.0
 10
55.302264
 20
78.541566
 30
0.0
 10
55.057092
 20
78.174878
 30
0.0
 10
54.970606
 20
77.742819
 30
0.0
 10
55.055758
 20
77.310016
 30
0.0
 10
55.301009
 20
76.943334
 30
0.0
 10
55.667239
 20
76.698497
 30
0.0
 10
56.147567
 20
76.601879
 30
0.0
 10
56.671440
 20
76.743749
 30
0.0
 10
57.109057
 20
77.163126
 30
0.0
 10
57.169670
 20
77.544437
 30
0.0
 10
57.200431
 20
77.737952
 30
0.0
 11
57.200431
 21
77.737952
 31
0.0
 11
57.116919
 21
78.162122
 31
0.0
 11
56.882012
 21
78.515828
 31
0.0
 11
56.523438
 21
78.757321
 31
0.0
 11
56.099530
 21
78.842150
 31
0.0
 11
55.682918
 21
78.760149
 31
0.0
 11
55.322778
 21
78.520997
 31
0.0
 11
55.082471
 21
78.161627
 31
0.0
 11
54.999133
 21
77.745281
 31
0.0
 11
55.082601
 21
77.321102
 31
0.0
 11
55.322942
 21
76.961754
 31
0.0
 11
55.675892
 21
76.725713
 31
0.0
 11
56.099792
 21
76.640840
 31
0.0
 11
56.654262
 21
76.790500
 31
0.0
 11
57.048992
 21
77.183965
 31
0.0
 11
57.200431
 21
77.737952
 31
0.0
  0
LWPOLYLINE
  5
1af
100
AcDbEntity
  8
0
 62
1
100
AcDbPolyline
 90
1
 70
1
 10
57.200431
 20
77.737952
 30
0.0
  0
SPLINE
  5
1b0
100
AcDbEntity
  8
0
 62
1
100
AcDbSpline
 70
0
 71
3
 72
22
 73
18
 74
16
 40
0.000000
 40
0.000000
 40
0.000000
 40
0.000000
 40
0.575479
 40
1.133890
 40
1.709369
 40
2.284848
 40
2.843259
 40
3.418738
 40
3.994217
 40
4.552628
 40
5.128107
 40
5.416481
 40
5.702449
 40
5.990822
 40
6.279196
 40
6.565164
 40
6.853538
 40
6.853538
 40
6.853538
 40
6.853538
 10
146.966019
 20
102.601108
 30
0.0
 10
146.935768
 20
102.795132
 30
0.0
 10
146.876164
 20
103.177427
 30
0.0
 10
146.437980
 20
103.598301
 30
0.0
 10
145.866390
 20
103.754249
 30
0.0
 10
145.288797
 20
103.598300
 30
0.0
 10
144.868267
 20
103.177433
 30
0.0
 10
144.712185
 20
102.601084
 30
0.0
 10
144.868321
 20
102.024878
 30
0.0
 10
145.288585
 20
101.603590
 30
0.0
 10
145.770027
 20
101.475148
 30
0.0
 10
146.153746
 20
101.525016
 30
0.0
 10
146.422730
 20
101.635860
 30
0.0
 10
146.653961
 20
101.812765
 30
0.0
 10
146.829710
 20
102.043725
 30
0.0
 10
146.944886
 20
102.312636
 30
0.0
 10
146.958955
 20
102.504682
 30
0.0
 10
146.966019
 20
102.601108
 30
0.0
 11
146.966019
 21
102.601108
 31
0.0
 11
146.815749
 21
103.156621
 31
0.0
 11
146.420893
 21
103.551477
 31
0.0
 11
145.865380
 21
103.701747
 31
0.0
 11
145.309866
 21
103.551477
 31
0.0
 11
144.915010
 21
103.156621
 31
0.0
 11
144.764741
 21
102.601108
 31
0.0
 11
144.915010
 21
102.045594
 31
0.0
 11
145.309866
 21
101.650738
 31
0.0
 11
145.865380
 21
101.500469
 31
0.0
 11
146.151373
 21
101.537444
 31
0.0
 11
146.415749
 21
101.646454
 31
0.0
 11
146.644688
 21
101.821799
 31
0.0
 11
146.820034
 21
102.050739
 31
0.0
 11
146.929043
 21
102.315115
 31
0.0
 11
146.966019
 21
102.601108
 31
0.0
  0
LWPOLYLINE
  5
1b1
100
AcDbEntity
  8
0
 62
1
100
AcDbPolyline
 90
1
 70
1
 10
146.966019
 20
102.601108
 30
0.0
  0
LWPOLYLINE
  5
1b2
100
AcDbEntity
  8
0
 62
1
100
AcDbPolyline
 90
1
 70
1
 10
169.257489
 20
90.702211
 30
0.0
  0
SPLINE
  5
1b3
100
AcDbEntity
  8
0
 62
1
100
AcDbSpline
 70
0
 71
3
 72
25
 73
21
 74
19
 40
0.000000
 40
0.000000
 40
0.000000
 40
0.000000
 40
1.020509
 40
2.022845
 40
3.043354
 40
4.063863
 40
5.066199
 40
6.086708
 40
7.107217
 40
8.109553
 40
9.130062
 40
10.150571
 40
11.152908
 40
12.173416
 40
12.854007
 40
13.528965
 40
14.209556
 40
14.890146
 40
15.565104
 40
16.245695
 40
16.245695
 40
16.245695
 40
16.245695
 10
169.257489
 20
90.702211
 30
0.0
 10
169.599855
 20
90.741717
 30
0.0
 10
170.278491
 20
90.820025
 30
0.0
 10
171.143310
 20
91.420740
 30
0.0
 10
171.722784
 20
92.279642
 30
0.0
 10
171.924751
 20
93.302772
 30
0.0
 10
171.721835
 20
94.322456
 30
0.0
 10
171.144344
 20
95.188998
 30
0.0
 10
170.277921
 20
95.766459
 30
0.0
 10
169.257799
 20
95.969375
 30
0.0
 10
168.236323
 20
95.767436
 30
0.0
 10
167.371260
 20
95.187850
 30
0.0
 10
166.793276
 20
94.323448
 30
0.0
 10
166.612229
 20
93.415081
 30
0.0
 10
166.717474
 20
92.621570
 30
0.0
 10
166.980062
 20
91.987418
 30
0.0
 10
167.397844
 20
91.441901
 30
0.0
 10
167.942675
 20
91.026855
 30
0.0
 10
168.576832
 20
90.754063
 30
0.0
 10
169.029976
 20
90.719543
 30
0.0
 10
169.257489
 20
90.702211
 30
0.0
 11
169.257489
 21
90.702211
 31
0.0
 11
170.258166
 21
90.902420
 31
0.0
 11
171.091578
 21
91.459288
 31
0.0
 11
171.659490
 21
92.307177
 31
0.0
 11
171.857463
 21
93.308298
 31
0.0
 11
171.661917
 21
94.291375
 31
0.0
 11
171.095901
 21
95.140530
 31
0.0
 11
170.246746
 21
95.706546
 31
0.0
 11
169.263669
 21
95.902092
 31
0.0
 11
168.262548
 21
95.704119
 31
0.0
 11
167.414659
 21
95.136207
 31
0.0
 11
166.857791
 21
94.302795
 31
0.0
 11
166.657582
 21
93.302118
 31
0.0
 11
166.746656
 21
92.627382
 31
0.0
 11
167.004951
 21
92.003802
 31
0.0
 11
167.419077
 21
91.463706
 31
0.0
 11
167.959173
 21
91.049580
 31
0.0
 11
168.582753
 21
90.791285
 31
0.0
 11
169.257489
 21
90.702211
 31
0.0
  0
LWPOLYLINE
  5
1b4
100
AcDbEntity
  8
0
 62
1
100
AcDbPolyline
 90
2
 70
0
 10
31.307190
 20
78.475240
 30
0.0
 10
34.037621
 20
73.712859
 30
0.0
  0
SPLINE
  5
1b5
100
AcDbEntity
  8
0
 62
1
100
AcDbSpline
 70
0
 71
3
 72
10
 73
6
 74
4
 40
0.000000
 40
0.000000
 40
0.000000
 40
0.000000
 40
1.562504
 40
3.079207
 40
4.641709
 40
4.641709
 40
4.641709
 40
4.641709
 10
34.037621
 20
73.712859
 30
0.0
 10
34.226261
 20
73.217666
 30
0.0
 10
34.598012
 20
72.241795
 30
0.0
 10
34.163996
 20
70.619136
 30
0.0
 10
33.354703
 20
69.959161
 30
0.0
 10
32.944038
 20
69.624266
 30
0.0
 11
34.037621
 21
73.712859
 31
0.0
 11
34.433682
 21
72.201385
 31
0.0
 11
34.041783
 21
70.736187
 31
0.0
 11
32.944038
 21
69.624266
 31
0.0
  0
LWPOLYLINE
  5
1b6
100
AcDbEntity
  8
0
 62
1
100
AcDbPolyline
 90
2
 70
0
 10
32.944038
 20
69.624266
 30
0.0
 10
31.296607
 20
68.657679
 30
0.0
  0
SPLINE
  5
1b7
100
AcDbEntity
  8
0
 62
1
100
AcDbSpline
 70
0
 71
3
 72
13
 73
9
 74
7
 40
0.000000
 40
0.000000
 40
0.000000
 40
0.000000
 40
2.614181
 40
5.150826
 40
7.765008
 40
10.379189
 40
12.915833
 40
15.530014
 40
15.530014
 40
15.530014
 40
15.530014
 10
31.296607
 20
68.657679
 30
0.0
 10
30.602003
 20
68.097978
 30
0.0
 10
29.233396
 20
66.995177
 30
0.0
 10
28.571850
 20
64.316784
 30
0.0
 10
29.259182
 20
61.708851
 30
0.0
 10
31.173594
 20
59.809176
 30
0.0
 10
33.823737
 20
59.042256
 30
0.0
 10
35.463247
 20
59.675707
 30
0.0
 10
36.295343
 20
59.997200
 30
0.0
 11
31.296607
 21
68.657679
 31
0.0
 11
29.452289
 21
66.804996
 31
0.0
 11
28.795463
 21
64.354864
 31
0.0
 11
29.465738
 21
61.828072
 31
0.0
 11
31.318421
 21
59.983755
 31
0.0
 11
33.768551
 21
59.326926
 31
0.0
 11
36.295343
 21
59.997200
 31
0.0
  0
LWPOLYLINE
  5
1b8
100
AcDbEntity
  8
0
 62
1
100
AcDbPolyline
 90
2
 70
0
 10
36.295343
 20
59.997200
 30
0.0
 10
37.896913
 20
60.932039
 30
0.0
  0
SPLINE
  5
1b9
100
AcDbEntity
  8
0
 62
1
100
AcDbSpline
 70
0
 71
3
 72
10
 73
6
 74
4
 40
0.000000
 40
0.000000
 40
0.000000
 40
0.000000
 40
1.582018
 40
3.116483
 40
4.698500
 40
4.698500
 40
4.698500
 40
4.698500
 10
37.896913
 20
60.932039
 30
0.0
 10
38.397295
 20
61.126517
 30
0.0
 10
39.383017
 20
61.509628
 30
0.0
 10
41.028073
 20
61.064942
 30
0.0
 10
41.686531
 20
60.237382
 30
0.0
 10
42.020783
 20
59.817289
 30
0.0
 11
37.896913
 21
60.932039
 31
0.0
 11
39.425226
 21
61.340744
 31
0.0
 11
40.906526
 21
60.940324
 31
0.0
 11
42.020783
 21
59.817289
 31
0.0
  0
LWPOLYLINE
  5
1ba
100
AcDbEntity
  8
0
 62
1
100
AcDbPolyline
 90
2
 70
0
 10
42.020783
 20
59.817289
 30
0.0
 10
44.557193
 20
55.400621
 30
0.0
  0
SPLINE
  5
1bb
100
AcDbEntity
  8
0
 62
1
100
AcDbSpline
 70
0
 71
3
 72
10
 73
6
 74
4
 40
0.000000
 40
0.000000
 40
0.000000
 40
0.000000
 40
0.456249
 40
0.899026
 40
1.355276
 40
1.355276
 40
1.355276
 40
1.355276
 10
44.557193
 20
55.400621
 30
0.0
 10
44.665299
 20
55.289880
 30
0.0
 10
44.878319
 20
55.071670
 30
0.0
 10
45.362054
 20
54.988946
 30
0.0
 10
45.635482
 20
55.123967
 30
0.0
 10
45.774244
 20
55.192489
 30
0.0
 11
44.557193
 21
55.400621
 31
0.0
 11
44.909292
 21
55.110467
 31
0.0
 11
45.345733
 21
55.035830
 31
0.0
 11
45.774244
 21
55.192489
 31
0.0
  0
LWPOLYLINE
  5
1bc
100
AcDbEntity
  8
0
 62
1
100
AcDbPolyline
 90
2
 70
0
 10
45.774244
 20
55.192489
 30
0.0
 10
60.523513
 20
63.697747
 30
0.0
  0
SPLINE
  5
1bd
100
AcDbEntity
  8
0
 62
1
100
AcDbSpline
 70
0
 71
3
 72
10
 73
6
 74
4
 40
0.000000
 40
0.000000
 40
0.000000
 40
0.000000
 40
0.096214
 40
0.192397
 40
0.288611
 40
0.288611
 40
0.288611
 40
0.288611
 10
60.523513
 20
63.697747
 30
0.0
 10
60.553958
 20
63.707847
 30
0.0
 10
60.614836
 20
63.728042
 30
0.0
 10
60.707890
 20
63.752778
 30
0.0
 10
60.770761
 20
63.765477
 30
0.0
 10
60.802202
 20
63.771828
 30
0.0
 11
60.523513
 21
63.697747
 31
0.0
 11
60.615135
 21
63.727119
 31
0.0
 11
60.708090
 21
63.751828
 31
0.0
 11
60.802202
 21
63.771828
 31
0.0
  0
LWPOLYLINE
  5
1be
100
AcDbEntity
  8
0
 62
1
100
AcDbPolyline
 90
2
 70
0
 10
60.802202
 20
63.771828
 30
0.0
 10
97.596004
 20
69.239747
 30
0.0
  0
SPLINE
  5
1bf
100
AcDbEntity
  8
0
 62
1
100
AcDbSpline
 70
0
 71
3
 72
10
 73
6
 74
4
 40
0.000000
 40
0.000000
 40
0.000000
 40
0.000000
 40
0.130008
 40
0.259355
 40
0.389362
 40
0.389362
 40
0.389362
 40
0.389362
 10
97.596004
 20
69.239747
 30
0.0
 10
97.638872
 20
69.246739
 30
0.0
 10
97.724391
 20
69.260687
 30
0.0
 10
97.845258
 20
69.312656
 30
0.0
 10
97.914209
 20
69.365133
 30
0.0
 10
97.948773
 20
69.391438
 30
0.0
 11
97.596004
 21
69.239747
 31
0.0
 11
97.723350
 21
69.265916
 31
0.0
 11
97.842178
 21
69.317010
 31
0.0
 11
97.948773
 21
69.391438
 31
0.0
  0
LWPOLYLINE
  5
1c0
100
AcDbEntity
  8
0
 62
1
100
AcDbPolyline
 90
2
 70
0
 10
97.948773
 20
69.391438
 30
0.0
 10
108.496564
 20
83.854965
 30
0.0
  0
SPLINE
  5
1c1
100
AcDbEntity
  8
0
 62
1
100
AcDbSpline
 70
0
 71
3
 72
10
 73
6
 74
4
 40
0.000000
 40
0.000000
 40
0.000000
 40
0.000000
 40
0.130954
 40
0.260797
 40
0.391750
 40
0.391750
 40
0.391750
 40
0.391750
 10
108.496564
 20
83.854965
 30
0.0
 10
108.529625
 20
83.883733
 30
0.0
 10
108.595466
 20
83.941024
 30
0.0
 10
108.718643
 20
83.992759
 30
0.0
 10
108.805646
 20
83.999663
 30
0.0
 10
108.849333
 20
84.003129
 30
0.0
 11
108.496564
 21
83.854965
 31
0.0
 11
108.599821
 21
83.935507
 31
0.0
 11
108.719533
 21
83.985787
 31
0.0
 11
108.849333
 21
84.003129
 31
0.0
  0
LWPOLYLINE
  5
1c2
100
AcDbEntity
  8
0
 62
1
100
AcDbPolyline
 90
2
 70
0
 10
108.849333
 20
84.003129
 30
0.0
 10
163.856596
 20
84.003129
 30
0.0
  0
SPLINE
  5
1c3
100
AcDbEntity
  8
0
 62
1
100
AcDbSpline
 70
0
 71
3
 72
10
 73
6
 74
4
 40
0.000000
 40
0.000000
 40
0.000000
 40
0.000000
 40
0.261425
 40
0.515232
 40
0.776680
 40
0.776680
 40
0.776680
 40
0.776680
 10
163.856596
 20
84.003129
 30
0.0
 10
163.944102
 20
84.017354
 30
0.0
 10
164.116564
 20
84.045389
 30
0.0
 10
164.315229
 20
84.244091
 30
0.0
 10
164.343291
 20
84.416551
 30
0.0
 10
164.357529
 20
84.504059
 30
0.0
 11
163.856596
 21
84.003129
 31
0.0
 11
164.108644
 21
84.072521
 31
0.0
 11
164.288105
 21
84.251997
 31
0.0
 11
164.357529
 21
84.504059
 31
0.0
  0
LWPOLYLINE
  5
1c4
100
AcDbEntity
  8
0
 62
1
100
AcDbPolyline
 90
2
 70
0
 10
164.357529
 20
84.504059
 30
0.0
 10
164.357529
 20
85.318957
 30
0.0
  0
SPLINE
  5
1c5
100
AcDbEntity
  8
0
 62
1
100
AcDbSpline
 70
0
 71
3
 72
10
 73
6
 74
4
 40
0.000000
 40
0.000000
 40
0.000000
 40
0.000000
 40
1.567812
 40
3.089123
 40
4.656935
 40
4.656935
 40
4.656935
 40
4.656935
 10
164.357529
 20
85.318957
 30
0.0
 10
164.440005
 20
85.844378
 30
0.0
 10
164.602509
 20
86.879636
 30
0.0
 10
165.795386
 20
88.072514
 30
0.0
 10
166.830645
 20
88.235018
 30
0.0
 10
167.356065
 20
88.317493
 30
0.0
 11
164.357529
 21
85.318957
 31
0.0
 11
164.766917
 21
86.832376
 31
0.0
 11
165.842647
 21
87.908105
 31
0.0
 11
167.356065
 21
88.317493
 31
0.0
  0
SPLINE
  5
1c6
100
AcDbEntity
  8
0
 62
1
100
AcDbSpline
 70
0
 71
3
 72
10
 73
6
 74
4
 40
0.000000
 40
0.000000
 40
0.000000
 40
0.000000
 40
2.800665
 40
5.508286
 40
8.308982
 40
8.308982
 40
8.308982
 40
8.308982
 10
169.239851
 20
88.317493
 30
0.0
 10
170.179459
 20
88.476238
 30
0.0
 10
172.027459
 20
88.788453
 30
0.0
 10
174.055012
 20
91.057812
 30
0.0
 10
174.158000
 20
92.929170
 30
0.0
 10
174.210364
 20
93.880660
 30
0.0
 11
169.239851
 21
88.317493
 31
0.0
 11
171.928415
 21
89.101935
 31
0.0
 11
173.732410
 21
91.121047
 31
0.0
 11
174.210364
 21
93.880660
 31
0.0
  0
LWPOLYLINE
  5
1c7
100
AcDbEntity
  8
0
 62
1
100
AcDbPolyline
 90
2
 70
0
 10
167.356065
 20
88.317493
 30
0.0
 10
169.239851
 20
88.317493
 30
0.0
  0
SPLINE
  5
1c8
100
AcDbEntity
  8
0
 62
1
100
AcDbSpline
 70
0
 71
3
 72
10
 73
6
 74
4
 40
0.000000
 40
0.000000
 40
0.000000
 40
0.000000
 40
2.464238
 40
4.864572
 40
7.328811
 40
7.328811
 40
7.328811
 40
7.328811
 10
174.210364
 20
93.880660
 30
0.0
 10
173.985434
 20
94.683301
 30
0.0
 10
173.541406
 20
96.267770
 30
0.0
 10
171.559440
 20
97.989672
 30
0.0
 10
169.928469
 20
98.207930
 30
0.0
 10
169.102270
 20
98.318492
 30
0.0
 11
174.210364
 21
93.880660
 31
0.0
 11
173.311930
 21
96.175281
 31
0.0
 11
171.499925
 21
97.749523
 31
0.0
 11
169.102270
 21
98.318492
 31
0.0
  0
LWPOLYLINE
  5
1c9
100
AcDbEntity
  8
0
 62
1
100
AcDbPolyline
 90
2
 70
0
 10
169.102270
 20
98.318492
 30
0.0
 10
167.338426
 20
98.318492
 30
0.0
  0
SPLINE
  5
1ca
100
AcDbEntity
  8
0
 62
1
100
AcDbSpline
 70
0
 71
3
 72
10
 73
6
 74
4
 40
0.000000
 40
0.000000
 40
0.000000
 40
0.000000
 40
1.568489
 40
3.090516
 40
4.659005
 40
4.659005
 40
4.659005
 40
4.659005
 10
167.338426
 20
98.318492
 30
0.0
 10
166.812784
 20
98.400940
 30
0.0
 10
165.777072
 20
98.563393
 30
0.0
 10
164.583099
 20
99.755963
 30
0.0
 10
164.419428
 20
100.791484
 30
0.0
 10
164.336363
 20
101.317028
 30
0.0
 11
167.338426
 21
98.318492
 31
0.0
 11
165.824272
 21
98.727753
 31
0.0
 11
164.747404
 21
99.803356
 31
0.0
 11
164.336363
 21
101.317028
 31
0.0
  0
SPLINE
  5
1cb
100
AcDbEntity
  8
0
 62
1
100
AcDbSpline
 70
0
 71
3
 72
10
 73
6
 74
4
 40
0.000000
 40
0.000000
 40
0.000000
 40
0.000000
 40
0.083097
 40
0.166194
 40
0.332387
 40
0.332387
 40
0.332387
 40
0.332387
 10
164.336363
 20
107.377600
 30
0.0
 10
164.336363
 20
107.352310
 30
0.0
 10
164.336363
 20
107.301729
 30
0.0
 10
164.336363
 20
107.142762
 30
0.0
 10
164.336363
 20
107.283665
 30
0.0
 10
164.336363
 20
107.377600
 30
0.0
 11
164.336363
 21
107.377600
 31
0.0
 11
164.336363
 21
107.294504
 31
0.0
 11
164.336363
 21
107.211407
 31
0.0
 11
164.336363
 21
107.377600
 31
0.0
  0
SPLINE
  5
1cc
100
AcDbEntity
  8
0
 62
1
100
AcDbSpline
 70
0
 71
3
 72
10
 73
6
 74
4
 40
0.000000
 40
0.000000
 40
0.000000
 40
0.000000
 40
0.234190
 40
0.462661
 40
0.696850
 40
0.696850
 40
0.696850
 40
0.696850
 10
164.336363
 20
107.377600
 30
0.0
 10
164.357695
 20
107.453802
 30
0.0
 10
164.399840
 20
107.604345
 30
0.0
 10
164.584169
 20
107.771054
 30
0.0
 10
164.738174
 20
107.797912
 30
0.0
 10
164.816129
 20
107.811506
 30
0.0
 11
164.336363
 21
107.377600
 31
0.0
 11
164.420919
 21
107.595993
 31
0.0
 11
164.590368
 21
107.749244
 31
0.0
 11
164.816129
 21
107.811506
 31
0.0
  0
LWPOLYLINE
  5
1cd
100
AcDbEntity
  8
0
 62
1
100
AcDbPolyline
 90
2
 70
0
 10
164.336363
 20
101.317028
 30
0.0
 10
164.336363
 20
107.377600
 30
0.0
  0
SPLINE
  5
1ce
100
AcDbEntity
  8
0
 62
1
100
AcDbSpline
 70
0
 71
3
 72
10
 73
6
 74
4
 40
0.000000
 40
0.000000
 40
0.000000
 40
0.000000
 40
0.089368
 40
0.134052
 40
0.178736
 40
0.178736
 40
0.178736
 40
0.178736
 10
164.816129
 20
107.811506
 30
0.0
 10
164.866641
 20
107.811506
 30
0.0
 10
164.942410
 20
107.811506
 30
0.0
 10
164.856927
 20
107.811506
 30
0.0
 10
164.829728
 20
107.811506
 30
0.0
 10
164.816129
 20
107.811506
 30
0.0
 11
164.816129
 21
107.811506
 31
0.0
 11
164.905497
 21
107.811506
 31
0.0
 11
164.860813
 21
107.811506
 31
0.0
 11
164.816129
 21
107.811506
 31
0.0
  0
SPLINE
  5
1cf
100
AcDbEntity
  8
0
 62
1
100
AcDbSpline
 70
0
 71
3
 72
10
 73
6
 74
4
 40
0.000000
 40
0.000000
 40
0.000000
 40
0.000000
 40
0.264372
 40
0.521495
 40
0.785870
 40
0.785870
 40
0.785870
 40
0.785870
 10
183.195391
 20
107.811506
 30
0.0
 10
183.284057
 20
107.823905
 30
0.0
 10
183.458957
 20
107.848361
 30
0.0
 10
183.667697
 20
108.039135
 30
0.0
 10
183.707761
 20
108.211132
 30
0.0
 10
183.728072
 20
108.298327
 30
0.0
 11
183.195391
 21
107.811506
 31
0.0
 11
183.452038
 21
107.874950
 31
0.0
 11
183.641837
 21
108.048411
 31
0.0
 11
183.728072
 21
108.298327
 31
0.0
  0
SPLINE
  5
1d0
100
AcDbEntity
  8
0
 62
1
100
AcDbSpline
 70
0
 71
3
 72
10
 73
6
 74
4
 40
0.000000
 40
0.000000
 40
0.000000
 40
0.000000
 40
3.978725
 40
11.714844
 40
17.469180
 40
17.469180
 40
17.469180
 40
17.469180
 10
183.728072
 20
108.298327
 30
0.0
 10
183.724648
 20
109.624564
 30
0.0
 10
183.714569
 20
113.529499
 30
0.0
 10
183.698873
 20
119.352538
 30
0.0
 10
183.687193
 20
123.849341
 30
0.0
 10
183.682212
 20
125.767446
 30
0.0
 11
183.728072
 21
108.298327
 31
0.0
 11
183.717750
 21
112.277038
 31
0.0
 11
183.697237
 21
120.013130
 31
0.0
 11
183.682212
 21
125.767446
 31
0.0
  0
SPLINE
  5
1d1
100
AcDbEntity
  8
0
 62
1
100
AcDbSpline
 70
0
 71
3
 72
10
 73
6
 74
4
 40
0.000000
 40
0.000000
 40
0.000000
 40
0.000000
 40
0.254810
 40
0.501561
 40
0.756370
 40
0.756370
 40
0.756370
 40
0.756370
 10
183.682212
 20
125.767446
 30
0.0
 10
183.671519
 20
125.853363
 30
0.0
 10
183.650471
 20
126.022479
 30
0.0
 10
183.456987
 20
126.218807
 30
0.0
 10
183.288196
 20
126.242321
 30
0.0
 10
183.202445
 20
126.254266
 30
0.0
 11
183.682212
 21
125.767446
 31
0.0
 11
183.622451
 21
126.015149
 31
0.0
 11
183.449249
 21
126.190897
 31
0.0
 11
183.202445
 21
126.254266
 31
0.0
  0
SPLINE
  5
1d2
100
AcDbEntity
  8
0
 62
1
100
AcDbSpline
 70
0
 71
3
 72
10
 73
6
 74
4
 40
0.000000
 40
0.000000
 40
0.000000
 40
0.000000
 40
3.936919
 40
7.873837
 40
11.810756
 40
11.810756
 40
11.810756
 40
11.810756
 10
183.202445
 20
126.254266
 30
0.0
 10
181.890145
 20
126.250349
 30
0.0
 10
179.265544
 20
126.242514
 30
0.0
 10
175.328643
 20
126.230748
 30
0.0
 10
172.704042
 20
126.222909
 30
0.0
 10
171.391742
 20
126.218989
 30
0.0
 11
183.202445
 21
126.254266
 31
0.0
 11
179.265544
 21
126.242512
 31
0.0
 11
175.328643
 21
126.230749
 31
0.0
 11
171.391742
 21
126.218989
 31
0.0
  0
SPLINE
  5
1d3
100
AcDbEntity
  8
0
 62
1
100
AcDbSpline
 70
0
 71
3
 72
10
 73
6
 74
4
 40
0.000000
 40
0.000000
 40
0.000000
 40
0.000000
 40
0.259588
 40
0.504381
 40
0.763969
 40
0.763969
 40
0.763969
 40
0.763969
 10
171.391742
 20
126.218989
 30
0.0
 10
171.315511
 20
126.268839
 30
0.0
 10
171.167394
 20
126.365698
 30
0.0
 10
171.167394
 20
126.671988
 30
0.0
 10
171.315511
 20
126.768847
 30
0.0
 10
171.391742
 20
126.818697
 30
0.0
 11
171.391742
 21
126.218989
 31
0.0
 11
171.202282
 21
126.396446
 31
0.0
 11
171.202282
 21
126.641239
 31
0.0
 11
171.391742
 21
126.818697
 31
0.0
  0
SPLINE
  5
1d4
100
AcDbEntity
  8
0
 62
1
100
AcDbSpline
 70
0
 71
3
 72
10
 73
6
 74
4
 40
0.000000
 40
0.000000
 40
0.000000
 40
0.000000
 40
1.929003
 40
3.824801
 40
5.753803
 40
5.753803
 40
5.753803
 40
5.753803
 10
171.391742
 20
126.818697
 30
0.0
 10
171.939403
 20
127.166384
 30
0.0
 10
173.025299
 20
127.855776
 30
0.0
 10
174.062011
 20
129.578015
 30
0.0
 10
174.162974
 20
130.860292
 30
0.0
 10
174.213893
 20
131.506997
 30
0.0
 11
171.391742
 21
126.818697
 31
0.0
 11
172.933809
 21
127.977610
 31
0.0
 11
173.911524
 21
129.601840
 31
0.0
 11
174.213893
 21
131.506997
 31
0.0
  0
LWPOLYLINE
  5
1d5
100
AcDbEntity
  8
0
 62
1
100
AcDbPolyline
 90
2
 70
0
 10
164.816129
 20
107.811506
 30
0.0
 10
183.195391
 20
107.811506
 30
0.0
  0
SPLINE
  5
1d6
100
AcDbEntity
  8
0
 62
1
100
AcDbSpline
 70
0
 71
3
 72
10
 73
6
 74
4
 40
0.000000
 40
0.000000
 40
0.000000
 40
0.000000
 40
2.588167
 40
5.103419
 40
7.691586
 40
7.691586
 40
7.691586
 40
7.691586
 10
174.213893
 20
131.506997
 30
0.0
 10
174.032376
 20
132.364970
 30
0.0
 10
173.674456
 20
134.056747
 30
0.0
 10
171.647508
 20
135.950322
 30
0.0
 10
169.935319
 20
136.192444
 30
0.0
 10
169.066994
 20
136.315235
 30
0.0
 11
174.213893
 21
131.506997
 31
0.0
 11
173.415498
 21
133.968941
 31
0.0
 11
171.577504
 21
135.685996
 31
0.0
 11
169.066994
 21
136.315235
 31
0.0
  0
LWPOLYLINE
  5
1d7
100
AcDbEntity
  8
0
 62
1
100
AcDbPolyline
 90
2
 70
0
 10
169.066994
 20
136.315235
 30
0.0
 10
167.384286
 20
136.315235
 30
0.0
  0
SPLINE
  5
1d8
100
AcDbEntity
  8
0
 62
1
100
AcDbSpline
 70
0
 71
3
 72
10
 73
6
 74
4
 40
0.000000
 40
0.000000
 40
0.000000
 40
0.000000
 40
1.572670
 40
3.098636
 40
4.671306
 40
4.671306
 40
4.671306
 40
4.671306
 10
167.384286
 20
136.315235
 30
0.0
 10
166.857230
 20
136.398028
 30
0.0
 10
165.818772
 20
136.561156
 30
0.0
 10
164.622779
 20
137.758553
 30
0.0
 10
164.460869
 20
138.797202
 30
0.0
 10
164.378693
 20
139.324355
 30
0.0
 11
167.384286
 21
136.315235
 31
0.0
 11
165.866260
 21
136.726194
 31
0.0
 11
164.787872
 21
137.805847
 31
0.0
 11
164.378693
 21
139.324355
 31
0.0
  0
LWPOLYLINE
  5
1d9
100
AcDbEntity
  8
0
 62
1
100
AcDbPolyline
 90
2
 70
0
 10
164.378693
 20
139.324355
 30
0.0
 10
164.378693
 20
139.726513
 30
0.0
  0
SPLINE
  5
1da
100
AcDbEntity
  8
0
 62
1
100
AcDbSpline
 70
0
 71
3
 72
10
 73
6
 74
4
 40
0.000000
 40
0.000000
 40
0.000000
 40
0.000000
 40
0.275078
 40
0.541500
 40
0.816580
 40
0.816580
 40
0.816580
 40
0.816580
 10
164.378693
 20
139.726513
 30
0.0
 10
164.366298
 20
139.819142
 30
0.0
 10
164.341897
 20
140.001484
 30
0.0
 10
164.131567
 20
140.211809
 30
0.0
 10
163.949225
 20
140.236213
 30
0.0
 10
163.856596
 20
140.248610
 30
0.0
 11
164.378693
 21
139.726513
 31
0.0
 11
164.311811
 21
139.993336
 31
0.0
 11
164.123421
 21
140.181724
 31
0.0
 11
163.856596
 21
140.248610
 31
0.0
  0
LWPOLYLINE
  5
1db
100
AcDbEntity
  8
0
 62
1
100
AcDbPolyline
 90
2
 70
0
 10
163.856596
 20
140.248610
 30
0.0
 10
126.868770
 20
140.248610
 30
0.0
  0
SPLINE
  5
1dc
100
AcDbEntity
  8
0
 62
1
100
AcDbSpline
 70
0
 71
3
 72
10
 73
6
 74
4
 40
0.000000
 40
0.000000
 40
0.000000
 40
0.000000
 40
0.265606
 40
0.523333
 40
0.788939
 40
0.788939
 40
0.788939
 40
0.788939
 10
126.868770
 20
140.248610
 30
0.0
 10
126.779758
 20
140.262583
 30
0.0
 10
126.604373
 20
140.290113
 30
0.0
 10
126.402286
 20
140.492200
 30
0.0
 10
126.374756
 20
140.667585
 30
0.0
 10
126.360784
 20
140.756597
 30
0.0
 11
126.868770
 21
140.248610
 31
0.0
 11
126.612380
 21
140.317965
 31
0.0
 11
126.430139
 21
140.500206
 31
0.0
 11
126.360784
 21
140.756597
 31
0.0
  0
LWPOLYLINE
  5
1dd
100
AcDbEntity
  8
0
 62
1
100
AcDbPolyline
 90
2
 70
0
 10
126.360784
 20
140.756597
 30
0.0
 10
126.360784
 20
144.481838
 30
0.0
  0
SPLINE
  5
1de
100
AcDbEntity
  8
0
 62
1
100
AcDbSpline
 70
0
 71
3
 72
10
 73
6
 74
4
 40
0.000000
 40
0.000000
 40
0.000000
 40
0.000000
 40
0.265606
 40
0.523333
 40
0.788939
 40
0.788939
 40
0.788939
 40
0.788939
 10
126.360784
 20
144.481838
 30
0.0
 10
126.346811
 20
144.570850
 30
0.0
 10
126.319281
 20
144.746235
 30
0.0
 10
126.117194
 20
144.948322
 30
0.0
 10
125.941809
 20
144.975852
 30
0.0
 10
125.852797
 20
144.989825
 30
0.0
 11
126.360784
 21
144.481838
 31
0.0
 11
126.291428
 21
144.738229
 31
0.0
 11
126.109187
 21
144.920470
 31
0.0
 11
125.852797
 21
144.989825
 31
0.0
  0
LWPOLYLINE
  5
1df
100
AcDbEntity
  8
0
 62
1
100
AcDbPolyline
 90
2
 70
0
 10
125.852797
 20
144.989825
 30
0.0
 10
107.861580
 20
144.989825
 30
0.0
  0
SPLINE
  5
1e0
100
AcDbEntity
  8
0
 62
1
100
AcDbSpline
 70
0
 71
3
 72
10
 73
6
 74
4
 40
0.000000
 40
0.000000
 40
0.000000
 40
0.000000
 40
0.266118
 40
0.524192
 40
0.790270
 40
0.790270
 40
0.790270
 40
0.790270
 10
107.861580
 20
144.989825
 30
0.0
 10
107.772293
 20
145.003348
 30
0.0
 10
107.596418
 20
145.029986
 30
0.0
 10
107.393687
 20
145.232650
 30
0.0
 10
107.367093
 20
145.408529
 30
0.0
 10
107.353593
 20
145.497811
 30
0.0
 11
107.861580
 21
144.989825
 31
0.0
 11
107.604390
 21
145.058176
 31
0.0
 11
107.421891
 21
145.240648
 31
0.0
 11
107.353593
 21
145.497811
 31
0.0
  0
LWPOLYLINE
  5
1e1
100
AcDbEntity
  8
0
 62
1
100
AcDbPolyline
 90
2
 70
0
 10
107.353593
 20
145.497811
 30
0.0
 10
107.353593
 20
146.732503
 30
0.0
  0
SPLINE
  5
1e2
100
AcDbEntity
  8
0
 62
1
100
AcDbSpline
 70
0
 71
3
 72
10
 73
6
 74
4
 40
0.000000
 40
0.000000
 40
0.000000
 40
0.000000
 40
0.265115
 40
0.522501
 40
0.787639
 40
0.787639
 40
0.787639
 40
0.787639
 10
107.353593
 20
146.732503
 30
0.0
 10
107.339174
 20
146.821245
 30
0.0
 10
107.310757
 20
146.996144
 30
0.0
 10
107.109247
 20
147.197616
 30
0.0
 10
106.934352
 20
147.226059
 30
0.0
 10
106.845607
 20
147.240492
 30
0.0
 11
107.353593
 21
146.732503
 31
0.0
 11
107.283238
 21
146.988112
 31
0.0
 11
107.101231
 21
147.170104
 31
0.0
 11
106.845607
 21
147.240492
 31
0.0
  0
LWPOLYLINE
  5
1e3
100
AcDbEntity
  8
0
 62
1
100
AcDbPolyline
 90
2
 70
0
 10
106.845607
 20
147.240492
 30
0.0
 10
89.866837
 20
147.240492
 30
0.0
  0
SPLINE
  5
1e4
100
AcDbEntity
  8
0
 62
1
100
AcDbSpline
 70
0
 71
3
 72
10
 73
6
 74
4
 40
0.000000
 40
0.000000
 40
0.000000
 40
0.000000
 40
0.265606
 40
0.523334
 40
0.788941
 40
0.788941
 40
0.788941
 40
0.788941
 10
89.866837
 20
147.240492
 30
0.0
 10
89.777824
 20
147.226520
 30
0.0
 10
89.602439
 20
147.198989
 30
0.0
 10
89.400352
 20
146.996900
 30
0.0
 10
89.372822
 20
146.821515
 30
0.0
 10
89.358850
 20
146.732503
 30
0.0
 11
89.866837
 21
147.240492
 31
0.0
 11
89.610446
 21
147.171136
 31
0.0
 11
89.428205
 21
146.988894
 31
0.0
 11
89.358850
 21
146.732503
 31
0.0
  0
LWPOLYLINE
  5
1e5
100
AcDbEntity
  8
0
 62
1
100
AcDbPolyline
 90
2
 70
0
 10
89.358850
 20
146.732503
 30
0.0
 10
89.358850
 20
145.497811
 30
0.0
  0
SPLINE
  5
1e6
100
AcDbEntity
  8
0
 62
1
100
AcDbSpline
 70
0
 71
3
 72
10
 73
6
 74
4
 40
0.000000
 40
0.000000
 40
0.000000
 40
0.000000
 40
0.266120
 40
0.524194
 40
0.790273
 40
0.790273
 40
0.790273
 40
0.790273
 10
89.358850
 20
145.497811
 30
0.0
 10
89.345326
 20
145.408524
 30
0.0
 10
89.318689
 20
145.232648
 30
0.0
 10
89.116024
 20
145.029916
 30
0.0
 10
88.940144
 20
145.003324
 30
0.0
 10
88.850860
 20
144.989825
 30
0.0
 11
89.358850
 21
145.497811
 31
0.0
 11
89.290498
 21
145.240619
 31
0.0
 11
89.108026
 21
145.058120
 31
0.0
 11
88.850860
 21
144.989825
 31
0.0
  0
LWPOLYLINE
  5
1e7
100
AcDbEntity
  8
0
 62
1
100
AcDbPolyline
 90
2
 70
0
 10
88.850860
 20
144.989825
 30
0.0
 10
70.859644
 20
144.989825
 30
0.0
  0
SPLINE
  5
1e8
100
AcDbEntity
  8
0
 62
1
100
AcDbSpline
 70
0
 71
3
 72
10
 73
6
 74
4
 40
0.000000
 40
0.000000
 40
0.000000
 40
0.000000
 40
0.259194
 40
0.510926
 40
0.770118
 40
0.770118
 40
0.770118
 40
0.770118
 10
70.859644
 20
144.989825
 30
0.0
 10
70.773325
 20
144.973405
 30
0.0
 10
70.603173
 20
144.941038
 30
0.0
 10
70.410654
 20
144.740151
 30
0.0
 10
70.385556
 20
144.568776
 30
0.0
 10
70.372824
 20
144.481838
 30
0.0
 11
70.859644
 21
144.989825
 31
0.0
 11
70.611607
 21
144.914596
 31
0.0
 11
70.437432
 21
144.732849
 31
0.0
 11
70.372824
 21
144.481838
 31
0.0
  0
LWPOLYLINE
  5
1e9
100
AcDbEntity
  8
0
 62
1
100
AcDbPolyline
 90
2
 70
0
 10
70.372824
 20
144.481838
 30
0.0
 10
70.372824
 20
142.996681
 30
0.0
  0
SPLINE
  5
1ea
100
AcDbEntity
  8
0
 62
1
100
AcDbSpline
 70
0
 71
3
 72
10
 73
6
 74
4
 40
0.000000
 40
0.000000
 40
0.000000
 40
0.000000
 40
0.265113
 40
0.522499
 40
0.787636
 40
0.787636
 40
0.787636
 40
0.787636
 10
70.372824
 20
142.996681
 30
0.0
 10
70.358404
 20
142.907939
 30
0.0
 10
70.329986
 20
142.733042
 30
0.0
 10
70.128477
 20
142.531571
 30
0.0
 10
69.953582
 20
142.503127
 30
0.0
 10
69.864837
 20
142.488695
 30
0.0
 11
70.372824
 21
142.996681
 31
0.0
 11
70.302467
 21
142.741074
 31
0.0
 11
70.120460
 21
142.559083
 31
0.0
 11
69.864837
 21
142.488695
 31
0.0
  0
LWPOLYLINE
  5
1eb
100
AcDbEntity
  8
0
 62
1
100
AcDbPolyline
 90
2
 70
0
 10
69.864837
 20
142.488695
 30
0.0
 10
68.383207
 20
142.488695
 30
0.0
  0
SPLINE
  5
1ec
100
AcDbEntity
  8
0
 62
1
100
AcDbSpline
 70
0
 71
3
 72
10
 73
6
 74
4
 40
0.000000
 40
0.000000
 40
0.000000
 40
0.000000
 40
1.572005
 40
3.097240
 40
4.669211
 40
4.669211
 40
4.669211
 40
4.669211
 10
68.383207
 20
142.488695
 30
0.0
 10
67.856277
 20
142.570916
 30
0.0
 10
66.818094
 20
142.732912
 30
0.0
 10
65.621777
 20
143.929172
 30
0.0
 10
65.459817
 20
144.967358
 30
0.0
 10
65.377615
 20
145.494284
 30
0.0
 11
68.383207
 21
142.488695
 31
0.0
 11
66.865435
 21
142.898043
 31
0.0
 11
65.786919
 21
143.976535
 31
0.0
 11
65.377615
 21
145.494284
 31
0.0
  0
SPLINE
  5
1ed
100
AcDbEntity
  8
0
 62
1
100
AcDbSpline
 70
0
 71
3
 72
10
 73
6
 74
4
 40
0.000000
 40
0.000000
 40
0.000000
 40
0.000000
 40
2.464239
 40
4.864572
 40
7.328811
 40
7.328811
 40
7.328811
 40
7.328811
 10
65.377615
 20
147.233436
 30
0.0
 10
65.267052
 20
148.059634
 30
0.0
 10
65.048795
 20
149.690605
 30
0.0
 10
63.326893
 20
151.672571
 30
0.0
 10
61.742424
 20
152.116599
 30
0.0
 10
60.939782
 20
152.341529
 30
0.0
 11
65.377615
 21
147.233436
 31
0.0
 11
64.808646
 21
149.631090
 31
0.0
 11
63.234404
 21
151.443095
 31
0.0
 11
60.939782
 21
152.341529
 31
0.0
  0
LWPOLYLINE
  5
1ee
100
AcDbEntity
  8
0
 62
1
100
AcDbPolyline
 90
2
 70
0
 10
65.377615
 20
145.494284
 30
0.0
 10
65.377615
 20
147.233436
 30
0.0
  0
SPLINE
  5
1ef
100
AcDbEntity
  8
0
 62
1
100
AcDbSpline
 70
0
 71
3
 72
10
 73
6
 74
4
 40
0.000000
 40
0.000000
 40
0.000000
 40
0.000000
 40
2.805368
 40
5.517144
 40
8.322512
 40
8.322512
 40
8.322512
 40
8.322512
 10
60.939782
 20
152.341529
 30
0.0
 10
59.986430
 20
152.292153
 30
0.0
 10
58.111532
 20
152.195048
 30
0.0
 10
55.834307
 20
150.167008
 30
0.0
 10
55.521540
 20
148.315833
 30
0.0
 10
55.362503
 20
147.374543
 30
0.0
 11
60.939782
 21
152.341529
 31
0.0
 11
58.174172
 21
151.870901
 31
0.0
 11
56.149062
 21
150.067389
 31
0.0
 11
55.362503
 21
147.374543
 31
0.0
  0
LWPOLYLINE
  5
1f0
100
AcDbEntity
  8
0
 62
1
100
AcDbPolyline
 90
2
 70
0
 10
55.362503
 20
147.374543
 30
0.0
 10
55.362503
 20
145.497811
 30
0.0
  0
SPLINE
  5
1f1
100
AcDbEntity
  8
0
 62
1
100
AcDbSpline
 70
0
 71
3
 72
10
 73
6
 74
4
 40
0.000000
 40
0.000000
 40
0.000000
 40
0.000000
 40
1.572177
 40
3.097782
 40
4.669960
 40
4.669960
 40
4.669960
 40
4.669960
 10
55.362503
 20
145.497811
 30
0.0
 10
55.279862
 20
144.970934
 30
0.0
 10
55.117026
 20
143.932786
 30
0.0
 10
53.921650
 20
142.736007
 30
0.0
 10
52.883694
 20
142.571954
 30
0.0
 10
52.356913
 20
142.488695
 30
0.0
 11
55.362503
 21
145.497811
 31
0.0
 11
54.952279
 21
143.980097
 31
0.0
 11
53.874146
 21
142.900699
 31
0.0
 11
52.356913
 21
142.488695
 31
0.0
  0
LWPOLYLINE
  5
1f2
100
AcDbEntity
  8
0
 62
1
100
AcDbPolyline
 90
2
 70
0
 10
52.356913
 20
142.488695
 30
0.0
 10
51.863037
 20
142.488695
 30
0.0
  0
SPLINE
  5
1f3
100
AcDbEntity
  8
0
 62
1
100
AcDbSpline
 70
0
 71
3
 72
10
 73
6
 74
4
 40
0.000000
 40
0.000000
 40
0.000000
 40
0.000000
 40
0.264934
 40
0.521950
 40
0.786884
 40
0.786884
 40
0.786884
 40
0.786884
 10
51.863037
 20
142.488695
 30
0.0
 10
51.774243
 20
142.474696
 30
0.0
 10
51.599308
 20
142.447118
 30
0.0
 10
51.398315
 20
142.244717
 30
0.0
 10
51.371956
 20
142.069595
 30
0.0
 10
51.358577
 20
141.980705
 30
0.0
 11
51.863037
 21
142.488695
 31
0.0
 11
51.607376
 21
142.419215
 31
0.0
 11
51.426273
 21
142.236844
 31
0.0
 11
51.358577
 21
141.980705
 31
0.0
  0
LWPOLYLINE
  5
1f4
100
AcDbEntity
  8
0
 62
1
100
AcDbPolyline
 90
2
 70
0
 10
51.358577
 20
141.980705
 30
0.0
 10
51.358577
 20
140.756597
 30
0.0
  0
SPLINE
  5
1f5
100
AcDbEntity
  8
0
 62
1
100
AcDbSpline
 70
0
 71
3
 72
10
 73
6
 74
4
 40
0.000000
 40
0.000000
 40
0.000000
 40
0.000000
 40
0.253747
 40
0.502254
 40
0.756000
 40
0.756000
 40
0.756000
 40
0.756000
 10
51.358577
 20
140.756597
 30
0.0
 10
51.336348
 20
140.674018
 30
0.0
 10
51.292348
 20
140.510566
 30
0.0
 10
51.105756
 20
140.320003
 30
0.0
 10
50.943266
 20
140.272573
 30
0.0
 10
50.861174
 20
140.248610
 30
0.0
 11
51.358577
 21
140.756597
 31
0.0
 11
51.271479
 21
140.518267
 31
0.0
 11
51.097617
 21
140.340705
 31
0.0
 11
50.861174
 21
140.248610
 31
0.0
  0
LWPOLYLINE
  5
1f6
100
AcDbEntity
  8
0
 62
1
100
AcDbPolyline
 90
2
 70
0
 10
50.861174
 20
140.248610
 30
0.0
 10
31.106112
 20
140.248610
 30
0.0
  0
SPLINE
  5
1f7
100
AcDbEntity
  8
0
 62
1
100
AcDbSpline
 70
0
 71
3
 72
10
 73
6
 74
4
 40
0.000000
 40
0.000000
 40
0.000000
 40
0.000000
 40
0.265606
 40
0.523333
 40
0.788939
 40
0.788939
 40
0.788939
 40
0.788939
 10
31.106112
 20
140.248610
 30
0.0
 10
31.017100
 20
140.234638
 30
0.0
 10
30.841715
 20
140.207108
 30
0.0
 10
30.639628
 20
140.005021
 30
0.0
 10
30.612098
 20
139.829636
 30
0.0
 10
30.598125
 20
139.740624
 30
0.0
 11
31.106112
 21
140.248610
 31
0.0
 11
30.849721
 21
140.179255
 31
0.0
 11
30.667481
 21
139.997014
 31
0.0
 11
30.598125
 21
139.740624
 31
0.0
  0
SPLINE
  5
1f8
100
AcDbEntity
  8
0
 62
1
100
AcDbSpline
 70
0
 71
3
 72
10
 73
6
 74
4
 40
0.000000
 40
0.000000
 40
0.000000
 40
0.000000
 40
0.809227
 40
1.615677
 40
2.424904
 40
2.424904
 40
2.424904
 40
2.424904
 10
30.598125
 20
80.775292
 30
0.0
 10
30.624505
 20
80.506431
 30
0.0
 10
30.677174
 20
79.969631
 30
0.0
 10
30.916740
 20
79.189843
 30
0.0
 10
31.174539
 20
78.716064
 30
0.0
 10
31.303661
 20
78.478767
 30
0.0
 11
30.598125
 21
80.775292
 31
0.0
 11
30.704094
 21
79.973033
 31
0.0
 11
30.940926
 21
79.202142
 31
0.0
 11
31.303661
 21
78.478767
 31
0.0
  0
SPLINE
  5
1f9
100
AcDbEntity
  8
0
 62
1
100
AcDbSpline
 70
0
 71
3
 72
13
 73
9
 74
7
 40
0.000000
 40
0.000000
 40
0.000000
 40
0.000000
 40
0.687103
 40
1.368415
 40
2.055518
 40
2.742622
 40
3.423933
 40
4.111037
 40
4.111037
 40
4.111037
 40
4.111037
 10
113.026118
 20
63.994073
 30
0.0
 10
113.043761
 20
64.223792
 30
0.0
 10
113.078899
 20
64.681292
 30
0.0
 10
113.356778
 20
65.320455
 30
0.0
 10
113.779210
 20
65.868742
 30
0.0
 10
114.333695
 20
66.283006
 30
0.0
 10
114.976904
 20
66.551386
 30
0.0
 10
115.434875
 20
66.579742
 30
0.0
 10
115.664830
 20
66.593981
 30
0.0
 11
113.026118
 21
63.994073
 31
0.0
 11
113.116829
 21
64.675162
 31
0.0
 11
113.379850
 21
65.303657
 31
0.0
 11
113.801281
 21
65.846342
 31
0.0
 11
114.350149
 21
66.259687
 31
0.0
 11
114.982471
 21
66.513369
 31
0.0
 11
115.664830
 21
66.593981
 31
0.0
  0
SPLINE
  5
1fa
100
AcDbEntity
  8
0
 62
1
100
AcDbSpline
 70
0
 71
3
 72
10
 73
6
 74
4
 40
0.000000
 40
0.000000
 40
0.000000
 40
0.000000
 40
1.329856
 40
2.622509
 40
3.952366
 40
3.952366
 40
3.952366
 40
3.952366
 10
115.664830
 20
66.593981
 30
0.0
 10
116.108328
 20
66.514664
 30
0.0
 10
116.982919
 20
66.358250
 30
0.0
 10
117.990202
 20
65.350967
 30
0.0
 10
118.146616
 20
64.476377
 30
0.0
 10
118.225932
 20
64.032878
 30
0.0
 11
115.664830
 21
66.593981
 31
0.0
 11
116.942296
 21
66.224387
 31
0.0
 11
117.856339
 21
65.310344
 31
0.0
 11
118.225932
 21
64.032878
 31
0.0
  0
LWPOLYLINE
  5
1fb
100
AcDbEntity
  8
0
 62
1
100
AcDbPolyline
 90
2
 70
0
 10
30.598125
 20
139.740624
 30
0.0
 10
30.598125
 20
80.775292
 30
0.0
  0
SPLINE
  5
1fc
100
AcDbEntity
  8
0
 62
1
100
AcDbSpline
 70
0
 71
3
 72
16
 73
12
 74
10
 40
0.000000
 40
0.000000
 40
0.000000
 40
0.000000
 40
0.907300
 40
1.801614
 40
2.708914
 40
3.616213
 40
4.510528
 40
5.417828
 40
6.325127
 40
7.219442
 40
8.126742
 40
8.126742
 40
8.126742
 40
8.126742
 10
118.225932
 20
64.032878
 30
0.0
 10
118.197137
 20
63.728679
 30
0.0
 10
118.139960
 20
63.124634
 30
0.0
 10
117.667350
 20
62.323417
 30
0.0
 10
116.971113
 20
61.725160
 30
0.0
 10
116.105697
 20
61.404161
 30
0.0
 10
115.185349
 20
61.397293
 30
0.0
 10
114.315239
 20
61.705340
 30
0.0
 10
113.610151
 20
62.293140
 30
0.0
 10
113.125635
 20
63.087214
 30
0.0
 10
113.059449
 20
63.690338
 30
0.0
 10
113.026118
 20
63.994073
 30
0.0
 11
118.225932
 21
64.032878
 31
0.0
 11
118.074333
 21
63.138333
 31
0.0
 11
117.632968
 21
62.360519
 31
0.0
 11
116.942782
 21
61.771591
 31
0.0
 11
116.092283
 21
61.455608
 31
0.0
 11
115.197994
 21
61.448934
 31
0.0
 11
114.342874
 21
61.752189
 31
0.0
 11
113.643976
 21
62.330750
 31
0.0
 11
113.191051
 21
63.101891
 31
0.0
 11
113.026118
 21
63.994073
 31
0.0
  0
SPLINE
  5
1fd
100
AcDbEntity
  8
0
 62
1
100
AcDbSpline
 70
0
 71
3
 72
13
 73
9
 74
7
 40
0.000000
 40
0.000000
 40
0.000000
 40
0.000000
 40
0.180180
 40
0.357594
 40
0.537774
 40
0.717953
 40
0.895368
 40
1.075548
 40
1.075548
 40
1.075548
 40
1.075548
 10
120.734119
 20
59.662071
 30
0.0
 10
120.794566
 20
59.667967
 30
0.0
 10
120.914533
 20
59.679669
 30
0.0
 10
121.072050
 20
59.776705
 30
0.0
 10
121.186707
 20
59.919000
 30
0.0
 10
121.241823
 20
60.093231
 30
0.0
 10
121.235526
 20
60.278131
 30
0.0
 10
121.178912
 20
60.384544
 30
0.0
 10
121.150387
 20
60.438162
 30
0.0
 11
120.734119
 21
59.662071
 31
0.0
 11
120.911595
 21
59.693170
 31
0.0
 11
121.064225
 21
59.783614
 31
0.0
 11
121.176732
 21
59.924350
 31
0.0
 11
121.231739
 21
60.095928
 31
0.0
 11
121.222654
 21
60.273110
 31
0.0
 11
121.150387
 21
60.438162
 31
0.0
  0
SPLINE
  5
1fe
100
AcDbEntity
  8
0
 62
1
100
AcDbSpline
 70
0
 71
3
 72
19
 73
15
 74
13
 40
0.000000
 40
0.000000
 40
0.000000
 40
0.000000
 40
0.291405
 40
0.582438
 40
0.873843
 40
1.176061
 40
1.477880
 40
1.780098
 40
2.237391
 40
3.086650
 40
3.543943
 40
6.003703
 40
8.399644
 40
10.859404
 40
10.859404
 40
10.859404
 40
10.859404
 10
121.150387
 20
60.438162
 30
0.0
 10
121.096732
 20
60.519236
 30
0.0
 10
120.989492
 20
60.681280
 30
0.0
 10
120.860908
 20
60.943467
 30
0.0
 10
120.756099
 20
61.219562
 30
0.0
 10
120.681068
 20
61.509004
 30
0.0
 10
120.633756
 20
61.808034
 30
0.0
 10
120.620936
 20
62.162052
 30
0.0
 10
120.627618
 20
62.698169
 30
0.0
 10
120.621404
 20
63.286320
 30
0.0
 10
120.640463
 20
64.540953
 30
0.0
 10
120.254641
 20
66.328616
 30
0.0
 10
118.587656
 20
68.304374
 30
0.0
 10
116.998835
 20
68.747280
 30
0.0
 10
116.193983
 20
68.971643
 30
0.0
 11
121.150387
 21
60.438162
 31
0.0
 11
120.994814
 21
60.684565
 31
0.0
 11
120.865132
 21
60.945108
 31
0.0
 11
120.762341
 21
61.217782
 31
0.0
 11
120.685811
 21
61.510149
 31
0.0
 11
120.639828
 21
61.808445
 31
0.0
 11
120.624761
 21
62.110287
 31
0.0
 11
120.624761
 21
62.567580
 31
0.0
 11
120.624761
 21
63.416839
 31
0.0
 11
120.624761
 21
63.874132
 31
0.0
 11
120.056555
 21
66.267364
 31
0.0
 11
118.484761
 21
68.075678
 31
0.0
 11
116.193983
 21
68.971643
 31
0.0
  0
LWPOLYLINE
  5
1ff
100
AcDbEntity
  8
0
 62
1
100
AcDbPolyline
 90
1
 70
1
 10
113.026118
 20
63.994073
 30
0.0
  0
LWPOLYLINE
  5
200
100
AcDbEntity
  8
0
 62
1
100
AcDbPolyline
 90
1
 70
1
 10
110.031109
 20
60.328804
 30
0.0
  0
SPLINE
  5
201
100
AcDbEntity
  8
0
 62
1
100
AcDbSpline
 70
0
 71
3
 72
25
 73
21
 74
19
 40
0.000000
 40
0.000000
 40
0.000000
 40
0.000000
 40
1.403461
 40
2.793631
 40
4.197092
 40
5.600553
 40
6.990723
 40
8.394184
 40
8.882573
 40
9.789581
 40
10.277970
 40
10.918099
 40
11.554752
 40
12.194881
 40
12.344683
 40
12.492140
 40
12.641941
 40
12.791743
 40
12.939200
 40
13.089001
 40
13.089001
 40
13.089001
 40
13.089001
 10
116.193983
 20
68.971643
 30
0.0
 10
115.723290
 20
68.986826
 30
0.0
 10
114.786361
 20
69.017049
 30
0.0
 10
113.433081
 20
68.566047
 30
0.0
 10
112.253521
 20
67.786076
 30
0.0
 10
111.340047
 20
66.701294
 30
0.0
 10
110.755044
 20
65.408928
 30
0.0
 10
110.616503
 20
64.309262
 30
0.0
 10
110.631191
 20
63.376850
 30
0.0
 10
110.622287
 20
62.748831
 30
0.0
 10
110.636768
 20
62.070184
 30
0.0
 10
110.579175
 20
61.482476
 30
0.0
 10
110.382728
 20
60.864152
 30
0.0
 10
110.113349
 20
60.472640
 30
0.0
 10
109.955043
 20
60.198631
 30
0.0
 10
109.944009
 20
60.045284
 30
0.0
 10
109.985128
 20
59.898913
 30
0.0
 10
110.077011
 20
59.777877
 30
0.0
 10
110.205972
 20
59.693880
 30
0.0
 10
110.305500
 20
59.682112
 30
0.0
 10
110.355657
 20
59.676181
 30
0.0
 11
116.193983
 21
68.971643
 31
0.0
 11
114.791033
 21
68.933801
 31
0.0
 11
113.465999
 21
68.513253
 31
0.0
 11
112.298009
 21
67.735114
 31
0.0
 11
111.392334
 21
66.662987
 31
0.0
 11
110.824117
 21
65.394247
 31
0.0
 11
110.627289
 21
64.004656
 31
0.0
 11
110.627289
 21
63.516267
 31
0.0
 11
110.627289
 21
62.609259
 31
0.0
 11
110.627289
 21
62.120870
 31
0.0
 11
110.556643
 21
61.484651
 31
0.0
 11
110.355673
 21
60.880550
 31
0.0
 11
110.031109
 21
60.328804
 31
0.0
 11
109.965533
 21
60.194118
 31
0.0
 11
109.952600
 21
60.047230
 31
0.0
 11
109.993633
 21
59.903157
 31
0.0
 11
110.083754
 21
59.783497
 31
0.0
 11
110.208687
 21
59.705168
 31
0.0
 11
110.355657
 21
59.676181
 31
0.0
  0
SPLINE
  5
202
100
AcDbEntity
  8
0
 62
1
100
AcDbSpline
 70
0
 71
3
 72
13
 73
9
 74
7
 40
0.000000
 40
0.000000
 40
0.000000
 40
0.000000
 40
0.686507
 40
1.367238
 40
2.053745
 40
2.740252
 40
3.420982
 40
4.107489
 40
4.107489
 40
4.107489
 40
4.107489
 10
126.078569
 20
63.994073
 30
0.0
 10
126.096186
 20
64.223591
 30
0.0
 10
126.131271
 20
64.680695
 30
0.0
 10
126.408689
 20
65.319380
 30
0.0
 10
126.830447
 20
65.867418
 30
0.0
 10
127.384118
 20
66.281751
 30
0.0
 10
128.026484
 20
66.550537
 30
0.0
 10
128.484019
 20
66.579459
 30
0.0
 10
128.713753
 20
66.593981
 30
0.0
 11
126.078569
 21
63.994073
 31
0.0
 11
126.169136
 21
64.674580
 31
0.0
 11
126.431729
 21
65.302624
 31
0.0
 11
126.852494
 21
65.845071
 31
0.0
 11
127.400562
 21
66.258488
 31
0.0
 11
128.032088
 21
66.512593
 31
0.0
 11
128.713753
 21
66.593981
 31
0.0
  0
SPLINE
  5
203
100
AcDbEntity
  8
0
 62
1
100
AcDbSpline
 70
0
 71
3
 72
10
 73
6
 74
4
 40
0.000000
 40
0.000000
 40
0.000000
 40
0.000000
 40
1.330562
 40
2.623952
 40
3.954514
 40
3.954514
 40
3.954514
 40
3.954514
 10
128.713753
 20
66.593981
 30
0.0
 10
129.157489
 20
66.514710
 30
0.0
 10
130.032564
 20
66.358383
 30
0.0
 10
131.040971
 20
65.351363
 30
0.0
 10
131.198502
 20
64.476504
 30
0.0
 10
131.278384
 20
64.032878
 30
0.0
 11
128.713753
 21
66.593981
 31
0.0
 11
129.992001
 21
66.224551
 31
0.0
 11
130.907195
 21
65.310616
 31
0.0
 11
131.278384
 21
64.032878
 31
0.0
  0
LWPOLYLINE
  5
204
100
AcDbEntity
  8
0
 62
1
100
AcDbPolyline
 90
2
 70
0
 10
110.355657
 20
59.676181
 30
0.0
 10
120.734119
 20
59.662071
 30
0.0
  0
SPLINE
  5
205
100
AcDbEntity
  8
0
 62
1
100
AcDbSpline
 70
0
 71
3
 72
16
 73
12
 74
10
 40
0.000000
 40
0.000000
 40
0.000000
 40
0.000000
 40
0.907300
 40
1.801614
 40
2.708914
 40
3.616213
 40
4.510528
 40
5.417828
 40
6.325127
 40
7.219442
 40
8.126742
 40
8.126742
 40
8.126742
 40
8.126742
 10
131.278384
 20
64.032878
 30
0.0
 10
131.249589
 20
63.728679
 30
0.0
 10
131.192411
 20
63.124634
 30
0.0
 10
130.719801
 20
62.323417
 30
0.0
 10
130.023565
 20
61.725160
 30
0.0
 10
129.158149
 20
61.404161
 30
0.0
 10
128.237800
 20
61.397293
 30
0.0
 10
127.367690
 20
61.705340
 30
0.0
 10
126.662602
 20
62.293140
 30
0.0
 10
126.178087
 20
63.087214
 30
0.0
 10
126.111901
 20
63.690338
 30
0.0
 10
126.078569
 20
63.994073
 30
0.0
 11
131.278384
 21
64.032878
 31
0.0
 11
131.126784
 21
63.138333
 31
0.0
 11
130.685419
 21
62.360519
 31
0.0
 11
129.995233
 21
61.771591
 31
0.0
 11
129.144735
 21
61.455608
 31
0.0
 11
128.250445
 21
61.448934
 31
0.0
 11
127.395326
 21
61.752189
 31
0.0
 11
126.696427
 21
62.330750
 31
0.0
 11
126.243502
 21
63.101891
 31
0.0
 11
126.078569
 21
63.994073
 31
0.0
  0
SPLINE
  5
206
100
AcDbEntity
  8
0
 62
1
100
AcDbSpline
 70
0
 71
3
 72
13
 73
9
 74
7
 40
0.000000
 40
0.000000
 40
0.000000
 40
0.000000
 40
0.180180
 40
0.357594
 40
0.537774
 40
0.717953
 40
0.895368
 40
1.075548
 40
1.075548
 40
1.075548
 40
1.075548
 10
133.786571
 20
59.662071
 30
0.0
 10
133.847018
 20
59.667967
 30
0.0
 10
133.966984
 20
59.679669
 30
0.0
 10
134.124501
 20
59.776705
 30
0.0
 10
134.239158
 20
59.919000
 30
0.0
 10
134.294274
 20
60.093231
 30
0.0
 10
134.287977
 20
60.278131
 30
0.0
 10
134.231364
 20
60.384544
 30
0.0
 10
134.202838
 20
60.438162
 30
0.0
 11
133.786571
 21
59.662071
 31
0.0
 11
133.964046
 21
59.693170
 31
0.0
 11
134.116676
 21
59.783614
 31
0.0
 11
134.229184
 21
59.924350
 31
0.0
 11
134.284190
 21
60.095928
 31
0.0
 11
134.275105
 21
60.273110
 31
0.0
 11
134.202838
 21
60.438162
 31
0.0
  0
LWPOLYLINE
  5
207
100
AcDbEntity
  8
0
 62
1
100
AcDbPolyline
 90
1
 70
1
 10
126.078569
 20
63.994073
 30
0.0
  0
SPLINE
  5
208
100
AcDbEntity
  8
0
 62
1
100
AcDbSpline
 70
0
 71
3
 72
13
 73
9
 74
7
 40
0.000000
 40
0.000000
 40
0.000000
 40
0.000000
 40
0.291405
 40
0.582438
 40
0.873843
 40
1.176158
 40
1.478041
 40
1.780355
 40
1.780355
 40
1.780355
 40
1.780355
 10
134.202838
 20
60.438162
 30
0.0
 10
134.149192
 20
60.519238
 30
0.0
 10
134.041967
 20
60.681287
 30
0.0
 10
133.913266
 20
60.943438
 30
0.0
 10
133.808894
 20
61.219701
 30
0.0
 10
133.732117
 20
61.508663
 30
0.0
 10
133.684253
 20
61.807913
 30
0.0
 10
133.679560
 20
62.009448
 30
0.0
 10
133.677212
 20
62.110287
 30
0.0
 11
134.202838
 21
60.438162
 31
0.0
 11
134.047266
 21
60.684565
 31
0.0
 11
133.917584
 21
60.945108
 31
0.0
 11
133.814792
 21
61.217782
 31
0.0
 11
133.737061
 21
61.509932
 31
0.0
 11
133.691069
 21
61.808291
 31
0.0
 11
133.677212
 21
62.110287
 31
0.0
  0
SPLINE
  5
209
100
AcDbEntity
  8
0
 62
1
100
AcDbSpline
 70
0
 71
3
 72
10
 73
6
 74
4
 40
0.000000
 40
0.000000
 40
0.000000
 40
0.000000
 40
2.459760
 40
4.855701
 40
7.315461
 40
7.315461
 40
7.315461
 40
7.315461
 10
133.677212
 20
63.874132
 30
0.0
 10
133.566779
 20
64.698826
 30
0.0
 10
133.348777
 20
66.326818
 30
0.0
 10
131.629479
 20
68.304832
 30
0.0
 10
130.047712
 20
68.747434
 30
0.0
 10
129.246434
 20
68.971643
 30
0.0
 11
133.677212
 21
63.874132
 31
0.0
 11
133.109006
 21
66.267364
 31
0.0
 11
131.537212
 21
68.075678
 31
0.0
 11
129.246434
 21
68.971643
 31
0.0
  0
LWPOLYLINE
  5
20a
100
AcDbEntity
  8
0
 62
1
100
AcDbPolyline
 90
2
 70
0
 10
133.677212
 20
62.110287
 30
0.0
 10
133.677212
 20
63.874132
 30
0.0
  0
LWPOLYLINE
  5
20b
100
AcDbEntity
  8
0
 62
1
100
AcDbPolyline
 90
1
 70
1
 10
123.083561
 20
60.328804
 30
0.0
  0
SPLINE
  5
20c
100
AcDbEntity
  8
0
 62
1
100
AcDbSpline
 70
0
 71
3
 72
25
 73
21
 74
19
 40
0.000000
 40
0.000000
 40
0.000000
 40
0.000000
 40
1.403461
 40
2.793631
 40
4.197092
 40
5.600553
 40
6.990723
 40
8.394184
 40
8.882573
 40
9.789581
 40
10.277970
 40
10.918099
 40
11.554752
 40
12.194881
 40
12.344683
 40
12.492140
 40
12.641941
 40
12.791743
 40
12.939200
 40
13.089001
 40
13.089001
 40
13.089001
 40
13.089001
 10
129.246434
 20
68.971643
 30
0.0
 10
128.775741
 20
68.986826
 30
0.0
 10
127.838812
 20
69.017049
 30
0.0
 10
126.485532
 20
68.566047
 30
0.0
 10
125.305973
 20
67.786076
 30
0.0
 10
124.392499
 20
66.701294
 30
0.0
 10
123.807495
 20
65.408928
 30
0.0
 10
123.668955
 20
64.309262
 30
0.0
 10
123.683642
 20
63.376850
 30
0.0
 10
123.674738
 20
62.748831
 30
0.0
 10
123.689220
 20
62.070184
 30
0.0
 10
123.631626
 20
61.482476
 30
0.0
 10
123.435179
 20
60.864152
 30
0.0
 10
123.165801
 20
60.472640
 30
0.0
 10
123.007495
 20
60.198631
 30
0.0
 10
122.996460
 20
60.045284
 30
0.0
 10
123.037579
 20
59.898913
 30
0.0
 10
123.129462
 20
59.777877
 30
0.0
 10
123.258424
 20
59.693880
 30
0.0
 10
123.357952
 20
59.682112
 30
0.0
 10
123.408108
 20
59.676181
 30
0.0
 11
129.246434
 21
68.971643
 31
0.0
 11
127.843484
 21
68.933801
 31
0.0
 11
126.518451
 21
68.513253
 31
0.0
 11
125.350461
 21
67.735114
 31
0.0
 11
124.444786
 21
66.662987
 31
0.0
 11
123.876568
 21
65.394247
 31
0.0
 11
123.679740
 21
64.004656
 31
0.0
 11
123.679740
 21
63.516267
 31
0.0
 11
123.679740
 21
62.609259
 31
0.0
 11
123.679740
 21
62.120870
 31
0.0
 11
123.609095
 21
61.484651
 31
0.0
 11
123.408124
 21
60.880550
 31
0.0
 11
123.083561
 21
60.328804
 31
0.0
 11
123.017984
 21
60.194118
 31
0.0
 11
123.005051
 21
60.047230
 31
0.0
 11
123.046084
 21
59.903157
 31
0.0
 11
123.136205
 21
59.783497
 31
0.0
 11
123.261138
 21
59.705168
 31
0.0
 11
123.408108
 21
59.676181
 31
0.0
  0
SPLINE
  5
20d
100
AcDbEntity
  8
0
 62
1
100
AcDbSpline
 70
0
 71
3
 72
13
 73
9
 74
7
 40
0.000000
 40
0.000000
 40
0.000000
 40
0.000000
 40
0.686768
 40
1.367738
 40
2.054506
 40
2.741274
 40
3.422243
 40
4.109011
 40
4.109011
 40
4.109011
 40
4.109011
 10
139.131020
 20
63.994073
 30
0.0
 10
139.148359
 20
64.223705
 30
0.0
 10
139.182889
 20
64.681028
 30
0.0
 10
139.459997
 20
65.320173
 30
0.0
 10
139.881798
 20
65.868532
 30
0.0
 10
140.435792
 20
66.282905
 30
0.0
 10
141.078613
 20
66.551374
 30
0.0
 10
141.536360
 20
66.579738
 30
0.0
 10
141.766205
 20
66.593981
 30
0.0
 11
139.131020
 21
63.994073
 31
0.0
 11
139.220841
 21
64.674942
 31
0.0
 11
139.483093
 21
65.303388
 31
0.0
 11
139.903892
 21
65.846138
 31
0.0
 11
140.452264
 21
66.259585
 31
0.0
 11
141.084187
 21
66.513344
 31
0.0
 11
141.766205
 21
66.593981
 31
0.0
  0
SPLINE
  5
20e
100
AcDbEntity
  8
0
 62
1
100
AcDbSpline
 70
0
 71
3
 72
10
 73
6
 74
4
 40
0.000000
 40
0.000000
 40
0.000000
 40
0.000000
 40
1.330562
 40
2.623952
 40
3.954514
 40
3.954514
 40
3.954514
 40
3.954514
 10
141.766205
 20
66.593981
 30
0.0
 10
142.209940
 20
66.514710
 30
0.0
 10
143.085016
 20
66.358383
 30
0.0
 10
144.093422
 20
65.351363
 30
0.0
 10
144.250953
 20
64.476504
 30
0.0
 10
144.330835
 20
64.032878
 30
0.0
 11
141.766205
 21
66.593981
 31
0.0
 11
143.044452
 21
66.224551
 31
0.0
 11
143.959646
 21
65.310616
 31
0.0
 11
144.330835
 21
64.032878
 31
0.0
  0
LWPOLYLINE
  5
20f
100
AcDbEntity
  8
0
 62
1
100
AcDbPolyline
 90
2
 70
0
 10
123.408108
 20
59.676181
 30
0.0
 10
133.786571
 20
59.662071
 30
0.0
  0
SPLINE
  5
210
100
AcDbEntity
  8
0
 62
1
100
AcDbSpline
 70
0
 71
3
 72
16
 73
12
 74
10
 40
0.000000
 40
0.000000
 40
0.000000
 40
0.000000
 40
0.907300
 40
1.801614
 40
2.708914
 40
3.616213
 40
4.510528
 40
5.417828
 40
6.325127
 40
7.219442
 40
8.126742
 40
8.126742
 40
8.126742
 40
8.126742
 10
144.330835
 20
64.032878
 30
0.0
 10
144.302040
 20
63.728679
 30
0.0
 10
144.244863
 20
63.124634
 30
0.0
 10
143.772252
 20
62.323417
 30
0.0
 10
143.076016
 20
61.725160
 30
0.0
 10
142.210600
 20
61.404161
 30
0.0
 10
141.290252
 20
61.397293
 30
0.0
 10
140.420141
 20
61.705340
 30
0.0
 10
139.715053
 20
62.293140
 30
0.0
 10
139.230538
 20
63.087214
 30
0.0
 10
139.164352
 20
63.690338
 30
0.0
 10
139.131020
 20
63.994073
 30
0.0
 11
144.330835
 21
64.032878
 31
0.0
 11
144.179235
 21
63.138333
 31
0.0
 11
143.737870
 21
62.360519
 31
0.0
 11
143.047684
 21
61.771591
 31
0.0
 11
142.197186
 21
61.455608
 31
0.0
 11
141.302896
 21
61.448934
 31
0.0
 11
140.447777
 21
61.752189
 31
0.0
 11
139.748878
 21
62.330750
 31
0.0
 11
139.295954
 21
63.101891
 31
0.0
 11
139.131020
 21
63.994073
 31
0.0
  0
SPLINE
  5
211
100
AcDbEntity
  8
0
 62
1
100
AcDbSpline
 70
0
 71
3
 72
13
 73
9
 74
7
 40
0.000000
 40
0.000000
 40
0.000000
 40
0.000000
 40
0.180180
 40
0.357594
 40
0.537774
 40
0.717953
 40
0.895368
 40
1.075548
 40
1.075548
 40
1.075548
 40
1.075548
 10
146.839022
 20
59.662071
 30
0.0
 10
146.899469
 20
59.667967
 30
0.0
 10
147.019435
 20
59.679669
 30
0.0
 10
147.176952
 20
59.776705
 30
0.0
 10
147.291609
 20
59.919000
 30
0.0
 10
147.346725
 20
60.093231
 30
0.0
 10
147.340429
 20
60.278131
 30
0.0
 10
147.283815
 20
60.384544
 30
0.0
 10
147.255289
 20
60.438162
 30
0.0
 11
146.839022
 21
59.662071
 31
0.0
 11
147.016497
 21
59.693170
 31
0.0
 11
147.169127
 21
59.783614
 31
0.0
 11
147.281635
 21
59.924350
 31
0.0
 11
147.336641
 21
60.095928
 31
0.0
 11
147.327556
 21
60.273110
 31
0.0
 11
147.255289
 21
60.438162
 31
0.0
  0
LWPOLYLINE
  5
212
100
AcDbEntity
  8
0
 62
1
100
AcDbPolyline
 90
1
 70
1
 10
139.131020
 20
63.994073
 30
0.0
  0
SPLINE
  5
213
100
AcDbEntity
  8
0
 62
1
100
AcDbSpline
 70
0
 71
3
 72
13
 73
9
 74
7
 40
0.000000
 40
0.000000
 40
0.000000
 40
0.000000
 40
0.292014
 40
0.583628
 40
0.875641
 40
1.177692
 40
1.479340
 40
1.781391
 40
1.781391
 40
1.781391
 40
1.781391
 10
147.255289
 20
60.438162
 30
0.0
 10
147.200875
 20
60.518981
 30
0.0
 10
147.092122
 20
60.680508
 30
0.0
 10
146.962378
 20
60.942843
 30
0.0
 10
146.857295
 20
61.219261
 30
0.0
 10
146.783657
 20
61.509128
 30
0.0
 10
146.736790
 20
61.808172
 30
0.0
 10
146.732040
 20
62.009537
 30
0.0
 10
146.729664
 20
62.110287
 30
0.0
 11
147.255289
 21
60.438162
 31
0.0
 11
147.097624
 21
60.683954
 31
0.0
 11
146.966739
 21
60.944545
 31
0.0
 11
146.863716
 21
61.217782
 31
0.0
 11
146.788228
 21
61.510248
 31
0.0
 11
146.743424
 21
61.808550
 31
0.0
 11
146.729664
 21
62.110287
 31
0.0
  0
SPLINE
  5
214
100
AcDbEntity
  8
0
 62
1
100
AcDbSpline
 70
0
 71
3
 72
10
 73
6
 74
4
 40
0.000000
 40
0.000000
 40
0.000000
 40
0.000000
 40
2.459760
 40
4.855701
 40
7.315461
 40
7.315461
 40
7.315461
 40
7.315461
 10
146.729664
 20
63.874132
 30
0.0
 10
146.619230
 20
64.698826
 30
0.0
 10
146.401228
 20
66.326818
 30
0.0
 10
144.681930
 20
68.304832
 30
0.0
 10
143.100164
 20
68.747434
 30
0.0
 10
142.298886
 20
68.971643
 30
0.0
 11
146.729664
 21
63.874132
 31
0.0
 11
146.161457
 21
66.267364
 31
0.0
 11
144.589663
 21
68.075678
 31
0.0
 11
142.298886
 21
68.971643
 31
0.0
  0
LWPOLYLINE
  5
215
100
AcDbEntity
  8
0
 62
1
100
AcDbPolyline
 90
2
 70
0
 10
146.729664
 20
62.110287
 30
0.0
 10
146.729664
 20
63.874132
 30
0.0
  0
LWPOLYLINE
  5
216
100
AcDbEntity
  8
0
 62
1
100
AcDbPolyline
 90
1
 70
1
 10
136.132484
 20
60.328804
 30
0.0
  0
SPLINE
  5
217
100
AcDbEntity
  8
0
 62
1
100
AcDbSpline
 70
0
 71
3
 72
25
 73
21
 74
19
 40
0.000000
 40
0.000000
 40
0.000000
 40
0.000000
 40
1.404120
 40
2.794931
 40
4.199050
 40
5.603170
 40
6.993981
 40
8.398100
 40
8.886489
 40
9.793498
 40
10.281887
 40
10.922198
 40
11.558974
 40
12.199285
 40
12.349666
 40
12.497677
 40
12.648058
 40
12.798439
 40
12.946449
 40
13.096830
 40
13.096830
 40
13.096830
 40
13.096830
 10
142.298886
 20
68.971643
 30
0.0
 10
141.827979
 20
68.987150
 30
0.0
 10
140.890629
 20
69.018016
 30
0.0
 10
139.536465
 20
68.567482
 30
0.0
 10
138.356043
 20
67.787591
 30
0.0
 10
137.441868
 20
66.702515
 30
0.0
 10
136.856410
 20
65.409599
 30
0.0
 10
136.717898
 20
64.309479
 30
0.0
 10
136.732541
 20
63.376852
 30
0.0
 10
136.723797
 20
62.748822
 30
0.0
 10
136.737863
 20
62.070142
 30
0.0
 10
136.681980
 20
61.482215
 30
0.0
 10
136.485504
 20
60.863450
 30
0.0
 10
136.214503
 20
60.472640
 30
0.0
 10
136.056194
 20
60.198077
 30
0.0
 10
136.045447
 20
60.044089
 30
0.0
 10
136.087264
 20
59.897282
 30
0.0
 10
136.180123
 20
59.776230
 30
0.0
 10
136.310148
 20
59.692723
 30
0.0
 10
136.410158
 20
59.681724
 30
0.0
 10
136.460559
 20
59.676181
 30
0.0
 11
142.298886
 21
68.971643
 31
0.0
 11
140.895252
 21
68.934687
 31
0.0
 11
139.569393
 21
68.514625
 31
0.0
 11
138.400558
 21
67.736565
 31
0.0
 11
137.494192
 21
66.664160
 31
0.0
 11
136.925564
 21
65.394902
 31
0.0
 11
136.728664
 21
64.004656
 31
0.0
 11
136.728664
 21
63.516267
 31
0.0
 11
136.728664
 21
62.609259
 31
0.0
 11
136.728664
 21
62.120870
 31
0.0
 11
136.659133
 21
61.484345
 31
0.0
 11
136.458124
 21
60.880127
 31
0.0
 11
136.132484
 21
60.328804
 31
0.0
 11
136.066761
 21
60.193545
 31
0.0
 11
136.054103
 21
60.046077
 31
0.0
 11
136.095816
 21
59.901597
 31
0.0
 11
136.186890
 21
59.781931
 31
0.0
 11
136.312796
 21
59.704120
 31
0.0
 11
136.460559
 21
59.676181
 31
0.0
  0
SPLINE
  5
218
100
AcDbEntity
  8
0
 62
1
100
AcDbSpline
 70
0
 71
3
 72
13
 73
9
 74
7
 40
0.000000
 40
0.000000
 40
0.000000
 40
0.000000
 40
0.686768
 40
1.367738
 40
2.054506
 40
2.741274
 40
3.422243
 40
4.109011
 40
4.109011
 40
4.109011
 40
4.109011
 10
152.183472
 20
63.994073
 30
0.0
 10
152.200810
 20
64.223705
 30
0.0
 10
152.235340
 20
64.681028
 30
0.0
 10
152.512449
 20
65.320173
 30
0.0
 10
152.934249
 20
65.868532
 30
0.0
 10
153.488243
 20
66.282905
 30
0.0
 10
154.131064
 20
66.551374
 30
0.0
 10
154.588812
 20
66.579738
 30
0.0
 10
154.818656
 20
66.593981
 30
0.0
 11
152.183472
 21
63.994073
 31
0.0
 11
152.273292
 21
64.674942
 31
0.0
 11
152.535544
 21
65.303388
 31
0.0
 11
152.956344
 21
65.846138
 31
0.0
 11
153.504716
 21
66.259585
 31
0.0
 11
154.136638
 21
66.513344
 31
0.0
 11
154.818656
 21
66.593981
 31
0.0
  0
SPLINE
  5
219
100
AcDbEntity
  8
0
 62
1
100
AcDbSpline
 70
0
 71
3
 72
10
 73
6
 74
4
 40
0.000000
 40
0.000000
 40
0.000000
 40
0.000000
 40
1.329856
 40
2.622509
 40
3.952366
 40
3.952366
 40
3.952366
 40
3.952366
 10
154.818656
 20
66.593981
 30
0.0
 10
155.262155
 20
66.514664
 30
0.0
 10
156.136745
 20
66.358250
 30
0.0
 10
157.144028
 20
65.350967
 30
0.0
 10
157.300442
 20
64.476377
 30
0.0
 10
157.379758
 20
64.032878
 30
0.0
 11
154.818656
 21
66.593981
 31
0.0
 11
156.096122
 21
66.224387
 31
0.0
 11
157.010165
 21
65.310344
 31
0.0
 11
157.379758
 21
64.032878
 31
0.0
  0
LWPOLYLINE
  5
21a
100
AcDbEntity
  8
0
 62
1
100
AcDbPolyline
 90
2
 70
0
 10
136.460559
 20
59.676181
 30
0.0
 10
146.839022
 20
59.662071
 30
0.0
  0
SPLINE
  5
21b
100
AcDbEntity
  8
0
 62
1
100
AcDbSpline
 70
0
 71
3
 72
16
 73
12
 74
10
 40
0.000000
 40
0.000000
 40
0.000000
 40
0.000000
 40
0.928084
 40
1.842311
 40
2.770395
 40
3.698479
 40
4.612706
 40
5.540790
 40
6.468875
 40
7.383101
 40
8.311185
 40
8.311185
 40
8.311185
 40
8.311185
 10
157.379758
 20
64.032878
 30
0.0
 10
157.360793
 20
63.720744
 30
0.0
 10
157.323144
 20
63.101136
 30
0.0
 10
156.858829
 20
62.269358
 30
0.0
 10
156.156163
 20
61.645646
 30
0.0
 10
155.272865
 20
61.309963
 30
0.0
 10
154.330796
 20
61.302928
 30
0.0
 10
153.442584
 20
61.625382
 30
0.0
 10
152.730680
 20
62.238530
 30
0.0
 10
152.253995
 20
63.063281
 30
0.0
 10
152.207097
 20
63.682257
 30
0.0
 10
152.183472
 20
63.994073
 30
0.0
 11
157.379758
 21
64.032878
 31
0.0
 11
157.254057
 21
63.113345
 31
0.0
 11
156.822120
 21
62.307591
 31
0.0
 11
156.125907
 21
61.693891
 31
0.0
 11
155.258528
 21
61.363747
 31
0.0
 11
154.344328
 21
61.356920
 31
0.0
 11
153.472115
 21
61.674073
 31
0.0
 11
152.766814
 21
62.277307
 31
0.0
 11
152.322892
 21
63.076521
 31
0.0
 11
152.183472
 21
63.994073
 31
0.0
  0
SPLINE
  5
21c
100
AcDbEntity
  8
0
 62
1
100
AcDbSpline
 70
0
 71
3
 72
13
 73
9
 74
7
 40
0.000000
 40
0.000000
 40
0.000000
 40
0.000000
 40
0.180780
 40
0.358769
 40
0.539549
 40
0.720329
 40
0.898318
 40
1.079098
 40
1.079098
 40
1.079098
 40
1.079098
 10
159.887946
 20
59.662071
 30
0.0
 10
159.948637
 20
59.667575
 30
0.0
 10
160.069084
 20
59.678499
 30
0.0
 10
160.227667
 20
59.775036
 30
0.0
 10
160.343307
 20
59.917343
 30
0.0
 10
160.399122
 20
60.092010
 30
0.0
 10
160.393126
 20
60.277569
 30
0.0
 10
160.336350
 20
60.384354
 30
0.0
 10
160.307741
 20
60.438162
 30
0.0
 11
159.887946
 21
59.662071
 31
0.0
 11
160.066213
 21
59.692109
 31
0.0
 11
160.219819
 21
59.782027
 31
0.0
 11
160.333284
 21
59.922764
 31
0.0
 11
160.388975
 21
60.094753
 31
0.0
 11
160.380164
 21
60.272523
 31
0.0
 11
160.307741
 21
60.438162
 31
0.0
  0
LWPOLYLINE
  5
21d
100
AcDbEntity
  8
0
 62
1
100
AcDbPolyline
 90
1
 70
1
 10
152.183472
 20
63.994073
 30
0.0
  0
SPLINE
  5
21e
100
AcDbEntity
  8
0
 62
1
100
AcDbSpline
 70
0
 71
3
 72
13
 73
9
 74
7
 40
0.000000
 40
0.000000
 40
0.000000
 40
0.000000
 40
0.292014
 40
0.583628
 40
0.875641
 40
1.177692
 40
1.479340
 40
1.781391
 40
1.781391
 40
1.781391
 40
1.781391
 10
160.307741
 20
60.438162
 30
0.0
 10
160.253327
 20
60.518981
 30
0.0
 10
160.144573
 20
60.680508
 30
0.0
 10
160.014830
 20
60.942843
 30
0.0
 10
159.909746
 20
61.219261
 30
0.0
 10
159.836108
 20
61.509128
 30
0.0
 10
159.789241
 20
61.808172
 30
0.0
 10
159.784491
 20
62.009537
 30
0.0
 10
159.782115
 20
62.110287
 30
0.0
 11
160.307741
 21
60.438162
 31
0.0
 11
160.150076
 21
60.683954
 31
0.0
 11
160.019190
 21
60.944545
 31
0.0
 11
159.916167
 21
61.217782
 31
0.0
 11
159.840679
 21
61.510248
 31
0.0
 11
159.795875
 21
61.808550
 31
0.0
 11
159.782115
 21
62.110287
 31
0.0
  0
SPLINE
  5
21f
100
AcDbEntity
  8
0
 62
1
100
AcDbSpline
 70
0
 71
3
 72
10
 73
6
 74
4
 40
0.000000
 40
0.000000
 40
0.000000
 40
0.000000
 40
2.459760
 40
4.855701
 40
7.315461
 40
7.315461
 40
7.315461
 40
7.315461
 10
159.782115
 20
63.874132
 30
0.0
 10
159.671682
 20
64.698826
 30
0.0
 10
159.453680
 20
66.326818
 30
0.0
 10
157.734382
 20
68.304832
 30
0.0
 10
156.152615
 20
68.747434
 30
0.0
 10
155.351337
 20
68.971643
 30
0.0
 11
159.782115
 21
63.874132
 31
0.0
 11
159.213909
 21
66.267364
 31
0.0
 11
157.642115
 21
68.075678
 31
0.0
 11
155.351337
 21
68.971643
 31
0.0
  0
LWPOLYLINE
  5
220
100
AcDbEntity
  8
0
 62
1
100
AcDbPolyline
 90
2
 70
0
 10
159.782115
 20
62.110287
 30
0.0
 10
159.782115
 20
63.874132
 30
0.0
  0
LWPOLYLINE
  5
221
100
AcDbEntity
  8
0
 62
1
100
AcDbPolyline
 90
1
 70
1
 10
149.184936
 20
60.328804
 30
0.0
  0
SPLINE
  5
222
100
AcDbEntity
  8
0
 62
1
100
AcDbSpline
 70
0
 71
3
 72
25
 73
21
 74
19
 40
0.000000
 40
0.000000
 40
0.000000
 40
0.000000
 40
1.404120
 40
2.794931
 40
4.199050
 40
5.603170
 40
6.993981
 40
8.398100
 40
8.886489
 40
9.793498
 40
10.281887
 40
10.922198
 40
11.558974
 40
12.199285
 40
12.349666
 40
12.497677
 40
12.648058
 40
12.798439
 40
12.946449
 40
13.096830
 40
13.096830
 40
13.096830
 40
13.096830
 10
155.351337
 20
68.971643
 30
0.0
 10
154.880430
 20
68.987150
 30
0.0
 10
153.943080
 20
69.018016
 30
0.0
 10
152.588916
 20
68.567482
 30
0.0
 10
151.408494
 20
67.787591
 30
0.0
 10
150.494319
 20
66.702515
 30
0.0
 10
149.908861
 20
65.409599
 30
0.0
 10
149.770349
 20
64.309479
 30
0.0
 10
149.784992
 20
63.376852
 30
0.0
 10
149.776248
 20
62.748822
 30
0.0
 10
149.790314
 20
62.070142
 30
0.0
 10
149.734432
 20
61.482215
 30
0.0
 10
149.537956
 20
60.863450
 30
0.0
 10
149.266954
 20
60.472640
 30
0.0
 10
149.108645
 20
60.198077
 30
0.0
 10
149.097898
 20
60.044089
 30
0.0
 10
149.139715
 20
59.897282
 30
0.0
 10
149.232574
 20
59.776230
 30
0.0
 10
149.362600
 20
59.692723
 30
0.0
 10
149.462609
 20
59.681724
 30
0.0
 10
149.513011
 20
59.676181
 30
0.0
 11
155.351337
 21
68.971643
 31
0.0
 11
153.947704
 21
68.934687
 31
0.0
 11
152.621844
 21
68.514625
 31
0.0
 11
151.453009
 21
67.736565
 31
0.0
 11
150.546643
 21
66.664160
 31
0.0
 11
149.978016
 21
65.394902
 31
0.0
 11
149.781115
 21
64.004656
 31
0.0
 11
149.781115
 21
63.516267
 31
0.0
 11
149.781115
 21
62.609259
 31
0.0
 11
149.781115
 21
62.120870
 31
0.0
 11
149.711584
 21
61.484345
 31
0.0
 11
149.510575
 21
60.880127
 31
0.0
 11
149.184936
 21
60.328804
 31
0.0
 11
149.119212
 21
60.193545
 31
0.0
 11
149.106554
 21
60.046077
 31
0.0
 11
149.148267
 21
59.901597
 31
0.0
 11
149.239341
 21
59.781931
 31
0.0
 11
149.365248
 21
59.704120
 31
0.0
 11
149.513011
 21
59.676181
 31
0.0
  0
LWPOLYLINE
  5
223
100
AcDbEntity
  8
0
 62
1
100
AcDbPolyline
 90
2
 70
0
 10
149.513011
 20
59.676181
 30
0.0
 10
159.887946
 20
59.662071
 30
0.0
  0
ENDSEC
  0
SECTION
  2
OBJECTS
  0
DICTIONARY
  5
C
330
0
100
AcDbDictionary
  3
ACAD_GROUP
350
D
  3
ACAD_MLINESTYLE
350
17
  0
DICTIONARY
  5
D
330
C
100
AcDbDictionary
  0
DICTIONARY
  5
1A
330
C
100
AcDbDictionary
  0
DICTIONARY
  5
17
330
C
100
AcDbDictionary
  3
STANDARD
350
18
  0
DICTIONARY
  5
19
330
C
100
AcDbDictionary
  0
ENDSEC
  0
EOF
