  0
SECTION
  2
HEADER
  9
$ACADVER
  1
AC1014
  9
$HANDSEED
  5
FFFF
  9
$MEASUREMENT
 70
     1
  0
ENDSEC
  0
SECTION
  2
TABLES
  0
TABLE
  2
VPORT
  5
8
330
0
100
AcDbSymbolTable
 70
     4
  0
VPORT
  5
2E
330
8
100
AcDbSymbolTableRecord
100
AcDbViewportTableRecord
  2
*ACTIVE
 70
     0
 10
0.0
 20
0.0
 11
1.0
 21
1.0
 12
210.0
 22
148.5
 13
0.0
 23
0.0
 14
10.0
 24
10.0
 15
10.0
 25
10.0
 16
0.0
 26
0.0
 36
1.0
 17
0.0
 27
0.0
 37
0.0
 40
341.0
 41
1.24
 42
50.0
 43
0.0
 44
0.0
 50
0.0
 51
0.0
 71
     0
 72
   100
 73
     1
 74
     3
 75
     0
 76
     0
 77
     0
 78
     0
  0
ENDTAB
  0
TABLE
  2
LTYPE
  5
5
330
0
100
AcDbSymbolTable
 70
     1
  0
LTYPE
  5
14
330
5
100
AcDbSymbolTableRecord
100
AcDbLinetypeTableRecord
  2
BYBLOCK
 70
     0
  3

 72
    65
 73
     0
 40
0.0
  0
LTYPE
  5
15
330
5
100
AcDbSymbolTableRecord
100
AcDbLinetypeTableRecord
  2
BYLAYER
 70
     0
  3

 72
    65
 73
     0
 40
0.0
  0
LTYPE
  5
16
330
5
100
AcDbSymbolTableRecord
100
AcDbLinetypeTableRecord
  2
CONTINUOUS
 70
     0
  3
Solid line
 72
    65
 73
     0
 40
0.0
  0
ENDTAB
  0
TABLE
  2
LAYER
  5
2
100
AcDbSymbolTable
 70
1
  0
LAYER
  5
50
100
AcDbSymbolTableRecord
100
AcDbLayerTableRecord
  2
0
 70
0
  6
CONTINUOUS
  0
ENDTAB
  0
TABLE
  2
STYLE
  5
3
330
0
100
AcDbSymbolTable
 70
     1
  0
STYLE
  5
11
330
3
100
AcDbSymbolTableRecord
100
AcDbTextStyleTableRecord
  2
STANDARD
 70
     0
 40
0.0
 41
1.0
 50
0.0
 71
     0
 42
2.5
  3
txt
  4

  0
ENDTAB
  0
TABLE
  2
VIEW
  5
6
330
0
100
AcDbSymbolTable
 70
     0
  0
ENDTAB
  0
TABLE
  2
UCS
  5
7
330
0
100
AcDbSymbolTable
 70
     0
  0
ENDTAB
  0
TABLE
  2
APPID
  5
9
330
0
100
AcDbSymbolTable
 70
     2
  0
APPID
  5
12
330
9
100
AcDbSymbolTableRecord
100
AcDbRegAppTableRecord
  2
ACAD
 70
     0
  0
ENDTAB
  0
TABLE
  2
DIMSTYLE
  5
A
330
0
100
AcDbSymbolTable
 70
     1
  0
DIMSTYLE
105
27
330
A
100
AcDbSymbolTableRecord
100
AcDbDimStyleTableRecord
  2
ISO-25
 70
     0
  3

  4

  5

  6

  7

 40
1.0
 41
2.5
 42
0.625
 43
3.75
 44
1.25
 45
0.0
 46
0.0
 47
0.0
 48
0.0
140
2.5
141
2.5
142
0.0
143
0.03937007874016
144
1.0
145
0.0
146
1.0
147
0.625
 71
     0
 72
     0
 73
     0
 74
     0
 75
     0
 76
     0
 77
     1
 78
     8
170
     0
171
     3
172
     1
173
     0
174
     0
175
     0
176
     0
177
     0
178
     0
270
     2
271
     2
272
     2
273
     2
274
     3
340
11
275
     0
280
     0
281
     0
282
     0
283
     0
284
     8
285
     0
286
     0
287
     3
288
     0
  0
ENDTAB
  0
TABLE
  2
BLOCK_RECORD
  5
1
330
0
100
AcDbSymbolTable
 70
     1
  0
BLOCK_RECORD
  5
1F
330
1
100
AcDbSymbolTableRecord
100
AcDbBlockTableRecord
  2
*MODEL_SPACE
  0
BLOCK_RECORD
  5
1B
330
1
100
AcDbSymbolTableRecord
100
AcDbBlockTableRecord
  2
*PAPER_SPACE
  0
ENDTAB
  0
ENDSEC
  0
SECTION
  2
BLOCKS
  0
BLOCK
  5
20
330
1F
100
AcDbEntity
  8
0
100
AcDbBlockBegin
  2
*MODEL_SPACE
 70
     0
 10
0.0
 20
0.0
 30
0.0
  3
*MODEL_SPACE
  1

  0
ENDBLK
  5
21
330
1F
100
AcDbEntity
  8
0
100
AcDbBlockEnd
  0
BLOCK
  5
1C
330
1B
100
AcDbEntity
 67
     1
  8
0
100
AcDbBlockBegin
  2
*PAPER_SPACE
  1

  0
ENDBLK
  5
1D
330
1B
100
AcDbEntity
 67
     1
  8
0
100
AcDbBlockEnd
  0
ENDSEC
  0
SECTION
  2
ENTITIES
  0
SPLINE
  5
100
100
AcDbEntity
  8
0
 62
1
100
AcDbSpline
 70
0
 71
3
 72
34
 73
30
 74
28
 40
0.000000
 40
0.000000
 40
0.000000
 40
0.000000
 40
0.029559
 40
0.059115
 40
0.088675
 40
0.117856
 40
0.147037
 40
0.176226
 40
0.205176
 40
0.234121
 40
0.263048
 40
0.290852
 40
0.318674
 40
0.346503
 40
0.374594
 40
0.402678
 40
0.430769
 40
0.458598
 40
0.486421
 40
0.514227
 40
0.543152
 40
0.572096
 40
0.601044
 40
0.630234
 40
0.659414
 40
0.688595
 40
0.718155
 40
0.747712
 40
0.777271
 40
0.777271
 40
0.777271
 40
0.777271
 10
87.363737
 20
233.454071
 30
0.0
 10
87.373494
 20
233.455443
 30
0.0
 10
87.393007
 20
233.458187
 30
0.0
 10
87.422243
 20
233.462543
 30
0.0
 10
87.451282
 20
233.467357
 30
0.0
 10
87.480072
 20
233.472855
 30
0.0
 10
87.508545
 20
233.479289
 30
0.0
 10
87.536646
 20
233.486918
 30
0.0
 10
87.564242
 20
233.495972
 30
0.0
 10
87.591173
 20
233.506618
 30
0.0
 10
87.616985
 20
233.518900
 30
0.0
 10
87.641481
 20
233.532888
 30
0.0
 10
87.664634
 20
233.548348
 30
0.0
 10
87.686775
 20
233.565379
 30
0.0
 10
87.707833
 20
233.583865
 30
0.0
 10
87.727709
 20
233.603741
 30
0.0
 10
87.746195
 20
233.624799
 30
0.0
 10
87.763227
 20
233.646940
 30
0.0
 10
87.778688
 20
233.670094
 30
0.0
 10
87.792676
 20
233.694590
 30
0.0
 10
87.804957
 20
233.720402
 30
0.0
 10
87.815601
 20
233.747333
 30
0.0
 10
87.824653
 20
233.774928
 30
0.0
 10
87.832282
 20
233.803028
 30
0.0
 10
87.838715
 20
233.831501
 30
0.0
 10
87.844214
 20
233.860291
 30
0.0
 10
87.849029
 20
233.889330
 30
0.0
 10
87.853385
 20
233.918566
 30
0.0
 10
87.856130
 20
233.938079
 30
0.0
 10
87.857502
 20
233.947836
 30
0.0
 11
87.363737
 21
233.454071
 31
0.0
 11
87.393002
 21
233.458227
 31
0.0
 11
87.422230
 21
233.462623
 31
0.0
 11
87.451385
 21
233.467497
 31
0.0
 11
87.480040
 21
233.473015
 31
0.0
 11
87.508493
 21
233.479491
 31
0.0
 11
87.536651
 21
233.487182
 31
0.0
 11
87.564146
 21
233.496242
 31
0.0
 11
87.591050
 21
233.506920
 31
0.0
 11
87.617152
 21
233.519386
 31
0.0
 11
87.641305
 21
233.533161
 31
0.0
 11
87.664451
 21
233.548599
 31
0.0
 11
87.686516
 21
233.565557
 31
0.0
 11
87.707627
 21
233.584089
 31
0.0
 11
87.727485
 21
233.603947
 31
0.0
 11
87.746017
 21
233.625058
 31
0.0
 11
87.762976
 21
233.647123
 31
0.0
 11
87.778415
 21
233.670270
 31
0.0
 11
87.792190
 21
233.694424
 31
0.0
 11
87.804654
 21
233.720525
 31
0.0
 11
87.815330
 21
233.747428
 31
0.0
 11
87.824389
 21
233.774923
 31
0.0
 11
87.832080
 21
233.803080
 31
0.0
 11
87.838556
 21
233.831533
 31
0.0
 11
87.844074
 21
233.860188
 31
0.0
 11
87.848949
 21
233.889343
 31
0.0
 11
87.853345
 21
233.918571
 31
0.0
 11
87.857502
 21
233.947836
 31
0.0
  0
LWPOLYLINE
  5
101
100
AcDbEntity
  8
0
 62
1
100
AcDbPolyline
 90
2
 70
0
 10
87.857502
 20
233.947836
 30
0.0
 10
87.857502
 20
237.721618
 30
0.0
  0
SPLINE
  5
102
100
AcDbEntity
  8
0
 62
1
100
AcDbSpline
 70
0
 71
3
 72
34
 73
30
 74
28
 40
0.000000
 40
0.000000
 40
0.000000
 40
0.000000
 40
0.029558
 40
0.059115
 40
0.088673
 40
0.117854
 40
0.147035
 40
0.176225
 40
0.205174
 40
0.234119
 40
0.263044
 40
0.290849
 40
0.318672
 40
0.346501
 40
0.374592
 40
0.402677
 40
0.430768
 40
0.458596
 40
0.486419
 40
0.514224
 40
0.543150
 40
0.572094
 40
0.601044
 40
0.630234
 40
0.659415
 40
0.688596
 40
0.718155
 40
0.747712
 40
0.777270
 40
0.777270
 40
0.777270
 40
0.777270
 10
87.857502
 20
237.721618
 30
0.0
 10
87.858874
 20
237.731375
 30
0.0
 10
87.861618
 20
237.750888
 30
0.0
 10
87.865974
 20
237.780124
 30
0.0
 10
87.870788
 20
237.809161
 30
0.0
 10
87.876286
 20
237.837952
 30
0.0
 10
87.882719
 20
237.866425
 30
0.0
 10
87.890348
 20
237.894525
 30
0.0
 10
87.899401
 20
237.922121
 30
0.0
 10
87.910046
 20
237.949052
 30
0.0
 10
87.922328
 20
237.974863
 30
0.0
 10
87.936316
 20
237.999360
 30
0.0
 10
87.951776
 20
238.022513
 30
0.0
 10
87.968808
 20
238.044655
 30
0.0
 10
87.987294
 20
238.065713
 30
0.0
 10
88.007170
 20
238.085589
 30
0.0
 10
88.028228
 20
238.104075
 30
0.0
 10
88.050369
 20
238.121106
 30
0.0
 10
88.073522
 20
238.136566
 30
0.0
 10
88.098019
 20
238.150554
 30
0.0
 10
88.123830
 20
238.162836
 30
0.0
 10
88.150762
 20
238.173480
 30
0.0
 10
88.178359
 20
238.182533
 30
0.0
 10
88.206459
 20
238.190162
 30
0.0
 10
88.234932
 20
238.196595
 30
0.0
 10
88.263723
 20
238.202094
 30
0.0
 10
88.292761
 20
238.206908
 30
0.0
 10
88.321997
 20
238.211264
 30
0.0
 10
88.341510
 20
238.214008
 30
0.0
 10
88.351267
 20
238.215380
 30
0.0
 11
87.857502
 21
237.721618
 31
0.0
 11
87.861658
 21
237.750883
 31
0.0
 11
87.866054
 21
237.780110
 31
0.0
 11
87.870928
 21
237.809265
 31
0.0
 11
87.876446
 21
237.837919
 31
0.0
 11
87.882921
 21
237.866373
 31
0.0
 11
87.890612
 21
237.894531
 31
0.0
 11
87.899672
 21
237.922026
 31
0.0
 11
87.910349
 21
237.948929
 31
0.0
 11
87.922814
 21
237.975030
 31
0.0
 11
87.936589
 21
237.999184
 31
0.0
 11
87.952028
 21
238.022330
 31
0.0
 11
87.968986
 21
238.044395
 31
0.0
 11
87.987518
 21
238.065507
 31
0.0
 11
88.007376
 21
238.085366
 31
0.0
 11
88.028487
 21
238.103898
 31
0.0
 11
88.050552
 21
238.120855
 31
0.0
 11
88.073698
 21
238.136294
 31
0.0
 11
88.097852
 21
238.150068
 31
0.0
 11
88.123954
 21
238.162533
 31
0.0
 11
88.150858
 21
238.173210
 31
0.0
 11
88.178353
 21
238.182269
 31
0.0
 11
88.206512
 21
238.189960
 31
0.0
 11
88.234965
 21
238.196436
 31
0.0
 11
88.263620
 21
238.201954
 31
0.0
 11
88.292774
 21
238.206828
 31
0.0
 11
88.322002
 21
238.211224
 31
0.0
 11
88.351267
 21
238.215380
 31
0.0
  0
LWPOLYLINE
  5
103
100
AcDbEntity
  8
0
 62
1
100
AcDbPolyline
 90
2
 70
0
 10
88.351267
 20
238.215380
 30
0.0
 10
106.338436
 20
238.215380
 30
0.0
  0
SPLINE
  5
104
100
AcDbEntity
  8
0
 62
1
100
AcDbSpline
 70
0
 71
3
 72
34
 73
30
 74
28
 40
0.000000
 40
0.000000
 40
0.000000
 40
0.000000
 40
0.029559
 40
0.059116
 40
0.088675
 40
0.117857
 40
0.147037
 40
0.176227
 40
0.205176
 40
0.234120
 40
0.263046
 40
0.290851
 40
0.318673
 40
0.346502
 40
0.374594
 40
0.402679
 40
0.430770
 40
0.458599
 40
0.486422
 40
0.514228
 40
0.543152
 40
0.572096
 40
0.601045
 40
0.630234
 40
0.659415
 40
0.688596
 40
0.718155
 40
0.747712
 40
0.777272
 40
0.777272
 40
0.777272
 40
0.777272
 10
106.338436
 20
238.215380
 30
0.0
 10
106.348193
 20
238.216752
 30
0.0
 10
106.367706
 20
238.219497
 30
0.0
 10
106.396943
 20
238.223852
 30
0.0
 10
106.425981
 20
238.228666
 30
0.0
 10
106.454772
 20
238.234164
 30
0.0
 10
106.483245
 20
238.240598
 30
0.0
 10
106.511345
 20
238.248227
 30
0.0
 10
106.538940
 20
238.257281
 30
0.0
 10
106.565871
 20
238.267927
 30
0.0
 10
106.591682
 20
238.280209
 30
0.0
 10
106.616178
 20
238.294197
 30
0.0
 10
106.639332
 20
238.309657
 30
0.0
 10
106.661474
 20
238.326688
 30
0.0
 10
106.682532
 20
238.345174
 30
0.0
 10
106.702408
 20
238.365050
 30
0.0
 10
106.720895
 20
238.386108
 30
0.0
 10
106.737927
 20
238.408250
 30
0.0
 10
106.753387
 20
238.431403
 30
0.0
 10
106.767375
 20
238.455900
 30
0.0
 10
106.779656
 20
238.481711
 30
0.0
 10
106.790300
 20
238.508643
 30
0.0
 10
106.799352
 20
238.536238
 30
0.0
 10
106.806981
 20
238.564338
 30
0.0
 10
106.813414
 20
238.592811
 30
0.0
 10
106.818913
 20
238.621601
 30
0.0
 10
106.823728
 20
238.650639
 30
0.0
 10
106.828085
 20
238.679876
 30
0.0
 10
106.830830
 20
238.699389
 30
0.0
 10
106.832202
 20
238.709146
 30
0.0
 11
106.338436
 21
238.215380
 31
0.0
 11
106.367701
 21
238.219537
 31
0.0
 11
106.396929
 21
238.223932
 31
0.0
 11
106.426084
 21
238.228806
 31
0.0
 11
106.454739
 21
238.234324
 31
0.0
 11
106.483192
 21
238.240800
 31
0.0
 11
106.511350
 21
238.248491
 31
0.0
 11
106.538844
 21
238.257552
 31
0.0
 11
106.565747
 21
238.268230
 31
0.0
 11
106.591849
 21
238.280695
 31
0.0
 11
106.616003
 21
238.294470
 31
0.0
 11
106.639149
 21
238.309908
 31
0.0
 11
106.661214
 21
238.326866
 31
0.0
 11
106.682326
 21
238.345398
 31
0.0
 11
106.702185
 21
238.365257
 31
0.0
 11
106.720717
 21
238.386368
 31
0.0
 11
106.737675
 21
238.408433
 31
0.0
 11
106.753115
 21
238.431579
 31
0.0
 11
106.766889
 21
238.455733
 31
0.0
 11
106.779354
 21
238.481835
 31
0.0
 11
106.790029
 21
238.508738
 31
0.0
 11
106.799088
 21
238.536233
 31
0.0
 11
106.806779
 21
238.564390
 31
0.0
 11
106.813255
 21
238.592843
 31
0.0
 11
106.818773
 21
238.621498
 31
0.0
 11
106.823648
 21
238.650652
 31
0.0
 11
106.828045
 21
238.679881
 31
0.0
 11
106.832202
 21
238.709146
 31
0.0
  0
LWPOLYLINE
  5
105
100
AcDbEntity
  8
0
 62
1
100
AcDbPolyline
 90
2
 70
0
 10
106.832202
 20
238.709146
 30
0.0
 10
106.832202
 20
239.943562
 30
0.0
  0
SPLINE
  5
106
100
AcDbEntity
  8
0
 62
1
100
AcDbSpline
 70
0
 71
3
 72
34
 73
30
 74
28
 40
0.000000
 40
0.000000
 40
0.000000
 40
0.000000
 40
0.029558
 40
0.059115
 40
0.088674
 40
0.117855
 40
0.147036
 40
0.176225
 40
0.205174
 40
0.234119
 40
0.263045
 40
0.290850
 40
0.318673
 40
0.346502
 40
0.374593
 40
0.402678
 40
0.430769
 40
0.458597
 40
0.486419
 40
0.514224
 40
0.543150
 40
0.572094
 40
0.601044
 40
0.630233
 40
0.659414
 40
0.688595
 40
0.718155
 40
0.747712
 40
0.777271
 40
0.777271
 40
0.777271
 40
0.777271
 10
106.832202
 20
239.943562
 30
0.0
 10
106.833574
 20
239.953319
 30
0.0
 10
106.836318
 20
239.972832
 30
0.0
 10
106.840673
 20
240.002068
 30
0.0
 10
106.845487
 20
240.031106
 30
0.0
 10
106.850985
 20
240.059896
 30
0.0
 10
106.857419
 20
240.088369
 30
0.0
 10
106.865048
 20
240.116470
 30
0.0
 10
106.874101
 20
240.144065
 30
0.0
 10
106.884746
 20
240.170997
 30
0.0
 10
106.897028
 20
240.196808
 30
0.0
 10
106.911016
 20
240.221305
 30
0.0
 10
106.926477
 20
240.244458
 30
0.0
 10
106.943508
 20
240.266599
 30
0.0
 10
106.961995
 20
240.287658
 30
0.0
 10
106.981871
 20
240.307533
 30
0.0
 10
107.002929
 20
240.326019
 30
0.0
 10
107.025070
 20
240.343051
 30
0.0
 10
107.048223
 20
240.358511
 30
0.0
 10
107.072719
 20
240.372499
 30
0.0
 10
107.098530
 20
240.384780
 30
0.0
 10
107.125462
 20
240.395424
 30
0.0
 10
107.153058
 20
240.404477
 30
0.0
 10
107.181158
 20
240.412106
 30
0.0
 10
107.209631
 20
240.418540
 30
0.0
 10
107.238422
 20
240.424038
 30
0.0
 10
107.267460
 20
240.428852
 30
0.0
 10
107.296697
 20
240.433208
 30
0.0
 10
107.316210
 20
240.435953
 30
0.0
 10
107.325967
 20
240.437325
 30
0.0
 11
106.832202
 21
239.943562
 31
0.0
 11
106.836358
 21
239.972827
 31
0.0
 11
106.840753
 21
240.002055
 31
0.0
 11
106.845627
 21
240.031209
 31
0.0
 11
106.851145
 21
240.059864
 31
0.0
 11
106.857621
 21
240.088317
 31
0.0
 11
106.865312
 21
240.116475
 31
0.0
 11
106.874372
 21
240.143970
 31
0.0
 11
106.885049
 21
240.170873
 31
0.0
 11
106.897514
 21
240.196975
 31
0.0
 11
106.911289
 21
240.221129
 31
0.0
 11
106.926728
 21
240.244275
 31
0.0
 11
106.943686
 21
240.266340
 31
0.0
 11
106.962218
 21
240.287451
 31
0.0
 11
106.982077
 21
240.307310
 31
0.0
 11
107.003188
 21
240.325842
 31
0.0
 11
107.025253
 21
240.342800
 31
0.0
 11
107.048398
 21
240.358238
 31
0.0
 11
107.072552
 21
240.372012
 31
0.0
 11
107.098654
 21
240.384477
 31
0.0
 11
107.125557
 21
240.395154
 31
0.0
 11
107.153053
 21
240.404213
 31
0.0
 11
107.181211
 21
240.411904
 31
0.0
 11
107.209664
 21
240.418380
 31
0.0
 11
107.238318
 21
240.423898
 31
0.0
 11
107.267473
 21
240.428773
 31
0.0
 11
107.296702
 21
240.433168
 31
0.0
 11
107.325967
 21
240.437325
 31
0.0
  0
LWPOLYLINE
  5
107
100
AcDbEntity
  8
0
 62
1
100
AcDbPolyline
 90
2
 70
0
 10
107.325967
 20
240.437325
 30
0.0
 10
124.360874
 20
240.437325
 30
0.0
  0
SPLINE
  5
108
100
AcDbEntity
  8
0
 62
1
100
AcDbSpline
 70
0
 71
3
 72
34
 73
30
 74
28
 40
0.000000
 40
0.000000
 40
0.000000
 40
0.000000
 40
0.029559
 40
0.059116
 40
0.088675
 40
0.117856
 40
0.147036
 40
0.176225
 40
0.205175
 40
0.234119
 40
0.263045
 40
0.290850
 40
0.318672
 40
0.346501
 40
0.374592
 40
0.402677
 40
0.430768
 40
0.458597
 40
0.486420
 40
0.514226
 40
0.543151
 40
0.572095
 40
0.601044
 40
0.630234
 40
0.659414
 40
0.688596
 40
0.718155
 40
0.747711
 40
0.777270
 40
0.777270
 40
0.777270
 40
0.777270
 10
124.360874
 20
240.437325
 30
0.0
 10
124.370631
 20
240.435953
 30
0.0
 10
124.390144
 20
240.433209
 30
0.0
 10
124.419381
 20
240.428853
 30
0.0
 10
124.448419
 20
240.424039
 30
0.0
 10
124.477209
 20
240.418541
 30
0.0
 10
124.505682
 20
240.412108
 30
0.0
 10
124.533782
 20
240.404479
 30
0.0
 10
124.561377
 20
240.395425
 30
0.0
 10
124.588309
 20
240.384780
 30
0.0
 10
124.614120
 20
240.372498
 30
0.0
 10
124.638616
 20
240.358511
 30
0.0
 10
124.661770
 20
240.343051
 30
0.0
 10
124.683911
 20
240.326020
 30
0.0
 10
124.704970
 20
240.307534
 30
0.0
 10
124.724846
 20
240.287658
 30
0.0
 10
124.743332
 20
240.266600
 30
0.0
 10
124.760364
 20
240.244458
 30
0.0
 10
124.775825
 20
240.221305
 30
0.0
 10
124.789813
 20
240.196808
 30
0.0
 10
124.802094
 20
240.170996
 30
0.0
 10
124.812738
 20
240.144065
 30
0.0
 10
124.821790
 20
240.116469
 30
0.0
 10
124.829419
 20
240.088369
 30
0.0
 10
124.835852
 20
240.059896
 30
0.0
 10
124.841351
 20
240.031106
 30
0.0
 10
124.846166
 20
240.002068
 30
0.0
 10
124.850522
 20
239.972832
 30
0.0
 10
124.853267
 20
239.953319
 30
0.0
 10
124.854639
 20
239.943562
 30
0.0
 11
124.360874
 21
240.437325
 31
0.0
 11
124.390139
 21
240.433169
 31
0.0
 11
124.419367
 21
240.428773
 31
0.0
 11
124.448522
 21
240.423899
 31
0.0
 11
124.477177
 21
240.418381
 31
0.0
 11
124.505630
 21
240.411906
 31
0.0
 11
124.533787
 21
240.404215
 31
0.0
 11
124.561282
 21
240.395155
 31
0.0
 11
124.588185
 21
240.384477
 31
0.0
 11
124.614287
 21
240.372012
 31
0.0
 11
124.638441
 21
240.358238
 31
0.0
 11
124.661587
 21
240.342800
 31
0.0
 11
124.683652
 21
240.325842
 31
0.0
 11
124.704763
 21
240.307310
 31
0.0
 11
124.724622
 21
240.287451
 31
0.0
 11
124.743155
 21
240.266340
 31
0.0
 11
124.760113
 21
240.244275
 31
0.0
 11
124.775552
 21
240.221129
 31
0.0
 11
124.789327
 21
240.196975
 31
0.0
 11
124.801791
 21
240.170873
 31
0.0
 11
124.812467
 21
240.143970
 31
0.0
 11
124.821526
 21
240.116475
 31
0.0
 11
124.829217
 21
240.088317
 31
0.0
 11
124.835693
 21
240.059864
 31
0.0
 11
124.841211
 21
240.031209
 31
0.0
 11
124.846086
 21
240.002055
 31
0.0
 11
124.850482
 21
239.972827
 31
0.0
 11
124.854639
 21
239.943562
 31
0.0
  0
LWPOLYLINE
  5
109
100
AcDbEntity
  8
0
 62
1
100
AcDbPolyline
 90
2
 70
0
 10
124.854639
 20
239.943562
 30
0.0
 10
124.854639
 20
238.709146
 30
0.0
  0
SPLINE
  5
10a
100
AcDbEntity
  8
0
 62
1
100
AcDbSpline
 70
0
 71
3
 72
34
 73
30
 74
28
 40
0.000000
 40
0.000000
 40
0.000000
 40
0.000000
 40
0.029559
 40
0.059116
 40
0.088676
 40
0.117856
 40
0.147037
 40
0.176225
 40
0.205175
 40
0.234119
 40
0.263045
 40
0.290850
 40
0.318673
 40
0.346502
 40
0.374593
 40
0.402678
 40
0.430769
 40
0.458597
 40
0.486419
 40
0.514224
 40
0.543150
 40
0.572095
 40
0.601044
 40
0.630234
 40
0.659415
 40
0.688596
 40
0.718155
 40
0.747713
 40
0.777272
 40
0.777272
 40
0.777272
 40
0.777272
 10
124.854639
 20
238.709146
 30
0.0
 10
124.856011
 20
238.699389
 30
0.0
 10
124.858755
 20
238.679875
 30
0.0
 10
124.863111
 20
238.650639
 30
0.0
 10
124.867925
 20
238.621601
 30
0.0
 10
124.873423
 20
238.592811
 30
0.0
 10
124.879856
 20
238.564338
 30
0.0
 10
124.887485
 20
238.536238
 30
0.0
 10
124.896539
 20
238.508643
 30
0.0
 10
124.907184
 20
238.481711
 30
0.0
 10
124.919466
 20
238.455900
 30
0.0
 10
124.933454
 20
238.431403
 30
0.0
 10
124.948914
 20
238.408250
 30
0.0
 10
124.965946
 20
238.386108
 30
0.0
 10
124.984432
 20
238.365050
 30
0.0
 10
125.004307
 20
238.345174
 30
0.0
 10
125.025365
 20
238.326688
 30
0.0
 10
125.047507
 20
238.309657
 30
0.0
 10
125.070660
 20
238.294197
 30
0.0
 10
125.095156
 20
238.280209
 30
0.0
 10
125.120968
 20
238.267928
 30
0.0
 10
125.147900
 20
238.257283
 30
0.0
 10
125.175496
 20
238.248230
 30
0.0
 10
125.203596
 20
238.240601
 30
0.0
 10
125.232069
 20
238.234167
 30
0.0
 10
125.260860
 20
238.228669
 30
0.0
 10
125.289898
 20
238.223854
 30
0.0
 10
125.319134
 20
238.219497
 30
0.0
 10
125.338648
 20
238.216752
 30
0.0
 10
125.348405
 20
238.215380
 30
0.0
 11
124.854639
 21
238.709146
 31
0.0
 11
124.858795
 21
238.679880
 31
0.0
 11
124.863191
 21
238.650652
 31
0.0
 11
124.868065
 21
238.621497
 31
0.0
 11
124.873583
 21
238.592843
 31
0.0
 11
124.880058
 21
238.564391
 31
0.0
 11
124.887749
 21
238.536233
 31
0.0
 11
124.896809
 21
238.508738
 31
0.0
 11
124.907487
 21
238.481835
 31
0.0
 11
124.919952
 21
238.455733
 31
0.0
 11
124.933727
 21
238.431579
 31
0.0
 11
124.949165
 21
238.408433
 31
0.0
 11
124.966124
 21
238.386368
 31
0.0
 11
124.984655
 21
238.365257
 31
0.0
 11
125.004514
 21
238.345398
 31
0.0
 11
125.025625
 21
238.326865
 31
0.0
 11
125.047690
 21
238.309908
 31
0.0
 11
125.070836
 21
238.294470
 31
0.0
 11
125.094989
 21
238.280696
 31
0.0
 11
125.121091
 21
238.268231
 31
0.0
 11
125.147995
 21
238.257554
 31
0.0
 11
125.175490
 21
238.248494
 31
0.0
 11
125.203648
 21
238.240803
 31
0.0
 11
125.232102
 21
238.234327
 31
0.0
 11
125.260756
 21
238.228808
 31
0.0
 11
125.289911
 21
238.223933
 31
0.0
 11
125.319139
 21
238.219537
 31
0.0
 11
125.348405
 21
238.215380
 31
0.0
  0
LWPOLYLINE
  5
10b
100
AcDbEntity
  8
0
 62
1
100
AcDbPolyline
 90
2
 70
0
 10
125.348405
 20
238.215380
 30
0.0
 10
143.335573
 20
238.215380
 30
0.0
  0
SPLINE
  5
10c
100
AcDbEntity
  8
0
 62
1
100
AcDbSpline
 70
0
 71
3
 72
34
 73
30
 74
28
 40
0.000000
 40
0.000000
 40
0.000000
 40
0.000000
 40
0.029559
 40
0.059117
 40
0.088676
 40
0.117857
 40
0.147037
 40
0.176227
 40
0.205176
 40
0.234121
 40
0.263047
 40
0.290852
 40
0.318674
 40
0.346503
 40
0.374594
 40
0.402679
 40
0.430770
 40
0.458599
 40
0.486422
 40
0.514228
 40
0.543153
 40
0.572097
 40
0.601045
 40
0.630235
 40
0.659416
 40
0.688597
 40
0.718156
 40
0.747712
 40
0.777271
 40
0.777271
 40
0.777271
 40
0.777271
 10
143.335573
 20
238.215380
 30
0.0
 10
143.345330
 20
238.214008
 30
0.0
 10
143.364844
 20
238.211264
 30
0.0
 10
143.394080
 20
238.206909
 30
0.0
 10
143.423119
 20
238.202095
 30
0.0
 10
143.451909
 20
238.196597
 30
0.0
 10
143.480382
 20
238.190164
 30
0.0
 10
143.508482
 20
238.182534
 30
0.0
 10
143.536078
 20
238.173481
 30
0.0
 10
143.563010
 20
238.162836
 30
0.0
 10
143.588821
 20
238.150555
 30
0.0
 10
143.613318
 20
238.136567
 30
0.0
 10
143.636471
 20
238.121106
 30
0.0
 10
143.658612
 20
238.104075
 30
0.0
 10
143.679670
 20
238.085589
 30
0.0
 10
143.699546
 20
238.065713
 30
0.0
 10
143.718032
 20
238.044655
 30
0.0
 10
143.735064
 20
238.022513
 30
0.0
 10
143.750525
 20
237.999360
 30
0.0
 10
143.764513
 20
237.974863
 30
0.0
 10
143.776794
 20
237.949052
 30
0.0
 10
143.787437
 20
237.922120
 30
0.0
 10
143.796490
 20
237.894525
 30
0.0
 10
143.804119
 20
237.866425
 30
0.0
 10
143.810552
 20
237.837952
 30
0.0
 10
143.816051
 20
237.809161
 30
0.0
 10
143.820866
 20
237.780124
 30
0.0
 10
143.825222
 20
237.750888
 30
0.0
 10
143.827967
 20
237.731375
 30
0.0
 10
143.829339
 20
237.721618
 30
0.0
 11
143.335573
 21
238.215380
 31
0.0
 11
143.364839
 21
238.211224
 31
0.0
 11
143.394067
 21
238.206829
 31
0.0
 11
143.423222
 21
238.201955
 31
0.0
 11
143.451877
 21
238.196437
 31
0.0
 11
143.480329
 21
238.189962
 31
0.0
 11
143.508487
 21
238.182270
 31
0.0
 11
143.535983
 21
238.173211
 31
0.0
 11
143.562886
 21
238.162534
 31
0.0
 11
143.588989
 21
238.150068
 31
0.0
 11
143.613142
 21
238.136294
 31
0.0
 11
143.636288
 21
238.120855
 31
0.0
 11
143.658353
 21
238.103898
 31
0.0
 11
143.679463
 21
238.085366
 31
0.0
 11
143.699322
 21
238.065507
 31
0.0
 11
143.717854
 21
238.044396
 31
0.0
 11
143.734813
 21
238.022330
 31
0.0
 11
143.750252
 21
237.999184
 31
0.0
 11
143.764026
 21
237.975029
 31
0.0
 11
143.776491
 21
237.948928
 31
0.0
 11
143.787167
 21
237.922025
 31
0.0
 11
143.796226
 21
237.894530
 31
0.0
 11
143.803917
 21
237.866372
 31
0.0
 11
143.810393
 21
237.837919
 31
0.0
 11
143.815911
 21
237.809265
 31
0.0
 11
143.820786
 21
237.780111
 31
0.0
 11
143.825182
 21
237.750883
 31
0.0
 11
143.829339
 21
237.721618
 31
0.0
  0
LWPOLYLINE
  5
10d
100
AcDbEntity
  8
0
 62
1
100
AcDbPolyline
 90
2
 70
0
 10
143.829339
 20
237.721618
 30
0.0
 10
143.829339
 20
236.205050
 30
0.0
  0
SPLINE
  5
10e
100
AcDbEntity
  8
0
 62
1
100
AcDbSpline
 70
0
 71
3
 72
34
 73
30
 74
28
 40
0.000000
 40
0.000000
 40
0.000000
 40
0.000000
 40
0.029559
 40
0.059116
 40
0.088676
 40
0.117856
 40
0.147036
 40
0.176225
 40
0.205174
 40
0.234119
 40
0.263045
 40
0.290850
 40
0.318673
 40
0.346502
 40
0.374593
 40
0.402678
 40
0.430769
 40
0.458597
 40
0.486419
 40
0.514224
 40
0.543150
 40
0.572095
 40
0.601045
 40
0.630235
 40
0.659416
 40
0.688597
 40
0.718156
 40
0.747713
 40
0.777271
 40
0.777271
 40
0.777271
 40
0.777271
 10
143.829339
 20
236.205050
 30
0.0
 10
143.830711
 20
236.195293
 30
0.0
 10
143.833455
 20
236.175779
 30
0.0
 10
143.837811
 20
236.146543
 30
0.0
 10
143.842624
 20
236.117505
 30
0.0
 10
143.848122
 20
236.088714
 30
0.0
 10
143.854556
 20
236.060242
 30
0.0
 10
143.862184
 20
236.032142
 30
0.0
 10
143.871238
 20
236.004547
 30
0.0
 10
143.881883
 20
235.977615
 30
0.0
 10
143.894165
 20
235.951804
 30
0.0
 10
143.908153
 20
235.927307
 30
0.0
 10
143.923613
 20
235.904154
 30
0.0
 10
143.940645
 20
235.882012
 30
0.0
 10
143.959131
 20
235.860954
 30
0.0
 10
143.979007
 20
235.841078
 30
0.0
 10
144.000065
 20
235.822592
 30
0.0
 10
144.022206
 20
235.805561
 30
0.0
 10
144.045359
 20
235.790101
 30
0.0
 10
144.069856
 20
235.776113
 30
0.0
 10
144.095667
 20
235.763832
 30
0.0
 10
144.122599
 20
235.753187
 30
0.0
 10
144.150195
 20
235.744134
 30
0.0
 10
144.178296
 20
235.736505
 30
0.0
 10
144.206769
 20
235.730072
 30
0.0
 10
144.235560
 20
235.724573
 30
0.0
 10
144.264598
 20
235.719759
 30
0.0
 10
144.293834
 20
235.715403
 30
0.0
 10
144.313347
 20
235.712659
 30
0.0
 10
144.323104
 20
235.711287
 30
0.0
 11
143.829339
 21
236.205050
 31
0.0
 11
143.833495
 21
236.175784
 31
0.0
 11
143.837890
 21
236.146556
 31
0.0
 11
143.842764
 21
236.117401
 31
0.0
 11
143.848282
 21
236.088747
 31
0.0
 11
143.854757
 21
236.060294
 31
0.0
 11
143.862449
 21
236.032137
 31
0.0
 11
143.871508
 21
236.004642
 31
0.0
 11
143.882186
 21
235.977739
 31
0.0
 11
143.894651
 21
235.951637
 31
0.0
 11
143.908426
 21
235.927483
 31
0.0
 11
143.923865
 21
235.904337
 31
0.0
 11
143.940823
 21
235.882272
 31
0.0
 11
143.959355
 21
235.861160
 31
0.0
 11
143.979213
 21
235.841302
 31
0.0
 11
144.000324
 21
235.822770
 31
0.0
 11
144.022389
 21
235.805812
 31
0.0
 11
144.045535
 21
235.790374
 31
0.0
 11
144.069688
 21
235.776600
 31
0.0
 11
144.095791
 21
235.764135
 31
0.0
 11
144.122695
 21
235.753458
 31
0.0
 11
144.150190
 21
235.744398
 31
0.0
 11
144.178349
 21
235.736707
 31
0.0
 11
144.206802
 21
235.730231
 31
0.0
 11
144.235457
 21
235.724713
 31
0.0
 11
144.264611
 21
235.719839
 31
0.0
 11
144.293839
 21
235.715443
 31
0.0
 11
144.323104
 21
235.711287
 31
0.0
  0
LWPOLYLINE
  5
10f
100
AcDbEntity
  8
0
 62
1
100
AcDbPolyline
 90
2
 70
0
 10
144.323104
 20
235.711287
 30
0.0
 10
162.310273
 20
235.711287
 30
0.0
  0
SPLINE
  5
110
100
AcDbEntity
  8
0
 62
1
100
AcDbSpline
 70
0
 71
3
 72
34
 73
30
 74
28
 40
0.000000
 40
0.000000
 40
0.000000
 40
0.000000
 40
0.029559
 40
0.059116
 40
0.088675
 40
0.117856
 40
0.147037
 40
0.176226
 40
0.205175
 40
0.234120
 40
0.263045
 40
0.290851
 40
0.318674
 40
0.346503
 40
0.374594
 40
0.402678
 40
0.430769
 40
0.458598
 40
0.486421
 40
0.514227
 40
0.543152
 40
0.572096
 40
0.601044
 40
0.630234
 40
0.659414
 40
0.688595
 40
0.718155
 40
0.747713
 40
0.777273
 40
0.777273
 40
0.777273
 40
0.777273
 10
162.310273
 20
235.711287
 30
0.0
 10
162.320030
 20
235.709915
 30
0.0
 10
162.339543
 20
235.707171
 30
0.0
 10
162.368780
 20
235.702815
 30
0.0
 10
162.397818
 20
235.698001
 30
0.0
 10
162.426608
 20
235.692503
 30
0.0
 10
162.455081
 20
235.686069
 30
0.0
 10
162.483181
 20
235.678440
 30
0.0
 10
162.510777
 20
235.669386
 30
0.0
 10
162.537708
 20
235.658740
 30
0.0
 10
162.563519
 20
235.646458
 30
0.0
 10
162.588015
 20
235.632469
 30
0.0
 10
162.611169
 20
235.617009
 30
0.0
 10
162.633311
 20
235.599978
 30
0.0
 10
162.654369
 20
235.581492
 30
0.0
 10
162.674245
 20
235.561616
 30
0.0
 10
162.692731
 20
235.540558
 30
0.0
 10
162.709763
 20
235.518417
 30
0.0
 10
162.725224
 20
235.495264
 30
0.0
 10
162.739212
 20
235.470767
 30
0.0
 10
162.751493
 20
235.444956
 30
0.0
 10
162.762137
 20
235.418025
 30
0.0
 10
162.771189
 20
235.390429
 30
0.0
 10
162.778818
 20
235.362329
 30
0.0
 10
162.785251
 20
235.333856
 30
0.0
 10
162.790750
 20
235.305066
 30
0.0
 10
162.795565
 20
235.276027
 30
0.0
 10
162.799921
 20
235.246790
 30
0.0
 10
162.802666
 20
235.227276
 30
0.0
 10
162.804038
 20
235.217519
 30
0.0
 11
162.310273
 21
235.711287
 31
0.0
 11
162.339538
 21
235.707131
 31
0.0
 11
162.368766
 21
235.702735
 31
0.0
 11
162.397921
 21
235.697861
 31
0.0
 11
162.426576
 21
235.692343
 31
0.0
 11
162.455029
 21
235.685867
 31
0.0
 11
162.483186
 21
235.678176
 31
0.0
 11
162.510681
 21
235.669115
 31
0.0
 11
162.537584
 21
235.658437
 31
0.0
 11
162.563686
 21
235.645972
 31
0.0
 11
162.587840
 21
235.632197
 31
0.0
 11
162.610986
 21
235.616758
 31
0.0
 11
162.633051
 21
235.599800
 31
0.0
 11
162.654162
 21
235.581269
 31
0.0
 11
162.674021
 21
235.561410
 31
0.0
 11
162.692554
 21
235.540299
 31
0.0
 11
162.709512
 21
235.518234
 31
0.0
 11
162.724952
 21
235.495088
 31
0.0
 11
162.738726
 21
235.470934
 31
0.0
 11
162.751190
 21
235.444832
 31
0.0
 11
162.761866
 21
235.417929
 31
0.0
 11
162.770925
 21
235.390435
 31
0.0
 11
162.778616
 21
235.362277
 31
0.0
 11
162.785092
 21
235.333824
 31
0.0
 11
162.790610
 21
235.305169
 31
0.0
 11
162.795485
 21
235.276014
 31
0.0
 11
162.799881
 21
235.246785
 31
0.0
 11
162.804038
 21
235.217519
 31
0.0
  0
LWPOLYLINE
  5
111
100
AcDbEntity
  8
0
 62
1
100
AcDbPolyline
 90
4
 70
0
 10
162.804038
 20
235.217519
 30
0.0
 10
162.804038
 20
233.983105
 30
0.0
 10
162.804038
 20
217.724118
 30
0.0
 10
162.804038
 20
185.453021
 30
0.0
  0
SPLINE
  5
112
100
AcDbEntity
  8
0
 62
1
100
AcDbSpline
 70
0
 71
3
 72
34
 73
30
 74
28
 40
0.000000
 40
0.000000
 40
0.000000
 40
0.000000
 40
0.043544
 40
0.087088
 40
0.130633
 40
0.174088
 40
0.217543
 40
0.261000
 40
0.304403
 40
0.347805
 40
0.391204
 40
0.434210
 40
0.477220
 40
0.520230
 40
0.563317
 40
0.606402
 40
0.649489
 40
0.692519
 40
0.735549
 40
0.778576
 40
0.820682
 40
0.862791
 40
0.904901
 40
0.947039
 40
0.989175
 40
1.031311
 40
1.073514
 40
1.115717
 40
1.157920
 40
1.157920
 40
1.157920
 40
1.157920
 10
162.804038
 20
185.453021
 30
0.0
 10
162.807664
 20
185.438966
 30
0.0
 10
162.814915
 20
185.410857
 30
0.0
 10
162.825935
 20
185.368730
 30
0.0
 10
162.837234
 20
185.326708
 30
0.0
 10
162.848953
 20
185.284831
 30
0.0
 10
162.861234
 20
185.243145
 30
0.0
 10
162.874222
 20
185.201691
 30
0.0
 10
162.888056
 20
185.160529
 30
0.0
 10
162.902864
 20
185.119727
 30
0.0
 10
162.918736
 20
185.079467
 30
0.0
 10
162.935780
 20
185.039832
 30
0.0
 10
162.953955
 20
185.000845
 30
0.0
 10
162.973292
 20
184.962391
 30
0.0
 10
162.993764
 20
184.924501
 30
0.0
 10
163.015349
 20
184.887205
 30
0.0
 10
163.038002
 20
184.850569
 30
0.0
 10
163.061698
 20
184.814622
 30
0.0
 10
163.086416
 20
184.779393
 30
0.0
 10
163.111966
 20
184.745146
 30
0.0
 10
163.138303
 20
184.711894
 30
0.0
 10
163.165281
 20
184.679557
 30
0.0
 10
163.192978
 20
184.647823
 30
0.0
 10
163.221285
 20
184.616618
 30
0.0
 10
163.250090
 20
184.585863
 30
0.0
 10
163.279299
 20
184.555462
 30
0.0
 10
163.308811
 20
184.525324
 30
0.0
 10
163.338529
 20
184.495359
 30
0.0
 10
163.358404
 20
184.475445
 30
0.0
 10
163.368342
 20
184.465488
 30
0.0
 11
162.804038
 21
185.453021
 31
0.0
 11
162.814939
 21
185.410863
 31
0.0
 11
162.825983
 21
185.368743
 31
0.0
 11
162.837313
 21
185.326698
 31
0.0
 11
162.849048
 21
185.284858
 31
0.0
 11
162.861352
 21
185.243181
 31
0.0
 11
162.874369
 21
185.201720
 31
0.0
 11
162.888219
 21
185.160586
 31
0.0
 11
162.903050
 21
185.119796
 31
0.0
 11
162.918989
 21
185.079430
 31
0.0
 11
162.935976
 21
185.039921
 31
0.0
 11
162.954146
 21
185.000938
 31
0.0
 11
162.973467
 21
184.962512
 31
0.0
 11
162.993947
 21
184.924604
 31
0.0
 11
163.015528
 21
184.887312
 31
0.0
 11
163.038188
 21
184.850666
 31
0.0
 11
163.061871
 21
184.814738
 31
0.0
 11
163.086586
 21
184.779515
 31
0.0
 11
163.112315
 21
184.745028
 31
0.0
 11
163.138441
 21
184.712007
 31
0.0
 11
163.165399
 21
184.679659
 31
0.0
 11
163.193073
 21
184.647919
 31
0.0
 11
163.221367
 21
184.616694
 31
0.0
 11
163.250155
 21
184.585925
 31
0.0
 11
163.279332
 21
184.555525
 31
0.0
 11
163.308843
 21
184.525356
 31
0.0
 11
163.338545
 21
184.495375
 31
0.0
 11
163.368342
 21
184.465488
 31
0.0
  0
LWPOLYLINE
  5
113
100
AcDbEntity
  8
0
 62
1
100
AcDbPolyline
 90
2
 70
0
 10
163.368342
 20
184.465488
 30
0.0
 10
182.448848
 20
173.426304
 30
0.0
  0
SPLINE
  5
114
100
AcDbEntity
  8
0
 62
1
100
AcDbSpline
 70
0
 71
3
 72
34
 73
30
 74
28
 40
0.000000
 40
0.000000
 40
0.000000
 40
0.000000
 40
0.071145
 40
0.142287
 40
0.213432
 40
0.283970
 40
0.354508
 40
0.425060
 40
0.495299
 40
0.565531
 40
0.635734
 40
0.705308
 40
0.774913
 40
0.844528
 40
0.914568
 40
0.984597
 40
1.054640
 40
1.124065
 40
1.193478
 40
1.262852
 40
1.331852
 40
1.400885
 40
1.469927
 40
1.539459
 40
1.608976
 40
1.678493
 40
1.748736
 40
1.818976
 40
1.889220
 40
1.889220
 40
1.889220
 40
1.889220
 10
182.448848
 20
173.426304
 30
0.0
 10
182.465737
 20
173.409656
 30
0.0
 10
182.499514
 20
173.376360
 30
0.0
 10
182.549828
 20
173.326059
 30
0.0
 10
182.599289
 20
173.275198
 30
0.0
 10
182.647533
 20
173.223451
 30
0.0
 10
182.694150
 20
173.170490
 30
0.0
 10
182.738752
 20
173.115941
 30
0.0
 10
182.780860
 20
173.059565
 30
0.0
 10
182.820014
 20
173.001227
 30
0.0
 10
182.855649
 20
172.940922
 30
0.0
 10
182.887251
 20
172.878639
 30
0.0
 10
182.914862
 20
172.814705
 30
0.0
 10
182.938630
 20
172.749083
 30
0.0
 10
182.958529
 20
172.682038
 30
0.0
 10
182.974438
 20
172.613789
 30
0.0
 10
182.986189
 20
172.544910
 30
0.0
 10
182.993740
 20
172.475650
 30
0.0
 10
182.996950
 20
172.406273
 30
0.0
 10
182.995651
 20
172.336971
 30
0.0
 10
182.989674
 20
172.268045
 30
0.0
 10
182.979592
 20
172.199724
 30
0.0
 10
182.965899
 20
172.131862
 30
0.0
 10
182.949082
 20
172.064547
 30
0.0
 10
182.929688
 20
171.997771
 30
0.0
 10
182.908248
 20
171.931381
 30
0.0
 10
182.885291
 20
171.865248
 30
0.0
 10
182.861289
 20
171.799232
 30
0.0
 10
182.844968
 20
171.755340
 30
0.0
 10
182.836807
 20
171.733394
 30
0.0
 11
182.448848
 21
173.426304
 31
0.0
 11
182.499457
 21
173.376299
 31
0.0
 11
182.549709
 21
173.325942
 31
0.0
 11
182.599249
 21
173.274879
 31
0.0
 11
182.647284
 21
173.223225
 31
0.0
 11
182.693821
 21
173.170216
 31
0.0
 11
182.738411
 21
173.115541
 31
0.0
 11
182.780381
 21
173.059220
 31
0.0
 11
182.819451
 21
173.000860
 31
0.0
 11
182.855095
 21
172.940378
 31
0.0
 11
182.886597
 21
172.878344
 31
0.0
 11
182.914211
 21
172.814451
 31
0.0
 11
182.937933
 21
172.749003
 31
0.0
 11
182.957858
 21
172.681857
 31
0.0
 11
182.973750
 21
172.613655
 31
0.0
 11
182.985522
 21
172.544609
 31
0.0
 11
182.993021
 21
172.475589
 31
0.0
 11
182.996198
 21
172.406249
 31
0.0
 11
182.994864
 21
172.336888
 31
0.0
 11
182.988989
 21
172.268139
 31
0.0
 11
182.978996
 21
172.199833
 31
0.0
 11
182.965420
 21
172.132139
 31
0.0
 11
182.948657
 21
172.064657
 31
0.0
 11
182.929359
 21
171.997873
 31
0.0
 11
182.908085
 21
171.931691
 31
0.0
 11
182.885130
 21
171.865304
 31
0.0
 11
182.861210
 21
171.799263
 31
0.0
 11
182.836807
 21
171.733394
 31
0.0
  0
LWPOLYLINE
  5
115
100
AcDbEntity
  8
0
 62
1
100
AcDbPolyline
 90
3
 70
0
 10
182.836807
 20
171.733394
 30
0.0
 10
169.610947
 20
148.702764
 30
0.0
 10
169.610947
 20
148.667495
 30
0.0
  0
SPLINE
  5
116
100
AcDbEntity
  8
0
 62
1
100
AcDbSpline
 70
0
 71
3
 72
34
 73
30
 74
28
 40
0.000000
 40
0.000000
 40
0.000000
 40
0.000000
 40
0.051177
 40
0.102350
 40
0.153528
 40
0.204179
 40
0.254829
 40
0.305492
 40
0.355892
 40
0.406287
 40
0.456655
 40
0.505701
 40
0.554772
 40
0.603853
 40
0.653259
 40
0.702656
 40
0.752066
 40
0.800906
 40
0.849733
 40
0.898525
 40
0.948060
 40
0.997630
 40
1.047208
 40
1.097293
 40
1.147362
 40
1.197431
 40
1.248200
 40
1.298966
 40
1.349735
 40
1.349735
 40
1.349735
 40
1.349735
 10
169.610947
 20
148.667495
 30
0.0
 10
169.599037
 20
148.655282
 30
0.0
 10
169.575217
 20
148.630857
 30
0.0
 10
169.539203
 20
148.594496
 30
0.0
 10
169.502754
 20
148.558820
 30
0.0
 10
169.465614
 20
148.524113
 30
0.0
 10
169.427523
 20
148.490706
 30
0.0
 10
169.388178
 20
148.458908
 30
0.0
 10
169.347396
 20
148.429109
 30
0.0
 10
169.305095
 20
148.401677
 30
0.0
 10
169.261528
 20
148.377193
 30
0.0
 10
169.216751
 20
148.356011
 30
0.0
 10
169.171064
 20
148.338022
 30
0.0
 10
169.124198
 20
148.322987
 30
0.0
 10
169.076370
 20
148.310915
 30
0.0
 10
169.027759
 20
148.301910
 30
0.0
 10
168.978852
 20
148.296099
 30
0.0
 10
168.929858
 20
148.293511
 30
0.0
 10
168.881005
 20
148.294263
 30
0.0
 10
168.832094
 20
148.298541
 30
0.0
 10
168.783410
 20
148.306582
 30
0.0
 10
168.735144
 20
148.317985
 30
0.0
 10
168.687478
 20
148.332300
 30
0.0
 10
168.640470
 20
148.349131
 30
0.0
 10
168.594086
 20
148.368029
 30
0.0
 10
168.548158
 20
148.388564
 30
0.0
 10
168.502540
 20
148.410314
 30
0.0
 10
168.457077
 20
148.432912
 30
0.0
 10
168.426895
 20
148.448225
 30
0.0
 10
168.411803
 20
148.455881
 30
0.0
 11
169.610947
 21
148.667495
 31
0.0
 11
169.575169
 21
148.630903
 31
0.0
 11
169.539111
 21
148.594591
 31
0.0
 11
169.502491
 21
148.558840
 31
0.0
 11
169.465435
 21
148.524310
 31
0.0
 11
169.427306
 21
148.490968
 31
0.0
 11
169.387858
 21
148.459179
 31
0.0
 11
169.347128
 21
148.429493
 31
0.0
 11
169.304811
 21
148.402127
 31
0.0
 11
169.260870
 21
148.377507
 31
0.0
 11
169.216543
 21
148.356516
 31
0.0
 11
169.170890
 21
148.338522
 31
0.0
 11
169.124160
 21
148.323516
 31
0.0
 11
169.076254
 21
148.311430
 31
0.0
 11
169.027683
 21
148.302440
 31
0.0
 11
168.978616
 21
148.296618
 31
0.0
 11
168.929843
 21
148.294066
 31
0.0
 11
168.881022
 21
148.294848
 31
0.0
 11
168.832419
 21
148.299132
 31
0.0
 11
168.783534
 21
148.307133
 31
0.0
 11
168.735276
 21
148.318461
 31
0.0
 11
168.687774
 21
148.332658
 31
0.0
 11
168.640595
 21
148.349468
 31
0.0
 11
168.594197
 21
148.368286
 31
0.0
 11
168.548457
 21
148.388652
 31
0.0
 11
168.502600
 21
148.410439
 31
0.0
 11
168.457110
 21
148.432973
 31
0.0
 11
168.411803
 21
148.455881
 31
0.0
  0
LWPOLYLINE
  5
117
100
AcDbEntity
  8
0
 62
1
100
AcDbPolyline
 90
2
 70
0
 10
168.411803
 20
148.455881
 30
0.0
 10
153.669378
 20
156.955700
 30
0.0
  0
SPLINE
  5
118
100
AcDbEntity
  8
0
 62
1
100
AcDbSpline
 70
0
 71
3
 72
34
 73
30
 74
28
 40
0.000000
 40
0.000000
 40
0.000000
 40
0.000000
 40
0.011370
 40
0.022741
 40
0.034111
 40
0.045492
 40
0.056874
 40
0.068255
 40
0.079655
 40
0.091056
 40
0.102457
 40
0.112776
 40
0.123095
 40
0.133414
 40
0.143716
 40
0.154017
 40
0.164319
 40
0.174585
 40
0.184850
 40
0.195115
 40
0.205889
 40
0.216664
 40
0.227441
 40
0.238254
 40
0.249067
 40
0.259880
 40
0.270726
 40
0.281572
 40
0.292418
 40
0.292418
 40
0.292418
 40
0.292418
 10
153.669378
 20
156.955700
 30
0.0
 10
153.665805
 20
156.956965
 30
0.0
 10
153.658660
 20
156.959495
 30
0.0
 10
153.647941
 20
156.963288
 30
0.0
 10
153.637217
 20
156.967079
 30
0.0
 10
153.626488
 20
156.970867
 30
0.0
 10
153.615753
 20
156.974648
 30
0.0
 10
153.605009
 20
156.978422
 30
0.0
 10
153.594254
 20
156.982184
 30
0.0
 10
153.583488
 20
156.985934
 30
0.0
 10
153.573057
 20
156.989550
 30
0.0
 10
153.562961
 20
156.993032
 30
0.0
 10
153.553191
 20
156.996354
 30
0.0
 10
153.543402
 20
156.999602
 30
0.0
 10
153.533586
 20
157.002747
 30
0.0
 10
153.523734
 20
157.005759
 30
0.0
 10
153.513845
 20
157.008603
 30
0.0
 10
153.503913
 20
157.011249
 30
0.0
 10
153.493935
 20
157.013666
 30
0.0
 10
153.483733
 20
157.015863
 30
0.0
 10
153.473304
 20
157.017791
 30
0.0
 10
153.462658
 20
157.019466
 30
0.0
 10
153.451964
 20
157.020895
 30
0.0
 10
153.441231
 20
157.022112
 30
0.0
 10
153.430468
 20
157.023150
 30
0.0
 10
153.419681
 20
157.024045
 30
0.0
 10
153.408874
 20
157.024833
 30
0.0
 10
153.398052
 20
157.025550
 30
0.0
 10
153.390835
 20
157.026003
 30
0.0
 10
153.387227
 20
157.026230
 30
0.0
 11
153.669378
 21
156.955700
 31
0.0
 11
153.658660
 21
156.959495
 31
0.0
 11
153.647940
 21
156.963288
 31
0.0
 11
153.637220
 21
156.967077
 31
0.0
 11
153.626488
 21
156.970866
 31
0.0
 11
153.615753
 21
156.974646
 31
0.0
 11
153.605014
 21
156.978417
 31
0.0
 11
153.594253
 21
156.982181
 31
0.0
 11
153.583487
 21
156.985931
 31
0.0
 11
153.572715
 21
156.989665
 31
0.0
 11
153.562958
 21
156.993025
 31
0.0
 11
153.553187
 21
156.996342
 31
0.0
 11
153.543391
 21
156.999587
 31
0.0
 11
153.533579
 21
157.002725
 31
0.0
 11
153.523726
 21
157.005731
 31
0.0
 11
153.513824
 21
157.008574
 31
0.0
 11
153.503903
 21
157.011211
 31
0.0
 11
153.493925
 21
157.013624
 31
0.0
 11
153.483890
 21
157.015780
 31
0.0
 11
153.473296
 21
157.017744
 31
0.0
 11
153.462653
 21
157.019425
 31
0.0
 11
153.451972
 21
157.020858
 31
0.0
 11
153.441228
 21
157.022082
 31
0.0
 11
153.430465
 21
157.023126
 31
0.0
 11
153.419690
 21
157.024026
 31
0.0
 11
153.408873
 21
157.024821
 31
0.0
 11
153.398052
 21
157.025544
 31
0.0
 11
153.387227
 21
157.026230
 31
0.0
  0
LWPOLYLINE
  5
119
100
AcDbEntity
  8
0
 62
1
100
AcDbPolyline
 90
2
 70
0
 10
153.387227
 20
157.026238
 30
0.0
 10
116.601703
 20
162.492929
 30
0.0
  0
SPLINE
  5
11a
100
AcDbEntity
  8
0
 62
1
100
AcDbSpline
 70
0
 71
3
 72
34
 73
30
 74
28
 40
0.000000
 40
0.000000
 40
0.000000
 40
0.000000
 40
0.014808
 40
0.029616
 40
0.044424
 40
0.059148
 40
0.073871
 40
0.088596
 40
0.103231
 40
0.117865
 40
0.132495
 40
0.146485
 40
0.160478
 40
0.174473
 40
0.188553
 40
0.202632
 40
0.216710
 40
0.230828
 40
0.244946
 40
0.259064
 40
0.273194
 40
0.287324
 40
0.301454
 40
0.315540
 40
0.329627
 40
0.343713
 40
0.357782
 40
0.371850
 40
0.385919
 40
0.385919
 40
0.385919
 40
0.385919
 10
116.601703
 20
162.492929
 30
0.0
 10
116.596790
 20
162.493402
 30
0.0
 10
116.586963
 20
162.494348
 30
0.0
 10
116.572230
 20
162.495834
 30
0.0
 10
116.557538
 20
162.497453
 30
0.0
 10
116.542899
 20
162.499272
 30
0.0
 10
116.528322
 20
162.501359
 30
0.0
 10
116.513827
 20
162.503783
 30
0.0
 10
116.499435
 20
162.506609
 30
0.0
 10
116.485174
 20
162.509902
 30
0.0
 10
116.471255
 20
162.513676
 30
0.0
 10
116.457709
 20
162.517965
 30
0.0
 10
116.444535
 20
162.522686
 30
0.0
 10
116.431501
 20
162.527866
 30
0.0
 10
116.418608
 20
162.533457
 30
0.0
 10
116.405850
 20
162.539417
 30
0.0
 10
116.393234
 20
162.545697
 30
0.0
 10
116.380746
 20
162.552256
 30
0.0
 10
116.368374
 20
162.559057
 30
0.0
 10
116.356108
 20
162.566057
 30
0.0
 10
116.343932
 20
162.573220
 30
0.0
 10
116.331838
 20
162.580527
 30
0.0
 10
116.319834
 20
162.587952
 30
0.0
 10
116.307908
 20
162.595477
 30
0.0
 10
116.296051
 20
162.603083
 30
0.0
 10
116.284245
 20
162.610757
 30
0.0
 10
116.272479
 20
162.618479
 30
0.0
 10
116.260740
 20
162.626234
 30
0.0
 10
116.252922
 20
162.631415
 30
0.0
 10
116.249013
 20
162.634005
 30
0.0
 11
116.601703
 21
162.492929
 31
0.0
 11
116.586964
 21
162.494359
 31
0.0
 11
116.572232
 21
162.495857
 31
0.0
 11
116.557514
 21
162.497490
 31
0.0
 11
116.542905
 21
162.499317
 31
0.0
 11
116.528332
 21
162.501416
 31
0.0
 11
116.513810
 21
162.503856
 31
0.0
 11
116.499451
 21
162.506688
 31
0.0
 11
116.485195
 21
162.509992
 31
0.0
 11
116.471078
 21
162.513832
 31
0.0
 11
116.457739
 21
162.518047
 31
0.0
 11
116.444563
 21
162.522761
 31
0.0
 11
116.431555
 21
162.527921
 31
0.0
 11
116.418634
 21
162.533516
 31
0.0
 11
116.405876
 21
162.539469
 31
0.0
 11
116.393269
 21
162.545737
 31
0.0
 11
116.380768
 21
162.552296
 31
0.0
 11
116.368392
 21
162.559090
 31
0.0
 11
116.356127
 21
162.566082
 31
0.0
 11
116.343946
 21
162.573243
 31
0.0
 11
116.331851
 21
162.580548
 31
0.0
 11
116.319833
 21
162.587978
 31
0.0
 11
116.307918
 21
162.595492
 31
0.0
 11
116.296059
 21
162.603095
 31
0.0
 11
116.284246
 21
162.610769
 31
0.0
 11
116.272482
 21
162.618485
 31
0.0
 11
116.260742
 21
162.626237
 31
0.0
 11
116.249013
 21
162.634005
 31
0.0
  0
LWPOLYLINE
  5
11b
100
AcDbEntity
  8
0
 62
1
100
AcDbPolyline
 90
2
 70
0
 10
116.249013
 20
162.634003
 30
0.0
 10
105.703595
 20
177.094278
 30
0.0
  0
SPLINE
  5
11c
100
AcDbEntity
  8
0
 62
1
100
AcDbSpline
 70
0
 71
3
 72
34
 73
30
 74
28
 40
0.000000
 40
0.000000
 40
0.000000
 40
0.000000
 40
0.015182
 40
0.030363
 40
0.045544
 40
0.060659
 40
0.075774
 40
0.090891
 40
0.105961
 40
0.121030
 40
0.136096
 40
0.149821
 40
0.163547
 40
0.177274
 40
0.191048
 40
0.204822
 40
0.218596
 40
0.232350
 40
0.246104
 40
0.259857
 40
0.274439
 40
0.289023
 40
0.303608
 40
0.318205
 40
0.332800
 40
0.347396
 40
0.362028
 40
0.376660
 40
0.391292
 40
0.391292
 40
0.391292
 40
0.391292
 10
105.703595
 20
177.094278
 30
0.0
 10
105.699812
 20
177.097640
 30
0.0
 10
105.692247
 20
177.104363
 30
0.0
 10
105.680852
 20
177.114394
 30
0.0
 10
105.669380
 20
177.124304
 30
0.0
 10
105.657786
 20
177.134037
 30
0.0
 10
105.646027
 20
177.143536
 30
0.0
 10
105.634055
 20
177.152743
 30
0.0
 10
105.621835
 20
177.161592
 30
0.0
 10
105.609341
 20
177.170021
 30
0.0
 10
105.596915
 20
177.177733
 30
0.0
 10
105.584575
 20
177.184710
 30
0.0
 10
105.572376
 20
177.191007
 30
0.0
 10
105.559936
 20
177.196854
 30
0.0
 10
105.547276
 20
177.202250
 30
0.0
 10
105.534417
 20
177.207194
 30
0.0
 10
105.521397
 20
177.211677
 30
0.0
 10
105.508235
 20
177.215701
 30
0.0
 10
105.494948
 20
177.219264
 30
0.0
 10
105.481277
 20
177.222429
 30
0.0
 10
105.467230
 20
177.225158
 30
0.0
 10
105.452829
 20
177.227471
 30
0.0
 10
105.438363
 20
177.229371
 30
0.0
 10
105.423851
 20
177.230914
 30
0.0
 10
105.409308
 20
177.232158
 30
0.0
 10
105.394734
 20
177.233165
 30
0.0
 10
105.380138
 20
177.233995
 30
0.0
 10
105.365523
 20
177.234707
 30
0.0
 10
105.355778
 20
177.235142
 30
0.0
 10
105.350905
 20
177.235359
 30
0.0
 11
105.703595
 21
177.094278
 31
0.0
 11
105.692239
 21
177.104354
 31
0.0
 11
105.680837
 21
177.114376
 31
0.0
 11
105.669340
 21
177.124291
 31
0.0
 11
105.657756
 21
177.134001
 31
0.0
 11
105.645990
 21
177.143489
 31
0.0
 11
105.633999
 21
177.152694
 31
0.0
 11
105.621787
 21
177.161524
 31
0.0
 11
105.609288
 21
177.169942
 31
0.0
 11
105.596481
 21
177.177876
 31
0.0
 11
105.584535
 21
177.184633
 31
0.0
 11
105.572338
 21
177.190931
 31
0.0
 11
105.559916
 21
177.196772
 31
0.0
 11
105.547245
 21
177.202174
 31
0.0
 11
105.534389
 21
177.207117
 31
0.0
 11
105.521366
 21
177.211603
 31
0.0
 11
105.508213
 21
177.215625
 31
0.0
 11
105.494929
 21
177.219188
 31
0.0
 11
105.481530
 21
177.222289
 31
0.0
 11
105.467217
 21
177.225079
 31
0.0
 11
105.452819
 21
177.227402
 31
0.0
 11
105.438360
 21
177.229311
 31
0.0
 11
105.423846
 21
177.230864
 31
0.0
 11
105.409305
 21
177.232118
 31
0.0
 11
105.394744
 21
177.233135
 31
0.0
 11
105.380137
 21
177.233975
 31
0.0
 11
105.365522
 21
177.234697
 31
0.0
 11
105.350905
 21
177.235359
 31
0.0
  0
LWPOLYLINE
  5
11d
100
AcDbEntity
  8
0
 62
1
100
AcDbPolyline
 90
4
 70
0
 10
105.350905
 20
177.235351
 30
0.0
 10
50.366599
 20
177.235351
 30
0.0
 10
50.401868
 20
177.235351
 30
0.0
 10
50.401868
 20
177.235351
 30
0.0
  0
SPLINE
  5
11e
100
AcDbEntity
  8
0
 62
1
100
AcDbSpline
 70
0
 71
3
 72
34
 73
30
 74
28
 40
0.000000
 40
0.000000
 40
0.000000
 40
0.000000
 40
0.029559
 40
0.059116
 40
0.088675
 40
0.117856
 40
0.147037
 40
0.176226
 40
0.205176
 40
0.234121
 40
0.263047
 40
0.290853
 40
0.318675
 40
0.346504
 40
0.374595
 40
0.402679
 40
0.430770
 40
0.458599
 40
0.486421
 40
0.514227
 40
0.543152
 40
0.572096
 40
0.601045
 40
0.630234
 40
0.659415
 40
0.688596
 40
0.718156
 40
0.747713
 40
0.777273
 40
0.777273
 40
0.777273
 40
0.777273
 10
50.401868
 20
177.235351
 30
0.0
 10
50.392111
 20
177.236723
 30
0.0
 10
50.372598
 20
177.239468
 30
0.0
 10
50.343361
 20
177.243823
 30
0.0
 10
50.314323
 20
177.248638
 30
0.0
 10
50.285533
 20
177.254136
 30
0.0
 10
50.257060
 20
177.260569
 30
0.0
 10
50.228959
 20
177.268198
 30
0.0
 10
50.201364
 20
177.277252
 30
0.0
 10
50.174432
 20
177.287898
 30
0.0
 10
50.148621
 20
177.300180
 30
0.0
 10
50.124124
 20
177.314169
 30
0.0
 10
50.100971
 20
177.329629
 30
0.0
 10
50.078830
 20
177.346661
 30
0.0
 10
50.057772
 20
177.365147
 30
0.0
 10
50.037896
 20
177.385022
 30
0.0
 10
50.019409
 20
177.406080
 30
0.0
 10
50.002378
 20
177.428221
 30
0.0
 10
49.986917
 20
177.451374
 30
0.0
 10
49.972929
 20
177.475871
 30
0.0
 10
49.960648
 20
177.501682
 30
0.0
 10
49.950004
 20
177.528614
 30
0.0
 10
49.940952
 20
177.556209
 30
0.0
 10
49.933323
 20
177.584309
 30
0.0
 10
49.926890
 20
177.612782
 30
0.0
 10
49.921391
 20
177.641573
 30
0.0
 10
49.916577
 20
177.670611
 30
0.0
 10
49.912220
 20
177.699848
 30
0.0
 10
49.909475
 20
177.719362
 30
0.0
 10
49.908103
 20
177.729119
 30
0.0
 11
50.401868
 21
177.235351
 31
0.0
 11
50.372603
 21
177.239508
 31
0.0
 11
50.343375
 21
177.243903
 31
0.0
 11
50.314220
 21
177.248777
 31
0.0
 11
50.285565
 21
177.254295
 31
0.0
 11
50.257112
 21
177.260771
 31
0.0
 11
50.228955
 21
177.268462
 31
0.0
 11
50.201459
 21
177.277523
 31
0.0
 11
50.174555
 21
177.288201
 31
0.0
 11
50.148453
 21
177.300667
 31
0.0
 11
50.124300
 21
177.314441
 31
0.0
 11
50.101154
 21
177.329880
 31
0.0
 11
50.079089
 21
177.346839
 31
0.0
 11
50.057978
 21
177.365370
 31
0.0
 11
50.038120
 21
177.385229
 31
0.0
 11
50.019587
 21
177.406339
 31
0.0
 11
50.002629
 21
177.428404
 31
0.0
 11
49.987190
 21
177.451550
 31
0.0
 11
49.973415
 21
177.475704
 31
0.0
 11
49.960951
 21
177.501806
 31
0.0
 11
49.950274
 21
177.528709
 31
0.0
 11
49.941216
 21
177.556204
 31
0.0
 11
49.933525
 21
177.584362
 31
0.0
 11
49.927049
 21
177.612815
 31
0.0
 11
49.921531
 21
177.641469
 31
0.0
 11
49.916656
 21
177.670624
 31
0.0
 11
49.912260
 21
177.699853
 31
0.0
 11
49.908103
 21
177.729119
 31
0.0
  0
LWPOLYLINE
  5
11f
100
AcDbEntity
  8
0
 62
1
100
AcDbPolyline
 90
3
 70
0
 10
49.908103
 20
177.729119
 30
0.0
 10
49.908103
 20
200.618671
 30
0.0
 10
49.908103
 20
200.618671
 30
0.0
  0
SPLINE
  5
120
100
AcDbEntity
  8
0
 62
1
100
AcDbSpline
 70
0
 71
3
 72
61
 73
57
 74
55
 40
0.000000
 40
0.000000
 40
0.000000
 40
0.000000
 40
0.015066
 40
0.030132
 40
0.045198
 40
0.060330
 40
0.075461
 40
0.090592
 40
0.105863
 40
0.121134
 40
0.136404
 40
0.168139
 40
0.199879
 40
0.231622
 40
0.263104
 40
0.294582
 40
0.326055
 40
0.355908
 40
0.385764
 40
0.415634
 40
0.440312
 40
0.464975
 40
0.489656
 40
0.515801
 40
0.541947
 40
0.567908
 40
0.601708
 40
0.635810
 40
0.670875
 40
0.687520
 40
0.703694
 40
0.718608
 40
0.729320
 40
0.741015
 40
0.755961
 40
0.760147
 40
0.763541
 40
0.765030
 40
0.766649
 40
0.770709
 40
0.775573
 40
0.782334
 40
0.787778
 40
0.792854
 40
0.798948
 40
0.805453
 40
0.812061
 40
0.817893
 40
0.823632
 40
0.829346
 40
0.834448
 40
0.839571
 40
0.844700
 40
0.849501
 40
0.854296
 40
0.859088
 40
0.859088
 40
0.859088
 40
0.859088
 10
49.908103
 20
200.618671
 30
0.0
 10
49.905208
 20
200.622775
 30
0.0
 10
49.899418
 20
200.630982
 30
0.0
 10
49.890713
 20
200.643279
 30
0.0
 10
49.881957
 20
200.655566
 30
0.0
 10
49.873129
 20
200.667828
 30
0.0
 10
49.864210
 20
200.680052
 30
0.0
 10
49.855167
 20
200.692242
 30
0.0
 10
49.845981
 20
200.704383
 30
0.0
 10
49.836635
 20
200.716459
 30
0.0
 10
49.823729
 20
200.732719
 30
0.0
 10
49.806981
 20
200.752934
 30
0.0
 10
49.786147
 20
200.776882
 30
0.0
 10
49.764897
 20
200.800347
 30
0.0
 10
49.743342
 20
200.823411
 30
0.0
 10
49.721553
 20
200.846130
 30
0.0
 10
49.699914
 20
200.868237
 30
0.0
 10
49.678496
 20
200.889802
 30
0.0
 10
49.657408
 20
200.910943
 30
0.0
 10
49.637594
 20
200.930917
 30
0.0
 10
49.619132
 20
200.949793
 30
0.0
 10
49.601423
 20
200.966983
 30
0.0
 10
49.582354
 20
200.983439
 30
0.0
 10
49.561430
 20
200.998359
 30
0.0
 10
49.538822
 20
201.011446
 30
0.0
 10
49.512715
 20
201.023330
 30
0.0
 10
49.482791
 20
201.032785
 30
0.0
 10
49.448996
 20
201.039137
 30
0.0
 10
49.420477
 20
201.041734
 30
0.0
 10
49.397867
 20
201.042666
 30
0.0
 10
49.381963
 20
201.043057
 30
0.0
 10
49.368024
 20
201.043338
 30
0.0
 10
49.355612
 20
201.043748
 30
0.0
 10
49.343067
 20
201.043697
 30
0.0
 10
49.333126
 20
201.043156
 30
0.0
 10
49.325179
 20
201.042491
 30
0.0
 10
49.322883
 20
201.042315
 30
0.0
 10
49.319450
 20
201.041857
 30
0.0
 10
49.323376
 20
201.041677
 30
0.0
 10
49.325939
 20
201.041748
 30
0.0
 10
49.331574
 20
201.041761
 30
0.0
 10
49.337115
 20
201.041801
 30
0.0
 10
49.342911
 20
201.041800
 30
0.0
 10
49.348441
 20
201.041800
 30
0.0
 10
49.354335
 20
201.041824
 30
0.0
 10
49.360736
 20
201.041862
 30
0.0
 10
49.367052
 20
201.041899
 30
0.0
 10
49.373111
 20
201.041923
 30
0.0
 10
49.378873
 20
201.041938
 30
0.0
 10
49.384391
 20
201.041945
 30
0.0
 10
49.389704
 20
201.041946
 30
0.0
 10
49.394822
 20
201.041943
 30
0.0
 10
49.399839
 20
201.041936
 30
0.0
 10
49.404748
 20
201.041925
 30
0.0
 10
49.409544
 20
201.041912
 30
0.0
 10
49.412740
 20
201.041903
 30
0.0
 10
49.414337
 20
201.041898
 30
0.0
 11
49.908103
 21
200.618671
 31
0.0
 11
49.899415
 21
200.630980
 31
0.0
 11
49.890707
 21
200.643274
 31
0.0
 11
49.881960
 21
200.655541
 31
0.0
 11
49.873116
 21
200.667819
 31
0.0
 11
49.864194
 21
200.680040
 31
0.0
 11
49.855176
 21
200.692190
 31
0.0
 11
49.845959
 21
200.704366
 31
0.0
 11
49.836610
 21
200.716440
 31
0.0
 11
49.827114
 21
200.728399
 31
0.0
 11
49.806885
 21
200.752850
 31
0.0
 11
49.786069
 21
200.776811
 31
0.0
 11
49.764777
 21
200.800355
 31
0.0
 11
49.743292
 21
200.823365
 31
0.0
 11
49.721514
 21
200.846093
 31
0.0
 11
49.699508
 21
200.868595
 31
0.0
 11
49.678489
 21
200.889794
 31
0.0
 11
49.657421
 21
200.910949
 31
0.0
 11
49.636402
 21
200.932173
 31
0.0
 11
49.619052
 21
200.949721
 31
0.0
 11
49.601263
 21
200.966803
 31
0.0
 11
49.582494
 21
200.982831
 31
0.0
 11
49.561207
 21
200.998011
 31
0.0
 11
49.538572
 21
201.011097
 31
0.0
 11
49.514929
 21
201.021821
 31
0.0
 11
49.482729
 21
201.032098
 31
0.0
 11
49.449243
 21
201.038549
 31
0.0
 11
49.414338
 21
201.041898
 31
0.0
 11
49.397709
 21
201.042625
 31
0.0
 11
49.381541
 21
201.043055
 31
0.0
 11
49.366630
 21
201.043403
 31
0.0
 11
49.355922
 21
201.043674
 31
0.0
 11
49.344227
 21
201.043618
 31
0.0
 11
49.329302
 21
201.042827
 31
0.0
 11
49.325130
 21
201.042491
 31
0.0
 11
49.321752
 21
201.042158
 31
0.0
 11
49.320286
 21
201.041899
 31
0.0
 11
49.321898
 21
201.041753
 31
0.0
 11
49.325958
 21
201.041732
 31
0.0
 11
49.330822
 21
201.041762
 31
0.0
 11
49.337583
 21
201.041795
 31
0.0
 11
49.343027
 21
201.041800
 31
0.0
 11
49.348103
 21
201.041803
 31
0.0
 11
49.354198
 21
201.041825
 31
0.0
 11
49.360702
 21
201.041862
 31
0.0
 11
49.367310
 21
201.041898
 31
0.0
 11
49.373142
 21
201.041922
 31
0.0
 11
49.378881
 21
201.041937
 31
0.0
 11
49.384595
 21
201.041944
 31
0.0
 11
49.389697
 21
201.041946
 31
0.0
 11
49.394820
 21
201.041943
 31
0.0
 11
49.399949
 21
201.041935
 31
0.0
 11
49.404749
 21
201.041925
 31
0.0
 11
49.409545
 21
201.041912
 31
0.0
 11
49.414337
 21
201.041898
 31
0.0
  0
LWPOLYLINE
  5
121
100
AcDbEntity
  8
0
 62
1
100
AcDbPolyline
 90
2
 70
0
 10
49.414337
 20
201.041898
 30
0.0
 10
31.039210
 20
201.041898
 30
0.0
  0
SPLINE
  5
122
100
AcDbEntity
  8
0
 62
1
100
AcDbSpline
 70
0
 71
3
 72
34
 73
30
 74
28
 40
0.000000
 40
0.000000
 40
0.000000
 40
0.000000
 40
0.028362
 40
0.056723
 40
0.085086
 40
0.113302
 40
0.141517
 40
0.169737
 40
0.197984
 40
0.226231
 40
0.254471
 40
0.283985
 40
0.313512
 40
0.343042
 40
0.372615
 40
0.402184
 40
0.431764
 40
0.460833
 40
0.489893
 40
0.518925
 40
0.549793
 40
0.580693
 40
0.611603
 40
0.643050
 40
0.674483
 40
0.705916
 40
0.737971
 40
0.770024
 40
0.802079
 40
0.802079
 40
0.802079
 40
0.802079
 10
31.039210
 20
201.041898
 30
0.0
 10
31.029845
 20
201.043190
 30
0.0
 10
31.011114
 20
201.045773
 30
0.0
 10
30.983044
 20
201.049835
 30
0.0
 10
30.955079
 20
201.054268
 30
0.0
 10
30.927255
 20
201.059252
 30
0.0
 10
30.899621
 20
201.064983
 30
0.0
 10
30.872189
 20
201.071664
 30
0.0
 10
30.845046
 20
201.079485
 30
0.0
 10
30.818296
 20
201.088589
 30
0.0
 10
30.791678
 20
201.099273
 30
0.0
 10
30.765374
 20
201.111751
 30
0.0
 10
30.739514
 20
201.126034
 30
0.0
 10
30.714559
 20
201.141880
 30
0.0
 10
30.690601
 20
201.159223
 30
0.0
 10
30.667771
 20
201.178054
 30
0.0
 10
30.646347
 20
201.198229
 30
0.0
 10
30.626448
 20
201.219680
 30
0.0
 10
30.608246
 20
201.242359
 30
0.0
 10
30.591500
 20
201.266871
 30
0.0
 10
30.576602
 20
201.293259
 30
0.0
 10
30.563533
 20
201.321280
 30
0.0
 10
30.552313
 20
201.350292
 30
0.0
 10
30.542762
 20
201.380077
 30
0.0
 10
30.534621
 20
201.410452
 30
0.0
 10
30.527579
 20
201.441304
 30
0.0
 10
30.521329
 20
201.472535
 30
0.0
 10
30.515610
 20
201.504076
 30
0.0
 10
30.511987
 20
201.525136
 30
0.0
 10
30.510176
 20
201.535666
 30
0.0
 11
31.039210
 21
201.041898
 31
0.0
 11
31.011118
 21
201.045804
 31
0.0
 11
30.983054
 21
201.049898
 31
0.0
 11
30.955046
 21
201.054369
 31
0.0
 11
30.927278
 21
201.059378
 31
0.0
 11
30.899658
 21
201.065140
 31
0.0
 11
30.872248
 21
201.071851
 31
0.0
 11
30.845112
 21
201.079699
 31
0.0
 11
30.818381
 21
201.088827
 31
0.0
 11
30.792185
 21
201.099373
 31
0.0
 11
30.765516
 21
201.112019
 31
0.0
 11
30.739669
 21
201.126292
 31
0.0
 11
30.714739
 21
201.142121
 31
0.0
 11
30.690790
 21
201.159470
 31
0.0
 11
30.667988
 21
201.178295
 31
0.0
 11
30.646461
 21
201.198582
 31
0.0
 11
30.626708
 21
201.219909
 31
0.0
 11
30.608540
 21
201.242589
 31
0.0
 11
30.592185
 21
201.266577
 31
0.0
 11
30.576963
 21
201.293430
 31
0.0
 11
30.563854
 21
201.321412
 31
0.0
 11
30.552661
 21
201.350224
 31
0.0
 11
30.543005
 21
201.380152
 31
0.0
 11
30.534812
 21
201.410498
 31
0.0
 11
30.527762
 21
201.441130
 31
0.0
 11
30.521424
 21
201.472553
 31
0.0
 11
30.515658
 21
201.504083
 31
0.0
 11
30.510176
 21
201.535666
 31
0.0
  0
LWPOLYLINE
  5
123
100
AcDbEntity
  8
0
 62
1
100
AcDbPolyline
 90
2
 70
0
 10
30.510176
 20
201.535666
 30
0.0
 10
30.545445
 20
218.993801
 30
0.0
  0
SPLINE
  5
124
100
AcDbEntity
  8
0
 62
1
100
AcDbSpline
 70
0
 71
3
 72
34
 73
30
 74
28
 40
0.000000
 40
0.000000
 40
0.000000
 40
0.000000
 40
0.031449
 40
0.062897
 40
0.094347
 40
0.125269
 40
0.156190
 40
0.187123
 40
0.217682
 40
0.248233
 40
0.278755
 40
0.305898
 40
0.333058
 40
0.360225
 40
0.387708
 40
0.415184
 40
0.442666
 40
0.469914
 40
0.497156
 40
0.524381
 40
0.553102
 40
0.581842
 40
0.610587
 40
0.639555
 40
0.668515
 40
0.697474
 40
0.726811
 40
0.756146
 40
0.785483
 40
0.785483
 40
0.785483
 40
0.785483
 10
30.545445
 20
218.993801
 30
0.0
 10
30.546637
 20
219.004216
 30
0.0
 10
30.549021
 20
219.025046
 30
0.0
 10
30.552880
 20
219.056258
 30
0.0
 10
30.557281
 20
219.087223
 30
0.0
 10
30.562484
 20
219.117887
 30
0.0
 10
30.568793
 20
219.148172
 30
0.0
 10
30.576523
 20
219.178005
 30
0.0
 10
30.585942
 20
219.207226
 30
0.0
 10
30.597237
 20
219.235632
 30
0.0
 10
30.610161
 20
219.262083
 30
0.0
 10
30.624606
 20
219.286420
 30
0.0
 10
30.640130
 20
219.308729
 30
0.0
 10
30.657220
 20
219.330006
 30
0.0
 10
30.675749
 20
219.350185
 30
0.0
 10
30.695644
 20
219.369171
 30
0.0
 10
30.716680
 20
219.386761
 30
0.0
 10
30.738755
 20
219.402896
 30
0.0
 10
30.761793
 20
219.417468
 30
0.0
 10
30.786231
 20
219.430623
 30
0.0
 10
30.812048
 20
219.442106
 30
0.0
 10
30.839063
 20
219.451957
 30
0.0
 10
30.866699
 20
219.460180
 30
0.0
 10
30.894798
 20
219.466945
 30
0.0
 10
30.923232
 20
219.472489
 30
0.0
 10
30.951957
 20
219.477077
 30
0.0
 10
30.980909
 20
219.480967
 30
0.0
 10
31.010046
 20
219.484387
 30
0.0
 10
31.029489
 20
219.486504
 30
0.0
 10
31.039210
 20
219.487563
 30
0.0
 11
30.545445
 21
218.993801
 31
0.0
 11
30.549068
 21
219.025041
 31
0.0
 11
30.552975
 21
219.056245
 31
0.0
 11
30.557446
 21
219.087376
 31
0.0
 11
30.562673
 21
219.117853
 31
0.0
 11
30.569034
 21
219.148112
 31
0.0
 11
30.576845
 21
219.178043
 31
0.0
 11
30.586263
 21
219.207114
 31
0.0
 11
30.597596
 21
219.235486
 31
0.0
 11
30.611040
 21
219.262887
 31
0.0
 11
30.624877
 21
219.286238
 31
0.0
 11
30.640378
 21
219.308541
 31
0.0
 11
30.657380
 21
219.329730
 31
0.0
 11
30.675966
 21
219.349975
 31
0.0
 11
30.695842
 21
219.368945
 31
0.0
 11
30.716925
 21
219.386574
 31
0.0
 11
30.738929
 21
219.402645
 31
0.0
 11
30.761959
 21
219.417196
 31
0.0
 11
30.785938
 21
219.430088
 31
0.0
 11
30.812164
 21
219.441797
 31
0.0
 11
30.839152
 21
219.451681
 31
0.0
 11
30.866692
 21
219.459914
 31
0.0
 11
30.894845
 21
219.466739
 31
0.0
 11
30.923260
 21
219.472326
 31
0.0
 11
30.951850
 21
219.476939
 31
0.0
 11
30.980920
 21
219.480886
 31
0.0
 11
31.010050
 21
219.484346
 31
0.0
 11
31.039210
 21
219.487563
 31
0.0
  0
LWPOLYLINE
  5
125
100
AcDbEntity
  8
0
 62
1
100
AcDbPolyline
 90
2
 70
0
 10
31.039210
 20
219.487563
 30
0.0
 10
49.520144
 20
219.487563
 30
0.0
  0
SPLINE
  5
126
100
AcDbEntity
  8
0
 62
1
100
AcDbSpline
 70
0
 71
3
 72
34
 73
30
 74
28
 40
0.000000
 40
0.000000
 40
0.000000
 40
0.000000
 40
0.026190
 40
0.052377
 40
0.078568
 40
0.104287
 40
0.130005
 40
0.155733
 40
0.181191
 40
0.206643
 40
0.232066
 40
0.251766
 40
0.271474
 40
0.291186
 40
0.311039
 40
0.330889
 40
0.350746
 40
0.370307
 40
0.389861
 40
0.409398
 40
0.430216
 40
0.451055
 40
0.471900
 40
0.493057
 40
0.514204
 40
0.535352
 40
0.556901
 40
0.578447
 40
0.599995
 40
0.599995
 40
0.599995
 40
0.599995
 10
49.520144
 20
219.487563
 30
0.0
 10
49.528859
 20
219.488070
 30
0.0
 10
49.546289
 20
219.489083
 30
0.0
 10
49.572419
 20
219.490859
 30
0.0
 10
49.598354
 20
219.493135
 30
0.0
 10
49.624059
 20
219.496149
 30
0.0
 10
49.649472
 20
219.500180
 30
0.0
 10
49.674559
 20
219.505522
 30
0.0
 10
49.699174
 20
219.512430
 30
0.0
 10
49.723135
 20
219.521062
 30
0.0
 10
49.744569
 20
219.530835
 30
0.0
 10
49.763447
 20
219.541390
 30
0.0
 10
49.779958
 20
219.552175
 30
0.0
 10
49.795756
 20
219.564063
 30
0.0
 10
49.810789
 20
219.576979
 30
0.0
 10
49.824968
 20
219.590897
 30
0.0
 10
49.838107
 20
219.605671
 30
0.0
 10
49.850137
 20
219.621237
 30
0.0
 10
49.860950
 20
219.637548
 30
0.0
 10
49.870672
 20
219.655017
 30
0.0
 10
49.879039
 20
219.673647
 30
0.0
 10
49.886071
 20
219.693277
 30
0.0
 10
49.891779
 20
219.713446
 30
0.0
 10
49.896296
 20
219.734016
 30
0.0
 10
49.899813
 20
219.754879
 30
0.0
 10
49.902550
 20
219.775988
 30
0.0
 10
49.904722
 20
219.797293
 30
0.0
 10
49.906511
 20
219.818767
 30
0.0
 10
49.907572
 20
219.833093
 30
0.0
 10
49.908103
 20
219.840256
 30
0.0
 11
49.520144
 21
219.487563
 31
0.0
 11
49.546287
 21
219.489126
 31
0.0
 11
49.572411
 21
219.490945
 31
0.0
 11
49.598499
 21
219.493277
 31
0.0
 11
49.624036
 21
219.496322
 31
0.0
 11
49.649428
 21
219.500401
 31
0.0
 11
49.674582
 21
219.505808
 31
0.0
 11
49.699083
 21
219.512722
 31
0.0
 11
49.723015
 21
219.521388
 31
0.0
 11
49.746128
 21
219.531976
 31
0.0
 11
49.763327
 21
219.541582
 31
0.0
 11
49.779831
 21
219.552353
 31
0.0
 11
49.795586
 21
219.564200
 31
0.0
 11
49.810641
 21
219.577141
 31
0.0
 11
49.824804
 21
219.591050
 31
0.0
 11
49.837995
 21
219.605891
 31
0.0
 11
49.849946
 21
219.621377
 31
0.0
 11
49.860737
 21
219.637685
 31
0.0
 11
49.870222
 21
219.654765
 31
0.0
 11
49.878784
 21
219.673740
 31
0.0
 11
49.885845
 21
219.693347
 31
0.0
 11
49.891551
 21
219.713395
 31
0.0
 11
49.896127
 21
219.734052
 31
0.0
 11
49.899680
 21
219.754898
 31
0.0
 11
49.902438
 21
219.775866
 31
0.0
 11
49.904656
 21
219.797300
 31
0.0
 11
49.906478
 21
219.818769
 31
0.0
 11
49.908103
 21
219.840256
 31
0.0
  0
SPLINE
  5
127
100
AcDbEntity
  8
0
 62
1
100
AcDbSpline
 70
0
 71
3
 72
34
 73
30
 74
28
 40
0.000000
 40
0.000000
 40
0.000000
 40
0.000000
 40
0.029707
 40
0.059411
 40
0.089117
 40
0.118427
 40
0.147738
 40
0.177057
 40
0.206066
 40
0.235070
 40
0.264054
 40
0.291953
 40
0.319870
 40
0.347792
 40
0.376042
 40
0.404285
 40
0.432532
 40
0.460689
 40
0.488842
 40
0.516983
 40
0.540038
 40
0.563096
 40
0.586154
 40
0.609203
 40
0.632249
 40
0.655296
 40
0.678427
 40
0.701556
 40
0.724687
 40
0.724687
 40
0.724687
 40
0.724687
 10
49.908103
 20
232.960308
 30
0.0
 10
49.910105
 20
232.970006
 30
0.0
 10
49.914108
 20
232.989401
 30
0.0
 10
49.920341
 20
233.018446
 30
0.0
 10
49.927001
 20
233.047261
 30
0.0
 10
49.934301
 20
233.075788
 30
0.0
 10
49.942479
 20
233.103944
 30
0.0
 10
49.951778
 20
233.131648
 30
0.0
 10
49.962408
 20
233.158763
 30
0.0
 10
49.974530
 20
233.185127
 30
0.0
 10
49.988181
 20
233.210320
 30
0.0
 10
50.003433
 20
233.234147
 30
0.0
 10
50.020045
 20
233.256602
 30
0.0
 10
50.038137
 20
233.278036
 30
0.0
 10
50.057585
 20
233.298395
 30
0.0
 10
50.078308
 20
233.317615
 30
0.0
 10
50.100106
 20
233.335555
 30
0.0
 10
50.122883
 20
233.352185
 30
0.0
 10
50.146563
 20
233.367437
 30
0.0
 10
50.169624
 20
233.380423
 30
0.0
 10
50.191834
 20
233.391367
 30
0.0
 10
50.212954
 20
233.400635
 30
0.0
 10
50.234416
 20
233.409069
 30
0.0
 10
50.256147
 20
233.416769
 30
0.0
 10
50.278082
 20
233.423853
 30
0.0
 10
50.300194
 20
233.430452
 30
0.0
 10
50.322439
 20
233.436690
 30
0.0
 10
50.344778
 20
233.442688
 30
0.0
 10
50.359692
 20
233.446604
 30
0.0
 10
50.367150
 20
233.448562
 30
0.0
 11
49.908103
 21
232.960308
 31
0.0
 11
49.914146
 21
232.989393
 31
0.0
 11
49.920417
 21
233.018428
 31
0.0
 11
49.927144
 21
233.047363
 31
0.0
 11
49.934452
 21
233.075747
 31
0.0
 11
49.942670
 21
233.103882
 31
0.0
 11
49.952041
 21
233.131663
 31
0.0
 11
49.962664
 21
233.158657
 31
0.0
 11
49.974817
 21
233.184992
 31
0.0
 11
49.988663
 21
233.210456
 31
0.0
 11
50.003688
 21
233.233963
 31
0.0
 11
50.020278
 21
233.256416
 31
0.0
 11
50.038278
 21
233.277762
 31
0.0
 11
50.057787
 21
233.298194
 31
0.0
 11
50.078490
 21
233.317404
 31
0.0
 11
50.100297
 21
233.335359
 31
0.0
 11
50.123039
 21
233.351960
 31
0.0
 11
50.146710
 21
233.367201
 31
0.0
 11
50.171233
 21
233.381004
 31
0.0
 11
50.191905
 21
233.391212
 31
0.0
 11
50.213011
 21
233.400496
 31
0.0
 11
50.234465
 21
233.408948
 31
0.0
 11
50.256182
 21
233.416667
 31
0.0
 11
50.278107
 21
233.423771
 31
0.0
 11
50.300185
 21
233.430383
 31
0.0
 11
50.322450
 21
233.436649
 31
0.0
 11
50.344783
 21
233.442667
 31
0.0
 11
50.367150
 21
233.448562
 31
0.0
  0
SPLINE
  5
128
100
AcDbEntity
  8
0
 62
1
100
AcDbSpline
 70
0
 71
3
 72
115
 73
111
 74
109
 40
0.000000
 40
0.000000
 40
0.000000
 40
0.000000
 40
0.064633
 40
0.129261
 40
0.193893
 40
0.257521
 40
0.321150
 40
0.384801
 40
0.447513
 40
0.510211
 40
0.572863
 40
0.634544
 40
0.696272
 40
0.758016
 40
0.820780
 40
0.883528
 40
0.946273
 40
1.009458
 40
1.072643
 40
1.135831
 40
1.200244
 40
1.264655
 40
1.329066
 40
1.393048
 40
1.457031
 40
1.521016
 40
1.584809
 40
1.648600
 40
1.712383
 40
1.776317
 40
1.840259
 40
1.904203
 40
1.968334
 40
2.032462
 40
2.096592
 40
2.160737
 40
2.224880
 40
2.289017
 40
2.351484
 40
2.413953
 40
2.476424
 40
2.538859
 40
2.601292
 40
2.663727
 40
2.726167
 40
2.788606
 40
2.851043
 40
2.915118
 40
2.979198
 40
3.043280
 40
3.107381
 40
3.171480
 40
3.235581
 40
3.299623
 40
3.363663
 40
3.427696
 40
3.491729
 40
3.555768
 40
3.619810
 40
3.683911
 40
3.748009
 40
3.812109
 40
3.876192
 40
3.940273
 40
4.004348
 40
4.066785
 40
4.129223
 40
4.191662
 40
4.254097
 40
4.316531
 40
4.378966
 40
4.441437
 40
4.503906
 40
4.566373
 40
4.630510
 40
4.694653
 40
4.758798
 40
4.822929
 40
4.887056
 40
4.951188
 40
5.015132
 40
5.079074
 40
5.143008
 40
5.206792
 40
5.270582
 40
5.334375
 40
5.398360
 40
5.462342
 40
5.526324
 40
5.590735
 40
5.655146
 40
5.719559
 40
5.782748
 40
5.845933
 40
5.909117
 40
5.971864
 40
6.034611
 40
6.097376
 40
6.159120
 40
6.220848
 40
6.282529
 40
6.345181
 40
6.407879
 40
6.470590
 40
6.534242
 40
6.597871
 40
6.661500
 40
6.726133
 40
6.790761
 40
6.855394
 40
6.855394
 40
6.855394
 40
6.855394
 10
143.265036
 20
218.464766
 30
0.0
 10
143.268423
 20
218.486042
 30
0.0
 10
143.275198
 20
218.528593
 30
0.0
 10
143.285864
 20
218.592340
 30
0.0
 10
143.297476
 20
218.655583
 30
0.0
 10
143.310503
 20
218.718213
 30
0.0
 10
143.325478
 20
218.780077
 30
0.0
 10
143.342930
 20
218.840979
 30
0.0
 10
143.363321
 20
218.900642
 30
0.0
 10
143.387021
 20
218.958719
 30
0.0
 10
143.414413
 20
219.014785
 30
0.0
 10
143.445790
 20
219.068348
 30
0.0
 10
143.480682
 20
219.119314
 30
0.0
 10
143.519097
 20
219.168133
 30
0.0
 10
143.560753
 20
219.214673
 30
0.0
 10
143.605421
 20
219.258803
 30
0.0
 10
143.652712
 20
219.300317
 30
0.0
 10
143.702398
 20
219.339167
 30
0.0
 10
143.754311
 20
219.375246
 30
0.0
 10
143.808496
 20
219.408599
 30
0.0
 10
143.864815
 20
219.439080
 30
0.0
 10
143.923131
 20
219.466512
 30
0.0
 10
143.982778
 20
219.490533
 30
0.0
 10
144.043566
 20
219.511061
 30
0.0
 10
144.105297
 20
219.528024
 30
0.0
 10
144.167850
 20
219.541353
 30
0.0
 10
144.231017
 20
219.550962
 30
0.0
 10
144.294578
 20
219.556786
 30
0.0
 10
144.358423
 20
219.558758
 30
0.0
 10
144.422320
 20
219.556789
 30
0.0
 10
144.486031
 20
219.550958
 30
0.0
 10
144.549349
 20
219.541350
 30
0.0
 10
144.612056
 20
219.528041
 30
0.0
 10
144.673942
 20
219.511091
 30
0.0
 10
144.734749
 20
219.490588
 30
0.0
 10
144.794273
 20
219.466603
 30
0.0
 10
144.852306
 20
219.439198
 30
0.0
 10
144.908140
 20
219.408701
 30
0.0
 10
144.961611
 20
219.375275
 30
0.0
 10
145.012627
 20
219.339164
 30
0.0
 10
145.061503
 20
219.300223
 30
0.0
 10
145.108093
 20
219.258593
 30
0.0
 10
145.152259
 20
219.214417
 30
0.0
 10
145.193873
 20
219.167827
 30
0.0
 10
145.232796
 20
219.118963
 30
0.0
 10
145.268889
 20
219.067973
 30
0.0
 10
145.302300
 20
219.014541
 30
0.0
 10
145.332790
 20
218.958762
 30
0.0
 10
145.360192
 20
218.900797
 30
0.0
 10
145.384182
 20
218.841330
 30
0.0
 10
145.404691
 20
218.780568
 30
0.0
 10
145.421644
 20
218.718713
 30
0.0
 10
145.434960
 20
218.655994
 30
0.0
 10
145.444569
 20
218.592620
 30
0.0
 10
145.450398
 20
218.528809
 30
0.0
 10
145.452368
 20
218.464764
 30
0.0
 10
145.450398
 20
218.400719
 30
0.0
 10
145.444569
 20
218.336909
 30
0.0
 10
145.434960
 20
218.273535
 30
0.0
 10
145.421644
 20
218.210817
 30
0.0
 10
145.404691
 20
218.148962
 30
0.0
 10
145.384182
 20
218.088200
 30
0.0
 10
145.360192
 20
218.028733
 30
0.0
 10
145.332790
 20
217.970768
 30
0.0
 10
145.302300
 20
217.914989
 30
0.0
 10
145.268889
 20
217.861557
 30
0.0
 10
145.232796
 20
217.810567
 30
0.0
 10
145.193873
 20
217.761703
 30
0.0
 10
145.152259
 20
217.715113
 30
0.0
 10
145.108093
 20
217.670937
 30
0.0
 10
145.061503
 20
217.629307
 30
0.0
 10
145.012627
 20
217.590366
 30
0.0
 10
144.961611
 20
217.554255
 30
0.0
 10
144.908140
 20
217.520830
 30
0.0
 10
144.852306
 20
217.490332
 30
0.0
 10
144.794274
 20
217.462927
 30
0.0
 10
144.734749
 20
217.438942
 30
0.0
 10
144.673943
 20
217.418438
 30
0.0
 10
144.612056
 20
217.401488
 30
0.0
 10
144.549349
 20
217.388178
 30
0.0
 10
144.486031
 20
217.378570
 30
0.0
 10
144.422319
 20
217.372739
 30
0.0
 10
144.358423
 20
217.370769
 30
0.0
 10
144.294577
 20
217.372742
 30
0.0
 10
144.231016
 20
217.378566
 30
0.0
 10
144.167850
 20
217.388175
 30
0.0
 10
144.105297
 20
217.401505
 30
0.0
 10
144.043567
 20
217.418467
 30
0.0
 10
143.982779
 20
217.438995
 30
0.0
 10
143.923132
 20
217.463017
 30
0.0
 10
143.864815
 20
217.490448
 30
0.0
 10
143.808497
 20
217.520929
 30
0.0
 10
143.754311
 20
217.554282
 30
0.0
 10
143.702398
 20
217.590361
 30
0.0
 10
143.652712
 20
217.629211
 30
0.0
 10
143.605421
 20
217.670726
 30
0.0
 10
143.560753
 20
217.714856
 30
0.0
 10
143.519097
 20
217.761396
 30
0.0
 10
143.480682
 20
217.810216
 30
0.0
 10
143.445790
 20
217.861182
 30
0.0
 10
143.414413
 20
217.914745
 30
0.0
 10
143.387021
 20
217.970811
 30
0.0
 10
143.363321
 20
218.028888
 30
0.0
 10
143.342930
 20
218.088551
 30
0.0
 10
143.325478
 20
218.149453
 30
0.0
 10
143.310504
 20
218.211317
 30
0.0
 10
143.297475
 20
218.273948
 30
0.0
 10
143.285864
 20
218.337192
 30
0.0
 10
143.275198
 20
218.400938
 30
0.0
 10
143.268423
 20
218.443490
 30
0.0
 10
143.265036
 20
218.464766
 30
0.0
 11
143.265036
 21
218.464766
 31
0.0
 11
143.275282
 21
218.528581
 31
0.0
 11
143.286031
 21
218.592309
 31
0.0
 11
143.297786
 21
218.655863
 31
0.0
 11
143.310839
 21
218.718139
 31
0.0
 11
143.325903
 21
218.779959
 31
0.0
 11
143.343529
 21
218.841121
 31
0.0
 11
143.363892
 21
218.900434
 31
0.0
 11
143.387668
 21
218.958449
 31
0.0
 11
143.415256
 21
219.014700
 31
0.0
 11
143.446393
 21
219.067946
 31
0.0
 11
143.481229
 21
219.118904
 31
0.0
 11
143.519382
 21
219.167449
 31
0.0
 11
143.561222
 21
219.214234
 31
0.0
 11
143.605841
 21
219.258352
 31
0.0
 11
143.652980
 21
219.299764
 31
0.0
 11
143.702750
 21
219.338690
 31
0.0
 11
143.754631
 21
219.374756
 31
0.0
 11
143.808439
 21
219.407882
 31
0.0
 11
143.865088
 21
219.438540
 31
0.0
 11
143.923375
 21
219.465952
 31
0.0
 11
143.983125
 21
219.490009
 31
0.0
 11
144.043746
 21
219.510474
 31
0.0
 11
144.105444
 21
219.527420
 31
0.0
 11
144.168026
 21
219.540746
 31
0.0
 11
144.231094
 21
219.550333
 31
0.0
 11
144.294620
 21
219.556144
 31
0.0
 11
144.358373
 21
219.558101
 31
0.0
 11
144.422277
 21
219.556146
 31
0.0
 11
144.485954
 21
219.550330
 31
0.0
 11
144.549176
 21
219.540746
 31
0.0
 11
144.611910
 21
219.527436
 31
0.0
 11
144.673761
 21
219.510499
 31
0.0
 11
144.734530
 21
219.490010
 31
0.0
 11
144.794025
 21
219.466033
 31
0.0
 11
144.852023
 21
219.438637
 31
0.0
 11
144.908307
 21
219.407884
 31
0.0
 11
144.961280
 21
219.374779
 31
0.0
 11
145.012272
 21
219.338691
 31
0.0
 11
145.061132
 21
219.299766
 31
0.0
 11
145.107690
 21
219.258167
 31
0.0
 11
145.151833
 21
219.214015
 31
0.0
 11
145.193423
 21
219.167449
 31
0.0
 11
145.232324
 21
219.118609
 31
0.0
 11
145.268394
 21
219.067642
 31
0.0
 11
145.301491
 21
219.014700
 31
0.0
 11
145.332231
 21
218.958479
 31
0.0
 11
145.359623
 21
218.900549
 31
0.0
 11
145.383599
 21
218.841121
 31
0.0
 11
145.404098
 21
218.780386
 31
0.0
 11
145.421038
 21
218.718567
 31
0.0
 11
145.434346
 21
218.655862
 31
0.0
 11
145.443940
 21
218.592542
 31
0.0
 11
145.449755
 21
218.528767
 31
0.0
 11
145.451711
 21
218.464764
 31
0.0
 11
145.449755
 21
218.400761
 31
0.0
 11
145.443940
 21
218.336986
 31
0.0
 11
145.434346
 21
218.273667
 31
0.0
 11
145.421038
 21
218.210963
 31
0.0
 11
145.404098
 21
218.149144
 31
0.0
 11
145.383600
 21
218.088410
 31
0.0
 11
145.359623
 21
218.028981
 31
0.0
 11
145.332231
 21
217.971050
 31
0.0
 11
145.301491
 21
217.914830
 31
0.0
 11
145.268394
 21
217.861887
 31
0.0
 11
145.232324
 21
217.810921
 31
0.0
 11
145.193423
 21
217.762081
 31
0.0
 11
145.151833
 21
217.715515
 31
0.0
 11
145.107690
 21
217.671363
 31
0.0
 11
145.061132
 21
217.629764
 31
0.0
 11
145.012272
 21
217.590839
 31
0.0
 11
144.961280
 21
217.554751
 31
0.0
 11
144.908307
 21
217.521646
 31
0.0
 11
144.852023
 21
217.490893
 31
0.0
 11
144.794025
 21
217.463497
 31
0.0
 11
144.734530
 21
217.439520
 31
0.0
 11
144.673761
 21
217.419030
 31
0.0
 11
144.611910
 21
217.402093
 31
0.0
 11
144.549176
 21
217.388782
 31
0.0
 11
144.485954
 21
217.379197
 31
0.0
 11
144.422277
 21
217.373382
 31
0.0
 11
144.358373
 21
217.371426
 31
0.0
 11
144.294619
 21
217.373384
 31
0.0
 11
144.231094
 21
217.379195
 31
0.0
 11
144.168026
 21
217.388782
 31
0.0
 11
144.105444
 21
217.402108
 31
0.0
 11
144.043746
 21
217.419054
 31
0.0
 11
143.983126
 21
217.439520
 31
0.0
 11
143.923376
 21
217.463576
 31
0.0
 11
143.865089
 21
217.490988
 31
0.0
 11
143.808440
 21
217.521646
 31
0.0
 11
143.754631
 21
217.554773
 31
0.0
 11
143.702750
 21
217.590838
 31
0.0
 11
143.652980
 21
217.629764
 31
0.0
 11
143.605841
 21
217.671177
 31
0.0
 11
143.561222
 21
217.715295
 31
0.0
 11
143.519382
 21
217.762080
 31
0.0
 11
143.481229
 21
217.810625
 31
0.0
 11
143.446393
 21
217.861584
 31
0.0
 11
143.415256
 21
217.914830
 31
0.0
 11
143.387668
 21
217.971080
 31
0.0
 11
143.363892
 21
218.029095
 31
0.0
 11
143.343529
 21
218.088409
 31
0.0
 11
143.325903
 21
218.149571
 31
0.0
 11
143.310839
 21
218.211392
 31
0.0
 11
143.297786
 21
218.273668
 31
0.0
 11
143.286031
 21
218.337222
 31
0.0
 11
143.275282
 21
218.400950
 31
0.0
 11
143.265036
 21
218.464766
 31
0.0
  0
SPLINE
  5
129
100
AcDbEntity
  8
0
 62
1
100
AcDbSpline
 70
0
 71
3
 72
115
 73
111
 74
109
 40
0.000000
 40
0.000000
 40
0.000000
 40
0.000000
 40
0.064633
 40
0.129262
 40
0.193894
 40
0.257523
 40
0.321153
 40
0.384804
 40
0.447516
 40
0.510213
 40
0.572865
 40
0.634547
 40
0.696275
 40
0.758019
 40
0.820783
 40
0.883530
 40
0.946276
 40
1.009461
 40
1.072645
 40
1.135833
 40
1.200246
 40
1.264658
 40
1.329069
 40
1.393051
 40
1.457034
 40
1.521018
 40
1.584811
 40
1.648602
 40
1.712386
 40
1.776320
 40
1.840262
 40
1.904206
 40
1.968337
 40
2.032465
 40
2.096595
 40
2.160740
 40
2.224883
 40
2.289021
 40
2.351487
 40
2.413956
 40
2.476427
 40
2.538862
 40
2.601295
 40
2.663730
 40
2.726170
 40
2.788609
 40
2.851046
 40
2.915121
 40
2.979201
 40
3.043284
 40
3.107385
 40
3.171483
 40
3.235585
 40
3.299627
 40
3.363667
 40
3.427700
 40
3.491733
 40
3.555773
 40
3.619814
 40
3.683915
 40
3.748014
 40
3.812114
 40
3.876197
 40
3.940277
 40
4.004352
 40
4.066789
 40
4.129227
 40
4.191667
 40
4.254102
 40
4.316536
 40
4.378971
 40
4.441441
 40
4.503910
 40
4.566377
 40
4.630515
 40
4.694658
 40
4.758804
 40
4.822934
 40
4.887062
 40
4.951193
 40
5.015137
 40
5.079078
 40
5.143012
 40
5.206796
 40
5.270587
 40
5.334380
 40
5.398365
 40
5.462348
 40
5.526330
 40
5.590740
 40
5.655151
 40
5.719563
 40
5.782752
 40
5.845936
 40
5.909121
 40
5.971867
 40
6.034615
 40
6.097380
 40
6.159124
 40
6.220852
 40
6.282534
 40
6.345186
 40
6.407883
 40
6.470595
 40
6.534246
 40
6.597875
 40
6.661504
 40
6.726136
 40
6.790764
 40
6.855396
 40
6.855396
 40
6.855396
 40
6.855396
 10
67.260430
 20
214.832061
 30
0.0
 10
67.263818
 20
214.853337
 30
0.0
 10
67.270592
 20
214.895889
 30
0.0
 10
67.281259
 20
214.959635
 30
0.0
 10
67.292871
 20
215.022879
 30
0.0
 10
67.305898
 20
215.085510
 30
0.0
 10
67.320873
 20
215.147374
 30
0.0
 10
67.338325
 20
215.208276
 30
0.0
 10
67.358715
 20
215.267939
 30
0.0
 10
67.382416
 20
215.326016
 30
0.0
 10
67.409808
 20
215.382082
 30
0.0
 10
67.441185
 20
215.435645
 30
0.0
 10
67.476077
 20
215.486611
 30
0.0
 10
67.514492
 20
215.535431
 30
0.0
 10
67.556148
 20
215.581971
 30
0.0
 10
67.600816
 20
215.626101
 30
0.0
 10
67.648106
 20
215.667615
 30
0.0
 10
67.697792
 20
215.706466
 30
0.0
 10
67.749704
 20
215.742546
 30
0.0
 10
67.803889
 20
215.775899
 30
0.0
 10
67.860207
 20
215.806380
 30
0.0
 10
67.918524
 20
215.833810
 30
0.0
 10
67.978172
 20
215.857832
 30
0.0
 10
68.038960
 20
215.878359
 30
0.0
 10
68.100691
 20
215.895322
 30
0.0
 10
68.163243
 20
215.908652
 30
0.0
 10
68.226410
 20
215.918259
 30
0.0
 10
68.289972
 20
215.924083
 30
0.0
 10
68.353817
 20
215.926056
 30
0.0
 10
68.417714
 20
215.924086
 30
0.0
 10
68.481425
 20
215.918255
 30
0.0
 10
68.544743
 20
215.908647
 30
0.0
 10
68.607450
 20
215.895338
 30
0.0
 10
68.669337
 20
215.878388
 30
0.0
 10
68.730143
 20
215.857884
 30
0.0
 10
68.789668
 20
215.833900
 30
0.0
 10
68.847701
 20
215.806495
 30
0.0
 10
68.903534
 20
215.775998
 30
0.0
 10
68.957006
 20
215.742572
 30
0.0
 10
69.008022
 20
215.706462
 30
0.0
 10
69.056897
 20
215.667521
 30
0.0
 10
69.103487
 20
215.625891
 30
0.0
 10
69.147653
 20
215.581715
 30
0.0
 10
69.189268
 20
215.535125
 30
0.0
 10
69.228191
 20
215.486261
 30
0.0
 10
69.264284
 20
215.435270
 30
0.0
 10
69.297695
 20
215.381838
 30
0.0
 10
69.328185
 20
215.326060
 30
0.0
 10
69.355587
 20
215.268095
 30
0.0
 10
69.379577
 20
215.208628
 30
0.0
 10
69.400086
 20
215.147866
 30
0.0
 10
69.417039
 20
215.086010
 30
0.0
 10
69.430355
 20
215.023291
 30
0.0
 10
69.439964
 20
214.959917
 30
0.0
 10
69.445793
 20
214.896106
 30
0.0
 10
69.447763
 20
214.832061
 30
0.0
 10
69.445793
 20
214.768016
 30
0.0
 10
69.439964
 20
214.704206
 30
0.0
 10
69.430355
 20
214.640832
 30
0.0
 10
69.417039
 20
214.578113
 30
0.0
 10
69.400086
 20
214.516258
 30
0.0
 10
69.379577
 20
214.455496
 30
0.0
 10
69.355587
 20
214.396029
 30
0.0
 10
69.328185
 20
214.338064
 30
0.0
 10
69.297695
 20
214.282286
 30
0.0
 10
69.264284
 20
214.228854
 30
0.0
 10
69.228191
 20
214.177864
 30
0.0
 10
69.189268
 20
214.129000
 30
0.0
 10
69.147654
 20
214.082410
 30
0.0
 10
69.103487
 20
214.038234
 30
0.0
 10
69.056897
 20
213.996604
 30
0.0
 10
69.008022
 20
213.957663
 30
0.0
 10
68.957006
 20
213.921552
 30
0.0
 10
68.903535
 20
213.888126
 30
0.0
 10
68.847701
 20
213.857629
 30
0.0
 10
68.789668
 20
213.830224
 30
0.0
 10
68.730143
 20
213.806239
 30
0.0
 10
68.669336
 20
213.785735
 30
0.0
 10
68.607450
 20
213.768785
 30
0.0
 10
68.544743
 20
213.755475
 30
0.0
 10
68.481425
 20
213.745867
 30
0.0
 10
68.417714
 20
213.740036
 30
0.0
 10
68.353818
 20
213.738066
 30
0.0
 10
68.289972
 20
213.740039
 30
0.0
 10
68.226410
 20
213.745863
 30
0.0
 10
68.163243
 20
213.755472
 30
0.0
 10
68.100691
 20
213.768802
 30
0.0
 10
68.038960
 20
213.785765
 30
0.0
 10
67.978173
 20
213.806293
 30
0.0
 10
67.918526
 20
213.830315
 30
0.0
 10
67.860209
 20
213.857745
 30
0.0
 10
67.803891
 20
213.888226
 30
0.0
 10
67.749706
 20
213.921579
 30
0.0
 10
67.697793
 20
213.957658
 30
0.0
 10
67.648107
 20
213.996508
 30
0.0
 10
67.600816
 20
214.038023
 30
0.0
 10
67.556148
 20
214.082153
 30
0.0
 10
67.514492
 20
214.128693
 30
0.0
 10
67.476077
 20
214.177513
 30
0.0
 10
67.441185
 20
214.228479
 30
0.0
 10
67.409808
 20
214.282043
 30
0.0
 10
67.382416
 20
214.338108
 30
0.0
 10
67.358715
 20
214.396185
 30
0.0
 10
67.338325
 20
214.455848
 30
0.0
 10
67.320873
 20
214.516750
 30
0.0
 10
67.305898
 20
214.578614
 30
0.0
 10
67.292871
 20
214.641245
 30
0.0
 10
67.281259
 20
214.704488
 30
0.0
 10
67.270593
 20
214.768234
 30
0.0
 10
67.263818
 20
214.810785
 30
0.0
 10
67.260430
 20
214.832061
 30
0.0
 11
67.260430
 21
214.832061
 31
0.0
 11
67.270677
 21
214.895876
 31
0.0
 11
67.281426
 21
214.959605
 31
0.0
 11
67.293181
 21
215.023159
 31
0.0
 11
67.306234
 21
215.085435
 31
0.0
 11
67.321298
 21
215.147256
 31
0.0
 11
67.338924
 21
215.208418
 31
0.0
 11
67.359287
 21
215.267732
 31
0.0
 11
67.383062
 21
215.325747
 31
0.0
 11
67.410650
 21
215.381997
 31
0.0
 11
67.441788
 21
215.435243
 31
0.0
 11
67.476624
 21
215.486202
 31
0.0
 11
67.514777
 21
215.534747
 31
0.0
 11
67.556617
 21
215.581532
 31
0.0
 11
67.601235
 21
215.625650
 31
0.0
 11
67.648374
 21
215.667062
 31
0.0
 11
67.698143
 21
215.705989
 31
0.0
 11
67.750023
 21
215.742055
 31
0.0
 11
67.803832
 21
215.775182
 31
0.0
 11
67.860481
 21
215.805839
 31
0.0
 11
67.918768
 21
215.833251
 31
0.0
 11
67.978519
 21
215.857307
 31
0.0
 11
68.039140
 21
215.877772
 31
0.0
 11
68.100837
 21
215.894718
 31
0.0
 11
68.163419
 21
215.908045
 31
0.0
 11
68.226488
 21
215.917631
 31
0.0
 11
68.290014
 21
215.923441
 31
0.0
 11
68.353767
 21
215.925399
 31
0.0
 11
68.417672
 21
215.923443
 31
0.0
 11
68.481348
 21
215.917627
 31
0.0
 11
68.544570
 21
215.908043
 31
0.0
 11
68.607304
 21
215.894733
 31
0.0
 11
68.669155
 21
215.877796
 31
0.0
 11
68.729924
 21
215.857306
 31
0.0
 11
68.789420
 21
215.833330
 31
0.0
 11
68.847418
 21
215.805934
 31
0.0
 11
68.903702
 21
215.775182
 31
0.0
 11
68.956675
 21
215.742076
 31
0.0
 11
69.007666
 21
215.705989
 31
0.0
 11
69.056526
 21
215.667064
 31
0.0
 11
69.103085
 21
215.625465
 31
0.0
 11
69.147228
 21
215.581313
 31
0.0
 11
69.188818
 21
215.534747
 31
0.0
 11
69.227719
 21
215.485906
 31
0.0
 11
69.263789
 21
215.434940
 31
0.0
 11
69.296886
 21
215.381997
 31
0.0
 11
69.327626
 21
215.325777
 31
0.0
 11
69.355018
 21
215.267846
 31
0.0
 11
69.378994
 21
215.208419
 31
0.0
 11
69.399493
 21
215.147684
 31
0.0
 11
69.416433
 21
215.085864
 31
0.0
 11
69.429741
 21
215.023159
 31
0.0
 11
69.439335
 21
214.959840
 31
0.0
 11
69.445150
 21
214.896064
 31
0.0
 11
69.447106
 21
214.832061
 31
0.0
 11
69.445150
 21
214.768058
 31
0.0
 11
69.439335
 21
214.704283
 31
0.0
 11
69.429741
 21
214.640964
 31
0.0
 11
69.416433
 21
214.578259
 31
0.0
 11
69.399493
 21
214.516440
 31
0.0
 11
69.378994
 21
214.455705
 31
0.0
 11
69.355018
 21
214.396278
 31
0.0
 11
69.327626
 21
214.338347
 31
0.0
 11
69.296886
 21
214.282127
 31
0.0
 11
69.263789
 21
214.229185
 31
0.0
 11
69.227719
 21
214.178218
 31
0.0
 11
69.188818
 21
214.129378
 31
0.0
 11
69.147228
 21
214.082812
 31
0.0
 11
69.103085
 21
214.038660
 31
0.0
 11
69.056526
 21
213.997061
 31
0.0
 11
69.007666
 21
213.958136
 31
0.0
 11
68.956675
 21
213.922048
 31
0.0
 11
68.903702
 21
213.888943
 31
0.0
 11
68.847418
 21
213.858190
 31
0.0
 11
68.789420
 21
213.830794
 31
0.0
 11
68.729923
 21
213.806817
 31
0.0
 11
68.669155
 21
213.786327
 31
0.0
 11
68.607304
 21
213.769389
 31
0.0
 11
68.544569
 21
213.756079
 31
0.0
 11
68.481348
 21
213.746495
 31
0.0
 11
68.417672
 21
213.740679
 31
0.0
 11
68.353768
 21
213.738723
 31
0.0
 11
68.290014
 21
213.740681
 31
0.0
 11
68.226488
 21
213.746492
 31
0.0
 11
68.163419
 21
213.756079
 31
0.0
 11
68.100837
 21
213.769406
 31
0.0
 11
68.039140
 21
213.786352
 31
0.0
 11
67.978519
 21
213.806817
 31
0.0
 11
67.918770
 21
213.830874
 31
0.0
 11
67.860483
 21
213.858286
 31
0.0
 11
67.803834
 21
213.888943
 31
0.0
 11
67.750025
 21
213.922070
 31
0.0
 11
67.698145
 21
213.958135
 31
0.0
 11
67.648375
 21
213.997061
 31
0.0
 11
67.601236
 21
214.038474
 31
0.0
 11
67.556617
 21
214.082592
 31
0.0
 11
67.514777
 21
214.129378
 31
0.0
 11
67.476624
 21
214.177923
 31
0.0
 11
67.441788
 21
214.228882
 31
0.0
 11
67.410650
 21
214.282127
 31
0.0
 11
67.383062
 21
214.338378
 31
0.0
 11
67.359287
 21
214.396393
 31
0.0
 11
67.338924
 21
214.455706
 31
0.0
 11
67.321298
 21
214.516868
 31
0.0
 11
67.306234
 21
214.578688
 31
0.0
 11
67.293181
 21
214.640964
 31
0.0
 11
67.281426
 21
214.704518
 31
0.0
 11
67.270677
 21
214.768246
 31
0.0
 11
67.260430
 21
214.832061
 31
0.0
  0
LWPOLYLINE
  5
12a
100
AcDbEntity
  8
0
 62
1
100
AcDbPolyline
 90
2
 70
0
 10
49.908103
 20
219.840256
 30
0.0
 10
49.908103
 20
232.960308
 30
0.0
  0
LWPOLYLINE
  5
12b
100
AcDbEntity
  8
0
 62
1
100
AcDbPolyline
 90
2
 70
0
 10
50.367150
 20
233.448562
 30
0.0
 10
87.363737
 20
233.454066
 30
0.0
  0
LWPOLYLINE
  5
12c
100
AcDbEntity
  8
0
 62
1
100
AcDbPolyline
 90
4
 70
1
 10
51.884397
 20
231.336701
 30
0.0
 10
65.883703
 20
231.336701
 30
0.0
 10
65.883703
 20
217.337395
 30
0.0
 10
51.884397
 20
217.337395
 30
0.0
  0
LWPOLYLINE
  5
12d
100
AcDbEntity
  8
0
 62
1
100
AcDbPolyline
 90
4
 70
1
 10
51.884397
 20
212.361998
 30
0.0
 10
65.883703
 20
212.361998
 30
0.0
 10
65.883703
 20
198.362690
 30
0.0
 10
51.884397
 20
198.362690
 30
0.0
  0
LWPOLYLINE
  5
12e
100
AcDbEntity
  8
0
 62
1
100
AcDbPolyline
 90
4
 70
1
 10
51.884397
 20
193.352032
 30
0.0
 10
65.883703
 20
193.352032
 30
0.0
 10
65.883703
 20
179.352725
 30
0.0
 10
51.884397
 20
179.352725
 30
0.0
  0
LWPOLYLINE
  5
12f
100
AcDbEntity
  8
0
 62
1
100
AcDbPolyline
 90
4
 70
1
 10
70.859100
 20
231.336701
 30
0.0
 10
84.858408
 20
231.336701
 30
0.0
 10
84.858408
 20
217.337395
 30
0.0
 10
70.859100
 20
217.337395
 30
0.0
  0
LWPOLYLINE
  5
130
100
AcDbEntity
  8
0
 62
1
100
AcDbPolyline
 90
4
 70
1
 10
70.859100
 20
212.361998
 30
0.0
 10
84.858408
 20
212.361998
 30
0.0
 10
84.858408
 20
198.362690
 30
0.0
 10
70.859100
 20
198.362690
 30
0.0
  0
LWPOLYLINE
  5
131
100
AcDbEntity
  8
0
 62
1
100
AcDbPolyline
 90
4
 70
1
 10
70.859100
 20
193.352032
 30
0.0
 10
84.858408
 20
193.352032
 30
0.0
 10
84.858408
 20
179.352725
 30
0.0
 10
70.859100
 20
179.352725
 30
0.0
  0
LWPOLYLINE
  5
132
100
AcDbEntity
  8
0
 62
1
100
AcDbPolyline
 90
4
 70
1
 10
89.869066
 20
236.098013
 30
0.0
 10
103.868371
 20
236.098013
 30
0.0
 10
103.868371
 20
222.098705
 30
0.0
 10
89.869066
 20
222.098705
 30
0.0
  0
LWPOLYLINE
  5
133
100
AcDbEntity
  8
0
 62
1
100
AcDbPolyline
 90
4
 70
1
 10
89.869066
 20
217.088039
 30
0.0
 10
103.868371
 20
217.088039
 30
0.0
 10
103.868371
 20
203.088733
 30
0.0
 10
89.869066
 20
203.088733
 30
0.0
  0
LWPOLYLINE
  5
134
100
AcDbEntity
  8
0
 62
1
100
AcDbPolyline
 90
4
 70
1
 10
89.869066
 20
198.113342
 30
0.0
 10
103.868371
 20
198.113342
 30
0.0
 10
103.868371
 20
184.114037
 30
0.0
 10
89.869066
 20
184.114037
 30
0.0
  0
LWPOLYLINE
  5
135
100
AcDbEntity
  8
0
 62
1
100
AcDbPolyline
 90
4
 70
1
 10
108.843768
 20
238.461027
 30
0.0
 10
122.843076
 20
238.461027
 30
0.0
 10
122.843076
 20
224.461722
 30
0.0
 10
108.843768
 20
224.461722
 30
0.0
  0
LWPOLYLINE
  5
136
100
AcDbEntity
  8
0
 62
1
100
AcDbPolyline
 90
4
 70
1
 10
108.843768
 20
219.486331
 30
0.0
 10
122.843076
 20
219.486331
 30
0.0
 10
122.843076
 20
205.487025
 30
0.0
 10
108.843768
 20
205.487025
 30
0.0
  0
LWPOLYLINE
  5
137
100
AcDbEntity
  8
0
 62
1
100
AcDbPolyline
 90
4
 70
1
 10
108.843768
 20
200.476359
 30
0.0
 10
122.843076
 20
200.476359
 30
0.0
 10
122.843076
 20
186.477051
 30
0.0
 10
108.843768
 20
186.477051
 30
0.0
  0
LWPOLYLINE
  5
138
100
AcDbEntity
  8
0
 62
1
100
AcDbPolyline
 90
4
 70
1
 10
127.853736
 20
236.098013
 30
0.0
 10
141.853044
 20
236.098013
 30
0.0
 10
141.853044
 20
222.098705
 30
0.0
 10
127.853736
 20
222.098705
 30
0.0
  0
LWPOLYLINE
  5
139
100
AcDbEntity
  8
0
 62
1
100
AcDbPolyline
 90
4
 70
1
 10
127.853736
 20
217.088039
 30
0.0
 10
141.853044
 20
217.088039
 30
0.0
 10
141.853044
 20
203.088733
 30
0.0
 10
127.853736
 20
203.088733
 30
0.0
  0
LWPOLYLINE
  5
13a
100
AcDbEntity
  8
0
 62
1
100
AcDbPolyline
 90
4
 70
1
 10
127.853736
 20
198.113342
 30
0.0
 10
141.853044
 20
198.113342
 30
0.0
 10
141.853044
 20
184.114037
 30
0.0
 10
127.853736
 20
184.114037
 30
0.0
  0
LWPOLYLINE
  5
13b
100
AcDbEntity
  8
0
 62
1
100
AcDbPolyline
 90
4
 70
1
 10
146.863702
 20
233.734990
 30
0.0
 10
160.863013
 20
233.734990
 30
0.0
 10
160.863013
 20
219.735682
 30
0.0
 10
146.863702
 20
219.735682
 30
0.0
  0
LWPOLYLINE
  5
13c
100
AcDbEntity
  8
0
 62
1
100
AcDbPolyline
 90
4
 70
1
 10
146.863702
 20
214.725024
 30
0.0
 10
160.863013
 20
214.725024
 30
0.0
 10
160.863013
 20
200.725713
 30
0.0
 10
146.863702
 20
200.725713
 30
0.0
  0
LWPOLYLINE
  5
13d
100
AcDbEntity
  8
0
 62
1
100
AcDbPolyline
 90
4
 70
1
 10
146.863702
 20
195.715053
 30
0.0
 10
160.863013
 20
195.715053
 30
0.0
 10
160.863013
 20
181.715745
 30
0.0
 10
146.863702
 20
181.715745
 30
0.0
  0
SPLINE
  5
13e
100
AcDbEntity
  8
0
 62
1
100
AcDbSpline
 70
0
 71
3
 72
115
 73
111
 74
109
 40
0.000000
 40
0.000000
 40
0.000000
 40
0.000000
 40
0.064633
 40
0.129261
 40
0.193893
 40
0.257522
 40
0.321150
 40
0.384801
 40
0.447513
 40
0.510210
 40
0.572862
 40
0.634544
 40
0.696272
 40
0.758016
 40
0.820781
 40
0.883528
 40
0.946274
 40
1.009457
 40
1.072641
 40
1.135828
 40
1.200242
 40
1.264654
 40
1.329065
 40
1.393048
 40
1.457030
 40
1.521015
 40
1.584808
 40
1.648599
 40
1.712383
 40
1.776317
 40
1.840258
 40
1.904202
 40
1.968333
 40
2.032461
 40
2.096591
 40
2.160737
 40
2.224880
 40
2.289018
 40
2.351484
 40
2.413953
 40
2.476423
 40
2.538858
 40
2.601292
 40
2.663728
 40
2.726167
 40
2.788606
 40
2.851042
 40
2.915118
 40
2.979198
 40
3.043281
 40
3.107381
 40
3.171480
 40
3.235581
 40
3.299623
 40
3.363663
 40
3.427697
 40
3.491729
 40
3.555769
 40
3.619810
 40
3.683911
 40
3.748010
 40
3.812110
 40
3.876192
 40
3.940273
 40
4.004348
 40
4.066785
 40
4.129224
 40
4.191664
 40
4.254099
 40
4.316533
 40
4.378968
 40
4.441438
 40
4.503907
 40
4.566373
 40
4.630511
 40
4.694654
 40
4.758800
 40
4.822930
 40
4.887059
 40
4.951190
 40
5.015134
 40
5.079075
 40
5.143008
 40
5.206792
 40
5.270584
 40
5.334376
 40
5.398361
 40
5.462344
 40
5.526326
 40
5.590736
 40
5.655148
 40
5.719561
 40
5.782748
 40
5.845933
 40
5.909117
 40
5.971863
 40
6.034611
 40
6.097376
 40
6.159120
 40
6.220849
 40
6.282531
 40
6.345182
 40
6.407879
 40
6.470591
 40
6.534242
 40
6.597871
 40
6.661500
 40
6.726133
 40
6.790762
 40
6.855395
 40
6.855395
 40
6.855395
 40
6.855395
 10
67.260430
 20
195.822095
 30
0.0
 10
67.263818
 20
195.843371
 30
0.0
 10
67.270592
 20
195.885922
 30
0.0
 10
67.281259
 20
195.949669
 30
0.0
 10
67.292871
 20
196.012912
 30
0.0
 10
67.305898
 20
196.075542
 30
0.0
 10
67.320873
 20
196.137406
 30
0.0
 10
67.338325
 20
196.198308
 30
0.0
 10
67.358715
 20
196.257971
 30
0.0
 10
67.382416
 20
196.316048
 30
0.0
 10
67.409808
 20
196.372113
 30
0.0
 10
67.441185
 20
196.425676
 30
0.0
 10
67.476077
 20
196.476642
 30
0.0
 10
67.514492
 20
196.525462
 30
0.0
 10
67.556148
 20
196.572002
 30
0.0
 10
67.600816
 20
196.616132
 30
0.0
 10
67.648106
 20
196.657646
 30
0.0
 10
67.697792
 20
196.696496
 30
0.0
 10
67.749704
 20
196.732575
 30
0.0
 10
67.803889
 20
196.765927
 30
0.0
 10
67.860207
 20
196.796409
 30
0.0
 10
67.918524
 20
196.823840
 30
0.0
 10
67.978172
 20
196.847862
 30
0.0
 10
68.038960
 20
196.868389
 30
0.0
 10
68.100691
 20
196.885352
 30
0.0
 10
68.163244
 20
196.898682
 30
0.0
 10
68.226411
 20
196.908290
 30
0.0
 10
68.289972
 20
196.914115
 30
0.0
 10
68.353818
 20
196.916087
 30
0.0
 10
68.417714
 20
196.914118
 30
0.0
 10
68.481425
 20
196.908287
 30
0.0
 10
68.544743
 20
196.898679
 30
0.0
 10
68.607450
 20
196.885370
 30
0.0
 10
68.669336
 20
196.868421
 30
0.0
 10
68.730143
 20
196.847917
 30
0.0
 10
68.789668
 20
196.823932
 30
0.0
 10
68.847701
 20
196.796527
 30
0.0
 10
68.903535
 20
196.766029
 30
0.0
 10
68.957006
 20
196.732604
 30
0.0
 10
69.008022
 20
196.696493
 30
0.0
 10
69.056896
 20
196.657552
 30
0.0
 10
69.103487
 20
196.615922
 30
0.0
 10
69.147653
 20
196.571746
 30
0.0
 10
69.189268
 20
196.525155
 30
0.0
 10
69.228191
 20
196.476292
 30
0.0
 10
69.264284
 20
196.425302
 30
0.0
 10
69.297695
 20
196.371870
 30
0.0
 10
69.328185
 20
196.316091
 30
0.0
 10
69.355587
 20
196.258126
 30
0.0
 10
69.379577
 20
196.198659
 30
0.0
 10
69.400086
 20
196.137897
 30
0.0
 10
69.417039
 20
196.076042
 30
0.0
 10
69.430355
 20
196.013323
 30
0.0
 10
69.439964
 20
195.949949
 30
0.0
 10
69.445793
 20
195.886138
 30
0.0
 10
69.447763
 20
195.822093
 30
0.0
 10
69.445793
 20
195.758048
 30
0.0
 10
69.439964
 20
195.694237
 30
0.0
 10
69.430355
 20
195.630864
 30
0.0
 10
69.417039
 20
195.568145
 30
0.0
 10
69.400086
 20
195.506291
 30
0.0
 10
69.379577
 20
195.445529
 30
0.0
 10
69.355588
 20
195.386062
 30
0.0
 10
69.328185
 20
195.328097
 30
0.0
 10
69.297695
 20
195.272318
 30
0.0
 10
69.264284
 20
195.218886
 30
0.0
 10
69.228191
 20
195.167895
 30
0.0
 10
69.189268
 20
195.119031
 30
0.0
 10
69.147653
 20
195.072441
 30
0.0
 10
69.103487
 20
195.028265
 30
0.0
 10
69.056897
 20
194.986635
 30
0.0
 10
69.008022
 20
194.947694
 30
0.0
 10
68.957006
 20
194.911584
 30
0.0
 10
68.903535
 20
194.878158
 30
0.0
 10
68.847701
 20
194.847661
 30
0.0
 10
68.789668
 20
194.820255
 30
0.0
 10
68.730143
 20
194.796271
 30
0.0
 10
68.669336
 20
194.775766
 30
0.0
 10
68.607450
 20
194.758816
 30
0.0
 10
68.544742
 20
194.745507
 30
0.0
 10
68.481425
 20
194.735899
 30
0.0
 10
68.417714
 20
194.730068
 30
0.0
 10
68.353818
 20
194.728098
 30
0.0
 10
68.289972
 20
194.730071
 30
0.0
 10
68.226411
 20
194.735895
 30
0.0
 10
68.163244
 20
194.745504
 30
0.0
 10
68.100691
 20
194.758834
 30
0.0
 10
68.038961
 20
194.775796
 30
0.0
 10
67.978173
 20
194.796324
 30
0.0
 10
67.918526
 20
194.820346
 30
0.0
 10
67.860209
 20
194.847776
 30
0.0
 10
67.803891
 20
194.878257
 30
0.0
 10
67.749705
 20
194.911610
 30
0.0
 10
67.697793
 20
194.947689
 30
0.0
 10
67.648107
 20
194.986539
 30
0.0
 10
67.600816
 20
195.028054
 30
0.0
 10
67.556149
 20
195.072185
 30
0.0
 10
67.514493
 20
195.118725
 30
0.0
 10
67.476077
 20
195.167545
 30
0.0
 10
67.441185
 20
195.218511
 30
0.0
 10
67.409808
 20
195.272075
 30
0.0
 10
67.382416
 20
195.328140
 30
0.0
 10
67.358716
 20
195.386217
 30
0.0
 10
67.338325
 20
195.445879
 30
0.0
 10
67.320874
 20
195.506781
 30
0.0
 10
67.305899
 20
195.568645
 30
0.0
 10
67.292870
 20
195.631276
 30
0.0
 10
67.281259
 20
195.694520
 30
0.0
 10
67.270592
 20
195.758267
 30
0.0
 10
67.263818
 20
195.800819
 30
0.0
 10
67.260430
 20
195.822095
 30
0.0
 11
67.260430
 21
195.822095
 31
0.0
 11
67.270677
 21
195.885910
 31
0.0
 11
67.281426
 21
195.949638
 31
0.0
 11
67.293181
 21
196.013192
 31
0.0
 11
67.306234
 21
196.075468
 31
0.0
 11
67.321298
 21
196.137288
 31
0.0
 11
67.338924
 21
196.198450
 31
0.0
 11
67.359287
 21
196.257763
 31
0.0
 11
67.383062
 21
196.315778
 31
0.0
 11
67.410650
 21
196.372029
 31
0.0
 11
67.441788
 21
196.425274
 31
0.0
 11
67.476624
 21
196.476233
 31
0.0
 11
67.514777
 21
196.524778
 31
0.0
 11
67.556617
 21
196.571563
 31
0.0
 11
67.601236
 21
196.615681
 31
0.0
 11
67.648374
 21
196.657093
 31
0.0
 11
67.698144
 21
196.696019
 31
0.0
 11
67.750023
 21
196.732084
 31
0.0
 11
67.803831
 21
196.765210
 31
0.0
 11
67.860481
 21
196.795868
 31
0.0
 11
67.918769
 21
196.823281
 31
0.0
 11
67.978519
 21
196.847337
 31
0.0
 11
68.039140
 21
196.867803
 31
0.0
 11
68.100838
 21
196.884749
 31
0.0
 11
68.163420
 21
196.898075
 31
0.0
 11
68.226488
 21
196.907661
 31
0.0
 11
68.290014
 21
196.913473
 31
0.0
 11
68.353768
 21
196.915430
 31
0.0
 11
68.417672
 21
196.913475
 31
0.0
 11
68.481348
 21
196.907659
 31
0.0
 11
68.544569
 21
196.898075
 31
0.0
 11
68.607304
 21
196.884765
 31
0.0
 11
68.669155
 21
196.867829
 31
0.0
 11
68.729923
 21
196.847339
 31
0.0
 11
68.789420
 21
196.823362
 31
0.0
 11
68.847418
 21
196.795966
 31
0.0
 11
68.903702
 21
196.765213
 31
0.0
 11
68.956675
 21
196.732108
 31
0.0
 11
69.007666
 21
196.696021
 31
0.0
 11
69.056526
 21
196.657095
 31
0.0
 11
69.103084
 21
196.615496
 31
0.0
 11
69.147228
 21
196.571344
 31
0.0
 11
69.188818
 21
196.524778
 31
0.0
 11
69.227719
 21
196.475937
 31
0.0
 11
69.263789
 21
196.424971
 31
0.0
 11
69.296886
 21
196.372029
 31
0.0
 11
69.327626
 21
196.315809
 31
0.0
 11
69.355018
 21
196.257878
 31
0.0
 11
69.378994
 21
196.198450
 31
0.0
 11
69.399493
 21
196.137715
 31
0.0
 11
69.416433
 21
196.075896
 31
0.0
 11
69.429741
 21
196.013191
 31
0.0
 11
69.439335
 21
195.949872
 31
0.0
 11
69.445150
 21
195.886096
 31
0.0
 11
69.447106
 21
195.822092
 31
0.0
 11
69.445150
 21
195.758090
 31
0.0
 11
69.439335
 21
195.694315
 31
0.0
 11
69.429741
 21
195.630996
 31
0.0
 11
69.416433
 21
195.568292
 31
0.0
 11
69.399493
 21
195.506472
 31
0.0
 11
69.378995
 21
195.445738
 31
0.0
 11
69.355018
 21
195.386310
 31
0.0
 11
69.327626
 21
195.328379
 31
0.0
 11
69.296886
 21
195.272159
 31
0.0
 11
69.263789
 21
195.219216
 31
0.0
 11
69.227719
 21
195.168250
 31
0.0
 11
69.188818
 21
195.119409
 31
0.0
 11
69.147227
 21
195.072843
 31
0.0
 11
69.103085
 21
195.028691
 31
0.0
 11
69.056526
 21
194.987092
 31
0.0
 11
69.007666
 21
194.948167
 31
0.0
 11
68.956675
 21
194.912080
 31
0.0
 11
68.903702
 21
194.878975
 31
0.0
 11
68.847418
 21
194.848222
 31
0.0
 11
68.789420
 21
194.820826
 31
0.0
 11
68.729924
 21
194.796849
 31
0.0
 11
68.669155
 21
194.776358
 31
0.0
 11
68.607304
 21
194.759421
 31
0.0
 11
68.544569
 21
194.746111
 31
0.0
 11
68.481348
 21
194.736526
 31
0.0
 11
68.417672
 21
194.730711
 31
0.0
 11
68.353768
 21
194.728755
 31
0.0
 11
68.290014
 21
194.730713
 31
0.0
 11
68.226488
 21
194.736524
 31
0.0
 11
68.163419
 21
194.746111
 31
0.0
 11
68.100838
 21
194.759437
 31
0.0
 11
68.039140
 21
194.776383
 31
0.0
 11
67.978520
 21
194.796848
 31
0.0
 11
67.918770
 21
194.820905
 31
0.0
 11
67.860483
 21
194.848317
 31
0.0
 11
67.803833
 21
194.878975
 31
0.0
 11
67.750025
 21
194.912101
 31
0.0
 11
67.698145
 21
194.948166
 31
0.0
 11
67.648375
 21
194.987092
 31
0.0
 11
67.601236
 21
195.028505
 31
0.0
 11
67.556618
 21
195.072624
 31
0.0
 11
67.514777
 21
195.119409
 31
0.0
 11
67.476624
 21
195.167954
 31
0.0
 11
67.441788
 21
195.218913
 31
0.0
 11
67.410650
 21
195.272159
 31
0.0
 11
67.383063
 21
195.328410
 31
0.0
 11
67.359287
 21
195.386424
 31
0.0
 11
67.338925
 21
195.445737
 31
0.0
 11
67.321299
 21
195.506900
 31
0.0
 11
67.306234
 21
195.568720
 31
0.0
 11
67.293181
 21
195.630996
 31
0.0
 11
67.281426
 21
195.694550
 31
0.0
 11
67.270677
 21
195.758279
 31
0.0
 11
67.260430
 21
195.822095
 31
0.0
  0
LWPOLYLINE
  5
13f
100
AcDbEntity
  8
0
 62
1
100
AcDbPolyline
 90
4
 70
1
 10
118.366389
 20
178.468535
 30
0.0
 10
132.365694
 20
178.468535
 30
0.0
 10
132.365694
 20
164.469229
 30
0.0
 10
118.366389
 20
164.469229
 30
0.0
  0
LWPOLYLINE
  5
140
100
AcDbEntity
  8
0
 62
1
100
AcDbPolyline
 90
4
 70
1
 10
137.798553
 20
163.775301
 30
0.0
 10
141.407573
 20
177.301434
 30
0.0
 10
154.933706
 20
173.692414
 30
0.0
 10
151.324686
 20
160.166282
 30
0.0
  0
SPLINE
  5
141
100
AcDbEntity
  8
0
 62
1
100
AcDbSpline
 70
0
 71
3
 72
115
 73
111
 74
109
 40
0.000000
 40
0.000000
 40
0.000000
 40
0.000000
 40
0.064633
 40
0.129262
 40
0.193894
 40
0.257523
 40
0.321152
 40
0.384804
 40
0.447515
 40
0.510213
 40
0.572864
 40
0.634546
 40
0.696274
 40
0.758017
 40
0.820782
 40
0.883529
 40
0.946275
 40
1.009459
 40
1.072643
 40
1.135831
 40
1.200245
 40
1.264657
 40
1.329068
 40
1.393051
 40
1.457033
 40
1.521019
 40
1.584811
 40
1.648602
 40
1.712386
 40
1.776320
 40
1.840262
 40
1.904206
 40
1.968337
 40
2.032465
 40
2.096595
 40
2.160740
 40
2.224882
 40
2.289019
 40
2.351486
 40
2.413956
 40
2.476426
 40
2.538861
 40
2.601295
 40
2.663730
 40
2.726170
 40
2.788610
 40
2.851048
 40
2.915125
 40
2.979208
 40
3.043292
 40
3.107394
 40
3.171494
 40
3.235596
 40
3.299633
 40
3.363669
 40
3.427697
 40
3.491720
 40
3.555749
 40
3.619780
 40
3.683876
 40
3.747969
 40
3.812064
 40
3.876161
 40
3.940257
 40
4.004348
 40
4.066819
 40
4.129292
 40
4.191766
 40
4.254216
 40
4.316665
 40
4.379115
 40
4.441548
 40
4.503979
 40
4.566406
 40
4.630459
 40
4.694519
 40
4.758581
 40
4.822681
 40
4.886777
 40
4.950876
 40
5.014867
 40
5.078856
 40
5.142841
 40
5.206450
 40
5.270063
 40
5.333677
 40
5.397401
 40
5.461125
 40
5.524848
 40
5.588967
 40
5.653087
 40
5.717207
 40
5.779784
 40
5.842358
 40
5.904933
 40
5.967103
 40
6.029275
 40
6.091464
 40
6.152592
 40
6.213704
 40
6.274768
 40
6.339012
 40
6.403310
 40
6.467625
 40
6.533001
 40
6.598351
 40
6.663701
 40
6.730190
 40
6.796675
 40
6.863166
 40
6.863166
 40
6.863166
 40
6.863166
 10
157.019929
 20
170.992746
 30
0.0
 10
157.023317
 20
171.014022
 30
0.0
 10
157.030091
 20
171.056574
 30
0.0
 10
157.040758
 20
171.120320
 30
0.0
 10
157.052369
 20
171.183564
 30
0.0
 10
157.065398
 20
171.246195
 30
0.0
 10
157.080372
 20
171.308059
 30
0.0
 10
157.097824
 20
171.368961
 30
0.0
 10
157.118214
 20
171.428624
 30
0.0
 10
157.141915
 20
171.486701
 30
0.0
 10
157.169307
 20
171.542766
 30
0.0
 10
157.200684
 20
171.596330
 30
0.0
 10
157.235575
 20
171.647295
 30
0.0
 10
157.273990
 20
171.696115
 30
0.0
 10
157.315646
 20
171.742655
 30
0.0
 10
157.360313
 20
171.786785
 30
0.0
 10
157.407604
 20
171.828299
 30
0.0
 10
157.457290
 20
171.867149
 30
0.0
 10
157.509202
 20
171.903228
 30
0.0
 10
157.563388
 20
171.936581
 30
0.0
 10
157.619706
 20
171.967062
 30
0.0
 10
157.678024
 20
171.994494
 30
0.0
 10
157.737672
 20
172.018516
 30
0.0
 10
157.798460
 20
172.039044
 30
0.0
 10
157.860191
 20
172.056006
 30
0.0
 10
157.922743
 20
172.069336
 30
0.0
 10
157.985910
 20
172.078944
 30
0.0
 10
158.049471
 20
172.084768
 30
0.0
 10
158.113317
 20
172.086740
 30
0.0
 10
158.177213
 20
172.084771
 30
0.0
 10
158.240925
 20
172.078940
 30
0.0
 10
158.304243
 20
172.069332
 30
0.0
 10
158.366950
 20
172.056022
 30
0.0
 10
158.428836
 20
172.039072
 30
0.0
 10
158.489642
 20
172.018568
 30
0.0
 10
158.549167
 20
171.994584
 30
0.0
 10
158.607200
 20
171.967179
 30
0.0
 10
158.663033
 20
171.936683
 30
0.0
 10
158.716505
 20
171.903257
 30
0.0
 10
158.767521
 20
171.867147
 30
0.0
 10
158.816397
 20
171.828206
 30
0.0
 10
158.862987
 20
171.786577
 30
0.0
 10
158.907154
 20
171.742401
 30
0.0
 10
158.948769
 20
171.695811
 30
0.0
 10
158.987691
 20
171.646947
 30
0.0
 10
159.023784
 20
171.595954
 30
0.0
 10
159.057194
 20
171.542520
 30
0.0
 10
159.087684
 20
171.486739
 30
0.0
 10
159.115086
 20
171.428772
 30
0.0
 10
159.139074
 20
171.369302
 30
0.0
 10
159.159583
 20
171.308538
 30
0.0
 10
159.176535
 20
171.246682
 30
0.0
 10
159.189851
 20
171.183964
 30
0.0
 10
159.199461
 20
171.120593
 30
0.0
 10
159.205290
 20
171.056787
 30
0.0
 10
159.207262
 20
170.992748
 30
0.0
 10
159.205293
 20
170.928712
 30
0.0
 10
159.199466
 20
170.864912
 30
0.0
 10
159.189858
 20
170.801547
 30
0.0
 10
159.176543
 20
170.738835
 30
0.0
 10
159.159590
 20
170.676985
 30
0.0
 10
159.139080
 20
170.616222
 30
0.0
 10
159.115088
 20
170.556747
 30
0.0
 10
159.087682
 20
170.498767
 30
0.0
 10
159.057190
 20
170.442966
 30
0.0
 10
159.023776
 20
170.389502
 30
0.0
 10
158.987679
 20
170.338473
 30
0.0
 10
158.948754
 20
170.289575
 30
0.0
 10
158.907140
 20
170.242956
 30
0.0
 10
158.862972
 20
170.198759
 30
0.0
 10
158.816385
 20
170.157129
 30
0.0
 10
158.767517
 20
170.118211
 30
0.0
 10
158.716511
 20
170.082152
 30
0.0
 10
158.663048
 20
170.048814
 30
0.0
 10
158.607221
 20
170.018447
 30
0.0
 10
158.549207
 20
169.991198
 30
0.0
 10
158.489692
 20
169.967364
 30
0.0
 10
158.428894
 20
169.946989
 30
0.0
 10
158.367018
 20
169.930125
 30
0.0
 10
158.304316
 20
169.916827
 30
0.0
 10
158.240992
 20
169.907135
 30
0.0
 10
158.177253
 20
169.901100
 30
0.0
 10
158.113397
 20
169.898784
 30
0.0
 10
158.049641
 20
169.900221
 30
0.0
 10
157.986201
 20
169.905346
 30
0.0
 10
157.923124
 20
169.914129
 30
0.0
 10
157.860621
 20
169.926538
 30
0.0
 10
157.798897
 20
169.942517
 30
0.0
 10
157.738061
 20
169.962035
 30
0.0
 10
157.678320
 20
169.985052
 30
0.0
 10
157.619873
 20
170.011505
 30
0.0
 10
157.563489
 20
170.041018
 30
0.0
 10
157.509311
 20
170.073410
 30
0.0
 10
157.457468
 20
170.108512
 30
0.0
 10
157.407812
 20
170.146425
 30
0.0
 10
157.360516
 20
170.187037
 30
0.0
 10
157.315811
 20
170.230306
 30
0.0
 10
157.274110
 20
170.276013
 30
0.0
 10
157.235645
 20
170.324025
 30
0.0
 10
157.200710
 20
170.374213
 30
0.0
 10
157.168923
 20
170.427676
 30
0.0
 10
157.140950
 20
170.484420
 30
0.0
 10
157.116657
 20
170.543989
 30
0.0
 10
157.095947
 20
170.605283
 30
0.0
 10
157.078428
 20
170.667918
 30
0.0
 10
157.063602
 20
170.731590
 30
0.0
 10
157.050887
 20
170.796088
 30
0.0
 10
157.039702
 20
170.861247
 30
0.0
 10
157.029543
 20
170.926956
 30
0.0
 10
157.023134
 20
170.970815
 30
0.0
 10
157.019929
 20
170.992746
 30
0.0
 11
157.019929
 21
170.992746
 31
0.0
 11
157.030176
 21
171.056562
 31
0.0
 11
157.040925
 21
171.120290
 31
0.0
 11
157.052680
 21
171.183845
 31
0.0
 11
157.065733
 21
171.246120
 31
0.0
 11
157.080797
 21
171.307941
 31
0.0
 11
157.098423
 21
171.369103
 31
0.0
 11
157.118786
 21
171.428416
 31
0.0
 11
157.142561
 21
171.486431
 31
0.0
 11
157.170149
 21
171.542682
 31
0.0
 11
157.201286
 21
171.595927
 31
0.0
 11
157.236122
 21
171.646886
 31
0.0
 11
157.274275
 21
171.695431
 31
0.0
 11
157.316115
 21
171.742216
 31
0.0
 11
157.360733
 21
171.786334
 31
0.0
 11
157.407872
 21
171.827746
 31
0.0
 11
157.457641
 21
171.866672
 31
0.0
 11
157.509522
 21
171.902737
 31
0.0
 11
157.563330
 21
171.935863
 31
0.0
 11
157.619980
 21
171.966522
 31
0.0
 11
157.678268
 21
171.993934
 31
0.0
 11
157.738018
 21
172.017991
 31
0.0
 11
157.798639
 21
172.038457
 31
0.0
 11
157.860337
 21
172.055403
 31
0.0
 11
157.922919
 21
172.068729
 31
0.0
 11
157.985987
 21
172.078315
 31
0.0
 11
158.049513
 21
172.084126
 31
0.0
 11
158.113267
 21
172.086083
 31
0.0
 11
158.177171
 21
172.084128
 31
0.0
 11
158.240848
 21
172.078312
 31
0.0
 11
158.304069
 21
172.068728
 31
0.0
 11
158.366804
 21
172.055417
 31
0.0
 11
158.428655
 21
172.038480
 31
0.0
 11
158.489424
 21
172.017990
 31
0.0
 11
158.548919
 21
171.994014
 31
0.0
 11
158.606917
 21
171.966618
 31
0.0
 11
158.663201
 21
171.935866
 31
0.0
 11
158.716174
 21
171.902761
 31
0.0
 11
158.767166
 21
171.866674
 31
0.0
 11
158.816027
 21
171.827749
 31
0.0
 11
158.862585
 21
171.786151
 31
0.0
 11
158.906728
 21
171.741999
 31
0.0
 11
158.948318
 21
171.695434
 31
0.0
 11
158.987220
 21
171.646592
 31
0.0
 11
159.023289
 21
171.595624
 31
0.0
 11
159.056385
 21
171.542680
 31
0.0
 11
159.087124
 21
171.486457
 31
0.0
 11
159.114516
 21
171.428523
 31
0.0
 11
159.138492
 21
171.369093
 31
0.0
 11
159.158990
 21
171.308357
 31
0.0
 11
159.175930
 21
171.246536
 31
0.0
 11
159.189238
 21
171.183830
 31
0.0
 11
159.198832
 21
171.120515
 31
0.0
 11
159.204648
 21
171.056745
 31
0.0
 11
159.206605
 21
170.992746
 31
0.0
 11
159.204650
 21
170.928754
 31
0.0
 11
159.198837
 21
170.864989
 31
0.0
 11
159.189245
 21
170.801680
 31
0.0
 11
159.175937
 21
170.738981
 31
0.0
 11
159.158998
 21
170.677167
 31
0.0
 11
159.138500
 21
170.616438
 31
0.0
 11
159.114519
 21
170.556996
 31
0.0
 11
159.087124
 21
170.499050
 31
0.0
 11
159.056385
 21
170.442812
 31
0.0
 11
159.023282
 21
170.389832
 31
0.0
 11
158.987207
 21
170.338827
 31
0.0
 11
158.948300
 21
170.289948
 31
0.0
 11
158.906713
 21
170.243358
 31
0.0
 11
158.862568
 21
170.199187
 31
0.0
 11
158.815999
 21
170.157577
 31
0.0
 11
158.767159
 21
170.118687
 31
0.0
 11
158.716177
 21
170.082653
 31
0.0
 11
158.663201
 21
170.049628
 31
0.0
 11
158.606938
 21
170.019011
 31
0.0
 11
158.548960
 21
169.991769
 31
0.0
 11
158.489492
 21
169.967946
 31
0.0
 11
158.428715
 21
169.947575
 31
0.0
 11
158.366875
 21
169.930718
 31
0.0
 11
158.304171
 21
169.917421
 31
0.0
 11
158.240916
 21
169.907744
 31
0.0
 11
158.177211
 21
169.901719
 31
0.0
 11
158.113268
 21
169.899408
 31
0.0
 11
158.049674
 21
169.900836
 31
0.0
 11
157.986268
 21
169.905955
 31
0.0
 11
157.923262
 21
169.914726
 31
0.0
 11
157.860757
 21
169.927132
 31
0.0
 11
157.799066
 21
169.943100
 31
0.0
 11
157.738389
 21
169.962567
 31
0.0
 11
157.678556
 21
169.985617
 31
0.0
 11
157.620141
 21
170.012055
 31
0.0
 11
157.563333
 21
170.041791
 31
0.0
 11
157.509626
 21
170.073906
 31
0.0
 11
157.457814
 21
170.108994
 31
0.0
 11
157.408083
 21
170.146974
 31
0.0
 11
157.360932
 21
170.187494
 31
0.0
 11
157.316277
 21
170.230751
 31
0.0
 11
157.274381
 21
170.276711
 31
0.0
 11
157.236191
 21
170.324441
 31
0.0
 11
157.201314
 21
170.374623
 31
0.0
 11
157.170149
 21
170.427136
 31
0.0
 11
157.141651
 21
170.484712
 31
0.0
 11
157.117276
 21
170.544212
 31
0.0
 11
157.096600
 21
170.605113
 31
0.0
 11
157.078890
 21
170.668044
 31
0.0
 11
157.063966
 21
170.731667
 31
0.0
 11
157.051222
 21
170.795762
 31
0.0
 11
157.039883
 21
170.861278
 31
0.0
 11
157.029634
 21
170.926968
 31
0.0
 11
157.019929
 21
170.992746
 31
0.0
  0
LWPOLYLINE
  5
142
100
AcDbEntity
  8
0
 62
1
100
AcDbPolyline
 90
4
 70
1
 10
159.054226
 20
162.431975
 30
0.0
 10
166.045481
 20
174.560975
 30
0.0
 10
178.174481
 20
167.569720
 30
0.0
 10
171.183226
 20
155.440720
 30
0.0
  0
SPLINE
  5
143
100
AcDbEntity
  8
0
 62
1
100
AcDbSpline
 70
0
 71
3
 72
115
 73
111
 74
109
 40
0.000000
 40
0.000000
 40
0.000000
 40
0.000000
 40
0.064633
 40
0.129262
 40
0.193894
 40
0.257523
 40
0.321153
 40
0.384804
 40
0.447516
 40
0.510213
 40
0.572865
 40
0.634547
 40
0.696274
 40
0.758018
 40
0.820783
 40
0.883530
 40
0.946276
 40
1.009461
 40
1.072646
 40
1.135834
 40
1.200246
 40
1.264657
 40
1.329068
 40
1.393050
 40
1.457033
 40
1.521018
 40
1.584811
 40
1.648602
 40
1.712385
 40
1.776319
 40
1.840260
 40
1.904204
 40
1.968335
 40
2.032462
 40
2.096593
 40
2.160738
 40
2.224881
 40
2.289019
 40
2.351486
 40
2.413955
 40
2.476425
 40
2.538860
 40
2.601293
 40
2.663728
 40
2.726167
 40
2.788606
 40
2.851043
 40
2.915118
 40
2.979198
 40
3.043281
 40
3.107382
 40
3.171480
 40
3.235582
 40
3.299624
 40
3.363664
 40
3.427698
 40
3.491730
 40
3.555769
 40
3.619810
 40
3.683912
 40
3.748010
 40
3.812110
 40
3.876193
 40
3.940273
 40
4.004349
 40
4.066785
 40
4.129224
 40
4.191663
 40
4.254098
 40
4.316532
 40
4.378967
 40
4.441437
 40
4.503907
 40
4.566373
 40
4.630511
 40
4.694654
 40
4.758800
 40
4.822930
 40
4.887058
 40
4.951189
 40
5.015132
 40
5.079073
 40
5.143007
 40
5.206791
 40
5.270582
 40
5.334374
 40
5.398359
 40
5.462342
 40
5.526324
 40
5.590735
 40
5.655146
 40
5.719559
 40
5.782747
 40
5.845932
 40
5.909117
 40
5.971863
 40
6.034610
 40
6.097375
 40
6.159119
 40
6.220847
 40
6.282528
 40
6.345180
 40
6.407878
 40
6.470590
 40
6.534241
 40
6.597870
 40
6.661499
 40
6.726130
 40
6.790759
 40
6.855391
 40
6.855391
 40
6.855391
 40
6.855391
 10
110.500173
 20
178.716648
 30
0.0
 10
110.503561
 20
178.737924
 30
0.0
 10
110.510335
 20
178.780476
 30
0.0
 10
110.521001
 20
178.844222
 30
0.0
 10
110.532613
 20
178.907466
 30
0.0
 10
110.545642
 20
178.970097
 30
0.0
 10
110.560616
 20
179.031961
 30
0.0
 10
110.578068
 20
179.092863
 30
0.0
 10
110.598458
 20
179.152526
 30
0.0
 10
110.622159
 20
179.210603
 30
0.0
 10
110.649551
 20
179.266669
 30
0.0
 10
110.680928
 20
179.320232
 30
0.0
 10
110.715820
 20
179.371198
 30
0.0
 10
110.754235
 20
179.420017
 30
0.0
 10
110.795892
 20
179.466557
 30
0.0
 10
110.840559
 20
179.510687
 30
0.0
 10
110.887850
 20
179.552202
 30
0.0
 10
110.937536
 20
179.591051
 30
0.0
 10
110.989449
 20
179.627130
 30
0.0
 10
111.043634
 20
179.660483
 30
0.0
 10
111.099953
 20
179.690964
 30
0.0
 10
111.158269
 20
179.718394
 30
0.0
 10
111.217917
 20
179.742416
 30
0.0
 10
111.278705
 20
179.762943
 30
0.0
 10
111.340436
 20
179.779906
 30
0.0
 10
111.402988
 20
179.793236
 30
0.0
 10
111.466155
 20
179.802845
 30
0.0
 10
111.529716
 20
179.808669
 30
0.0
 10
111.593561
 20
179.810642
 30
0.0
 10
111.657457
 20
179.808672
 30
0.0
 10
111.721168
 20
179.802841
 30
0.0
 10
111.784486
 20
179.793233
 30
0.0
 10
111.847193
 20
179.779924
 30
0.0
 10
111.909079
 20
179.762974
 30
0.0
 10
111.969885
 20
179.742469
 30
0.0
 10
112.029411
 20
179.718485
 30
0.0
 10
112.087443
 20
179.691079
 30
0.0
 10
112.143277
 20
179.660582
 30
0.0
 10
112.196749
 20
179.627156
 30
0.0
 10
112.247765
 20
179.591046
 30
0.0
 10
112.296640
 20
179.552106
 30
0.0
 10
112.343230
 20
179.510476
 30
0.0
 10
112.387396
 20
179.466301
 30
0.0
 10
112.429011
 20
179.419711
 30
0.0
 10
112.467934
 20
179.370847
 30
0.0
 10
112.504027
 20
179.319857
 30
0.0
 10
112.537438
 20
179.266425
 30
0.0
 10
112.567928
 20
179.210646
 30
0.0
 10
112.595330
 20
179.152681
 30
0.0
 10
112.619320
 20
179.093214
 30
0.0
 10
112.639829
 20
179.032452
 30
0.0
 10
112.656782
 20
178.970597
 30
0.0
 10
112.670098
 20
178.907878
 30
0.0
 10
112.679707
 20
178.844504
 30
0.0
 10
112.685536
 20
178.780692
 30
0.0
 10
112.687506
 20
178.716647
 30
0.0
 10
112.685535
 20
178.652603
 30
0.0
 10
112.679707
 20
178.588793
 30
0.0
 10
112.670097
 20
178.525419
 30
0.0
 10
112.656781
 20
178.462700
 30
0.0
 10
112.639829
 20
178.400845
 30
0.0
 10
112.619320
 20
178.340084
 30
0.0
 10
112.595330
 20
178.280616
 30
0.0
 10
112.567928
 20
178.222651
 30
0.0
 10
112.537438
 20
178.166873
 30
0.0
 10
112.504027
 20
178.113441
 30
0.0
 10
112.467934
 20
178.062451
 30
0.0
 10
112.429011
 20
178.013587
 30
0.0
 10
112.387397
 20
177.966997
 30
0.0
 10
112.343230
 20
177.922821
 30
0.0
 10
112.296640
 20
177.881191
 30
0.0
 10
112.247765
 20
177.842250
 30
0.0
 10
112.196749
 20
177.806139
 30
0.0
 10
112.143278
 20
177.772714
 30
0.0
 10
112.087444
 20
177.742216
 30
0.0
 10
112.029411
 20
177.714811
 30
0.0
 10
111.969886
 20
177.690826
 30
0.0
 10
111.909079
 20
177.670323
 30
0.0
 10
111.847193
 20
177.653373
 30
0.0
 10
111.784486
 20
177.640064
 30
0.0
 10
111.721168
 20
177.630456
 30
0.0
 10
111.657457
 20
177.624625
 30
0.0
 10
111.593561
 20
177.622656
 30
0.0
 10
111.529716
 20
177.624628
 30
0.0
 10
111.466155
 20
177.630453
 30
0.0
 10
111.402988
 20
177.640061
 30
0.0
 10
111.340435
 20
177.653390
 30
0.0
 10
111.278705
 20
177.670353
 30
0.0
 10
111.217917
 20
177.690880
 30
0.0
 10
111.158269
 20
177.714901
 30
0.0
 10
111.099952
 20
177.742332
 30
0.0
 10
111.043634
 20
177.772813
 30
0.0
 10
110.989448
 20
177.806166
 30
0.0
 10
110.937536
 20
177.842245
 30
0.0
 10
110.887850
 20
177.881096
 30
0.0
 10
110.840559
 20
177.922610
 30
0.0
 10
110.795891
 20
177.966741
 30
0.0
 10
110.754235
 20
178.013280
 30
0.0
 10
110.715820
 20
178.062100
 30
0.0
 10
110.680928
 20
178.113066
 30
0.0
 10
110.649551
 20
178.166629
 30
0.0
 10
110.622159
 20
178.222695
 30
0.0
 10
110.598458
 20
178.280772
 30
0.0
 10
110.578068
 20
178.340435
 30
0.0
 10
110.560616
 20
178.401337
 30
0.0
 10
110.545641
 20
178.463201
 30
0.0
 10
110.532614
 20
178.525831
 30
0.0
 10
110.521001
 20
178.589074
 30
0.0
 10
110.510335
 20
178.652821
 30
0.0
 10
110.503561
 20
178.695372
 30
0.0
 10
110.500173
 20
178.716648
 30
0.0
 11
110.500173
 21
178.716648
 31
0.0
 11
110.510420
 21
178.780464
 31
0.0
 11
110.521169
 21
178.844192
 31
0.0
 11
110.532924
 21
178.907747
 31
0.0
 11
110.545977
 21
178.970022
 31
0.0
 11
110.561041
 21
179.031843
 31
0.0
 11
110.578667
 21
179.093005
 31
0.0
 11
110.599030
 21
179.152319
 31
0.0
 11
110.622805
 21
179.210334
 31
0.0
 11
110.650393
 21
179.266584
 31
0.0
 11
110.681531
 21
179.319830
 31
0.0
 11
110.716367
 21
179.370788
 31
0.0
 11
110.754520
 21
179.419333
 31
0.0
 11
110.796360
 21
179.466118
 31
0.0
 11
110.840979
 21
179.510236
 31
0.0
 11
110.888118
 21
179.551649
 31
0.0
 11
110.937888
 21
179.590574
 31
0.0
 11
110.989769
 21
179.626640
 31
0.0
 11
111.043577
 21
179.659766
 31
0.0
 11
111.100226
 21
179.690423
 31
0.0
 11
111.158513
 21
179.717835
 31
0.0
 11
111.218263
 21
179.741891
 31
0.0
 11
111.278884
 21
179.762357
 31
0.0
 11
111.340582
 21
179.779303
 31
0.0
 11
111.403164
 21
179.792629
 31
0.0
 11
111.466232
 21
179.802216
 31
0.0
 11
111.529758
 21
179.808027
 31
0.0
 11
111.593511
 21
179.809985
 31
0.0
 11
111.657415
 21
179.808029
 31
0.0
 11
111.721091
 21
179.802214
 31
0.0
 11
111.784312
 21
179.792629
 31
0.0
 11
111.847047
 21
179.779319
 31
0.0
 11
111.908898
 21
179.762382
 31
0.0
 11
111.969666
 21
179.741891
 31
0.0
 11
112.029162
 21
179.717915
 31
0.0
 11
112.087160
 21
179.690518
 31
0.0
 11
112.143444
 21
179.659766
 31
0.0
 11
112.196417
 21
179.626660
 31
0.0
 11
112.247409
 21
179.590574
 31
0.0
 11
112.296270
 21
179.551649
 31
0.0
 11
112.342828
 21
179.510050
 31
0.0
 11
112.386971
 21
179.465899
 31
0.0
 11
112.428561
 21
179.419333
 31
0.0
 11
112.467462
 21
179.370493
 31
0.0
 11
112.503532
 21
179.319526
 31
0.0
 11
112.536629
 21
179.266584
 31
0.0
 11
112.567369
 21
179.210364
 31
0.0
 11
112.594761
 21
179.152433
 31
0.0
 11
112.618737
 21
179.093005
 31
0.0
 11
112.639236
 21
179.032270
 31
0.0
 11
112.656176
 21
178.970451
 31
0.0
 11
112.669484
 21
178.907746
 31
0.0
 11
112.679078
 21
178.844426
 31
0.0
 11
112.684893
 21
178.780651
 31
0.0
 11
112.686849
 21
178.716647
 31
0.0
 11
112.684892
 21
178.652645
 31
0.0
 11
112.679077
 21
178.588870
 31
0.0
 11
112.669484
 21
178.525551
 31
0.0
 11
112.656176
 21
178.462847
 31
0.0
 11
112.639236
 21
178.401027
 31
0.0
 11
112.618737
 21
178.340293
 31
0.0
 11
112.594761
 21
178.280865
 31
0.0
 11
112.567369
 21
178.222934
 31
0.0
 11
112.536629
 21
178.166714
 31
0.0
 11
112.503532
 21
178.113772
 31
0.0
 11
112.467462
 21
178.062805
 31
0.0
 11
112.428561
 21
178.013965
 31
0.0
 11
112.386971
 21
177.967399
 31
0.0
 11
112.342828
 21
177.923247
 31
0.0
 11
112.296270
 21
177.881648
 31
0.0
 11
112.247409
 21
177.842723
 31
0.0
 11
112.196418
 21
177.806635
 31
0.0
 11
112.143445
 21
177.773530
 31
0.0
 11
112.087161
 21
177.742777
 31
0.0
 11
112.029163
 21
177.715381
 31
0.0
 11
111.969667
 21
177.691404
 31
0.0
 11
111.908898
 21
177.670914
 31
0.0
 11
111.847047
 21
177.653978
 31
0.0
 11
111.784312
 21
177.640668
 31
0.0
 11
111.721091
 21
177.631084
 31
0.0
 11
111.657415
 21
177.625268
 31
0.0
 11
111.593511
 21
177.623313
 31
0.0
 11
111.529757
 21
177.625270
 31
0.0
 11
111.466232
 21
177.631082
 31
0.0
 11
111.403164
 21
177.640668
 31
0.0
 11
111.340582
 21
177.653994
 31
0.0
 11
111.278884
 21
177.670939
 31
0.0
 11
111.218264
 21
177.691404
 31
0.0
 11
111.158513
 21
177.715460
 31
0.0
 11
111.100226
 21
177.742872
 31
0.0
 11
111.043577
 21
177.773530
 31
0.0
 11
110.989768
 21
177.806656
 31
0.0
 11
110.937888
 21
177.842722
 31
0.0
 11
110.888118
 21
177.881649
 31
0.0
 11
110.840979
 21
177.923061
 31
0.0
 11
110.796360
 21
177.967179
 31
0.0
 11
110.754520
 21
178.013965
 31
0.0
 11
110.716367
 21
178.062509
 31
0.0
 11
110.681531
 21
178.113468
 31
0.0
 11
110.650393
 21
178.166714
 31
0.0
 11
110.622805
 21
178.222965
 31
0.0
 11
110.599030
 21
178.280980
 31
0.0
 11
110.578667
 21
178.340293
 31
0.0
 11
110.561041
 21
178.401455
 31
0.0
 11
110.545977
 21
178.463275
 31
0.0
 11
110.532924
 21
178.525551
 31
0.0
 11
110.521169
 21
178.589105
 31
0.0
 11
110.510420
 21
178.652833
 31
0.0
 11
110.500173
 21
178.716648
 31
0.0
  0
LWPOLYLINE
  5
144
100
AcDbEntity
  8
0
 62
1
100
AcDbPolyline
 90
4
 70
1
 10
32.914503
 20
217.088039
 30
0.0
 10
46.913803
 20
217.088039
 30
0.0
 10
46.913803
 20
203.088733
 30
0.0
 10
32.914503
 20
203.088733
 30
0.0
  0
ENDSEC
  0
SECTION
  2
OBJECTS
  0
DICTIONARY
  5
C
330
0
100
AcDbDictionary
  3
ACAD_GROUP
350
D
  3
ACAD_MLINESTYLE
350
17
  0
DICTIONARY
  5
D
330
C
100
AcDbDictionary
  0
DICTIONARY
  5
1A
330
C
100
AcDbDictionary
  0
DICTIONARY
  5
17
330
C
100
AcDbDictionary
  3
STANDARD
350
18
  0
DICTIONARY
  5
19
330
C
100
AcDbDictionary
  0
ENDSEC
  0
EOF
