  0
SECTION
  2
HEADER
  9
$ACADVER
  1
AC1014
  9
$HANDSEED
  5
FFFF
  9
$MEASUREMENT
 70
     1
  0
ENDSEC
  0
SECTION
  2
TABLES
  0
TABLE
  2
VPORT
  5
8
330
0
100
AcDbSymbolTable
 70
     4
  0
VPORT
  5
2E
330
8
100
AcDbSymbolTableRecord
100
AcDbViewportTableRecord
  2
*ACTIVE
 70
     0
 10
0.0
 20
0.0
 11
1.0
 21
1.0
 12
210.0
 22
148.5
 13
0.0
 23
0.0
 14
10.0
 24
10.0
 15
10.0
 25
10.0
 16
0.0
 26
0.0
 36
1.0
 17
0.0
 27
0.0
 37
0.0
 40
341.0
 41
1.24
 42
50.0
 43
0.0
 44
0.0
 50
0.0
 51
0.0
 71
     0
 72
   100
 73
     1
 74
     3
 75
     0
 76
     0
 77
     0
 78
     0
  0
ENDTAB
  0
TABLE
  2
LTYPE
  5
5
330
0
100
AcDbSymbolTable
 70
     1
  0
LTYPE
  5
14
330
5
100
AcDbSymbolTableRecord
100
AcDbLinetypeTableRecord
  2
BYBLOCK
 70
     0
  3

 72
    65
 73
     0
 40
0.0
  0
LTYPE
  5
15
330
5
100
AcDbSymbolTableRecord
100
AcDbLinetypeTableRecord
  2
BYLAYER
 70
     0
  3

 72
    65
 73
     0
 40
0.0
  0
LTYPE
  5
16
330
5
100
AcDbSymbolTableRecord
100
AcDbLinetypeTableRecord
  2
CONTINUOUS
 70
     0
  3
Solid line
 72
    65
 73
     0
 40
0.0
  0
ENDTAB
  0
TABLE
  2
LAYER
  5
2
100
AcDbSymbolTable
 70
1
  0
LAYER
  5
50
100
AcDbSymbolTableRecord
100
AcDbLayerTableRecord
  2
0
 70
0
  6
CONTINUOUS
  0
ENDTAB
  0
TABLE
  2
STYLE
  5
3
330
0
100
AcDbSymbolTable
 70
     1
  0
STYLE
  5
11
330
3
100
AcDbSymbolTableRecord
100
AcDbTextStyleTableRecord
  2
STANDARD
 70
     0
 40
0.0
 41
1.0
 50
0.0
 71
     0
 42
2.5
  3
txt
  4

  0
ENDTAB
  0
TABLE
  2
VIEW
  5
6
330
0
100
AcDbSymbolTable
 70
     0
  0
ENDTAB
  0
TABLE
  2
UCS
  5
7
330
0
100
AcDbSymbolTable
 70
     0
  0
ENDTAB
  0
TABLE
  2
APPID
  5
9
330
0
100
AcDbSymbolTable
 70
     2
  0
APPID
  5
12
330
9
100
AcDbSymbolTableRecord
100
AcDbRegAppTableRecord
  2
ACAD
 70
     0
  0
ENDTAB
  0
TABLE
  2
DIMSTYLE
  5
A
330
0
100
AcDbSymbolTable
 70
     1
  0
DIMSTYLE
105
27
330
A
100
AcDbSymbolTableRecord
100
AcDbDimStyleTableRecord
  2
ISO-25
 70
     0
  3

  4

  5

  6

  7

 40
1.0
 41
2.5
 42
0.625
 43
3.75
 44
1.25
 45
0.0
 46
0.0
 47
0.0
 48
0.0
140
2.5
141
2.5
142
0.0
143
0.03937007874016
144
1.0
145
0.0
146
1.0
147
0.625
 71
     0
 72
     0
 73
     0
 74
     0
 75
     0
 76
     0
 77
     1
 78
     8
170
     0
171
     3
172
     1
173
     0
174
     0
175
     0
176
     0
177
     0
178
     0
270
     2
271
     2
272
     2
273
     2
274
     3
340
11
275
     0
280
     0
281
     0
282
     0
283
     0
284
     8
285
     0
286
     0
287
     3
288
     0
  0
ENDTAB
  0
TABLE
  2
BLOCK_RECORD
  5
1
330
0
100
AcDbSymbolTable
 70
     1
  0
BLOCK_RECORD
  5
1F
330
1
100
AcDbSymbolTableRecord
100
AcDbBlockTableRecord
  2
*MODEL_SPACE
  0
BLOCK_RECORD
  5
1B
330
1
100
AcDbSymbolTableRecord
100
AcDbBlockTableRecord
  2
*PAPER_SPACE
  0
ENDTAB
  0
ENDSEC
  0
SECTION
  2
BLOCKS
  0
BLOCK
  5
20
330
1F
100
AcDbEntity
  8
0
100
AcDbBlockBegin
  2
*MODEL_SPACE
 70
     0
 10
0.0
 20
0.0
 30
0.0
  3
*MODEL_SPACE
  1

  0
ENDBLK
  5
21
330
1F
100
AcDbEntity
  8
0
100
AcDbBlockEnd
  0
BLOCK
  5
1C
330
1B
100
AcDbEntity
 67
     1
  8
0
100
AcDbBlockBegin
  2
*PAPER_SPACE
  1

  0
ENDBLK
  5
1D
330
1B
100
AcDbEntity
 67
     1
  8
0
100
AcDbBlockEnd
  0
ENDSEC
  0
SECTION
  2
ENTITIES
  0
LWPOLYLINE
  5
100
100
AcDbEntity
  8
0
 62
1
100
AcDbPolyline
 90
2
 70
0
 10
55.121490
 20
173.393645
 30
0.0
 10
102.452435
 20
173.393645
 30
0.0
  0
SPLINE
  5
101
100
AcDbEntity
  8
0
 62
1
100
AcDbSpline
 70
0
 71
3
 72
16
 73
12
 74
10
 40
0.000000
 40
0.000000
 40
0.000000
 40
0.000000
 40
0.155632
 40
0.310288
 40
0.464013
 40
0.596920
 40
0.730577
 40
0.864367
 40
1.008956
 40
1.153358
 40
1.297847
 40
1.297847
 40
1.297847
 40
1.297847
 10
102.452435
 20
173.393645
 30
0.0
 10
102.503415
 20
173.384026
 30
0.0
 10
102.605056
 20
173.364849
 30
0.0
 10
102.755657
 20
173.329155
 30
0.0
 10
102.895304
 20
173.281697
 30
0.0
 10
103.021106
 20
173.219289
 30
0.0
 10
103.133911
 20
173.147606
 30
0.0
 10
103.242800
 20
173.063619
 30
0.0
 10
103.346995
 20
172.968540
 30
0.0
 10
103.447922
 20
172.865082
 30
0.0
 10
103.513147
 20
172.794237
 30
0.0
 10
103.545770
 20
172.758804
 30
0.0
 11
102.452435
 21
173.393645
 31
0.0
 11
102.605141
 21
173.363609
 31
0.0
 11
102.755330
 21
173.326709
 31
0.0
 11
102.900480
 21
173.276083
 31
0.0
 11
103.019718
 21
173.217375
 31
0.0
 11
103.132705
 21
173.145974
 31
0.0
 11
103.238800
 21
173.064466
 31
0.0
 11
103.346056
 21
172.967501
 31
0.0
 11
103.447393
 21
172.864629
 31
0.0
 11
103.545770
 21
172.758804
 31
0.0
  0
LWPOLYLINE
  5
102
100
AcDbEntity
  8
0
 62
1
100
AcDbPolyline
 90
2
 70
0
 10
103.545770
 20
172.758804
 30
0.0
 10
114.408611
 20
153.925180
 30
0.0
  0
SPLINE
  5
103
100
AcDbEntity
  8
0
 62
1
100
AcDbSpline
 70
0
 71
3
 72
16
 73
12
 74
10
 40
0.000000
 40
0.000000
 40
0.000000
 40
0.000000
 40
0.180056
 40
0.357091
 40
0.532156
 40
0.695370
 40
0.860335
 40
1.022946
 40
1.150552
 40
1.279178
 40
1.409250
 40
1.409250
 40
1.409250
 40
1.409250
 10
114.408611
 20
153.925180
 30
0.0
 10
114.417917
 20
153.865881
 30
0.0
 10
114.436372
 20
153.748279
 30
0.0
 10
114.449222
 20
153.570929
 30
0.0
 10
114.430553
 20
153.398583
 30
0.0
 10
114.370870
 20
153.240135
 30
0.0
 10
114.281369
 20
153.101823
 30
0.0
 10
114.171561
 20
152.994704
 30
0.0
 10
114.050859
 20
152.922987
 30
0.0
 10
113.931786
 20
152.873447
 30
0.0
 10
113.850112
 20
152.845762
 30
0.0
 10
113.809047
 20
152.831842
 30
0.0
 11
114.408611
 21
153.925180
 31
0.0
 11
114.434029
 21
153.746927
 31
0.0
 11
114.443895
 21
153.570167
 31
0.0
 11
114.422661
 21
153.396394
 31
0.0
 11
114.365902
 21
153.243368
 31
0.0
 11
114.276049
 21
153.105021
 31
0.0
 11
114.158839
 21
152.992307
 31
0.0
 11
114.049879
 21
152.925893
 31
0.0
 11
113.931754
 21
152.874990
 31
0.0
 11
113.809047
 21
152.831842
 31
0.0
  0
SPLINE
  5
104
100
AcDbEntity
  8
0
 62
1
100
AcDbSpline
 70
0
 71
3
 72
16
 73
12
 74
10
 40
0.000000
 40
0.000000
 40
0.000000
 40
0.000000
 40
0.088672
 40
0.176181
 40
0.262882
 40
0.346209
 40
0.430356
 40
0.513683
 40
0.600384
 40
0.687894
 40
0.776565
 40
0.776565
 40
0.776565
 40
0.776565
 10
55.156761
 20
152.831842
 30
0.0
 10
55.127490
 20
152.835959
 30
0.0
 10
55.069330
 20
152.844137
 30
0.0
 10
54.983525
 20
152.862685
 30
0.0
 10
54.902886
 20
152.893809
 30
0.0
 10
54.832021
 20
152.941419
 30
0.0
 10
54.772572
 20
153.000867
 30
0.0
 10
54.724962
 20
153.071732
 30
0.0
 10
54.693840
 20
153.152372
 30
0.0
 10
54.675291
 20
153.238177
 30
0.0
 10
54.667110
 20
153.296336
 30
0.0
 10
54.662993
 20
153.325608
 30
0.0
 11
55.156761
 21
152.831842
 31
0.0
 11
55.069111
 21
152.845268
 31
0.0
 11
54.983845
 21
152.864952
 31
0.0
 11
54.903346
 21
152.897155
 31
0.0
 11
54.833981
 21
152.943326
 31
0.0
 11
54.774480
 21
153.002828
 31
0.0
 11
54.728308
 21
153.072192
 31
0.0
 11
54.696107
 21
153.152692
 31
0.0
 11
54.676421
 21
153.237959
 31
0.0
 11
54.662993
 21
153.325608
 31
0.0
  0
LWPOLYLINE
  5
105
100
AcDbEntity
  8
0
 62
1
100
AcDbPolyline
 90
2
 70
0
 10
113.809037
 20
152.831842
 30
0.0
 10
55.156761
 20
152.831842
 30
0.0
  0
SPLINE
  5
106
100
AcDbEntity
  8
0
 62
1
100
AcDbSpline
 70
0
 71
3
 72
16
 73
12
 74
10
 40
0.000000
 40
0.000000
 40
0.000000
 40
0.000000
 40
0.087626
 40
0.173582
 40
0.258164
 40
0.339097
 40
0.421342
 40
0.502972
 40
0.589405
 40
0.676478
 40
0.764705
 40
0.764705
 40
0.764705
 40
0.764705
 10
54.662993
 20
172.899880
 30
0.0
 10
54.663879
 20
172.929078
 30
0.0
 10
54.665632
 20
172.986917
 30
0.0
 10
54.675324
 20
173.072626
 30
0.0
 10
54.699703
 20
173.153650
 30
0.0
 10
54.743390
 20
173.224690
 30
0.0
 10
54.800148
 20
173.284037
 30
0.0
 10
54.869274
 20
173.331950
 30
0.0
 10
54.948977
 20
173.363407
 30
0.0
 10
55.034441
 20
173.381808
 30
0.0
 10
55.092347
 20
173.389682
 30
0.0
 10
55.121490
 20
173.393645
 30
0.0
 11
54.662993
 21
172.899880
 31
0.0
 11
54.666863
 21
172.987420
 31
0.0
 11
54.677949
 21
173.072658
 31
0.0
 11
54.703488
 21
173.153292
 31
0.0
 11
54.745387
 21
173.222535
 31
0.0
 11
54.802120
 21
173.282081
 31
0.0
 11
54.869384
 21
173.328330
 31
0.0
 11
54.949386
 21
173.361047
 31
0.0
 11
55.034228
 21
173.380629
 31
0.0
 11
55.121490
 21
173.393645
 31
0.0
  0
SPLINE
  5
107
100
AcDbEntity
  8
0
 62
1
100
AcDbSpline
 70
0
 71
3
 72
43
 73
39
 74
37
 40
0.000000
 40
0.000000
 40
0.000000
 40
0.000000
 40
0.193883
 40
0.384704
 40
0.572519
 40
0.757384
 40
0.945416
 40
1.134775
 40
1.327803
 40
1.519539
 40
1.710676
 40
1.902266
 40
2.094439
 40
2.286645
 40
2.473849
 40
2.660955
 40
2.848067
 40
3.040087
 40
3.232170
 40
3.424053
 40
3.615939
 40
3.808022
 40
4.000040
 40
4.187152
 40
4.374260
 40
4.561464
 40
4.753670
 40
4.945842
 40
5.137433
 40
5.328570
 40
5.520305
 40
5.713333
 40
5.902694
 40
6.090727
 40
6.275591
 40
6.463404
 40
6.654226
 40
6.848110
 40
6.848110
 40
6.848110
 40
6.848110
 10
102.099742
 20
170.924818
 30
0.0
 10
102.035913
 20
170.914656
 30
0.0
 10
101.909262
 20
170.894491
 30
0.0
 10
101.723075
 20
170.851218
 30
0.0
 10
101.547385
 20
170.781281
 30
0.0
 10
101.392372
 20
170.674269
 30
0.0
 10
101.260315
 20
170.539948
 30
0.0
 10
101.151398
 20
170.383023
 30
0.0
 10
101.069484
 20
170.209051
 30
0.0
 10
101.018235
 20
170.023058
 30
0.0
 10
101.000492
 20
169.831327
 30
0.0
 10
101.018263
 20
169.639461
 30
0.0
 10
101.069281
 20
169.453393
 30
0.0
 10
101.150968
 20
169.280166
 30
0.0
 10
101.260681
 20
169.125326
 30
0.0
 10
101.393648
 20
168.992393
 30
0.0
 10
101.548410
 20
168.882741
 30
0.0
 10
101.721481
 20
168.801019
 30
0.0
 10
101.907554
 20
168.749966
 30
0.0
 10
102.099743
 20
168.732234
 30
0.0
 10
102.291932
 20
168.749966
 30
0.0
 10
102.478005
 20
168.801018
 30
0.0
 10
102.651075
 20
168.882741
 30
0.0
 10
102.805838
 20
168.992393
 30
0.0
 10
102.938805
 20
169.125326
 30
0.0
 10
103.048519
 20
169.280166
 30
0.0
 10
103.130206
 20
169.453393
 30
0.0
 10
103.181223
 20
169.639461
 30
0.0
 10
103.198996
 20
169.831327
 30
0.0
 10
103.181252
 20
170.023058
 30
0.0
 10
103.130003
 20
170.209051
 30
0.0
 10
103.048089
 20
170.383023
 30
0.0
 10
102.939170
 20
170.539948
 30
0.0
 10
102.807113
 20
170.674270
 30
0.0
 10
102.652100
 20
170.781280
 30
0.0
 10
102.476411
 20
170.851219
 30
0.0
 10
102.290224
 20
170.894491
 30
0.0
 10
102.163572
 20
170.914656
 30
0.0
 10
102.099742
 20
170.924818
 30
0.0
 11
102.099742
 21
170.924818
 31
0.0
 11
101.908646
 21
170.892067
 31
0.0
 11
101.723388
 21
170.846324
 31
0.0
 11
101.549809
 21
170.774598
 31
0.0
 11
101.397059
 21
170.670470
 31
0.0
 11
101.264742
 21
170.536873
 31
0.0
 11
101.156624
 21
170.381414
 31
0.0
 11
101.074499
 21
170.206728
 31
0.0
 11
101.023761
 21
170.021828
 31
0.0
 11
101.006405
 21
169.831480
 31
0.0
 11
101.023761
 21
169.640678
 31
0.0
 11
101.074499
 21
169.455324
 31
0.0
 11
101.156624
 21
169.281546
 31
0.0
 11
101.264742
 21
169.128721
 31
0.0
 11
101.397059
 21
168.996429
 31
0.0
 11
101.549809
 21
168.888362
 31
0.0
 11
101.723388
 21
168.806253
 31
0.0
 11
101.908646
 21
168.755507
 31
0.0
 11
102.099742
 21
168.738143
 31
0.0
 11
102.290841
 21
168.755507
 31
0.0
 11
102.476099
 21
168.806253
 31
0.0
 11
102.649676
 21
168.888362
 31
0.0
 11
102.802426
 21
168.996429
 31
0.0
 11
102.934744
 21
169.128721
 31
0.0
 11
103.042863
 21
169.281546
 31
0.0
 11
103.124988
 21
169.455324
 31
0.0
 11
103.175726
 21
169.640678
 31
0.0
 11
103.193083
 21
169.831480
 31
0.0
 11
103.175727
 21
170.021828
 31
0.0
 11
103.124989
 21
170.206728
 31
0.0
 11
103.042863
 21
170.381414
 31
0.0
 11
102.934743
 21
170.536874
 31
0.0
 11
102.802426
 21
170.670471
 31
0.0
 11
102.649676
 21
170.774598
 31
0.0
 11
102.476099
 21
170.846324
 31
0.0
 11
102.290841
 21
170.892067
 31
0.0
 11
102.099742
 21
170.924818
 31
0.0
  0
SPLINE
  5
108
100
AcDbEntity
  8
0
 62
1
100
AcDbSpline
 70
0
 71
3
 72
43
 73
39
 74
37
 40
0.000000
 40
0.000000
 40
0.000000
 40
0.000000
 40
0.193886
 40
0.384708
 40
0.572522
 40
0.757387
 40
0.945419
 40
1.134778
 40
1.327806
 40
1.519541
 40
1.710678
 40
1.902269
 40
2.094442
 40
2.286648
 40
2.473851
 40
2.660958
 40
2.848070
 40
3.040090
 40
3.232173
 40
3.424059
 40
3.615942
 40
3.808024
 40
4.000043
 40
4.187155
 40
4.374262
 40
4.561466
 40
4.753672
 40
4.945845
 40
5.137435
 40
5.328572
 40
5.520307
 40
5.713336
 40
5.902695
 40
6.090728
 40
6.275592
 40
6.463405
 40
6.654226
 40
6.848109
 40
6.848109
 40
6.848109
 40
6.848109
 10
110.599564
 20
156.429276
 30
0.0
 10
110.535733
 20
156.419114
 30
0.0
 10
110.409081
 20
156.398949
 30
0.0
 10
110.222893
 20
156.355677
 30
0.0
 10
110.047203
 20
156.285739
 30
0.0
 10
109.892191
 20
156.178727
 30
0.0
 10
109.760134
 20
156.044406
 30
0.0
 10
109.651217
 20
155.887481
 30
0.0
 10
109.569303
 20
155.713509
 30
0.0
 10
109.518054
 20
155.527516
 30
0.0
 10
109.500311
 20
155.335785
 30
0.0
 10
109.518082
 20
155.143919
 30
0.0
 10
109.569100
 20
154.957851
 30
0.0
 10
109.650787
 20
154.784625
 30
0.0
 10
109.760500
 20
154.629785
 30
0.0
 10
109.893467
 20
154.496851
 30
0.0
 10
110.048229
 20
154.387199
 30
0.0
 10
110.221300
 20
154.305477
 30
0.0
 10
110.407374
 20
154.254424
 30
0.0
 10
110.599563
 20
154.236692
 30
0.0
 10
110.791752
 20
154.254424
 30
0.0
 10
110.977825
 20
154.305477
 30
0.0
 10
111.150894
 20
154.387199
 30
0.0
 10
111.305656
 20
154.496851
 30
0.0
 10
111.438623
 20
154.629785
 30
0.0
 10
111.548339
 20
154.784624
 30
0.0
 10
111.630024
 20
154.957851
 30
0.0
 10
111.681042
 20
155.143920
 30
0.0
 10
111.698812
 20
155.335785
 30
0.0
 10
111.681069
 20
155.527516
 30
0.0
 10
111.629821
 20
155.713509
 30
0.0
 10
111.547905
 20
155.887480
 30
0.0
 10
111.438989
 20
156.044407
 30
0.0
 10
111.306932
 20
156.178729
 30
0.0
 10
111.151919
 20
156.285738
 30
0.0
 10
110.976230
 20
156.355677
 30
0.0
 10
110.790044
 20
156.398949
 30
0.0
 10
110.663393
 20
156.419114
 30
0.0
 10
110.599564
 20
156.429276
 30
0.0
 11
110.599564
 21
156.429276
 31
0.0
 11
110.408464
 21
156.396525
 31
0.0
 11
110.223206
 21
156.350782
 31
0.0
 11
110.049627
 21
156.279056
 31
0.0
 11
109.896878
 21
156.174928
 31
0.0
 11
109.764561
 21
156.041331
 31
0.0
 11
109.656443
 21
155.885872
 31
0.0
 11
109.574318
 21
155.711186
 31
0.0
 11
109.523579
 21
155.526286
 31
0.0
 11
109.506224
 21
155.335938
 31
0.0
 11
109.523579
 21
155.145136
 31
0.0
 11
109.574318
 21
154.959782
 31
0.0
 11
109.656443
 21
154.786005
 31
0.0
 11
109.764561
 21
154.633179
 31
0.0
 11
109.896878
 21
154.500887
 31
0.0
 11
110.049627
 21
154.392821
 31
0.0
 11
110.223207
 21
154.310711
 31
0.0
 11
110.408466
 21
154.259965
 31
0.0
 11
110.599564
 21
154.242601
 31
0.0
 11
110.790660
 21
154.259965
 31
0.0
 11
110.975918
 21
154.310711
 31
0.0
 11
111.149495
 21
154.392821
 31
0.0
 11
111.302245
 21
154.500887
 31
0.0
 11
111.434562
 21
154.633179
 31
0.0
 11
111.542682
 21
154.786005
 31
0.0
 11
111.624807
 21
154.959782
 31
0.0
 11
111.675544
 21
155.145136
 31
0.0
 11
111.692899
 21
155.335938
 31
0.0
 11
111.675544
 21
155.526286
 31
0.0
 11
111.624806
 21
155.711186
 31
0.0
 11
111.542679
 21
155.885872
 31
0.0
 11
111.434561
 21
156.041332
 31
0.0
 11
111.302245
 21
156.174929
 31
0.0
 11
111.149495
 21
156.279056
 31
0.0
 11
110.975918
 21
156.350782
 31
0.0
 11
110.790660
 21
156.396525
 31
0.0
 11
110.599564
 21
156.429276
 31
0.0
  0
SPLINE
  5
109
100
AcDbEntity
  8
0
 62
1
100
AcDbSpline
 70
0
 71
3
 72
43
 73
39
 74
37
 40
0.000000
 40
0.000000
 40
0.000000
 40
0.000000
 40
0.193875
 40
0.384695
 40
0.572521
 40
0.757387
 40
0.945416
 40
1.134769
 40
1.327799
 40
1.519536
 40
1.710673
 40
1.902263
 40
2.094438
 40
2.286647
 40
2.473844
 40
2.660947
 40
2.848059
 40
3.040090
 40
3.232171
 40
3.424048
 40
3.615941
 40
3.808022
 40
4.000036
 40
4.187151
 40
4.374259
 40
4.561466
 40
4.753673
 40
4.945844
 40
5.137434
 40
5.328571
 40
5.520304
 40
5.713331
 40
5.902694
 40
6.090728
 40
6.275595
 40
6.463405
 40
6.654225
 40
6.848117
 40
6.848117
 40
6.848117
 40
6.848117
 10
102.392095
 20
87.041669
 30
0.0
 10
102.381932
 20
87.105496
 30
0.0
 10
102.361767
 20
87.232144
 30
0.0
 10
102.318492
 20
87.418330
 30
0.0
 10
102.248561
 20
87.594027
 30
0.0
 10
102.141546
 20
87.749042
 30
0.0
 10
102.007227
 20
87.881098
 30
0.0
 10
101.850295
 20
87.990001
 30
0.0
 10
101.676327
 20
88.071919
 30
0.0
 10
101.490335
 20
88.123174
 30
0.0
 10
101.298604
 20
88.140921
 30
0.0
 10
101.106737
 20
88.123146
 30
0.0
 10
100.920668
 20
88.072122
 30
0.0
 10
100.747445
 20
87.990431
 30
0.0
 10
100.592599
 20
87.880732
 30
0.0
 10
100.459668
 20
87.747766
 30
0.0
 10
100.350014
 20
87.593001
 30
0.0
 10
100.268298
 20
87.419924
 30
0.0
 10
100.217243
 20
87.233852
 30
0.0
 10
100.199511
 20
87.041663
 30
0.0
 10
100.217242
 20
86.849474
 30
0.0
 10
100.268294
 20
86.663400
 30
0.0
 10
100.350016
 20
86.490332
 30
0.0
 10
100.459668
 20
86.335569
 30
0.0
 10
100.592602
 20
86.202600
 30
0.0
 10
100.747437
 20
86.092876
 30
0.0
 10
100.920668
 20
86.011196
 30
0.0
 10
101.106738
 20
85.960185
 30
0.0
 10
101.298604
 20
85.942420
 30
0.0
 10
101.490333
 20
85.960158
 30
0.0
 10
101.676327
 20
86.011398
 30
0.0
 10
101.850302
 20
86.093307
 30
0.0
 10
102.007223
 20
86.202234
 30
0.0
 10
102.141546
 20
86.334293
 30
0.0
 10
102.248555
 20
86.489307
 30
0.0
 10
102.318496
 20
86.664994
 30
0.0
 10
102.361769
 20
86.851182
 30
0.0
 10
102.381932
 20
86.977836
 30
0.0
 10
102.392095
 20
87.041669
 30
0.0
 11
102.392095
 21
87.041669
 31
0.0
 11
102.359343
 21
87.232758
 31
0.0
 11
102.313601
 21
87.418014
 31
0.0
 11
102.241875
 21
87.591605
 31
0.0
 11
102.137747
 21
87.744356
 31
0.0
 11
102.004149
 21
87.876669
 31
0.0
 11
101.848691
 21
87.984776
 31
0.0
 11
101.674005
 21
88.066905
 31
0.0
 11
101.489104
 21
88.117648
 31
0.0
 11
101.298757
 21
88.135007
 31
0.0
 11
101.107954
 21
88.117648
 31
0.0
 11
100.922600
 21
88.066905
 31
0.0
 11
100.748820
 21
87.984776
 31
0.0
 11
100.595996
 21
87.876669
 31
0.0
 11
100.463705
 21
87.744356
 31
0.0
 11
100.355639
 21
87.591605
 31
0.0
 11
100.273529
 21
87.418014
 31
0.0
 11
100.222783
 21
87.232758
 31
0.0
 11
100.205419
 21
87.041669
 31
0.0
 11
100.222783
 21
86.850562
 31
0.0
 11
100.273529
 21
86.665306
 31
0.0
 11
100.355636
 21
86.491732
 31
0.0
 11
100.463704
 21
86.338981
 31
0.0
 11
100.595996
 21
86.206660
 31
0.0
 11
100.748820
 21
86.098535
 31
0.0
 11
100.922600
 21
86.016413
 31
0.0
 11
101.107954
 21
85.965683
 31
0.0
 11
101.298757
 21
85.948331
 31
0.0
 11
101.489104
 21
85.965683
 31
0.0
 11
101.674005
 21
86.016413
 31
0.0
 11
101.848691
 21
86.098535
 31
0.0
 11
102.004149
 21
86.206660
 31
0.0
 11
102.137747
 21
86.338981
 31
0.0
 11
102.241875
 21
86.491732
 31
0.0
 11
102.313601
 21
86.665306
 31
0.0
 11
102.359343
 21
86.850562
 31
0.0
 11
102.392095
 21
87.041669
 31
0.0
  0
SPLINE
  5
10a
100
AcDbEntity
  8
0
 62
1
100
AcDbSpline
 70
0
 71
3
 72
43
 73
39
 74
37
 40
0.000000
 40
0.000000
 40
0.000000
 40
0.000000
 40
0.193884
 40
0.384706
 40
0.572519
 40
0.757384
 40
0.945416
 40
1.134775
 40
1.327803
 40
1.519539
 40
1.710676
 40
1.902266
 40
2.094439
 40
2.286646
 40
2.473850
 40
2.660956
 40
2.848068
 40
3.040087
 40
3.232169
 40
3.424054
 40
3.615939
 40
3.808021
 40
4.000041
 40
4.187152
 40
4.374258
 40
4.561463
 40
4.753669
 40
4.945842
 40
5.137432
 40
5.328569
 40
5.520305
 40
5.713333
 40
5.902692
 40
6.090724
 40
6.275589
 40
6.463403
 40
6.654224
 40
6.848108
 40
6.848108
 40
6.848108
 40
6.848108
 10
69.591963
 20
126.789777
 30
0.0
 10
69.581801
 20
126.853607
 30
0.0
 10
69.561636
 20
126.980259
 30
0.0
 10
69.518364
 20
127.166446
 30
0.0
 10
69.448426
 20
127.342135
 30
0.0
 10
69.341415
 20
127.497147
 30
0.0
 10
69.207093
 20
127.629204
 30
0.0
 10
69.050168
 20
127.738121
 30
0.0
 10
68.876196
 20
127.820035
 30
0.0
 10
68.690203
 20
127.871284
 30
0.0
 10
68.498473
 20
127.889027
 30
0.0
 10
68.306607
 20
127.871257
 30
0.0
 10
68.120537
 20
127.820240
 30
0.0
 10
67.947312
 20
127.738551
 30
0.0
 10
67.792471
 20
127.628839
 30
0.0
 10
67.659538
 20
127.495872
 30
0.0
 10
67.549886
 20
127.341109
 30
0.0
 10
67.468164
 20
127.168039
 30
0.0
 10
67.417111
 20
126.981966
 30
0.0
 10
67.399379
 20
126.789777
 30
0.0
 10
67.417111
 20
126.597588
 30
0.0
 10
67.468164
 20
126.411515
 30
0.0
 10
67.549886
 20
126.238445
 30
0.0
 10
67.659538
 20
126.083682
 30
0.0
 10
67.792471
 20
125.950715
 30
0.0
 10
67.947312
 20
125.841003
 30
0.0
 10
68.120538
 20
125.759316
 30
0.0
 10
68.306607
 20
125.708297
 30
0.0
 10
68.498473
 20
125.690526
 30
0.0
 10
68.690203
 20
125.708269
 30
0.0
 10
68.876196
 20
125.759519
 30
0.0
 10
69.050168
 20
125.841433
 30
0.0
 10
69.207094
 20
125.950350
 30
0.0
 10
69.341416
 20
126.082406
 30
0.0
 10
69.448426
 20
126.237419
 30
0.0
 10
69.518364
 20
126.413109
 30
0.0
 10
69.561637
 20
126.599296
 30
0.0
 10
69.581801
 20
126.725947
 30
0.0
 10
69.591963
 20
126.789777
 30
0.0
 11
69.591963
 21
126.789777
 31
0.0
 11
69.559212
 21
126.980875
 31
0.0
 11
69.513469
 21
127.166133
 31
0.0
 11
69.441743
 21
127.339711
 31
0.0
 11
69.337615
 21
127.492460
 31
0.0
 11
69.204018
 21
127.624777
 31
0.0
 11
69.048559
 21
127.732895
 31
0.0
 11
68.873874
 21
127.815021
 31
0.0
 11
68.688973
 21
127.865759
 31
0.0
 11
68.498626
 21
127.883115
 31
0.0
 11
68.307823
 21
127.865759
 31
0.0
 11
68.122469
 21
127.815022
 31
0.0
 11
67.948692
 21
127.732895
 31
0.0
 11
67.795865
 21
127.624777
 31
0.0
 11
67.663574
 21
127.492460
 31
0.0
 11
67.555508
 21
127.339711
 31
0.0
 11
67.473398
 21
127.166132
 31
0.0
 11
67.422652
 21
126.980875
 31
0.0
 11
67.405288
 21
126.789777
 31
0.0
 11
67.422652
 21
126.598679
 31
0.0
 11
67.473398
 21
126.413422
 31
0.0
 11
67.555508
 21
126.239843
 31
0.0
 11
67.663574
 21
126.087094
 31
0.0
 11
67.795865
 21
125.954777
 31
0.0
 11
67.948692
 21
125.846659
 31
0.0
 11
68.122469
 21
125.764533
 31
0.0
 11
68.307823
 21
125.713795
 31
0.0
 11
68.498626
 21
125.696439
 31
0.0
 11
68.688973
 21
125.713795
 31
0.0
 11
68.873874
 21
125.764533
 31
0.0
 11
69.048559
 21
125.846659
 31
0.0
 11
69.204019
 21
125.954777
 31
0.0
 11
69.337617
 21
126.087094
 31
0.0
 11
69.441743
 21
126.239843
 31
0.0
 11
69.513469
 21
126.413422
 31
0.0
 11
69.559212
 21
126.598679
 31
0.0
 11
69.591963
 21
126.789777
 31
0.0
  0
SPLINE
  5
10b
100
AcDbEntity
  8
0
 62
1
100
AcDbSpline
 70
0
 71
3
 72
43
 73
39
 74
37
 40
0.000000
 40
0.000000
 40
0.000000
 40
0.000000
 40
0.193884
 40
0.384706
 40
0.572519
 40
0.757383
 40
0.945414
 40
1.134774
 40
1.327802
 40
1.519538
 40
1.710677
 40
1.902265
 40
2.094438
 40
2.286644
 40
2.473847
 40
2.660954
 40
2.848067
 40
3.040085
 40
3.232167
 40
3.424053
 40
3.615938
 40
3.808019
 40
4.000038
 40
4.187151
 40
4.374257
 40
4.561462
 40
4.753668
 40
4.945840
 40
5.137429
 40
5.328567
 40
5.520304
 40
5.713332
 40
5.902691
 40
6.090723
 40
6.275588
 40
6.463401
 40
6.654222
 40
6.848106
 40
6.848106
 40
6.848106
 40
6.848106
 10
145.596566
 20
123.157074
 30
0.0
 10
145.586403
 20
123.220904
 30
0.0
 10
145.566239
 20
123.347556
 30
0.0
 10
145.522967
 20
123.533743
 30
0.0
 10
145.453028
 20
123.709432
 30
0.0
 10
145.346019
 20
123.864445
 30
0.0
 10
145.211698
 20
123.996501
 30
0.0
 10
145.054773
 20
124.105419
 30
0.0
 10
144.880801
 20
124.187333
 30
0.0
 10
144.694807
 20
124.238582
 30
0.0
 10
144.503076
 20
124.256325
 30
0.0
 10
144.311211
 20
124.238554
 30
0.0
 10
144.125143
 20
124.187535
 30
0.0
 10
143.951917
 20
124.105849
 30
0.0
 10
143.797077
 20
123.996135
 30
0.0
 10
143.664143
 20
123.863169
 30
0.0
 10
143.554489
 20
123.708408
 30
0.0
 10
143.472769
 20
123.535337
 30
0.0
 10
143.421717
 20
123.349264
 30
0.0
 10
143.403984
 20
123.157074
 30
0.0
 10
143.421716
 20
122.964885
 30
0.0
 10
143.472769
 20
122.778812
 30
0.0
 10
143.554488
 20
122.605741
 30
0.0
 10
143.664142
 20
122.450980
 30
0.0
 10
143.797076
 20
122.318013
 30
0.0
 10
143.951917
 20
122.208300
 30
0.0
 10
144.125143
 20
122.126613
 30
0.0
 10
144.311211
 20
122.075595
 30
0.0
 10
144.503076
 20
122.057824
 30
0.0
 10
144.694807
 20
122.075567
 30
0.0
 10
144.880801
 20
122.126816
 30
0.0
 10
145.054773
 20
122.208730
 30
0.0
 10
145.211699
 20
122.317647
 30
0.0
 10
145.346020
 20
122.449704
 30
0.0
 10
145.453032
 20
122.604716
 30
0.0
 10
145.522967
 20
122.780406
 30
0.0
 10
145.566239
 20
122.966593
 30
0.0
 10
145.586403
 20
123.093244
 30
0.0
 10
145.596566
 20
123.157074
 30
0.0
 11
145.596566
 21
123.157074
 31
0.0
 11
145.563815
 21
123.348172
 31
0.0
 11
145.518072
 21
123.533430
 31
0.0
 11
145.446346
 21
123.707008
 31
0.0
 11
145.342220
 21
123.859758
 31
0.0
 11
145.208623
 21
123.992074
 31
0.0
 11
145.053165
 21
124.100192
 31
0.0
 11
144.878479
 21
124.182318
 31
0.0
 11
144.693577
 21
124.233056
 31
0.0
 11
144.503228
 21
124.250412
 31
0.0
 11
144.312427
 21
124.233056
 31
0.0
 11
144.127074
 21
124.182318
 31
0.0
 11
143.953297
 21
124.100192
 31
0.0
 11
143.800471
 21
123.992074
 31
0.0
 11
143.668179
 21
123.859758
 31
0.0
 11
143.560110
 21
123.707008
 31
0.0
 11
143.478003
 21
123.533430
 31
0.0
 11
143.427257
 21
123.348172
 31
0.0
 11
143.409893
 21
123.157074
 31
0.0
 11
143.427257
 21
122.965977
 31
0.0
 11
143.478003
 21
122.780719
 31
0.0
 11
143.560110
 21
122.607140
 31
0.0
 11
143.668178
 21
122.454391
 31
0.0
 11
143.800470
 21
122.322074
 31
0.0
 11
143.953297
 21
122.213956
 31
0.0
 11
144.127074
 21
122.131830
 31
0.0
 11
144.312427
 21
122.081092
 31
0.0
 11
144.503228
 21
122.063736
 31
0.0
 11
144.693577
 21
122.081092
 31
0.0
 11
144.878479
 21
122.131830
 31
0.0
 11
145.053165
 21
122.213956
 31
0.0
 11
145.208623
 21
122.322074
 31
0.0
 11
145.342221
 21
122.454391
 31
0.0
 11
145.446349
 21
122.607140
 31
0.0
 11
145.518073
 21
122.780719
 31
0.0
 11
145.563815
 21
122.965977
 31
0.0
 11
145.596566
 21
123.157074
 31
0.0
  0
SPLINE
  5
10c
100
AcDbEntity
  8
0
 62
1
100
AcDbSpline
 70
0
 71
3
 72
43
 73
39
 74
37
 40
0.000000
 40
0.000000
 40
0.000000
 40
0.000000
 40
0.193875
 40
0.384695
 40
0.572521
 40
0.757387
 40
0.945416
 40
1.134769
 40
1.327800
 40
1.519537
 40
1.710675
 40
1.902264
 40
2.094438
 40
2.286647
 40
2.473844
 40
2.660947
 40
2.848061
 40
3.040091
 40
3.232172
 40
3.424049
 40
3.615943
 40
3.808024
 40
4.000038
 40
4.187153
 40
4.374261
 40
4.561468
 40
4.753674
 40
4.945845
 40
5.137433
 40
5.328571
 40
5.520305
 40
5.713332
 40
5.902696
 40
6.090730
 40
6.275597
 40
6.463406
 40
6.654227
 40
6.848119
 40
6.848119
 40
6.848119
 40
6.848119
 10
145.631837
 20
104.147114
 30
0.0
 10
145.621675
 20
104.210941
 30
0.0
 10
145.601510
 20
104.337589
 30
0.0
 10
145.558235
 20
104.523775
 30
0.0
 10
145.488303
 20
104.699472
 30
0.0
 10
145.381289
 20
104.854487
 30
0.0
 10
145.246970
 20
104.986543
 30
0.0
 10
145.090038
 20
105.095446
 30
0.0
 10
144.916069
 20
105.177364
 30
0.0
 10
144.730076
 20
105.228619
 30
0.0
 10
144.538345
 20
105.246366
 30
0.0
 10
144.346479
 20
105.228591
 30
0.0
 10
144.160410
 20
105.177567
 30
0.0
 10
143.987188
 20
105.095876
 30
0.0
 10
143.832341
 20
104.986176
 30
0.0
 10
143.699411
 20
104.853211
 30
0.0
 10
143.589754
 20
104.698447
 30
0.0
 10
143.508040
 20
104.525369
 30
0.0
 10
143.456983
 20
104.339297
 30
0.0
 10
143.439251
 20
104.147108
 30
0.0
 10
143.456983
 20
103.954919
 30
0.0
 10
143.508036
 20
103.768845
 30
0.0
 10
143.589759
 20
103.595777
 30
0.0
 10
143.699411
 20
103.441014
 30
0.0
 10
143.832345
 20
103.308045
 30
0.0
 10
143.987180
 20
103.198321
 30
0.0
 10
144.160411
 20
103.116641
 30
0.0
 10
144.346480
 20
103.065630
 30
0.0
 10
144.538345
 20
103.047865
 30
0.0
 10
144.730074
 20
103.065602
 30
0.0
 10
144.916069
 20
103.116843
 30
0.0
 10
145.090045
 20
103.198752
 30
0.0
 10
145.246966
 20
103.307679
 30
0.0
 10
145.381289
 20
103.439738
 30
0.0
 10
145.488298
 20
103.594752
 30
0.0
 10
145.558239
 20
103.770439
 30
0.0
 10
145.601512
 20
103.956627
 30
0.0
 10
145.621675
 20
104.083281
 30
0.0
 10
145.631837
 20
104.147114
 30
0.0
 11
145.631837
 21
104.147114
 31
0.0
 11
145.599086
 21
104.338203
 31
0.0
 11
145.553344
 21
104.523459
 31
0.0
 11
145.481618
 21
104.697050
 31
0.0
 11
145.377490
 21
104.849801
 31
0.0
 11
145.243892
 21
104.982114
 31
0.0
 11
145.088434
 21
105.090221
 31
0.0
 11
144.913746
 21
105.172350
 31
0.0
 11
144.728846
 21
105.223093
 31
0.0
 11
144.538497
 21
105.240451
 31
0.0
 11
144.347696
 21
105.223093
 31
0.0
 11
144.162342
 21
105.172350
 31
0.0
 11
143.988563
 21
105.090221
 31
0.0
 11
143.835738
 21
104.982114
 31
0.0
 11
143.703447
 21
104.849801
 31
0.0
 11
143.595379
 21
104.697050
 31
0.0
 11
143.513271
 21
104.523459
 31
0.0
 11
143.462524
 21
104.338203
 31
0.0
 11
143.445159
 21
104.147114
 31
0.0
 11
143.462524
 21
103.956007
 31
0.0
 11
143.513271
 21
103.770751
 31
0.0
 11
143.595379
 21
103.597177
 31
0.0
 11
143.703447
 21
103.444425
 31
0.0
 11
143.835738
 21
103.312105
 31
0.0
 11
143.988563
 21
103.203980
 31
0.0
 11
144.162342
 21
103.121858
 31
0.0
 11
144.347696
 21
103.071128
 31
0.0
 11
144.538497
 21
103.053776
 31
0.0
 11
144.728846
 21
103.071128
 31
0.0
 11
144.913746
 21
103.121858
 31
0.0
 11
145.088434
 21
103.203980
 31
0.0
 11
145.243892
 21
103.312105
 31
0.0
 11
145.377490
 21
103.444425
 31
0.0
 11
145.481618
 21
103.597177
 31
0.0
 11
145.553344
 21
103.770751
 31
0.0
 11
145.599086
 21
103.956007
 31
0.0
 11
145.631837
 21
104.147114
 31
0.0
  0
LWPOLYLINE
  5
10d
100
AcDbEntity
  8
0
 62
1
100
AcDbPolyline
 90
2
 70
0
 10
54.662993
 20
153.325608
 30
0.0
 10
54.662993
 20
172.899880
 30
0.0
  0
SPLINE
  5
10e
100
AcDbEntity
  8
0
 62
1
100
AcDbSpline
 70
0
 71
3
 72
43
 73
39
 74
37
 40
0.000000
 40
0.000000
 40
0.000000
 40
0.000000
 40
0.193875
 40
0.384695
 40
0.572520
 40
0.757386
 40
0.945416
 40
1.134769
 40
1.327798
 40
1.519536
 40
1.710675
 40
1.902263
 40
2.094437
 40
2.286644
 40
2.473841
 40
2.660945
 40
2.848058
 40
3.040089
 40
3.232170
 40
3.424046
 40
3.615940
 40
3.808021
 40
4.000036
 40
4.187149
 40
4.374258
 40
4.561466
 40
4.753671
 40
4.945841
 40
5.137429
 40
5.328568
 40
5.520302
 40
5.713328
 40
5.902692
 40
6.090726
 40
6.275593
 40
6.463402
 40
6.654222
 40
6.848114
 40
6.848114
 40
6.848114
 40
6.848114
 10
55.872336
 20
79.282498
 30
0.0
 10
55.862174
 20
79.346325
 30
0.0
 10
55.842009
 20
79.472973
 30
0.0
 10
55.798736
 20
79.659160
 30
0.0
 10
55.728805
 20
79.834856
 30
0.0
 10
55.621790
 20
79.989871
 30
0.0
 10
55.487471
 20
80.121927
 30
0.0
 10
55.330539
 20
80.230830
 30
0.0
 10
55.156571
 20
80.312749
 30
0.0
 10
54.970577
 20
80.364003
 30
0.0
 10
54.778846
 20
80.381750
 30
0.0
 10
54.586980
 20
80.363975
 30
0.0
 10
54.400912
 20
80.312951
 30
0.0
 10
54.227691
 20
80.231260
 30
0.0
 10
54.072845
 20
80.121561
 30
0.0
 10
53.939913
 20
79.988596
 30
0.0
 10
53.830258
 20
79.833831
 30
0.0
 10
53.748542
 20
79.660753
 30
0.0
 10
53.697487
 20
79.474681
 30
0.0
 10
53.679754
 20
79.282492
 30
0.0
 10
53.697486
 20
79.090303
 30
0.0
 10
53.748538
 20
78.904229
 30
0.0
 10
53.830264
 20
78.731162
 30
0.0
 10
53.939913
 20
78.576398
 30
0.0
 10
54.072847
 20
78.443429
 30
0.0
 10
54.227683
 20
78.333707
 30
0.0
 10
54.400913
 20
78.252025
 30
0.0
 10
54.586982
 20
78.201015
 30
0.0
 10
54.778846
 20
78.183249
 30
0.0
 10
54.970576
 20
78.200987
 30
0.0
 10
55.156571
 20
78.252227
 30
0.0
 10
55.330546
 20
78.334136
 30
0.0
 10
55.487467
 20
78.443063
 30
0.0
 10
55.621790
 20
78.575123
 30
0.0
 10
55.728799
 20
78.730136
 30
0.0
 10
55.798739
 20
78.905823
 30
0.0
 10
55.842011
 20
79.092011
 30
0.0
 10
55.862174
 20
79.218665
 30
0.0
 10
55.872336
 20
79.282498
 30
0.0
 11
55.872336
 21
79.282498
 31
0.0
 11
55.839585
 21
79.473587
 31
0.0
 11
55.793844
 21
79.658843
 31
0.0
 11
55.722119
 21
79.832434
 31
0.0
 11
55.617991
 21
79.985185
 31
0.0
 11
55.484393
 21
80.117498
 31
0.0
 11
55.328935
 21
80.225605
 31
0.0
 11
55.154249
 21
80.307734
 31
0.0
 11
54.969347
 21
80.358477
 31
0.0
 11
54.778998
 21
80.375836
 31
0.0
 11
54.588197
 21
80.358477
 31
0.0
 11
54.402844
 21
80.307734
 31
0.0
 11
54.229067
 21
80.225605
 31
0.0
 11
54.076242
 21
80.117498
 31
0.0
 11
53.943950
 21
79.985185
 31
0.0
 11
53.835883
 21
79.832434
 31
0.0
 11
53.753773
 21
79.658843
 31
0.0
 11
53.703027
 21
79.473587
 31
0.0
 11
53.685663
 21
79.282498
 31
0.0
 11
53.703027
 21
79.091391
 31
0.0
 11
53.753773
 21
78.906135
 31
0.0
 11
53.835883
 21
78.732562
 31
0.0
 11
53.943949
 21
78.579810
 31
0.0
 11
54.076240
 21
78.447490
 31
0.0
 11
54.229067
 21
78.339364
 31
0.0
 11
54.402844
 21
78.257242
 31
0.0
 11
54.588197
 21
78.206512
 31
0.0
 11
54.778998
 21
78.189160
 31
0.0
 11
54.969347
 21
78.206512
 31
0.0
 11
55.154249
 21
78.257242
 31
0.0
 11
55.328935
 21
78.339364
 31
0.0
 11
55.484393
 21
78.447490
 31
0.0
 11
55.617991
 21
78.579810
 31
0.0
 11
55.722119
 21
78.732562
 31
0.0
 11
55.793844
 21
78.906135
 31
0.0
 11
55.839585
 21
79.091391
 31
0.0
 11
55.872336
 21
79.282498
 31
0.0
  0
LWPOLYLINE
  5
10f
100
AcDbEntity
  8
0
 62
1
100
AcDbPolyline
 90
2
 70
0
 10
162.490400
 20
141.779084
 30
0.0
 10
125.493260
 20
141.779084
 30
0.0
  0
SPLINE
  5
110
100
AcDbEntity
  8
0
 62
1
100
AcDbSpline
 70
0
 71
3
 72
16
 73
12
 74
10
 40
0.000000
 40
0.000000
 40
0.000000
 40
0.000000
 40
0.088669
 40
0.176178
 40
0.262880
 40
0.346207
 40
0.430355
 40
0.513679
 40
0.600382
 40
0.687891
 40
0.776561
 40
0.776561
 40
0.776561
 40
0.776561
 10
125.493260
 20
141.779084
 30
0.0
 10
125.463989
 20
141.783200
 30
0.0
 10
125.405830
 20
141.791379
 30
0.0
 10
125.320026
 20
141.809927
 30
0.0
 10
125.239387
 20
141.841054
 30
0.0
 10
125.168520
 20
141.888662
 30
0.0
 10
125.109072
 20
141.948110
 30
0.0
 10
125.061462
 20
142.018975
 30
0.0
 10
125.030341
 20
142.099615
 30
0.0
 10
125.011792
 20
142.185419
 30
0.0
 10
125.003613
 20
142.243578
 30
0.0
 10
124.999497
 20
142.272850
 30
0.0
 11
125.493260
 21
141.779084
 31
0.0
 11
125.405613
 21
141.792510
 31
0.0
 11
125.320347
 21
141.812195
 31
0.0
 11
125.239847
 21
141.844399
 31
0.0
 11
125.170481
 21
141.890570
 31
0.0
 11
125.110980
 21
141.950071
 31
0.0
 11
125.064809
 21
142.019434
 31
0.0
 11
125.032608
 21
142.099935
 31
0.0
 11
125.012923
 21
142.185201
 31
0.0
 11
124.999497
 21
142.272850
 31
0.0
  0
LWPOLYLINE
  5
111
100
AcDbEntity
  8
0
 62
1
100
AcDbPolyline
 90
2
 70
0
 10
124.999497
 20
142.272850
 30
0.0
 10
124.999497
 20
146.011359
 30
0.0
  0
SPLINE
  5
112
100
AcDbEntity
  8
0
 62
1
100
AcDbSpline
 70
0
 71
3
 72
16
 73
12
 74
10
 40
0.000000
 40
0.000000
 40
0.000000
 40
0.000000
 40
0.088671
 40
0.176179
 40
0.262883
 40
0.346210
 40
0.430357
 40
0.513684
 40
0.600384
 40
0.687892
 40
0.776563
 40
0.776563
 40
0.776563
 40
0.776563
 10
124.999497
 20
146.011359
 30
0.0
 10
124.995381
 20
146.040631
 30
0.0
 10
124.987202
 20
146.098790
 30
0.0
 10
124.968654
 20
146.184595
 30
0.0
 10
124.937528
 20
146.265234
 30
0.0
 10
124.889918
 20
146.336100
 30
0.0
 10
124.830470
 20
146.395548
 30
0.0
 10
124.759605
 20
146.443159
 30
0.0
 10
124.678965
 20
146.474280
 30
0.0
 10
124.593161
 20
146.492828
 30
0.0
 10
124.535003
 20
146.501008
 30
0.0
 10
124.505731
 20
146.505125
 30
0.0
 11
124.999497
 21
146.011359
 31
0.0
 11
124.986071
 21
146.099008
 31
0.0
 11
124.966386
 21
146.184273
 31
0.0
 11
124.934182
 21
146.264774
 31
0.0
 11
124.888010
 21
146.334139
 31
0.0
 11
124.828509
 21
146.393641
 31
0.0
 11
124.759144
 21
146.439812
 31
0.0
 11
124.678645
 21
146.472013
 31
0.0
 11
124.593380
 21
146.491697
 31
0.0
 11
124.505731
 21
146.505125
 31
0.0
  0
LWPOLYLINE
  5
113
100
AcDbEntity
  8
0
 62
1
100
AcDbPolyline
 90
2
 70
0
 10
124.505731
 20
146.505125
 30
0.0
 10
106.518563
 20
146.505125
 30
0.0
  0
SPLINE
  5
114
100
AcDbEntity
  8
0
 62
1
100
AcDbSpline
 70
0
 71
3
 72
16
 73
12
 74
10
 40
0.000000
 40
0.000000
 40
0.000000
 40
0.000000
 40
0.088672
 40
0.176181
 40
0.262882
 40
0.346209
 40
0.430356
 40
0.513683
 40
0.600385
 40
0.687894
 40
0.776565
 40
0.776565
 40
0.776565
 40
0.776565
 10
106.518563
 20
146.505125
 30
0.0
 10
106.489291
 20
146.509241
 30
0.0
 10
106.431131
 20
146.517419
 30
0.0
 10
106.345326
 20
146.535967
 30
0.0
 10
106.264687
 20
146.567091
 30
0.0
 10
106.193822
 20
146.614701
 30
0.0
 10
106.134374
 20
146.674149
 30
0.0
 10
106.086763
 20
146.745015
 30
0.0
 10
106.055641
 20
146.825655
 30
0.0
 10
106.037092
 20
146.911460
 30
0.0
 10
106.028912
 20
146.969619
 30
0.0
 10
106.024795
 20
146.998890
 30
0.0
 11
106.518563
 21
146.505125
 31
0.0
 11
106.430913
 21
146.518550
 31
0.0
 11
106.345647
 21
146.538235
 31
0.0
 11
106.265147
 21
146.570437
 31
0.0
 11
106.195782
 21
146.616609
 31
0.0
 11
106.136281
 21
146.676110
 31
0.0
 11
106.090110
 21
146.745475
 31
0.0
 11
106.057908
 21
146.825976
 31
0.0
 11
106.038223
 21
146.911242
 31
0.0
 11
106.024795
 21
146.998890
 31
0.0
  0
LWPOLYLINE
  5
115
100
AcDbEntity
  8
0
 62
1
100
AcDbPolyline
 90
2
 70
0
 10
106.024795
 20
146.998890
 30
0.0
 10
106.024795
 20
148.233304
 30
0.0
  0
SPLINE
  5
116
100
AcDbEntity
  8
0
 62
1
100
AcDbSpline
 70
0
 71
3
 72
16
 73
12
 74
10
 40
0.000000
 40
0.000000
 40
0.000000
 40
0.000000
 40
0.088671
 40
0.176179
 40
0.262881
 40
0.346208
 40
0.430357
 40
0.513684
 40
0.600385
 40
0.687893
 40
0.776563
 40
0.776563
 40
0.776563
 40
0.776563
 10
106.024795
 20
148.233304
 30
0.0
 10
106.020678
 20
148.262575
 30
0.0
 10
106.012500
 20
148.320734
 30
0.0
 10
105.993952
 20
148.406538
 30
0.0
 10
105.962832
 20
148.487179
 30
0.0
 10
105.915220
 20
148.558045
 30
0.0
 10
105.855771
 20
148.617492
 30
0.0
 10
105.784905
 20
148.665103
 30
0.0
 10
105.704265
 20
148.696225
 30
0.0
 10
105.618461
 20
148.714772
 30
0.0
 10
105.560303
 20
148.722952
 30
0.0
 10
105.531032
 20
148.727069
 30
0.0
 11
106.024795
 21
148.233304
 31
0.0
 11
106.011369
 21
148.320952
 31
0.0
 11
105.991685
 21
148.406218
 31
0.0
 11
105.959485
 21
148.486719
 31
0.0
 11
105.913313
 21
148.556084
 31
0.0
 11
105.853810
 21
148.615585
 31
0.0
 11
105.784444
 21
148.661757
 31
0.0
 11
105.703945
 21
148.693957
 31
0.0
 11
105.618679
 21
148.713642
 31
0.0
 11
105.531032
 21
148.727069
 31
0.0
  0
LWPOLYLINE
  5
117
100
AcDbEntity
  8
0
 62
1
100
AcDbPolyline
 90
2
 70
0
 10
105.531032
 20
148.727069
 30
0.0
 10
88.531394
 20
148.727069
 30
0.0
  0
SPLINE
  5
118
100
AcDbEntity
  8
0
 62
1
100
AcDbSpline
 70
0
 71
3
 72
16
 73
12
 74
10
 40
0.000000
 40
0.000000
 40
0.000000
 40
0.000000
 40
0.088672
 40
0.176181
 40
0.262882
 40
0.346209
 40
0.430356
 40
0.513683
 40
0.600385
 40
0.687894
 40
0.776565
 40
0.776565
 40
0.776565
 40
0.776565
 10
88.531394
 20
148.727069
 30
0.0
 10
88.502122
 20
148.722953
 30
0.0
 10
88.443962
 20
148.714775
 30
0.0
 10
88.358158
 20
148.696227
 30
0.0
 10
88.277518
 20
148.665103
 30
0.0
 10
88.206653
 20
148.617493
 30
0.0
 10
88.147205
 20
148.558044
 30
0.0
 10
88.099594
 20
148.487179
 30
0.0
 10
88.068473
 20
148.406538
 30
0.0
 10
88.049923
 20
148.320734
 30
0.0
 10
88.041743
 20
148.262575
 30
0.0
 10
88.037626
 20
148.233304
 30
0.0
 11
88.531394
 21
148.727069
 31
0.0
 11
88.443744
 21
148.713643
 31
0.0
 11
88.358478
 21
148.693959
 31
0.0
 11
88.277979
 21
148.661757
 31
0.0
 11
88.208614
 21
148.615585
 31
0.0
 11
88.149112
 21
148.556084
 31
0.0
 11
88.102941
 21
148.486719
 31
0.0
 11
88.070740
 21
148.406218
 31
0.0
 11
88.051054
 21
148.320952
 31
0.0
 11
88.037626
 21
148.233304
 31
0.0
  0
LWPOLYLINE
  5
119
100
AcDbEntity
  8
0
 62
1
100
AcDbPolyline
 90
2
 70
0
 10
88.037626
 20
148.233304
 30
0.0
 10
88.037626
 20
146.998890
 30
0.0
  0
SPLINE
  5
11a
100
AcDbEntity
  8
0
 62
1
100
AcDbSpline
 70
0
 71
3
 72
16
 73
12
 74
10
 40
0.000000
 40
0.000000
 40
0.000000
 40
0.000000
 40
0.088671
 40
0.176179
 40
0.262881
 40
0.346208
 40
0.430357
 40
0.513684
 40
0.600385
 40
0.687893
 40
0.776563
 40
0.776563
 40
0.776563
 40
0.776563
 10
88.037626
 20
146.998890
 30
0.0
 10
88.033510
 20
146.969619
 30
0.0
 10
88.025331
 20
146.911460
 30
0.0
 10
88.006784
 20
146.825655
 30
0.0
 10
87.975663
 20
146.745014
 30
0.0
 10
87.928051
 20
146.674149
 30
0.0
 10
87.868602
 20
146.614701
 30
0.0
 10
87.797736
 20
146.567091
 30
0.0
 10
87.717096
 20
146.535969
 30
0.0
 10
87.631293
 20
146.517421
 30
0.0
 10
87.573134
 20
146.509242
 30
0.0
 10
87.543863
 20
146.505125
 30
0.0
 11
88.037626
 21
146.998890
 31
0.0
 11
88.024200
 21
146.911242
 31
0.0
 11
88.004516
 21
146.825976
 31
0.0
 11
87.972316
 21
146.745475
 31
0.0
 11
87.926144
 21
146.676110
 31
0.0
 11
87.866641
 21
146.616609
 31
0.0
 11
87.797276
 21
146.570437
 31
0.0
 11
87.716776
 21
146.538237
 31
0.0
 11
87.631510
 21
146.518552
 31
0.0
 11
87.543863
 21
146.505125
 31
0.0
  0
LWPOLYLINE
  5
11b
100
AcDbEntity
  8
0
 62
1
100
AcDbPolyline
 90
2
 70
0
 10
87.543863
 20
146.505125
 30
0.0
 10
69.556694
 20
146.505125
 30
0.0
  0
SPLINE
  5
11c
100
AcDbEntity
  8
0
 62
1
100
AcDbSpline
 70
0
 71
3
 72
16
 73
12
 74
10
 40
0.000000
 40
0.000000
 40
0.000000
 40
0.000000
 40
0.088671
 40
0.176180
 40
0.262882
 40
0.346209
 40
0.430356
 40
0.513683
 40
0.600385
 40
0.687894
 40
0.776564
 40
0.776564
 40
0.776564
 40
0.776564
 10
69.556694
 20
146.505125
 30
0.0
 10
69.527423
 20
146.501008
 30
0.0
 10
69.469263
 20
146.492830
 30
0.0
 10
69.383459
 20
146.474282
 30
0.0
 10
69.302819
 20
146.443158
 30
0.0
 10
69.231953
 20
146.395548
 30
0.0
 10
69.172505
 20
146.336100
 30
0.0
 10
69.124894
 20
146.265235
 30
0.0
 10
69.093774
 20
146.184594
 30
0.0
 10
69.075226
 20
146.098790
 30
0.0
 10
69.067046
 20
146.040631
 30
0.0
 10
69.062929
 20
146.011359
 30
0.0
 11
69.556694
 21
146.505125
 31
0.0
 11
69.469045
 21
146.491699
 31
0.0
 11
69.383779
 21
146.472014
 31
0.0
 11
69.303279
 21
146.439812
 31
0.0
 11
69.233914
 21
146.393641
 31
0.0
 11
69.174413
 21
146.334139
 31
0.0
 11
69.128241
 21
146.264774
 31
0.0
 11
69.096041
 21
146.184273
 31
0.0
 11
69.076356
 21
146.099008
 31
0.0
 11
69.062929
 21
146.011359
 31
0.0
  0
LWPOLYLINE
  5
11d
100
AcDbEntity
  8
0
 62
1
100
AcDbPolyline
 90
2
 70
0
 10
69.062929
 20
146.011359
 30
0.0
 10
69.062929
 20
144.494794
 30
0.0
  0
SPLINE
  5
11e
100
AcDbEntity
  8
0
 62
1
100
AcDbSpline
 70
0
 71
3
 72
16
 73
12
 74
10
 40
0.000000
 40
0.000000
 40
0.000000
 40
0.000000
 40
0.088671
 40
0.176179
 40
0.262883
 40
0.346208
 40
0.430356
 40
0.513682
 40
0.600383
 40
0.687891
 40
0.776564
 40
0.776564
 40
0.776564
 40
0.776564
 10
69.062929
 20
144.494794
 30
0.0
 10
69.058813
 20
144.465523
 30
0.0
 10
69.050634
 20
144.407363
 30
0.0
 10
69.032086
 20
144.321559
 30
0.0
 10
69.000960
 20
144.240919
 30
0.0
 10
68.953350
 20
144.170054
 30
0.0
 10
68.893902
 20
144.110606
 30
0.0
 10
68.823036
 20
144.062997
 30
0.0
 10
68.742397
 20
144.031875
 30
0.0
 10
68.656592
 20
144.013326
 30
0.0
 10
68.598433
 20
144.005146
 30
0.0
 10
68.569161
 20
144.001029
 30
0.0
 11
69.062929
 21
144.494794
 31
0.0
 11
69.049503
 21
144.407146
 31
0.0
 11
69.029818
 21
144.321880
 31
0.0
 11
68.997614
 21
144.241379
 31
0.0
 11
68.951442
 21
144.172015
 31
0.0
 11
68.891941
 21
144.112514
 31
0.0
 11
68.822576
 21
144.066344
 31
0.0
 11
68.742077
 21
144.034142
 31
0.0
 11
68.656811
 21
144.014457
 31
0.0
 11
68.569161
 21
144.001029
 31
0.0
  0
LWPOLYLINE
  5
11f
100
AcDbEntity
  8
0
 62
1
100
AcDbPolyline
 90
2
 70
0
 10
68.569161
 20
144.001029
 30
0.0
 10
50.581992
 20
144.001029
 30
0.0
  0
SPLINE
  5
120
100
AcDbEntity
  8
0
 62
1
100
AcDbSpline
 70
0
 71
3
 72
16
 73
12
 74
10
 40
0.000000
 40
0.000000
 40
0.000000
 40
0.000000
 40
0.088669
 40
0.176178
 40
0.262880
 40
0.346206
 40
0.430354
 40
0.513680
 40
0.600382
 40
0.687891
 40
0.776562
 40
0.776562
 40
0.776562
 40
0.776562
 10
50.581992
 20
144.001029
 30
0.0
 10
50.552721
 20
143.996912
 30
0.0
 10
50.494562
 20
143.988734
 30
0.0
 10
50.408759
 20
143.970186
 30
0.0
 10
50.328119
 20
143.939062
 30
0.0
 10
50.257254
 20
143.891452
 30
0.0
 10
50.197806
 20
143.832003
 30
0.0
 10
50.150194
 20
143.761138
 30
0.0
 10
50.119074
 20
143.680498
 30
0.0
 10
50.100524
 20
143.594694
 30
0.0
 10
50.092346
 20
143.536535
 30
0.0
 10
50.088229
 20
143.507263
 30
0.0
 11
50.581992
 21
144.001029
 31
0.0
 11
50.494345
 21
143.987603
 31
0.0
 11
50.409079
 21
143.967918
 31
0.0
 11
50.328579
 21
143.935716
 31
0.0
 11
50.259215
 21
143.889544
 31
0.0
 11
50.199713
 21
143.830042
 31
0.0
 11
50.153542
 21
143.760678
 31
0.0
 11
50.121341
 21
143.680177
 31
0.0
 11
50.101656
 21
143.594911
 31
0.0
 11
50.088229
 21
143.507263
 31
0.0
  0
LWPOLYLINE
  5
121
100
AcDbEntity
  8
0
 62
1
100
AcDbPolyline
 90
2
 70
0
 10
50.088229
 20
143.507263
 30
0.0
 10
50.088229
 20
142.272850
 30
0.0
  0
SPLINE
  5
122
100
AcDbEntity
  8
0
 62
1
100
AcDbSpline
 70
0
 71
3
 72
16
 73
12
 74
10
 40
0.000000
 40
0.000000
 40
0.000000
 40
0.000000
 40
0.090698
 40
0.180762
 40
0.270499
 40
0.355962
 40
0.441794
 40
0.526926
 40
0.608876
 40
0.691359
 40
0.774551
 40
0.774551
 40
0.774551
 40
0.774551
 10
50.088229
 20
142.272850
 30
0.0
 10
50.080823
 20
142.243536
 30
0.0
 10
50.066062
 20
142.185115
 30
0.0
 10
50.038921
 20
142.099025
 30
0.0
 10
50.002301
 20
142.018152
 30
0.0
 10
49.953162
 20
141.945844
 30
0.0
 10
49.894232
 20
141.883447
 30
0.0
 10
49.826597
 20
141.832324
 30
0.0
 10
49.751901
 20
141.794923
 30
0.0
 10
49.674083
 20
141.767124
 30
0.0
 10
49.621079
 20
141.751607
 30
0.0
 10
49.594464
 20
141.743815
 30
0.0
 11
50.088229
 21
142.272850
 31
0.0
 11
50.065160
 21
142.185134
 31
0.0
 11
50.037187
 21
142.099525
 31
0.0
 11
49.999403
 21
142.018130
 31
0.0
 11
49.951460
 21
141.947382
 31
0.0
 11
49.892450
 21
141.885052
 31
0.0
 11
49.824363
 21
141.833948
 31
0.0
 11
49.751450
 21
141.796539
 31
0.0
 11
49.674073
 21
141.767967
 31
0.0
 11
49.594464
 21
141.743815
 31
0.0
  0
LWPOLYLINE
  5
123
100
AcDbEntity
  8
0
 62
1
100
AcDbPolyline
 90
2
 70
0
 10
49.594464
 20
141.743815
 30
0.0
 10
29.843845
 20
141.743815
 30
0.0
  0
SPLINE
  5
124
100
AcDbEntity
  8
0
 62
1
100
AcDbSpline
 70
0
 71
3
 72
16
 73
12
 74
10
 40
0.000000
 40
0.000000
 40
0.000000
 40
0.000000
 40
0.088669
 40
0.176178
 40
0.262880
 40
0.346206
 40
0.430354
 40
0.513680
 40
0.600383
 40
0.687891
 40
0.776562
 40
0.776562
 40
0.776562
 40
0.776562
 10
29.843845
 20
141.743815
 30
0.0
 10
29.814574
 20
141.739699
 30
0.0
 10
29.756415
 20
141.731520
 30
0.0
 10
29.670611
 20
141.712973
 30
0.0
 10
29.589972
 20
141.681849
 30
0.0
 10
29.519106
 20
141.634239
 30
0.0
 10
29.459658
 20
141.574791
 30
0.0
 10
29.412047
 20
141.503925
 30
0.0
 10
29.380926
 20
141.423284
 30
0.0
 10
29.362377
 20
141.337480
 30
0.0
 10
29.354198
 20
141.279321
 30
0.0
 10
29.350082
 20
141.250050
 30
0.0
 11
29.843845
 21
141.743815
 31
0.0
 11
29.756198
 21
141.730390
 31
0.0
 11
29.670932
 21
141.710705
 31
0.0
 11
29.590432
 21
141.678503
 31
0.0
 11
29.521067
 21
141.632331
 31
0.0
 11
29.461566
 21
141.572830
 31
0.0
 11
29.415394
 21
141.503465
 31
0.0
 11
29.383193
 21
141.422964
 31
0.0
 11
29.363508
 21
141.337698
 31
0.0
 11
29.350082
 21
141.250050
 31
0.0
  0
LWPOLYLINE
  5
125
100
AcDbEntity
  8
0
 62
1
100
AcDbPolyline
 90
2
 70
0
 10
29.350082
 20
141.250050
 30
0.0
 10
29.350082
 20
82.315628
 30
0.0
  0
SPLINE
  5
126
100
AcDbEntity
  8
0
 62
1
100
AcDbSpline
 70
0
 71
3
 72
16
 73
12
 74
10
 40
0.000000
 40
0.000000
 40
0.000000
 40
0.000000
 40
0.268726
 40
0.537122
 40
0.805292
 40
1.073113
 40
1.341250
 40
1.609232
 40
1.880240
 40
2.151350
 40
2.422690
 40
2.422690
 40
2.422690
 40
2.422690
 10
29.350082
 20
82.315628
 30
0.0
 10
29.358615
 20
82.226459
 30
0.0
 10
29.375671
 20
82.048231
 30
0.0
 10
29.407415
 20
81.781638
 30
0.0
 10
29.451503
 20
81.516991
 30
0.0
 10
29.513913
 20
81.256084
 30
0.0
 10
29.593579
 20
81.000026
 30
0.0
 10
29.690060
 20
80.748666
 30
0.0
 10
29.802841
 20
80.503159
 30
0.0
 10
29.926554
 20
80.261828
 30
0.0
 10
30.012478
 20
80.102729
 30
0.0
 10
30.055458
 20
80.023146
 30
0.0
 11
29.350082
 21
82.315628
 31
0.0
 11
29.376712
 21
82.048225
 31
0.0
 11
29.409490
 21
81.781838
 31
0.0
 11
29.454582
 21
81.517486
 31
0.0
 11
29.516763
 21
81.256983
 31
0.0
 11
29.596336
 21
81.000926
 31
0.0
 11
29.692320
 21
80.750724
 31
0.0
 11
29.804569
 21
80.504055
 31
0.0
 11
29.927375
 21
80.262354
 31
0.0
 11
30.055458
 21
80.023146
 31
0.0
  0
LWPOLYLINE
  5
127
100
AcDbEntity
  8
0
 62
1
100
AcDbPolyline
 90
3
 70
0
 10
30.055458
 20
80.023146
 30
0.0
 10
43.281318
 20
56.992516
 30
0.0
 10
43.281318
 20
56.957247
 30
0.0
  0
SPLINE
  5
128
100
AcDbEntity
  8
0
 62
1
100
AcDbSpline
 70
0
 71
3
 72
16
 73
12
 74
10
 40
0.000000
 40
0.000000
 40
0.000000
 40
0.000000
 40
0.153530
 40
0.305431
 40
0.456418
 40
0.603401
 40
0.751409
 40
0.897630
 40
1.046107
 40
1.196261
 40
1.348562
 40
1.348562
 40
1.348562
 40
1.348562
 10
43.281318
 20
56.957247
 30
0.0
 10
43.317049
 20
56.920604
 30
0.0
 10
43.388132
 20
56.847706
 30
0.0
 10
43.501831
 20
56.746245
 30
0.0
 10
43.627779
 20
56.663215
 30
0.0
 10
43.767185
 20
56.608660
 30
0.0
 10
43.912578
 20
56.581600
 30
0.0
 10
44.061330
 20
56.583375
 30
0.0
 10
44.206368
 20
56.618895
 30
0.0
 10
44.345275
 20
56.677034
 30
0.0
 10
44.435189
 20
56.722659
 30
0.0
 10
44.480465
 20
56.745634
 30
0.0
 11
43.281318
 21
56.957247
 31
0.0
 11
43.389775
 21
56.848581
 31
0.0
 11
43.504409
 21
56.748916
 31
0.0
 11
43.631396
 21
56.667238
 31
0.0
 11
43.768106
 21
56.613253
 31
0.0
 11
43.913649
 21
56.586355
 31
0.0
 11
44.059849
 21
56.588868
 31
0.0
 11
44.204493
 21
56.622385
 31
0.0
 11
44.343811
 21
56.678391
 31
0.0
 11
44.480465
 21
56.745634
 31
0.0
  0
LWPOLYLINE
  5
129
100
AcDbEntity
  8
0
 62
1
100
AcDbPolyline
 90
2
 70
0
 10
44.480465
 20
56.745634
 30
0.0
 10
59.222890
 20
65.245453
 30
0.0
  0
SPLINE
  5
12a
100
AcDbEntity
  8
0
 62
1
100
AcDbSpline
 70
0
 71
3
 72
16
 73
12
 74
10
 40
0.000000
 40
0.000000
 40
0.000000
 40
0.000000
 40
0.034947
 40
0.069882
 40
0.104776
 40
0.134934
 40
0.165139
 40
0.195344
 40
0.227722
 40
0.260103
 40
0.292493
 40
0.292493
 40
0.292493
 40
0.292493
 10
59.222890
 20
65.245453
 30
0.0
 10
59.233629
 20
65.249966
 30
0.0
 10
59.255104
 20
65.258990
 30
0.0
 10
59.287540
 20
65.271949
 30
0.0
 10
59.319006
 20
65.282993
 30
0.0
 10
59.349563
 20
65.291680
 30
0.0
 10
59.378953
 20
65.298617
 30
0.0
 10
59.409346
 20
65.304410
 30
0.0
 10
59.440684
 20
65.308926
 30
0.0
 10
59.472836
 20
65.312793
 30
0.0
 10
59.494305
 20
65.315083
 30
0.0
 10
59.505041
 20
65.316229
 30
0.0
 11
59.222890
 21
65.245453
 31
0.0
 11
59.255147
 21
65.258896
 31
0.0
 11
59.287642
 21
65.271723
 31
0.0
 11
59.320611
 21
65.283156
 31
0.0
 11
59.349604
 21
65.291456
 31
0.0
 11
59.378999
 21
65.298404
 31
0.0
 11
59.408669
 21
65.304058
 31
0.0
 11
59.440698
 21
65.308801
 31
0.0
 11
59.472841
 21
65.312720
 31
0.0
 11
59.505041
 21
65.316229
 31
0.0
  0
LWPOLYLINE
  5
12b
100
AcDbEntity
  8
0
 62
1
100
AcDbPolyline
 90
2
 70
0
 10
59.505041
 20
65.315990
 30
0.0
 10
96.290562
 20
70.782679
 30
0.0
  0
SPLINE
  5
12c
100
AcDbEntity
  8
0
 62
1
100
AcDbSpline
 70
0
 71
3
 72
16
 73
12
 74
10
 40
0.000000
 40
0.000000
 40
0.000000
 40
0.000000
 40
0.044423
 40
0.088588
 40
0.132476
 40
0.174444
 40
0.216663
 40
0.258998
 40
0.301420
 40
0.343668
 40
0.385860
 40
0.385860
 40
0.385860
 40
0.385860
 10
96.290562
 20
70.782679
 30
0.0
 10
96.305303
 20
70.784089
 30
0.0
 10
96.334700
 20
70.786899
 30
0.0
 10
96.378467
 20
70.792938
 30
0.0
 10
96.420830
 20
70.802535
 30
0.0
 10
96.461041
 20
70.817150
 30
0.0
 10
96.499241
 20
70.835110
 30
0.0
 10
96.536321
 20
70.855559
 30
0.0
 10
96.572474
 20
70.877601
 30
0.0
 10
96.608061
 20
70.900448
 30
0.0
 10
96.631528
 20
70.915989
 30
0.0
 10
96.643254
 20
70.923755
 30
0.0
 11
96.290562
 21
70.782679
 31
0.0
 11
96.334753
 21
70.787216
 31
0.0
 11
96.378457
 21
70.793576
 31
0.0
 11
96.421190
 21
70.803581
 31
0.0
 11
96.460711
 21
70.817704
 31
0.0
 11
96.498997
 21
70.835496
 31
0.0
 11
96.536140
 21
70.855810
 31
0.0
 11
96.572435
 21
70.877770
 31
0.0
 11
96.608022
 21
70.900542
 31
0.0
 11
96.643254
 21
70.923755
 31
0.0
  0
LWPOLYLINE
  5
12d
100
AcDbEntity
  8
0
 62
1
100
AcDbPolyline
 90
2
 70
0
 10
96.643254
 20
70.923755
 30
0.0
 10
107.188670
 20
85.384028
 30
0.0
  0
SPLINE
  5
12e
100
AcDbEntity
  8
0
 62
1
100
AcDbSpline
 70
0
 71
3
 72
16
 73
12
 74
10
 40
0.000000
 40
0.000000
 40
0.000000
 40
0.000000
 40
0.045540
 40
0.090880
 40
0.136059
 40
0.177218
 40
0.218524
 40
0.259772
 40
0.303517
 40
0.347295
 40
0.391186
 40
0.391186
 40
0.391186
 40
0.391186
 10
107.188670
 20
85.384028
 30
0.0
 10
107.200019
 20
85.394110
 30
0.0
 10
107.222666
 20
85.414231
 30
0.0
 10
107.257825
 20
85.442920
 30
0.0
 10
107.294180
 20
85.467682
 30
0.0
 10
107.332090
 20
85.487212
 30
0.0
 10
107.370658
 20
85.502021
 30
0.0
 10
107.411400
 20
85.512932
 30
0.0
 10
107.453860
 20
85.519664
 30
0.0
 10
107.497548
 20
85.523146
 30
0.0
 10
107.526745
 20
85.524380
 30
0.0
 10
107.541362
 20
85.524998
 30
0.0
 11
107.188670
 21
85.384028
 31
0.0
 11
107.222926
 21
85.414034
 31
0.0
 11
107.258268
 21
85.442436
 31
0.0
 11
107.295784
 21
85.467610
 31
0.0
 11
107.332350
 21
85.486506
 31
0.0
 11
107.370900
 21
85.501339
 31
0.0
 11
107.410738
 21
85.512033
 31
0.0
 11
107.453908
 21
85.519099
 31
0.0
 11
107.497524
 21
85.522871
 31
0.0
 11
107.541362
 21
85.524998
 31
0.0
  0
LWPOLYLINE
  5
12f
100
AcDbEntity
  8
0
 62
1
100
AcDbPolyline
 90
5
 70
0
 10
107.541362
 20
85.525104
 30
0.0
 10
162.560937
 20
85.525104
 30
0.0
 10
162.596206
 20
85.525104
 30
0.0
 10
162.560937
 20
85.525104
 30
0.0
 10
162.560937
 20
85.525104
 30
0.0
  0
SPLINE
  5
130
100
AcDbEntity
  8
0
 62
1
100
AcDbSpline
 70
0
 71
3
 72
16
 73
12
 74
10
 40
0.000000
 40
0.000000
 40
0.000000
 40
0.000000
 40
0.088676
 40
0.176187
 40
0.262863
 40
0.346193
 40
0.430341
 40
0.513673
 40
0.600369
 40
0.687880
 40
0.776557
 40
0.776557
 40
0.776557
 40
0.776557
 10
162.560937
 20
85.525104
 30
0.0
 10
162.590209
 20
85.529237
 30
0.0
 10
162.648366
 20
85.537448
 30
0.0
 10
162.734153
 20
85.556020
 30
0.0
 10
162.814828
 20
85.587039
 30
0.0
 10
162.885672
 20
85.634678
 30
0.0
 10
162.945129
 20
85.694117
 30
0.0
 10
162.992733
 20
85.764988
 30
0.0
 10
163.023859
 20
85.845627
 30
0.0
 10
163.042405
 20
85.931433
 30
0.0
 10
163.050584
 20
85.989595
 30
0.0
 10
163.054700
 20
86.018869
 30
0.0
 11
162.560937
 21
85.525104
 31
0.0
 11
162.648584
 21
85.538576
 31
0.0
 11
162.733850
 21
85.558269
 31
0.0
 11
162.814350
 21
85.590403
 31
0.0
 11
162.883716
 21
85.636579
 31
0.0
 11
162.943218
 21
85.696079
 31
0.0
 11
162.989390
 21
85.765451
 31
0.0
 11
163.021590
 21
85.845945
 31
0.0
 11
163.041274
 21
85.931214
 31
0.0
 11
163.054700
 21
86.018869
 31
0.0
  0
LWPOLYLINE
  5
131
100
AcDbEntity
  8
0
 62
1
100
AcDbPolyline
 90
4
 70
0
 10
163.054700
 20
86.018869
 30
0.0
 10
163.054700
 20
86.830055
 30
0.0
 10
163.054700
 20
86.830055
 30
0.0
 10
163.054700
 20
108.908423
 30
0.0
  0
SPLINE
  5
132
100
AcDbEntity
  8
0
 62
1
100
AcDbSpline
 70
0
 71
3
 72
34
 73
30
 74
28
 40
0.000000
 40
0.000000
 40
0.000000
 40
0.000000
 40
0.026283
 40
0.054442
 40
0.086228
 40
0.121594
 40
0.153344
 40
0.172432
 40
0.190499
 40
0.259868
 40
0.344980
 40
0.439534
 40
0.513555
 40
0.583659
 40
0.663922
 40
0.747737
 40
0.826395
 40
0.891885
 40
0.962454
 40
1.057842
 40
1.105584
 40
1.142901
 40
1.151905
 40
1.162441
 40
1.179723
 40
1.198930
 40
1.216214
 40
1.231566
 40
1.245954
 40
1.245954
 40
1.245954
 40
1.245954
 10
163.054700
 20
108.908423
 30
0.0
 10
163.054677
 20
108.899669
 30
0.0
 10
163.054629
 20
108.881537
 30
0.0
 10
163.054612
 20
108.852671
 30
0.0
 10
163.054678
 20
108.821456
 30
0.0
 10
163.054925
 20
108.786215
 30
0.0
 10
163.054898
 20
108.764301
 30
0.0
 10
163.055135
 20
108.725927
 30
0.0
 10
163.050770
 20
108.782139
 30
0.0
 10
163.052495
 20
108.823255
 30
0.0
 10
163.053307
 20
108.913343
 30
0.0
 10
163.063110
 20
108.995646
 30
0.0
 10
163.090666
 20
109.071877
 30
0.0
 10
163.136448
 20
109.131876
 30
0.0
 10
163.193644
 20
109.185242
 30
0.0
 10
163.258061
 20
109.234393
 30
0.0
 10
163.322028
 20
109.275492
 30
0.0
 10
163.385680
 20
109.308762
 30
0.0
 10
163.461733
 20
109.327519
 30
0.0
 10
163.530779
 20
109.331848
 30
0.0
 10
163.595595
 20
109.332180
 30
0.0
 10
163.618381
 20
109.332650
 30
0.0
 10
163.647818
 20
109.331519
 30
0.0
 10
163.626875
 20
109.331611
 30
0.0
 10
163.615091
 20
109.331586
 30
0.0
 10
163.595875
 20
109.331649
 30
0.0
 10
163.578910
 20
109.331664
 30
0.0
 10
163.563165
 20
109.331660
 30
0.0
 10
163.553260
 20
109.331648
 30
0.0
 10
163.548468
 20
109.331643
 30
0.0
 11
163.054700
 21
108.908423
 31
0.0
 11
163.054639
 21
108.882140
 31
0.0
 11
163.054625
 21
108.853982
 31
0.0
 11
163.054703
 21
108.822195
 31
0.0
 11
163.054882
 21
108.786829
 31
0.0
 11
163.054969
 21
108.755079
 31
0.0
 11
163.054703
 21
108.735994
 31
0.0
 11
163.053062
 21
108.753987
 31
0.0
 11
163.052128
 21
108.823350
 31
0.0
 11
163.054703
 21
108.908423
 31
0.0
 11
163.067977
 21
109.002040
 31
0.0
 11
163.094486
 21
109.071152
 31
0.0
 11
163.135689
 21
109.127868
 31
0.0
 11
163.193607
 21
109.183436
 31
0.0
 11
163.260088
 21
109.234477
 31
0.0
 11
163.326403
 21
109.276779
 31
0.0
 11
163.385188
 21
109.305645
 31
0.0
 11
163.453413
 21
109.323683
 31
0.0
 11
163.548468
 21
109.331643
 31
0.0
 11
163.596206
 21
109.332284
 31
0.0
 11
163.633522
 21
109.332044
 31
0.0
 11
163.642517
 21
109.331643
 31
0.0
 11
163.631981
 21
109.331582
 31
0.0
 11
163.614700
 21
109.331601
 31
0.0
 11
163.595493
 21
109.331643
 31
0.0
 11
163.578208
 21
109.331661
 31
0.0
 11
163.562856
 21
109.331657
 31
0.0
 11
163.548468
 21
109.331643
 31
0.0
  0
LWPOLYLINE
  5
133
100
AcDbEntity
  8
0
 62
1
100
AcDbPolyline
 90
2
 70
0
 10
163.548468
 20
109.331643
 30
0.0
 10
181.923596
 20
109.331643
 30
0.0
  0
SPLINE
  5
134
100
AcDbEntity
  8
0
 62
1
100
AcDbSpline
 70
0
 71
3
 72
16
 73
12
 74
10
 40
0.000000
 40
0.000000
 40
0.000000
 40
0.000000
 40
0.085083
 40
0.169705
 40
0.254366
 40
0.342827
 40
0.431426
 40
0.518425
 40
0.610941
 40
0.705195
 40
0.801352
 40
0.801352
 40
0.801352
 40
0.801352
 10
181.923596
 20
109.331643
 30
0.0
 10
181.951692
 20
109.335517
 30
0.0
 10
182.007733
 20
109.343244
 30
0.0
 10
182.090981
 20
109.359885
 30
0.0
 10
182.172821
 20
109.387187
 30
0.0
 10
182.249626
 20
109.429661
 30
0.0
 10
182.318039
 20
109.485811
 30
0.0
 10
182.374854
 20
109.555864
 30
0.0
 10
182.412963
 20
109.639704
 30
0.0
 10
182.436434
 20
109.731258
 30
0.0
 10
182.447195
 20
109.793816
 30
0.0
 10
182.452630
 20
109.825408
 30
0.0
 11
181.923596
 21
109.331643
 31
0.0
 11
182.007759
 21
109.344114
 31
0.0
 11
182.090556
 21
109.361596
 31
0.0
 11
182.170618
 21
109.389118
 31
0.0
 11
182.248066
 21
109.431864
 31
0.0
 11
182.316345
 21
109.488326
 31
0.0
 11
182.370620
 21
109.556319
 31
0.0
 11
182.410143
 21
109.639967
 31
0.0
 11
182.435042
 21
109.730873
 31
0.0
 11
182.452630
 21
109.825408
 31
0.0
  0
LWPOLYLINE
  5
135
100
AcDbEntity
  8
0
 62
1
100
AcDbPolyline
 90
2
 70
0
 10
182.452630
 20
109.825408
 30
0.0
 10
182.417358
 20
127.283542
 30
0.0
  0
SPLINE
  5
136
100
AcDbEntity
  8
0
 62
1
100
AcDbSpline
 70
0
 71
3
 72
16
 73
12
 74
10
 40
0.000000
 40
0.000000
 40
0.000000
 40
0.000000
 40
0.094344
 40
0.187065
 40
0.278546
 40
0.359879
 40
0.442196
 40
0.523776
 40
0.609858
 40
0.696696
 40
0.784694
 40
0.784694
 40
0.784694
 40
0.784694
 10
182.417358
 20
127.283542
 30
0.0
 10
182.413780
 20
127.314789
 30
0.0
 10
182.406685
 20
127.376745
 30
0.0
 10
182.388664
 20
127.468039
 30
0.0
 10
182.356428
 20
127.551310
 30
0.0
 10
182.307215
 20
127.621513
 30
0.0
 10
182.247723
 20
127.678259
 30
0.0
 10
182.176884
 20
127.723339
 30
0.0
 10
182.096380
 20
127.751956
 30
0.0
 10
182.010699
 20
127.767817
 30
0.0
 10
181.952758
 20
127.774130
 30
0.0
 10
181.923596
 20
127.777308
 30
0.0
 11
182.417358
 21
127.283542
 31
0.0
 11
182.405350
 21
127.377119
 31
0.0
 11
182.385937
 21
127.467785
 31
0.0
 11
182.351734
 21
127.552632
 31
0.0
 11
182.305396
 21
127.619473
 31
0.0
 11
182.245858
 21
127.676318
 31
0.0
 11
182.176852
 21
127.719832
 31
0.0
 11
182.096102
 21
127.749658
 31
0.0
 11
182.010949
 21
127.766682
 31
0.0
 11
181.923596
 21
127.777308
 31
0.0
  0
LWPOLYLINE
  5
137
100
AcDbEntity
  8
0
 62
1
100
AcDbPolyline
 90
2
 70
0
 10
181.923596
 20
127.777308
 30
0.0
 10
163.442661
 20
127.777308
 30
0.0
  0
SPLINE
  5
138
100
AcDbEntity
  8
0
 62
1
100
AcDbSpline
 70
0
 71
3
 72
16
 73
12
 74
10
 40
0.000000
 40
0.000000
 40
0.000000
 40
0.000000
 40
0.078563
 40
0.155672
 40
0.231852
 40
0.290882
 40
0.350353
 40
0.408894
 40
0.471283
 40
0.534694
 40
0.599332
 40
0.599332
 40
0.599332
 40
0.599332
 10
163.442661
 20
127.777308
 30
0.0
 10
163.416515
 20
127.778827
 30
0.0
 10
163.364707
 20
127.781838
 30
0.0
 10
163.288035
 20
127.793077
 30
0.0
 10
163.220531
 20
127.816677
 30
0.0
 10
163.165889
 20
127.852547
 30
0.0
 10
163.123460
 20
127.894068
 30
0.0
 10
163.089687
 20
127.944501
 30
0.0
 10
163.069329
 20
128.003085
 30
0.0
 10
163.059447
 20
128.065937
 30
0.0
 10
163.056293
 20
128.108508
 30
0.0
 10
163.054700
 20
128.129997
 30
0.0
 11
163.442661
 21
127.777308
 31
0.0
 11
163.364306
 21
127.783021
 31
0.0
 11
163.288223
 21
127.795553
 31
0.0
 11
163.216678
 21
127.821721
 31
0.0
 11
163.167219
 21
127.853944
 31
0.0
 11
163.124809
 21
127.895635
 31
0.0
 11
163.092583
 21
127.944509
 31
0.0
 11
163.071254
 21
128.003139
 31
0.0
 11
163.060367
 21
128.065608
 31
0.0
 11
163.054700
 21
128.129997
 31
0.0
  0
LWPOLYLINE
  5
139
100
AcDbEntity
  8
0
 62
1
100
AcDbPolyline
 90
2
 70
0
 10
163.054700
 20
128.129997
 30
0.0
 10
163.054700
 20
141.250050
 30
0.0
  0
SPLINE
  5
13a
100
AcDbEntity
  8
0
 62
1
100
AcDbSpline
 70
0
 71
3
 72
16
 73
12
 74
10
 40
0.000000
 40
0.000000
 40
0.000000
 40
0.000000
 40
0.098837
 40
0.196684
 40
0.294005
 40
0.384098
 40
0.474691
 40
0.564189
 40
0.659177
 40
0.755317
 40
0.852883
 40
0.852883
 40
0.852883
 40
0.852883
 10
163.054700
 20
141.250050
 30
0.0
 10
163.047731
 20
141.282252
 30
0.0
 10
163.033862
 20
141.346335
 30
0.0
 10
163.006611
 20
141.440632
 30
0.0
 10
162.967206
 20
141.527774
 30
0.0
 10
162.912604
 20
141.603355
 30
0.0
 10
162.847310
 20
141.666057
 30
0.0
 10
162.769853
 20
141.716404
 30
0.0
 10
162.681387
 20
141.748800
 30
0.0
 10
162.586793
 20
141.767399
 30
0.0
 10
162.522688
 20
141.775170
 30
0.0
 10
162.490400
 20
141.779084
 30
0.0
 11
163.054700
 21
141.250050
 31
0.0
 11
163.032691
 21
141.346405
 31
0.0
 11
163.004333
 21
141.440052
 31
0.0
 11
162.963263
 21
141.528283
 31
0.0
 11
162.910669
 21
141.601431
 31
0.0
 11
162.845227
 21
141.664076
 31
0.0
 11
162.769937
 21
141.712465
 31
0.0
 11
162.681164
 21
141.746258
 31
0.0
 11
162.587103
 21
141.766147
 31
0.0
 11
162.490400
 21
141.779084
 31
0.0
  0
LWPOLYLINE
  5
13b
100
AcDbEntity
  8
0
 62
1
100
AcDbPolyline
 90
3
 70
1
 10
162.490400
 20
141.779084
 30
0.0
 10
162.490400
 20
141.779084
 30
0.0
 10
162.525666
 20
141.779084
 30
0.0
  0
SPLINE
  5
13c
100
AcDbEntity
  8
0
 62
1
100
AcDbSpline
 70
0
 71
3
 72
16
 73
12
 74
10
 40
0.000000
 40
0.000000
 40
0.000000
 40
0.000000
 40
0.088671
 40
0.176179
 40
0.262883
 40
0.346208
 40
0.430356
 40
0.513684
 40
0.600384
 40
0.687892
 40
0.776563
 40
0.776563
 40
0.776563
 40
0.776563
 10
87.363737
 20
233.454071
 30
0.0
 10
87.393008
 20
233.458187
 30
0.0
 10
87.451167
 20
233.466366
 30
0.0
 10
87.536972
 20
233.484914
 30
0.0
 10
87.617611
 20
233.516040
 30
0.0
 10
87.688477
 20
233.563649
 30
0.0
 10
87.747925
 20
233.623098
 30
0.0
 10
87.795536
 20
233.693962
 30
0.0
 10
87.826656
 20
233.774603
 30
0.0
 10
87.845205
 20
233.860406
 30
0.0
 10
87.853385
 20
233.918565
 30
0.0
 10
87.857502
 20
233.947836
 30
0.0
 11
87.363737
 21
233.454071
 31
0.0
 11
87.451385
 21
233.467497
 31
0.0
 11
87.536651
 21
233.487182
 31
0.0
 11
87.617152
 21
233.519386
 31
0.0
 11
87.686516
 21
233.565556
 31
0.0
 11
87.746017
 21
233.625058
 31
0.0
 11
87.792190
 21
233.694424
 31
0.0
 11
87.824389
 21
233.774923
 31
0.0
 11
87.844074
 21
233.860188
 31
0.0
 11
87.857502
 21
233.947836
 31
0.0
  0
LWPOLYLINE
  5
13d
100
AcDbEntity
  8
0
 62
1
100
AcDbPolyline
 90
2
 70
0
 10
87.857502
 20
233.947836
 30
0.0
 10
87.857502
 20
237.721618
 30
0.0
  0
SPLINE
  5
13e
100
AcDbEntity
  8
0
 62
1
100
AcDbSpline
 70
0
 71
3
 72
16
 73
12
 74
10
 40
0.000000
 40
0.000000
 40
0.000000
 40
0.000000
 40
0.088669
 40
0.176178
 40
0.262880
 40
0.346207
 40
0.430355
 40
0.513680
 40
0.600383
 40
0.687892
 40
0.776562
 40
0.776562
 40
0.776562
 40
0.776562
 10
87.857502
 20
237.721618
 30
0.0
 10
87.861618
 20
237.750889
 30
0.0
 10
87.869797
 20
237.809047
 30
0.0
 10
87.888344
 20
237.894851
 30
0.0
 10
87.919468
 20
237.975491
 30
0.0
 10
87.967078
 20
238.046356
 30
0.0
 10
88.026526
 20
238.105805
 30
0.0
 10
88.097392
 20
238.153415
 30
0.0
 10
88.178033
 20
238.184536
 30
0.0
 10
88.263837
 20
238.203085
 30
0.0
 10
88.321996
 20
238.211264
 30
0.0
 10
88.351267
 20
238.215380
 30
0.0
 11
87.857502
 21
237.721618
 31
0.0
 11
87.870928
 21
237.809265
 31
0.0
 11
87.890612
 21
237.894530
 31
0.0
 11
87.922814
 21
237.975030
 31
0.0
 11
87.968986
 21
238.044396
 31
0.0
 11
88.028487
 21
238.103898
 31
0.0
 11
88.097852
 21
238.150068
 31
0.0
 11
88.178353
 21
238.182269
 31
0.0
 11
88.263619
 21
238.201954
 31
0.0
 11
88.351267
 21
238.215380
 31
0.0
  0
LWPOLYLINE
  5
13f
100
AcDbEntity
  8
0
 62
1
100
AcDbPolyline
 90
2
 70
0
 10
88.351267
 20
238.215380
 30
0.0
 10
106.338436
 20
238.215380
 30
0.0
  0
SPLINE
  5
140
100
AcDbEntity
  8
0
 62
1
100
AcDbSpline
 70
0
 71
3
 72
16
 73
12
 74
10
 40
0.000000
 40
0.000000
 40
0.000000
 40
0.000000
 40
0.088671
 40
0.176179
 40
0.262881
 40
0.346207
 40
0.430356
 40
0.513683
 40
0.600383
 40
0.687891
 40
0.776562
 40
0.776562
 40
0.776562
 40
0.776562
 10
106.338436
 20
238.215380
 30
0.0
 10
106.367707
 20
238.219497
 30
0.0
 10
106.425866
 20
238.227675
 30
0.0
 10
106.511671
 20
238.246223
 30
0.0
 10
106.592308
 20
238.277350
 30
0.0
 10
106.663176
 20
238.324958
 30
0.0
 10
106.722624
 20
238.384407
 30
0.0
 10
106.770236
 20
238.455272
 30
0.0
 10
106.801355
 20
238.535913
 30
0.0
 10
106.819904
 20
238.621716
 30
0.0
 10
106.828085
 20
238.679874
 30
0.0
 10
106.832202
 20
238.709146
 30
0.0
 11
106.338436
 21
238.215380
 31
0.0
 11
106.426084
 21
238.228806
 31
0.0
 11
106.511350
 21
238.248491
 31
0.0
 11
106.591849
 21
238.280695
 31
0.0
 11
106.661214
 21
238.326866
 31
0.0
 11
106.720717
 21
238.386368
 31
0.0
 11
106.766889
 21
238.455733
 31
0.0
 11
106.799088
 21
238.536232
 31
0.0
 11
106.818774
 21
238.621498
 31
0.0
 11
106.832202
 21
238.709146
 31
0.0
  0
LWPOLYLINE
  5
141
100
AcDbEntity
  8
0
 62
1
100
AcDbPolyline
 90
2
 70
0
 10
106.832202
 20
238.709146
 30
0.0
 10
106.832202
 20
239.943562
 30
0.0
  0
SPLINE
  5
142
100
AcDbEntity
  8
0
 62
1
100
AcDbSpline
 70
0
 71
3
 72
16
 73
12
 74
10
 40
0.000000
 40
0.000000
 40
0.000000
 40
0.000000
 40
0.088669
 40
0.176178
 40
0.262880
 40
0.346207
 40
0.430355
 40
0.513680
 40
0.600383
 40
0.687891
 40
0.776562
 40
0.776562
 40
0.776562
 40
0.776562
 10
106.832202
 20
239.943562
 30
0.0
 10
106.836318
 20
239.972833
 30
0.0
 10
106.844496
 20
240.030992
 30
0.0
 10
106.863044
 20
240.116795
 30
0.0
 10
106.894168
 20
240.197435
 30
0.0
 10
106.941778
 20
240.268301
 30
0.0
 10
107.001227
 20
240.327749
 30
0.0
 10
107.072092
 20
240.375359
 30
0.0
 10
107.152732
 20
240.406480
 30
0.0
 10
107.238536
 20
240.425030
 30
0.0
 10
107.296696
 20
240.433208
 30
0.0
 10
107.325967
 20
240.437325
 30
0.0
 11
106.832202
 21
239.943562
 31
0.0
 11
106.845627
 21
240.031209
 31
0.0
 11
106.865312
 21
240.116475
 31
0.0
 11
106.897514
 21
240.196975
 31
0.0
 11
106.943686
 21
240.266340
 31
0.0
 11
107.003188
 21
240.325842
 31
0.0
 11
107.072552
 21
240.372012
 31
0.0
 11
107.153053
 21
240.404213
 31
0.0
 11
107.238319
 21
240.423898
 31
0.0
 11
107.325967
 21
240.437325
 31
0.0
  0
LWPOLYLINE
  5
143
100
AcDbEntity
  8
0
 62
1
100
AcDbPolyline
 90
2
 70
0
 10
107.325967
 20
240.437325
 30
0.0
 10
124.360874
 20
240.437325
 30
0.0
  0
SPLINE
  5
144
100
AcDbEntity
  8
0
 62
1
100
AcDbSpline
 70
0
 71
3
 72
16
 73
12
 74
10
 40
0.000000
 40
0.000000
 40
0.000000
 40
0.000000
 40
0.088671
 40
0.176178
 40
0.262880
 40
0.346206
 40
0.430355
 40
0.513682
 40
0.600383
 40
0.687892
 40
0.776561
 40
0.776561
 40
0.776561
 40
0.776561
 10
124.360874
 20
240.437325
 30
0.0
 10
124.390145
 20
240.433209
 30
0.0
 10
124.448304
 20
240.425030
 30
0.0
 10
124.534108
 20
240.406482
 30
0.0
 10
124.614747
 20
240.375358
 30
0.0
 10
124.685613
 20
240.327750
 30
0.0
 10
124.745062
 20
240.268301
 30
0.0
 10
124.792674
 20
240.197436
 30
0.0
 10
124.823793
 20
240.116794
 30
0.0
 10
124.842342
 20
240.030992
 30
0.0
 10
124.850522
 20
239.972833
 30
0.0
 10
124.854639
 20
239.943562
 30
0.0
 11
124.360874
 21
240.437325
 31
0.0
 11
124.448522
 21
240.423899
 31
0.0
 11
124.533787
 21
240.404215
 31
0.0
 11
124.614286
 21
240.372012
 31
0.0
 11
124.683652
 21
240.325842
 31
0.0
 11
124.743155
 21
240.266340
 31
0.0
 11
124.789327
 21
240.196975
 31
0.0
 11
124.821526
 21
240.116475
 31
0.0
 11
124.841211
 21
240.031209
 31
0.0
 11
124.854639
 21
239.943562
 31
0.0
  0
LWPOLYLINE
  5
145
100
AcDbEntity
  8
0
 62
1
100
AcDbPolyline
 90
2
 70
0
 10
124.854639
 20
239.943562
 30
0.0
 10
124.854639
 20
238.709146
 30
0.0
  0
SPLINE
  5
146
100
AcDbEntity
  8
0
 62
1
100
AcDbSpline
 70
0
 71
3
 72
16
 73
12
 74
10
 40
0.000000
 40
0.000000
 40
0.000000
 40
0.000000
 40
0.088671
 40
0.176178
 40
0.262880
 40
0.346207
 40
0.430355
 40
0.513680
 40
0.600383
 40
0.687892
 40
0.776563
 40
0.776563
 40
0.776563
 40
0.776563
 10
124.854639
 20
238.709146
 30
0.0
 10
124.858755
 20
238.679874
 30
0.0
 10
124.866934
 20
238.621716
 30
0.0
 10
124.885482
 20
238.535912
 30
0.0
 10
124.916606
 20
238.455273
 30
0.0
 10
124.964216
 20
238.384407
 30
0.0
 10
125.023663
 20
238.324958
 30
0.0
 10
125.094530
 20
238.277349
 30
0.0
 10
125.175170
 20
238.246227
 30
0.0
 10
125.260974
 20
238.227678
 30
0.0
 10
125.319133
 20
238.219497
 30
0.0
 10
125.348405
 20
238.215380
 30
0.0
 11
124.854639
 21
238.709146
 31
0.0
 11
124.868065
 21
238.621498
 31
0.0
 11
124.887749
 21
238.536232
 31
0.0
 11
124.919952
 21
238.455733
 31
0.0
 11
124.966123
 21
238.386368
 31
0.0
 11
125.025624
 21
238.326866
 31
0.0
 11
125.094989
 21
238.280695
 31
0.0
 11
125.175490
 21
238.248494
 31
0.0
 11
125.260756
 21
238.228808
 31
0.0
 11
125.348405
 21
238.215380
 31
0.0
  0
LWPOLYLINE
  5
147
100
AcDbEntity
  8
0
 62
1
100
AcDbPolyline
 90
2
 70
0
 10
125.348405
 20
238.215380
 30
0.0
 10
143.335573
 20
238.215380
 30
0.0
  0
SPLINE
  5
148
100
AcDbEntity
  8
0
 62
1
100
AcDbSpline
 70
0
 71
3
 72
16
 73
12
 74
10
 40
0.000000
 40
0.000000
 40
0.000000
 40
0.000000
 40
0.088671
 40
0.176179
 40
0.262882
 40
0.346207
 40
0.430355
 40
0.513683
 40
0.600383
 40
0.687892
 40
0.776562
 40
0.776562
 40
0.776562
 40
0.776562
 10
143.335573
 20
238.215380
 30
0.0
 10
143.364845
 20
238.211264
 30
0.0
 10
143.423004
 20
238.203086
 30
0.0
 10
143.508808
 20
238.184538
 30
0.0
 10
143.589448
 20
238.153415
 30
0.0
 10
143.660314
 20
238.105805
 30
0.0
 10
143.719762
 20
238.046356
 30
0.0
 10
143.767373
 20
237.975491
 30
0.0
 10
143.798493
 20
237.894850
 30
0.0
 10
143.817042
 20
237.809047
 30
0.0
 10
143.825222
 20
237.750889
 30
0.0
 10
143.829339
 20
237.721618
 30
0.0
 11
143.335573
 21
238.215380
 31
0.0
 11
143.423222
 21
238.201955
 31
0.0
 11
143.508488
 21
238.182270
 31
0.0
 11
143.588989
 21
238.150068
 31
0.0
 11
143.658352
 21
238.103898
 31
0.0
 11
143.717854
 21
238.044396
 31
0.0
 11
143.764026
 21
237.975030
 31
0.0
 11
143.796226
 21
237.894530
 31
0.0
 11
143.815911
 21
237.809265
 31
0.0
 11
143.829339
 21
237.721618
 31
0.0
  0
LWPOLYLINE
  5
149
100
AcDbEntity
  8
0
 62
1
100
AcDbPolyline
 90
2
 70
0
 10
143.829339
 20
237.721618
 30
0.0
 10
143.829339
 20
236.205050
 30
0.0
  0
SPLINE
  5
14a
100
AcDbEntity
  8
0
 62
1
100
AcDbSpline
 70
0
 71
3
 72
16
 73
12
 74
10
 40
0.000000
 40
0.000000
 40
0.000000
 40
0.000000
 40
0.088671
 40
0.176178
 40
0.262880
 40
0.346207
 40
0.430355
 40
0.513680
 40
0.600383
 40
0.687892
 40
0.776562
 40
0.776562
 40
0.776562
 40
0.776562
 10
143.829339
 20
236.205050
 30
0.0
 10
143.833455
 20
236.175778
 30
0.0
 10
143.841633
 20
236.117620
 30
0.0
 10
143.860181
 20
236.031816
 30
0.0
 10
143.891305
 20
235.951177
 30
0.0
 10
143.938915
 20
235.880311
 30
0.0
 10
143.998363
 20
235.820862
 30
0.0
 10
144.069229
 20
235.773253
 30
0.0
 10
144.149870
 20
235.742131
 30
0.0
 10
144.235674
 20
235.723582
 30
0.0
 10
144.293833
 20
235.715403
 30
0.0
 10
144.323104
 20
235.711287
 30
0.0
 11
143.829339
 21
236.205050
 31
0.0
 11
143.842764
 21
236.117402
 31
0.0
 11
143.862449
 21
236.032136
 31
0.0
 11
143.894651
 21
235.951637
 31
0.0
 11
143.940823
 21
235.882272
 31
0.0
 11
144.000324
 21
235.822770
 31
0.0
 11
144.069689
 21
235.776599
 31
0.0
 11
144.150190
 21
235.744398
 31
0.0
 11
144.235456
 21
235.724713
 31
0.0
 11
144.323104
 21
235.711287
 31
0.0
  0
LWPOLYLINE
  5
14b
100
AcDbEntity
  8
0
 62
1
100
AcDbPolyline
 90
2
 70
0
 10
144.323104
 20
235.711287
 30
0.0
 10
162.310273
 20
235.711287
 30
0.0
  0
SPLINE
  5
14c
100
AcDbEntity
  8
0
 62
1
100
AcDbSpline
 70
0
 71
3
 72
16
 73
12
 74
10
 40
0.000000
 40
0.000000
 40
0.000000
 40
0.000000
 40
0.088671
 40
0.176179
 40
0.262881
 40
0.346208
 40
0.430356
 40
0.513683
 40
0.600383
 40
0.687892
 40
0.776565
 40
0.776565
 40
0.776565
 40
0.776565
 10
162.310273
 20
235.711287
 30
0.0
 10
162.339544
 20
235.707171
 30
0.0
 10
162.397703
 20
235.698992
 30
0.0
 10
162.483507
 20
235.680444
 30
0.0
 10
162.564146
 20
235.649317
 30
0.0
 10
162.635012
 20
235.601708
 30
0.0
 10
162.694461
 20
235.542260
 30
0.0
 10
162.742073
 20
235.471395
 30
0.0
 10
162.773192
 20
235.390754
 30
0.0
 10
162.791741
 20
235.304951
 30
0.0
 10
162.799921
 20
235.246791
 30
0.0
 10
162.804038
 20
235.217519
 30
0.0
 11
162.310273
 21
235.711287
 31
0.0
 11
162.397921
 21
235.697861
 31
0.0
 11
162.483186
 21
235.678176
 31
0.0
 11
162.563686
 21
235.645972
 31
0.0
 11
162.633051
 21
235.599800
 31
0.0
 11
162.692554
 21
235.540299
 31
0.0
 11
162.738726
 21
235.470934
 31
0.0
 11
162.770925
 21
235.390435
 31
0.0
 11
162.790610
 21
235.305169
 31
0.0
 11
162.804038
 21
235.217519
 31
0.0
  0
LWPOLYLINE
  5
14d
100
AcDbEntity
  8
0
 62
1
100
AcDbPolyline
 90
4
 70
0
 10
162.804038
 20
235.217519
 30
0.0
 10
162.804038
 20
233.983105
 30
0.0
 10
162.804038
 20
217.724118
 30
0.0
 10
162.804038
 20
185.453021
 30
0.0
  0
SPLINE
  5
14e
100
AcDbEntity
  8
0
 62
1
100
AcDbSpline
 70
0
 71
3
 72
16
 73
12
 74
10
 40
0.000000
 40
0.000000
 40
0.000000
 40
0.000000
 40
0.130632
 40
0.260988
 40
0.391164
 40
0.520151
 40
0.649373
 40
0.778424
 40
0.904725
 40
1.031127
 40
1.157734
 40
1.157734
 40
1.157734
 40
1.157734
 10
162.804038
 20
185.453021
 30
0.0
 10
162.814915
 20
185.410857
 30
0.0
 10
162.836646
 20
185.326617
 30
0.0
 10
162.873070
 20
185.201379
 30
0.0
 10
162.917000
 20
185.079048
 30
0.0
 10
162.971821
 20
184.961559
 30
0.0
 10
163.036576
 20
184.849708
 30
0.0
 10
163.110298
 20
184.744623
 30
0.0
 10
163.192200
 20
184.647079
 30
0.0
 10
163.278951
 20
184.555053
 30
0.0
 10
163.338529
 20
184.495359
 30
0.0
 10
163.368342
 20
184.465488
 30
0.0
 11
162.804038
 21
185.453021
 31
0.0
 11
162.837313
 21
185.326698
 31
0.0
 11
162.874369
 21
185.201720
 31
0.0
 11
162.918989
 21
185.079430
 31
0.0
 11
162.973467
 21
184.962512
 31
0.0
 11
163.038188
 21
184.850666
 31
0.0
 11
163.112315
 21
184.745028
 31
0.0
 11
163.193072
 21
184.647920
 31
0.0
 11
163.279331
 21
184.555525
 31
0.0
 11
163.368342
 21
184.465488
 31
0.0
  0
LWPOLYLINE
  5
14f
100
AcDbEntity
  8
0
 62
1
100
AcDbPolyline
 90
2
 70
0
 10
163.368342
 20
184.465488
 30
0.0
 10
182.448848
 20
173.426304
 30
0.0
  0
SPLINE
  5
150
100
AcDbEntity
  8
0
 62
1
100
AcDbSpline
 70
0
 71
3
 72
16
 73
12
 74
10
 40
0.000000
 40
0.000000
 40
0.000000
 40
0.000000
 40
0.213424
 40
0.424977
 40
0.635446
 40
0.843981
 40
1.053842
 40
1.261773
 40
1.468628
 40
1.677114
 40
1.887833
 40
1.887833
 40
1.887833
 40
1.887833
 10
182.448848
 20
173.426304
 30
0.0
 10
182.499516
 20
173.376358
 30
0.0
 10
182.600407
 20
173.276906
 30
0.0
 10
182.741764
 20
173.118780
 30
0.0
 10
182.860662
 20
172.944216
 30
0.0
 10
182.943955
 20
172.750474
 30
0.0
 10
182.991684
 20
172.546185
 30
0.0
 10
183.001902
 20
172.336832
 30
0.0
 10
182.969906
 20
172.130428
 30
0.0
 10
182.909996
 20
171.930216
 30
0.0
 10
182.861290
 20
171.799234
 30
0.0
 10
182.836807
 20
171.733394
 30
0.0
 11
182.448848
 21
173.426304
 31
0.0
 11
182.599249
 21
173.274879
 31
0.0
 11
182.738411
 21
173.115541
 31
0.0
 11
182.855095
 21
172.940378
 31
0.0
 11
182.937934
 21
172.749003
 31
0.0
 11
182.985522
 21
172.544609
 31
0.0
 11
182.994864
 21
172.336887
 31
0.0
 11
182.965420
 21
172.132139
 31
0.0
 11
182.908085
 21
171.931692
 31
0.0
 11
182.836807
 21
171.733394
 31
0.0
  0
LWPOLYLINE
  5
151
100
AcDbEntity
  8
0
 62
1
100
AcDbPolyline
 90
3
 70
0
 10
182.836807
 20
171.733394
 30
0.0
 10
169.610947
 20
148.702764
 30
0.0
 10
169.610947
 20
148.667495
 30
0.0
  0
SPLINE
  5
152
100
AcDbEntity
  8
0
 62
1
100
AcDbSpline
 70
0
 71
3
 72
16
 73
12
 74
10
 40
0.000000
 40
0.000000
 40
0.000000
 40
0.000000
 40
0.153521
 40
0.305419
 40
0.456404
 40
0.603389
 40
0.751397
 40
0.897616
 40
1.046095
 40
1.196244
 40
1.348540
 40
1.348540
 40
1.348540
 40
1.348540
 10
169.610947
 20
148.667495
 30
0.0
 10
169.575216
 20
148.630856
 30
0.0
 10
169.504132
 20
148.557965
 30
0.0
 10
169.390437
 20
148.456506
 30
0.0
 10
169.264483
 20
148.373487
 30
0.0
 10
169.125082
 20
148.318922
 30
0.0
 10
168.979688
 20
148.291863
 30
0.0
 10
168.830935
 20
148.293635
 30
0.0
 10
168.685903
 20
148.329174
 30
0.0
 10
168.546993
 20
148.387294
 30
0.0
 10
168.457079
 20
148.432911
 30
0.0
 10
168.411803
 20
148.455881
 30
0.0
 11
169.610947
 21
148.667495
 31
0.0
 11
169.502492
 21
148.558840
 31
0.0
 11
169.387858
 21
148.459179
 31
0.0
 11
169.260869
 21
148.377507
 31
0.0
 11
169.124160
 21
148.323516
 31
0.0
 11
168.978616
 21
148.296618
 31
0.0
 11
168.832419
 21
148.299132
 31
0.0
 11
168.687774
 21
148.332658
 31
0.0
 11
168.548457
 21
148.388653
 31
0.0
 11
168.411803
 21
148.455881
 31
0.0
  0
LWPOLYLINE
  5
153
100
AcDbEntity
  8
0
 62
1
100
AcDbPolyline
 90
2
 70
0
 10
168.411803
 20
148.455881
 30
0.0
 10
153.669378
 20
156.955700
 30
0.0
  0
SPLINE
  5
154
100
AcDbEntity
  8
0
 62
1
100
AcDbSpline
 70
0
 71
3
 72
16
 73
12
 74
10
 40
0.000000
 40
0.000000
 40
0.000000
 40
0.000000
 40
0.034111
 40
0.068255
 40
0.102457
 40
0.133414
 40
0.164316
 40
0.195106
 40
0.227425
 40
0.259862
 40
0.292400
 40
0.292400
 40
0.292400
 40
0.292400
 10
153.669378
 20
156.955700
 30
0.0
 10
153.658660
 20
156.959495
 30
0.0
 10
153.637212
 20
156.967088
 30
0.0
 10
153.605003
 20
156.978443
 30
0.0
 10
153.573746
 20
156.989335
 30
0.0
 10
153.543459
 20
156.999732
 30
0.0
 10
153.513945
 20
157.008856
 30
0.0
 10
153.483481
 20
157.016333
 30
0.0
 10
153.451968
 20
157.021185
 30
0.0
 10
153.419668
 20
157.024191
 30
0.0
 10
153.398052
 20
157.025550
 30
0.0
 10
153.387227
 20
157.026230
 30
0.0
 11
153.669378
 21
156.955700
 31
0.0
 11
153.637220
 21
156.967077
 31
0.0
 11
153.605015
 21
156.978417
 31
0.0
 11
153.572715
 21
156.989665
 31
0.0
 11
153.543391
 21
156.999587
 31
0.0
 11
153.513825
 21
157.008574
 31
0.0
 11
153.483889
 21
157.015779
 31
0.0
 11
153.451972
 21
157.020858
 31
0.0
 11
153.419690
 21
157.024026
 31
0.0
 11
153.387227
 21
157.026230
 31
0.0
  0
LWPOLYLINE
  5
155
100
AcDbEntity
  8
0
 62
1
100
AcDbPolyline
 90
2
 70
0
 10
153.387227
 20
157.026238
 30
0.0
 10
116.601703
 20
162.492929
 30
0.0
  0
SPLINE
  5
156
100
AcDbEntity
  8
0
 62
1
100
AcDbSpline
 70
0
 71
3
 72
16
 73
12
 74
10
 40
0.000000
 40
0.000000
 40
0.000000
 40
0.000000
 40
0.044424
 40
0.088589
 40
0.132470
 40
0.174429
 40
0.216657
 40
0.259006
 40
0.301394
 40
0.343653
 40
0.385858
 40
0.385858
 40
0.385858
 40
0.385858
 10
116.601703
 20
162.492929
 30
0.0
 10
116.586963
 20
162.494348
 30
0.0
 10
116.557568
 20
162.497176
 30
0.0
 10
116.513804
 20
162.503225
 30
0.0
 10
116.471441
 20
162.512789
 30
0.0
 10
116.431214
 20
162.527358
 30
0.0
 10
116.393021
 20
162.545347
 30
0.0
 10
116.355974
 20
162.565848
 30
0.0
 10
116.319768
 20
162.587794
 30
0.0
 10
116.284209
 20
162.610680
 30
0.0
 10
116.260740
 20
162.626234
 30
0.0
 10
116.249013
 20
162.634005
 30
0.0
 11
116.601703
 21
162.492929
 31
0.0
 11
116.557514
 21
162.497490
 31
0.0
 11
116.513810
 21
162.503856
 31
0.0
 11
116.471078
 21
162.513832
 31
0.0
 11
116.431555
 21
162.527921
 31
0.0
 11
116.393269
 21
162.545737
 31
0.0
 11
116.356127
 21
162.566081
 31
0.0
 11
116.319833
 21
162.587978
 31
0.0
 11
116.284246
 21
162.610769
 31
0.0
 11
116.249013
 21
162.634005
 31
0.0
  0
LWPOLYLINE
  5
157
100
AcDbEntity
  8
0
 62
1
100
AcDbPolyline
 90
2
 70
0
 10
116.249013
 20
162.634003
 30
0.0
 10
105.703595
 20
177.094278
 30
0.0
  0
SPLINE
  5
158
100
AcDbEntity
  8
0
 62
1
100
AcDbSpline
 70
0
 71
3
 72
16
 73
12
 74
10
 40
0.000000
 40
0.000000
 40
0.000000
 40
0.000000
 40
0.045543
 40
0.090883
 40
0.136069
 40
0.177228
 40
0.218532
 40
0.259776
 40
0.303514
 40
0.347297
 40
0.391192
 40
0.391192
 40
0.391192
 40
0.391192
 10
105.703595
 20
177.094278
 30
0.0
 10
105.692247
 20
177.104363
 30
0.0
 10
105.669602
 20
177.124488
 30
0.0
 10
105.634439
 20
177.153178
 30
0.0
 10
105.598088
 20
177.177949
 30
0.0
 10
105.560176
 20
177.197479
 30
0.0
 10
105.521608
 20
177.212281
 30
0.0
 10
105.480871
 20
177.223202
 30
0.0
 10
105.438401
 20
177.229851
 30
0.0
 10
105.394721
 20
177.233404
 30
0.0
 10
105.365523
 20
177.234707
 30
0.0
 10
105.350905
 20
177.235359
 30
0.0
 11
105.703595
 21
177.094278
 31
0.0
 11
105.669341
 21
177.124291
 31
0.0
 11
105.633999
 21
177.152694
 31
0.0
 11
105.596481
 21
177.177876
 31
0.0
 11
105.559916
 21
177.196772
 31
0.0
 11
105.521366
 21
177.211602
 31
0.0
 11
105.481530
 21
177.222289
 31
0.0
 11
105.438360
 21
177.229311
 31
0.0
 11
105.394744
 21
177.233135
 31
0.0
 11
105.350905
 21
177.235359
 31
0.0
  0
LWPOLYLINE
  5
159
100
AcDbEntity
  8
0
 62
1
100
AcDbPolyline
 90
4
 70
0
 10
105.350905
 20
177.235351
 30
0.0
 10
50.366599
 20
177.235351
 30
0.0
 10
50.401868
 20
177.235351
 30
0.0
 10
50.401868
 20
177.235351
 30
0.0
  0
SPLINE
  5
15a
100
AcDbEntity
  8
0
 62
1
100
AcDbSpline
 70
0
 71
3
 72
16
 73
12
 74
10
 40
0.000000
 40
0.000000
 40
0.000000
 40
0.000000
 40
0.088671
 40
0.176179
 40
0.262883
 40
0.346209
 40
0.430356
 40
0.513683
 40
0.600384
 40
0.687892
 40
0.776565
 40
0.776565
 40
0.776565
 40
0.776565
 10
50.401868
 20
177.235351
 30
0.0
 10
50.372597
 20
177.239468
 30
0.0
 10
50.314438
 20
177.247646
 30
0.0
 10
50.228633
 20
177.266195
 30
0.0
 10
50.147994
 20
177.297320
 30
0.0
 10
50.077128
 20
177.344931
 30
0.0
 10
50.017680
 20
177.404379
 30
0.0
 10
49.970068
 20
177.475243
 30
0.0
 10
49.938949
 20
177.555884
 30
0.0
 10
49.920400
 20
177.641688
 30
0.0
 10
49.912220
 20
177.699847
 30
0.0
 10
49.908103
 20
177.729119
 30
0.0
 11
50.401868
 21
177.235351
 31
0.0
 11
50.314220
 21
177.248777
 31
0.0
 11
50.228954
 21
177.268462
 31
0.0
 11
50.148453
 21
177.300666
 31
0.0
 11
50.079089
 21
177.346838
 31
0.0
 11
50.019587
 21
177.406339
 31
0.0
 11
49.973415
 21
177.475704
 31
0.0
 11
49.941216
 21
177.556203
 31
0.0
 11
49.921531
 21
177.641469
 31
0.0
 11
49.908103
 21
177.729119
 31
0.0
  0
LWPOLYLINE
  5
15b
100
AcDbEntity
  8
0
 62
1
100
AcDbPolyline
 90
3
 70
0
 10
49.908103
 20
177.729119
 30
0.0
 10
49.908103
 20
200.618671
 30
0.0
 10
49.908103
 20
200.618671
 30
0.0
  0
SPLINE
  5
15c
100
AcDbEntity
  8
0
 62
1
100
AcDbSpline
 70
0
 71
3
 72
25
 73
21
 74
19
 40
0.000000
 40
0.000000
 40
0.000000
 40
0.000000
 40
0.045198
 40
0.090591
 40
0.136401
 40
0.231604
 40
0.326033
 40
0.415612
 40
0.489587
 40
0.567595
 40
0.670171
 40
0.717902
 40
0.755234
 40
0.764298
 40
0.774835
 40
0.792116
 40
0.811324
 40
0.828609
 40
0.843962
 40
0.858351
 40
0.858351
 40
0.858351
 40
0.858351
 10
49.908103
 20
200.618671
 30
0.0
 10
49.899418
 20
200.630982
 30
0.0
 10
49.882010
 20
200.655657
 30
0.0
 10
49.855267
 20
200.692430
 30
0.0
 10
49.817295
 20
200.741632
 30
0.0
 10
49.765493
 20
200.800676
 30
0.0
 10
49.700874
 20
200.867687
 30
0.0
 10
49.639872
 20
200.928242
 30
0.0
 10
49.583837
 20
200.986263
 30
0.0
 10
49.508675
 20
201.029987
 30
0.0
 10
49.434488
 20
201.042468
 30
0.0
 10
49.367274
 20
201.043161
 30
0.0
 10
49.344386
 20
201.044225
 30
0.0
 10
49.314982
 20
201.041614
 30
0.0
 10
49.335912
 20
201.041831
 30
0.0
 10
49.347718
 20
201.041767
 30
0.0
 10
49.366926
 20
201.041913
 30
0.0
 10
49.383894
 20
201.041951
 30
0.0
 10
49.399640
 20
201.041942
 30
0.0
 10
49.409545
 20
201.041912
 30
0.0
 10
49.414337
 20
201.041898
 30
0.0
 11
49.908103
 21
200.618671
 31
0.0
 11
49.881960
 21
200.655541
 31
0.0
 11
49.855176
 21
200.692190
 31
0.0
 11
49.827114
 21
200.728399
 31
0.0
 11
49.764777
 21
200.800355
 31
0.0
 11
49.699508
 21
200.868595
 31
0.0
 11
49.636402
 21
200.932173
 31
0.0
 11
49.582493
 21
200.982831
 31
0.0
 11
49.514929
 21
201.021821
 31
0.0
 11
49.414337
 21
201.041898
 31
0.0
 11
49.366630
 21
201.043403
 31
0.0
 11
49.329302
 21
201.042827
 31
0.0
 11
49.320286
 21
201.041898
 31
0.0
 11
49.330822
 21
201.041762
 31
0.0
 11
49.348103
 21
201.041803
 31
0.0
 11
49.367310
 21
201.041898
 31
0.0
 11
49.384595
 21
201.041944
 31
0.0
 11
49.399949
 21
201.041935
 31
0.0
 11
49.414337
 21
201.041898
 31
0.0
  0
LWPOLYLINE
  5
15d
100
AcDbEntity
  8
0
 62
1
100
AcDbPolyline
 90
2
 70
0
 10
49.414337
 20
201.041898
 30
0.0
 10
31.039210
 20
201.041898
 30
0.0
  0
SPLINE
  5
15e
100
AcDbEntity
  8
0
 62
1
100
AcDbSpline
 70
0
 71
3
 72
16
 73
12
 74
10
 40
0.000000
 40
0.000000
 40
0.000000
 40
0.000000
 40
0.085083
 40
0.169707
 40
0.254368
 40
0.342828
 40
0.431427
 40
0.518428
 40
0.610943
 40
0.705197
 40
0.801355
 40
0.801355
 40
0.801355
 40
0.801355
 10
31.039210
 20
201.041898
 30
0.0
 10
31.011113
 20
201.045773
 30
0.0
 10
30.955072
 20
201.053500
 30
0.0
 10
30.871823
 20
201.070140
 30
0.0
 10
30.789982
 20
201.097442
 30
0.0
 10
30.713179
 20
201.139918
 30
0.0
 10
30.644766
 20
201.196068
 30
0.0
 10
30.587952
 20
201.266123
 30
0.0
 10
30.549841
 20
201.349961
 30
0.0
 10
30.526370
 20
201.441516
 30
0.0
 10
30.515610
 20
201.504074
 30
0.0
 10
30.510176
 20
201.535666
 30
0.0
 11
31.039210
 21
201.041898
 31
0.0
 11
30.955046
 21
201.054369
 31
0.0
 11
30.872248
 21
201.071851
 31
0.0
 11
30.792185
 21
201.099374
 31
0.0
 11
30.714739
 21
201.142120
 31
0.0
 11
30.646461
 21
201.198582
 31
0.0
 11
30.592186
 21
201.266577
 31
0.0
 11
30.552661
 21
201.350225
 31
0.0
 11
30.527762
 21
201.441130
 31
0.0
 11
30.510176
 21
201.535666
 31
0.0
  0
LWPOLYLINE
  5
15f
100
AcDbEntity
  8
0
 62
1
100
AcDbPolyline
 90
2
 70
0
 10
30.510176
 20
201.535666
 30
0.0
 10
30.545445
 20
218.993801
 30
0.0
  0
SPLINE
  5
160
100
AcDbEntity
  8
0
 62
1
100
AcDbSpline
 70
0
 71
3
 72
16
 73
12
 74
10
 40
0.000000
 40
0.000000
 40
0.000000
 40
0.000000
 40
0.094342
 40
0.187061
 40
0.278537
 40
0.359871
 40
0.442193
 40
0.523779
 40
0.609865
 40
0.696708
 40
0.784712
 40
0.784712
 40
0.784712
 40
0.784712
 10
30.545445
 20
218.993801
 30
0.0
 10
30.549021
 20
219.025047
 30
0.0
 10
30.556113
 20
219.087002
 30
0.0
 10
30.574117
 20
219.178296
 30
0.0
 10
30.606346
 20
219.261568
 30
0.0
 10
30.655561
 20
219.331772
 30
0.0
 10
30.715061
 20
219.388515
 30
0.0
 10
30.785906
 20
219.433594
 30
0.0
 10
30.866415
 20
219.462213
 30
0.0
 10
30.952101
 20
219.478075
 30
0.0
 10
31.010045
 20
219.484387
 30
0.0
 10
31.039210
 20
219.487563
 30
0.0
 11
30.545445
 21
218.993801
 31
0.0
 11
30.557446
 21
219.087376
 31
0.0
 11
30.576845
 21
219.178043
 31
0.0
 11
30.611040
 21
219.262887
 31
0.0
 11
30.657380
 21
219.329730
 31
0.0
 11
30.716925
 21
219.386574
 31
0.0
 11
30.785938
 21
219.430088
 31
0.0
 11
30.866692
 21
219.459914
 31
0.0
 11
30.951850
 21
219.476939
 31
0.0
 11
31.039210
 21
219.487563
 31
0.0
  0
LWPOLYLINE
  5
161
100
AcDbEntity
  8
0
 62
1
100
AcDbPolyline
 90
2
 70
0
 10
31.039210
 20
219.487563
 30
0.0
 10
49.520144
 20
219.487563
 30
0.0
  0
SPLINE
  5
162
100
AcDbEntity
  8
0
 62
1
100
AcDbSpline
 70
0
 71
3
 72
16
 73
12
 74
10
 40
0.000000
 40
0.000000
 40
0.000000
 40
0.000000
 40
0.078562
 40
0.155671
 40
0.231852
 40
0.290881
 40
0.350352
 40
0.408894
 40
0.471283
 40
0.534695
 40
0.599334
 40
0.599334
 40
0.599334
 40
0.599334
 10
49.520144
 20
219.487563
 30
0.0
 10
49.546290
 20
219.489083
 30
0.0
 10
49.598099
 20
219.492094
 30
0.0
 10
49.674770
 20
219.503332
 30
0.0
 10
49.742274
 20
219.526932
 30
0.0
 10
49.796916
 20
219.562803
 30
0.0
 10
49.839344
 20
219.604324
 30
0.0
 10
49.873119
 20
219.654756
 30
0.0
 10
49.893475
 20
219.713342
 30
0.0
 10
49.903358
 20
219.776195
 30
0.0
 10
49.906511
 20
219.818766
 30
0.0
 10
49.908103
 20
219.840256
 30
0.0
 11
49.520144
 21
219.487563
 31
0.0
 11
49.598498
 21
219.493277
 31
0.0
 11
49.674582
 21
219.505809
 31
0.0
 11
49.746128
 21
219.531976
 31
0.0
 11
49.795586
 21
219.564200
 31
0.0
 11
49.837996
 21
219.605891
 31
0.0
 11
49.870222
 21
219.654764
 31
0.0
 11
49.891551
 21
219.713395
 31
0.0
 11
49.902438
 21
219.775866
 31
0.0
 11
49.908103
 21
219.840256
 31
0.0
  0
LWPOLYLINE
  5
163
100
AcDbEntity
  8
0
 62
1
100
AcDbPolyline
 90
2
 70
0
 10
49.908103
 20
219.840256
 30
0.0
 10
49.908103
 20
232.960308
 30
0.0
  0
SPLINE
  5
164
100
AcDbEntity
  8
0
 62
1
100
AcDbSpline
 70
0
 71
3
 72
16
 73
12
 74
10
 40
0.000000
 40
0.000000
 40
0.000000
 40
0.000000
 40
0.089113
 40
0.177013
 40
0.263900
 40
0.347517
 40
0.432156
 40
0.516509
 40
0.585640
 40
0.654767
 40
0.724156
 40
0.724156
 40
0.724156
 40
0.724156
 10
49.908103
 20
232.960308
 30
0.0
 10
49.914108
 20
232.989402
 30
0.0
 10
49.926037
 20
233.047192
 30
0.0
 10
49.949853
 20
233.132023
 30
0.0
 10
49.985428
 20
233.211081
 30
0.0
 10
50.036600
 20
233.279773
 30
0.0
 10
50.098709
 20
233.337231
 30
0.0
 10
50.165782
 20
233.380510
 30
0.0
 10
50.234073
 20
233.410055
 30
0.0
 10
50.300118
 20
233.430962
 30
0.0
 10
50.344777
 20
233.442688
 30
0.0
 10
50.367150
 20
233.448562
 30
0.0
 11
49.908103
 21
232.960308
 31
0.0
 11
49.927144
 21
233.047363
 31
0.0
 11
49.952041
 21
233.131663
 31
0.0
 11
49.988663
 21
233.210456
 31
0.0
 11
50.038278
 21
233.277762
 31
0.0
 11
50.100297
 21
233.335358
 31
0.0
 11
50.171234
 21
233.381004
 31
0.0
 11
50.234464
 21
233.408948
 31
0.0
 11
50.300185
 21
233.430383
 31
0.0
 11
50.367150
 21
233.448562
 31
0.0
  0
SPLINE
  5
165
100
AcDbEntity
  8
0
 62
1
100
AcDbSpline
 70
0
 71
3
 72
43
 73
39
 74
37
 40
0.000000
 40
0.000000
 40
0.000000
 40
0.000000
 40
0.193883
 40
0.384704
 40
0.572519
 40
0.757383
 40
0.945414
 40
1.134774
 40
1.327802
 40
1.519538
 40
1.710675
 40
1.902265
 40
2.094437
 40
2.286643
 40
2.473846
 40
2.660952
 40
2.848065
 40
3.040084
 40
3.232168
 40
3.424053
 40
3.615937
 40
3.808020
 40
4.000040
 40
4.187152
 40
4.374258
 40
4.561461
 40
4.753667
 40
4.945840
 40
5.137431
 40
5.328568
 40
5.520303
 40
5.713331
 40
5.902691
 40
6.090723
 40
6.275587
 40
6.463402
 40
6.654224
 40
6.848109
 40
6.848109
 40
6.848109
 40
6.848109
 10
143.265036
 20
218.464766
 30
0.0
 10
143.275198
 20
218.528596
 30
0.0
 10
143.295362
 20
218.655247
 30
0.0
 10
143.338635
 20
218.841434
 30
0.0
 10
143.408573
 20
219.017124
 30
0.0
 10
143.515583
 20
219.172136
 30
0.0
 10
143.649905
 20
219.304192
 30
0.0
 10
143.806831
 20
219.413108
 30
0.0
 10
143.980802
 20
219.495024
 30
0.0
 10
144.166796
 20
219.546272
 30
0.0
 10
144.358526
 20
219.564014
 30
0.0
 10
144.550392
 20
219.546244
 30
0.0
 10
144.736461
 20
219.495227
 30
0.0
 10
144.909687
 20
219.413541
 30
0.0
 10
145.064527
 20
219.303827
 30
0.0
 10
145.197459
 20
219.170860
 30
0.0
 10
145.307113
 20
219.016099
 30
0.0
 10
145.388833
 20
218.843027
 30
0.0
 10
145.439887
 20
218.656954
 30
0.0
 10
145.457620
 20
218.464764
 30
0.0
 10
145.439887
 20
218.272575
 30
0.0
 10
145.388833
 20
218.086503
 30
0.0
 10
145.307113
 20
217.913431
 30
0.0
 10
145.197459
 20
217.758670
 30
0.0
 10
145.064527
 20
217.625703
 30
0.0
 10
144.909687
 20
217.515989
 30
0.0
 10
144.736461
 20
217.434303
 30
0.0
 10
144.550392
 20
217.383284
 30
0.0
 10
144.358526
 20
217.365513
 30
0.0
 10
144.166796
 20
217.383256
 30
0.0
 10
143.980803
 20
217.434505
 30
0.0
 10
143.806831
 20
217.516420
 30
0.0
 10
143.649905
 20
217.625337
 30
0.0
 10
143.515583
 20
217.757393
 30
0.0
 10
143.408573
 20
217.912406
 30
0.0
 10
143.338635
 20
218.088096
 30
0.0
 10
143.295362
 20
218.274284
 30
0.0
 10
143.275198
 20
218.400936
 30
0.0
 10
143.265036
 20
218.464766
 30
0.0
 11
143.265036
 21
218.464766
 31
0.0
 11
143.297787
 21
218.655863
 31
0.0
 11
143.343529
 21
218.841121
 31
0.0
 11
143.415255
 21
219.014700
 31
0.0
 11
143.519382
 21
219.167449
 31
0.0
 11
143.652980
 21
219.299764
 31
0.0
 11
143.808439
 21
219.407882
 31
0.0
 11
143.983125
 21
219.490009
 31
0.0
 11
144.168026
 21
219.540746
 31
0.0
 11
144.358373
 21
219.558101
 31
0.0
 11
144.549176
 21
219.540746
 31
0.0
 11
144.734530
 21
219.490009
 31
0.0
 11
144.908307
 21
219.407884
 31
0.0
 11
145.061132
 21
219.299766
 31
0.0
 11
145.193423
 21
219.167450
 31
0.0
 11
145.301491
 21
219.014700
 31
0.0
 11
145.383599
 21
218.841121
 31
0.0
 11
145.434346
 21
218.655862
 31
0.0
 11
145.451711
 21
218.464764
 31
0.0
 11
145.434346
 21
218.273667
 31
0.0
 11
145.383599
 21
218.088409
 31
0.0
 11
145.301491
 21
217.914830
 31
0.0
 11
145.193423
 21
217.762080
 31
0.0
 11
145.061132
 21
217.629764
 31
0.0
 11
144.908307
 21
217.521646
 31
0.0
 11
144.734530
 21
217.439520
 31
0.0
 11
144.549176
 21
217.388782
 31
0.0
 11
144.358373
 21
217.371426
 31
0.0
 11
144.168026
 21
217.388782
 31
0.0
 11
143.983125
 21
217.439520
 31
0.0
 11
143.808439
 21
217.521646
 31
0.0
 11
143.652980
 21
217.629764
 31
0.0
 11
143.519382
 21
217.762080
 31
0.0
 11
143.415255
 21
217.914830
 31
0.0
 11
143.343529
 21
218.088409
 31
0.0
 11
143.297787
 21
218.273667
 31
0.0
 11
143.265036
 21
218.464766
 31
0.0
  0
SPLINE
  5
166
100
AcDbEntity
  8
0
 62
1
100
AcDbSpline
 70
0
 71
3
 72
43
 73
39
 74
37
 40
0.000000
 40
0.000000
 40
0.000000
 40
0.000000
 40
0.193885
 40
0.384707
 40
0.572522
 40
0.757386
 40
0.945417
 40
1.134776
 40
1.327805
 40
1.519540
 40
1.710678
 40
1.902268
 40
2.094441
 40
2.286647
 40
2.473850
 40
2.660956
 40
2.848069
 40
3.040088
 40
3.232172
 40
3.424057
 40
3.615942
 40
3.808025
 40
4.000044
 40
4.187156
 40
4.374262
 40
4.561465
 40
4.753672
 40
4.945845
 40
5.137434
 40
5.328573
 40
5.520308
 40
5.713335
 40
5.902695
 40
6.090727
 40
6.275591
 40
6.463406
 40
6.654228
 40
6.848111
 40
6.848111
 40
6.848111
 40
6.848111
 10
67.260430
 20
214.832061
 30
0.0
 10
67.270593
 20
214.895891
 30
0.0
 10
67.290757
 20
215.022543
 30
0.0
 10
67.334030
 20
215.208731
 30
0.0
 10
67.403967
 20
215.384421
 30
0.0
 10
67.510978
 20
215.539434
 30
0.0
 10
67.645299
 20
215.671489
 30
0.0
 10
67.802223
 20
215.780409
 30
0.0
 10
67.976196
 20
215.862321
 30
0.0
 10
68.162190
 20
215.913571
 30
0.0
 10
68.353920
 20
215.931311
 30
0.0
 10
68.545786
 20
215.913541
 30
0.0
 10
68.731855
 20
215.862524
 30
0.0
 10
68.905082
 20
215.780838
 30
0.0
 10
69.059921
 20
215.671125
 30
0.0
 10
69.192854
 20
215.538158
 30
0.0
 10
69.302508
 20
215.383396
 30
0.0
 10
69.384228
 20
215.210325
 30
0.0
 10
69.435282
 20
215.024251
 30
0.0
 10
69.453015
 20
214.832061
 30
0.0
 10
69.435282
 20
214.639872
 30
0.0
 10
69.384228
 20
214.453799
 30
0.0
 10
69.302508
 20
214.280728
 30
0.0
 10
69.192854
 20
214.125967
 30
0.0
 10
69.059921
 20
213.993000
 30
0.0
 10
68.905082
 20
213.883286
 30
0.0
 10
68.731855
 20
213.801600
 30
0.0
 10
68.545786
 20
213.750581
 30
0.0
 10
68.353920
 20
213.732810
 30
0.0
 10
68.162190
 20
213.750553
 30
0.0
 10
67.976197
 20
213.801803
 30
0.0
 10
67.802225
 20
213.883717
 30
0.0
 10
67.645300
 20
213.992634
 30
0.0
 10
67.510978
 20
214.124690
 30
0.0
 10
67.403967
 20
214.279704
 30
0.0
 10
67.334030
 20
214.455393
 30
0.0
 10
67.290757
 20
214.641580
 30
0.0
 10
67.270593
 20
214.768232
 30
0.0
 10
67.260430
 20
214.832061
 30
0.0
 11
67.260430
 21
214.832061
 31
0.0
 11
67.293181
 21
215.023159
 31
0.0
 11
67.338924
 21
215.208418
 31
0.0
 11
67.410650
 21
215.381997
 31
0.0
 11
67.514777
 21
215.534746
 31
0.0
 11
67.648374
 21
215.667062
 31
0.0
 11
67.803832
 21
215.775182
 31
0.0
 11
67.978519
 21
215.857307
 31
0.0
 11
68.163419
 21
215.908045
 31
0.0
 11
68.353768
 21
215.925399
 31
0.0
 11
68.544569
 21
215.908043
 31
0.0
 11
68.729924
 21
215.857307
 31
0.0
 11
68.903702
 21
215.775182
 31
0.0
 11
69.056527
 21
215.667064
 31
0.0
 11
69.188818
 21
215.534747
 31
0.0
 11
69.296886
 21
215.381997
 31
0.0
 11
69.378994
 21
215.208418
 31
0.0
 11
69.429741
 21
215.023159
 31
0.0
 11
69.447106
 21
214.832061
 31
0.0
 11
69.429741
 21
214.640963
 31
0.0
 11
69.378994
 21
214.455706
 31
0.0
 11
69.296886
 21
214.282127
 31
0.0
 11
69.188818
 21
214.129378
 31
0.0
 11
69.056527
 21
213.997061
 31
0.0
 11
68.903702
 21
213.888943
 31
0.0
 11
68.729924
 21
213.806817
 31
0.0
 11
68.544569
 21
213.756079
 31
0.0
 11
68.353768
 21
213.738723
 31
0.0
 11
68.163419
 21
213.756079
 31
0.0
 11
67.978519
 21
213.806817
 31
0.0
 11
67.803834
 21
213.888943
 31
0.0
 11
67.648375
 21
213.997061
 31
0.0
 11
67.514777
 21
214.129378
 31
0.0
 11
67.410650
 21
214.282127
 31
0.0
 11
67.338924
 21
214.455706
 31
0.0
 11
67.293181
 21
214.640964
 31
0.0
 11
67.260430
 21
214.832061
 31
0.0
  0
SPLINE
  5
167
100
AcDbEntity
  8
0
 62
1
100
AcDbSpline
 70
0
 71
3
 72
43
 73
39
 74
37
 40
0.000000
 40
0.000000
 40
0.000000
 40
0.000000
 40
0.193883
 40
0.384704
 40
0.572519
 40
0.757383
 40
0.945414
 40
1.134771
 40
1.327801
 40
1.519537
 40
1.710675
 40
1.902264
 40
2.094437
 40
2.286644
 40
2.473846
 40
2.660953
 40
2.848065
 40
3.040085
 40
3.232168
 40
3.424054
 40
3.615938
 40
3.808020
 40
4.000040
 40
4.187153
 40
4.374259
 40
4.561461
 40
4.753668
 40
4.945842
 40
5.137431
 40
5.328569
 40
5.520304
 40
5.713332
 40
5.902691
 40
6.090723
 40
6.275588
 40
6.463402
 40
6.654224
 40
6.848110
 40
6.848110
 40
6.848110
 40
6.848110
 10
67.260430
 20
195.822095
 30
0.0
 10
67.270593
 20
195.885925
 30
0.0
 10
67.290757
 20
196.012576
 30
0.0
 10
67.334030
 20
196.198763
 30
0.0
 10
67.403967
 20
196.374452
 30
0.0
 10
67.510978
 20
196.529465
 30
0.0
 10
67.645299
 20
196.661520
 30
0.0
 10
67.802224
 20
196.770437
 30
0.0
 10
67.976196
 20
196.852352
 30
0.0
 10
68.162190
 20
196.903601
 30
0.0
 10
68.353920
 20
196.921343
 30
0.0
 10
68.545786
 20
196.903573
 30
0.0
 10
68.731855
 20
196.852556
 30
0.0
 10
68.905082
 20
196.770870
 30
0.0
 10
69.059921
 20
196.661156
 30
0.0
 10
69.192854
 20
196.528189
 30
0.0
 10
69.302508
 20
196.373428
 30
0.0
 10
69.384228
 20
196.200356
 30
0.0
 10
69.435282
 20
196.014283
 30
0.0
 10
69.453015
 20
195.822093
 30
0.0
 10
69.435282
 20
195.629904
 30
0.0
 10
69.384228
 20
195.443831
 30
0.0
 10
69.302508
 20
195.270760
 30
0.0
 10
69.192854
 20
195.115998
 30
0.0
 10
69.059921
 20
194.983031
 30
0.0
 10
68.905082
 20
194.873318
 30
0.0
 10
68.731855
 20
194.791631
 30
0.0
 10
68.545786
 20
194.740613
 30
0.0
 10
68.353920
 20
194.722842
 30
0.0
 10
68.162190
 20
194.740585
 30
0.0
 10
67.976197
 20
194.791834
 30
0.0
 10
67.802225
 20
194.873748
 30
0.0
 10
67.645300
 20
194.982665
 30
0.0
 10
67.510978
 20
195.114722
 30
0.0
 10
67.403968
 20
195.269735
 30
0.0
 10
67.334030
 20
195.445425
 30
0.0
 10
67.290757
 20
195.631612
 30
0.0
 10
67.270593
 20
195.758265
 30
0.0
 10
67.260430
 20
195.822095
 30
0.0
 11
67.260430
 21
195.822095
 31
0.0
 11
67.293181
 21
196.013192
 31
0.0
 11
67.338924
 21
196.198450
 31
0.0
 11
67.410650
 21
196.372029
 31
0.0
 11
67.514777
 21
196.524778
 31
0.0
 11
67.648374
 21
196.657093
 31
0.0
 11
67.803832
 21
196.765210
 31
0.0
 11
67.978519
 21
196.847337
 31
0.0
 11
68.163419
 21
196.898075
 31
0.0
 11
68.353768
 21
196.915430
 31
0.0
 11
68.544569
 21
196.898075
 31
0.0
 11
68.729924
 21
196.847338
 31
0.0
 11
68.903702
 21
196.765213
 31
0.0
 11
69.056527
 21
196.657095
 31
0.0
 11
69.188818
 21
196.524778
 31
0.0
 11
69.296886
 21
196.372029
 31
0.0
 11
69.378994
 21
196.198449
 31
0.0
 11
69.429741
 21
196.013191
 31
0.0
 11
69.447106
 21
195.822092
 31
0.0
 11
69.429741
 21
195.630996
 31
0.0
 11
69.378994
 21
195.445738
 31
0.0
 11
69.296886
 21
195.272159
 31
0.0
 11
69.188818
 21
195.119409
 31
0.0
 11
69.056527
 21
194.987092
 31
0.0
 11
68.903702
 21
194.878975
 31
0.0
 11
68.729924
 21
194.796849
 31
0.0
 11
68.544569
 21
194.746111
 31
0.0
 11
68.353768
 21
194.728755
 31
0.0
 11
68.163419
 21
194.746111
 31
0.0
 11
67.978519
 21
194.796849
 31
0.0
 11
67.803834
 21
194.878975
 31
0.0
 11
67.648375
 21
194.987092
 31
0.0
 11
67.514777
 21
195.119409
 31
0.0
 11
67.410650
 21
195.272159
 31
0.0
 11
67.338924
 21
195.445737
 31
0.0
 11
67.293181
 21
195.630996
 31
0.0
 11
67.260430
 21
195.822095
 31
0.0
  0
LWPOLYLINE
  5
168
100
AcDbEntity
  8
0
 62
1
100
AcDbPolyline
 90
2
 70
0
 10
50.367150
 20
233.448562
 30
0.0
 10
87.363737
 20
233.454066
 30
0.0
  0
LWPOLYLINE
  5
169
100
AcDbEntity
  8
0
 62
1
100
AcDbPolyline
 90
4
 70
1
 10
51.953702
 20
231.267398
 30
0.0
 10
65.814400
 20
231.267398
 30
0.0
 10
65.814400
 20
217.406698
 30
0.0
 10
51.953702
 20
217.406698
 30
0.0
  0
LWPOLYLINE
  5
16a
100
AcDbEntity
  8
0
 62
1
100
AcDbPolyline
 90
4
 70
1
 10
51.953702
 20
212.292696
 30
0.0
 10
65.814400
 20
212.292696
 30
0.0
 10
65.814400
 20
198.431995
 30
0.0
 10
51.953702
 20
198.431995
 30
0.0
  0
LWPOLYLINE
  5
16b
100
AcDbEntity
  8
0
 62
1
100
AcDbPolyline
 90
4
 70
1
 10
51.953702
 20
193.282730
 30
0.0
 10
65.814400
 20
193.282730
 30
0.0
 10
65.814400
 20
179.422029
 30
0.0
 10
51.953702
 20
179.422029
 30
0.0
  0
LWPOLYLINE
  5
16c
100
AcDbEntity
  8
0
 62
1
100
AcDbPolyline
 90
4
 70
1
 10
70.928402
 20
231.267398
 30
0.0
 10
84.789103
 20
231.267398
 30
0.0
 10
84.789103
 20
217.406698
 30
0.0
 10
70.928402
 20
217.406698
 30
0.0
  0
LWPOLYLINE
  5
16d
100
AcDbEntity
  8
0
 62
1
100
AcDbPolyline
 90
4
 70
1
 10
70.928402
 20
212.292696
 30
0.0
 10
84.789103
 20
212.292696
 30
0.0
 10
84.789103
 20
198.431995
 30
0.0
 10
70.928402
 20
198.431995
 30
0.0
  0
LWPOLYLINE
  5
16e
100
AcDbEntity
  8
0
 62
1
100
AcDbPolyline
 90
4
 70
1
 10
70.928402
 20
193.282730
 30
0.0
 10
84.789103
 20
193.282730
 30
0.0
 10
84.789103
 20
179.422029
 30
0.0
 10
70.928402
 20
179.422029
 30
0.0
  0
LWPOLYLINE
  5
16f
100
AcDbEntity
  8
0
 62
1
100
AcDbPolyline
 90
4
 70
1
 10
89.938368
 20
236.028708
 30
0.0
 10
103.799066
 20
236.028708
 30
0.0
 10
103.799066
 20
222.168007
 30
0.0
 10
89.938368
 20
222.168007
 30
0.0
  0
LWPOLYLINE
  5
170
100
AcDbEntity
  8
0
 62
1
100
AcDbPolyline
 90
4
 70
1
 10
89.938368
 20
217.018736
 30
0.0
 10
103.799066
 20
217.018736
 30
0.0
 10
103.799066
 20
203.158036
 30
0.0
 10
89.938368
 20
203.158036
 30
0.0
  0
LWPOLYLINE
  5
171
100
AcDbEntity
  8
0
 62
1
100
AcDbPolyline
 90
4
 70
1
 10
89.938368
 20
198.044039
 30
0.0
 10
103.799066
 20
198.044039
 30
0.0
 10
103.799066
 20
184.183339
 30
0.0
 10
89.938368
 20
184.183339
 30
0.0
  0
LWPOLYLINE
  5
172
100
AcDbEntity
  8
0
 62
1
100
AcDbPolyline
 90
4
 70
1
 10
108.913070
 20
238.391725
 30
0.0
 10
122.773771
 20
238.391725
 30
0.0
 10
122.773771
 20
224.531027
 30
0.0
 10
108.913070
 20
224.531027
 30
0.0
  0
LWPOLYLINE
  5
173
100
AcDbEntity
  8
0
 62
1
100
AcDbPolyline
 90
4
 70
1
 10
108.913070
 20
219.417028
 30
0.0
 10
122.773771
 20
219.417028
 30
0.0
 10
122.773771
 20
205.556328
 30
0.0
 10
108.913070
 20
205.556328
 30
0.0
  0
LWPOLYLINE
  5
174
100
AcDbEntity
  8
0
 62
1
100
AcDbPolyline
 90
4
 70
1
 10
108.913070
 20
200.407057
 30
0.0
 10
122.773771
 20
200.407057
 30
0.0
 10
122.773771
 20
186.546356
 30
0.0
 10
108.913070
 20
186.546356
 30
0.0
  0
LWPOLYLINE
  5
175
100
AcDbEntity
  8
0
 62
1
100
AcDbPolyline
 90
4
 70
1
 10
127.923041
 20
236.028708
 30
0.0
 10
141.783742
 20
236.028708
 30
0.0
 10
141.783742
 20
222.168007
 30
0.0
 10
127.923041
 20
222.168007
 30
0.0
  0
LWPOLYLINE
  5
176
100
AcDbEntity
  8
0
 62
1
100
AcDbPolyline
 90
4
 70
1
 10
127.923041
 20
217.018736
 30
0.0
 10
141.783742
 20
217.018736
 30
0.0
 10
141.783742
 20
203.158036
 30
0.0
 10
127.923041
 20
203.158036
 30
0.0
  0
LWPOLYLINE
  5
177
100
AcDbEntity
  8
0
 62
1
100
AcDbPolyline
 90
4
 70
1
 10
127.923041
 20
198.044039
 30
0.0
 10
141.783742
 20
198.044039
 30
0.0
 10
141.783742
 20
184.183339
 30
0.0
 10
127.923041
 20
184.183339
 30
0.0
  0
LWPOLYLINE
  5
178
100
AcDbEntity
  8
0
 62
1
100
AcDbPolyline
 90
4
 70
1
 10
146.933007
 20
233.665685
 30
0.0
 10
160.793708
 20
233.665685
 30
0.0
 10
160.793708
 20
219.804984
 30
0.0
 10
146.933007
 20
219.804984
 30
0.0
  0
LWPOLYLINE
  5
179
100
AcDbEntity
  8
0
 62
1
100
AcDbPolyline
 90
4
 70
1
 10
146.933007
 20
214.655719
 30
0.0
 10
160.793708
 20
214.655719
 30
0.0
 10
160.793708
 20
200.795018
 30
0.0
 10
146.933007
 20
200.795018
 30
0.0
  0
LWPOLYLINE
  5
17a
100
AcDbEntity
  8
0
 62
1
100
AcDbPolyline
 90
4
 70
1
 10
146.933007
 20
195.645748
 30
0.0
 10
160.793708
 20
195.645748
 30
0.0
 10
160.793708
 20
181.785047
 30
0.0
 10
146.933007
 20
181.785047
 30
0.0
  0
LWPOLYLINE
  5
17b
100
AcDbEntity
  8
0
 62
1
100
AcDbPolyline
 90
4
 70
1
 10
118.435692
 20
178.399232
 30
0.0
 10
132.296392
 20
178.399232
 30
0.0
 10
132.296392
 20
164.538532
 30
0.0
 10
118.435692
 20
164.538532
 30
0.0
  0
SPLINE
  5
17c
100
AcDbEntity
  8
0
 62
1
100
AcDbSpline
 70
0
 71
3
 72
43
 73
39
 74
37
 40
0.000000
 40
0.000000
 40
0.000000
 40
0.000000
 40
0.193885
 40
0.384707
 40
0.572522
 40
0.757385
 40
0.945415
 40
1.134774
 40
1.327805
 40
1.519541
 40
1.710678
 40
1.902268
 40
2.094441
 40
2.286646
 40
2.473849
 40
2.660955
 40
2.848071
 40
3.040097
 40
3.232183
 40
3.424055
 40
3.615908
 40
3.807975
 40
4.000040
 40
4.187256
 40
4.374407
 40
4.561491
 40
4.753446
 40
4.945531
 40
5.137282
 40
5.327904
 40
5.518867
 40
5.711015
 40
5.898541
 40
6.084842
 40
6.267850
 40
6.460425
 40
6.656401
 40
6.855854
 40
6.855854
 40
6.855854
 40
6.855854
 10
157.019929
 20
170.992746
 30
0.0
 10
157.030092
 20
171.056576
 30
0.0
 10
157.050256
 20
171.183228
 30
0.0
 10
157.093529
 20
171.369416
 30
0.0
 10
157.163466
 20
171.545105
 30
0.0
 10
157.270476
 20
171.700118
 30
0.0
 10
157.404797
 20
171.832174
 30
0.0
 10
157.561723
 20
171.941090
 30
0.0
 10
157.735695
 20
172.023006
 30
0.0
 10
157.921689
 20
172.074255
 30
0.0
 10
158.113420
 20
172.091996
 30
0.0
 10
158.305286
 20
172.074226
 30
0.0
 10
158.491354
 20
172.023207
 30
0.0
 10
158.664581
 20
171.941523
 30
0.0
 10
158.819421
 20
171.831810
 30
0.0
 10
158.952356
 20
171.698844
 30
0.0
 10
159.062008
 20
171.544078
 30
0.0
 10
159.143725
 20
171.371000
 30
0.0
 10
159.194776
 20
171.184927
 30
0.0
 10
159.212514
 20
170.992753
 30
0.0
 10
159.194785
 20
170.800583
 30
0.0
 10
159.143726
 20
170.614512
 30
0.0
 10
159.061990
 20
170.441401
 30
0.0
 10
158.952352
 20
170.286552
 30
0.0
 10
158.819452
 20
170.153535
 30
0.0
 10
158.664638
 20
170.043942
 30
0.0
 10
158.491346
 20
169.962730
 30
0.0
 10
158.305274
 20
169.912044
 30
0.0
 10
158.113685
 20
169.893782
 30
0.0
 10
157.922227
 20
169.909316
 30
0.0
 10
157.736187
 20
169.957514
 30
0.0
 10
157.562046
 20
170.036340
 30
0.0
 10
157.405028
 20
170.142531
 30
0.0
 10
157.270643
 20
170.271944
 30
0.0
 10
157.162138
 20
170.426454
 30
0.0
 10
157.091270
 20
170.604855
 30
0.0
 10
157.048604
 20
170.796516
 30
0.0
 10
157.029543
 20
170.926953
 30
0.0
 10
157.019929
 20
170.992746
 30
0.0
 11
157.019929
 21
170.992746
 31
0.0
 11
157.052680
 21
171.183844
 31
0.0
 11
157.098423
 21
171.369103
 31
0.0
 11
157.170149
 21
171.542682
 31
0.0
 11
157.274275
 21
171.695431
 31
0.0
 11
157.407872
 21
171.827746
 31
0.0
 11
157.563331
 21
171.935864
 31
0.0
 11
157.738018
 21
172.017991
 31
0.0
 11
157.922919
 21
172.068729
 31
0.0
 11
158.113267
 21
172.086083
 31
0.0
 11
158.304069
 21
172.068728
 31
0.0
 11
158.489423
 21
172.017990
 31
0.0
 11
158.663201
 21
171.935866
 31
0.0
 11
158.816026
 21
171.827750
 31
0.0
 11
158.948318
 21
171.695433
 31
0.0
 11
159.056385
 21
171.542680
 31
0.0
 11
159.138492
 21
171.369093
 31
0.0
 11
159.189238
 21
171.183831
 31
0.0
 11
159.206605
 21
170.992746
 31
0.0
 11
159.189245
 21
170.801680
 31
0.0
 11
159.138501
 21
170.616438
 31
0.0
 11
159.056385
 21
170.442812
 31
0.0
 11
158.948299
 21
170.289948
 31
0.0
 11
158.815999
 21
170.157576
 31
0.0
 11
158.663201
 21
170.049628
 31
0.0
 11
158.489492
 21
169.967946
 31
0.0
 11
158.304171
 21
169.917421
 31
0.0
 11
158.113267
 21
169.899408
 31
0.0
 11
157.923262
 21
169.914726
 31
0.0
 11
157.738389
 21
169.962567
 31
0.0
 11
157.563333
 21
170.041791
 31
0.0
 11
157.408083
 21
170.146974
 31
0.0
 11
157.274381
 21
170.276711
 31
0.0
 11
157.170149
 21
170.427135
 31
0.0
 11
157.096600
 21
170.605113
 31
0.0
 11
157.051222
 21
170.795762
 31
0.0
 11
157.019929
 21
170.992746
 31
0.0
  0
LWPOLYLINE
  5
17d
100
AcDbEntity
  8
0
 62
1
100
AcDbPolyline
 90
4
 70
1
 10
137.883381
 20
163.824397
 30
0.0
 10
141.456669
 20
177.216606
 30
0.0
 10
154.848878
 20
173.643318
 30
0.0
 10
151.275590
 20
160.251110
 30
0.0
  0
LWPOLYLINE
  5
17e
100
AcDbEntity
  8
0
 62
1
100
AcDbPolyline
 90
4
 70
1
 10
159.148881
 20
162.457409
 30
0.0
 10
166.070915
 20
174.466320
 30
0.0
 10
178.079826
 20
167.544286
 30
0.0
 10
171.157792
 20
155.535375
 30
0.0
  0
SPLINE
  5
17f
100
AcDbEntity
  8
0
 62
1
100
AcDbSpline
 70
0
 71
3
 72
43
 73
39
 74
37
 40
0.000000
 40
0.000000
 40
0.000000
 40
0.000000
 40
0.193885
 40
0.384707
 40
0.572522
 40
0.757386
 40
0.945417
 40
1.134776
 40
1.327804
 40
1.519540
 40
1.710677
 40
1.902266
 40
2.094439
 40
2.286646
 40
2.473849
 40
2.660954
 40
2.848066
 40
3.040085
 40
3.232169
 40
3.424055
 40
3.615938
 40
3.808021
 40
4.000041
 40
4.187153
 40
4.374259
 40
4.561462
 40
4.753669
 40
4.945842
 40
5.137431
 40
5.328568
 40
5.520303
 40
5.713331
 40
5.902691
 40
6.090723
 40
6.275587
 40
6.463402
 40
6.654223
 40
6.848106
 40
6.848106
 40
6.848106
 40
6.848106
 10
110.500173
 20
178.716648
 30
0.0
 10
110.510336
 20
178.780478
 30
0.0
 10
110.530500
 20
178.907130
 30
0.0
 10
110.573773
 20
179.093318
 30
0.0
 10
110.643710
 20
179.269008
 30
0.0
 10
110.750721
 20
179.424020
 30
0.0
 10
110.885043
 20
179.556076
 30
0.0
 10
111.041969
 20
179.664992
 30
0.0
 10
111.215941
 20
179.746906
 30
0.0
 10
111.401934
 20
179.798155
 30
0.0
 10
111.593664
 20
179.815898
 30
0.0
 10
111.785529
 20
179.798127
 30
0.0
 10
111.971598
 20
179.747109
 30
0.0
 10
112.144824
 20
179.665422
 30
0.0
 10
112.299664
 20
179.555710
 30
0.0
 10
112.432597
 20
179.422744
 30
0.0
 10
112.542251
 20
179.267983
 30
0.0
 10
112.623971
 20
179.094911
 30
0.0
 10
112.675025
 20
178.908838
 30
0.0
 10
112.692758
 20
178.716648
 30
0.0
 10
112.675024
 20
178.524459
 30
0.0
 10
112.623971
 20
178.338386
 30
0.0
 10
112.542251
 20
178.165315
 30
0.0
 10
112.432597
 20
178.010554
 30
0.0
 10
112.299664
 20
177.877587
 30
0.0
 10
112.144825
 20
177.767873
 30
0.0
 10
111.971598
 20
177.686187
 30
0.0
 10
111.785529
 20
177.635170
 30
0.0
 10
111.593664
 20
177.617400
 30
0.0
 10
111.401934
 20
177.635142
 30
0.0
 10
111.215941
 20
177.686390
 30
0.0
 10
111.041968
 20
177.768303
 30
0.0
 10
110.885043
 20
177.877222
 30
0.0
 10
110.750721
 20
178.009277
 30
0.0
 10
110.643710
 20
178.164290
 30
0.0
 10
110.573773
 20
178.339980
 30
0.0
 10
110.530500
 20
178.526167
 30
0.0
 10
110.510336
 20
178.652818
 30
0.0
 10
110.500173
 20
178.716648
 30
0.0
 11
110.500173
 21
178.716648
 31
0.0
 11
110.532924
 21
178.907746
 31
0.0
 11
110.578667
 21
179.093005
 31
0.0
 11
110.650393
 21
179.266584
 31
0.0
 11
110.754520
 21
179.419333
 31
0.0
 11
110.888118
 21
179.551648
 31
0.0
 11
111.043577
 21
179.659766
 31
0.0
 11
111.218263
 21
179.741891
 31
0.0
 11
111.403164
 21
179.792629
 31
0.0
 11
111.593511
 21
179.809985
 31
0.0
 11
111.784312
 21
179.792629
 31
0.0
 11
111.969667
 21
179.741891
 31
0.0
 11
112.143445
 21
179.659766
 31
0.0
 11
112.296270
 21
179.551648
 31
0.0
 11
112.428561
 21
179.419333
 31
0.0
 11
112.536629
 21
179.266584
 31
0.0
 11
112.618737
 21
179.093005
 31
0.0
 11
112.669484
 21
178.907746
 31
0.0
 11
112.686849
 21
178.716648
 31
0.0
 11
112.669484
 21
178.525551
 31
0.0
 11
112.618737
 21
178.340293
 31
0.0
 11
112.536629
 21
178.166714
 31
0.0
 11
112.428561
 21
178.013964
 31
0.0
 11
112.296270
 21
177.881648
 31
0.0
 11
112.143445
 21
177.773530
 31
0.0
 11
111.969667
 21
177.691405
 31
0.0
 11
111.784312
 21
177.640668
 31
0.0
 11
111.593511
 21
177.623313
 31
0.0
 11
111.403164
 21
177.640668
 31
0.0
 11
111.218263
 21
177.691405
 31
0.0
 11
111.043577
 21
177.773530
 31
0.0
 11
110.888118
 21
177.881649
 31
0.0
 11
110.754520
 21
178.013965
 31
0.0
 11
110.650393
 21
178.166714
 31
0.0
 11
110.578667
 21
178.340293
 31
0.0
 11
110.532924
 21
178.525551
 31
0.0
 11
110.500173
 21
178.716648
 31
0.0
  0
LWPOLYLINE
  5
180
100
AcDbEntity
  8
0
 62
1
100
AcDbPolyline
 90
4
 70
1
 10
32.983805
 20
217.018736
 30
0.0
 10
46.844500
 20
217.018736
 30
0.0
 10
46.844500
 20
203.158036
 30
0.0
 10
32.983805
 20
203.158036
 30
0.0
  0
ENDSEC
  0
SECTION
  2
OBJECTS
  0
DICTIONARY
  5
C
330
0
100
AcDbDictionary
  3
ACAD_GROUP
350
D
  3
ACAD_MLINESTYLE
350
17
  0
DICTIONARY
  5
D
330
C
100
AcDbDictionary
  0
DICTIONARY
  5
1A
330
C
100
AcDbDictionary
  0
DICTIONARY
  5
17
330
C
100
AcDbDictionary
  3
STANDARD
350
18
  0
DICTIONARY
  5
19
330
C
100
AcDbDictionary
  0
ENDSEC
  0
EOF
