  0
SECTION
  2
HEADER
  9
$ACADVER
  1
AC1014
  9
$HANDSEED
  5
FFFF
  9
$MEASUREMENT
 70
     1
  0
ENDSEC
  0
SECTION
  2
TABLES
  0
TABLE
  2
VPORT
  5
8
330
0
100
AcDbSymbolTable
 70
     4
  0
VPORT
  5
2E
330
8
100
AcDbSymbolTableRecord
100
AcDbViewportTableRecord
  2
*ACTIVE
 70
     0
 10
0.0
 20
0.0
 11
1.0
 21
1.0
 12
210.0
 22
148.5
 13
0.0
 23
0.0
 14
10.0
 24
10.0
 15
10.0
 25
10.0
 16
0.0
 26
0.0
 36
1.0
 17
0.0
 27
0.0
 37
0.0
 40
341.0
 41
1.24
 42
50.0
 43
0.0
 44
0.0
 50
0.0
 51
0.0
 71
     0
 72
   100
 73
     1
 74
     3
 75
     0
 76
     0
 77
     0
 78
     0
  0
ENDTAB
  0
TABLE
  2
LTYPE
  5
5
330
0
100
AcDbSymbolTable
 70
     1
  0
LTYPE
  5
14
330
5
100
AcDbSymbolTableRecord
100
AcDbLinetypeTableRecord
  2
BYBLOCK
 70
     0
  3

 72
    65
 73
     0
 40
0.0
  0
LTYPE
  5
15
330
5
100
AcDbSymbolTableRecord
100
AcDbLinetypeTableRecord
  2
BYLAYER
 70
     0
  3

 72
    65
 73
     0
 40
0.0
  0
LTYPE
  5
16
330
5
100
AcDbSymbolTableRecord
100
AcDbLinetypeTableRecord
  2
CONTINUOUS
 70
     0
  3
Solid line
 72
    65
 73
     0
 40
0.0
  0
ENDTAB
  0
TABLE
  2
LAYER
  5
2
100
AcDbSymbolTable
 70
1
  0
LAYER
  5
50
100
AcDbSymbolTableRecord
100
AcDbLayerTableRecord
  2
0
 70
0
  6
CONTINUOUS
  0
ENDTAB
  0
TABLE
  2
STYLE
  5
3
330
0
100
AcDbSymbolTable
 70
     1
  0
STYLE
  5
11
330
3
100
AcDbSymbolTableRecord
100
AcDbTextStyleTableRecord
  2
STANDARD
 70
     0
 40
0.0
 41
1.0
 50
0.0
 71
     0
 42
2.5
  3
txt
  4

  0
ENDTAB
  0
TABLE
  2
VIEW
  5
6
330
0
100
AcDbSymbolTable
 70
     0
  0
ENDTAB
  0
TABLE
  2
UCS
  5
7
330
0
100
AcDbSymbolTable
 70
     0
  0
ENDTAB
  0
TABLE
  2
APPID
  5
9
330
0
100
AcDbSymbolTable
 70
     2
  0
APPID
  5
12
330
9
100
AcDbSymbolTableRecord
100
AcDbRegAppTableRecord
  2
ACAD
 70
     0
  0
ENDTAB
  0
TABLE
  2
DIMSTYLE
  5
A
330
0
100
AcDbSymbolTable
 70
     1
  0
DIMSTYLE
105
27
330
A
100
AcDbSymbolTableRecord
100
AcDbDimStyleTableRecord
  2
ISO-25
 70
     0
  3

  4

  5

  6

  7

 40
1.0
 41
2.5
 42
0.625
 43
3.75
 44
1.25
 45
0.0
 46
0.0
 47
0.0
 48
0.0
140
2.5
141
2.5
142
0.0
143
0.03937007874016
144
1.0
145
0.0
146
1.0
147
0.625
 71
     0
 72
     0
 73
     0
 74
     0
 75
     0
 76
     0
 77
     1
 78
     8
170
     0
171
     3
172
     1
173
     0
174
     0
175
     0
176
     0
177
     0
178
     0
270
     2
271
     2
272
     2
273
     2
274
     3
340
11
275
     0
280
     0
281
     0
282
     0
283
     0
284
     8
285
     0
286
     0
287
     3
288
     0
  0
ENDTAB
  0
TABLE
  2
BLOCK_RECORD
  5
1
330
0
100
AcDbSymbolTable
 70
     1
  0
BLOCK_RECORD
  5
1F
330
1
100
AcDbSymbolTableRecord
100
AcDbBlockTableRecord
  2
*MODEL_SPACE
  0
BLOCK_RECORD
  5
1B
330
1
100
AcDbSymbolTableRecord
100
AcDbBlockTableRecord
  2
*PAPER_SPACE
  0
ENDTAB
  0
ENDSEC
  0
SECTION
  2
BLOCKS
  0
BLOCK
  5
20
330
1F
100
AcDbEntity
  8
0
100
AcDbBlockBegin
  2
*MODEL_SPACE
 70
     0
 10
0.0
 20
0.0
 30
0.0
  3
*MODEL_SPACE
  1

  0
ENDBLK
  5
21
330
1F
100
AcDbEntity
  8
0
100
AcDbBlockEnd
  0
BLOCK
  5
1C
330
1B
100
AcDbEntity
 67
     1
  8
0
100
AcDbBlockBegin
  2
*PAPER_SPACE
  1

  0
ENDBLK
  5
1D
330
1B
100
AcDbEntity
 67
     1
  8
0
100
AcDbBlockEnd
  0
ENDSEC
  0
SECTION
  2
ENTITIES
  0
SPLINE
  5
100
100
AcDbEntity
  8
0
 62
1
100
AcDbSpline
 70
0
 71
3
 72
10
 73
6
 74
4
 40
0.000000
 40
0.000000
 40
0.000000
 40
0.000000
 40
0.432344
 40
0.860547
 40
1.292893
 40
1.292893
 40
1.292893
 40
1.292893
 10
100.662192
 20
175.438929
 30
0.0
 10
100.804193
 20
175.410755
 30
0.0
 10
101.086833
 20
175.354678
 30
0.0
 10
101.467251
 20
175.129153
 30
0.0
 10
101.652087
 20
174.908095
 30
0.0
 10
101.744949
 20
174.797033
 30
0.0
 11
100.662192
 21
175.438929
 31
0.0
 11
101.080764
 21
175.330673
 31
0.0
 11
101.449104
 21
175.112308
 31
0.0
 11
101.744949
 21
174.797033
 31
0.0
  0
SPLINE
  5
101
100
AcDbEntity
  8
0
 62
1
100
AcDbSpline
 70
0
 71
3
 72
10
 73
6
 74
4
 40
0.000000
 40
0.000000
 40
0.000000
 40
0.000000
 40
7.245512
 40
14.491023
 40
21.736535
 40
21.736535
 40
21.736535
 40
21.736535
 10
101.744949
 20
174.797033
 30
0.0
 10
102.950756
 20
172.704408
 30
0.0
 10
105.362369
 20
168.519159
 30
0.0
 10
108.979788
 20
162.241283
 30
0.0
 10
111.391402
 20
158.056033
 30
0.0
 10
112.597208
 20
155.963408
 30
0.0
 11
101.744949
 21
174.797033
 31
0.0
 11
105.362369
 21
168.519158
 31
0.0
 11
108.979788
 21
162.241283
 31
0.0
 11
112.597208
 21
155.963408
 31
0.0
  0
LWPOLYLINE
  5
102
100
AcDbEntity
  8
0
 62
1
100
AcDbPolyline
 90
2
 70
0
 10
53.317139
 20
175.438929
 30
0.0
 10
100.662192
 20
175.438929
 30
0.0
  0
SPLINE
  5
103
100
AcDbEntity
  8
0
 62
1
100
AcDbSpline
 70
0
 71
3
 72
13
 73
9
 74
7
 40
0.000000
 40
0.000000
 40
0.000000
 40
0.000000
 40
0.423620
 40
0.834129
 40
1.257745
 40
1.322637
 40
1.387484
 40
1.452376
 40
1.452376
 40
1.452376
 40
1.452376
 10
112.597208
 20
155.963408
 30
0.0
 10
112.635237
 20
155.823787
 30
0.0
 10
112.710117
 20
155.548866
 30
0.0
 10
112.535932
 20
155.135823
 30
0.0
 10
112.286726
 20
154.945280
 30
0.0
 10
112.113290
 20
154.882363
 30
0.0
 10
112.050852
 20
154.864383
 30
0.0
 10
112.008326
 20
154.856419
 30
0.0
 10
111.987055
 20
154.852436
 30
0.0
 11
112.597208
 21
155.963408
 31
0.0
 11
112.662186
 21
155.544801
 31
0.0
 11
112.509724
 21
155.163654
 31
0.0
 11
112.173981
 21
154.905339
 31
0.0
 11
112.113037
 21
154.883049
 31
0.0
 11
112.050640
 21
154.865391
 31
0.0
 11
111.987055
 21
154.852436
 31
0.0
  0
LWPOLYLINE
  5
104
100
AcDbEntity
  8
0
 62
1
100
AcDbPolyline
 90
2
 70
0
 10
111.987055
 20
154.852436
 30
0.0
 10
53.327719
 20
154.852436
 30
0.0
  0
SPLINE
  5
105
100
AcDbEntity
  8
0
 62
1
100
AcDbSpline
 70
0
 71
3
 72
10
 73
6
 74
4
 40
0.000000
 40
0.000000
 40
0.000000
 40
0.000000
 40
0.261845
 40
0.515972
 40
0.777876
 40
0.777876
 40
0.777876
 40
0.777876
 10
53.327719
 20
154.852436
 30
0.0
 10
53.240056
 20
154.866794
 30
0.0
 10
53.067312
 20
154.895087
 30
0.0
 10
52.869504
 20
155.095799
 30
0.0
 10
52.843583
 20
155.268918
 30
0.0
 10
52.830427
 20
155.356782
 30
0.0
 11
53.327719
 21
154.852436
 31
0.0
 11
53.075425
 21
154.922510
 31
0.0
 11
52.897020
 21
155.103486
 31
0.0
 11
52.830427
 21
155.356782
 31
0.0
  0
SPLINE
  5
106
100
AcDbEntity
  8
0
 62
1
100
AcDbSpline
 70
0
 71
3
 72
10
 73
6
 74
4
 40
0.000000
 40
0.000000
 40
0.000000
 40
0.000000
 40
0.260695
 40
0.513715
 40
0.774409
 40
0.774409
 40
0.774409
 40
0.774409
 10
52.830427
 20
174.924002
 30
0.0
 10
52.844076
 20
175.011362
 30
0.0
 10
52.870973
 20
175.183512
 30
0.0
 10
53.068502
 20
175.382442
 30
0.0
 10
53.240458
 20
175.410555
 30
0.0
 10
53.327719
 20
175.424821
 30
0.0
 11
52.830427
 21
174.924002
 31
0.0
 11
52.898193
 21
175.175735
 31
0.0
 11
53.076472
 21
175.355278
 31
0.0
 11
53.327719
 21
175.424821
 31
0.0
  0
LWPOLYLINE
  5
107
100
AcDbEntity
  8
0
 62
1
100
AcDbPolyline
 90
2
 70
0
 10
52.830427
 20
155.356782
 30
0.0
 10
52.830427
 20
174.924002
 30
0.0
  0
SPLINE
  5
108
100
AcDbEntity
  8
0
 62
1
100
AcDbSpline
 70
0
 71
3
 72
22
 73
18
 74
16
 40
0.000000
 40
0.000000
 40
0.000000
 40
0.000000
 40
0.432216
 40
0.856725
 40
1.288941
 40
1.721156
 40
2.145666
 40
2.577881
 40
3.010097
 40
3.434607
 40
3.866822
 40
4.299038
 40
4.723547
 40
5.155763
 40
5.729947
 40
6.287160
 40
6.861344
 40
6.861344
 40
6.861344
 40
6.861344
 10
100.281287
 20
172.959521
 30
0.0
 10
100.136284
 20
172.942776
 30
0.0
 10
99.848863
 20
172.909585
 30
0.0
 10
99.482676
 20
172.655004
 30
0.0
 10
99.237490
 20
172.291060
 30
0.0
 10
99.152356
 20
171.857642
 30
0.0
 10
99.238819
 20
171.425868
 30
0.0
 10
99.483950
 20
171.059212
 30
0.0
 10
99.851341
 20
170.815272
 30
0.0
 10
100.283578
 20
170.730193
 30
0.0
 10
100.716008
 20
170.816714
 30
0.0
 10
101.081819
 20
171.063086
 30
0.0
 10
101.325423
 20
171.430017
 30
0.0
 10
101.420478
 20
171.910545
 30
0.0
 10
101.276959
 20
172.433842
 30
0.0
 10
100.856274
 20
172.870012
 30
0.0
 10
100.474857
 20
172.929388
 30
0.0
 10
100.281287
 20
172.959521
 30
0.0
 11
100.281287
 21
172.959521
 31
0.0
 11
99.857483
 21
172.874667
 31
0.0
 11
99.504612
 21
172.638679
 31
0.0
 11
99.264325
 21
172.279412
 31
0.0
 11
99.180876
 21
171.855329
 31
0.0
 11
99.264196
 21
171.439076
 31
0.0
 11
99.504448
 21
171.079787
 31
0.0
 11
99.864507
 21
170.840688
 31
0.0
 11
100.281025
 21
170.758706
 31
0.0
 11
100.704838
 21
170.843515
 31
0.0
 11
101.063332
 21
171.084954
 31
0.0
 11
101.298186
 21
171.438581
 31
0.0
 11
101.381679
 21
171.862656
 31
0.0
 11
101.230274
 21
172.416519
 31
0.0
 11
100.835633
 21
172.809894
 31
0.0
 11
100.281287
 21
172.959521
 31
0.0
  0
LWPOLYLINE
  5
109
100
AcDbEntity
  8
0
 62
1
100
AcDbPolyline
 90
1
 70
1
 10
100.281287
 20
172.959521
 30
0.0
  0
LWPOLYLINE
  5
10a
100
AcDbEntity
  8
0
 62
1
100
AcDbPolyline
 90
1
 70
1
 10
108.777580
 20
158.463978
 30
0.0
  0
SPLINE
  5
10b
100
AcDbEntity
  8
0
 62
1
100
AcDbSpline
 70
0
 71
3
 72
25
 73
21
 74
19
 40
0.000000
 40
0.000000
 40
0.000000
 40
0.000000
 40
0.431923
 40
0.856154
 40
1.288077
 40
1.720000
 40
2.144232
 40
2.576154
 40
3.008077
 40
3.432309
 40
3.864232
 40
4.296155
 40
4.720386
 40
5.152309
 40
5.440364
 40
5.726035
 40
6.014090
 40
6.302145
 40
6.587816
 40
6.875871
 40
6.875871
 40
6.875871
 40
6.875871
 10
108.777580
 20
158.463978
 30
0.0
 10
108.632676
 20
158.447257
 30
0.0
 10
108.345449
 20
158.414114
 30
0.0
 10
107.979420
 20
158.159865
 30
0.0
 10
107.734162
 20
157.796342
 30
0.0
 10
107.648681
 20
157.363309
 30
0.0
 10
107.734564
 20
156.931735
 30
0.0
 10
107.978983
 20
156.564978
 30
0.0
 10
108.345690
 20
156.320572
 30
0.0
 10
108.777449
 20
156.234689
 30
0.0
 10
109.209781
 20
156.320158
 30
0.0
 10
109.575912
 20
156.565464
 30
0.0
 10
109.820540
 20
156.931316
 30
0.0
 10
109.897167
 20
157.315775
 30
0.0
 10
109.852623
 20
157.651623
 30
0.0
 10
109.741484
 20
157.920023
 30
0.0
 10
109.564661
 20
158.150909
 30
0.0
 10
109.334065
 20
158.326574
 30
0.0
 10
109.065663
 20
158.442032
 30
0.0
 10
108.873873
 20
158.456642
 30
0.0
 10
108.777580
 20
158.463978
 30
0.0
 11
108.777580
 21
158.463978
 31
0.0
 11
108.354051
 21
158.379241
 31
0.0
 11
108.001315
 21
158.143550
 31
0.0
 11
107.760951
 21
157.784688
 31
0.0
 11
107.677160
 21
157.360970
 31
0.0
 11
107.759923
 21
156.944890
 31
0.0
 11
107.999486
 21
156.585492
 31
0.0
 11
108.358884
 21
156.345929
 31
0.0
 11
108.774964
 21
156.263166
 31
0.0
 11
109.198682
 21
156.346957
 31
0.0
 11
109.557544
 21
156.587321
 31
0.0
 11
109.793234
 21
156.940057
 31
0.0
 11
109.877972
 21
157.363586
 31
0.0
 11
109.840272
 21
157.649163
 31
0.0
 11
109.730950
 21
157.913089
 31
0.0
 11
109.555674
 21
158.141680
 31
0.0
 11
109.327083
 21
158.316956
 31
0.0
 11
109.063157
 21
158.426278
 31
0.0
 11
108.777580
 21
158.463978
 31
0.0
  0
LWPOLYLINE
  5
10c
100
AcDbEntity
  8
0
 62
1
100
AcDbPolyline
 90
2
 70
0
 10
48.437214
 20
234.927223
 30
0.0
 10
85.430827
 20
234.927223
 30
0.0
  0
SPLINE
  5
10d
100
AcDbEntity
  8
0
 62
1
100
AcDbSpline
 70
0
 71
3
 72
10
 73
6
 74
4
 40
0.000000
 40
0.000000
 40
0.000000
 40
0.000000
 40
0.261367
 40
0.515117
 40
0.776506
 40
0.776506
 40
0.776506
 40
0.776506
 10
85.430827
 20
234.927223
 30
0.0
 10
85.518314
 20
234.941445
 30
0.0
 10
85.690737
 20
234.969474
 30
0.0
 10
85.889357
 20
235.168133
 30
0.0
 10
85.917411
 20
235.340553
 30
0.0
 10
85.931646
 20
235.428042
 30
0.0
 11
85.430827
 21
234.927223
 31
0.0
 11
85.682818
 21
234.996600
 31
0.0
 11
85.862238
 21
235.176036
 31
0.0
 11
85.931646
 21
235.428042
 31
0.0
  0
LWPOLYLINE
  5
10e
100
AcDbEntity
  8
0
 62
1
100
AcDbPolyline
 90
2
 70
0
 10
85.931646
 20
235.428042
 30
0.0
 10
85.931646
 20
239.177132
 30
0.0
  0
SPLINE
  5
10f
100
AcDbEntity
  8
0
 62
1
100
AcDbSpline
 70
0
 71
3
 72
10
 73
6
 74
4
 40
0.000000
 40
0.000000
 40
0.000000
 40
0.000000
 40
0.261858
 40
0.515950
 40
0.777807
 40
0.777807
 40
0.777807
 40
0.777807
 10
85.931646
 20
239.177132
 30
0.0
 10
85.945421
 20
239.264889
 30
0.0
 10
85.972563
 20
239.437799
 30
0.0
 10
86.171799
 20
239.637035
 30
0.0
 10
86.344709
 20
239.664177
 30
0.0
 10
86.432465
 20
239.677952
 30
0.0
 11
85.931646
 21
239.177132
 31
0.0
 11
86.000023
 21
239.429906
 31
0.0
 11
86.179693
 21
239.609575
 31
0.0
 11
86.432465
 21
239.677952
 31
0.0
  0
LWPOLYLINE
  5
110
100
AcDbEntity
  8
0
 62
1
100
AcDbPolyline
 90
2
 70
0
 10
86.432465
 20
239.677952
 30
0.0
 10
104.419635
 20
239.677952
 30
0.0
  0
SPLINE
  5
111
100
AcDbEntity
  8
0
 62
1
100
AcDbSpline
 70
0
 71
3
 72
10
 73
6
 74
4
 40
0.000000
 40
0.000000
 40
0.000000
 40
0.000000
 40
0.261197
 40
0.514560
 40
0.775723
 40
0.775723
 40
0.775723
 40
0.775723
 10
104.419635
 20
239.677952
 30
0.0
 10
104.507266
 20
239.691154
 30
0.0
 10
104.679900
 20
239.717163
 30
0.0
 10
104.879464
 20
239.915262
 30
0.0
 10
104.906654
 20
240.087712
 30
0.0
 10
104.920455
 20
240.175244
 30
0.0
 11
104.419635
 21
239.677952
 31
0.0
 11
104.672155
 21
239.744716
 31
0.0
 11
104.851954
 21
239.923225
 31
0.0
 11
104.920455
 21
240.175244
 31
0.0
  0
LWPOLYLINE
  5
112
100
AcDbEntity
  8
0
 62
1
100
AcDbPolyline
 90
2
 70
0
 10
104.920455
 20
240.175244
 30
0.0
 10
104.920455
 20
241.427292
 30
0.0
  0
SPLINE
  5
113
100
AcDbEntity
  8
0
 62
1
100
AcDbSpline
 70
0
 71
3
 72
10
 73
6
 74
4
 40
0.000000
 40
0.000000
 40
0.000000
 40
0.000000
 40
0.261366
 40
0.515116
 40
0.776506
 40
0.776506
 40
0.776506
 40
0.776506
 10
104.920455
 20
241.427292
 30
0.0
 10
104.934677
 20
241.514778
 30
0.0
 10
104.962706
 20
241.687201
 30
0.0
 10
105.161364
 20
241.885822
 30
0.0
 10
105.333785
 20
241.913876
 30
0.0
 10
105.421274
 20
241.928111
 30
0.0
 11
104.920455
 21
241.427292
 31
0.0
 11
104.989832
 21
241.679282
 31
0.0
 11
105.169267
 21
241.858703
 31
0.0
 11
105.421274
 21
241.928111
 31
0.0
  0
LWPOLYLINE
  5
114
100
AcDbEntity
  8
0
 62
1
100
AcDbPolyline
 90
2
 70
0
 10
105.421274
 20
241.928111
 30
0.0
 10
122.431494
 20
241.928111
 30
0.0
  0
SPLINE
  5
115
100
AcDbEntity
  8
0
 62
1
100
AcDbSpline
 70
0
 71
3
 72
10
 73
6
 74
4
 40
0.000000
 40
0.000000
 40
0.000000
 40
0.000000
 40
0.261367
 40
0.515117
 40
0.776506
 40
0.776506
 40
0.776506
 40
0.776506
 10
122.431494
 20
241.928111
 30
0.0
 10
122.518981
 20
241.913890
 30
0.0
 10
122.691404
 20
241.885860
 30
0.0
 10
122.890024
 20
241.687202
 30
0.0
 10
122.918078
 20
241.514781
 30
0.0
 10
122.932313
 20
241.427292
 30
0.0
 11
122.431494
 21
241.928111
 31
0.0
 11
122.683485
 21
241.858734
 31
0.0
 11
122.862905
 21
241.679298
 31
0.0
 11
122.932313
 21
241.427292
 31
0.0
  0
LWPOLYLINE
  5
116
100
AcDbEntity
  8
0
 62
1
100
AcDbPolyline
 90
2
 70
0
 10
122.932313
 20
241.427292
 30
0.0
 10
122.932313
 20
240.175244
 30
0.0
  0
SPLINE
  5
117
100
AcDbEntity
  8
0
 62
1
100
AcDbSpline
 70
0
 71
3
 72
10
 73
6
 74
4
 40
0.000000
 40
0.000000
 40
0.000000
 40
0.000000
 40
0.261185
 40
0.514565
 40
0.775750
 40
0.775750
 40
0.775750
 40
0.775750
 10
122.932313
 20
240.175244
 30
0.0
 10
122.946114
 20
240.087706
 30
0.0
 10
122.973304
 20
239.915247
 30
0.0
 10
123.172852
 20
239.717105
 30
0.0
 10
123.345499
 20
239.691134
 30
0.0
 10
123.433132
 20
239.677952
 30
0.0
 11
122.932313
 21
240.175244
 31
0.0
 11
123.000814
 21
239.923202
 31
0.0
 11
123.180612
 21
239.744669
 31
0.0
 11
123.433132
 21
239.677952
 31
0.0
  0
LWPOLYLINE
  5
118
100
AcDbEntity
  8
0
 62
1
100
AcDbPolyline
 90
2
 70
0
 10
123.433132
 20
239.677952
 30
0.0
 10
141.420302
 20
239.677952
 30
0.0
  0
SPLINE
  5
119
100
AcDbEntity
  8
0
 62
1
100
AcDbSpline
 70
0
 71
3
 72
10
 73
6
 74
4
 40
0.000000
 40
0.000000
 40
0.000000
 40
0.000000
 40
0.261857
 40
0.515949
 40
0.777807
 40
0.777807
 40
0.777807
 40
0.777807
 10
141.420302
 20
239.677952
 30
0.0
 10
141.508059
 20
239.664177
 30
0.0
 10
141.680968
 20
239.637035
 30
0.0
 10
141.880205
 20
239.437799
 30
0.0
 10
141.907346
 20
239.264889
 30
0.0
 10
141.921122
 20
239.177132
 30
0.0
 11
141.420302
 21
239.677952
 31
0.0
 11
141.673075
 21
239.609575
 31
0.0
 11
141.852745
 21
239.429906
 31
0.0
 11
141.921122
 21
239.177132
 31
0.0
  0
LWPOLYLINE
  5
11a
100
AcDbEntity
  8
0
 62
1
100
AcDbPolyline
 90
2
 70
0
 10
141.921122
 20
239.177132
 30
0.0
 10
141.921122
 20
237.678202
 30
0.0
  0
SPLINE
  5
11b
100
AcDbEntity
  8
0
 62
1
100
AcDbSpline
 70
0
 71
3
 72
10
 73
6
 74
4
 40
0.000000
 40
0.000000
 40
0.000000
 40
0.000000
 40
0.262340
 40
0.516819
 40
0.779206
 40
0.779206
 40
0.779206
 40
0.779206
 10
141.921122
 20
237.678202
 30
0.0
 10
141.934398
 20
237.590166
 30
0.0
 10
141.960552
 20
237.416732
 30
0.0
 10
142.160471
 20
237.216892
 30
0.0
 10
142.333900
 20
237.190686
 30
0.0
 10
142.421941
 20
237.177382
 30
0.0
 11
141.921122
 21
237.678202
 31
0.0
 11
141.988377
 21
237.424629
 31
0.0
 11
142.168336
 21
237.244701
 31
0.0
 11
142.421941
 21
237.177382
 31
0.0
  0
LWPOLYLINE
  5
11c
100
AcDbEntity
  8
0
 62
1
100
AcDbPolyline
 90
2
 70
0
 10
142.421941
 20
237.177382
 30
0.0
 10
160.409111
 20
237.177382
 30
0.0
  0
SPLINE
  5
11d
100
AcDbEntity
  8
0
 62
1
100
AcDbSpline
 70
0
 71
3
 72
10
 73
6
 74
4
 40
0.000000
 40
0.000000
 40
0.000000
 40
0.000000
 40
0.262371
 40
0.516808
 40
0.779138
 40
0.779138
 40
0.779138
 40
0.779138
 10
160.409111
 20
237.177382
 30
0.0
 10
160.497142
 20
237.164056
 30
0.0
 10
160.670543
 20
237.137806
 30
0.0
 10
160.870422
 20
236.937994
 30
0.0
 10
160.896627
 20
236.764590
 30
0.0
 10
160.909930
 20
236.676563
 30
0.0
 11
160.409111
 21
237.177382
 31
0.0
 11
160.662684
 21
237.110010
 31
0.0
 11
160.842612
 21
236.930109
 31
0.0
 11
160.909930
 21
236.676563
 31
0.0
  0
SPLINE
  5
11e
100
AcDbEntity
  8
0
 62
1
100
AcDbSpline
 70
0
 71
3
 72
10
 73
6
 74
4
 40
0.000000
 40
0.000000
 40
0.000000
 40
0.000000
 40
0.388078
 40
0.773993
 40
1.162073
 40
1.162073
 40
1.162073
 40
1.162073
 10
160.909930
 20
186.901478
 30
0.0
 10
160.944936
 20
186.776606
 30
0.0
 10
161.014753
 20
186.527557
 30
0.0
 10
161.213476
 20
186.188273
 30
0.0
 10
161.396549
 20
186.005560
 30
0.0
 10
161.488341
 20
185.913948
 30
0.0
 11
160.909930
 21
186.901478
 31
0.0
 11
161.030671
 21
186.532661
 31
0.0
 11
161.225713
 21
186.199661
 31
0.0
 11
161.488341
 21
185.913948
 31
0.0
  0
SPLINE
  5
11f
100
AcDbEntity
  8
0
 62
1
100
AcDbSpline
 70
0
 71
3
 72
10
 73
6
 74
4
 40
0.000000
 40
0.000000
 40
0.000000
 40
0.000000
 40
7.345312
 40
14.690623
 40
22.035934
 40
22.035934
 40
22.035934
 40
22.035934
 10
161.488341
 20
185.913948
 30
0.0
 10
163.607614
 20
184.687763
 30
0.0
 10
167.846159
 20
182.235395
 30
0.0
 10
174.203977
 20
178.556842
 30
0.0
 10
178.442523
 20
176.104474
 30
0.0
 10
180.561795
 20
174.878290
 30
0.0
 11
161.488341
 21
185.913948
 31
0.0
 11
167.846159
 21
182.235395
 31
0.0
 11
174.203977
 21
178.556842
 31
0.0
 11
180.561795
 21
174.878290
 31
0.0
  0
LWPOLYLINE
  5
120
100
AcDbEntity
  8
0
 62
1
100
AcDbPolyline
 90
2
 70
0
 10
160.909930
 20
236.676563
 30
0.0
 10
160.909930
 20
186.901478
 30
0.0
  0
SPLINE
  5
121
100
AcDbEntity
  8
0
 62
1
100
AcDbSpline
 70
0
 71
3
 72
10
 73
6
 74
4
 40
0.000000
 40
0.000000
 40
0.000000
 40
0.000000
 40
0.630870
 40
1.246289
 40
1.877157
 40
1.877157
 40
1.877157
 40
1.877157
 10
180.561795
 20
174.878290
 30
0.0
 10
180.712312
 20
174.727328
 30
0.0
 10
181.009658
 20
174.429101
 30
0.0
 10
181.156069
 20
173.775673
 30
0.0
 10
181.014409
 20
173.379080
 30
0.0
 10
180.942700
 20
173.178326
 30
0.0
 11
180.561795
 21
174.878290
 31
0.0
 11
180.962061
 21
174.390658
 31
0.0
 11
181.096619
 21
173.790130
 31
0.0
 11
180.942700
 21
173.178326
 31
0.0
  0
SPLINE
  5
122
100
AcDbEntity
  8
0
 62
1
100
AcDbSpline
 70
0
 71
3
 72
10
 73
6
 74
4
 40
0.000000
 40
0.000000
 40
0.000000
 40
0.000000
 40
0.456428
 40
0.899363
 40
1.355792
 40
1.355792
 40
1.355792
 40
1.355792
 10
167.716840
 20
150.123001
 30
0.0
 10
167.609044
 20
150.011868
 30
0.0
 10
167.396640
 20
149.792889
 30
0.0
 10
166.912911
 20
149.708761
 30
0.0
 10
166.639047
 20
149.843173
 30
0.0
 10
166.500061
 20
149.911387
 30
0.0
 11
167.716840
 21
150.123001
 31
0.0
 11
167.365515
 21
149.831630
 31
0.0
 11
166.929129
 21
149.755737
 31
0.0
 11
166.500061
 21
149.911387
 31
0.0
  0
SPLINE
  5
123
100
AcDbEntity
  8
0
 62
1
100
AcDbSpline
 70
0
 71
3
 72
10
 73
6
 74
4
 40
0.000000
 40
0.000000
 40
0.000000
 40
0.000000
 40
5.675743
 40
11.351487
 40
17.027230
 40
17.027230
 40
17.027230
 40
17.027230
 10
166.500061
 20
149.911387
 30
0.0
 10
164.860054
 20
150.854635
 30
0.0
 10
161.580040
 20
152.741133
 30
0.0
 10
156.660021
 20
155.570880
 30
0.0
 10
153.380007
 20
157.457377
 30
0.0
 10
151.740000
 20
158.400626
 30
0.0
 11
166.500061
 21
149.911387
 31
0.0
 11
161.580041
 21
152.741133
 31
0.0
 11
156.660020
 21
155.570880
 31
0.0
 11
151.740000
 21
158.400626
 31
0.0
  0
LWPOLYLINE
  5
124
100
AcDbEntity
  8
0
 62
1
100
AcDbPolyline
 90
3
 70
0
 10
180.942700
 20
173.178326
 30
0.0
 10
167.716840
 20
150.144167
 30
0.0
 10
167.716840
 20
150.123001
 30
0.0
  0
SPLINE
  5
125
100
AcDbEntity
  8
0
 62
1
100
AcDbSpline
 70
0
 71
3
 72
10
 73
6
 74
4
 40
0.000000
 40
0.000000
 40
0.000000
 40
0.000000
 40
0.095945
 40
0.191843
 40
0.287789
 40
0.287789
 40
0.287789
 40
0.287789
 10
151.740000
 20
158.400626
 30
0.0
 10
151.709665
 20
158.410775
 30
0.0
 10
151.649009
 20
158.431069
 30
0.0
 10
151.555892
 20
158.454640
 30
0.0
 10
151.492886
 20
158.465655
 30
0.0
 10
151.461376
 20
158.471164
 30
0.0
 11
151.740000
 21
158.400626
 31
0.0
 11
151.648639
 21
158.429928
 31
0.0
 11
151.555674
 21
158.453462
 31
0.0
 11
151.461376
 21
158.471164
 31
0.0
  0
LWPOLYLINE
  5
126
100
AcDbEntity
  8
0
 62
1
100
AcDbPolyline
 90
2
 70
0
 10
151.461376
 20
158.471164
 30
0.0
 10
114.672322
 20
163.941380
 30
0.0
  0
SPLINE
  5
127
100
AcDbEntity
  8
0
 62
1
100
AcDbSpline
 70
0
 71
3
 72
10
 73
6
 74
4
 40
0.000000
 40
0.000000
 40
0.000000
 40
0.000000
 40
0.129693
 40
0.258670
 40
0.388362
 40
0.388362
 40
0.388362
 40
0.388362
 10
114.672322
 20
163.941380
 30
0.0
 10
114.629422
 20
163.947531
 30
0.0
 10
114.543858
 20
163.959799
 30
0.0
 10
114.422723
 20
164.010677
 30
0.0
 10
114.354060
 20
164.063183
 30
0.0
 10
114.319633
 20
164.089509
 30
0.0
 11
114.672322
 21
163.941380
 31
0.0
 11
114.544849
 21
163.965268
 31
0.0
 11
114.425935
 21
164.015212
 31
0.0
 11
114.319633
 21
164.089509
 31
0.0
  0
LWPOLYLINE
  5
128
100
AcDbEntity
  8
0
 62
1
100
AcDbPolyline
 90
2
 70
0
 10
114.319633
 20
164.089509
 30
0.0
 10
103.774213
 20
178.549783
 30
0.0
  0
SPLINE
  5
129
100
AcDbEntity
  8
0
 62
1
100
AcDbSpline
 70
0
 71
3
 72
10
 73
6
 74
4
 40
0.000000
 40
0.000000
 40
0.000000
 40
0.000000
 40
0.130192
 40
0.259362
 40
0.389554
 40
0.389554
 40
0.389554
 40
0.389554
 10
103.774213
 20
178.549783
 30
0.0
 10
103.740756
 20
178.577669
 30
0.0
 10
103.674103
 20
178.633223
 30
0.0
 10
103.551396
 20
178.683533
 30
0.0
 10
103.464928
 20
178.690759
 30
0.0
 10
103.421524
 20
178.694386
 30
0.0
 11
103.774213
 21
178.549783
 31
0.0
 11
103.670050
 21
178.627884
 31
0.0
 11
103.550534
 21
178.676885
 31
0.0
 11
103.421524
 21
178.694386
 31
0.0
  0
LWPOLYLINE
  5
12a
100
AcDbEntity
  8
0
 62
1
100
AcDbPolyline
 90
2
 70
0
 10
103.421524
 20
178.694386
 30
0.0
 10
48.465429
 20
178.694386
 30
0.0
  0
SPLINE
  5
12b
100
AcDbEntity
  8
0
 62
1
100
AcDbSpline
 70
0
 71
3
 72
10
 73
6
 74
4
 40
0.000000
 40
0.000000
 40
0.000000
 40
0.000000
 40
0.260716
 40
0.513708
 40
0.774365
 40
0.774365
 40
0.774365
 40
0.774365
 10
48.465429
 20
178.694386
 30
0.0
 10
48.378170
 20
178.708686
 30
0.0
 10
48.206238
 20
178.736862
 30
0.0
 10
48.008680
 20
178.935721
 30
0.0
 10
47.981785
 20
179.107854
 30
0.0
 10
47.968136
 20
179.195205
 30
0.0
 11
48.465429
 21
178.694386
 31
0.0
 11
48.214181
 21
178.764008
 31
0.0
 11
48.035901
 21
178.943511
 31
0.0
 11
47.968136
 21
179.195205
 31
0.0
  0
SPLINE
  5
12c
100
AcDbEntity
  8
0
 62
1
100
AcDbSpline
 70
0
 71
3
 72
10
 73
6
 74
4
 40
0.000000
 40
0.000000
 40
0.000000
 40
0.000000
 40
0.083078
 40
0.166156
 40
0.332312
 40
0.332312
 40
0.332312
 40
0.332312
 10
47.968136
 20
202.081234
 30
0.0
 10
47.968136
 20
202.055949
 30
0.0
 10
47.968136
 20
202.005380
 30
0.0
 10
47.968136
 20
201.846448
 30
0.0
 10
47.968136
 20
201.987320
 30
0.0
 10
47.968136
 20
202.081234
 30
0.0
 11
47.968136
 21
202.081234
 31
0.0
 11
47.968136
 21
201.998156
 31
0.0
 11
47.968136
 21
201.915078
 31
0.0
 11
47.968136
 21
202.081234
 31
0.0
  0
SPLINE
  5
12d
100
AcDbEntity
  8
0
 62
1
100
AcDbSpline
 70
0
 71
3
 72
10
 73
6
 74
4
 40
0.000000
 40
0.000000
 40
0.000000
 40
0.000000
 40
0.233333
 40
0.460931
 40
0.694265
 40
0.694265
 40
0.694265
 40
0.694265
 10
47.968136
 20
202.081234
 30
0.0
 10
47.947315
 20
202.157286
 30
0.0
 10
47.906183
 20
202.307520
 30
0.0
 10
47.723066
 20
202.474362
 30
0.0
 10
47.569662
 20
202.501370
 30
0.0
 10
47.492005
 20
202.515042
 30
0.0
 11
47.968136
 21
202.081234
 31
0.0
 11
47.885058
 21
202.299276
 31
0.0
 11
47.716818
 21
202.452561
 31
0.0
 11
47.492005
 21
202.515042
 31
0.0
  0
LWPOLYLINE
  5
12e
100
AcDbEntity
  8
0
 62
1
100
AcDbPolyline
 90
4
 70
0
 10
47.968136
 20
179.195205
 30
0.0
 10
47.968136
 20
180.009918
 30
0.0
 10
47.968136
 20
180.009918
 30
0.0
 10
47.968136
 20
202.081234
 30
0.0
  0
SPLINE
  5
12f
100
AcDbEntity
  8
0
 62
1
100
AcDbSpline
 70
0
 71
3
 72
10
 73
6
 74
4
 40
0.000000
 40
0.000000
 40
0.000000
 40
0.000000
 40
0.090916
 40
0.136373
 40
0.181831
 40
0.181831
 40
0.181831
 40
0.181831
 10
47.492005
 20
202.515042
 30
0.0
 10
47.440618
 20
202.515042
 30
0.0
 10
47.363538
 20
202.515042
 30
0.0
 10
47.450501
 20
202.515042
 30
0.0
 10
47.478171
 20
202.515042
 30
0.0
 10
47.492005
 20
202.515042
 30
0.0
 11
47.492005
 21
202.515042
 31
0.0
 11
47.401090
 21
202.515042
 31
0.0
 11
47.446548
 21
202.515042
 31
0.0
 11
47.492005
 21
202.515042
 31
0.0
  0
SPLINE
  5
130
100
AcDbEntity
  8
0
 62
1
100
AcDbSpline
 70
0
 71
3
 72
10
 73
6
 74
4
 40
0.000000
 40
0.000000
 40
0.000000
 40
0.000000
 40
0.264734
 40
0.522110
 40
0.786854
 40
0.786854
 40
0.786854
 40
0.786854
 10
29.099242
 20
202.515042
 30
0.0
 10
29.010366
 20
202.527009
 30
0.0
 10
28.835083
 20
202.550611
 30
0.0
 10
28.625839
 20
202.741856
 30
0.0
 10
28.586585
 20
202.914310
 30
0.0
 10
28.566681
 20
203.001754
 30
0.0
 11
29.099242
 21
202.515042
 31
0.0
 11
28.841981
 21
202.577501
 31
0.0
 11
28.651998
 21
202.751134
 31
0.0
 11
28.566681
 21
203.001754
 31
0.0
  0
SPLINE
  5
131
100
AcDbEntity
  8
0
 62
1
100
AcDbSpline
 70
0
 71
3
 72
10
 73
6
 74
4
 40
0.000000
 40
0.000000
 40
0.000000
 40
0.000000
 40
3.977830
 40
11.712212
 40
17.465260
 40
17.465260
 40
17.465260
 40
17.465260
 10
28.566681
 20
203.001754
 30
0.0
 10
28.570148
 20
204.327693
 30
0.0
 10
28.580357
 20
208.231750
 30
0.0
 10
28.596203
 20
214.053482
 30
0.0
 10
28.610121
 20
218.549270
 30
0.0
 10
28.616058
 20
220.466943
 30
0.0
 11
28.566681
 21
203.001754
 31
0.0
 11
28.577131
 21
206.979570
 31
0.0
 11
28.598554
 21
214.713923
 31
0.0
 11
28.616058
 21
220.466943
 31
0.0
  0
LWPOLYLINE
  5
132
100
AcDbEntity
  8
0
 62
1
100
AcDbPolyline
 90
2
 70
0
 10
47.492005
 20
202.515042
 30
0.0
 10
29.099242
 20
202.515042
 30
0.0
  0
SPLINE
  5
133
100
AcDbEntity
  8
0
 62
1
100
AcDbSpline
 70
0
 71
3
 72
10
 73
6
 74
4
 40
0.000000
 40
0.000000
 40
0.000000
 40
0.000000
 40
0.254714
 40
0.501166
 40
0.755877
 40
0.755877
 40
0.755877
 40
0.755877
 10
28.616058
 20
220.466943
 30
0.0
 10
28.625579
 20
220.553024
 30
0.0
 10
28.644314
 20
220.722393
 30
0.0
 10
28.837422
 20
220.919796
 30
0.0
 10
29.006339
 20
220.942245
 30
0.0
 10
29.092189
 20
220.953655
 30
0.0
 11
28.616058
 21
220.466943
 31
0.0
 11
28.672856
 21
220.715244
 31
0.0
 11
28.845199
 21
220.891417
 31
0.0
 11
29.092189
 21
220.953655
 31
0.0
  0
LWPOLYLINE
  5
134
100
AcDbEntity
  8
0
 62
1
100
AcDbPolyline
 90
2
 70
0
 10
29.092189
 20
220.953655
 30
0.0
 10
47.566070
 20
220.953655
 30
0.0
  0
SPLINE
  5
135
100
AcDbEntity
  8
0
 62
1
100
AcDbSpline
 70
0
 71
3
 72
10
 73
6
 74
4
 40
0.000000
 40
0.000000
 40
0.000000
 40
0.000000
 40
0.231919
 40
0.410363
 40
0.605206
 40
0.605206
 40
0.605206
 40
0.605206
 10
47.566070
 20
220.953655
 30
0.0
 10
47.644885
 20
220.957961
 30
0.0
 10
47.784341
 20
220.965581
 30
0.0
 10
47.951362
 20
221.111382
 30
0.0
 10
47.962384
 20
221.239481
 30
0.0
 10
47.968136
 20
221.306345
 30
0.0
 11
47.566070
 21
220.953655
 31
0.0
 11
47.794143
 21
220.995717
 31
0.0
 11
47.925814
 21
221.116153
 31
0.0
 11
47.968136
 21
221.306345
 31
0.0
  0
LWPOLYLINE
  5
136
100
AcDbEntity
  8
0
 62
1
100
AcDbPolyline
 90
2
 70
0
 10
47.968136
 20
221.306345
 30
0.0
 10
47.968136
 20
234.419344
 30
0.0
  0
SPLINE
  5
137
100
AcDbEntity
  8
0
 62
1
100
AcDbSpline
 70
0
 71
3
 72
10
 73
6
 74
4
 40
0.000000
 40
0.000000
 40
0.000000
 40
0.000000
 40
0.264886
 40
0.521827
 40
0.786678
 40
0.786678
 40
0.786678
 40
0.786678
 10
47.968136
 20
234.419344
 30
0.0
 10
47.981533
 20
234.508212
 30
0.0
 10
48.007923
 20
234.683281
 30
0.0
 10
48.208829
 20
234.885651
 30
0.0
 10
48.383714
 20
234.913223
 30
0.0
 10
48.472483
 20
234.927217
 30
0.0
 11
47.968136
 21
234.419344
 31
0.0
 11
48.035864
 21
234.675425
 31
0.0
 11
48.216903
 21
234.857754
 31
0.0
 11
48.472483
 21
234.927217
 31
0.0
  0
LWPOLYLINE
  5
138
100
AcDbEntity
  8
0
 62
1
100
AcDbPolyline
 90
3
 70
0
 10
48.472483
 20
234.927217
 30
0.0
 10
48.437214
 20
234.927217
 30
0.0
 10
48.437214
 20
234.927223
 30
0.0
  0
SPLINE
  5
139
100
AcDbEntity
  8
0
 62
1
100
AcDbSpline
 70
0
 71
3
 72
25
 73
21
 74
19
 40
0.000000
 40
0.000000
 40
0.000000
 40
0.000000
 40
0.431923
 40
0.856154
 40
1.288077
 40
1.720000
 40
2.144232
 40
2.576154
 40
3.008077
 40
3.432309
 40
3.864232
 40
4.296155
 40
4.720386
 40
5.152309
 40
5.440364
 40
5.726035
 40
6.014090
 40
6.302145
 40
6.587816
 40
6.875871
 40
6.875871
 40
6.875871
 40
6.875871
 10
141.339184
 20
219.930860
 30
0.0
 10
141.355904
 20
220.075764
 30
0.0
 10
141.389048
 20
220.362992
 30
0.0
 10
141.643296
 20
220.729020
 30
0.0
 10
142.006820
 20
220.974278
 30
0.0
 10
142.439852
 20
221.059759
 30
0.0
 10
142.871426
 20
220.973877
 30
0.0
 10
143.238183
 20
220.729458
 30
0.0
 10
143.482590
 20
220.362751
 30
0.0
 10
143.568472
 20
219.930992
 30
0.0
 10
143.483003
 20
219.498659
 30
0.0
 10
143.237698
 20
219.132528
 30
0.0
 10
142.871846
 20
218.887900
 30
0.0
 10
142.487386
 20
218.811274
 30
0.0
 10
142.151538
 20
218.855818
 30
0.0
 10
141.883138
 20
218.966956
 30
0.0
 10
141.652252
 20
219.143779
 30
0.0
 10
141.476587
 20
219.374375
 30
0.0
 10
141.361130
 20
219.642777
 30
0.0
 10
141.346519
 20
219.834567
 30
0.0
 10
141.339184
 20
219.930860
 30
0.0
 11
141.339184
 21
219.930860
 31
0.0
 11
141.423921
 21
220.354390
 31
0.0
 11
141.659611
 21
220.707125
 31
0.0
 11
142.018474
 21
220.947490
 31
0.0
 11
142.442191
 21
221.031280
 31
0.0
 11
142.858271
 21
220.948517
 31
0.0
 11
143.217670
 21
220.708955
 31
0.0
 11
143.457232
 21
220.349556
 31
0.0
 11
143.539995
 21
219.933476
 31
0.0
 11
143.456205
 21
219.509759
 31
0.0
 11
143.215840
 21
219.150896
 31
0.0
 11
142.863105
 21
218.915206
 31
0.0
 11
142.439575
 21
218.830469
 31
0.0
 11
142.153998
 21
218.868169
 31
0.0
 11
141.890073
 21
218.977490
 31
0.0
 11
141.661481
 21
219.152766
 31
0.0
 11
141.486205
 21
219.381358
 31
0.0
 11
141.376884
 21
219.645283
 31
0.0
 11
141.339184
 21
219.930860
 31
0.0
  0
LWPOLYLINE
  5
13a
100
AcDbEntity
  8
0
 62
1
100
AcDbPolyline
 90
1
 70
1
 10
141.339184
 20
219.930860
 30
0.0
  0
SPLINE
  5
13b
100
AcDbEntity
  8
0
 62
1
100
AcDbSpline
 70
0
 71
3
 72
25
 73
21
 74
19
 40
0.000000
 40
0.000000
 40
0.000000
 40
0.000000
 40
0.431923
 40
0.856154
 40
1.288077
 40
1.720000
 40
2.144232
 40
2.576154
 40
3.008077
 40
3.432309
 40
3.864232
 40
4.296155
 40
4.720386
 40
5.152309
 40
5.440364
 40
5.726035
 40
6.014090
 40
6.302145
 40
6.587816
 40
6.875871
 40
6.875871
 40
6.875871
 40
6.875871
 10
65.338100
 20
216.308738
 30
0.0
 10
65.354820
 20
216.453642
 30
0.0
 10
65.387964
 20
216.740870
 30
0.0
 10
65.642212
 20
217.106898
 30
0.0
 10
66.005736
 20
217.352156
 30
0.0
 10
66.438768
 20
217.437637
 30
0.0
 10
66.870342
 20
217.351755
 30
0.0
 10
67.237099
 20
217.107336
 30
0.0
 10
67.481506
 20
216.740628
 30
0.0
 10
67.567388
 20
216.308869
 30
0.0
 10
67.481919
 20
215.876537
 30
0.0
 10
67.236614
 20
215.510406
 30
0.0
 10
66.870762
 20
215.265778
 30
0.0
 10
66.486302
 20
215.189151
 30
0.0
 10
66.150454
 20
215.233696
 30
0.0
 10
65.882054
 20
215.344834
 30
0.0
 10
65.651168
 20
215.521657
 30
0.0
 10
65.475503
 20
215.752253
 30
0.0
 10
65.360046
 20
216.020655
 30
0.0
 10
65.345435
 20
216.212445
 30
0.0
 10
65.338100
 20
216.308738
 30
0.0
 11
65.338100
 21
216.308738
 31
0.0
 11
65.422837
 21
216.732267
 31
0.0
 11
65.658527
 21
217.085003
 31
0.0
 11
66.017390
 21
217.325367
 31
0.0
 11
66.441107
 21
217.409158
 31
0.0
 11
66.857187
 21
217.326395
 31
0.0
 11
67.216586
 21
217.086832
 31
0.0
 11
67.456148
 21
216.727434
 31
0.0
 11
67.538911
 21
216.311354
 31
0.0
 11
67.455121
 21
215.887636
 31
0.0
 11
67.214756
 21
215.528774
 31
0.0
 11
66.862021
 21
215.293084
 31
0.0
 11
66.438491
 21
215.208347
 31
0.0
 11
66.152914
 21
215.246047
 31
0.0
 11
65.888988
 21
215.355368
 31
0.0
 11
65.660397
 21
215.530644
 31
0.0
 11
65.485121
 21
215.759235
 31
0.0
 11
65.375800
 21
216.023161
 31
0.0
 11
65.338100
 21
216.308738
 31
0.0
  0
LWPOLYLINE
  5
13c
100
AcDbEntity
  8
0
 62
1
100
AcDbPolyline
 90
1
 70
1
 10
65.338100
 20
216.308738
 30
0.0
  0
SPLINE
  5
13d
100
AcDbEntity
  8
0
 62
1
100
AcDbSpline
 70
0
 71
3
 72
25
 73
21
 74
19
 40
0.000000
 40
0.000000
 40
0.000000
 40
0.000000
 40
0.431923
 40
0.856154
 40
1.288077
 40
1.720000
 40
2.144232
 40
2.576154
 40
3.008077
 40
3.432309
 40
3.864232
 40
4.296155
 40
4.720386
 40
5.152309
 40
5.440364
 40
5.726035
 40
6.014090
 40
6.302145
 40
6.587816
 40
6.875871
 40
6.875871
 40
6.875871
 40
6.875871
 10
65.327519
 20
197.284661
 30
0.0
 10
65.344240
 20
197.429564
 30
0.0
 10
65.377383
 20
197.716792
 30
0.0
 10
65.631631
 20
198.082820
 30
0.0
 10
65.995155
 20
198.328078
 30
0.0
 10
66.428187
 20
198.413559
 30
0.0
 10
66.859761
 20
198.327677
 30
0.0
 10
67.226519
 20
198.083258
 30
0.0
 10
67.470925
 20
197.716551
 30
0.0
 10
67.556808
 20
197.284792
 30
0.0
 10
67.471338
 20
196.852460
 30
0.0
 10
67.226033
 20
196.486328
 30
0.0
 10
66.860181
 20
196.241700
 30
0.0
 10
66.475722
 20
196.165074
 30
0.0
 10
66.139874
 20
196.209618
 30
0.0
 10
65.871473
 20
196.320756
 30
0.0
 10
65.640587
 20
196.497579
 30
0.0
 10
65.464922
 20
196.728175
 30
0.0
 10
65.349465
 20
196.996577
 30
0.0
 10
65.334855
 20
197.188367
 30
0.0
 10
65.327519
 20
197.284661
 30
0.0
 11
65.327519
 21
197.284661
 31
0.0
 11
65.412256
 21
197.708190
 31
0.0
 11
65.647947
 21
198.060925
 31
0.0
 11
66.006809
 21
198.301290
 31
0.0
 11
66.430526
 21
198.385081
 31
0.0
 11
66.846606
 21
198.302317
 31
0.0
 11
67.206005
 21
198.062755
 31
0.0
 11
67.445567
 21
197.703356
 31
0.0
 11
67.528331
 21
197.287276
 31
0.0
 11
67.444540
 21
196.863559
 31
0.0
 11
67.204175
 21
196.504696
 31
0.0
 11
66.851440
 21
196.269006
 31
0.0
 11
66.427911
 21
196.184269
 31
0.0
 11
66.142333
 21
196.221969
 31
0.0
 11
65.878408
 21
196.331291
 31
0.0
 11
65.649816
 21
196.506566
 31
0.0
 11
65.474541
 21
196.735158
 31
0.0
 11
65.365219
 21
196.999083
 31
0.0
 11
65.327519
 21
197.284661
 31
0.0
  0
LWPOLYLINE
  5
13e
100
AcDbEntity
  8
0
 62
1
100
AcDbPolyline
 90
1
 70
1
 10
65.327519
 20
197.284661
 30
0.0
  0
SPLINE
  5
13f
100
AcDbEntity
  8
0
 62
1
100
AcDbSpline
 70
0
 71
3
 72
25
 73
21
 74
19
 40
0.000000
 40
0.000000
 40
0.000000
 40
0.000000
 40
0.431923
 40
0.856154
 40
1.288077
 40
1.720000
 40
2.144232
 40
2.576154
 40
3.008077
 40
3.432309
 40
3.864232
 40
4.296155
 40
4.720386
 40
5.152309
 40
5.440364
 40
5.726035
 40
6.014090
 40
6.302145
 40
6.587816
 40
6.875871
 40
6.875871
 40
6.875871
 40
6.875871
 10
155.079971
 20
172.441204
 30
0.0
 10
155.096692
 20
172.586108
 30
0.0
 10
155.129835
 20
172.873336
 30
0.0
 10
155.384083
 20
173.239364
 30
0.0
 10
155.747607
 20
173.484622
 30
0.0
 10
156.180639
 20
173.570103
 30
0.0
 10
156.612213
 20
173.484221
 30
0.0
 10
156.978971
 20
173.239802
 30
0.0
 10
157.223377
 20
172.873095
 30
0.0
 10
157.309260
 20
172.441336
 30
0.0
 10
157.223790
 20
172.009003
 30
0.0
 10
156.978485
 20
171.642872
 30
0.0
 10
156.612633
 20
171.398244
 30
0.0
 10
156.228174
 20
171.321618
 30
0.0
 10
155.892326
 20
171.366162
 30
0.0
 10
155.623925
 20
171.477300
 30
0.0
 10
155.393039
 20
171.654123
 30
0.0
 10
155.217374
 20
171.884719
 30
0.0
 10
155.101917
 20
172.153121
 30
0.0
 10
155.087307
 20
172.344911
 30
0.0
 10
155.079971
 20
172.441204
 30
0.0
 11
155.079971
 21
172.441204
 31
0.0
 11
155.164708
 21
172.864734
 31
0.0
 11
155.400398
 21
173.217469
 31
0.0
 11
155.759261
 21
173.457834
 31
0.0
 11
156.182978
 21
173.541624
 31
0.0
 11
156.599058
 21
173.458861
 31
0.0
 11
156.958457
 21
173.219299
 31
0.0
 11
157.198019
 21
172.859900
 31
0.0
 11
157.280783
 21
172.443820
 31
0.0
 11
157.196992
 21
172.020103
 31
0.0
 11
156.956627
 21
171.661240
 31
0.0
 11
156.603892
 21
171.425550
 31
0.0
 11
156.180363
 21
171.340813
 31
0.0
 11
155.894785
 21
171.378513
 31
0.0
 11
155.630860
 21
171.487834
 31
0.0
 11
155.402268
 21
171.663110
 31
0.0
 11
155.226993
 21
171.891702
 31
0.0
 11
155.117671
 21
172.155627
 31
0.0
 11
155.079971
 21
172.441204
 31
0.0
  0
LWPOLYLINE
  5
140
100
AcDbEntity
  8
0
 62
1
100
AcDbPolyline
 90
1
 70
1
 10
155.079971
 20
172.441204
 30
0.0
  0
LWPOLYLINE
  5
141
100
AcDbEntity
  8
0
 62
1
100
AcDbPolyline
 90
1
 70
1
 10
108.570792
 20
180.193322
 30
0.0
  0
LWPOLYLINE
  5
142
100
AcDbEntity
  8
0
 62
1
100
AcDbPolyline
 90
4
 70
1
 10
50.006683
 20
232.740547
 30
0.0
 10
63.853276
 20
232.740547
 30
0.0
 10
63.853276
 20
218.893953
 30
0.0
 10
50.006683
 20
218.893953
 30
0.0
  0
LWPOLYLINE
  5
143
100
AcDbEntity
  8
0
 62
1
100
AcDbPolyline
 90
4
 70
1
 10
50.006683
 20
213.741158
 30
0.0
 10
63.853276
 20
213.741158
 30
0.0
 10
63.853276
 20
199.894565
 30
0.0
 10
50.006683
 20
199.894565
 30
0.0
  0
LWPOLYLINE
  5
144
100
AcDbEntity
  8
0
 62
1
100
AcDbPolyline
 90
4
 70
1
 10
50.006683
 20
194.745295
 30
0.0
 10
63.853276
 20
194.745295
 30
0.0
 10
63.853276
 20
180.898702
 30
0.0
 10
50.006683
 20
180.898702
 30
0.0
  0
LWPOLYLINE
  5
145
100
AcDbEntity
  8
0
 62
1
100
AcDbPolyline
 90
4
 70
1
 10
69.002545
 20
232.740547
 30
0.0
 10
82.849138
 20
232.740547
 30
0.0
 10
82.849138
 20
218.893953
 30
0.0
 10
69.002545
 20
218.893953
 30
0.0
  0
LWPOLYLINE
  5
146
100
AcDbEntity
  8
0
 62
1
100
AcDbPolyline
 90
4
 70
1
 10
69.002545
 20
213.741158
 30
0.0
 10
82.849138
 20
213.741158
 30
0.0
 10
82.849138
 20
199.894565
 30
0.0
 10
69.002545
 20
199.894565
 30
0.0
  0
LWPOLYLINE
  5
147
100
AcDbEntity
  8
0
 62
1
100
AcDbPolyline
 90
4
 70
1
 10
69.002545
 20
194.745295
 30
0.0
 10
82.849138
 20
194.745295
 30
0.0
 10
82.849138
 20
180.898702
 30
0.0
 10
69.002545
 20
180.898702
 30
0.0
  0
LWPOLYLINE
  5
148
100
AcDbEntity
  8
0
 62
1
100
AcDbPolyline
 90
4
 70
1
 10
88.001934
 20
237.487749
 30
0.0
 10
101.848527
 20
237.487749
 30
0.0
 10
101.848527
 20
223.641156
 30
0.0
 10
88.001934
 20
223.641156
 30
0.0
  0
LWPOLYLINE
  5
149
100
AcDbEntity
  8
0
 62
1
100
AcDbPolyline
 90
4
 70
1
 10
88.001934
 20
218.491888
 30
0.0
 10
101.848527
 20
218.491888
 30
0.0
 10
101.848527
 20
204.645295
 30
0.0
 10
88.001934
 20
204.645295
 30
0.0
  0
LWPOLYLINE
  5
14a
100
AcDbEntity
  8
0
 62
1
100
AcDbPolyline
 90
4
 70
1
 10
88.001934
 20
199.496024
 30
0.0
 10
101.848527
 20
199.496024
 30
0.0
 10
101.848527
 20
185.649431
 30
0.0
 10
88.001934
 20
185.649431
 30
0.0
  0
LWPOLYLINE
  5
14b
100
AcDbEntity
  8
0
 62
1
100
AcDbPolyline
 90
4
 70
1
 10
106.997797
 20
239.861350
 30
0.0
 10
120.844390
 20
239.861350
 30
0.0
 10
120.844390
 20
226.014757
 30
0.0
 10
106.997797
 20
226.014757
 30
0.0
  0
LWPOLYLINE
  5
14c
100
AcDbEntity
  8
0
 62
1
100
AcDbPolyline
 90
4
 70
1
 10
106.997797
 20
220.865488
 30
0.0
 10
120.844390
 20
220.865488
 30
0.0
 10
120.844390
 20
207.018894
 30
0.0
 10
106.997797
 20
207.018894
 30
0.0
  0
LWPOLYLINE
  5
14d
100
AcDbEntity
  8
0
 62
1
100
AcDbPolyline
 90
4
 70
1
 10
106.997797
 20
201.869625
 30
0.0
 10
120.844390
 20
201.869625
 30
0.0
 10
120.844390
 20
188.023032
 30
0.0
 10
106.997797
 20
188.023032
 30
0.0
  0
LWPOLYLINE
  5
14e
100
AcDbEntity
  8
0
 62
1
100
AcDbPolyline
 90
4
 70
1
 10
125.993655
 20
237.487749
 30
0.0
 10
139.840249
 20
237.487749
 30
0.0
 10
139.840249
 20
223.641156
 30
0.0
 10
125.993655
 20
223.641156
 30
0.0
  0
LWPOLYLINE
  5
14f
100
AcDbEntity
  8
0
 62
1
100
AcDbPolyline
 90
4
 70
1
 10
125.993655
 20
218.491888
 30
0.0
 10
139.840249
 20
218.491888
 30
0.0
 10
139.840249
 20
204.645295
 30
0.0
 10
125.993655
 20
204.645295
 30
0.0
  0
LWPOLYLINE
  5
150
100
AcDbEntity
  8
0
 62
1
100
AcDbPolyline
 90
4
 70
1
 10
125.993655
 20
199.496024
 30
0.0
 10
139.840249
 20
199.496024
 30
0.0
 10
139.840249
 20
185.649431
 30
0.0
 10
125.993655
 20
185.649431
 30
0.0
  0
LWPOLYLINE
  5
151
100
AcDbEntity
  8
0
 62
1
100
AcDbPolyline
 90
4
 70
1
 10
144.989525
 20
235.114148
 30
0.0
 10
158.836118
 20
235.114148
 30
0.0
 10
158.836118
 20
221.267555
 30
0.0
 10
144.989525
 20
221.267555
 30
0.0
  0
LWPOLYLINE
  5
152
100
AcDbEntity
  8
0
 62
1
100
AcDbPolyline
 90
4
 70
1
 10
144.989525
 20
216.118286
 30
0.0
 10
158.836118
 20
216.118286
 30
0.0
 10
158.836118
 20
202.271692
 30
0.0
 10
144.989525
 20
202.271692
 30
0.0
  0
LWPOLYLINE
  5
153
100
AcDbEntity
  8
0
 62
1
100
AcDbPolyline
 90
4
 70
1
 10
144.989525
 20
197.118896
 30
0.0
 10
158.836118
 20
197.118896
 30
0.0
 10
158.836118
 20
183.272303
 30
0.0
 10
144.989525
 20
183.272303
 30
0.0
  0
LWPOLYLINE
  5
154
100
AcDbEntity
  8
0
 62
1
100
AcDbPolyline
 90
4
 70
1
 10
116.495728
 20
179.872375
 30
0.0
 10
130.342321
 20
179.872375
 30
0.0
 10
130.342321
 20
166.025781
 30
0.0
 10
116.495728
 20
166.025781
 30
0.0
  0
LWPOLYLINE
  5
155
100
AcDbEntity
  8
0
 62
1
100
AcDbPolyline
 90
4
 70
1
 10
135.946959
 20
165.296544
 30
0.0
 10
139.516713
 20
178.675071
 30
0.0
 10
152.895240
 20
175.105317
 30
0.0
 10
149.325486
 20
161.726790
 30
0.0
  0
SPLINE
  5
156
100
AcDbEntity
  8
0
 62
1
100
AcDbSpline
 70
0
 71
3
 72
25
 73
21
 74
19
 40
0.000000
 40
0.000000
 40
0.000000
 40
0.000000
 40
0.431923
 40
0.856154
 40
1.288077
 40
1.720000
 40
2.144232
 40
2.576154
 40
3.008077
 40
3.432309
 40
3.864232
 40
4.296155
 40
4.720386
 40
5.152309
 40
5.440364
 40
5.726035
 40
6.014090
 40
6.302145
 40
6.587816
 40
6.875871
 40
6.875871
 40
6.875871
 40
6.875871
 10
108.570792
 20
180.193322
 30
0.0
 10
108.587513
 20
180.338226
 30
0.0
 10
108.620656
 20
180.625453
 30
0.0
 10
108.874904
 20
180.991482
 30
0.0
 10
109.238428
 20
181.236740
 30
0.0
 10
109.671461
 20
181.322221
 30
0.0
 10
110.103034
 20
181.236338
 30
0.0
 10
110.469792
 20
180.991919
 30
0.0
 10
110.714198
 20
180.625212
 30
0.0
 10
110.800081
 20
180.193453
 30
0.0
 10
110.714611
 20
179.761121
 30
0.0
 10
110.469306
 20
179.394990
 30
0.0
 10
110.103454
 20
179.150362
 30
0.0
 10
109.718995
 20
179.073735
 30
0.0
 10
109.383147
 20
179.118279
 30
0.0
 10
109.114747
 20
179.229418
 30
0.0
 10
108.883860
 20
179.406241
 30
0.0
 10
108.708196
 20
179.636837
 30
0.0
 10
108.592738
 20
179.905239
 30
0.0
 10
108.578128
 20
180.097029
 30
0.0
 10
108.570792
 20
180.193322
 30
0.0
 11
108.570792
 21
180.193322
 31
0.0
 11
108.655529
 21
180.616851
 31
0.0
 11
108.891220
 21
180.969587
 31
0.0
 11
109.250082
 21
181.209951
 31
0.0
 11
109.673800
 21
181.293742
 31
0.0
 11
110.089880
 21
181.210979
 31
0.0
 11
110.449278
 21
180.971416
 31
0.0
 11
110.688840
 21
180.612018
 31
0.0
 11
110.771604
 21
180.195938
 31
0.0
 11
110.687813
 21
179.772220
 31
0.0
 11
110.447449
 21
179.413358
 31
0.0
 11
110.094713
 21
179.177668
 31
0.0
 11
109.671184
 21
179.092930
 31
0.0
 11
109.385607
 21
179.130630
 31
0.0
 11
109.121681
 21
179.239952
 31
0.0
 11
108.893089
 21
179.415228
 31
0.0
 11
108.717814
 21
179.643819
 31
0.0
 11
108.608492
 21
179.907745
 31
0.0
 11
108.570792
 21
180.193322
 31
0.0
  0
LWPOLYLINE
  5
157
100
AcDbEntity
  8
0
 62
1
100
AcDbPolyline
 90
4
 70
1
 10
157.209374
 20
163.916681
 30
0.0
 10
164.124297
 20
175.913013
 30
0.0
 10
176.120629
 20
168.998090
 30
0.0
 10
169.205706
 20
157.001758
 30
0.0
  0
SPLINE
  5
158
100
AcDbEntity
  8
0
 62
1
100
AcDbSpline
 70
0
 71
3
 72
25
 73
21
 74
19
 40
0.000000
 40
0.000000
 40
0.000000
 40
0.000000
 40
0.431923
 40
0.856154
 40
1.288077
 40
1.720000
 40
2.144232
 40
2.576154
 40
3.008077
 40
3.432309
 40
3.864232
 40
4.296155
 40
4.720386
 40
5.152309
 40
5.440364
 40
5.726035
 40
6.014090
 40
6.302145
 40
6.587816
 40
6.875871
 40
6.875871
 40
6.875871
 40
6.875871
 10
100.693023
 20
89.787644
 30
0.0
 10
100.676302
 20
89.932548
 30
0.0
 10
100.643159
 20
90.219776
 30
0.0
 10
100.388911
 20
90.585804
 30
0.0
 10
100.025387
 20
90.831062
 30
0.0
 10
99.592354
 20
90.916543
 30
0.0
 10
99.160781
 20
90.830661
 30
0.0
 10
98.794023
 20
90.586242
 30
0.0
 10
98.549617
 20
90.219535
 30
0.0
 10
98.463734
 20
89.787776
 30
0.0
 10
98.549204
 20
89.355444
 30
0.0
 10
98.794509
 20
88.989312
 30
0.0
 10
99.160361
 20
88.744684
 30
0.0
 10
99.544820
 20
88.668058
 30
0.0
 10
99.880668
 20
88.712602
 30
0.0
 10
100.149068
 20
88.823740
 30
0.0
 10
100.379955
 20
89.000563
 30
0.0
 10
100.555619
 20
89.231159
 30
0.0
 10
100.671077
 20
89.499561
 30
0.0
 10
100.685687
 20
89.691351
 30
0.0
 10
100.693023
 20
89.787644
 30
0.0
 11
100.693023
 21
89.787644
 31
0.0
 11
100.608286
 21
90.211174
 31
0.0
 11
100.372595
 21
90.563909
 31
0.0
 11
100.013733
 21
90.804274
 31
0.0
 11
99.590015
 21
90.888065
 31
0.0
 11
99.173935
 21
90.805301
 31
0.0
 11
98.814537
 21
90.565739
 31
0.0
 11
98.574975
 21
90.206340
 31
0.0
 11
98.492211
 21
89.790260
 31
0.0
 11
98.576002
 21
89.366543
 31
0.0
 11
98.816366
 21
89.007680
 31
0.0
 11
99.169102
 21
88.771990
 31
0.0
 11
99.592631
 21
88.687253
 31
0.0
 11
99.878208
 21
88.724953
 31
0.0
 11
100.142134
 21
88.834274
 31
0.0
 11
100.370726
 21
89.009550
 31
0.0
 11
100.546001
 21
89.238142
 31
0.0
 11
100.655323
 21
89.502067
 31
0.0
 11
100.693023
 21
89.787644
 31
0.0
  0
LWPOLYLINE
  5
159
100
AcDbEntity
  8
0
 62
1
100
AcDbPolyline
 90
1
 70
1
 10
100.693023
 20
89.787644
 30
0.0
  0
SPLINE
  5
15a
100
AcDbEntity
  8
0
 62
1
100
AcDbSpline
 70
0
 71
3
 72
25
 73
21
 74
19
 40
0.000000
 40
0.000000
 40
0.000000
 40
0.000000
 40
0.431923
 40
0.856154
 40
1.288077
 40
1.720000
 40
2.144232
 40
2.576154
 40
3.008077
 40
3.432309
 40
3.864232
 40
4.296155
 40
4.720386
 40
5.152309
 40
5.440364
 40
5.726035
 40
6.014090
 40
6.302145
 40
6.587816
 40
6.875871
 40
6.875871
 40
6.875871
 40
6.875871
 10
67.924631
 20
129.525183
 30
0.0
 10
67.907911
 20
129.670087
 30
0.0
 10
67.874767
 20
129.957314
 30
0.0
 10
67.620519
 20
130.323343
 30
0.0
 10
67.256995
 20
130.568601
 30
0.0
 10
66.823963
 20
130.654082
 30
0.0
 10
66.392389
 20
130.568199
 30
0.0
 10
66.025632
 20
130.323780
 30
0.0
 10
65.781225
 20
129.957073
 30
0.0
 10
65.695343
 20
129.525314
 30
0.0
 10
65.780812
 20
129.092982
 30
0.0
 10
66.026117
 20
128.726850
 30
0.0
 10
66.391969
 20
128.482223
 30
0.0
 10
66.776429
 20
128.405596
 30
0.0
 10
67.112277
 20
128.450140
 30
0.0
 10
67.380677
 20
128.561279
 30
0.0
 10
67.611563
 20
128.738102
 30
0.0
 10
67.787228
 20
128.968697
 30
0.0
 10
67.902685
 20
129.237100
 30
0.0
 10
67.917296
 20
129.428889
 30
0.0
 10
67.924631
 20
129.525183
 30
0.0
 11
67.924631
 21
129.525183
 31
0.0
 11
67.839894
 21
129.948712
 31
0.0
 11
67.604204
 21
130.301448
 31
0.0
 11
67.245341
 21
130.541812
 31
0.0
 11
66.821624
 21
130.625603
 31
0.0
 11
66.405544
 21
130.542839
 31
0.0
 11
66.046145
 21
130.303277
 31
0.0
 11
65.806583
 21
129.943879
 31
0.0
 11
65.723820
 21
129.527799
 31
0.0
 11
65.807610
 21
129.104081
 31
0.0
 11
66.047975
 21
128.745219
 31
0.0
 11
66.400710
 21
128.509528
 31
0.0
 11
66.824240
 21
128.424791
 31
0.0
 11
67.109817
 21
128.462491
 31
0.0
 11
67.373742
 21
128.571813
 31
0.0
 11
67.602334
 21
128.747088
 31
0.0
 11
67.777610
 21
128.975680
 31
0.0
 11
67.886931
 21
129.239606
 31
0.0
 11
67.924631
 21
129.525183
 31
0.0
  0
LWPOLYLINE
  5
15b
100
AcDbEntity
  8
0
 62
1
100
AcDbPolyline
 90
1
 70
1
 10
67.924631
 20
129.525183
 30
0.0
  0
SPLINE
  5
15c
100
AcDbEntity
  8
0
 62
1
100
AcDbSpline
 70
0
 71
3
 72
25
 73
21
 74
19
 40
0.000000
 40
0.000000
 40
0.000000
 40
0.000000
 40
0.431923
 40
0.856154
 40
1.288077
 40
1.720000
 40
2.144232
 40
2.576154
 40
3.008077
 40
3.432309
 40
3.864232
 40
4.296155
 40
4.720386
 40
5.152309
 40
5.440364
 40
5.726035
 40
6.014090
 40
6.302145
 40
6.587816
 40
6.875871
 40
6.875871
 40
6.875871
 40
6.875871
 10
143.925715
 20
125.903061
 30
0.0
 10
143.908995
 20
126.047964
 30
0.0
 10
143.875851
 20
126.335192
 30
0.0
 10
143.621603
 20
126.701220
 30
0.0
 10
143.258079
 20
126.946478
 30
0.0
 10
142.825047
 20
127.031959
 30
0.0
 10
142.393473
 20
126.946077
 30
0.0
 10
142.026716
 20
126.701658
 30
0.0
 10
141.782309
 20
126.334951
 30
0.0
 10
141.696427
 20
125.903192
 30
0.0
 10
141.781896
 20
125.470860
 30
0.0
 10
142.027201
 20
125.104728
 30
0.0
 10
142.393053
 20
124.860100
 30
0.0
 10
142.777513
 20
124.783474
 30
0.0
 10
143.113361
 20
124.828018
 30
0.0
 10
143.381761
 20
124.939156
 30
0.0
 10
143.612647
 20
125.115979
 30
0.0
 10
143.788312
 20
125.346575
 30
0.0
 10
143.903769
 20
125.614977
 30
0.0
 10
143.918380
 20
125.806767
 30
0.0
 10
143.925715
 20
125.903061
 30
0.0
 11
143.925715
 21
125.903061
 31
0.0
 11
143.840978
 21
126.326590
 31
0.0
 11
143.605288
 21
126.679325
 31
0.0
 11
143.246425
 21
126.919690
 31
0.0
 11
142.822708
 21
127.003481
 31
0.0
 11
142.406628
 21
126.920717
 31
0.0
 11
142.047229
 21
126.681155
 31
0.0
 11
141.807667
 21
126.321756
 31
0.0
 11
141.724904
 21
125.905676
 31
0.0
 11
141.808694
 21
125.481959
 31
0.0
 11
142.049059
 21
125.123096
 31
0.0
 11
142.401794
 21
124.887406
 31
0.0
 11
142.825324
 21
124.802669
 31
0.0
 11
143.110901
 21
124.840369
 31
0.0
 11
143.374827
 21
124.949691
 31
0.0
 11
143.603418
 21
125.124966
 31
0.0
 11
143.778694
 21
125.353558
 31
0.0
 11
143.888015
 21
125.617483
 31
0.0
 11
143.925715
 21
125.903061
 31
0.0
  0
LWPOLYLINE
  5
15d
100
AcDbEntity
  8
0
 62
1
100
AcDbPolyline
 90
1
 70
1
 10
143.925715
 20
125.903061
 30
0.0
  0
SPLINE
  5
15e
100
AcDbEntity
  8
0
 62
1
100
AcDbSpline
 70
0
 71
3
 72
25
 73
21
 74
19
 40
0.000000
 40
0.000000
 40
0.000000
 40
0.000000
 40
0.431923
 40
0.856154
 40
1.288077
 40
1.720000
 40
2.144232
 40
2.576154
 40
3.008077
 40
3.432309
 40
3.864232
 40
4.296155
 40
4.720386
 40
5.152309
 40
5.440364
 40
5.726035
 40
6.014090
 40
6.302145
 40
6.587816
 40
6.875871
 40
6.875871
 40
6.875871
 40
6.875871
 10
143.936296
 20
106.893091
 30
0.0
 10
143.919575
 20
107.037994
 30
0.0
 10
143.886432
 20
107.325222
 30
0.0
 10
143.632184
 20
107.691250
 30
0.0
 10
143.268660
 20
107.936508
 30
0.0
 10
142.835628
 20
108.021989
 30
0.0
 10
142.404054
 20
107.936107
 30
0.0
 10
142.037296
 20
107.691688
 30
0.0
 10
141.792890
 20
107.324981
 30
0.0
 10
141.707007
 20
106.893222
 30
0.0
 10
141.792477
 20
106.460890
 30
0.0
 10
142.037782
 20
106.094758
 30
0.0
 10
142.403634
 20
105.850130
 30
0.0
 10
142.788093
 20
105.773504
 30
0.0
 10
143.123941
 20
105.818048
 30
0.0
 10
143.392342
 20
105.929186
 30
0.0
 10
143.623228
 20
106.106009
 30
0.0
 10
143.798893
 20
106.336605
 30
0.0
 10
143.914350
 20
106.605007
 30
0.0
 10
143.928960
 20
106.796797
 30
0.0
 10
143.936296
 20
106.893091
 30
0.0
 11
143.936296
 21
106.893091
 31
0.0
 11
143.851559
 21
107.316620
 31
0.0
 11
143.615868
 21
107.669355
 31
0.0
 11
143.257006
 21
107.909720
 31
0.0
 11
142.833289
 21
107.993511
 31
0.0
 11
142.417209
 21
107.910747
 31
0.0
 11
142.057810
 21
107.671185
 31
0.0
 11
141.818248
 21
107.311786
 31
0.0
 11
141.735484
 21
106.895706
 31
0.0
 11
141.819275
 21
106.471989
 31
0.0
 11
142.059640
 21
106.113126
 31
0.0
 11
142.412375
 21
105.877436
 31
0.0
 11
142.835904
 21
105.792699
 31
0.0
 11
143.121481
 21
105.830399
 31
0.0
 11
143.385407
 21
105.939721
 31
0.0
 11
143.613999
 21
106.114996
 31
0.0
 11
143.789274
 21
106.343588
 31
0.0
 11
143.898596
 21
106.607513
 31
0.0
 11
143.936296
 21
106.893091
 31
0.0
  0
LWPOLYLINE
  5
15f
100
AcDbEntity
  8
0
 62
1
100
AcDbPolyline
 90
1
 70
1
 10
143.936296
 20
106.893091
 30
0.0
  0
LWPOLYLINE
  5
160
100
AcDbEntity
  8
0
 62
1
100
AcDbPolyline
 90
1
 70
1
 10
54.183844
 20
82.032000
 30
0.0
  0
SPLINE
  5
161
100
AcDbEntity
  8
0
 62
1
100
AcDbSpline
 70
0
 71
3
 72
25
 73
21
 74
19
 40
0.000000
 40
0.000000
 40
0.000000
 40
0.000000
 40
0.432216
 40
0.856725
 40
1.288941
 40
1.721156
 40
2.145666
 40
2.577881
 40
3.010097
 40
3.434607
 40
3.866822
 40
4.299038
 40
4.723547
 40
5.155763
 40
5.443483
 40
5.728813
 40
6.016533
 40
6.304253
 40
6.589583
 40
6.877303
 40
6.877303
 40
6.877303
 40
6.877303
 10
54.183844
 20
82.032000
 30
0.0
 10
54.167565
 20
82.177056
 30
0.0
 10
54.135297
 20
82.464583
 30
0.0
 10
53.881892
 20
82.831585
 30
0.0
 10
53.518738
 20
83.077938
 30
0.0
 10
53.085595
 20
83.164463
 30
0.0
 10
52.653546
 20
83.079386
 30
0.0
 10
52.286104
 20
82.835434
 30
0.0
 10
52.040986
 20
82.468827
 30
0.0
 10
51.954523
 20
82.036871
 30
0.0
 10
52.039646
 20
81.604142
 30
0.0
 10
52.284876
 20
81.237628
 30
0.0
 10
52.650898
 20
80.992531
 30
0.0
 10
53.035399
 20
80.916332
 30
0.0
 10
53.371229
 20
80.959519
 30
0.0
 10
53.639601
 20
81.069966
 30
0.0
 10
53.870556
 20
81.246136
 30
0.0
 10
54.046329
 20
81.476242
 30
0.0
 10
54.161879
 20
81.744251
 30
0.0
 10
54.176502
 20
81.935817
 30
0.0
 10
54.183844
 20
82.032000
 30
0.0
 11
54.183844
 21
82.032000
 31
0.0
 11
54.100351
 21
82.456075
 31
0.0
 11
53.865497
 21
82.809701
 31
0.0
 11
53.507004
 21
83.051140
 31
0.0
 11
53.083190
 21
83.135950
 31
0.0
 11
52.666672
 21
83.053967
 31
0.0
 11
52.306614
 21
82.814869
 31
0.0
 11
52.066361
 21
82.455580
 31
0.0
 11
51.983041
 21
82.039327
 31
0.0
 11
52.066490
 21
81.615244
 31
0.0
 11
52.306777
 21
81.255977
 31
0.0
 11
52.659648
 21
81.019989
 31
0.0
 11
53.083452
 21
80.935135
 31
0.0
 11
53.368807
 21
80.971951
 31
0.0
 11
53.632680
 21
81.080507
 31
0.0
 11
53.861334
 21
81.255150
 31
0.0
 11
54.036710
 21
81.483242
 31
0.0
 11
54.146112
 21
81.746765
 31
0.0
 11
54.183844
 21
82.032000
 31
0.0
  0
LWPOLYLINE
  5
162
100
AcDbEntity
  8
0
 62
1
100
AcDbPolyline
 90
2
 70
0
 10
160.826601
 20
144.521545
 30
0.0
 10
123.832988
 20
144.521545
 30
0.0
  0
SPLINE
  5
163
100
AcDbEntity
  8
0
 62
1
100
AcDbSpline
 70
0
 71
3
 72
10
 73
6
 74
4
 40
0.000000
 40
0.000000
 40
0.000000
 40
0.000000
 40
0.261367
 40
0.515117
 40
0.776507
 40
0.776507
 40
0.776507
 40
0.776507
 10
123.832988
 20
144.521545
 30
0.0
 10
123.745501
 20
144.535767
 30
0.0
 10
123.573078
 20
144.563796
 30
0.0
 10
123.374457
 20
144.762454
 30
0.0
 10
123.346404
 20
144.934875
 30
0.0
 10
123.332169
 20
145.022364
 30
0.0
 11
123.832988
 21
144.521545
 31
0.0
 11
123.580997
 21
144.590922
 31
0.0
 11
123.401577
 21
144.770358
 31
0.0
 11
123.332169
 21
145.022364
 31
0.0
  0
LWPOLYLINE
  5
164
100
AcDbEntity
  8
0
 62
1
100
AcDbPolyline
 90
2
 70
0
 10
123.332169
 20
145.022364
 30
0.0
 10
123.332169
 20
148.771455
 30
0.0
  0
SPLINE
  5
165
100
AcDbEntity
  8
0
 62
1
100
AcDbSpline
 70
0
 71
3
 72
10
 73
6
 74
4
 40
0.000000
 40
0.000000
 40
0.000000
 40
0.000000
 40
0.261857
 40
0.515949
 40
0.777806
 40
0.777806
 40
0.777806
 40
0.777806
 10
123.332169
 20
148.771455
 30
0.0
 10
123.318394
 20
148.859211
 30
0.0
 10
123.291251
 20
149.032121
 30
0.0
 10
123.092016
 20
149.231356
 30
0.0
 10
122.919106
 20
149.258499
 30
0.0
 10
122.831350
 20
149.272274
 30
0.0
 11
123.332169
 21
148.771455
 31
0.0
 11
123.263792
 21
149.024227
 31
0.0
 11
123.084122
 21
149.203897
 31
0.0
 11
122.831350
 21
149.272274
 31
0.0
  0
LWPOLYLINE
  5
166
100
AcDbEntity
  8
0
 62
1
100
AcDbPolyline
 90
2
 70
0
 10
122.831350
 20
149.272274
 30
0.0
 10
104.837126
 20
149.272274
 30
0.0
  0
SPLINE
  5
167
100
AcDbEntity
  8
0
 62
1
100
AcDbSpline
 70
0
 71
3
 72
10
 73
6
 74
4
 40
0.000000
 40
0.000000
 40
0.000000
 40
0.000000
 40
0.261167
 40
0.514572
 40
0.775791
 40
0.775791
 40
0.775791
 40
0.775791
 10
104.837126
 20
149.272274
 30
0.0
 10
104.749490
 20
149.285426
 30
0.0
 10
104.576823
 20
149.311340
 30
0.0
 10
104.377298
 20
149.509546
 30
0.0
 10
104.350108
 20
149.682020
 30
0.0
 10
104.336306
 20
149.769566
 30
0.0
 11
104.837126
 21
149.272274
 31
0.0
 11
104.584606
 21
149.338921
 31
0.0
 11
104.404807
 21
149.517489
 31
0.0
 11
104.336306
 21
149.769566
 31
0.0
  0
LWPOLYLINE
  5
168
100
AcDbEntity
  8
0
 62
1
100
AcDbPolyline
 90
2
 70
0
 10
104.336306
 20
149.769566
 30
0.0
 10
104.336306
 20
151.021615
 30
0.0
  0
SPLINE
  5
169
100
AcDbEntity
  8
0
 62
1
100
AcDbSpline
 70
0
 71
3
 72
10
 73
6
 74
4
 40
0.000000
 40
0.000000
 40
0.000000
 40
0.000000
 40
0.261367
 40
0.515117
 40
0.776507
 40
0.776507
 40
0.776507
 40
0.776507
 10
104.336306
 20
151.021615
 30
0.0
 10
104.322085
 20
151.109101
 30
0.0
 10
104.294056
 20
151.281525
 30
0.0
 10
104.095397
 20
151.480145
 30
0.0
 10
103.922976
 20
151.508199
 30
0.0
 10
103.835487
 20
151.522434
 30
0.0
 11
104.336306
 21
151.021615
 31
0.0
 11
104.266929
 21
151.273606
 31
0.0
 11
104.087494
 21
151.453026
 31
0.0
 11
103.835487
 21
151.522434
 31
0.0
  0
LWPOLYLINE
  5
16a
100
AcDbEntity
  8
0
 62
1
100
AcDbPolyline
 90
2
 70
0
 10
103.835487
 20
151.522434
 30
0.0
 10
86.849956
 20
151.522434
 30
0.0
  0
SPLINE
  5
16b
100
AcDbEntity
  8
0
 62
1
100
AcDbSpline
 70
0
 71
3
 72
10
 73
6
 74
4
 40
0.000000
 40
0.000000
 40
0.000000
 40
0.000000
 40
0.261367
 40
0.515117
 40
0.776507
 40
0.776507
 40
0.776507
 40
0.776507
 10
86.849956
 20
151.522434
 30
0.0
 10
86.762469
 20
151.508212
 30
0.0
 10
86.590045
 20
151.480183
 30
0.0
 10
86.391425
 20
151.281525
 30
0.0
 10
86.363371
 20
151.109104
 30
0.0
 10
86.349136
 20
151.021615
 30
0.0
 11
86.849956
 21
151.522434
 31
0.0
 11
86.597964
 21
151.453057
 31
0.0
 11
86.418544
 21
151.273621
 31
0.0
 11
86.349136
 21
151.021615
 31
0.0
  0
LWPOLYLINE
  5
16c
100
AcDbEntity
  8
0
 62
1
100
AcDbPolyline
 90
2
 70
0
 10
86.349136
 20
151.021615
 30
0.0
 10
86.349136
 20
149.769566
 30
0.0
  0
SPLINE
  5
16d
100
AcDbEntity
  8
0
 62
1
100
AcDbSpline
 70
0
 71
3
 72
10
 73
6
 74
4
 40
0.000000
 40
0.000000
 40
0.000000
 40
0.000000
 40
0.261185
 40
0.514565
 40
0.775750
 40
0.775750
 40
0.775750
 40
0.775750
 10
86.349136
 20
149.769566
 30
0.0
 10
86.335335
 20
149.682029
 30
0.0
 10
86.308145
 20
149.509569
 30
0.0
 10
86.108597
 20
149.311427
 30
0.0
 10
85.935950
 20
149.285456
 30
0.0
 10
85.848317
 20
149.272274
 30
0.0
 11
86.349136
 21
149.769566
 31
0.0
 11
86.280636
 21
149.517524
 31
0.0
 11
86.100837
 21
149.338992
 31
0.0
 11
85.848317
 21
149.272274
 31
0.0
  0
LWPOLYLINE
  5
16e
100
AcDbEntity
  8
0
 62
1
100
AcDbPolyline
 90
2
 70
0
 10
85.848317
 20
149.272274
 30
0.0
 10
67.861147
 20
149.272274
 30
0.0
  0
SPLINE
  5
16f
100
AcDbEntity
  8
0
 62
1
100
AcDbSpline
 70
0
 71
3
 72
10
 73
6
 74
4
 40
0.000000
 40
0.000000
 40
0.000000
 40
0.000000
 40
0.261857
 40
0.515949
 40
0.777806
 40
0.777806
 40
0.777806
 40
0.777806
 10
67.861147
 20
149.272274
 30
0.0
 10
67.773391
 20
149.258499
 30
0.0
 10
67.600481
 20
149.231356
 30
0.0
 10
67.401245
 20
149.032121
 30
0.0
 10
67.374103
 20
148.859211
 30
0.0
 10
67.360328
 20
148.771455
 30
0.0
 11
67.861147
 21
149.272274
 31
0.0
 11
67.608375
 21
149.203897
 31
0.0
 11
67.428705
 21
149.024227
 31
0.0
 11
67.360328
 21
148.771455
 31
0.0
  0
LWPOLYLINE
  5
170
100
AcDbEntity
  8
0
 62
1
100
AcDbPolyline
 90
2
 70
0
 10
67.360328
 20
148.771455
 30
0.0
 10
67.360328
 20
147.272524
 30
0.0
  0
SPLINE
  5
171
100
AcDbEntity
  8
0
 62
1
100
AcDbSpline
 70
0
 71
3
 72
10
 73
6
 74
4
 40
0.000000
 40
0.000000
 40
0.000000
 40
0.000000
 40
0.262340
 40
0.516819
 40
0.779206
 40
0.779206
 40
0.779206
 40
0.779206
 10
67.360328
 20
147.272524
 30
0.0
 10
67.347052
 20
147.184488
 30
0.0
 10
67.320897
 20
147.011054
 30
0.0
 10
67.120979
 20
146.811214
 30
0.0
 10
66.947550
 20
146.785008
 30
0.0
 10
66.859509
 20
146.771705
 30
0.0
 11
67.360328
 21
147.272524
 31
0.0
 11
67.293073
 21
147.018951
 31
0.0
 11
67.113113
 21
146.839023
 31
0.0
 11
66.859509
 21
146.771705
 31
0.0
  0
LWPOLYLINE
  5
172
100
AcDbEntity
  8
0
 62
1
100
AcDbPolyline
 90
2
 70
0
 10
66.859509
 20
146.771705
 30
0.0
 10
48.872338
 20
146.771705
 30
0.0
  0
SPLINE
  5
173
100
AcDbEntity
  8
0
 62
1
100
AcDbSpline
 70
0
 71
3
 72
10
 73
6
 74
4
 40
0.000000
 40
0.000000
 40
0.000000
 40
0.000000
 40
0.262340
 40
0.516819
 40
0.779206
 40
0.779206
 40
0.779206
 40
0.779206
 10
48.872338
 20
146.771705
 30
0.0
 10
48.784302
 20
146.758429
 30
0.0
 10
48.610868
 20
146.732274
 30
0.0
 10
48.411029
 20
146.532356
 30
0.0
 10
48.384823
 20
146.358927
 30
0.0
 10
48.371519
 20
146.270886
 30
0.0
 11
48.872338
 21
146.771705
 31
0.0
 11
48.618765
 21
146.704450
 31
0.0
 11
48.438838
 21
146.524490
 31
0.0
 11
48.371519
 21
146.270886
 31
0.0
  0
LWPOLYLINE
  5
174
100
AcDbEntity
  8
0
 62
1
100
AcDbPolyline
 90
2
 70
0
 10
48.371519
 20
146.270886
 30
0.0
 10
48.371519
 20
145.036472
 30
0.0
  0
SPLINE
  5
175
100
AcDbEntity
  8
0
 62
1
100
AcDbSpline
 70
0
 71
3
 72
10
 73
6
 74
4
 40
0.000000
 40
0.000000
 40
0.000000
 40
0.000000
 40
0.259185
 40
0.512746
 40
0.771930
 40
0.771930
 40
0.771930
 40
0.771930
 10
48.371519
 20
145.036472
 30
0.0
 10
48.350866
 20
144.951535
 30
0.0
 10
48.310009
 20
144.783504
 30
0.0
 10
48.120906
 20
144.586410
 30
0.0
 10
47.954709
 20
144.538639
 30
0.0
 10
47.870700
 20
144.514491
 30
0.0
 11
48.371519
 21
145.036472
 31
0.0
 11
48.287906
 21
144.791145
 31
0.0
 11
48.112358
 21
144.608179
 31
0.0
 11
47.870700
 21
144.514491
 31
0.0
  0
LWPOLYLINE
  5
176
100
AcDbEntity
  8
0
 62
1
100
AcDbPolyline
 90
2
 70
0
 10
47.870700
 20
144.514491
 30
0.0
 10
28.120082
 20
144.514491
 30
0.0
  0
SPLINE
  5
177
100
AcDbEntity
  8
0
 62
1
100
AcDbSpline
 70
0
 71
3
 72
10
 73
6
 74
4
 40
0.000000
 40
0.000000
 40
0.000000
 40
0.000000
 40
0.268477
 40
0.528747
 40
0.797226
 40
0.797226
 40
0.797226
 40
0.797226
 10
28.120082
 20
144.514491
 30
0.0
 10
28.029632
 20
144.503263
 30
0.0
 10
27.851496
 20
144.481151
 30
0.0
 10
27.642525
 20
144.280649
 30
0.0
 10
27.613061
 20
144.103581
 30
0.0
 10
27.598101
 20
144.013672
 30
0.0
 11
28.120082
 21
144.514491
 31
0.0
 11
27.858925
 21
144.452224
 31
0.0
 11
27.671119
 21
144.272031
 31
0.0
 11
27.598101
 21
144.013672
 31
0.0
  0
SPLINE
  5
178
100
AcDbEntity
  8
0
 62
1
100
AcDbSpline
 70
0
 71
3
 72
10
 73
6
 74
4
 40
0.000000
 40
0.000000
 40
0.000000
 40
0.000000
 40
0.809046
 40
1.615315
 40
2.424361
 40
2.424361
 40
2.424361
 40
2.424361
 10
27.598101
 20
85.068657
 30
0.0
 10
27.624475
 20
84.799857
 30
0.0
 10
27.677132
 20
84.263177
 30
0.0
 10
27.916644
 20
83.483564
 30
0.0
 10
28.174387
 20
83.009892
 30
0.0
 10
28.303480
 20
82.772648
 30
0.0
 11
27.598101
 21
85.068657
 31
0.0
 11
27.704046
 21
84.266578
 31
0.0
 11
27.940826
 21
83.495861
 31
0.0
 11
28.303480
 21
82.772648
 31
0.0
  0
LWPOLYLINE
  5
179
100
AcDbEntity
  8
0
 62
1
100
AcDbPolyline
 90
2
 70
0
 10
27.598101
 20
144.013672
 30
0.0
 10
27.598101
 20
85.068657
 30
0.0
  0
SPLINE
  5
17a
100
AcDbEntity
  8
0
 62
1
100
AcDbSpline
 70
0
 71
3
 72
10
 73
6
 74
4
 40
0.000000
 40
0.000000
 40
0.000000
 40
0.000000
 40
8.854895
 40
17.709790
 40
26.564685
 40
26.564685
 40
26.564685
 40
26.564685
 10
28.303480
 20
82.772648
 30
0.0
 10
29.773804
 20
80.213297
 30
0.0
 10
32.714452
 20
75.094595
 30
0.0
 10
37.125423
 20
67.416542
 30
0.0
 10
40.066071
 20
62.297841
 30
0.0
 10
41.536395
 20
59.738490
 30
0.0
 11
28.303480
 21
82.772648
 31
0.0
 11
32.714452
 21
75.094595
 31
0.0
 11
37.125423
 21
67.416543
 31
0.0
 11
41.536395
 21
59.738490
 31
0.0
  0
SPLINE
  5
17b
100
AcDbEntity
  8
0
 62
1
100
AcDbSpline
 70
0
 71
3
 72
10
 73
6
 74
4
 40
0.000000
 40
0.000000
 40
0.000000
 40
0.000000
 40
0.456428
 40
0.899363
 40
1.355792
 40
1.355792
 40
1.355792
 40
1.355792
 10
41.536395
 20
59.717323
 30
0.0
 10
41.644190
 20
59.606191
 30
0.0
 10
41.856594
 20
59.387211
 30
0.0
 10
42.340323
 20
59.303083
 30
0.0
 10
42.614187
 20
59.437495
 30
0.0
 10
42.753174
 20
59.505709
 30
0.0
 11
41.536395
 21
59.717323
 31
0.0
 11
41.887720
 21
59.425953
 31
0.0
 11
42.324105
 21
59.350059
 31
0.0
 11
42.753174
 21
59.505709
 31
0.0
  0
SPLINE
  5
17c
100
AcDbEntity
  8
0
 62
1
100
AcDbSpline
 70
0
 71
3
 72
10
 73
6
 74
4
 40
0.000000
 40
0.000000
 40
0.000000
 40
0.000000
 40
5.671667
 40
11.343335
 40
17.015002
 40
17.015002
 40
17.015002
 40
17.015002
 10
42.753174
 20
59.505709
 30
0.0
 10
44.391613
 20
60.448958
 30
0.0
 10
47.668491
 20
62.335455
 30
0.0
 10
52.583808
 20
65.165202
 30
0.0
 10
55.860687
 20
67.051700
 30
0.0
 10
57.499126
 20
67.994948
 30
0.0
 11
42.753174
 21
59.505709
 31
0.0
 11
47.668491
 21
62.335455
 31
0.0
 11
52.583809
 21
65.165202
 31
0.0
 11
57.499126
 21
67.994948
 31
0.0
  0
LWPOLYLINE
  5
17d
100
AcDbEntity
  8
0
 62
1
100
AcDbPolyline
 90
2
 70
0
 10
41.536395
 20
59.738490
 30
0.0
 10
41.536395
 20
59.717323
 30
0.0
  0
SPLINE
  5
17e
100
AcDbEntity
  8
0
 62
1
100
AcDbSpline
 70
0
 71
3
 72
10
 73
6
 74
4
 40
0.000000
 40
0.000000
 40
0.000000
 40
0.000000
 40
0.095945
 40
0.191843
 40
0.287789
 40
0.287789
 40
0.287789
 40
0.287789
 10
57.499126
 20
67.994948
 30
0.0
 10
57.529462
 20
68.005098
 30
0.0
 10
57.590118
 20
68.025392
 30
0.0
 10
57.683235
 20
68.048962
 30
0.0
 10
57.746241
 20
68.059977
 30
0.0
 10
57.777751
 20
68.065486
 30
0.0
 11
57.499126
 21
67.994948
 31
0.0
 11
57.590488
 21
68.024251
 31
0.0
 11
57.683453
 21
68.047785
 31
0.0
 11
57.777751
 21
68.065486
 31
0.0
  0
LWPOLYLINE
  5
17f
100
AcDbEntity
  8
0
 62
1
100
AcDbPolyline
 90
2
 70
0
 10
57.777751
 20
68.065486
 30
0.0
 10
94.563277
 20
73.535702
 30
0.0
  0
SPLINE
  5
180
100
AcDbEntity
  8
0
 62
1
100
AcDbSpline
 70
0
 71
3
 72
10
 73
6
 74
4
 40
0.000000
 40
0.000000
 40
0.000000
 40
0.000000
 40
0.129693
 40
0.258670
 40
0.388362
 40
0.388362
 40
0.388362
 40
0.388362
 10
94.563277
 20
73.535702
 30
0.0
 10
94.606178
 20
73.541853
 30
0.0
 10
94.691741
 20
73.554122
 30
0.0
 10
94.812876
 20
73.604999
 30
0.0
 10
94.881540
 20
73.657506
 30
0.0
 10
94.915967
 20
73.683832
 30
0.0
 11
94.563277
 21
73.535702
 31
0.0
 11
94.690751
 21
73.559590
 31
0.0
 11
94.809665
 21
73.609535
 31
0.0
 11
94.915967
 21
73.683832
 31
0.0
  0
LWPOLYLINE
  5
181
100
AcDbEntity
  8
0
 62
1
100
AcDbPolyline
 90
2
 70
0
 10
94.915967
 20
73.683832
 30
0.0
 10
105.461386
 20
88.144106
 30
0.0
  0
SPLINE
  5
182
100
AcDbEntity
  8
0
 62
1
100
AcDbSpline
 70
0
 71
3
 72
10
 73
6
 74
4
 40
0.000000
 40
0.000000
 40
0.000000
 40
0.000000
 40
0.130285
 40
0.259520
 40
0.389807
 40
0.389807
 40
0.389807
 40
0.389807
 10
105.461386
 20
88.144106
 30
0.0
 10
105.494745
 20
88.172166
 30
0.0
 10
105.561195
 20
88.228061
 30
0.0
 10
105.684057
 20
88.278433
 30
0.0
 10
105.770619
 20
88.285274
 30
0.0
 10
105.814076
 20
88.288708
 30
0.0
 11
105.461386
 21
88.144106
 31
0.0
 11
105.565332
 21
88.222652
 31
0.0
 11
105.684907
 21
88.271678
 31
0.0
 11
105.814076
 21
88.288708
 31
0.0
  0
LWPOLYLINE
  5
183
100
AcDbEntity
  8
0
 62
1
100
AcDbPolyline
 90
2
 70
0
 10
105.814076
 20
88.288708
 30
0.0
 10
160.833655
 20
88.288708
 30
0.0
  0
SPLINE
  5
184
100
AcDbEntity
  8
0
 62
1
100
AcDbSpline
 70
0
 71
3
 72
13
 73
9
 74
7
 40
0.000000
 40
0.000000
 40
0.000000
 40
0.000000
 40
0.262340
 40
0.516819
 40
0.779206
 40
1.049602
 40
1.319997
 40
1.590393
 40
1.590393
 40
1.590393
 40
1.590393
 10
160.833655
 20
88.288708
 30
0.0
 10
160.921943
 20
88.301995
 30
0.0
 10
161.095872
 20
88.328171
 30
0.0
 10
161.292042
 20
88.527930
 30
0.0
 10
161.346378
 20
88.792715
 30
0.0
 10
161.331260
 20
89.059783
 30
0.0
 10
161.335278
 20
89.330353
 30
0.0
 10
161.334742
 20
89.510593
 30
0.0
 10
161.334474
 20
89.600714
 30
0.0
 11
160.833655
 21
88.288708
 31
0.0
 11
161.087228
 21
88.355963
 31
0.0
 11
161.267156
 21
88.535923
 31
0.0
 11
161.334474
 21
88.789528
 31
0.0
 11
161.334474
 21
89.059923
 31
0.0
 11
161.334474
 21
89.330318
 31
0.0
 11
161.334474
 21
89.600714
 31
0.0
  0
SPLINE
  5
185
100
AcDbEntity
  8
0
 62
1
100
AcDbSpline
 70
0
 71
3
 72
13
 73
9
 74
7
 40
0.000000
 40
0.000000
 40
0.000000
 40
0.000000
 40
7.358283
 40
14.716567
 40
22.074850
 40
22.157928
 40
22.241006
 40
22.407162
 40
22.407162
 40
22.407162
 40
22.407162
 10
161.334474
 20
89.600714
 30
0.0
 10
161.336513
 20
92.231923
 30
0.0
 10
161.340589
 20
97.494342
 30
0.0
 10
161.345336
 20
102.175885
 30
0.0
 10
161.352138
 20
113.928448
 30
0.0
 10
161.352122
 20
111.599436
 30
0.0
 10
161.352122
 20
111.440919
 30
0.0
 10
161.352122
 20
111.581701
 30
0.0
 10
161.352122
 20
111.675556
 30
0.0
 11
161.334474
 21
89.600714
 31
0.0
 11
161.340361
 21
96.958994
 31
0.0
 11
161.346236
 21
104.317276
 31
0.0
 11
161.352122
 21
111.675556
 31
0.0
 11
161.352122
 21
111.592478
 31
0.0
 11
161.352122
 21
111.509400
 31
0.0
 11
161.352122
 21
111.675556
 31
0.0
  0
SPLINE
  5
186
100
AcDbEntity
  8
0
 62
1
100
AcDbSpline
 70
0
 71
3
 72
10
 73
6
 74
4
 40
0.000000
 40
0.000000
 40
0.000000
 40
0.000000
 40
0.233713
 40
0.461805
 40
0.695514
 40
0.695514
 40
0.695514
 40
0.695514
 10
161.352122
 20
111.675556
 30
0.0
 10
161.373199
 20
111.751640
 30
0.0
 10
161.414846
 20
111.901976
 30
0.0
 10
161.597331
 20
112.069595
 30
0.0
 10
161.750657
 20
112.098343
 30
0.0
 10
161.828253
 20
112.112892
 30
0.0
 11
161.352122
 21
111.675556
 31
0.0
 11
161.435720
 21
111.893806
 31
0.0
 11
161.603703
 21
112.048103
 31
0.0
 11
161.828253
 21
112.112892
 31
0.0
  0
SPLINE
  5
187
100
AcDbEntity
  8
0
 62
1
100
AcDbSpline
 70
0
 71
3
 72
10
 73
6
 74
4
 40
0.000000
 40
0.000000
 40
0.000000
 40
0.000000
 40
6.126219
 40
12.252437
 40
18.378656
 40
18.378656
 40
18.378656
 40
18.378656
 10
161.828253
 20
112.112892
 30
0.0
 10
163.870326
 20
112.112892
 30
0.0
 10
167.954472
 20
112.112892
 30
0.0
 10
174.080690
 20
112.112892
 30
0.0
 10
178.164836
 20
112.112892
 30
0.0
 10
180.206909
 20
112.112892
 30
0.0
 11
161.828253
 21
112.112892
 31
0.0
 11
167.954472
 21
112.112892
 31
0.0
 11
174.080690
 21
112.112892
 31
0.0
 11
180.206909
 21
112.112892
 31
0.0
  0
SPLINE
  5
188
100
AcDbEntity
  8
0
 62
1
100
AcDbSpline
 70
0
 71
3
 72
10
 73
6
 74
4
 40
0.000000
 40
0.000000
 40
0.000000
 40
0.000000
 40
0.264422
 40
0.521590
 40
0.786016
 40
0.786016
 40
0.786016
 40
0.786016
 10
180.206909
 20
112.112892
 30
0.0
 10
180.295679
 20
112.124656
 30
0.0
 10
180.470785
 20
112.147863
 30
0.0
 10
180.680887
 20
112.337240
 30
0.0
 10
180.722102
 20
112.509001
 30
0.0
 10
180.742997
 20
112.596076
 30
0.0
 11
180.206909
 21
112.112892
 31
0.0
 11
180.464049
 21
112.174519
 31
0.0
 11
180.655073
 21
112.346695
 31
0.0
 11
180.742997
 21
112.596076
 31
0.0
  0
SPLINE
  5
189
100
AcDbEntity
  8
0
 62
1
100
AcDbSpline
 70
0
 71
3
 72
10
 73
6
 74
4
 40
0.000000
 40
0.000000
 40
0.000000
 40
0.000000
 40
3.980314
 40
11.715613
 40
17.468786
 40
17.468786
 40
17.468786
 40
17.468786
 10
180.742997
 20
112.596076
 30
0.0
 10
180.739271
 20
113.922842
 30
0.0
 10
180.728306
 20
117.828031
 30
0.0
 10
180.711210
 20
123.650935
 30
0.0
 10
180.698880
 20
128.147075
 30
0.0
 10
180.693620
 20
130.064793
 30
0.0
 11
180.742997
 21
112.596076
 31
0.0
 11
180.731763
 21
116.576374
 31
0.0
 11
180.709557
 21
124.311641
 31
0.0
 11
180.693620
 21
130.064793
 31
0.0
  0
LWPOLYLINE
  5
18a
100
AcDbEntity
  8
0
 62
1
100
AcDbPolyline
 90
1
 70
1
 10
161.334474
 20
89.600714
 30
0.0
  0
SPLINE
  5
18b
100
AcDbEntity
  8
0
 62
1
100
AcDbSpline
 70
0
 71
3
 72
10
 73
6
 74
4
 40
0.000000
 40
0.000000
 40
0.000000
 40
0.000000
 40
0.252908
 40
0.497815
 40
0.750725
 40
0.750725
 40
0.750725
 40
0.750725
 10
180.693620
 20
130.064793
 30
0.0
 10
180.683027
 20
130.150072
 30
0.0
 10
180.662177
 20
130.317932
 30
0.0
 10
180.470140
 20
130.512815
 30
0.0
 10
180.302604
 20
130.536132
 30
0.0
 10
180.217489
 20
130.547977
 30
0.0
 11
180.693620
 21
130.064793
 31
0.0
 11
180.634356
 21
130.310659
 31
0.0
 11
180.462459
 21
130.485104
 31
0.0
 11
180.217489
 21
130.547977
 31
0.0
  0
LWPOLYLINE
  5
18c
100
AcDbEntity
  8
0
 62
1
100
AcDbPolyline
 90
2
 70
0
 10
180.217489
 20
130.547977
 30
0.0
 10
161.743608
 20
130.547977
 30
0.0
  0
SPLINE
  5
18d
100
AcDbEntity
  8
0
 62
1
100
AcDbSpline
 70
0
 71
3
 72
10
 73
6
 74
4
 40
0.000000
 40
0.000000
 40
0.000000
 40
0.000000
 40
0.233320
 40
0.410657
 40
0.606863
 40
0.606863
 40
0.606863
 40
0.606863
 10
161.743608
 20
130.547977
 30
0.0
 10
161.664238
 20
130.551817
 30
0.0
 10
161.524543
 20
130.558574
 30
0.0
 10
161.356871
 20
130.704798
 30
0.0
 10
161.346821
 20
130.833215
 30
0.0
 10
161.341541
 20
130.900667
 30
0.0
 11
161.743608
 21
130.547977
 31
0.0
 11
161.513967
 21
130.589255
 31
0.0
 11
161.383080
 21
130.708908
 31
0.0
 11
161.341541
 21
130.900667
 31
0.0
  0
LWPOLYLINE
  5
18e
100
AcDbEntity
  8
0
 62
1
100
AcDbPolyline
 90
2
 70
0
 10
161.341541
 20
130.900667
 30
0.0
 10
161.341541
 20
144.013667
 30
0.0
  0
SPLINE
  5
18f
100
AcDbEntity
  8
0
 62
1
100
AcDbSpline
 70
0
 71
3
 72
10
 73
6
 74
4
 40
0.000000
 40
0.000000
 40
0.000000
 40
0.000000
 40
0.265546
 40
0.523216
 40
0.788762
 40
0.788762
 40
0.788762
 40
0.788762
 10
161.341541
 20
144.013667
 30
0.0
 10
161.327572
 20
144.102659
 30
0.0
 10
161.300048
 20
144.278005
 30
0.0
 10
161.098006
 20
144.480047
 30
0.0
 10
160.922661
 20
144.507571
 30
0.0
 10
160.833668
 20
144.521540
 30
0.0
 11
161.341541
 21
144.013667
 31
0.0
 11
161.272202
 21
144.270000
 31
0.0
 11
161.090001
 21
144.452200
 31
0.0
 11
160.833668
 21
144.521540
 31
0.0
  0
SPLINE
  5
190
100
AcDbEntity
  8
0
 62
1
100
AcDbSpline
 70
0
 71
3
 72
10
 73
6
 74
4
 40
0.000000
 40
0.000000
 40
0.000000
 40
0.000000
 40
0.000002
 40
0.000004
 40
0.000006
 40
0.000006
 40
0.000006
 40
0.000006
 10
160.826604
 20
144.521540
 30
0.0
 10
160.826604
 20
144.521540
 30
0.0
 10
160.826604
 20
144.521542
 30
0.0
 10
160.826602
 20
144.521543
 30
0.0
 10
160.826601
 20
144.521544
 30
0.0
 10
160.826601
 20
144.521545
 30
0.0
 11
160.826604
 21
144.521540
 31
0.0
 11
160.826603
 21
144.521542
 31
0.0
 11
160.826602
 21
144.521543
 31
0.0
 11
160.826601
 21
144.521545
 31
0.0
  0
LWPOLYLINE
  5
191
100
AcDbEntity
  8
0
 62
1
100
AcDbPolyline
 90
4
 70
0
 10
160.833668
 20
144.521540
 30
0.0
 10
160.833668
 20
144.521540
 30
0.0
 10
160.826604
 20
144.521540
 30
0.0
 10
160.826601
 20
144.521545
 30
0.0
  0
ENDSEC
  0
SECTION
  2
OBJECTS
  0
DICTIONARY
  5
C
330
0
100
AcDbDictionary
  3
ACAD_GROUP
350
D
  3
ACAD_MLINESTYLE
350
17
  0
DICTIONARY
  5
D
330
C
100
AcDbDictionary
  0
DICTIONARY
  5
1A
330
C
100
AcDbDictionary
  0
DICTIONARY
  5
17
330
C
100
AcDbDictionary
  3
STANDARD
350
18
  0
DICTIONARY
  5
19
330
C
100
AcDbDictionary
  0
ENDSEC
  0
EOF
